<?xml version="1.0" encoding="utf-8"?>
<!-- Generator: Adobe Illustrator 25.3.1, SVG Export Plug-In . SVG Version: 6.00 Build 0)  -->
<svg version="1.1" id="Layer_1" xmlns="http://www.w3.org/2000/svg" xmlns:xlink="http://www.w3.org/1999/xlink" x="0px" y="0px"
	 viewBox="0 0 1080 324" style="enable-background:new 0 0 1080 324;" xml:space="preserve">
<style type="text/css">
	.st0{opacity:0.4;}
	.st1{fill:#1B0428;}
	.st2{fill:#E2B69F;}
	.st3{fill:#070606;}
	.st4{fill:#8EA29D;}
	.st5{fill:#7B1957;}
	.st6{fill:#F8FC45;}
	.st7{fill:#F12F94;}
	.st8{fill:#FFFFFF;}
	.st9{fill:#B2E2EC;}
	.st10{fill:#1B0C0F;}
	.st11{fill:#D672B7;}
	.st12{fill:#4DAC27;}
	.st13{fill:#C9A27E;}
	.st14{fill:#312521;}
	.st15{fill:#E891A2;}
	.st16{fill:#E4B510;}
	.st17{opacity:0.25;}
	.st18{fill:#236A48;}
</style>
<g>
	<g>
		<g class="st0">
			<path class="st1" d="M319.045,307.953c0-5.943-68.445-10.763-152.873-10.763s-152.873,4.819-152.873,10.763
				c0,3.541,24.284,6.681,61.764,8.642c-0.62,0.327-0.956,0.666-0.956,1.013c0,2.69,19.602,4.87,43.784,4.87
				c20.781,0,38.167-1.611,42.65-3.769c1.871,0.006,3.745,0.009,5.632,0.009c5.613,0,11.155-0.021,16.613-0.063
				c4.297,2.186,21.806,3.826,42.764,3.826c24.181,0,43.784-2.18,43.784-4.87c0-0.549-0.828-1.073-2.33-1.565
				C298.906,314.067,319.045,311.177,319.045,307.953z"/>
		</g>
		<g>
			<path class="st2" d="M288.68,111.389c2.579,1.121,4.945,3.032,7.755,3.137c0.312,0.012,0.609,0.012,0.894,0.006
				c6.888-0.171,6.516-5.623,10.225-9.904c1.242-1.434,2.882-2.471,4.588-3.298c12.295-5.953,32.167,0.752,30.988,16.394
				c-0.39,5.179-2.669,10.031-5.337,14.483c-7.065,11.779-18.973,16.673-27.741,26.692c-2.072,2.369-4.417,4.474-6.768,6.561
				c-2.462,2.186-3.953,4.159-5.733,6.921c-4.345,6.75-9.467,13.122-13.896,19.887c-4.081,6.231-8.009,12.561-11.782,18.985
				c-1.512,2.576-5.092,11.26-9.287,10.036c-4.69-1.368-2.939-15.006-4.906-18.601c-3.592-6.564-6.684-10.145-5.91-18.202
				c0.429-4.45,2.489-8.054,5.166-11.458c1.691-2.15,3.065-4.651,4.57-6.933c0.857-1.304,4.114-4.747,4.114-6.243
				c2.132-3.236,4.072-6.801,6.654-9.689c3.116-3.481,5.76-7.434,8.378-11.338c1.286-1.919,2.537-3.949,2.896-6.229
				c0.51-3.254-1.046-5.689-1.811-8.684C280.416,118.73,280.029,107.629,288.68,111.389z"/>
		</g>
		<g>
			<path class="st3" d="M264.273,223.738c1.781-2.912,3.514-5.854,5.227-8.804c1.727-2.942,3.421-5.901,5.107-8.87
				c3.38-5.928,6.699-11.902,10.258-17.755c3.574-5.842,7.359-11.587,11.581-17.039c4.225-5.446,8.873-10.594,13.959-15.29
				c2.537-2.354,5.179-4.594,7.916-6.714c2.666-2.087,5.26-4.216,7.722-6.483c2.459-2.261,4.78-4.654,6.846-7.206
				c1.055-1.259,1.985-2.594,2.876-3.943c0.843-1.37,1.631-2.768,2.243-4.219c1.226-2.903,1.883-5.967,1.716-9.053
				c-0.141-3.089-1.034-6.159-2.249-9.188c-0.609-1.514-1.304-3.023-2.033-4.531c-0.735-1.506-1.499-3.053-2.261-4.54
				c-0.764-1.496-1.545-2.962-2.387-4.318c-0.84-1.349-1.757-2.594-2.768-3.44c-1.013-0.852-2.054-1.269-3.349-1.314
				c-1.289-0.042-2.768,0.273-4.246,0.752c-0.372,0.129-0.744,0.246-1.116,0.396l-0.555,0.213c-0.165,0.072-0.336,0.135-0.495,0.213
				c-0.648,0.297-1.25,0.645-1.799,1.055c-1.094,0.818-1.982,1.907-2.72,3.209c-1.463,2.624-2.363,5.865-3.218,9.101
				c-0.225,0.855-0.387,1.52-0.513,2.306c-0.123,0.768-0.21,1.559-0.276,2.378c-0.153,1.644-0.144,3.341-0.531,5.335
				c-0.213,0.984-0.534,2.156-1.466,3.254c-0.462,0.537-1.071,0.987-1.697,1.275c-0.626,0.285-1.253,0.438-1.829,0.507
				c-1.158,0.135-2.171,0.027-3.125-0.126c-0.477-0.081-0.942-0.174-1.391-0.285l-0.681-0.174c-0.288-0.081-0.564-0.171-0.818-0.276
				c-1.028-0.414-1.853-0.941-2.624-1.475c-0.768-0.537-1.469-1.098-2.147-1.652c-1.353-1.112-2.621-2.234-3.898-3.211
				c-1.256-0.968-2.609-1.841-3.71-2.084c-0.549-0.12-0.933-0.087-1.298,0.081c-0.369,0.162-0.785,0.534-1.166,1.061
				c-0.383,0.525-0.714,1.191-0.962,1.799c-0.231,0.626-0.357,1.265-0.387,1.922c-0.075,1.316,0.336,2.753,0.902,4.258
				c0.573,1.512,1.316,3.089,1.889,4.849c0.282,0.882,0.531,1.802,0.672,2.771c0.138,0.968,0.171,1.97,0.087,2.968
				c-0.207,2-0.923,3.898-1.919,5.5c-0.249,0.402-0.495,0.807-0.777,1.176c-0.276,0.384-0.549,0.756-0.795,1.077
				c-0.507,0.675-1.02,1.335-1.52,2.024c-4.027,5.467-8.003,11.026-11.974,16.574l-11.95,16.64c-2,2.768-4.015,5.529-6.072,8.262
				c-2.066,2.732-4.102,5.467-6.333,8.114l-1.269-1.046c2.078-2.645,4.03-5.455,5.988-8.237l5.821-8.408l11.533-16.913
				c3.85-5.64,7.65-11.302,11.623-16.897c0.492-0.699,1.013-1.397,1.52-2.096c0.27-0.36,0.492-0.681,0.708-0.995
				c0.234-0.315,0.423-0.645,0.618-0.972c0.783-1.31,1.25-2.699,1.38-4.102c0.102-1.407-0.156-2.843-0.678-4.321
				c-0.504-1.479-1.242-2.987-1.91-4.654c-0.651-1.661-1.296-3.562-1.236-5.679c0.027-1.044,0.219-2.102,0.567-3.083
				c0.378-0.978,0.803-1.856,1.415-2.72c0.609-0.852,1.434-1.736,2.621-2.3c0.585-0.279,1.242-0.453,1.883-0.504
				c0.642-0.051,1.259,0.009,1.823,0.129c1.133,0.246,2.066,0.698,2.912,1.176c0.843,0.486,1.604,1.017,2.324,1.556
				c1.44,1.083,2.741,2.216,4.036,3.257c1.275,1.026,2.606,2.027,3.751,2.474c0.141,0.057,0.27,0.096,0.393,0.129l0.56,0.132
				c0.381,0.087,0.753,0.153,1.119,0.21c0.729,0.111,1.434,0.144,1.973,0.069c0.27-0.036,0.477-0.105,0.626-0.177
				c0.147-0.075,0.234-0.147,0.327-0.261c0.186-0.21,0.399-0.725,0.519-1.403c0.246-1.364,0.273-3.1,0.408-4.852
				c0.066-0.884,0.153-1.79,0.294-2.708c0.132-0.902,0.366-1.898,0.573-2.696c0.426-1.679,0.876-3.368,1.427-5.065
				c0.558-1.697,1.209-3.413,2.141-5.094c0.929-1.673,2.207-3.31,3.848-4.552c0.813-0.62,1.694-1.133,2.594-1.553
				c0.225-0.108,0.453-0.198,0.678-0.297l0.639-0.249c0.42-0.171,0.861-0.318,1.292-0.471c1.751-0.579,3.656-1.061,5.788-0.989
				c1.059,0.036,2.171,0.243,3.211,0.657c1.044,0.408,1.985,1.011,2.783,1.688c1.604,1.368,2.69,2.942,3.656,4.477
				c0.956,1.547,1.772,3.098,2.561,4.642c0.789,1.553,1.535,3.065,2.294,4.627c0.753,1.562,1.487,3.158,2.147,4.81
				c1.329,3.29,2.342,6.879,2.474,10.631c0.165,3.751-0.698,7.518-2.171,10.87c-0.735,1.685-1.646,3.259-2.612,4.78
				c-1.005,1.487-2.048,2.945-3.203,4.288c-2.279,2.72-4.795,5.17-7.403,7.473c-2.612,2.3-5.35,4.441-8.102,6.501
				c-2.699,2.009-5.302,4.144-7.838,6.357c-10.172,8.852-18.544,19.618-26.035,30.958c-3.763,5.671-7.395,11.449-11.044,17.221
				c-1.826,2.885-3.661,5.766-5.529,8.627C268.154,218.116,266.232,220.941,264.273,223.738z"/>
		</g>
		<g>
			<path class="st2" d="M72.862,295.05c-1.341,2.126-2.462,4.393-3.782,6.507c-0.999,1.598-1.164,3.314-2.804,4.486
				c-3.16,2.261-4.972,1.512-8.543,0.738c-3.386-0.735-6.711-1.724-9.98-2.867c-3.38-1.182-7.092-0.033-10.561,0.477
				c-3.236,0.474-6.348,2.288-9.515,3.125c-4.813,1.271-9.719,0.714-14.382-0.888c-3.08-1.055-12.196-8.717-5.856-11.683
				c2.852-1.335,6.036-2.426,8.987-3.607c2.678-1.071,5.502-2.429,8.178-3.745c2.546-1.257,5.376-1.73,7.548-3.656
				c2.099-1.862,4.429-2.999,6.882-4.414c3.23-1.862,6.361-3.892,9.374-6.085c1.595-1.16,3.364-2.108,4.915-3.323
				c1.244-0.974,2.006-2.207,3.047-3.413c2.989-3.469,6.129-6.882,9.086-10.316c3.203-3.722,5.281-9.488,7.065-14.007
				c2.147-5.436,4.357-11.032,5.094-16.864c0.612-4.852,0.672-9.896,2.303-14.555c1.217-3.479,6.237-6.996,10.025-6.141
				c3.071,0.692,5.931,3.442,9.119,4.426c7.838,2.42,10.771,8.789,11.635,16.415c0.978,8.624-3.44,14.973-7.331,22.277
				c-5.05,9.476-7.64,20.127-13.308,29.288c-2.24,3.619-5.044,6.948-8.474,9.494C78.115,289.286,75.231,291.292,72.862,295.05z"/>
		</g>
		<g>
			<path class="st3" d="M78.634,199.323c0.521,3.358,0.879,6.753,0.981,10.165c0.09,3.409-0.018,6.834-0.336,10.24
				c-0.626,6.816-2.084,13.593-4.471,20.064c-1.182,3.238-2.57,6.405-4.153,9.473c-1.589,3.067-3.401,6.021-5.374,8.864
				c-3.955,5.677-8.567,10.894-13.755,15.5c-5.209,4.612-11.053,8.499-17.231,11.65c-6.168,3.176-12.73,5.512-19.075,7.788
				c-1.574,0.582-3.137,1.166-4.576,1.826c-0.717,0.33-1.401,0.681-1.994,1.055c-0.576,0.372-1.077,0.789-1.281,1.112
				c-0.222,0.333-0.219,0.45-0.186,0.828c0.078,0.384,0.315,0.945,0.696,1.514c0.366,0.582,0.869,1.154,1.343,1.703
				c0.504,0.521,1.028,1.02,1.604,1.446c1.143,0.857,2.435,1.496,3.841,1.916c1.413,0.411,2.927,0.612,4.483,0.669
				c3.122,0.108,6.387-0.363,9.671-0.939c3.292-0.582,6.624-1.304,10.067-1.841c0.861-0.135,1.727-0.258,2.603-0.36
				c0.444-0.045,0.834-0.114,1.452-0.135c0.552-0.018,1.059,0.012,1.547,0.057c1.94,0.198,3.64,0.62,5.329,1.053
				c3.347,0.869,6.57,1.874,9.722,2.456c1.551,0.282,3.139,0.456,4.345,0.27c0.6-0.09,0.999-0.285,1.166-0.453
				c0.093-0.093,0.156-0.162,0.234-0.345c0.177-0.411,0.357-0.822,0.546-1.223c1.502-3.218,3.283-6.258,5.383-9.122
				c2.108-2.846,4.537-5.535,7.533-7.716c1.499-1.079,3.166-2.006,4.984-2.66c1.832-0.624,3.805-0.962,5.809-0.813
				c1.034,0.072,2.057,0.312,2.993,0.651c0.929,0.33,1.796,0.78,2.462,1.083c0.309,0.15,0.626,0.234,0.537,0.21
				c-0.021,0.003-0.21,0.012-0.321,0.081c-0.129,0.081-0.153,0.105-0.138,0.099c0.045-0.036,0.195-0.309,0.306-0.6
				c0.123-0.294,0.231-0.657,0.336-1.02c0.204-0.723,0.381-1.568,0.528-2.303c0.063-0.3,0.075-0.564,0.066-0.686
				c-0.027-0.135,0.015-0.003,0.093,0.039c0.066,0.033-0.054-0.06-0.321-0.105c-0.261-0.054-0.62-0.081-1.022-0.102
				c-0.405-0.021-0.849-0.03-1.355-0.078c-0.507-0.054-1.086-0.111-1.811-0.435c-0.357-0.165-0.756-0.423-1.083-0.797
				c-0.327-0.372-0.546-0.828-0.653-1.232c-0.21-0.824-0.123-1.452-0.033-2c0.102-0.543,0.261-1.04,0.393-1.43l0.411-1.248
				c0.264-0.843,0.579-1.628,0.869-2.441c0.294-0.81,0.594-1.613,0.909-2.405c2.492-6.366,5.155-12.621,7.854-18.871
				c2.705-6.243,5.467-12.456,8.283-18.649c1.401-3.098,2.84-6.183,4.303-9.254c1.479-3.071,2.933-6.135,4.558-9.167l1.457,0.762
				c-2.948,6.058-5.557,12.351-8.252,18.568c-2.666,6.24-5.278,12.507-7.83,18.792c-2.546,6.285-5.059,12.594-7.374,18.937
				c-0.297,0.791-0.582,1.584-0.851,2.375c-0.27,0.791-0.573,1.586-0.803,2.372l-0.369,1.178c-0.138,0.417-0.216,0.735-0.261,1.028
				c-0.045,0.282-0.018,0.528,0,0.525c0.006,0.003-0.015-0.066-0.06-0.117c-0.045-0.057-0.081-0.075-0.051-0.066
				c0.054,0.024,0.333,0.081,0.669,0.093c0.339,0.018,0.744,0.015,1.191,0.018c0.45,0.006,0.939,0.015,1.518,0.099
				c0.564,0.093,1.286,0.252,2.021,0.822c0.36,0.282,0.675,0.672,0.879,1.073c0.207,0.402,0.318,0.803,0.378,1.164
				c0.105,0.719,0.051,1.314-0.027,1.847c-0.165,0.935-0.333,1.754-0.573,2.672c-0.123,0.456-0.252,0.909-0.444,1.403
				c-0.201,0.495-0.399,1.011-0.89,1.634c-0.267,0.309-0.587,0.651-1.11,0.906c-0.492,0.252-1.11,0.357-1.553,0.321
				c-0.945-0.066-1.424-0.33-1.892-0.51c-0.885-0.393-1.535-0.717-2.21-0.945c-0.666-0.231-1.314-0.366-1.976-0.405
				c-1.391-0.087-2.831,0.171-4.204,0.653c-1.374,0.516-2.702,1.259-3.946,2.18c-2.489,1.85-4.657,4.276-6.552,6.903
				c-1.898,2.63-3.557,5.488-4.909,8.432c-0.168,0.369-0.327,0.738-0.486,1.106c-0.243,0.603-0.666,1.256-1.184,1.748
				c-1.065,1.022-2.345,1.421-3.409,1.601c-2.168,0.324-4.003,0.051-5.788-0.237c-3.539-0.63-6.819-1.637-10.054-2.444
				c-1.604-0.396-3.215-0.783-4.66-0.927c-0.357-0.033-0.699-0.051-0.995-0.042c-0.231,0-0.681,0.063-1.083,0.108
				c-0.81,0.093-1.625,0.21-2.444,0.336c-3.271,0.507-6.582,1.217-9.982,1.817c-3.397,0.587-6.9,1.112-10.579,0.989
				c-1.835-0.066-3.716-0.309-5.566-0.849c-1.847-0.549-3.65-1.434-5.221-2.618c-0.791-0.587-1.502-1.263-2.174-1.964
				c-0.321-0.363-0.63-0.731-0.939-1.104c-0.294-0.381-0.579-0.78-0.855-1.203c-0.54-0.855-1.061-1.847-1.298-3.137
				c-0.102-0.653-0.105-1.385,0.057-2.099c0.156-0.719,0.492-1.374,0.869-1.901c0.771-1.077,1.667-1.697,2.507-2.246
				c0.849-0.525,1.685-0.939,2.513-1.31c1.658-0.741,3.287-1.329,4.903-1.91c3.232-1.145,6.414-2.222,9.542-3.428
				c3.127-1.199,6.186-2.519,9.176-3.979c5.976-2.915,11.599-6.51,16.649-10.819c5.038-4.339,9.668-9.203,13.644-14.555
				c3.976-5.356,7.305-11.203,9.863-17.392c2.54-6.195,4.363-12.714,5.35-19.387C79.018,212.904,79.195,206.097,78.634,199.323z"/>
		</g>
		<g>
			<g>
				<path class="st4" d="M91.897,250.418c1.119,5.71,26.862,48.963,55.938,54.399c-1.724-4.705-2.09-6.735-2.09-6.735
					s21.773,12.421,70.154,1.341c-3.368-1.193-6.537-3.308-6.537-3.308s32.908-9.104,44.153-31.606
					c13.02-26.061-33.03-14.996-33.03-14.996l-106.003-7.77L91.897,250.418z"/>
			</g>
			<g>
				<path class="st3" d="M92.353,250.669c0.093,0,0.129-0.093,0.123-0.084l0.087,0.279c0.066,0.186,0.129,0.375,0.207,0.564
					c0.147,0.378,0.315,0.752,0.486,1.127c0.345,0.75,0.719,1.487,1.11,2.222c0.78,1.469,1.613,2.912,2.477,4.339
					c1.73,2.852,3.584,5.632,5.524,8.348c3.881,5.43,8.112,10.615,12.708,15.44c4.603,4.81,9.584,9.275,15.062,12.99
					c5.467,3.691,11.497,6.657,17.905,7.821l0,0l-1.259,1.487c-0.315-1.151-0.612-2.306-0.879-3.473
					c-0.135-0.582-0.261-1.166-0.375-1.754c-0.114-0.594-0.219-1.166-0.297-1.799v-0.003l-0.192-1.026l0.96,0.483
					c2.561,1.286,5.422,2.186,8.252,2.929c2.852,0.731,5.751,1.289,8.672,1.691c5.844,0.813,11.761,1.038,17.662,0.902
					c5.904-0.144,11.794-0.702,17.645-1.529c5.85-0.834,11.653-1.976,17.404-3.347l0,0l-0.129,2.252
					c-1.178-0.54-2.288-1.158-3.353-1.826c-1.067-0.672-2.084-1.376-3.08-2.153l0,0l-0.896-0.597l1.046-0.336
					c4.093-1.31,8.13-2.936,12.037-4.765c3.91-1.835,7.725-3.871,11.35-6.195c3.619-2.327,7.068-4.915,10.207-7.823
					c3.131-2.915,5.937-6.174,8.159-9.794c1.092-1.815,2.096-3.704,2.813-5.659c0.729-1.94,1.199-3.991,0.984-5.91
					c-0.111-0.954-0.411-1.856-0.9-2.651c-0.492-0.791-1.191-1.46-1.994-2.015c-1.619-1.11-3.644-1.724-5.691-2.108
					c-4.138-0.735-8.471-0.626-12.744-0.267c-4.273,0.39-8.567,1.067-12.742,2.006l-0.153,0.033l-0.141-0.012l-52.986-4.018
					l-52.978-4.18l0,0l0.225-0.033C107.245,245.083,99.829,247.878,92.353,250.669z M91.444,250.166
					c7.578-2.989,15.218-5.98,22.85-8.909l0.108-0.042l0.117,0.009l0,0l53.023,3.589l53.011,3.749l-0.291,0.024
					c4.312-0.981,8.627-1.667,13.014-2.078c4.378-0.378,8.825-0.513,13.272,0.261c2.207,0.414,4.456,1.059,6.45,2.405
					c0.987,0.675,1.898,1.535,2.558,2.591s1.055,2.267,1.197,3.469c0.267,2.426-0.3,4.735-1.086,6.846
					c-0.795,2.126-1.856,4.09-3.017,5.992c-2.357,3.784-5.302,7.155-8.552,10.145c-3.248,3.001-6.834,5.595-10.573,7.896
					c-3.745,2.297-7.644,4.324-11.662,6.069c-4.027,1.73-8.114,3.277-12.361,4.435l0.15-0.933l0,0
					c1.055,0.554,2.168,1.065,3.277,1.512c1.112,0.45,2.24,0.834,3.364,1.121l4.099,1.053l-4.231,1.199l0,0
					c-5.836,1.277-11.725,2.327-17.659,3.059c-5.931,0.729-11.905,1.184-17.884,1.22c-5.98,0.027-11.971-0.309-17.89-1.244
					c-2.96-0.462-5.893-1.083-8.783-1.88c-2.89-0.822-5.724-1.754-8.456-3.191l0.768-0.543l0,0c0.156,0.521,0.36,1.083,0.564,1.622
					c0.207,0.543,0.423,1.083,0.648,1.622c0.45,1.077,0.927,2.141,1.421,3.199l0.824,1.766l-2.084-0.279l0,0
					c-6.816-1.347-13.033-4.549-18.595-8.423c-5.572-3.904-10.565-8.526-15.155-13.467c-4.582-4.957-8.774-10.256-12.609-15.794
					c-1.913-2.771-3.743-5.601-5.448-8.51c-0.851-1.454-1.676-2.927-2.444-4.432c-0.384-0.753-0.756-1.514-1.1-2.294
					c-0.171-0.39-0.342-0.783-0.492-1.191c-0.078-0.201-0.147-0.411-0.219-0.62l-0.096-0.324
					C91.411,250.669,91.4,250.37,91.444,250.166z"/>
			</g>
		</g>
		<g>
			<path class="st5" d="M114.613,235.376c-8.672,14.345,6.9,42.126,24.856,48.761c-1.296-4.321,1.065-9.803,1.065-9.803
				s2.228,22.88,47.379,19.447c-2.765-1.757-5.236-6.537-4.048-6.147c17.614,5.745,37.156-5.584,35.121-6.921
				c-5.23-3.44,6.42-1.838,18.187-15.77c-15.509-6.147-11.701-29.936-11.701-29.936l-22.649-2.336l-69.228-0.402L114.613,235.376z"
				/>
		</g>
		<g>
			<g>
				<path class="st4" d="M92.204,247.302c-21.123-34.392-17.974-63.197-13.521-84.866c0,0,3.796,4.219,8.33,5.094
					c-2.54-7.842-5.08-16.955-0.843-28.065l5.628,4.729c0,0-1.337-27.675,35.621-44.611l-2.48,12.58
					c0,0,19.227-33.756,91.565-17.303c-7.601,4.66-10.894,11.374-10.894,11.374s38.839-12.334,63.686,39.675
					c-6.783-3.979-12.576-2.855-12.576-2.855s26.212,26.808,18.34,59.797l-4.837-5.356c0,0,4.786,31.045-12.289,54.78
					c0,0-16.522-16.355-41.813-16.175c-25.291,0.18-89.142-3.955-93.037-3.232C119.188,233.592,92.204,247.302,92.204,247.302z"/>
			</g>
			<g>
				<path class="st3" d="M92.06,247.814c-1.131-1.586-2.312-3.461-3.146-4.996c-0.935-1.595-1.784-3.238-2.654-4.87
					c-1.683-3.296-3.218-6.666-4.591-10.108c-2.756-6.879-4.771-14.067-5.98-21.398c-1.205-7.331-1.589-14.802-1.211-22.226
					c0.357-7.428,1.454-14.796,2.882-22.053l0.501-2.546l1.826,1.913l0,0c0.429,0.558,0.987,1.17,1.535,1.716
					c0.558,0.552,1.151,1.073,1.769,1.559c1.242,0.962,2.618,1.757,4.12,2.207l-0.606,0.684l0,0
					c-1.595-4.513-3.032-9.194-3.424-14.1c-0.204-2.444-0.15-4.924,0.18-7.374c0.327-2.45,0.929-4.864,1.739-7.2l0.564-1.628
					l1.401,1.119l0,0l5.166,5.275l-0.873,0.432l0,0c-0.048-1.325,0.045-2.579,0.192-3.85c0.144-1.269,0.369-2.525,0.642-3.766
					c0.549-2.489,1.322-4.927,2.306-7.281c0.978-2.354,2.15-4.63,3.487-6.807c1.347-2.168,2.861-4.231,4.498-6.192
					c1.622-1.976,3.44-3.776,5.298-5.527c0.96-0.84,1.895-1.712,2.906-2.495l1.493-1.199l1.541-1.133
					c4.126-3.005,8.555-5.574,13.152-7.77l2.666-1.271l-0.531,2.956l0,0l-3.454,12.388l-0.974-0.369l0,0
					c1.125-1.838,2.477-3.395,3.922-4.903c1.452-1.49,3.02-2.857,4.657-4.135c3.296-2.525,6.879-4.669,10.651-6.394
					c3.766-1.736,7.692-3.113,11.698-4.171c4.009-1.04,8.093-1.766,12.199-2.285c8.223-0.929,16.532-0.974,24.76-0.288
					c8.231,0.681,16.397,2,24.457,3.739l3.29,0.711l-2.857,1.907h-0.003c-1.104,0.618-2.201,1.265-3.23,2.021
					c-1.046,0.735-2.033,1.559-2.981,2.432c-0.951,0.869-1.841,1.814-2.678,2.804c-0.83,0.987-1.625,2.048-2.276,3.127l-0.636-0.741
					h0.003c3.37-0.978,6.792-1.349,10.244-1.424c3.446-0.06,6.9,0.267,10.289,0.945c6.78,1.355,13.243,4.21,18.94,8.135
					c5.706,3.925,10.678,8.855,14.909,14.301c4.252,5.442,7.805,11.392,10.849,17.56l2.081,4.219l-4.243-2.234l0,0
					c-0.849-0.57-1.724-1.127-2.651-1.58c-0.918-0.486-1.887-0.855-2.876-1.193c-0.993-0.324-2.015-0.564-3.055-0.723
					c-1.028-0.156-2.12-0.231-3.119-0.159l0.279-0.89l0,0c3.793,3.982,7.029,8.388,9.908,13.039
					c2.861,4.66,5.287,9.605,7.122,14.786c1.832,5.179,3.059,10.604,3.491,16.124c0.444,5.518,0.039,11.119-1.17,16.549l0,0
					l-0.974,2.741l-1.479-2.114l-4.168-5.959l0,0l0.918-0.438c0.692,4.801,0.861,9.611,0.738,14.433
					c-0.15,4.816-0.633,9.632-1.545,14.384c-0.908,4.75-2.216,9.44-4.027,13.953c-1.775,4.528-4.117,8.846-6.885,12.876l0,0
					l-0.884,1.275l-1.154-1.106c-1.203-1.154-2.606-2.3-4-3.353c-1.409-1.061-2.863-2.066-4.36-3.005
					c-2.995-1.877-6.135-3.535-9.398-4.9c-3.254-1.386-6.636-2.462-10.075-3.271c-3.446-0.78-6.96-1.259-10.493-1.415
					c-0.885-0.033-1.763-0.039-2.654-0.054l-2.717-0.012l-5.422-0.087c-3.613-0.081-7.221-0.201-10.828-0.33
					c-7.212-0.264-14.421-0.597-21.624-0.948c-14.409-0.692-28.811-1.529-43.208-2.159c-1.799-0.075-3.599-0.138-5.392-0.183
					c-0.894-0.018-1.796-0.036-2.669-0.018c-0.459,0.018-0.818,0.006-1.193,0.114c-0.383,0.099-0.804,0.246-1.215,0.393
					c-3.314,1.263-6.591,2.804-9.854,4.312c-3.259,1.526-6.507,3.089-9.745,4.666l-4.864,2.393l-2.423,1.199l-1.209,0.603
					l-0.606,0.303l-0.303,0.15l-0.15,0.075l-0.084,0.042C92.38,247.812,92.198,247.836,92.06,247.814z M92.347,246.792
					c-0.087-0.048-0.219-0.048-0.3-0.006l0.066-0.033l0.15-0.078l0.3-0.153l0.603-0.309l1.205-0.615l2.414-1.224l4.834-2.429
					c3.23-1.611,6.465-3.205,9.722-4.768c3.269-1.547,6.507-3.113,9.92-4.45c0.435-0.162,0.863-0.321,1.353-0.45
					c0.495-0.147,1.05-0.147,1.487-0.168c0.929-0.03,1.829-0.018,2.738-0.009c1.811,0.027,3.617,0.075,5.422,0.132
					c14.427,0.495,28.83,1.197,43.238,1.751c7.203,0.282,14.406,0.546,21.608,0.744c3.601,0.096,7.2,0.183,10.798,0.228l5.395,0.036
					l2.693-0.015c0.912,0.009,1.835,0.006,2.753,0.03c3.673,0.129,7.338,0.594,10.93,1.37c3.586,0.807,7.113,1.895,10.507,3.304
					c3.403,1.385,6.678,3.077,9.811,4.999c1.565,0.962,3.089,1.994,4.57,3.089c1.49,1.106,2.9,2.228,4.312,3.557l-2.036,0.171l0,0
					c2.75-3.776,5.122-7.854,6.96-12.18c1.874-4.312,3.281-8.84,4.3-13.455c1.026-4.618,1.634-9.332,1.916-14.07
					c0.258-4.729,0.222-9.521-0.318-14.208l-0.198-1.706l1.116,1.271l0,0l5.506,4.753l-2.453,0.626l0,0
					c1.286-5.116,1.823-10.433,1.545-15.731c-0.267-5.298-1.302-10.567-2.942-15.65c-1.644-5.086-3.881-9.988-6.561-14.643
					c-2.693-4.636-5.794-9.101-9.368-13.072l0,0l-0.756-0.653l1.034-0.237c1.166-0.267,2.276-0.348,3.428-0.36
					c1.143,0,2.291,0.084,3.424,0.273c1.131,0.201,2.267,0.447,3.364,0.824c1.11,0.348,2.177,0.813,3.236,1.314l0,0l-2.159,1.985
					c-2.819-6.087-6.135-11.956-10.124-17.33c-3.97-5.38-8.651-10.25-14.058-14.169c-5.397-3.916-11.548-6.822-18.076-8.297
					c-3.259-0.735-6.603-1.137-9.953-1.16c-3.335-0.015-6.741,0.282-9.929,1.125h-0.003l-1.184,0.459l0.546-1.197
					c0.582-1.271,1.263-2.426,2.018-3.566c0.756-1.131,1.574-2.225,2.474-3.259c0.896-1.034,1.847-2.03,2.879-2.948
					c1.013-0.939,2.12-1.775,3.25-2.588h0.003l0.432,2.618c-7.926-1.862-15.95-3.308-24.041-4.126
					c-8.087-0.828-16.247-0.927-24.329-0.165c-4.033,0.435-8.046,1.071-11.986,2.018c-3.934,0.966-7.794,2.24-11.503,3.865
					c-3.712,1.617-7.242,3.644-10.495,6.042c-1.617,1.211-3.166,2.513-4.6,3.934c-1.415,1.415-2.789,2.96-3.832,4.603l0,0
					l-1.355,2.804l0.372-3.17l1.502-12.771l0,0l2.132,1.683c-4.519,1.979-8.879,4.318-12.954,7.086l-1.523,1.044l-1.475,1.106
					c-0.999,0.723-1.922,1.532-2.879,2.309c-1.844,1.625-3.652,3.302-5.278,5.152c-1.637,1.835-3.16,3.772-4.528,5.821
					c-1.358,2.054-2.561,4.21-3.58,6.453c-1.026,2.24-1.85,4.573-2.462,6.963c-0.606,2.375-1.032,4.864-1.046,7.265l0,0l0.168,1.145
					l-1.038-0.714l-6.087-4.18l0,0l1.964-0.51c-0.863,2.147-1.539,4.369-1.961,6.645c-0.423,2.276-0.591,4.603-0.516,6.936
					c0.138,4.678,1.292,9.308,2.66,13.875l0,0l0.33,0.801l-0.935-0.117c-1.742-0.216-3.407-0.843-4.939-1.664
					c-0.764-0.417-1.506-0.876-2.216-1.38c-0.719-0.513-1.38-1.02-2.078-1.67l0,0l2.327-0.633
					c-1.547,7.155-2.753,14.367-3.238,21.641c-0.507,7.269-0.264,14.588,0.783,21.804c1.05,7.215,2.896,14.318,5.491,21.156
					c1.292,3.419,2.747,6.78,4.351,10.07c0.83,1.631,1.64,3.275,2.537,4.873c0.435,0.797,0.896,1.64,1.281,2.315
					C91.607,245.28,91.967,246.015,92.347,246.792z"/>
			</g>
		</g>
		<g>
			
				<ellipse transform="matrix(0.0207 -0.9998 0.9998 0.0207 -24.3658 366.7018)" class="st6" cx="175.003" cy="195.789" rx="44.028" ry="22.677"/>
		</g>
		<g>
			<path class="st7" d="M146.284,146.492c-42.599-9.943-50.444,24.097-50.444,24.097s-6.669-5.611-6.046-22.724
				c4.654,12.522,8.663,13.857,11.521,14.652c1.106,0.306,0,0-0.456-1.053c-7.935-18.316,5.724-43.562,19.192-52.141
				c-3.976,13.32-2.138,21.33,1.413,30.709c0.705-2.795-2.153-43.801,80.188-42.093c0,0-10.792,10.885-11.458,20.286
				c13.716-7.716,46.077-2.768,69.467,18.421c0,0-11.299-3.158-15.197,2.663c19.507,11.941,29.483,35.378,26.731,51.7
				c-6.957-8.633-30.181-44.584-39.904-35.384c-13.566-15.329-43.751,1.349-55.272,22.106
				C176.02,177.733,154.846,148.489,146.284,146.492z"/>
		</g>
		<g>
			<g>
				<path class="st8" d="M162.336,190.375c0.642,22.373-2.222,41.358-20.115,43.817c-13.908,1.913-27.582-15.197-31.195-35.051
					c-4.033-22.175-5.448-41.325,19.785-47.928C156.044,144.61,161.482,160.532,162.336,190.375z"/>
			</g>
			<g>
				<path class="st3" d="M163.179,190.351c0.165,4.711,0.192,9.437-0.108,14.172c-0.315,4.726-0.933,9.482-2.357,14.097
					c-0.723,2.3-1.646,4.564-2.909,6.672c-1.253,2.108-2.843,4.063-4.78,5.644c-1.928,1.592-4.183,2.777-6.54,3.545
					c-1.182,0.381-2.387,0.669-3.601,0.863c-1.22,0.207-2.513,0.291-3.772,0.222c-2.534-0.117-4.995-0.84-7.232-1.91
					c-2.246-1.065-4.279-2.486-6.102-4.099c-3.644-3.238-6.561-7.149-8.855-11.344c-2.3-4.195-4.039-8.666-5.248-13.257
					c-0.6-2.294-1.061-4.639-1.434-6.96c-0.381-2.321-0.735-4.648-1.034-6.987c-0.606-4.669-1.038-9.386-0.836-14.127
					c0.201-4.714,1.149-9.539,3.572-13.722c1.215-2.075,2.777-3.949,4.579-5.533c1.799-1.598,3.85-2.876,5.988-3.928
					c2.138-1.059,4.387-1.859,6.666-2.501c2.282-0.636,4.594-1.143,6.945-1.466c2.348-0.303,4.732-0.456,7.107-0.234
					c2.366,0.228,4.735,0.824,6.867,1.946c2.135,1.116,3.973,2.765,5.407,4.684c1.442,1.922,2.531,4.072,3.389,6.291
					c1.7,4.456,2.567,9.152,3.182,13.83C162.678,180.935,162.978,185.646,163.179,190.351z M161.494,190.399
					c-0.081-4.681-0.261-9.359-0.735-14.001c-0.488-4.633-1.226-9.269-2.777-13.641c-0.785-2.174-1.769-4.288-3.133-6.141
					c-1.349-1.856-3.071-3.442-5.089-4.534c-2.009-1.11-4.285-1.7-6.585-1.901c-2.303-0.21-4.639-0.066-6.936,0.297
					c-4.588,0.758-9.116,2.099-13.254,4.153c-2.063,1.04-4,2.312-5.733,3.815c-1.73,1.506-3.221,3.277-4.39,5.251
					c-2.366,3.949-3.386,8.6-3.625,13.23c-0.138,2.324-0.066,4.66,0.108,6.987c0.18,2.327,0.432,4.654,0.797,6.966
					c0.36,2.312,0.774,4.618,1.217,6.921c0.423,2.306,0.941,4.561,1.634,6.783c1.364,4.438,3.242,8.711,5.626,12.658
					c2.399,3.925,5.254,7.596,8.726,10.505c1.739,1.44,3.611,2.705,5.613,3.646c2.003,0.939,4.141,1.529,6.3,1.667
					c1.086,0.069,2.15,0.015,3.248-0.162c1.104-0.168,2.195-0.402,3.254-0.725c2.114-0.651,4.105-1.652,5.827-3.026
					c3.485-2.732,5.743-6.834,7.146-11.158c1.413-4.354,2.087-8.969,2.462-13.599C161.551,199.751,161.593,195.073,161.494,190.399z
					"/>
			</g>
		</g>
		<g>
			<path class="st3" d="M168.868,189.379c1.131,22.499-2.477,39.514-20.406,41.715c-13.236,1.625-27.294-13.095-30.904-32.95
				c-4.033-22.175-5.449-41.325,19.785-47.928C162.573,143.613,167.233,156.862,168.868,189.379z"/>
			<path class="st3" d="M146.41,231.661c-12.978,0-25.828-14.423-29.288-33.436c-4.102-22.547-5.422-41.754,20.109-48.438
				c9.896-2.588,16.72-2.171,21.486,1.32c7.5,5.494,9.614,18.709,10.598,38.248l0,0c0.645,12.825-0.336,21.929-3.089,28.659
				c-3.287,8.036-9.077,12.46-17.704,13.518C147.814,231.619,147.112,231.661,146.41,231.661z M148.329,149.008
				c-3.11,0-6.708,0.549-10.876,1.637c-24.793,6.489-23.483,25.315-19.462,47.421c3.566,19.59,17.212,34.2,30.416,32.587
				c15.182-1.862,21.357-14.586,20.016-41.253l0,0c-0.968-19.282-3.02-32.293-10.235-37.576
				C155.623,149.943,152.393,149.008,148.329,149.008z"/>
		</g>
		<g>
			<g>
				<path class="st8" d="M188.845,194.84c2.651,22.37,12.94,42.45,30.929,40.746c13.983-1.322,22.808-20.589,22.358-41.262
					c-0.468-21.554-4.153-41.475-30.242-42.128C185.804,151.545,184.785,160.607,188.845,194.84z"/>
			</g>
			<g>
				<path class="st3" d="M189.609,194.747c0.603,4.66,1.532,9.275,2.879,13.758c1.349,4.474,3.106,8.837,5.473,12.813
					c2.36,3.961,5.368,7.574,9.152,10.021c3.766,2.459,8.312,3.494,12.763,2.984c2.174-0.234,4.273-0.981,6.168-2.111
					c1.898-1.127,3.58-2.642,5.071-4.336c2.968-3.421,5.098-7.596,6.639-11.947c1.539-4.366,2.486-8.951,2.962-13.584
					c0.246-2.315,0.372-4.648,0.378-6.978c-0.009-2.336-0.069-4.705-0.18-7.047c-0.24-4.69-0.714-9.371-1.793-13.905
					c-1.083-4.513-2.831-8.915-5.71-12.52c-1.43-1.799-3.146-3.368-5.065-4.639c-1.916-1.281-4.048-2.234-6.258-2.933
					c-2.213-0.702-4.519-1.125-6.843-1.374c-2.321-0.24-4.681-0.279-7.038-0.27c-2.351,0.021-4.702,0.144-7.014,0.486
					c-2.303,0.345-4.594,0.929-6.615,2.024c-2.027,1.077-3.71,2.729-4.771,4.762c-1.079,2.027-1.604,4.327-1.895,6.633
					c-0.558,4.642-0.27,9.377,0.111,14.073C188.428,185.358,189.01,190.054,189.609,194.747z M188.077,194.93
					c-0.507-4.714-0.989-9.434-1.302-14.178c-0.285-4.741-0.477-9.524,0.159-14.298c0.333-2.375,0.933-4.759,2.084-6.927
					c1.131-2.177,2.978-3.986,5.14-5.122c2.159-1.16,4.534-1.754,6.894-2.15c2.369-0.381,4.759-0.531,7.143-0.582
					c2.378-0.039,4.765-0.027,7.158,0.189c2.387,0.228,4.768,0.633,7.08,1.337c2.312,0.692,4.549,1.685,6.606,2.99
					c2.054,1.304,3.91,2.936,5.467,4.813c3.133,3.766,5.05,8.357,6.258,13c1.211,4.666,1.781,9.443,2.114,14.202
					c0.159,2.387,0.267,4.75,0.321,7.152c0.039,2.405-0.048,4.81-0.258,7.209c-0.444,4.792-1.382,9.557-2.951,14.145
					c-1.578,4.573-3.766,9.02-6.984,12.804c-1.607,1.883-3.5,3.574-5.679,4.861c-2.171,1.289-4.639,2.162-7.182,2.426
					c-2.489,0.264-5.028,0.138-7.476-0.462c-2.447-0.591-4.765-1.658-6.84-3.034c-4.159-2.786-7.29-6.726-9.677-10.924
					c-2.399-4.219-4.114-8.75-5.409-13.362C189.454,204.394,188.599,199.674,188.077,194.93z"/>
			</g>
		</g>
		<g>
			<g>
				<path class="st3" d="M195.526,192.09c3.1,22.313,14.061,46.425,30.76,39.52c9.866-4.081,21.923-18.979,22.559-39.148
					c0.896-28.457-4.153-41.475-30.242-42.128C192.515,149.68,190.926,158.964,195.526,192.09z"/>
			</g>
			<g>
				<path class="st3" d="M196.363,191.973c0.678,4.606,1.655,9.167,2.972,13.62c1.322,4.45,2.972,8.807,5.127,12.876
					c1.079,2.03,2.294,3.986,3.679,5.782c1.386,1.796,2.962,3.434,4.753,4.726c1.784,1.289,3.802,2.21,5.914,2.51
					c2.108,0.318,4.279-0.003,6.318-0.758c2.048-0.758,3.973-1.943,5.766-3.292c1.805-1.347,3.457-2.918,4.987-4.6
					c1.535-1.683,2.942-3.493,4.207-5.401c1.259-1.913,2.375-3.925,3.374-5.994c1.988-4.147,3.395-8.591,4.165-13.158
					c0.399-2.285,0.603-4.588,0.684-6.927c0.09-2.339,0.147-4.678,0.135-7.017c0-2.339-0.114-4.675-0.318-6.999
					c-0.213-2.321-0.504-4.642-1.032-6.906c-0.516-2.264-1.211-4.489-2.198-6.57c-0.993-2.078-2.273-4.015-3.877-5.64
					c-1.598-1.631-3.485-2.972-5.547-3.97c-2.063-1.005-4.27-1.716-6.522-2.237c-4.522-1.017-9.209-1.302-13.878-1.308
					c-2.333,0.012-4.672,0.108-6.972,0.453c-2.291,0.345-4.576,0.89-6.627,1.928c-2.051,1.022-3.808,2.585-4.963,4.546
					c-1.17,1.958-1.769,4.219-2.096,6.498c-0.324,2.285-0.381,4.615-0.33,6.942c0.054,2.327,0.228,4.654,0.453,6.981
					C194.998,182.701,195.661,187.34,196.363,191.973z M194.692,192.204c-0.582-4.663-1.127-9.338-1.466-14.043
					c-0.165-2.351-0.279-4.711-0.273-7.08c0.009-2.366,0.123-4.744,0.519-7.098c0.399-2.345,1.083-4.696,2.348-6.771
					c1.259-2.078,3.176-3.724,5.341-4.762c2.171-1.038,4.501-1.628,6.84-1.979c2.345-0.342,4.705-0.498,7.062-0.561
					c4.702-0.093,9.464,0.051,14.121,1.065c2.324,0.498,4.618,1.232,6.771,2.306c2.15,1.061,4.153,2.474,5.815,4.222
					c1.667,1.745,2.978,3.799,3.973,5.97c0.995,2.174,1.685,4.465,2.186,6.78c1.005,4.639,1.319,9.365,1.466,14.07
					c0.075,2.354,0.081,4.711,0.051,7.062c-0.033,2.354-0.144,4.741-0.441,7.098c-0.585,4.723-1.826,9.377-3.7,13.788
					c-1.865,4.414-4.429,8.543-7.58,12.207c-3.203,3.592-7.017,6.831-11.752,8.582c-2.36,0.846-4.99,1.193-7.527,0.768
					c-2.543-0.402-4.897-1.547-6.882-3.032c-1.991-1.496-3.673-3.304-5.127-5.238c-1.454-1.937-2.699-4.003-3.793-6.132
					c-2.186-4.261-3.815-8.75-5.104-13.311C196.252,201.548,195.319,196.897,194.692,192.204z"/>
			</g>
		</g>
		<g>
			<g>
				<path class="st9" d="M87.091,194.408c8.675-15.551,37.807-56.234,78.047-31.795c2.339-32.005-44.39-39.541-67.983-9.71
					c9.017,0.855,9.962,1.94,9.962,1.94S90.518,158.502,87.091,194.408z"/>
			</g>
			<g>
				<g>
					<path class="st3" d="M87.244,193.922c-0.006-0.132-0.051-0.261-0.108-0.339c-0.057-0.081-0.102-0.111-0.096-0.15
						c-0.012-0.009,0.087-0.174,0.138-0.27l0.18-0.33l0.729-1.316c0.488-0.876,1.007-1.733,1.526-2.591
						c1.05-1.709,2.141-3.391,3.283-5.041c2.273-3.31,4.777-6.462,7.464-9.461c5.362-5.988,11.578-11.359,18.781-15.198
						c3.599-1.904,7.434-3.413,11.425-4.345c3.991-0.918,8.13-1.275,12.213-0.954c4.09,0.282,8.102,1.242,11.905,2.663
						c3.805,1.427,7.383,3.358,10.723,5.586l0,0l-0.774,0.399c0.105-3.722-0.36-7.455-1.727-10.846
						c-0.675-1.694-1.52-3.31-2.558-4.795c-1.038-1.485-2.261-2.831-3.607-4.039c-2.699-2.414-5.934-4.201-9.365-5.416
						c-3.44-1.199-7.074-1.874-10.738-2.018c-7.335-0.306-14.736,1.289-21.435,4.387c-6.714,3.092-12.732,7.706-17.645,13.374
						l-0.351-0.824c1.709,0.063,3.421,0.15,5.146,0.315c0.861,0.084,1.724,0.183,2.6,0.333c0.438,0.072,0.879,0.165,1.329,0.276
						c0.228,0.063,0.456,0.123,0.699,0.21c0.12,0.039,0.249,0.096,0.381,0.153c0.075,0.036,0.138,0.063,0.222,0.114
						c0.105,0.075,0.114,0.033,0.387,0.297l0.006,0.006l1.275,1.407l-1.886,0.444c-0.3,0.072-0.774,0.237-1.164,0.405
						c-0.408,0.171-0.813,0.375-1.211,0.585c-0.797,0.432-1.562,0.945-2.294,1.502c-1.475,1.11-2.795,2.45-3.994,3.887
						c-2.39,2.896-4.276,6.243-5.755,9.761c-1.487,3.518-2.615,7.203-3.461,10.954c-0.426,1.877-0.789,3.769-1.1,5.671l-0.429,2.798
						c-0.057,0.39-0.15,0.735-0.291,1.119C87.526,193.017,87.366,193.454,87.244,193.922z M86.941,194.897
						c-0.018-0.498-0.072-1.022-0.105-1.604c-0.036-0.579-0.024-1.197,0.024-1.772l0.039-0.429l0.045-0.366l0.09-0.725l0.183-1.452
						c0.264-1.934,0.582-3.859,0.962-5.778c0.758-3.835,1.808-7.629,3.242-11.296c1.427-3.667,3.29-7.209,5.755-10.369
						c1.242-1.568,2.621-3.053,4.213-4.321c0.791-0.639,1.628-1.232,2.522-1.749c0.45-0.255,0.906-0.501,1.388-0.717
						c0.498-0.222,0.933-0.408,1.571-0.579l-0.609,1.85l0.003,0.006c0.195,0.189,0.111,0.093,0.129,0.111
						c-0.006-0.009-0.039-0.027-0.057-0.042c-0.06-0.033-0.12-0.072-0.198-0.111c-0.15-0.078-0.327-0.15-0.501-0.222
						c-0.363-0.138-0.744-0.267-1.137-0.383c-0.783-0.237-1.595-0.435-2.414-0.615c-1.64-0.363-3.308-0.653-4.984-0.923
						l-0.852-0.135l0.498-0.69c4.48-6.192,10.487-11.401,17.443-14.831c6.933-3.448,14.751-5.251,22.556-4.882
						c3.892,0.186,7.79,0.896,11.467,2.279c3.673,1.364,7.155,3.382,10.015,6.12c2.885,2.699,5.083,6.138,6.315,9.863
						c1.232,3.73,1.547,7.695,1.1,11.512l-0.093,0.795l-0.681-0.396l0,0c-6.933-3.782-14.483-6.45-22.244-6.84
						c-7.743-0.441-15.513,1.463-22.397,5.107c-3.454,1.799-6.726,3.979-9.791,6.423c-3.071,2.441-5.964,5.122-8.669,7.992
						c-2.714,2.864-5.215,5.928-7.611,9.074c-1.193,1.578-2.336,3.193-3.442,4.837c-0.552,0.822-1.092,1.652-1.625,2.486
						l-0.791,1.256l-0.429,0.696c-0.117,0.177-0.282,0.366-0.465,0.501C87.234,194.723,87.067,194.813,86.941,194.897z"/>
				</g>
			</g>
		</g>
		<g>
			<g>
				<path class="st9" d="M264.972,196.732c-8.021-15.899-35.444-57.752-76.662-35.003c-1.007-32.074,45.991-37.663,68.328-6.882
					c-9.044,0.48-10.034,1.526-10.034,1.526S263.038,160.715,264.972,196.732z"/>
			</g>
			<g>
				<g>
					<path class="st3" d="M265.101,197.227c-0.123-0.09-0.288-0.186-0.462-0.33c-0.174-0.144-0.333-0.339-0.444-0.521l-0.402-0.714
						l-0.738-1.289c-0.498-0.855-1.005-1.706-1.52-2.552c-1.034-1.688-2.111-3.349-3.238-4.975
						c-2.264-3.244-4.636-6.408-7.227-9.383c-2.582-2.978-5.362-5.778-8.33-8.342c-2.96-2.573-6.138-4.882-9.515-6.825
						c-6.726-3.925-14.409-6.147-22.163-6.03c-7.77,0.066-15.425,2.42-22.508,5.91l0,0l-0.696,0.369l-0.06-0.797
						c-0.288-3.832,0.192-7.782,1.578-11.458c1.385-3.671,3.722-7.017,6.717-9.593c2.968-2.618,6.534-4.489,10.258-5.7
						c3.73-1.23,7.653-1.775,11.551-1.799c7.811-0.045,15.548,2.081,22.334,5.815c6.81,3.716,12.592,9.167,16.814,15.542
						l0.471,0.708l-0.855,0.099c-1.685,0.198-3.364,0.423-5.02,0.714c-0.824,0.147-1.646,0.312-2.438,0.516
						c-0.396,0.099-0.783,0.213-1.152,0.336c-0.177,0.066-0.357,0.129-0.51,0.201c-0.081,0.033-0.144,0.072-0.204,0.102
						c-0.018,0.015-0.054,0.033-0.06,0.039c0.018-0.018-0.072,0.078,0.132-0.105l0.006-0.006l-0.534-1.874
						c0.63,0.198,1.059,0.402,1.545,0.645c0.471,0.237,0.918,0.501,1.358,0.774c0.873,0.554,1.685,1.182,2.447,1.854
						c1.539,1.335,2.857,2.873,4.03,4.492c2.333,3.257,4.045,6.876,5.32,10.598c1.283,3.724,2.171,7.56,2.771,11.422
						c0.303,1.931,0.54,3.871,0.723,5.811l0.123,1.457l0.06,0.729l0.03,0.369l0.021,0.429c0.024,0.576,0.012,1.193-0.048,1.772
						C265.215,196.207,265.14,196.732,265.101,197.227z M264.84,196.24c-0.105-0.471-0.243-0.917-0.369-1.304
						c-0.126-0.39-0.204-0.738-0.246-1.131l-0.306-2.807c-0.234-1.913-0.519-3.821-0.867-5.712
						c-0.69-3.784-1.664-7.512-3.005-11.089c-1.331-3.574-3.073-6.996-5.343-9.992c-1.139-1.487-2.402-2.879-3.829-4.051
						c-0.708-0.591-1.452-1.133-2.231-1.598c-0.39-0.228-0.785-0.45-1.184-0.636c-0.381-0.186-0.846-0.369-1.145-0.453l-1.865-0.521
						l1.331-1.352l0.006-0.006c0.285-0.252,0.288-0.21,0.399-0.282c0.087-0.045,0.15-0.069,0.225-0.105
						c0.135-0.051,0.267-0.102,0.387-0.135c0.246-0.078,0.477-0.129,0.708-0.18c0.456-0.093,0.9-0.165,1.341-0.219
						c0.882-0.114,1.745-0.177,2.612-0.225c1.727-0.093,3.442-0.111,5.155-0.102l-0.387,0.81
						c-4.672-5.865-10.495-10.726-17.074-14.094c-6.567-3.37-13.893-5.271-21.233-5.271c-3.667-0.006-7.326,0.516-10.813,1.571
						c-3.479,1.071-6.783,2.723-9.581,5.023c-1.394,1.151-2.672,2.447-3.769,3.887c-1.1,1.44-2.012,3.02-2.756,4.684
						c-1.506,3.335-2.126,7.044-2.174,10.765l-0.756-0.432l0,0c3.43-2.087,7.086-3.871,10.945-5.137
						c3.856-1.259,7.908-2.051,12.004-2.165c4.093-0.15,8.213,0.378,12.163,1.46c3.949,1.098,7.718,2.765,11.236,4.816
						c7.038,4.135,13.026,9.755,18.133,15.962c2.558,3.11,4.93,6.363,7.065,9.764c1.073,1.694,2.093,3.424,3.071,5.173
						c0.486,0.879,0.968,1.755,1.418,2.651l0.675,1.343l0.165,0.339c0.045,0.096,0.138,0.267,0.126,0.273
						c0.003,0.039-0.042,0.066-0.102,0.144C264.901,195.982,264.85,196.108,264.84,196.24z"/>
				</g>
			</g>
		</g>
		<g>
			
				<ellipse transform="matrix(0.0207 -0.9998 0.9998 0.0207 -25.452 321.9254)" class="st8" cx="151.604" cy="173.955" rx="11.056" ry="7.752"/>
			<path class="st3" d="M151.487,185.631c-0.042,0-0.084,0-0.126,0c-4.609-0.096-8.25-5.407-8.114-11.836
				c0.132-6.429,3.97-11.584,8.6-11.488c4.609,0.096,8.25,5.407,8.114,11.836C159.83,180.512,156.039,185.631,151.487,185.631z
				 M151.718,163.522c-3.892,0-7.137,4.588-7.254,10.297c-0.12,5.761,2.987,10.513,6.924,10.594c0.033,0,0.069,0,0.102,0
				c3.892,0,7.137-4.588,7.254-10.297c0.12-5.761-2.987-10.513-6.924-10.594C151.787,163.522,151.751,163.522,151.718,163.522z"/>
		</g>
		<g>
			
				<ellipse transform="matrix(0.0207 -0.9998 0.9998 0.0207 -53.3821 332.251)" class="st8" cx="142.91" cy="193.375" rx="5.53" ry="3.875"/>
			<path class="st3" d="M142.851,199.218c-0.021,0-0.042,0-0.063,0c-2.303-0.048-4.123-2.702-4.057-5.92
				c0.033-1.539,0.486-2.981,1.275-4.057c0.813-1.11,1.916-1.7,3.026-1.685c2.306,0.048,4.126,2.702,4.058,5.916
				C147.022,196.66,145.127,199.218,142.851,199.218z M142.965,188.162c-0.915,0-1.79,0.51-2.471,1.44
				c-0.717,0.978-1.127,2.297-1.158,3.712c-0.06,2.879,1.493,5.257,3.463,5.298c0.018,0,0.036,0,0.051,0
				c1.946,0,3.568-2.294,3.628-5.149l0,0c0.06-2.879-1.493-5.257-3.463-5.296C143.001,188.162,142.983,188.162,142.965,188.162z"/>
		</g>
		<g>
			
				<ellipse transform="matrix(0.0207 -0.9998 0.9998 0.0207 49.1462 398.0759)" class="st8" cx="227.775" cy="173.951" rx="11.056" ry="7.752"/>
			<path class="st3" d="M227.66,185.631c-0.042,0-0.084,0-0.126,0c-4.609-0.096-8.25-5.407-8.114-11.836
				c0.063-3.077,0.968-5.959,2.549-8.114c1.628-2.222,3.809-3.419,6.052-3.374c4.609,0.096,8.25,5.407,8.114,11.836l0,0
				C236.002,180.512,232.211,185.631,227.66,185.631z M227.891,163.522c-1.829,0-3.58,1.017-4.942,2.876
				c-1.434,1.958-2.255,4.594-2.315,7.422c-0.12,5.761,2.987,10.513,6.924,10.594c0.033,0,0.069,0,0.102,0
				c3.892,0,7.137-4.588,7.254-10.297c0.12-5.761-2.987-10.513-6.924-10.594C227.96,163.522,227.924,163.522,227.891,163.522z"/>
		</g>
		<g>
			
				<ellipse transform="matrix(0.0207 -0.9998 0.9998 0.0207 21.2136 408.3974)" class="st8" cx="219.077" cy="193.37" rx="5.53" ry="3.875"/>
			<path class="st3" d="M219.024,199.218c-0.021,0-0.042,0-0.063,0c-2.303-0.048-4.126-2.702-4.058-5.92
				c0.033-1.539,0.486-2.981,1.275-4.057c0.813-1.112,1.919-1.703,3.026-1.685c2.303,0.048,4.126,2.702,4.057,5.916
				c-0.033,1.539-0.482,2.981-1.275,4.057C221.189,198.621,220.136,199.218,219.024,199.218z M219.137,188.162
				c-0.915,0-1.79,0.51-2.471,1.44c-0.717,0.978-1.127,2.297-1.158,3.712c-0.06,2.879,1.493,5.257,3.463,5.298
				c0.935,0.006,1.829-0.492,2.522-1.436c0.717-0.978,1.127-2.297,1.158-3.712l0,0c0.06-2.879-1.493-5.257-3.463-5.296
				C219.174,188.162,219.156,188.162,219.137,188.162z"/>
		</g>
		<g>
			<path class="st10" d="M176.146,265.714c-1.409,0.039-2.813,0.117-4.18,0.162c-3.533,0.117-4.672,1.226-9.095,3.02
				c-2.171,0.882-4.513,1.811-5.661,3.854c-3.644-1.401-5.607-5.029-8.435-7.58c-4.33-3.907-4.366-8.717-5.341-11.062
				c-1.353-3.244,0.873-0.639,1.353-3.79c0.057-0.381,0.147-0.81,0.477-1.005c0.225-0.135,0.504-0.12,0.764-0.09
				c3.913,0.468,6.675,3.904,9.965,6.075c1.073,0.711,2.699-0.659,3.889-0.183c1.271,0.507,2.471-0.719,3.559-0.045
				c2.384,1.479,5.937,1.499,8.648,1.589c3.368,0.114,6.738,0.048,10.097-0.195c2.795-0.204,3.871,0.549,6.267-0.828l13.2-5.964
				c1.442-0.828,3.356-0.909,4.606,0.189c0.009,0.006,0.015,0.015,0.024,0.021c0.264,0.252,0.312,0.651,0.33,1.017
				c0.201,4.069-1.242,8.196-3.931,11.254c-1.736,1.973-2.903,4.171-4.069,6.498c-0.717,1.436-3.317,3.739-4.909,2.447
				c-2.822-2.288-6.078-3.652-9.611-4.66C181.549,265.714,178.836,265.642,176.146,265.714z"/>
		</g>
		<g>
			<path class="st11" d="M176.296,277.948c-2.678-0.126-5.347-0.468-7.97-1.022c-2.516-0.531-4.849-1.421-7.298-2.144
				c-1.568-0.462-5.131-1.151-2.69-3.242c1.841-1.578,4.072-2.705,6.315-3.59c2.348-0.927,4.45-1.055,6.861-1.592
				c3.172-0.705,5.766-0.989,8.969-0.444c3.047,0.519,5.613,1.64,8.543,2.63c1.706,0.576,3.535,1.197,4.591,2.762
				c0.807,1.197-8.786,6.072-9.673,6.294c-0.828,0.21-1.683,0.279-2.534,0.327C179.708,278.024,177.999,278.03,176.296,277.948z"/>
		</g>
		<g>
			<path class="st3" d="M143.586,251.011c0.966,3.494,2.453,6.789,4.501,9.689c2.021,2.915,4.57,5.422,7.43,7.482
				c2.876,2.039,6.058,3.661,9.413,4.762c3.349,1.116,6.855,1.784,10.382,1.904c3.523,0.153,7.068-0.21,10.454-1.158
				c3.397-0.9,6.606-2.444,9.455-4.498c2.837-2.075,5.281-4.717,7.155-7.766c1.91-3.038,3.224-6.462,4.18-10.025l0.594,0.102
				c-0.375,3.724-1.374,7.434-3.065,10.873c-1.706,3.428-4.138,6.552-7.149,9.023c-2.987,2.507-6.534,4.303-10.24,5.481
				c-3.727,1.139-7.634,1.625-11.512,1.514c-7.745-0.27-15.449-2.852-21.591-7.644c-3.071-2.378-5.71-5.323-7.695-8.645
				c-1.97-3.329-3.281-7.029-3.784-10.802L143.586,251.011z"/>
		</g>
		<g>
			<path class="st3" d="M157.133,272.74c2.102-2.72,5.08-4.756,8.295-6.075c0.813-0.306,1.634-0.603,2.462-0.873l2.534-0.639
				l2.582-0.383c0.867-0.06,1.736-0.129,2.606-0.165c3.475-0.054,6.969,0.438,10.252,1.571c3.275,1.119,6.387,2.864,8.774,5.329
				l-0.303,0.366c-2.819-1.796-5.875-3.026-9.029-3.815c-3.158-0.771-6.405-1.131-9.644-1.046c-0.807,0.063-1.617,0.087-2.423,0.132
				l-2.405,0.309l-2.381,0.459c-0.78,0.207-1.551,0.444-2.339,0.642c-3.086,0.978-6.03,2.438-8.678,4.492L157.133,272.74z"/>
		</g>
		<g>
			<g>
				<path class="st12" d="M222.058,216.631c-25.602,0.249-39.388,8.72-47.673,8.801c-8.285,0.081-22.235-8.12-47.835-7.871
					c-25.6,0.249-28.748,18.724-60.651,24.715c38.254,24.469,59.785-1.059,76.952,8.879c17.167,9.937,46.594,9.65,63.563-0.62
					c16.969-10.271,49.025,26.515,79.3-7.008C252.132,240.048,247.658,216.382,222.058,216.631z"/>
			</g>
			<g>
				<path class="st3" d="M222.067,217.657c-6.762,0.147-13.497,0.954-20.067,2.444c-3.287,0.738-6.54,1.613-9.77,2.597
					c-3.232,0.993-6.435,2.078-9.758,3.067c-1.661,0.495-3.37,0.939-5.176,1.253c-0.908,0.147-1.841,0.264-2.822,0.282
					c-0.978,0.006-1.922-0.084-2.837-0.21c-3.623-0.576-6.876-1.631-10.159-2.549c-6.522-1.91-13.044-3.502-19.711-4.387
					c-3.329-0.45-6.678-0.735-10.036-0.876c-1.679-0.072-3.362-0.096-5.044-0.096l-2.477,0.063
					c-0.819,0.069-1.646,0.099-2.459,0.201c-3.263,0.369-6.486,1.044-9.548,2.237c-3.08,1.149-6,2.75-8.861,4.519
					c-2.861,1.775-5.677,3.71-8.579,5.551c-2.9,1.85-5.916,3.562-9.038,5.05c-6.258,2.972-12.945,4.942-19.722,6.027l0,0
					l0.198-1.017c4.105,2.465,8.378,4.636,12.819,6.342c4.441,1.7,9.059,2.896,13.746,3.454c4.684,0.597,9.428,0.554,14.124-0.003
					c4.705-0.54,9.35-1.592,14.064-2.645c4.705-1.011,9.584-2.144,14.775-1.679c2.573,0.234,5.176,0.966,7.491,2.222l1.58,0.852
					c0.501,0.285,1.034,0.519,1.553,0.777c0.516,0.261,1.055,0.483,1.589,0.714c0.531,0.24,1.073,0.45,1.617,0.657
					c4.345,1.685,8.939,2.804,13.596,3.452c4.66,0.666,9.392,0.852,14.1,0.678c4.711-0.189,9.404-0.807,13.974-1.886
					c4.555-1.112,9.02-2.642,13.089-4.867l1.556-0.876c0.591-0.339,1.211-0.63,1.844-0.873c1.269-0.492,2.594-0.785,3.907-0.927
					c2.639-0.279,5.203,0.015,7.646,0.513c4.897,1.017,9.449,2.708,14.01,4.225c4.549,1.539,9.092,2.984,13.731,3.895
					c4.63,0.923,9.359,1.259,14.007,0.708c4.642-0.558,9.167-2.087,13.243-4.465c4.081-2.369,7.751-5.463,11.038-8.924l0,0
					l0.357,0.927c-2.936-0.327-5.86-0.789-8.741-1.46c-2.876-0.699-5.706-1.595-8.45-2.708c-5.514-2.186-10.604-5.323-15.375-8.759
					c-4.786-3.415-9.38-7.083-14.511-9.698c-2.558-1.308-5.242-2.333-8.019-2.968C227.783,217.857,224.925,217.606,222.067,217.657z
					 M222.046,215.609c3.005,0.006,6.025,0.33,8.951,1.059c2.927,0.731,5.737,1.874,8.369,3.287
					c5.296,2.822,9.818,6.654,14.538,10.079c4.69,3.463,9.626,6.594,15.002,8.798c2.684,1.1,5.455,1.985,8.273,2.684
					c2.828,0.672,5.7,1.133,8.591,1.466l1.106,0.129l-0.75,0.801l0,0c-3.185,3.667-6.813,7.023-11.005,9.614
					c-4.165,2.618-8.903,4.399-13.809,5.149c-4.912,0.774-9.926,0.471-14.753-0.387c-4.843-0.852-9.53-2.249-14.136-3.706
					c-4.603-1.436-9.155-3.011-13.725-3.859c-2.276-0.411-4.561-0.639-6.723-0.381c-1.079,0.126-2.12,0.375-3.098,0.762
					c-0.489,0.192-0.96,0.42-1.413,0.686l-1.58,0.915c-4.369,2.444-9.068,4.162-13.863,5.335c-4.804,1.154-9.704,1.82-14.621,2.039
					c-4.918,0.222-9.854-0.015-14.732-0.729c-4.876-0.705-9.71-1.886-14.34-3.722c-0.579-0.228-1.154-0.462-1.721-0.725
					c-0.57-0.255-1.139-0.501-1.697-0.791c-0.558-0.285-1.125-0.546-1.667-0.861l-1.589-0.882c-1.913-1.065-4.033-1.691-6.252-1.925
					c-2.219-0.24-4.525-0.102-6.843,0.189c-2.321,0.288-4.66,0.729-7.014,1.193c-4.708,0.939-9.502,1.916-14.39,2.366
					c-4.882,0.465-9.844,0.414-14.709-0.336c-4.861-0.758-9.593-2.177-14.085-4.09c-4.501-1.898-8.75-4.306-12.769-7.017
					l-1.149-0.774l1.347-0.243l0,0c6.624-1.446,13.077-3.592,19.033-6.729c2.978-1.568,5.829-3.353,8.642-5.232
					c2.81-1.889,5.566-3.895,8.453-5.796c2.885-1.895,5.928-3.679,9.212-5.005c3.265-1.364,6.75-2.234,10.256-2.669
					c0.876-0.12,1.757-0.165,2.636-0.249l2.636-0.102c1.73-0.015,3.457-0.009,5.188,0.045c3.457,0.111,6.915,0.369,10.355,0.797
					c6.876,0.834,13.665,2.423,20.253,4.279c3.287,0.89,6.567,1.889,9.698,2.345c1.571,0.216,2.954,0.195,4.528-0.072
					c1.556-0.258,3.155-0.681,4.771-1.125c6.462-1.874,13.176-3.809,19.987-4.936C208.264,216.127,215.168,215.609,222.046,215.609z
					"/>
			</g>
		</g>
		<g class="st0">
			<path class="st1" d="M187.768,162.547c5.689-1.551,47.097-13.488,74.19,40.299c0.093-12.147-0.867-13.632-6.357-20.373
				c-5.491-6.741-11.767-17.146-23.243-22.016c-11.476-4.87-20.421-6.237-28.673-4.522
				C192.291,158.298,187.768,162.547,187.768,162.547z"/>
		</g>
		<g class="st0">
			<path class="st1" d="M165.14,162.613c-8.12-4.825-46.38-12.304-75.918,43.298c-0.324-11.068,0.132-16.265,4.606-21.977
				c4.477-5.712,12.987-16.697,26.35-23.95c8.774-4.765,14.973-6.303,25.024-4.681C155.254,156.924,165.14,162.613,165.14,162.613z"
				/>
		</g>
		<g class="st0">
			<path class="st1" d="M94.623,256.61c0.405,4.096,11.91,1.184,14.907,1.055c4.948-0.21,9.937-0.609,14.792-1.617
				c10.984-2.276,14.411-1.52,20.472,1.269c-1.364-3.211-0.012-7.002-0.012-7.002s-6.426-2.555-13.701-1.499
				c-7.275,1.055-14.777,4.861-22.517,4.393c-2.693-0.162-11.959-0.066-15.179-0.315C93.373,253.077,94.608,256.448,94.623,256.61z"
				/>
		</g>
		<g class="st0">
			<path class="st1" d="M206.016,256.055c6.675-1.814,9.904-4.066,14.967-1.217c9.692,5.458,30.032,9.566,32.53,9.671
				c2.498,0.108,2.114-5.821,2.114-5.821s-8.651-0.89-19.048-4.24c-10.397-3.35-20.457-6.525-24.253-5.722
				c-3.793,0.801-5.914,1.811-5.914,1.811S206.993,254.013,206.016,256.055z"/>
		</g>
		<g class="st0">
			<path class="st1" d="M162.526,273.06c2.168-2.366,24.041-2.957,28.572-0.393c2.956-0.987,2.956-0.987,2.956-0.987
				s-2.758-3.94-11.626-4.729c-8.867-0.789-16.262-0.477-24.092,4.588C159.767,272.866,162.526,273.06,162.526,273.06z"/>
		</g>
		<g>
			<g>
				<path class="st2" d="M159.293,295.728c6.219,7.986-22.022,27.588-34.964,22.224c-10.906-4.522-39.615-22.163-50.672-37.142
					c-13.599-18.418,41.9-70.538,51.67-47.856C137.672,261.603,144.282,276.452,159.293,295.728z"/>
			</g>
			<g>
				<path class="st3" d="M160.909,294.468c0.642,0.797,1.1,1.82,1.265,2.846c0.174,1.028,0.09,2.024-0.114,2.906
					c-0.42,1.778-1.232,3.211-2.105,4.516c-1.788,2.579-3.928,4.672-6.201,6.567c-2.276,1.892-4.717,3.535-7.281,4.981
					c-2.564,1.446-5.254,2.693-8.106,3.619c-2.849,0.923-5.856,1.574-9.068,1.547c-1.601-0.024-3.259-0.228-4.9-0.764
					c-0.399-0.12-0.843-0.306-1.193-0.45l-1.014-0.447c-0.663-0.309-1.325-0.615-1.97-0.939c-5.166-2.561-10.025-5.473-14.796-8.543
					c-4.768-3.067-9.398-6.339-13.881-9.821c-4.477-3.485-8.822-7.164-12.846-11.236c-2.006-2.042-3.937-4.18-5.689-6.501
					l-0.653-0.873c-0.225-0.312-0.459-0.666-0.663-1.011c-0.411-0.702-0.75-1.446-1.011-2.207c-0.525-1.526-0.735-3.116-0.735-4.657
					c0.009-3.098,0.797-6.009,1.838-8.729c1.059-2.726,2.417-5.281,3.925-7.718c3.014-4.882,6.633-9.311,10.592-13.386
					c3.958-4.075,8.264-7.817,12.984-11.017c2.366-1.592,4.825-3.059,7.436-4.282c2.609-1.205,5.38-2.201,8.357-2.534
					c1.485-0.159,3.034-0.141,4.561,0.234c1.52,0.366,3.005,1.119,4.171,2.213c1.176,1.083,2.024,2.456,2.627,3.829l1.706,3.841
					c2.279,5.119,4.567,10.235,6.924,15.305c2.378,5.061,4.84,10.073,7.479,14.975c2.642,4.9,5.458,9.686,8.526,14.307
					C154.144,285.661,157.446,290.126,160.909,294.468z M157.677,296.987c-3.419-4.507-6.678-9.152-9.692-13.953
					c-3.023-4.798-5.778-9.755-8.306-14.808c-2.534-5.05-4.87-10.178-7.119-15.329c-2.264-5.146-4.447-10.316-6.621-15.488
					l-1.625-3.881c-0.488-1.203-1.158-2.258-2.036-3.092c-1.749-1.694-4.366-2.213-6.96-1.931c-2.609,0.282-5.199,1.197-7.665,2.339
					c-2.471,1.154-4.843,2.564-7.11,4.132c-4.534,3.139-8.711,6.822-12.516,10.835c-3.778,4.033-7.215,8.408-10.009,13.125
					c-1.376,2.366-2.588,4.822-3.49,7.353c-0.89,2.522-1.493,5.149-1.424,7.677c0.033,1.259,0.243,2.483,0.663,3.599
					c0.21,0.558,0.471,1.088,0.783,1.589c0.159,0.252,0.318,0.48,0.51,0.731l0.63,0.791c1.694,2.105,3.586,4.087,5.574,5.976
					c3.988,3.778,8.333,7.224,12.813,10.481c4.489,3.248,9.128,6.306,13.854,9.206c2.366,1.446,4.759,2.843,7.179,4.18
					c2.414,1.341,4.852,2.645,7.311,3.802c0.615,0.294,1.23,0.567,1.841,0.843l0.918,0.387c0.303,0.117,0.504,0.201,0.78,0.279
					c1.032,0.321,2.189,0.459,3.388,0.453c2.408,0.003,4.954-0.543,7.434-1.319c4.972-1.604,9.811-4.15,14.046-7.341
					c2.099-1.601,4.084-3.395,5.551-5.392c0.723-0.987,1.316-2.042,1.571-2.995c0.132-0.477,0.165-0.906,0.117-1.263
					C158.009,297.599,157.898,297.296,157.677,296.987z"/>
			</g>
		</g>
		<g>
			<g>
				<path class="st2" d="M191.681,295.728c-6.219,7.986,22.022,27.588,34.964,22.224c10.906-4.522,39.616-22.163,50.672-37.142
					c13.599-18.418-41.9-70.538-51.67-47.856C213.305,261.603,206.693,276.452,191.681,295.728z"/>
			</g>
			<g>
				<path class="st3" d="M193.298,296.987c-0.219,0.312-0.333,0.612-0.381,0.974c-0.048,0.36-0.015,0.789,0.117,1.263
					c0.252,0.954,0.849,2.009,1.572,2.995c1.466,1.997,3.448,3.793,5.551,5.392c4.234,3.191,9.074,5.737,14.046,7.341
					c2.483,0.78,5.026,1.325,7.434,1.319c1.199,0.006,2.357-0.132,3.388-0.453c0.276-0.078,0.477-0.162,0.78-0.279l0.918-0.387
					c0.615-0.273,1.226-0.546,1.841-0.843c2.459-1.158,4.897-2.462,7.311-3.802c2.42-1.337,4.813-2.735,7.179-4.18
					c4.726-2.9,9.365-5.955,13.854-9.206c4.48-3.257,8.825-6.702,12.813-10.481c1.988-1.889,3.881-3.871,5.574-5.976l0.63-0.791
					c0.192-0.249,0.351-0.477,0.51-0.731c0.312-0.498,0.573-1.028,0.783-1.589c0.42-1.116,0.626-2.339,0.663-3.598
					c0.069-2.525-0.531-5.152-1.424-7.677c-0.902-2.531-2.114-4.987-3.491-7.353c-2.795-4.717-6.231-9.092-10.009-13.125
					c-3.805-4.012-7.982-7.695-12.516-10.835c-2.264-1.568-4.636-2.978-7.11-4.132c-2.465-1.143-5.056-2.057-7.665-2.339
					c-2.594-0.282-5.209,0.237-6.96,1.931c-0.882,0.834-1.547,1.892-2.036,3.092l-1.625,3.881
					c-2.174,5.173-4.36,10.343-6.621,15.488c-2.252,5.152-4.585,10.283-7.119,15.329c-2.528,5.05-5.284,10.009-8.306,14.808
					C199.976,287.835,196.716,292.48,193.298,296.987z M190.065,294.468c3.467-4.345,6.765-8.807,9.83-13.431
					c3.067-4.621,5.887-9.407,8.526-14.307c2.639-4.9,5.1-9.914,7.479-14.975c2.357-5.071,4.645-10.186,6.924-15.305l1.706-3.841
					c0.603-1.374,1.452-2.75,2.627-3.829c1.166-1.094,2.651-1.844,4.171-2.213c1.526-0.375,3.077-0.393,4.561-0.234
					c2.981,0.333,5.749,1.325,8.357,2.534c2.609,1.22,5.071,2.69,7.436,4.282c4.72,3.199,9.026,6.942,12.984,11.017
					s7.578,8.504,10.592,13.386c1.508,2.438,2.867,4.993,3.925,7.718c1.04,2.723,1.829,5.634,1.838,8.729
					c0,1.541-0.21,3.131-0.735,4.657c-0.261,0.762-0.6,1.506-1.011,2.207c-0.204,0.348-0.438,0.699-0.663,1.011l-0.653,0.873
					c-1.751,2.321-3.683,4.459-5.689,6.501c-4.025,4.072-8.372,7.751-12.846,11.236c-4.48,3.481-9.113,6.753-13.881,9.821
					c-4.771,3.071-9.629,5.982-14.796,8.543c-0.645,0.321-1.308,0.63-1.97,0.939l-1.013,0.447c-0.348,0.144-0.795,0.33-1.193,0.45
					c-1.64,0.537-3.302,0.741-4.9,0.764c-3.211,0.027-6.219-0.624-9.068-1.547c-2.852-0.927-5.541-2.174-8.106-3.619
					c-2.564-1.445-5.005-3.092-7.281-4.981c-2.273-1.895-4.414-3.986-6.201-6.567c-0.873-1.304-1.685-2.735-2.105-4.516
					c-0.204-0.885-0.291-1.88-0.114-2.906C188.968,296.289,189.424,295.265,190.065,294.468z"/>
			</g>
		</g>
		<g class="st0">
			<path class="st1" d="M289.046,112.13c0.609,0.609,17.848,23.243,16.769,30.484c-1.523,10.213-28.659,42.528-28.659,42.528
				l-2.099,17.713l-4.609-4.909l0.153,15.701c0,0,15.548-27.132,18.292-30.943s36.431-36.737,36.431-36.737L289.046,112.13z"/>
		</g>
		<g class="st0">
			<path class="st1" d="M73.113,277.16c-4.024,6.046-8.058,21.734-12.553,22.772c-7.206,1.661-12.291-6.957-22.007-2.824
				c-9.716,4.133-24.676,7.838-27.45,7.64c4.159,1.904,7.071,1.937,8.163,2.138c1.092,0.204,16.868-2.968,25.078-3.59
				c4.24-0.321,20.937,4.456,20.937,4.456s3.056-6.564,5.254-9.221c2.198-2.657,9.542-10.852,9.542-10.852L73.113,277.16z"/>
		</g>
		<g class="st0">
			<path class="st1" d="M95.154,298.25c4.42,2.591,23.324,10.003,31.399,10.516c9.602,0.609,25.609-5.64,30.791-14.633
				c0,0,3.506,3.658,2.438,6.249c-1.067,2.591-6.555,10.367-11.737,12.957c-5.182,2.591-19.054,8.079-24.086,5.64
				C118.933,316.541,95.154,298.25,95.154,298.25z"/>
		</g>
		<g class="st0">
			<path class="st1" d="M256.579,297.638c-4.42,2.591-23.324,10.003-31.399,10.516c-9.602,0.609-25.609-5.64-30.791-14.633
				c0,0-3.506,3.658-2.438,6.249c1.067,2.591,6.555,10.367,11.737,12.957c5.182,2.591,19.054,8.079,24.086,5.64
				C232.8,315.93,256.579,297.638,256.579,297.638z"/>
		</g>
		<g>
			<g>
				<path class="st13" d="M259.704,85.403c0,0-0.771-20.856-1.271-30.851c-0.408-8.165-0.552-8.013,7.751-8.421
					s30.851-1.271,30.851-1.271l25.72,24.238l-36.776,40.227L259.704,85.403z"/>
			</g>
			<g>
				<path class="st3" d="M259.365,85.559c-0.534-6.27-0.89-12.685-1.197-19.099c-0.171-3.205-0.267-6.426-0.402-9.635l-0.201-4.804
					c-0.024-0.807-0.045-1.617,0.021-2.471c0.024-0.216,0.036-0.429,0.069-0.648l0.147-0.675c0.078-0.231,0.18-0.465,0.279-0.696
					c0.147-0.219,0.294-0.453,0.474-0.642c0.39-0.381,0.846-0.63,1.286-0.789c0.219-0.066,0.438-0.141,0.653-0.195l0.636-0.12
					c0.836-0.132,1.646-0.189,2.45-0.237c1.604-0.096,3.188-0.15,4.783-0.198l9.551-0.318c6.366-0.231,12.736-0.363,19.105-0.546
					l0,0l0.156-0.006l0.114,0.108l25.717,24.238l0.267,0.252l-0.246,0.27l-36.776,40.227L286,109.851l-0.273-0.249L259.365,85.559z
					 M260.04,85.244l26.187,23.806l-0.525,0.024l36.776-40.23l0.018,0.521l-25.72-24.238l0.27,0.102l0,0
					c-6.361,0.342-12.718,0.735-19.078,1.028l-9.539,0.471l-4.759,0.252c-0.783,0.054-1.562,0.117-2.3,0.237
					c-0.741,0.111-1.409,0.33-1.763,0.69c-0.36,0.339-0.504,1.022-0.549,1.76c-0.054,0.731-0.033,1.518-0.006,2.3l0.222,4.741
					c0.129,3.155,0.294,6.297,0.383,9.455C259.881,72.476,260.052,78.791,260.04,85.244z"/>
			</g>
		</g>
		<g>
			<g>
				<g>
					<path class="st14" d="M262.666,58.823c1.131-1.226-0.219-5.419,1.361-7.164c1.697-1.871,5.931-0.582,7.071-1.817
						c0.51-0.552,0.177-2.303-0.192-3.928c-1.82,0.081-3.44,0.153-4.72,0.216c-8.303,0.408-8.163,0.255-7.751,8.421
						c0.069,1.376,0.144,2.966,0.219,4.672C260.318,59.336,262.139,59.398,262.666,58.823z"/>
				</g>
				<g>
					<path class="st3" d="M262.39,58.571c0.354-0.429,0.393-1.271,0.411-2.021c0.012-0.774-0.015-1.571,0.039-2.387
						c0.069-0.804,0.165-1.673,0.675-2.441c0.521-0.771,1.391-1.184,2.201-1.349c0.818-0.18,1.628-0.216,2.417-0.249
						c0.783-0.036,1.58-0.051,2.231-0.264c0.147-0.063,0.3-0.126,0.39-0.219c0.066-0.045,0.087-0.075,0.114-0.12
						c0.027-0.048,0.048-0.114,0.066-0.186c0.066-0.306,0.057-0.684,0.021-1.055c-0.075-0.752-0.243-1.518-0.414-2.282v-0.003
						l0.378,0.291c-2,0.153-4,0.285-6.003,0.408c-0.995,0.075-1.997,0.117-2.962,0.24c-0.954,0.117-1.937,0.306-2.471,0.828
						c-0.521,0.516-0.626,1.506-0.666,2.459c-0.039,0.968,0.024,1.97,0.045,2.968c0.078,2.003,0.123,4.012,0.159,6.019l-0.345-0.354
						l0,0c0.681,0.045,1.358,0.084,2.021,0.072c0.33-0.006,0.659-0.027,0.968-0.078C261.974,58.798,262.279,58.693,262.39,58.571z
						 M262.939,59.074c-0.384,0.369-0.785,0.429-1.145,0.501c-0.369,0.06-0.725,0.081-1.079,0.09
						c-0.708,0.015-1.401-0.027-2.087-0.072l0,0l-0.321-0.012l-0.027-0.342c-0.159-2-0.291-4-0.414-6.003
						c-0.063-1.007-0.114-2.009-0.093-3.047c-0.003-0.255,0.015-0.519,0.042-0.785c0.015-0.264,0.051-0.531,0.117-0.807
						c0.087-0.54,0.357-1.133,0.789-1.592c0.237-0.21,0.48-0.414,0.75-0.525c0.264-0.153,0.531-0.225,0.797-0.303
						c0.531-0.147,1.053-0.228,1.562-0.282c1.028-0.117,2.03-0.162,3.038-0.198c2.006-0.078,4.012-0.12,6.021-0.153l0.318-0.006
						l0.06,0.294v0.003c0.174,0.774,0.345,1.556,0.429,2.375c0.036,0.411,0.06,0.83-0.039,1.302
						c-0.033,0.12-0.069,0.243-0.138,0.369c-0.069,0.129-0.177,0.252-0.273,0.321c-0.195,0.183-0.417,0.273-0.63,0.363
						c-0.861,0.276-1.664,0.264-2.453,0.309c-0.785,0.033-1.559,0.072-2.285,0.231c-0.729,0.147-1.374,0.488-1.748,1.038
						c-0.381,0.554-0.492,1.325-0.548,2.075c-0.054,0.762-0.024,1.545-0.039,2.348c-0.012,0.405-0.018,0.807-0.087,1.232
						C263.383,58.211,263.293,58.67,262.939,59.074z"/>
				</g>
			</g>
		</g>
		<g>
			<g>
				<path class="st15" d="M346.627,165.051l-18.805-17.315c-3.034-2.795-3.232-7.566-0.438-10.604l27.111-29.444
					c2.795-3.034,7.566-3.232,10.604-0.438l18.805,17.315c3.034,2.795,3.232,7.566,0.438,10.604l-27.111,29.444
					C354.435,167.651,349.665,167.846,346.627,165.051z"/>
			</g>
			<g>
				<path class="st3" d="M346.21,165.504l-16.298-15.2l-2.036-1.901c-0.684-0.62-1.394-1.38-1.862-2.234
					c-0.978-1.712-1.271-3.788-0.83-5.7c0.216-0.956,0.615-1.871,1.166-2.684c0.567-0.828,1.242-1.466,1.859-2.153l3.788-4.087
					l15.134-16.358c2.54-2.726,5.002-5.458,7.607-8.178c1.427-1.31,3.358-2.039,5.287-2.033c1.931-0.009,3.859,0.731,5.287,2.042
					l16.411,15.074l2.051,1.883c0.69,0.615,1.397,1.343,1.874,2.189c0.999,1.683,1.304,3.743,0.918,5.667
					c-0.192,0.966-0.57,1.898-1.106,2.732c-0.129,0.213-0.27,0.417-0.432,0.606c-0.156,0.195-0.312,0.396-0.462,0.561l-0.921,1.046
					l-3.683,4.183c-2.477,2.768-4.966,5.524-7.488,8.25c-2.507,2.741-5.028,5.467-7.56,8.184l-3.796,4.078l-1.901,2.036l-0.951,1.02
					l-0.474,0.51l-0.54,0.528c-1.506,1.368-3.529,2.126-5.545,2.105C349.685,167.669,347.682,166.877,346.21,165.504z
					 M347.047,164.598c1.265,1.145,2.96,1.784,4.657,1.763c1.697-0.006,3.376-0.666,4.606-1.817l0.45-0.453l0.468-0.516l0.935-1.032
					l1.871-2.063l3.751-4.12c2.498-2.747,5.008-5.485,7.533-8.211c2.51-2.738,5.053-5.446,7.605-8.145l3.865-4.015
					c0.639-0.681,1.329-1.319,1.814-2.003c0.501-0.702,0.873-1.506,1.083-2.351c0.432-1.694,0.174-3.562-0.684-5.104
					c-0.432-0.785-1.005-1.43-1.697-2.054l-2.048-1.889l-16.376-15.112c-1.31-1.209-3.08-1.895-4.864-1.889
					c-1.784-0.009-3.556,0.681-4.864,1.886c-2.519,2.657-5.023,5.452-7.533,8.171l-15.053,16.43l-3.76,4.111
					c-0.62,0.696-1.292,1.352-1.769,2.066c-0.489,0.725-0.837,1.545-1.026,2.399c-0.381,1.709-0.108,3.559,0.771,5.071
					c0.441,0.774,1.011,1.388,1.706,2.006l2.06,1.874L347.047,164.598z"/>
			</g>
		</g>
		<g>
			<path class="st16" d="M297.4,45.533c-4.246-3.91,7.425,17.53,4.666,20.529c-2.759,2.999-17.062-3.838-21.177,0.696
				c-3.835,4.228,3.473,18.106,0.731,21.081c-2.741,2.978-24.076-4.978-21.108-2.246c3.29,3.028,53.26,49.041,53.26,49.041
				l8.361-9.08l0.447-0.483l19.779-21.482l0.405-0.438l7.898-8.576C350.66,94.573,302.093,49.854,297.4,45.533z"/>
		</g>
		<g class="st17">
			<polygon class="st8" points="350.168,94.92 342.054,103.572 302.645,66.457 296.755,44.828 			"/>
		</g>
		<g>
			
				<rect x="321.979" y="57.324" transform="matrix(0.6774 -0.7356 0.7356 0.6774 41.4835 264.535)" class="st3" width="0.744" height="55.292"/>
		</g>
		<g>
			
				<rect x="301.719" y="79.188" transform="matrix(0.6775 -0.7355 0.7355 0.6775 18.8148 256.6566)" class="st3" width="0.744" height="55.369"/>
		</g>
		<g>
			<g>
				
					<rect x="316.6" y="110.721" transform="matrix(0.6774 -0.7356 0.7356 0.6774 18.7075 293.636)" class="st18" width="55.085" height="29.536"/>
			</g>
			<g>
				<path class="st3" d="M336.365,156.103l-22.218-19.863l-0.521-0.465l0.48-0.521l37.37-40.47l0.426-0.462l0.453,0.426
					l21.557,20.193l0.27,0.255l-0.249,0.27L336.365,156.103z M336.335,155.362l37.055-40.404l0.021,0.525l-21.899-19.821
					l0.879-0.036L315.134,136.2l-0.042-0.987L336.335,155.362z"/>
			</g>
		</g>
		<g>
			<g>
				<g>
					<polygon class="st18" points="315.272,107.335 321.146,112.745 327.879,111.333 328.733,104.507 322.856,99.098 
						316.124,100.51 					"/>
				</g>
				<g>
					<path class="st3" d="M315.569,107.224l5.793,5.287l-0.282-0.078l6.657-1.766l-0.534,0.582l1.211-6.78l0.099,0.273l-5.877-5.409
						l0.282,0.078l-6.648,1.799l0.561-0.609L315.569,107.224z M314.973,107.443l0.444-7.023l0.033-0.531l0.528-0.081l6.813-1.026
						l0.171-0.027l0.111,0.102l5.877,5.409l0.114,0.105l-0.012,0.171l-0.495,6.87l-0.036,0.504l-0.498,0.078l-6.804,1.061
						l-0.171,0.027l-0.111-0.105L314.973,107.443z"/>
				</g>
			</g>
			<g>
				<g>
					<path class="st8" d="M317.257,105.107l3.409-3.704l0.989,0.912l0.645,3.745c0.204,0.966,0.48,1.607,0.828,1.928
						c0.282,0.261,0.543,0.408,0.783,0.444c0.24,0.036,0.447-0.042,0.62-0.231c0.171-0.186,0.213-0.429,0.126-0.725
						c-0.09-0.297-0.282-0.582-0.576-0.852l1.133-1.232c0.402,0.372,0.699,0.795,0.89,1.271c0.192,0.477,0.249,0.948,0.174,1.413
						c-0.075,0.465-0.276,0.879-0.606,1.236c-0.528,0.573-1.098,0.863-1.709,0.873c-0.612,0.009-1.224-0.27-1.838-0.834
						c-0.258-0.237-0.474-0.507-0.648-0.81c-0.174-0.303-0.318-0.659-0.435-1.071c-0.117-0.411-0.234-1.007-0.348-1.784
						l-0.345-1.586l-1.922,2.087L317.257,105.107z"/>
				</g>
			</g>
		</g>
		<g class="st17">
			
				<rect x="352.047" y="95.797" transform="matrix(0.6834 -0.7301 0.7301 0.6834 31.3037 295.0761)" class="st8" width="7.587" height="31.303"/>
		</g>
		<g>
			
				<rect x="309.312" y="117.724" transform="matrix(0.6774 -0.7356 0.7356 0.6774 21.1616 286.3351)" class="st16" width="55.468" height="2.633"/>
			<path class="st3" d="M319.263,140.585l-2.213-2.036l0.126-0.138l37.7-40.941l2.213,2.036l-0.126,0.138L319.263,140.585z
				 M317.578,138.528l1.664,1.532l37.322-40.533l-1.664-1.532L317.578,138.528z"/>
		</g>
		<g>
			
				<rect x="323.465" y="130.76" transform="matrix(0.6774 -0.7356 0.7356 0.6774 16.1379 300.952)" class="st16" width="55.468" height="2.633"/>
			<path class="st3" d="M333.421,153.62l-2.213-2.036l0.126-0.138l37.7-40.944l2.213,2.036l-0.126,0.138L333.421,153.62z
				 M331.732,151.563l1.664,1.532l37.322-40.533l-1.664-1.532L331.732,151.563z"/>
		</g>
		<g>
			<path class="st3" d="M355.838,103.965c0.927,0.525,1.772,1.133,2.591,1.775c0.824,0.636,1.604,1.32,2.369,2.018
				c0.756,0.711,1.499,1.43,2.201,2.201c0.705,0.764,1.385,1.556,1.988,2.432c-0.921-0.531-1.766-1.143-2.588-1.781
				c-0.824-0.636-1.604-1.316-2.375-2.012c-0.758-0.705-1.502-1.427-2.204-2.195C357.116,105.638,356.438,104.843,355.838,103.965z"
				/>
		</g>
		<g>
			<path class="st3" d="M323.486,139.103c0.927,0.525,1.772,1.133,2.591,1.775c0.824,0.636,1.604,1.319,2.369,2.018
				c0.756,0.711,1.499,1.43,2.201,2.201c0.705,0.764,1.385,1.556,1.988,2.432c-0.921-0.531-1.766-1.143-2.588-1.782
				c-0.824-0.636-1.604-1.316-2.375-2.012c-0.758-0.705-1.502-1.427-2.204-2.195C324.763,140.777,324.085,139.982,323.486,139.103z"
				/>
		</g>
		<g>
			<path class="st3" d="M351.793,108.358c0.927,0.525,1.772,1.133,2.591,1.775c0.824,0.636,1.604,1.32,2.369,2.018
				c0.756,0.711,1.499,1.43,2.201,2.201c0.705,0.764,1.385,1.556,1.988,2.432c-0.921-0.531-1.766-1.143-2.588-1.781
				c-0.824-0.636-1.604-1.316-2.375-2.012c-0.758-0.705-1.502-1.427-2.204-2.195C353.071,110.031,352.393,109.236,351.793,108.358z"
				/>
		</g>
		<g>
			<path class="st3" d="M347.751,112.751c0.927,0.525,1.772,1.133,2.591,1.775c0.824,0.636,1.604,1.319,2.369,2.018
				c0.756,0.711,1.499,1.43,2.201,2.201c0.705,0.764,1.385,1.556,1.988,2.432c-0.921-0.531-1.766-1.143-2.588-1.781
				c-0.824-0.636-1.604-1.316-2.375-2.012c-0.758-0.705-1.502-1.427-2.204-2.195C349.026,114.424,348.351,113.63,347.751,112.751z"
				/>
		</g>
		<g>
			<path class="st3" d="M343.706,117.141c0.927,0.525,1.772,1.133,2.591,1.775c0.824,0.636,1.604,1.32,2.369,2.018
				c0.756,0.711,1.499,1.43,2.201,2.201c0.705,0.764,1.385,1.556,1.988,2.432c-0.921-0.531-1.766-1.143-2.588-1.781
				c-0.824-0.636-1.604-1.316-2.375-2.012c-0.758-0.705-1.502-1.427-2.204-2.195C344.983,118.814,344.305,118.02,343.706,117.141z"
				/>
		</g>
		<g>
			<path class="st3" d="M339.66,121.534c0.927,0.525,1.772,1.133,2.591,1.775c0.824,0.636,1.604,1.32,2.369,2.018
				c0.756,0.711,1.499,1.43,2.201,2.201c0.705,0.764,1.385,1.556,1.988,2.432c-0.921-0.531-1.766-1.143-2.588-1.781
				c-0.824-0.636-1.604-1.316-2.375-2.012c-0.758-0.705-1.502-1.427-2.204-2.195C340.938,123.207,340.26,122.413,339.66,121.534z"/>
		</g>
		<g>
			<path class="st3" d="M335.618,125.927c0.927,0.525,1.772,1.133,2.591,1.775c0.824,0.636,1.604,1.319,2.369,2.018
				c0.756,0.711,1.499,1.43,2.201,2.201c0.705,0.764,1.385,1.556,1.988,2.432c-0.921-0.531-1.766-1.143-2.588-1.781
				c-0.824-0.636-1.604-1.316-2.375-2.012c-0.758-0.705-1.502-1.427-2.204-2.195C336.893,127.6,336.218,126.806,335.618,125.927z"/>
		</g>
		<g>
			<path class="st3" d="M331.573,130.317c0.927,0.525,1.772,1.133,2.591,1.775c0.824,0.636,1.604,1.319,2.369,2.018
				c0.756,0.711,1.499,1.43,2.201,2.201c0.705,0.764,1.386,1.556,1.988,2.432c-0.921-0.531-1.766-1.143-2.588-1.782
				c-0.824-0.636-1.604-1.316-2.375-2.012c-0.758-0.705-1.502-1.427-2.204-2.195C332.85,131.99,332.173,131.199,331.573,130.317z"/>
		</g>
		<g>
			<path class="st3" d="M327.528,134.71c0.927,0.525,1.772,1.133,2.591,1.775c0.824,0.636,1.604,1.319,2.369,2.018
				c0.756,0.711,1.499,1.43,2.201,2.201c0.705,0.764,1.385,1.556,1.988,2.432c-0.921-0.531-1.766-1.143-2.588-1.782
				c-0.824-0.636-1.604-1.316-2.375-2.012c-0.758-0.705-1.502-1.427-2.204-2.195C328.805,136.383,328.127,135.589,327.528,134.71z"
				/>
		</g>
		<g>
			<path class="st3" d="M336.365,156.103l-22.218-19.863l-0.521-0.465l0.48-0.521l37.37-40.47l0.426-0.462l0.453,0.426
				l21.557,20.193l0.261,0.246l-0.24,0.279c-3.02,3.491-6.108,6.951-9.218,10.396c-3.1,3.463-6.264,6.852-9.404,10.279
				c-3.152,3.407-6.324,6.765-9.485,10.118l-4.744,4.969L336.365,156.103z M336.335,155.362l4.606-5.251l4.585-5.16
				c3.059-3.401,6.105-6.795,9.173-10.145c3.08-3.325,6.135-6.693,9.254-9.982c3.11-3.308,6.24-6.6,9.44-9.866l0.021,0.525
				l-21.899-19.821l0.879-0.036L315.137,136.2l-0.042-0.987L336.335,155.362z"/>
		</g>
		<g>
			<path class="st3" d="M297.058,45.904c-0.141-0.126-0.297-0.252-0.411-0.315c-0.036-0.042-0.132-0.003,0.09-0.027
				c0.126-0.027,0.228-0.159,0.231-0.189c0.015-0.036,0.009-0.027,0.009-0.012c-0.003,0.228,0.114,0.678,0.228,1.046
				c0.234,0.777,0.558,1.551,0.873,2.324c0.626,1.551,1.358,3.073,2.033,4.621c0.684,1.545,1.361,3.1,1.985,4.696
				c0.626,1.598,1.191,3.221,1.52,5.028c0.072,0.459,0.129,0.929,0.132,1.446c-0.006,0.516-0.018,1.079-0.333,1.781
				c-0.383,0.801-1.053,1.193-1.604,1.421c-0.573,0.231-1.098,0.306-1.595,0.351c-0.993,0.084-1.889-0.012-2.765-0.123
				s-1.721-0.273-2.555-0.456c-1.667-0.354-3.296-0.741-4.924-1.059c-1.622-0.303-3.257-0.593-4.852-0.54
				c-1.571,0.021-3.185,0.447-3.967,1.592c-0.387,0.567-0.579,1.308-0.659,2.072c-0.069,0.771-0.027,1.574,0.063,2.378
				c0.432,3.232,1.539,6.402,2.357,9.734c0.201,0.84,0.369,1.694,0.486,2.594c0.102,0.906,0.177,1.841-0.093,2.962
				c-0.159,0.561-0.399,1.184-1.059,1.73c-0.645,0.477-1.217,0.587-1.733,0.684c-1.028,0.159-1.931,0.102-2.822,0.012
				c-1.769-0.177-3.436-0.6-5.092-1.005c-1.652-0.42-3.281-0.89-4.9-1.368c-1.622-0.462-3.244-0.915-4.867-1.286
				c-0.405-0.096-0.81-0.18-1.209-0.246c-0.378-0.066-0.843-0.126-1.059-0.102c-0.015,0-0.027,0.009,0.033-0.015
				c0.027-0.012,0.081-0.042,0.141-0.111c0.072-0.072,0.117-0.207,0.123-0.297c0-0.195-0.045-0.213-0.042-0.225
				c-0.003-0.006,0.009,0.015,0.03,0.036c0.072,0.078,0.273,0.255,0.414,0.39l0.929,0.855l7.428,6.843l14.862,13.677l14.928,13.608
				c4.999,4.51,9.982,9.038,15.008,13.518l0.003,0.003l-1.347,0.057l36.827-40.114l0.003-0.003l0.06,1.463
				c-4.339-4.195-8.741-8.322-13.11-12.483L323.645,70.48c-4.39-4.138-8.852-8.201-13.278-12.301L297.058,45.904z M297.742,45.16
				l13.326,12.246c4.45,4.075,8.867,8.186,13.353,12.219l13.419,12.147c4.507,4.009,8.984,8.058,13.521,12.037l0.762,0.669
				l-0.702,0.795l-0.003,0.003l-36.947,40.005l-0.648,0.702l-0.699-0.645l-0.003-0.003c-4.879-4.642-9.803-9.233-14.709-13.845
				l-14.79-13.755L268.769,94.05l-7.434-6.837l-0.929-0.855c-0.162-0.156-0.285-0.249-0.501-0.477
				c-0.051-0.057-0.105-0.12-0.162-0.216c-0.051-0.102-0.144-0.219-0.141-0.519c0.003-0.144,0.078-0.327,0.18-0.441
				c0.096-0.108,0.195-0.168,0.27-0.204c0.153-0.072,0.246-0.081,0.336-0.096c0.624-0.054,0.999,0.045,1.448,0.105
				c0.432,0.075,0.849,0.162,1.269,0.246l4.954,1.071c3.287,0.636,6.624,1.269,9.821,1.452c0.785,0.033,1.58,0.036,2.216-0.075
				c0.309-0.051,0.573-0.168,0.603-0.207c-0.012,0.009,0.039-0.045,0.081-0.111c0.045-0.066,0.084-0.177,0.12-0.3
				c0.153-0.516,0.132-1.296,0.075-2.057c-0.06-0.774-0.186-1.578-0.321-2.387c-0.519-3.259-1.374-6.579-1.574-10.064
				c-0.054-0.873-0.057-1.76,0.063-2.663c0.114-0.896,0.348-1.841,0.927-2.666c0.579-0.828,1.424-1.413,2.306-1.736
				c0.882-0.327,1.784-0.48,2.669-0.554c3.541-0.24,6.927,0.402,10.235,0.803c1.634,0.186,3.314,0.426,4.714,0.303
				c0.339-0.033,0.653-0.096,0.861-0.186c0.216-0.084,0.297-0.204,0.276-0.174c0.045-0.066,0.111-0.366,0.111-0.684
				c0.006-0.327-0.024-0.696-0.075-1.071c-0.198-1.52-0.645-3.125-1.079-4.717c-0.453-1.595-0.968-3.191-1.496-4.783
				c-0.54-1.592-1.061-3.193-1.622-4.792c-0.276-0.804-0.537-1.611-0.783-2.444c-0.108-0.441-0.246-0.81-0.237-1.424
				c0.009-0.09,0.021-0.186,0.075-0.318c0.045-0.129,0.222-0.348,0.453-0.399c0.219-0.051,0.354-0.006,0.449,0.024
				c0.102,0.033,0.168,0.072,0.237,0.111C297.406,44.851,297.571,45.005,297.742,45.16z"/>
		</g>
		<g class="st0">
			<path class="st1" d="M375.171,116.551l-1.506-1.343l-28.523,31.147c-18.652-17.264-43.568-39.762-63.257-58.309
				c-0.258-0.24-5.323,0.45-5.323,0.45l-10.13-2.303l-6.762-1.137l88.368,81.339l5.943,0.609l6.858-6.096
				c0,0-5.698-5.29-14.169-13.134L375.171,116.551z"/>
		</g>
		<g class="st17">
			<path class="st8" d="M268.571,50.447l-10.367-2.54c0,0-0.204-0.915,1.523-1.017c1.727-0.102,11.689,1.119,11.689,1.119
				l-0.204,2.033L268.571,50.447z"/>
		</g>
		<g>
			<g>
				<path class="st3" d="M262.39,58.571c0.354-0.429,0.393-1.271,0.411-2.021c0.012-0.774-0.015-1.571,0.039-2.387
					c0.069-0.804,0.165-1.673,0.675-2.441c0.521-0.771,1.391-1.184,2.201-1.349c0.818-0.18,1.628-0.216,2.417-0.249
					c0.783-0.036,1.58-0.051,2.231-0.264c0.147-0.063,0.3-0.126,0.39-0.219c0.066-0.045,0.087-0.075,0.114-0.12
					c0.027-0.048,0.048-0.114,0.066-0.186c0.066-0.306,0.057-0.684,0.021-1.055c-0.075-0.752-0.243-1.518-0.414-2.282v-0.003
					l0.378,0.291c-2,0.153-4,0.285-6.003,0.408c-0.995,0.075-1.997,0.117-2.962,0.24c-0.954,0.117-1.937,0.306-2.471,0.828
					c-0.521,0.516-0.626,1.506-0.666,2.459c-0.039,0.968,0.024,1.97,0.045,2.968c0.078,2.003,0.123,4.012,0.159,6.019l-0.345-0.354
					l0,0c0.681,0.045,1.358,0.084,2.021,0.072c0.33-0.006,0.659-0.027,0.968-0.078C261.974,58.798,262.279,58.693,262.39,58.571z
					 M262.939,59.074c-0.384,0.369-0.785,0.429-1.145,0.501c-0.369,0.06-0.725,0.081-1.079,0.09
					c-0.708,0.015-1.401-0.027-2.087-0.072l0,0l-0.321-0.012l-0.027-0.342c-0.159-2-0.291-4-0.414-6.003
					c-0.063-1.007-0.114-2.009-0.093-3.047c-0.003-0.255,0.015-0.519,0.042-0.785c0.015-0.264,0.051-0.531,0.117-0.807
					c0.087-0.54,0.357-1.133,0.789-1.592c0.237-0.21,0.48-0.414,0.75-0.525c0.264-0.153,0.531-0.225,0.797-0.303
					c0.531-0.147,1.053-0.228,1.562-0.282c1.028-0.117,2.03-0.162,3.038-0.198c2.006-0.078,4.012-0.12,6.021-0.153l0.318-0.006
					l0.06,0.294v0.003c0.174,0.774,0.345,1.556,0.429,2.375c0.036,0.411,0.06,0.83-0.039,1.302c-0.033,0.12-0.069,0.243-0.138,0.369
					c-0.069,0.129-0.177,0.252-0.273,0.321c-0.195,0.183-0.417,0.273-0.63,0.363c-0.861,0.276-1.664,0.264-2.453,0.309
					c-0.785,0.033-1.559,0.072-2.285,0.231c-0.729,0.147-1.374,0.488-1.748,1.038c-0.381,0.554-0.492,1.325-0.548,2.075
					c-0.054,0.762-0.024,1.545-0.039,2.348c-0.012,0.405-0.018,0.807-0.087,1.232C263.383,58.211,263.293,58.67,262.939,59.074z"/>
			</g>
		</g>
		<g>
			<path class="st18" d="M305.922,92.444c0.186-0.105,0.48-0.012,0.725-0.018c0.171-0.003,0.342-0.021,0.513-0.033
				c-0.039-0.168-0.036-0.366-0.129-0.495c-0.192-0.261-0.42-0.501-0.659-0.717c-0.531-0.477-1.079-0.933-1.724-1.487
				c-0.039,0.285-0.108,0.438-0.06,0.501c0.27,0.345,0.042,0.552-0.198,0.723c-0.681,0.492-1.919,0.521-2.603-0.039
				c-0.498-0.411-0.501-0.869,0.006-1.281c0.378-0.306,0.791-0.576,1.215-0.818c1.044-0.593,2.12-0.966,3.364-0.63
				c1.349,0.366,1.904,1.7,0.987,2.96c0.333,0.147,0.639,0.414,0.888,0.369c0.597-0.111,1.17-0.363,1.748-0.564
				c0.303-0.105,0.255-0.297,0.054-0.432c-0.117-0.081-0.315-0.105-0.459-0.075c-0.486,0.099-0.675-0.123-0.708-0.57
				c-0.009-0.126-0.012-0.255-0.054-0.372c-0.606-1.766-3.065-3.265-4.942-3.061c-1.236,0.135-2.291,0.576-3.166,1.487
				c-0.741,0.771-0.984,2.222-0.393,3.08c0.645,0.933,1.592,1.502,2.642,1.796C303.952,93.044,304.975,92.975,305.922,92.444z"/>
			<path class="st18" d="M284.62,72.035c1.172-0.408,1.788-1.401,1.661-2.615c-0.033-0.309-0.135-0.686-0.342-0.89
				c-0.861-0.836-1.754-1.622-2.6-2.384c-0.902,0.234-1.709,0.642-2.189,1.343c-0.348,0.507-0.519,1.158-0.615,1.835
				c0.816-0.378,1.631-0.758,2.447-1.139c0.36-0.168,0.711-0.378,1.092-0.456c0.222-0.045,0.504,0.099,0.729,0.219
				c0.168,0.09,0.276,0.282,0.42,0.423c0.267,0.264,0.267,0.492,0.015,0.797c-0.896,1.098-2.084,1.64-3.44,1.889
				c-0.411-0.081-0.855,0.015-1.269-0.054c0.015,0.315-0.012,0.62,0.024,0.939c0.012,0.096,0.039,0.195,0.054,0.291
				c0.399,0.291,0.993,0.498,1.466,0.45C282.935,72.593,283.792,72.323,284.62,72.035z"/>
			<path class="st18" d="M302.198,82.995c-0.846-1.151-1.988-1.769-3.442-1.751c-1.106,0.009-2.609,0.384-3.388,0.993
				c-1.325,1.032-1.65,2.666-0.504,3.916c1.817,1.991,5.541,1.442,7.011-0.06C302.75,85.196,302.939,84.003,302.198,82.995z
				 M301.454,83.916c-0.587,0.896-1.487,1.364-2.447,1.709c-0.624,0.225-1.286,0.342-1.826,0.48
				c-0.444-0.087-0.771-0.12-1.079-0.219c-0.633-0.204-0.795-0.816-0.345-1.349c0.648-0.768,1.508-1.248,2.429-1.601
				c0.468-0.18,0.984-0.222,1.469-0.366c0.609-0.18,1.106,0.06,1.592,0.36C301.715,83.22,301.751,83.459,301.454,83.916z"/>
			<path class="st18" d="M296.974,80.497c0.492-0.249,0.659-1.269,0.27-1.64c-0.999-0.951-2.009-1.886-3.023-2.816
				c-0.171-0.156-0.383-0.264-0.579-0.393c-0.024,0.03-0.051,0.06-0.075,0.09c0.057,0.156,0.114,0.312,0.201,0.554
				c-0.45,0.201-0.873,0.39-1.296,0.582c-1.022,0.462-2.03,0.96-3.071,1.368c-0.537,0.21-1.106,0.651-1.769,0.114
				c0.594,0.962,1.442,1.617,2.177,2.381c0.06-0.018,0.123-0.039,0.183-0.057c-0.015-0.27-0.03-0.543-0.048-0.813
				c-0.033-0.057-0.063-0.111-0.096-0.168c0.731-0.282,1.46-0.567,2.195-0.843c0.411-0.153,0.521,0.048,0.399,0.399
				c-0.147,0.426-0.348,0.836-0.519,1.253c-0.315,0.762-0.624,1.523-0.939,2.297c0.711,0.267,1.325,0.528,1.961,0.723
				c0.207,0.063,0.468-0.045,0.705-0.075c-0.078-0.186-0.108-0.417-0.24-0.554c-0.318-0.333-0.312-0.653-0.126-1.044
				c0.165-0.342,0.27-0.711,0.411-1.065c0.078-0.192,0.174-0.372,0.264-0.558c0.387,0.153,0.711,0.267,1.028,0.405
				C295.682,80.944,296.341,80.815,296.974,80.497z M293.364,78.725c-0.324-0.177-0.228-0.441,0.048-0.582
				c0.432-0.219,0.879-0.405,1.331-0.582c0.636-0.249,0.923,0.234,1.215,0.636c0.111,0.153,0.216,0.507,0.147,0.564
				c-0.33,0.279-0.717,0.492-1.086,0.729C294.395,79.208,293.861,78.998,293.364,78.725z"/>
			<path class="st18" d="M288.38,76.88c-0.642-0.132-1.329,0.39-1.943-0.093c-0.543-0.423-1.083-0.846-1.697-1.322
				c0.261-0.249,0.429-0.468,0.648-0.606c0.384-0.237,0.822-0.387,1.193-0.639c0.383-0.264,0.69-0.186,0.974,0.096
				c0.264,0.264,0.492,0.564,0.762,0.882c-0.156,0.138-0.288,0.234-0.387,0.357c-0.081,0.096-0.123,0.228-0.18,0.342
				c0.126,0.045,0.288,0.165,0.375,0.126c0.657-0.312,1.298-0.657,1.943-0.989c-0.015-0.069-0.027-0.138-0.042-0.207
				c-0.165-0.012-0.348-0.072-0.495-0.027c-0.534,0.174-1.368-0.282-1.473-0.852c-0.018-0.093,0.063-0.264,0.147-0.306
				c0.531-0.273,1.061-0.546,1.617-0.762c0.147-0.057,0.399,0.054,0.558,0.159c0.195,0.126,0.348,0.318,0.513,0.486
				c0.849,0.857,0.846,0.857,0.03,1.739c-0.036,0.039-0.057,0.09-0.138,0.225c0.183,0.09,0.417,0.294,0.519,0.24
				c0.63-0.321,1.23-0.698,1.913-1.104c-0.375-0.135-0.666-0.162-0.849-0.318c-0.863-0.747-1.703-1.526-2.54-2.303
				c-0.513-0.474-1.011-0.966-1.514-1.448c-0.057,0.018-0.117,0.036-0.174,0.054c0.315,0.549,0.069,0.797-0.387,1.02
				c-1.133,0.554-2.267,1.119-3.356,1.754c-0.624,0.363-1.143,0.444-1.718-0.039c-0.096-0.081-0.321-0.012-0.651-0.012
				c0.291,0.357,0.438,0.587,0.63,0.768c0.648,0.609,1.314,1.199,1.973,1.796c0.606,0.549,1.203,1.106,1.82,1.64
				c0.123,0.108,0.351,0.222,0.471,0.177c0.516-0.195,1.011-0.45,1.514-0.681C288.416,76.985,288.398,76.935,288.38,76.88z"/>
			<path class="st18" d="M312.019,92.537c-0.171,0.132-0.345,0.366-0.561,0.417c-0.735,0.177-1.481,0.303-2.228,0.432
				c-1.013,0.174-2.024,0.378-3.044,0.483c-0.531,0.054-1.086,0.396-1.625-0.015c-0.087-0.066-0.234-0.06-0.351-0.087
				c0.021,0.132-0.009,0.315,0.066,0.39c0.591,0.587,1.197,1.16,1.817,1.718c0.099,0.087,0.282,0.081,0.429,0.117
				c-0.012-0.147-0.024-0.291-0.036-0.438c-0.018-0.228-0.126-0.606-0.039-0.659c0.324-0.195,0.768-0.465,1.067-0.375
				c0.483,0.147,0.902,0.537,1.325,0.857c0.456,0.345,0.48,0.543,0.051,0.909c-0.234,0.198-0.57,0.282-0.869,0.381
				c-0.162,0.051-0.348,0.024-0.603,0.036c0.054,0.171,0.054,0.258,0.099,0.3c0.642,0.639,1.281,1.283,1.949,1.898
				c0.108,0.099,0.354,0.048,0.537,0.066c-0.021-0.162,0.015-0.378-0.075-0.48c-0.381-0.423-0.207-0.758,0.12-1.079
				c0.606-0.597,1.242-1.164,1.823-1.781c0.642-0.681,1.242-1.407,1.808-2.057C313.23,93.289,312.61,92.903,312.019,92.537z
				 M310.69,94.621c-0.291,0.27-0.618,0.504-0.948,0.719c-0.066,0.042-0.237-0.018-0.327-0.081
				c-0.165-0.111-0.321-0.246-0.447-0.399c-0.108-0.129-0.264-0.333-0.225-0.438c0.057-0.153,0.255-0.312,0.42-0.354
				c0.383-0.093,0.789-0.117,1.296-0.186c0.084,0.057,0.3,0.129,0.378,0.279C310.888,94.267,310.795,94.522,310.69,94.621z"/>
		</g>
	</g>
</g>
</svg>
