<?xml version="1.0" encoding="utf-8"?>
<!-- Generator: Adobe Illustrator 25.2.3, SVG Export Plug-In . SVG Version: 6.00 Build 0)  -->
<svg version="1.1" id="Layer_1" xmlns="http://www.w3.org/2000/svg" xmlns:xlink="http://www.w3.org/1999/xlink" x="0px" y="0px"
	 viewBox="0 0 720 110.836" style="enable-background:new 0 0 720 110.836;" xml:space="preserve">
<style type="text/css">
	.st0{fill:#DD2626;}
</style>
<path class="st0" d="M553.787,0v81.476c0,2.385,1.343,4.571,3.479,5.658c0.92,0.469,1.921,0.702,2.919,0.702
	c1.315,0,2.624-0.403,3.733-1.195L601,60.167l37.085,26.473c1.946,1.389,4.515,1.581,6.654,0.494
	c2.134-1.087,3.477-3.273,3.477-5.658V0H553.787z"/>
<g>
	<path class="st0" d="M48.204,68.711h-7.226v9.392H36.33V55.081h12.744v3.874h-8.095v5.898h7.226v3.858H48.204z"/>
	<path class="st0" d="M63.297,68.142h-7.242v6.103h8.57v3.858H51.407V55.081h13.187v3.874h-8.538v5.439h7.242L63.297,68.142
		L63.297,68.142z"/>
	<path class="st0" d="M77.964,73.392h-6.341l-1.234,4.712h-4.917l7.194-23.022h4.253l7.242,23.022h-4.965L77.964,73.392z
		 M72.635,69.518h4.301l-2.15-8.207L72.635,69.518z"/>
	<path class="st0" d="M99.002,58.955H93.31v19.148h-4.665V58.955h-5.597v-3.874h15.954V58.955z"/>
	<path class="st0" d="M116.324,55.081V71.02c-0.022,2.393-0.68,4.225-1.977,5.495s-3.157,1.905-5.582,1.905
		c-2.467,0-4.351-0.643-5.653-1.929s-1.952-3.147-1.952-5.582V55.081h4.68v15.844c0,1.307,0.211,2.24,0.632,2.799
		c0.422,0.559,1.186,0.838,2.293,0.838s1.866-0.277,2.277-0.83s0.622-1.463,0.632-2.728V55.081H116.324z"/>
	<path class="st0" d="M126.499,69.691h-2.309v8.412h-4.648V55.081h7.416c2.33,0,4.129,0.604,5.4,1.81
		c1.27,1.207,1.905,2.923,1.905,5.147c0,3.057-1.112,5.197-3.336,6.42l4.032,9.424v0.221h-4.996L126.499,69.691z M124.191,65.817
		h2.641c0.927,0,1.623-0.308,2.087-0.925c0.464-0.617,0.696-1.441,0.696-2.475c0-2.309-0.901-3.463-2.704-3.463h-2.72V65.817z"/>
	<path class="st0" d="M149.024,68.142h-7.242v6.103h8.57v3.858h-13.219V55.081h13.187v3.874h-8.538v5.439h7.242V68.142z"/>
	<path class="st0" d="M152.701,78.104V55.081h6.087c2.688,0,4.831,0.854,6.428,2.561c1.597,1.708,2.411,4.048,2.443,7.021v3.732
		c0,3.026-0.799,5.4-2.396,7.123c-1.597,1.724-3.798,2.585-6.602,2.585L152.701,78.104L152.701,78.104z M157.349,58.955v15.29h1.391
		c1.549,0,2.64-0.408,3.273-1.226c0.632-0.817,0.965-2.227,0.996-4.229v-4c0-2.15-0.3-3.65-0.901-4.498
		c-0.601-0.849-1.623-1.294-3.067-1.336L157.349,58.955L157.349,58.955z"/>
	<path class="st0" d="M182.46,74.245h8.159v3.858h-12.808V55.081h4.649V74.245z"/>
	<path class="st0" d="M204.873,68.142h-7.242v6.103h8.57v3.858h-13.219V55.081h13.187v3.874h-8.538v5.439h7.242V68.142z"/>
	<path class="st0" d="M218.274,72.063c0-0.938-0.24-1.647-0.719-2.127c-0.48-0.479-1.352-0.978-2.617-1.494
		c-2.308-0.875-3.969-1.9-4.981-3.076c-1.012-1.175-1.518-2.564-1.518-4.166c0-1.939,0.688-3.497,2.064-4.672
		c1.376-1.175,3.123-1.763,5.242-1.763c1.413,0,2.672,0.298,3.779,0.893c1.107,0.595,1.958,1.436,2.554,2.522
		c0.595,1.086,0.893,2.319,0.893,3.7h-4.633c0-1.075-0.229-1.895-0.688-2.459s-1.12-0.846-1.984-0.846
		c-0.812,0-1.444,0.24-1.898,0.72s-0.68,1.125-0.68,1.937c0,0.632,0.253,1.204,0.759,1.716s1.402,1.041,2.688,1.589
		c2.245,0.812,3.876,1.808,4.894,2.988c1.017,1.181,1.526,2.683,1.526,4.506c0,2.003-0.638,3.568-1.913,4.696
		c-1.276,1.128-3.01,1.692-5.202,1.692c-1.486,0-2.841-0.306-4.064-0.917c-1.223-0.611-2.18-1.487-2.87-2.625
		s-1.036-2.483-1.036-4.032h4.665c0,1.328,0.258,2.293,0.775,2.894c0.516,0.601,1.36,0.901,2.53,0.901
		C217.463,74.641,218.274,73.782,218.274,72.063z"/>
	<path class="st0" d="M235.439,72.063c0-0.938-0.24-1.647-0.719-2.127c-0.48-0.479-1.352-0.978-2.617-1.494
		c-2.308-0.875-3.969-1.9-4.981-3.076c-1.012-1.175-1.518-2.564-1.518-4.166c0-1.939,0.688-3.497,2.064-4.672
		c1.376-1.175,3.123-1.763,5.242-1.763c1.413,0,2.672,0.298,3.779,0.893c1.107,0.595,1.958,1.436,2.554,2.522
		c0.595,1.086,0.893,2.319,0.893,3.7h-4.633c0-1.075-0.229-1.895-0.688-2.459s-1.12-0.846-1.984-0.846
		c-0.812,0-1.444,0.24-1.898,0.72s-0.68,1.125-0.68,1.937c0,0.632,0.253,1.204,0.759,1.716s1.402,1.041,2.688,1.589
		c2.245,0.812,3.876,1.808,4.894,2.988c1.017,1.181,1.526,2.683,1.526,4.506c0,2.003-0.638,3.568-1.913,4.696
		c-1.276,1.128-3.01,1.692-5.202,1.692c-1.486,0-2.841-0.306-4.064-0.917c-1.223-0.611-2.18-1.487-2.87-2.625
		s-1.036-2.483-1.036-4.032h4.665c0,1.328,0.258,2.293,0.775,2.894c0.516,0.601,1.36,0.901,2.53,0.901
		C234.627,74.641,235.439,73.782,235.439,72.063z"/>
	<path class="st0" d="M259.086,68.664c0,3.089-0.73,5.487-2.19,7.194c-1.46,1.708-3.487,2.561-6.08,2.561
		c-2.583,0-4.612-0.846-6.087-2.538c-1.476-1.692-2.224-4.061-2.246-7.108v-3.937c0-3.162,0.733-5.631,2.198-7.408
		c1.465-1.776,3.5-2.664,6.103-2.664c2.562,0,4.58,0.872,6.056,2.617s2.224,4.193,2.245,7.344v3.939H259.086z M254.422,64.806
		c0-2.077-0.295-3.621-0.886-4.633c-0.59-1.012-1.508-1.518-2.752-1.518c-1.233,0-2.145,0.488-2.735,1.462
		c-0.59,0.975-0.896,2.459-0.917,4.451v4.095c0,2.013,0.3,3.497,0.901,4.451c0.601,0.954,1.528,1.431,2.783,1.431
		c1.212,0,2.113-0.467,2.704-1.399c0.59-0.933,0.89-2.38,0.901-4.341v-3.999H254.422z"/>
	<path class="st0" d="M278.195,78.104h-4.648l-6.799-15.101v15.101h-4.649V55.081h4.649l6.815,15.116V55.081h4.633L278.195,78.104
		L278.195,78.104z"/>
</g>
</svg>
