<?xml version="1.0" encoding="utf-8"?>
<!-- Generator: Adobe Illustrator 23.0.4, SVG Export Plug-In . SVG Version: 6.00 Build 0)  -->
<svg version="1.1" id="Layer_1" xmlns="http://www.w3.org/2000/svg" xmlns:xlink="http://www.w3.org/1999/xlink" x="0px" y="0px"
	 viewBox="0 0 36 36" style="enable-background:new 0 0 36 36;" xml:space="preserve">
<style type="text/css">
	.st0{fill:#FFFFFF;}
	.st1{fill:#27A74A;}
</style>
<rect class="st0" width="36" height="36"/>
<path class="st1" d="M1.139,17.859c-0.006,0.929,0.352,1.802,1.009,2.459c0.645,0.645,1.5,1.004,2.414,1.01l16.905,0.112
	l-2.528,2.528c-1.342,1.342-1.342,3.527,0,4.869c1.341,1.341,3.526,1.344,4.873,0.004l8.092-8.093
	c0.501-0.503,0.841-1.156,1.014-1.957c0.042-0.15,0.115-0.405,0.114-0.728L33.031,17.8l-0.007-0.018
	c-0.05-0.959-0.443-1.846-1.122-2.525l-8.093-8.093c-1.342-1.342-3.527-1.342-4.869,0s-1.342,3.527,0,4.869l2.519,2.519L4.606,14.44
	C2.706,14.428,1.153,15.962,1.139,17.859z"/>
</svg>
