<?xml version="1.0" encoding="utf-8"?>
<!-- Generator: Adobe Illustrator 23.0.4, SVG Export Plug-In . SVG Version: 6.00 Build 0)  -->
<svg version="1.1" id="Layer_1" xmlns="http://www.w3.org/2000/svg" xmlns:xlink="http://www.w3.org/1999/xlink" x="0px" y="0px"
	 viewBox="0 0 50 40" style="enable-background:new 0 0 50 40;" xml:space="preserve">
<g>
	<path d="M37.803,0.633H1.895c-0.864,0-1.566,0.702-1.566,1.566v29.259c0,0.864,0.702,1.566,1.566,1.566h13.632l-1.844,2.949H8.468
		c-0.413,0-0.75,0.336-0.75,0.751v2.015c0,0.412,0.336,0.75,0.75,0.75h22.763c0.412,0,0.75-0.336,0.75-0.75v-2.015
		c0-0.413-0.336-0.751-0.75-0.751h-5.318l-1.844-2.95h13.734c0.864,0,1.566-0.702,1.566-1.566V2.199
		C39.369,1.336,38.667,0.633,37.803,0.633z M1.895,1.675h35.909c0.289,0,0.524,0.235,0.524,0.524v2.36H1.371v-2.36
		C1.371,1.91,1.607,1.675,1.895,1.675z M38.327,5.601v21.358H1.371V5.601H38.327z M30.939,38.447H8.759v-1.432h22.18V38.447z
		 M24.685,35.972h-9.774l1.844-2.95h6.086L24.685,35.972z M37.803,31.981H1.895c-0.289,0-0.524-0.235-0.524-0.524V28h36.957v3.457
		C38.327,31.747,38.091,31.981,37.803,31.981z"/>
	<path d="M17.323,16.307c-0.455,0-0.825,0.37-0.825,0.825v4.847c0,0.456,0.37,0.826,0.825,0.826h17.921
		c0.455,0,0.825-0.37,0.825-0.826v-4.847c0-0.455-0.37-0.825-0.825-0.825C35.243,16.307,17.323,16.307,17.323,16.307z
		 M35.027,21.763H17.539v-4.414h17.487L35.027,21.763L35.027,21.763z"/>
	<path d="M4.312,25.287h32.372v-1.042H4.312c-0.11,0-0.204-0.093-0.204-0.204V7.563H3.067v16.478
		C3.067,24.728,3.626,25.287,4.312,25.287z"/>
	<rect x="6.102" y="16.828" width="1.042" height="5.686"/>
	<rect x="8.931" y="18.531" width="1.042" height="3.985"/>
	<rect x="11.529" y="15.529" width="1.042" height="6.986"/>
	<rect x="14.185" y="17.723" width="1.042" height="4.793"/>
	<path d="M11.412,14.357c1.076,0,1.951-0.875,1.951-1.951c0-0.243-0.05-0.474-0.131-0.689l5.009-1.624
		c0.352,0.512,0.94,0.85,1.608,0.85c0.666,0,1.254-0.336,1.606-0.847l4.335,2.027c-0.013,0.093-0.028,0.185-0.028,0.283
		c0,1.076,0.875,1.951,1.95,1.951c1.027,0,1.863-0.8,1.936-1.808l3.901-2.14c0.349,0.329,0.817,0.534,1.332,0.534
		c1.076,0,1.951-0.875,1.951-1.951s-0.875-1.951-1.951-1.951c-1.075,0-1.95,0.875-1.95,1.951c0,0.182,0.033,0.355,0.08,0.523
		l-3.591,1.969c-0.33-0.61-0.968-1.03-1.709-1.03c-0.606,0-1.14,0.283-1.498,0.716l-4.426-2.068
		c0.002-0.037,0.011-0.072,0.011-0.109c0-1.076-0.875-1.951-1.951-1.951c-1.076,0-1.951,0.875-1.951,1.951
		c0,0.039,0.009,0.075,0.011,0.112l-5.347,1.733c-0.324-0.238-0.719-0.385-1.151-0.385c-1.076,0-1.951,0.875-1.951,1.951
		S10.337,14.357,11.412,14.357z M34.882,8.084c0.501,0,0.909,0.408,0.909,0.909s-0.408,0.909-0.909,0.909
		c-0.5,0-0.909-0.408-0.909-0.909S34.381,8.084,34.882,8.084z M27.712,11.496c0.501,0,0.909,0.408,0.909,0.909
		c0,0.501-0.408,0.909-0.909,0.909c-0.5,0-0.909-0.408-0.909-0.909C26.803,11.905,27.212,11.496,27.712,11.496z M19.849,8.084
		c0.501,0,0.909,0.408,0.909,0.909s-0.408,0.909-0.909,0.909c-0.501,0-0.909-0.408-0.909-0.909S19.348,8.084,19.849,8.084z
		 M11.412,11.496c0.501,0,0.909,0.408,0.909,0.909c0,0.501-0.408,0.909-0.909,0.909s-0.909-0.408-0.909-0.909
		C10.503,11.905,10.911,11.496,11.412,11.496z"/>
	<path d="M19.86,28.225c-0.977,0-1.771,0.795-1.771,1.771c0,0.977,0.795,1.771,1.771,1.771c0.977,0,1.771-0.795,1.771-1.771
		C21.632,29.019,20.837,28.225,19.86,28.225z M19.86,30.726c-0.402,0-0.73-0.327-0.73-0.729c0-0.403,0.327-0.73,0.73-0.73
		c0.403,0,0.73,0.327,0.73,0.73C20.59,30.399,20.263,30.726,19.86,30.726z"/>
	<rect x="29.012" y="18.907" width="1.201" height="1.201"/>
	<rect x="25.773" y="18.907" width="1.201" height="1.201"/>
	<rect x="22.534" y="18.907" width="1.201" height="1.201"/>
	<rect x="19.295" y="18.907" width="1.201" height="1.201"/>
	<rect x="32.251" y="18.907" width="1.201" height="1.201"/>
</g>
</svg>
