<?xml version="1.0" encoding="utf-8"?>
<!-- Generator: Adobe Illustrator 24.0.3, SVG Export Plug-In . SVG Version: 6.00 Build 0)  -->
<svg version="1.1" id="OTIS-New" xmlns="http://www.w3.org/2000/svg" xmlns:xlink="http://www.w3.org/1999/xlink" x="0px" y="0px"
	 viewBox="0 0 210 319" style="enable-background:new 0 0 210 319;" xml:space="preserve">
<style type="text/css">
	.st0{opacity:0.4;fill:#310940;enable-background:new    ;}
	.st1{fill:#E2BEAE;}
	.st2{fill:#92ACB2;}
	.st3{fill:#FFF360;}
	.st4{fill:#FFFFFF;}
	.st5{fill:#EC509C;}
	.st6{fill:#8B3D6E;}
	.st7{fill:#301118;}
	.st8{fill:#D48BBC;}
	.st9{fill:none;}
	.st10{fill:#D1D3D4;}
	.st11{fill:#939598;}
	.st12{fill:#4D4D4F;}
	.st13{fill:#FFFFFF;stroke:#000000;stroke-width:0.6018;stroke-miterlimit:10;}
	.st14{fill:#FFFFFF;stroke:#000000;stroke-width:0.3009;stroke-miterlimit:10;}
	.st15{fill:#FFFFFF;stroke:#000000;stroke-width:0.685;stroke-miterlimit:10;}
	.st16{fill:#FFFFFF;stroke:#000000;stroke-width:0.3425;stroke-miterlimit:10;}
	.st17{fill:#A9E0F7;}
	.st18{fill:#50B848;}
	.st19{fill:#310940;}
	.st20{opacity:0.27;enable-background:new    ;}
	.st21{fill:#E380B1;}
</style>
<g>
	<ellipse class="st0" cx="123.722" cy="312.563" rx="84.339" ry="5.381"/>
	<path class="st1" d="M116.668,312.392c-3.945,0.055-7.959,0.062-11.856,0.005c-0.95-0.014-2.878,0.053-3.835,0.105
		c-2.599,0.141-5.326-0.192-7.968-0.083c-3.331,0.139-6.461-0.533-9.754-0.134c-0.304,0.037-0.625,0.072-0.907-0.047
		c-0.338-0.144-0.548-0.479-0.736-0.795c-0.662-1.116-1.5-2.293-1.689-3.581c-0.21-1.427-0.232-2.906-0.177-4.344
		c0.063-1.616,0.34-2.722,0.945-4.175c0.588-1.413,0.51-3.006,1.259-4.372c1.946-3.544,5.67-3.82,9.286-3.323
		c3.916,0.538,7.613,1.366,11.451,2.247c0.831,0.19,1.692,0.253,2.505,0.511c2.543,0.805,5.602,1.161,8.243,0.912
		c0.717-0.068,1.168,0.234,1.851,0.268c0.483,0.024,0.906-0.308,1.242-0.656c1.182-1.225,1.854-2.817,2.285-4.441
		c0.433-1.628,0.97-3.244,1.345-4.899c0.809-3.569,0.687-7.33-0.197-10.874c-0.424-1.699-1.019-3.353-1.752-4.942
		c-1.17-2.534-2.716-5.386-4.706-7.378c-1.493-1.494-2.68-3.206-4.029-4.858c-2.857-3.497-6.041-7.28-9.893-9.723
		c-3.71-2.353-3.624-3.088-8.082-3.846c-0.681-0.116-1.496-0.125-1.927,0.415c-0.251,0.313-0.301,0.738-0.325,1.138
		c-0.325,5.533,4.37,4.445-0.011,7.64c-3.594,2.621-11.807,9.903-15.771,11.937c-3.594,1.843-7.378,4.638-10.757,7.024
		c-3.061,2.163-5.797,3.444-9.499,2.864c-2.785-0.436-7.188-3.385-9.274-5.281c-1.797-1.633-4.212-5.426-4.955-7.739
		c-0.743-2.313,2.342-4.714,4.593-5.624c0.603-0.243,2.136-1.37,2.636-1.787c1.646-1.373-0.843-3.463-0.065-5.46
		c0.589-1.51,3.974-2.419,5.545-2.022s4.98,0.914,6.497,1.483c3.658,1.373,5.288,1.799,8.72-0.069
		c4.599-2.502,8.694-5.447,12.723-8.75c0.835-0.684,2.493-0.54,2.881-1.547c0.483-1.253,0.136-2.725,0.692-3.948
		c0.794-1.746,3.014-2.239,4.927-2.378c8.096-0.592,14.783,1.677,22.17,4.529c5.245,2.026,12.946-1.485,18.901-1.939
		c9.906-0.756,17.212,2.413,24.467-6.531c2.962-3.652,6.132-7.814,8.547-11.806c1.562-2.583,3.606-6.747,7.67-4.044
		c1.726,1.149,2.544,3.224,3.253,5.173c2.224,6.109,5.334,11.853,7.575,17.957c0.994,2.709,2.209,5.348,2.884,8.164
		c0.327,1.365,0.535,2.772,0.467,4.178c-0.033,0.693-0.297,1.395-0.317,2.07c-0.056,1.901-0.78,2.674-2.231,3.984
		c-1.323,1.195-2.316,2.635-3.952,3.466c-0.53,0.269-1.109,0.449-1.591,0.796c-0.544,0.39-0.925,0.963-1.408,1.425
		c-0.699,0.668-1.591,1.087-2.466,1.497c-1.102,0.515-2.204,1.03-3.306,1.545c-1.6,0.748-2.852,0.942-4.551,1.105
		c-0.966,0.092-2.253,1.628-3.234,1.288c0.28,0.985,1.065,1.736,1.556,2.636c0.372,0.682,0.571,1.443,0.765,2.195
		c0.117,0.455,0.237,0.917,0.221,1.387c-0.022,0.653-0.301,1.269-0.619,1.84c-0.913,1.644-1.948,3.202-3.742,3.828
		c-2.382,0.832-4.929,1.118-7.41,1.504c-0.732,0.114-1.444-0.113-2.163-0.03c-0.132,0.015-0.254,0.033-0.369,0.054
		c-3.111,0.561-1.041,4.904-0.619,6.607c0.303,1.221,0.357,1.907,1.375,2.832c1.878,1.708,3.998,3.759,6.491,4.48
		c1.894,0.547,3.889,0.502,5.49,1.804c1.687,1.372,2.772,3.497,3.345,5.56c0.778,2.8,0.744,5.753,0.706,8.658
		c-0.013,0.977-0.285,1.897-0.706,2.778c-0.651,1.363-2.204,1.556-3.383,1.546c-4.431-0.041-8.354-0.142-12.786-0.182
		c-4.798-0.044-8.22,0.24-13.018,0.182c-2.447-0.03-2.826-0.725-5.23,0c-1.984,0.598-3.994-0.08-6.102-0.182
		C122.819,312.12,118.637,312.366,116.668,312.392z"/>
	<path class="st2" d="M178.023,203.675c-0.299-1.368-0.478-2.771-0.89-4.125c-0.177-0.582-0.384-1.151-0.613-1.714
		c-0.19-0.462-0.203-0.92-0.37-1.391c-0.288-0.814-0.806-1.54-1.122-2.347c-0.16-0.409-0.213-1.188-0.57-1.468
		c0.493,0.387,0.708,1.057,1.225,1.41c1.706,1.164,2.408,3.434,4.099,4.708c0.442,0.333,2.315,1.876,2.079,2.525
		c0.584-1.605,0.604-3.295,0.42-4.973c-0.166-1.525-0.16-3.04-0.427-4.574c-0.568-3.269-1.639-6.433-2.967-9.467
		c-1.103-2.519-2.598-4.847-4.159-7.11c-0.984-1.427-1.999-2.835-3.09-4.184c-0.545-0.672-1.107-1.331-1.694-1.966
		c-0.473-0.511-1.181-1.013-1.524-1.617c1.394,0.626,2.804,1.215,4.229,1.768c0.577,0.224,1.156,0.442,1.743,0.638
		c2.156,0.721,4.145,1.838,6.398,2.327c-1.407-3.926-3.256-7.695-5.495-11.213c-1.288-2.023-2.713-3.855-3.885-5.955
		c-0.546-0.978-1.27-1.569-1.954-2.411c-1.541-1.897-3.087-3.792-4.794-5.543c-0.741-0.759-1.396-1.145-2.268-1.677
		c-0.541-0.33-0.805-0.853-1.199-1.319c-0.42-0.496-0.854-0.743-1.403-1.108c-1.106-0.736-2.144-1.567-3.239-2.315
		c-0.915-0.625-1.96-1.079-2.911-1.681c-2.064-1.304-4.213-2.47-6.362-3.625c-0.754-0.405-1.54-0.762-2.37-0.973
		c-1.495-0.379-2.966-0.486-4.432-0.988c-1.182-0.403-2.466-0.617-3.701-0.8c-2.792-0.432-5.711-1.239-8.485-1.073
		c0.375-0.842,1.221-1.398,1.851-2.045c0.531-0.544,1.1-1.05,1.692-1.525c0-0.349,1.285-0.855,1.568-1.013
		c0.787-0.436,1.531-0.979,2.29-1.464c0.182-0.117,0.374-0.277,0.326-0.472c-0.025-0.104-0.116-0.179-0.207-0.237
		c-0.393-0.249-0.871-0.314-1.333-0.367c-4.039-0.46-7.976-0.549-12.044-0.413c-4.348,0.145-8.76,0.469-12.976,1.606
		c-3.936,1.062-7.915,2.12-11.546,4.057c-2.872,1.532-5.603,3.329-8.15,5.358c-1.273,1.014-2.5,2.086-3.676,3.212
		c-1.032,0.989-1.973,2.32-3.103,3.16c0.326-2.378,1.056-4.62,1.889-6.877c0.393-1.064,0.789-2.214,1.357-3.2
		c0.172-0.299,1.247-2.147,1.412-2.187c-3.281,0.782-6.25,2.505-9.137,4.248c-1.345,0.813-2.691,1.639-3.911,2.631
		c-3.823,3.109-6.177,7.632-8.301,12.078c-0.849,1.777-1.688,3.583-2.134,5.511c-0.203,0.876-0.505,1.692-0.783,2.56
		c-0.141,0.437-0.962,2.393-0.718,2.773c-1.854-2.881-0.934-6.184-1.445-9.434c0.052,0.328-0.545,1.264-0.665,1.614
		c-0.203,0.586-0.338,1.185-0.5,1.779c-0.375,1.369-0.845,2.71-1.222,4.079c-0.399,1.444-0.749,2.905-0.99,4.384
		c-0.112,0.689-0.313,1.482-0.247,2.183c0.063,0.67,0.362,1.603-0.629,1.782c-0.209,0.038-0.715-0.102-0.907-0.21
		c-0.455-0.259-0.813-0.842-0.997-1.321c-0.146-0.38-0.129-1.947-0.423-2.178c-0.474-0.375-0.834,0.45-0.971,0.869
		c-0.535,1.64-0.515,3.409-0.355,5.126c0.377,4.059,1.137,8.14,4.288,11.029c0.152,0.139,0.33,0.283,0.535,0.271
		c0.193-0.011,0.35-0.156,0.491-0.289c1.546-1.441,2.719,0.137,4.065,0.965c1.568,0.965,3.195,1.846,4.661,2.968
		c2.734,2.096,6.383,6.026,5.615,9.824c-0.279,1.378-1.283,2.586-1.812,3.878c-0.862,2.101-1.483,4.181-2.664,6.15
		c-1.296,2.159-2.918,4.11-4.166,6.297c-4.553,7.985-3.146,20.309,2.085,27.867c5.443,7.864,13.472,13.833,22.295,17.412
		c1.373,0.557,3.258,1.545,4.717,1.591c-0.384-0.012-1.429-4.328-1.771-4.827c-0.245-0.358-0.811-1.245-0.481-1.681
		c0.417-0.55,0.308,0,0.683,0.303c0.943,0.763,2.56,1.91,3.717,2.362c1.299,0.507,2.563,1.118,3.844,1.702
		c1.682,0.768,3.405,1.545,5.246,1.716c0.569,0.053,1.156,0.049,1.687,0.261c0.259,0.103,0.495,0.254,0.745,0.375
		c1.854,0.894,4.276,0.67,6.285,0.9c2.483,0.285,4.947,0.318,7.421,0.484c-0.178-0.012-1.967-2.792-2.007-3.142
		c-0.009-0.084-0.01-0.175,0.033-0.247c0.093-0.157,0.319-0.148,0.5-0.119c5.199,0.814,10.403,0.524,15.613,0.858
		c2.592,0.166,5.279,0.319,7.704-0.611c0.52-0.2,1.025-0.449,1.466-0.79c0.323-0.25,0.607-0.547,0.925-0.803
		c0.549-0.444,1.188-0.761,1.822-1.075c5.166-2.556,10.423-5.143,16.105-6.107c-0.307-0.489-0.583-1.041-0.944-1.493
		c-0.23-0.288-0.543-0.449-0.806-0.702c-0.902-0.866-1.483-1.871-2.156-2.894c-0.11-0.168-0.228-0.335-0.292-0.525
		c-0.048-0.143-0.064-0.295-0.077-0.445c-0.066-0.77-0.126-1.671,0.031-2.433c0.129-0.628,0.659-1.218,1.068-1.704
		c0.223-0.265,0.465-0.532,0.781-0.672c0.707-0.315,1.386,0.089,2.062,0.257c0.745,0.186,1.391,0.416,2.077,0.773
		c-0.265-0.138,0.001-2.086,0.036-2.375c0.072-0.576-0.018-1.33,0.166-1.87c0.654-1.91,3.299-1.688,4.744-1.037
		c1.498,0.675,2.017,1.661,2.86,2.939c-0.156-0.237-0.039-1.092-0.055-1.392c-0.022-0.425-0.014-0.846-0.012-1.265
		c0.003-0.604-0.055-1.188,0.031-1.793c0.164-1.133,0.713-2.345,1.972-2.529c0.522-0.076,0.774,0.172,1.151,0.462
		c0.677,0.522,1.245,0.94,1.832,1.579c0.286,0.312,0.577,0.631,0.744,1.019c-0.455-0.801-0.814-1.646-1.1-2.52
		c-0.203-0.62-0.369-1.437-0.745-1.968c-0.097-0.137-0.213-0.289-0.184-0.454c0.014-0.08,0.06-0.15,0.105-0.216
		c0.352-0.522,0.586-0.831,0.715-1.444c0.129-0.614,0.296-1.22,0.453-1.827c0.594-2.283,0.806-4.647,0.952-7.001
		c0.069-1.124,0.123-2.254,0.146-3.382C178.561,207.932,178.492,205.825,178.023,203.675z"/>
	<path class="st3" d="M104.181,191.759c0,6.157-0.609,13.057-3.52,18.608c-0.795,1.517-1.96,3.346-3.705,3.872
		c-1.112,0.335-2.156-0.2-3.265,0.027c-1.866,0.38-3.389,1.339-5.384,1.324c-2.099-0.016-5.517-1.247-6.915-2.829
		c-1.033-1.169-1.564-2.714-1.76-4.261c-0.1-0.792-0.118-1.607,0.081-2.381c0.692-2.684,3.726-4.177,4.668-6.783
		c1.063-2.94,0.216-5.851,0.305-8.849c0.106-3.593,0.789-7.137,1.464-10.657c0.83-4.323,3.029-9.881,0.277-13.902
		c-0.19-0.277-0.401-0.549-0.493-0.872c-0.092-0.323-0.033-0.718,0.239-0.915c0.133-0.096,0.3-0.135,0.462-0.159
		c1.357-0.207,2.808,0.413,3.596,1.539c0.422,0.603,0.698,1.365,1.343,1.719c2.186,1.202,5.157-0.653,6.639-2.138
		c0.366-0.367,0.83-0.8,1.326-0.645c0.317,0.099,0.512,0.411,0.663,0.708c1.485,2.92,1.381,6.352,1.824,9.598
		c0.392,2.875,1.235,5.66,1.764,8.509C104.32,186.117,104.181,188.885,104.181,191.759z"/>
	<path class="st4" d="M84.178,174.672c-0.122-0.493-0.278-0.982-0.3-1.489c-0.02-0.507,0.117-1.049,0.495-1.387
		c0.487-0.436,1.235-0.424,1.861-0.23c1.007,0.312,1.879,1.038,2.367,1.973c0.622,1.192,0.608,2.602,0.579,3.947
		c-0.027,1.245,0.053,2.488,0.102,3.73c0.022,0.561-0.061,1.099-0.162,1.631c-0.145,0.77-0.328,1.53-0.285,2.342
		c0.095,1.78-0.543,3.387-0.753,5.119c-0.346,2.851-1.101,5.702-1.628,8.538c-0.121,0.652-0.243,1.308-0.475,1.928
		c-0.747,1.996-1.668,3.923-2.581,5.86c-0.258,0.548-0.822,1-0.964,1.579c-0.081,0.335-0.094,0.693-0.248,1.001
		c-0.217,0.437-0.722,0.713-1.207,0.658c-0.758-0.084-1.282-0.851-2.027-1.013c-0.151-0.032-0.314-0.043-0.436-0.136
		c-0.178-0.137-0.199-0.396-0.182-0.621c0.277-3.816,3.004-7.003,3.68-10.756c0.239-1.323,0.3-2.672,0.507-4.001
		c0.311-1.99,1.222-3.926,1.407-5.914c0.178-1.909,0.884-3.738,0.733-5.695c-0.095-1.234-0.565-2.532-0.393-3.775
		C84.428,176.801,84.473,175.865,84.178,174.672z"/>
	<path class="st4" d="M127.451,203.399c-1.591,3.837-3.436,7.466-6.362,10.481c-0.178,0.184-0.368,0.371-0.609,0.456
		c-0.545,0.193-1.112-0.182-1.567-0.537c-0.298-0.232-0.596-0.464-0.894-0.696c-0.135-0.105-0.277-0.219-0.334-0.381
		c-0.055-0.155-0.021-0.326,0.015-0.487c0.303-1.366,0.719-2.708,1.241-4.006c0.45-1.122,1.179-2.119,1.447-3.294
		c0.14-0.611,0.068-1.225,0.177-1.837c0.324-1.827,1.505-3.684,2.144-5.435c1.407-3.85,2.45-7.827,3.241-11.847
		c0.26-1.321,0.643-2.713,0.682-4.053c0.043-1.48-0.019-2.925,0.171-4.403c0.055-0.432,0.127-0.873,0.345-1.249
		c0.341-0.589,1.047-0.944,1.723-0.866c0.8,0.091,1.427,0.702,1.988,1.278c0.609,0.626,1.234,1.274,1.552,2.088
		c0.334,0.853,0.297,1.801,0.209,2.712c-0.215,2.239-0.714,4.416-0.881,6.639c-0.198,2.627-1.234,5.044-1.532,7.602
		C129.886,198.275,128.482,200.91,127.451,203.399z"/>
	<path d="M83.06,195.656c-0.024,0.129-0.047,0.256-0.071,0.385c-0.243,1.321-0.586,2.356-1.05,3.579
		c-0.515,1.357-0.664,2.804-1.357,4.104c-1.047,1.981-1.808,4.107-2.866,6.087c-0.193,0.362-0.915,2.085-1.51,1.935
		c-0.594-0.15-0.303-1.537-0.486-1.966c-0.308-0.719-1.239-1.222-1.914-1.542c-1.496-0.711-3.857-0.719-5.48-0.518
		c-1.505,0.186-2.656,1.351-4.291,1.44c-0.328,0.018-0.677,0.005-0.953-0.174c-0.227-0.147-0.376-0.388-0.5-0.63
		c-0.397-0.771-0.625-1.616-0.851-2.453c-0.35-1.297-0.699-2.595-1.048-3.892c-0.276-1.023-0.329-1.894-0.35-2.925
		c-0.018-0.918-0.301-1.844-0.363-2.773c-0.081-1.195,0.019-2.394,0.12-3.587c0.198-2.353,0.05-4.685,0.222-7.052
		c0.107-1.478,0.516-2.9,0.753-4.358c0.102-0.624,0.205-1.255,0.447-1.838c0.171-0.412,0.408-0.793,0.644-1.172
		c0.19-0.304,0.379-0.609,0.569-0.914c0.217-0.35,0.436-0.701,0.714-1.005c0.989-1.085,2.472-1.469,3.563-2.389
		c1.325-1.115,2.316-2.438,3.957-3.156c0.909-0.398,1.894-0.584,2.869-0.768c3.211-0.603,6.555-1.201,9.704-0.333
		c1.016,0.28,0.66,1.416,0.603,2.219c-0.072,1.019,0.328,1.938,0.504,2.936c0.362,2.064,0.404,4.172,0.256,6.26
		c-0.071,1.001-0.287,2.009-0.325,3.009c-0.027,0.701,0.129,1.352,0.047,2.058C84.248,189.389,83.64,192.522,83.06,195.656z"/>
	<path d="M96.796,175.705c0.025-0.155,0.05-0.312,0.075-0.467c0.059-0.371,0.119-0.743,0.244-1.098
		c0.445-1.263,1.554-1.886,2.389-2.815c0.908-1.013,1.555-2.132,2.686-2.949c2.341-1.69,4.947-1.409,7.593-1.883
		c1.708-0.306,3.431-0.595,5.17-0.628c1.325-0.025,3.382-0.102,4.577,0.534c1.977,1.052,4.025,2.029,5.965,3.139
		c1.555,0.89,2.021,3.263,2.1,4.954c0.095,2.047-0.399,4.034-0.344,6.067c0.062,2.307-0.498,4.788-0.78,7.079
		c-0.185,1.505-0.184,3.021-0.612,4.499c-0.271,0.967-0.294,1.888-0.648,2.828c-0.927,2.458-1.075,5.044-1.844,7.556
		c-0.698,2.282-1.67,3.654-2.529,5.86c-0.142,0.362-1.073,1.501-1.293,1.822c-1.035,1.514-1.528,2.898-3.923,0.65
		c-0.652-0.612-1.227-1.323-1.986-1.796c-0.763-0.474-1.672-0.638-2.556-0.792c-2.476-0.434-4.952-0.866-7.428-1.3
		c-1.192-0.209-2.382-0.449-3.573-0.656c-0.907-0.157-1.257,3.481-2.172,3.57c-0.3-1.533-0.604-3.367-1.19-7.989
		c-0.178-1.396-0.285-2.838-0.465-4.25c-0.128-1.001-0.255-2.002-0.316-3.009c-0.068-1.117-0.052-2.238-0.036-3.357
		c0.018-1.323,0.037-2.647,0.055-3.971c0.041-2.915,0.082-5.835,0.427-8.73c0.148-1.238,0.203-2.669,0.715-3.82
		c0.217-0.488,0.435-0.977,0.652-1.465c0.457-1.027,0.952-2.103,1.862-2.763"/>
	<path class="st5" d="M58.132,178.806c-2.144-2.814-4.011-9.553-3.102-11.737c1.154,2.058,3.416,1.444,3.416,1.444
		s0.655-3.458,1.544-9.484c1.41,2.68,2.928,4.422,2.928,4.422s5.51-19.835,16.556-28.293c-2.218,7.123,0,16.169,0,16.169
		s20.574-24.42,45.691-23.506c-8.567,6.444-11.428,7.944-13.42,15.106c27.725-14.166,53.851,7.186,60.934,20.564
		c-21.079-13.378-38.392-7.388-38.392-7.388s10.542,6.017,10.542,9.747c-9.441-4.815-18.852-0.645-19.335,3.69
		c-0.484,4.334-4.493-6.49-4.493-6.49s-16.799-4.383-21.461,1.407c-3.011,3.74-5.959,6.289-7.661,11.74
		c-2.13-8.879-4.999-12.225-7.829-12.859c-5.719-1.283-15.27,7.33-15.622,7.407C68.076,170.823,58.132,178.806,58.132,178.806
		L58.132,178.806z"/>
	<path class="st6" d="M66.009,220.167c-3.458,7.632,9.267,26.215,21.828,29.773c-1.258-3.484-1.861-7.078-1.696-7.988
		c1.323,0.868,19.055,12.084,28.598,11.598c-1.669-2.163-2.72-4.251-2.43-4.788c3.225,1.7,22.787,2.701,27.296,2.494
		c-23.164-10.438-34.041-23.518-30.52-31.822c2.144-5.057-37.367-2.556-37.532-2.597C71.388,216.794,66.009,220.167,66.009,220.167z
		"/>
	<path class="st7" d="M96.377,238.299c-0.875,0.463-1.893,0.653-2.797,1.077c-0.889,0.418-1.687,1.071-2.652,1.25
		c-0.863,0.161-1.744-0.08-2.589-0.317c-1.311-0.369-2.622-0.739-3.933-1.108c-0.94-0.264-1.895-0.536-2.72-1.06
		c-0.654-0.415-1.201-0.976-1.736-1.536c-1.35-1.416-2.659-2.871-3.923-4.363c-1.398-1.651-1.798-3.643-2.457-5.669
		c-0.131-0.404-0.264-0.814-0.286-1.238c-0.035-0.696,0.228-1.369,0.487-2.016c0.325-0.81,0.657-1.634,1.201-2.316
		c0.563-0.707,1.325-1.225,2.106-1.682c4.063-2.377,9.449-1.585,13.991-1.585c1.327,0,3.021-0.287,4.309,0.014
		c2.671,0.623,3.865,2.951,4.751,5.319c1.112,2.974-0.225,5.474-0.785,8.386c-0.228,1.185-0.32,2.398-0.638,3.562
		s-0.899,2.31-1.885,3.006C96.681,238.127,96.531,238.216,96.377,238.299z"/>
	<path class="st8" d="M95.862,238.443c-0.072,0.038-0.146,0.073-0.222,0.105c-1.397,0.591-2.603,1.058-4.166,1.018
		c-0.977-0.025-1.955-0.049-2.932-0.074c-1.161-0.03-2.334-0.06-3.454-0.368c-2.408-0.663-5.778-2.574-7.176-4.695
		c-0.052-0.078-0.104-0.166-0.091-0.259c0.015-0.11,0.115-0.186,0.206-0.249c1.141-0.786,2.645-1.467,3.655-2.303
		c0.556-0.46,0.888-0.972,1.633-1.321c0.784-0.367,1.63-0.593,2.47-0.792c0.9-0.214,1.816-0.399,2.74-0.372
		c1.713,0.052,3.176,0.549,4.873,0.276c1.68-0.27,3.729-0.052,5.309,0.586c0.608,0.245,0.766,0.491,0.733,1.186
		c-0.092,2.019-0.768,4.007-1.923,5.664C97.077,237.483,96.543,238.086,95.862,238.443z"/>
	<line class="st9" x1="84.047" y1="232.845" x2="83.963" y2="232.845"/>
	<g>
		<path d="M74.181,226.008c0.352,1.739,0.995,3.409,1.877,4.939c0.862,1.541,1.946,2.957,3.2,4.187
			c2.473,2.459,5.732,4.302,9.174,4.082c1.729-0.076,3.448-0.443,4.979-1.207c1.521-0.78,2.806-1.96,3.775-3.384
			c0.218-0.372,0.487-0.715,0.669-1.111l0.56-1.181c0.283-0.829,0.597-1.652,0.768-2.524c0.246-0.852,0.338-1.741,0.475-2.623
			c0.112-0.885,0.135-1.784,0.216-2.679h0.639c0.025,1.83-0.021,3.68-0.388,5.505c-0.134,0.922-0.447,1.807-0.719,2.704
			l-0.562,1.297c-0.184,0.435-0.463,0.827-0.693,1.242c-1.001,1.619-2.46,2.982-4.164,3.873c-1.714,0.88-3.615,1.302-5.501,1.405
			c-0.927,0.027-1.933,0.003-2.869-0.24c-0.951-0.191-1.843-0.557-2.699-0.967c-1.702-0.848-3.22-2.005-4.508-3.362
			c-2.559-2.71-4.417-6.152-4.859-9.862L74.181,226.008z"/>
	</g>
	<ellipse class="st10" cx="154.619" cy="187.612" rx="14.315" ry="18.891"/>
	<path class="st11" d="M165.321,199.236c0.332-0.554,0.775-1.031,1.214-1.504c-0.501,1.669-1.501,2.987-2.642,4.269
		c-2.365,2.657-5.658,4.501-9.275,4.501c-7.906,0-14.315-8.458-14.315-18.891c0-10.434,6.408-18.891,14.315-18.891
		c5.007,0,9.741,3.689,11.812,8.128c0.169,0.363,0.338,0.726,0.508,1.088c-0.94-1.338-1.986-2.582-3.092-3.784
		c-0.691-0.751-1.581-1.28-2.392-1.887c-0.395-0.296-0.676-0.343-1.114-0.5c-0.547-0.196-0.751-0.534-1.37-0.578
		c-0.496-0.035-1.038-0.189-1.549-0.248c-0.86-0.1-1.705-0.114-2.57-0.068c-0.845,0.044-1.703,0.117-2.491,0.426
		c-0.558,0.219-1.064,0.55-1.547,0.905c-2.75,2.027-4.834,4.944-5.86,8.201c-0.461,1.465-0.761,3.09-0.976,4.603
		c-0.252,1.771-0.151,3.58,0.176,5.334c0.284,1.525,0.737,3.013,1.275,4.466c0.456,1.23,0.823,2.818,1.603,3.885
		c0.221,0.302,0.471,0.583,0.721,0.862c2.017,2.255,4.261,4.31,7.396,4.705c0.627,0.079,1.106-0.092,1.691-0.214
		c0.652-0.135,1.338-0.101,1.997-0.249c1.295-0.29,2.531-0.84,3.607-1.616c0.557-0.401,1.069-0.861,1.579-1.319
		c0.324-0.29,0.651-0.584,0.897-0.943C165.07,199.699,165.186,199.463,165.321,199.236z"/>
	<path class="st11" d="M166.174,193.696c-0.521,1.485-1.793,2.565-3.192,3.202c-0.593,0.27-0.906,0.448-1.549,0.494
		c-0.66,0.047-1.329,0.14-1.966,0.032c-0.657-0.111-1.477-0.351-2.066-0.657c-0.969-0.502-1.776-1.651-2.336-2.555
		c-1.232-1.994-1.798-4.373-1.798-6.704c0-5.354,2.777-9.999,6.835-9.999c3.658,0,5.511,2.197,6.574,4.475
		c0.087,0.186,0.174,0.373,0.261,0.559c-0.483-0.686-1.019-1.325-1.587-1.942c-0.354-0.386-0.812-0.657-1.227-0.968
		c-0.202-0.152-0.347-0.177-0.572-0.257c-0.281-0.101-0.386-0.274-0.703-0.297c-0.254-0.018-0.533-0.097-0.795-0.128
		c-0.441-0.051-0.875-0.058-1.319-0.035c-0.434,0.023-0.874,0.06-1.279,0.218c-0.287,0.112-0.547,0.282-0.794,0.465
		c-1.31,0.966-2.336,1.897-2.994,3.444c-0.473,1.111-0.719,2.304-0.875,3.502c-0.084,0.654-0.142,1.318-0.057,1.971
		c0.068,0.519,0.223,1.023,0.389,1.518c0.441,1.316,0.969,2.623,1.8,3.736c0.295,0.395,0.625,0.764,0.987,1.099
		c0.568,0.526,1.221,0.975,1.955,1.223C162.201,196.883,164.704,195.434,166.174,193.696z"/>
	<path class="st12" d="M148.689,133.246c0.075,0.033,0.149,0.068,0.223,0.103c1.12,0.541,2.069,1.385,2.827,2.364
		c0.454,0.585,0.591,1.241,0.866,1.905c0.102,0.246,0.279,0.44,0.378,0.689c0.151,0.38,0.243,0.795,0.356,1.187
		c0.637,2.203,1.092,4.442,1.644,6.662c0.412,1.648,0.764,3.29,1.123,4.961c0.376,1.751,0.66,3.535,1.098,5.279
		c0.112,0.447,0.291,0.888,0.387,1.335c0.088,0.414,0.092,0.87,0.118,1.296c0.061,0.978,0.086,1.962,0.292,2.924
		c0.511,2.387,0.559,4.806,0.533,7.272c0,0.019-0.866-0.357-0.944-0.399c-0.346-0.191-0.575-0.24-0.976-0.271
		c-0.654-0.051-1.309-0.075-1.964-0.091c-0.489-0.012-1.043-0.097-1.524,0.006c-1.014,0.218-1.997,0.586-2.967,0.948
		c-0.744,0.277-1.169,0.998-1.944,1.228c-0.392-1.724,0.43-3.217,0.522-4.92c0.09-1.679,0.04-3.362-0.009-5.042
		c-0.08-2.785-0.038-5.561-0.112-8.346c-0.049-1.839-0.388-3.653-0.63-5.472c-0.117-0.878-0.149-1.742-0.409-2.585
		c-0.28-0.909-0.56-1.817-0.841-2.726c-0.389-1.262-0.781-2.532-1.37-3.718c-0.179-0.362-0.287-0.773-0.511-1.101
		c-0.214-0.313-0.442-0.635-0.674-0.935c-0.426-0.551-0.901-1.074-1.452-1.493c-0.829-0.632-1.764-1.169-2.783-1.419
		c-0.328-0.08-0.662-0.157-0.99-0.227c-0.625-0.132-1.303-0.353-1.937-0.412c0.358-0.412,0.845-0.811,1.405-0.878
		c0.533-0.064,1.017-0.25,1.56-0.314c0.8-0.096,1.512,0.102,2.292,0.21c0.77,0.106,1.705,0.338,2.421,0.639
		c0.69,0.29,1.415,0.461,2.15,0.666C147.464,132.744,148.1,132.987,148.689,133.246z"/>
	<g>
		<path d="M81.898,208.598c1.572-2.303,2.423-5.033,3.243-7.709c0.786-2.701,1.389-5.456,1.938-8.218
			c0.546-2.764,0.952-5.556,1.295-8.349c0.338-2.795,0.62-5.595,0.743-8.408l0.363-0.013c0.252,2.845,0.061,5.699-0.238,8.521
			c-0.311,2.825-0.783,5.627-1.343,8.41c-0.557,2.784-1.247,5.544-2.106,8.256c-0.429,1.356-0.905,2.7-1.492,4.002
			c-0.556,1.312-1.256,2.574-2.117,3.73L81.898,208.598z"/>
	</g>
	<g>
		<path d="M62.191,177.603c-0.841,2.484-1.226,5.088-1.463,7.696c-0.229,2.612-0.266,5.243-0.223,7.87
			c0.066,2.628,0.261,5.255,0.594,7.863c0.375,2.587,0.773,5.239,1.87,7.584l-0.312,0.188c-1.344-2.378-1.869-5.042-2.332-7.656
			c-0.457-2.628-0.671-5.289-0.768-7.951c-0.105-2.663-0.026-5.336,0.269-7.992c0.327-2.645,0.872-5.313,2.03-7.745L62.191,177.603z
			"/>
	</g>
	<g>
		<path d="M84.486,172.841c0.728,2.939,0.723,5.954,0.657,8.927c-0.121,2.979-0.382,5.952-0.866,8.893
			c-0.466,2.943-1.042,5.874-1.886,8.739c-0.821,2.864-1.874,5.695-3.415,8.263l-0.319-0.176c1.278-2.651,2.144-5.474,2.853-8.325
			c0.679-2.861,1.241-5.752,1.657-8.667c0.397-2.917,0.743-5.843,0.922-8.782c0.193-2.931,0.365-5.891,0.043-8.794L84.486,172.841z"
			/>
	</g>
	<g>
		<path d="M97.558,173.963c-0.392,2.697-0.722,5.392-0.929,8.099c-0.235,2.705-0.287,5.421-0.299,8.137
			c0.021,5.437,0.531,10.858,1.153,16.289l-0.361,0.052c-0.482-2.689-0.952-5.39-1.245-8.117c-0.325-2.723-0.492-5.466-0.545-8.213
			c-0.125-5.489,0.384-11.02,1.714-16.35L97.558,173.963z"/>
	</g>
	<g>
		<path d="M132.735,180.007c0.123,3.262-0.213,6.517-0.745,9.727c-0.539,3.213-1.343,6.382-2.393,9.471
			c-1.038,3.09-2.309,6.119-3.961,8.945c-1.628,2.827-3.639,5.483-6.156,7.575l-0.242-0.272c2.3-2.25,4.099-4.931,5.606-7.745
			c1.481-2.833,2.687-5.809,3.68-8.855c0.985-3.052,1.729-6.178,2.381-9.321c0.65-3.146,1.163-6.323,1.467-9.529L132.735,180.007z"
			/>
	</g>
	<g>
		<path d="M127.738,176.18c0.214,1.601,0.202,3.208,0.118,4.802c-0.087,1.594-0.21,3.188-0.427,4.768
			c-0.392,3.166-0.978,6.304-1.716,9.406c-0.736,3.102-1.598,6.184-2.774,9.163c-0.589,1.487-1.23,2.962-2.042,4.354
			c-0.803,1.384-1.754,2.745-3.092,3.709l-0.215-0.294c1.179-0.995,2.042-2.329,2.751-3.719c0.706-1.397,1.311-2.85,1.838-4.332
			c1.041-2.971,1.855-6.027,2.563-9.103c0.345-1.541,0.656-3.09,0.935-4.644c0.296-1.552,0.564-3.109,0.793-4.671
			c0.436-3.121,0.925-6.265,0.904-9.403L127.738,176.18z"/>
	</g>
	<g>
		<path d="M153.033,138.228c3.22,1.839,6.267,3.985,9.084,6.403c2.821,2.414,5.391,5.117,7.723,8.008
			c4.684,5.781,8.267,12.382,11.094,19.245l0.41,0.994l-1.014-0.382h-0.001l-12.189-4.99l0.184-0.308l0.001,0.001
			c2.405,2.153,4.495,4.605,6.377,7.211c1.868,2.615,3.487,5.415,4.785,8.365c1.292,2.952,2.257,6.055,2.807,9.242
			c0.564,3.184,0.673,6.446,0.41,9.674l-0.093,1.139l-0.768-0.867l0,0l-7.481-9.06l0.297-0.206v0.001
			c1.21,2.44,2.098,5.006,2.796,7.626c0.693,2.621,1.141,5.308,1.354,8.017c0.197,2.709,0.141,5.443-0.216,8.145
			c-0.35,2.703-1.017,5.365-1.947,7.933l-0.892-0.338c0.951-2.483,1.651-5.068,2.041-7.707c0.398-2.637,0.503-5.319,0.358-7.99
			c-0.161-2.67-0.554-5.329-1.191-7.933c-0.64-2.598-1.481-5.171-2.623-7.584v-0.001l-0.71-1.303l1.007,1.097l7.956,8.664v0.001
			l-0.861,0.272c0.307-3.139,0.253-6.322-0.249-9.444c-0.486-3.126-1.384-6.186-2.609-9.111c-1.231-2.924-2.783-5.715-4.59-8.332
			c-1.816-2.604-3.863-5.081-6.19-7.232l-0.001-0.001l-0.79-0.657l0.973,0.35l12.395,4.453h0.001l-0.605,0.612
			c-2.709-6.826-6.169-13.403-10.731-19.186c-2.271-2.892-4.781-5.602-7.547-8.03c-2.76-2.433-5.756-4.601-8.93-6.47
			L153.033,138.228z"/>
	</g>
	<g>
		<path d="M57.518,179.102c-2.047-2.491-3.459-5.477-4.244-8.62c-0.385-1.576-0.601-3.204-0.565-4.85
			c0.039-1.641,0.335-3.315,1.05-4.861l0.001-0.001l0.925-1.72l0.213,1.882c0.105,0.931,0.265,1.866,0.633,2.686
			c0.196,0.394,0.442,0.765,0.785,0.987c0.328,0.232,0.799,0.267,1.181,0.116h0.001l-0.09,0.165c-0.077-2.71,0.233-5.4,0.781-8.046
			c0.547-2.647,1.398-5.235,2.516-7.712l0.001-0.001l0.968-2.008l-0.06,2.216c-0.043,1.596-0.056,3.193,0.023,4.783
			c0.039,0.794,0.104,1.588,0.223,2.368c0.055,0.392,0.134,0.777,0.232,1.153c0.054,0.186,0.108,0.373,0.182,0.545
			c0.058,0.161,0.185,0.37,0.234,0.418l-0.001-0.001l-0.261,0.128c0.704-3.387,1.798-6.666,3.153-9.842
			c1.358-3.174,3.052-6.211,5.094-9.014c2.065-2.781,4.511-5.32,7.387-7.31c2.859-2.012,6.149-3.407,9.578-4.146h0.001l1.176-0.257
			l-0.564,1.058c-1.031,1.935-1.994,3.905-2.851,5.922c-0.43,1.008-0.832,2.027-1.189,3.062c-0.353,1.031-0.687,2.089-0.887,3.143
			v0.001l-0.328-0.128c3.026-3.9,6.868-7.047,10.994-9.688c4.15-2.618,8.686-4.614,13.4-5.981c4.722-1.342,9.614-2.092,14.523-2.218
			c4.909-0.148,9.827,0.246,14.663,1.083l1.168,0.203l-1.008,0.61c-1.514,0.916-3.017,1.851-4.475,2.848
			c-0.731,0.496-1.444,1.015-2.132,1.561c-0.342,0.275-0.681,0.555-0.992,0.856c-0.159,0.148-0.308,0.304-0.446,0.465
			c-0.07,0.08-0.134,0.162-0.19,0.245c-0.055,0.062-0.105,0.215-0.11,0.179v-0.001l-0.19-0.157c2.218-0.055,4.414,0.133,6.596,0.451
			c2.18,0.324,4.334,0.814,6.442,1.459l-0.108,0.348c-2.089-0.64-4.226-1.126-6.387-1.447c-2.159-0.315-4.354-0.502-6.524-0.448
			l-0.174,0.005l-0.016-0.162v-0.001c0.018-0.258,0.09-0.301,0.148-0.427c0.063-0.104,0.13-0.202,0.203-0.292
			c0.142-0.184,0.292-0.357,0.45-0.52c0.311-0.331,0.643-0.635,0.978-0.933c0.675-0.591,1.371-1.153,2.085-1.689
			c1.422-1.079,2.889-2.095,4.366-3.09l0.16,0.812c-4.776-0.87-9.635-1.303-14.487-1.2c-4.852,0.08-9.692,0.779-14.372,2.063
			c-4.672,1.31-9.176,3.243-13.309,5.799c-4.103,2.571-7.957,5.681-10.96,9.48l-0.414,0.524l0.086-0.652v-0.002
			c0.147-1.124,0.421-2.193,0.719-3.265c0.301-1.069,0.649-2.123,1.026-3.167c0.75-2.089,1.608-4.137,2.537-6.15l0.612,0.801h0.002
			c-3.296,0.649-6.473,1.923-9.271,3.815c-2.813,1.87-5.243,4.296-7.318,6.985c-2.053,2.711-3.781,5.676-5.182,8.791
			c-1.398,3.113-2.547,6.362-3.302,9.687l-0.055,0.244l-0.205-0.117l-0.005-0.003c-0.27-0.203-0.316-0.376-0.428-0.573
			c-0.095-0.191-0.166-0.387-0.236-0.583c-0.129-0.393-0.236-0.79-0.317-1.189c-0.172-0.798-0.288-1.602-0.377-2.407
			c-0.18-1.61-0.266-3.225-0.322-4.838l0.908,0.207v0.001c-1.174,2.365-2.1,4.865-2.734,7.445c-0.634,2.574-1.038,5.235-1.061,7.884
			l-0.001,0.117l-0.089,0.048l-0.002,0.001c-0.485,0.289-1.106,0.328-1.63,0.08c-0.526-0.24-0.9-0.67-1.202-1.106
			c-0.57-0.9-0.88-1.886-1.139-2.868l1.137,0.162v0.001c-0.686,1.324-1.035,2.838-1.137,4.372c-0.103,1.538,0.032,3.103,0.336,4.636
			c0.62,3.061,1.867,6.042,3.761,8.565L57.518,179.102z"/>
	</g>
	<g>
		<path d="M168.412,207.911c3.306,6.283,6.436,12.658,9.327,19.149c1.443,3.247,2.812,6.529,4.048,9.87
			c1.198,3.353,2.376,6.733,2.838,10.359c0.103,0.908,0.146,1.84-0.019,2.813c-0.16,1.001-0.633,1.861-1.164,2.635
			c-1.065,1.567-2.473,2.769-3.9,3.888c-1.442,1.108-2.969,2.075-4.536,2.961c-1.561,0.895-3.17,1.696-4.81,2.418
			c-3.268,1.471-6.637,2.694-10.07,3.678c-3.433,0.974-6.946,1.749-10.504,2c3.457-0.847,6.806-1.974,10.128-3.165
			c3.315-1.208,6.589-2.515,9.787-3.968c3.175-1.491,6.339-3.044,9.169-5.056c2.755-1.992,5.58-4.543,4.865-8.1
			c-0.355-3.439-1.442-6.849-2.554-10.19c-1.15-3.344-2.44-6.645-3.805-9.916c-2.735-6.54-5.719-12.982-8.879-19.334
			L168.412,207.911z"/>
	</g>
	<g>
		<path d="M149.62,228.516c2.398,2.5,4.592,5.19,6.797,7.861c2.193,2.684,4.35,5.393,6.485,8.127l0.459,0.587l-0.743,0.22
			l-0.002,0.001c-3.086,0.865-6.149,1.918-9.118,3.14c-2.956,1.24-5.879,2.642-8.414,4.526c-1.253,0.937-2.428,2.03-3.124,3.34
			c-0.188,0.326-0.292,0.659-0.412,1.017c-0.106,0.384-0.207,0.769-0.3,1.157c-0.184,0.777-0.353,1.558-0.491,2.346
			c-0.547,3.145-0.82,6.373-0.461,9.518c0.185,1.563,0.539,3.12,1.246,4.478c0.68,1.368,1.805,2.467,3.225,2.925
			c1.415,0.515,2.984,0.276,4.606,0.132c1.604-0.159,3.201-0.353,4.778-0.633c1.574-0.285,3.134-0.649,4.602-1.215
			c1.444-0.574,2.863-1.359,3.688-2.589c0.409-0.608,0.64-1.316,0.69-2.053c0.05-0.74-0.095-1.496-0.304-2.235
			c-0.441-1.483-1.182-2.901-1.947-4.324l0.299-0.208c1.077,1.233,1.972,2.66,2.502,4.272c0.251,0.808,0.41,1.668,0.36,2.551
			c-0.053,0.88-0.337,1.765-0.831,2.504c-1.007,1.495-2.585,2.335-4.111,2.955c-1.555,0.607-3.164,0.986-4.774,1.284
			c-1.612,0.293-3.232,0.496-4.851,0.663c-0.824,0.07-1.588,0.182-2.462,0.198c-0.851,0.014-1.728-0.064-2.56-0.357
			c-0.831-0.276-1.613-0.731-2.261-1.326c-0.654-0.593-1.149-1.321-1.55-2.074c-0.796-1.522-1.171-3.183-1.374-4.825
			c-0.387-3.301-0.116-6.602,0.431-9.831c0.138-0.808,0.308-1.612,0.494-2.412c0.094-0.399,0.196-0.798,0.305-1.196
			c0.132-0.411,0.276-0.853,0.492-1.232c0.829-1.564,2.109-2.727,3.426-3.728c2.677-1.985,5.664-3.378,8.675-4.631
			c3.028-1.23,6.107-2.274,9.264-3.142l0.002-0.001l-0.284,0.807c-1.989-2.827-4.009-5.639-6.061-8.424
			C153.942,233.921,151.89,231.132,149.62,228.516z"/>
	</g>
	<g>
		<path d="M158.484,239.749c-0.111-0.895-0.125-1.786-0.023-2.687c0.116-0.887,0.351-1.829,1.025-2.566
			c0.676-0.752,1.794-0.989,2.719-0.841c0.951,0.117,1.814,0.466,2.646,0.84l0.004,0.003l-0.766,0.531
			c0.027-1.191,0-2.38,0.358-3.537l0.337-0.84c0.175-0.251,0.321-0.522,0.529-0.745c0.423-0.448,0.985-0.768,1.592-0.866
			c1.23-0.212,2.396,0.309,3.384,0.925c0.989,0.656,1.821,1.52,2.541,2.479l-0.869,0.265v-0.003c0.027-1.149,0.083-2.3,0.234-3.446
			c0.083-0.571,0.19-1.144,0.37-1.704c0.181-0.551,0.438-1.128,0.95-1.517c0.261-0.183,0.582-0.276,0.896-0.273
			c0.313,0.017,0.604,0.108,0.874,0.232c0.533,0.261,0.981,0.635,1.396,1.03c0.825,0.803,1.538,1.697,2.09,2.737l-0.335,0.143
			c-0.424-1.005-1.134-1.926-1.923-2.706c-0.406-0.381-0.853-0.726-1.345-0.953c-0.248-0.106-0.506-0.178-0.762-0.187
			c-0.256,0.002-0.492,0.097-0.689,0.247c-0.386,0.327-0.598,0.847-0.733,1.37c-0.142,0.526-0.205,1.08-0.229,1.635
			c-0.061,1.111,0.02,2.232,0.144,3.346v0.003l-0.107,1.805l-0.762-1.54c-0.483-0.975-1.178-1.86-2.05-2.525
			c-0.851-0.658-1.949-1.146-3.004-0.962c-1.065,0.166-1.825,1.116-2.014,2.184c-0.213,1.071-0.073,2.193,0.166,3.263l0.194,0.868
			l-0.96-0.338l-0.004-0.001c-0.72-0.437-1.488-0.817-2.279-0.974c-0.782-0.177-1.604-0.078-2.158,0.476
			c-0.561,0.542-0.848,1.378-0.995,2.208c-0.149,0.839-0.162,1.72-0.08,2.57L158.484,239.749z"/>
	</g>
	<g>
		<path d="M63.101,227.736c0.049,1.751,0.644,3.463,1.412,5.049c0.77,1.595,1.733,3.097,2.803,4.514
			c2.142,2.837,4.682,5.363,7.431,7.612c2.754,2.249,5.744,4.2,8.877,5.869c3.139,1.661,6.434,3.013,9.823,4.049h0.001l-0.729,0.757
			l-2.163-7.282v-0.001l-0.24-0.656l0.538,0.463c1.975,1.702,4.314,3.004,6.69,4.11c2.393,1.097,4.896,1.939,7.439,2.613
			c1.279,0.311,2.557,0.624,3.858,0.831c1.289,0.266,2.6,0.402,3.904,0.571c1.305,0.168,2.623,0.208,3.934,0.319
			c1.315,0.046,2.632,0.052,3.947,0.08l0,0l-0.396,0.717l-1.995-3.708l-0.166-0.308l0.339,0.031
			c4.176,0.374,8.371,0.613,12.56,0.665c2.095,0.029,4.189,0.004,6.273-0.12c2.079-0.129,4.17-0.311,6.162-0.8l0.209,0.871
			c-2.106,0.468-4.223,0.602-6.334,0.69c-2.111,0.08-4.22,0.062-6.324-0.012c-4.209-0.141-8.402-0.47-12.585-0.933l0.174-0.277
			l2.478,3.404l0.522,0.717h-0.917l0,0c-1.333-0.052-2.665-0.082-3.996-0.154c-1.327-0.136-2.66-0.201-3.979-0.395
			c-1.319-0.194-2.642-0.356-3.945-0.649c-1.313-0.234-2.602-0.575-3.891-0.913c-2.563-0.73-5.081-1.628-7.486-2.782
			c-2.393-1.171-4.714-2.511-6.727-4.307l0.298-0.191v0.001l2.927,7.01l0.451,1.081l-1.18-0.323h-0.001
			c-3.441-1.124-6.773-2.565-9.934-4.315c-3.155-1.758-6.154-3.797-8.905-6.132c-2.747-2.336-5.275-4.945-7.395-7.868
			c-1.06-1.46-2.011-3.006-2.768-4.651c-0.754-1.637-1.338-3.403-1.356-5.247H63.101L63.101,227.736z"/>
	</g>
	<g>
		<path d="M73.578,244.282c-1.606,1.665-3.545,2.958-5.583,4.018c-1.022,0.529-2.078,0.996-3.176,1.374
			c-0.549,0.187-1.11,0.35-1.692,0.466c-0.589,0.092-1.177,0.223-1.9-0.01c-2.07-0.915-4.253-1.504-6.441-2.023
			c-1.096-0.245-2.202-0.444-3.305-0.549c-1.095-0.099-2.224-0.125-3.199,0.146c-0.481,0.137-0.897,0.368-1.112,0.691
			c-0.281,0.424-0.571,0.933-0.624,1.299c-0.02,0.183-0.003,0.266,0.101,0.451c0.105,0.182,0.31,0.437,0.469,0.746
			c0.338,0.636,0.382,1.379,0.305,1.996c-0.038,0.325-0.085,0.606-0.177,0.932c-0.084,0.34-0.25,0.657-0.435,0.948
			c-0.392,0.573-0.913,0.986-1.428,1.321c-1.043,0.653-2.112,1.074-3.077,1.589c-0.965,0.501-1.823,1.113-2.276,1.938
			c-0.465,0.803-0.497,1.88-0.282,2.848c0.509,1.994,1.901,3.84,3.376,5.449c1.511,1.613,3.244,3.035,5.122,4.196
			c1.876,1.143,3.932,2.058,6.04,2.32c1.049,0.122,2.098,0.063,3.06-0.238c0.248-0.058,0.465-0.187,0.701-0.274l0.739-0.381
			c0.497-0.252,0.989-0.522,1.478-0.805c1.963-1.107,3.896-2.3,5.809-3.518c3.818-2.453,7.623-4.944,11.352-7.539
			c3.684-2.638,7.52-5.157,10.801-8.245l0.273,0.24c-1.531,1.738-3.307,3.184-5.06,4.647c-1.769,1.444-3.57,2.847-5.411,4.196
			c-3.663,2.721-7.385,5.363-11.224,7.838c-1.914,1.247-3.846,2.466-5.836,3.617c-0.494,0.292-0.996,0.575-1.512,0.843
			c-0.259,0.136-0.503,0.276-0.774,0.409c-0.294,0.118-0.577,0.277-0.883,0.357c-1.209,0.4-2.485,0.454-3.692,0.302
			c-2.426-0.323-4.616-1.338-6.608-2.562c-1.988-1.246-3.796-2.747-5.388-4.466c-0.793-0.862-1.531-1.78-2.176-2.778
			c-0.643-0.996-1.198-2.08-1.494-3.311c-0.135-0.632-0.186-1.259-0.133-1.903c0.053-0.644,0.237-1.306,0.569-1.888
			c0.67-1.187,1.79-1.913,2.827-2.449c2.035-1.066,4.503-1.655,4.542-3.775c0.068-0.505,0.035-0.952-0.158-1.334
			c-0.095-0.202-0.248-0.395-0.429-0.705c-0.191-0.302-0.303-0.806-0.223-1.187c0.155-0.761,0.501-1.238,0.84-1.757
			c0.447-0.623,1.117-0.926,1.722-1.089c1.236-0.313,2.427-0.24,3.589-0.122c1.161,0.13,2.297,0.356,3.418,0.626
			c2.23,0.557,4.446,1.245,6.518,2.223c0.363,0.142,0.955,0.096,1.475,0.011c0.537-0.092,1.076-0.232,1.609-0.397
			c1.065-0.334,2.11-0.761,3.123-1.251c2.017-0.989,3.973-2.176,5.589-3.739L73.578,244.282z"/>
	</g>
	<g>
		<path d="M108.235,255.787c2.522,2.715,4.991,5.511,7.104,8.59c2.112,3.068,3.893,6.423,4.929,10.057
			c1.049,3.621,1.269,7.518,0.546,11.252c-0.353,1.867-0.92,3.69-1.644,5.444c-0.747,1.744-1.653,3.411-2.651,5.019l-0.215,0.346
			h-0.425h-0.001c-4.221-0.066-8.239-1.042-12.209-1.977c-3.967-0.945-7.898-2.034-11.869-2.545c-1.969-0.23-4-0.332-5.798,0.215
			c-0.889,0.277-1.681,0.751-2.242,1.441c-0.535,0.718-1.072,1.635-1.503,2.502c-1.761,3.526-2.54,7.643-1.825,11.516
			c0.185,0.959,0.479,1.901,0.938,2.719c0.228,0.405,0.507,0.78,0.833,1.036c0.165,0.118,0.333,0.23,0.506,0.273
			c0.085,0.036,0.171,0.038,0.257,0.048c0.086,0.012,0.244,0.006,0.362,0.01l6.113,0.092l12.22,0.178l12.219,0.128
			c4.068,0.005,8.157,0.089,12.203-0.094l0.032,0.362c-4.092,0.243-8.157,0.215-12.235,0.269l-12.224,0.045l-12.223-0.005
			l-6.108-0.005c-0.136-0.003-0.233,0.007-0.401-0.006c-0.168-0.012-0.337-0.028-0.492-0.083c-0.323-0.085-0.591-0.256-0.837-0.435
			c-0.48-0.373-0.817-0.837-1.094-1.31c-0.549-0.956-0.873-1.983-1.086-3.018c-0.81-4.158-0.027-8.477,1.793-12.236
			c0.471-0.957,0.946-1.821,1.617-2.742c0.719-0.907,1.751-1.522,2.797-1.856c2.123-0.658,4.269-0.536,6.324-0.326
			c4.125,0.492,8.081,1.554,12.044,2.454c3.95,0.895,7.936,1.802,11.886,1.82h0.001l-0.64,0.346
			c0.997-1.516,1.905-3.088,2.662-4.733c0.732-1.653,1.317-3.371,1.699-5.136c0.78-3.528,0.673-7.238-0.246-10.76
			c-0.907-3.532-2.556-6.86-4.56-9.94c-2.004-3.091-4.381-5.934-6.829-8.71L108.235,255.787z"/>
	</g>
	<g>
		<path d="M124.364,260.474c0.724,1.038,1.397,2.117,1.972,3.253c0.583,1.134,1.007,2.344,1.369,3.569
			c0.675,2.468,0.965,5.024,1.1,7.568c0.251,5.098-0.03,10.187-0.371,15.254l-1.652-0.164c0.614-5.009,1.166-10.037,1.193-15.07
			c0.004-2.513-0.143-5.032-0.672-7.489c-0.289-1.219-0.64-2.431-1.155-3.582C125.642,262.661,125.03,261.55,124.364,260.474z"/>
	</g>
	<g>
		<path d="M147.801,278.547c0.055,1.352,0.135,2.707,0.421,4.02c0.282,1.309,0.733,2.577,1.426,3.7
			c0.681,1.133,1.617,2.081,2.638,2.95c1.019,0.872,2.119,1.69,3.158,2.614l-0.669,0.724c-0.965-0.927-2.024-1.78-3.041-2.719
			c-1.016-0.933-1.984-1.988-2.666-3.226c-0.694-1.228-1.115-2.583-1.355-3.945c-0.244-1.367-0.272-2.747-0.275-4.118H147.801
			L147.801,278.547z"/>
	</g>
	<g>
		<path d="M134.96,290.092c-2.419-0.158-4.891-0.138-7.038,0.649c-1.062,0.406-1.999,1.044-2.72,1.907
			c-0.72,0.861-1.25,1.91-1.604,3.04c-0.366,1.126-0.582,2.316-0.735,3.525c-0.154,1.24-0.319,2.473-0.448,3.698
			c-0.126,1.224-0.222,2.447-0.178,3.638c0.044,1.183,0.237,2.363,0.811,3.263c0.554,0.914,1.551,1.438,2.675,1.655
			c0.565,0.107,1.149,0.143,1.748,0.153l1.869,0.011l7.476,0.043l14.953,0.039l7.476,0.019l3.739,0.01l0.935,0.003h0.117
			c0.015-0.004,0.018-0.006,0.027-0.004c0.018-0.006,0.041-0.013,0.07-0.031c0.06-0.037,0.137-0.107,0.21-0.2
			c0.297-0.39,0.505-0.969,0.665-1.531c0.602-2.318,0.669-4.825,0.45-7.243c-0.25-2.404-0.818-4.863-2.164-6.777
			c-0.669-0.946-1.574-1.687-2.633-2.019c-1.133-0.312-2.379-0.584-3.581-0.828c-2.43-0.49-4.881-0.906-7.335-1.289
			C144.837,291.071,139.898,290.445,134.96,290.092z M135.08,288.531c5.002,0.441,9.95,1.153,14.88,1.992
			c2.464,0.426,4.921,0.886,7.369,1.421c1.234,0.277,2.423,0.541,3.69,0.904c1.329,0.429,2.432,1.375,3.184,2.466
			c1.512,2.217,2.046,4.809,2.292,7.326c0.198,2.537,0.118,5.093-0.556,7.602c-0.193,0.625-0.394,1.252-0.854,1.86
			c-0.123,0.15-0.271,0.301-0.479,0.424c-0.105,0.061-0.228,0.109-0.363,0.138c-0.068,0.009-0.142,0.017-0.205,0.019h-0.117
			l-0.935,0.003l-3.739,0.01l-7.476,0.019l-14.953,0.039l-7.476,0.043l-1.869,0.011c-0.647-0.003-1.31-0.035-1.973-0.154
			c-0.662-0.126-1.331-0.336-1.949-0.692c-0.62-0.35-1.162-0.872-1.55-1.471c-0.782-1.218-0.982-2.599-1.051-3.886
			c-0.062-1.301,0.028-2.571,0.142-3.826c0.118-1.255,0.27-2.495,0.41-3.729c0.146-1.263,0.359-2.54,0.749-3.79
			c0.38-1.247,0.952-2.488,1.816-3.555c0.858-1.071,2.033-1.899,3.29-2.402C129.901,288.302,132.56,288.351,135.08,288.531z"/>
	</g>
	<g>
		<path d="M169.245,187.509c-0.006,4.385-1.061,8.84-3.448,12.586c-1.192,1.861-2.728,3.532-4.598,4.758
			c-1.86,1.228-4.074,1.976-6.334,1.995c-2.259,0-4.487-0.727-6.367-1.944c-1.89-1.214-3.451-2.881-4.667-4.742
			c-2.436-3.747-3.549-8.226-3.585-12.652c0.048-4.426,1.153-8.902,3.591-12.649c1.217-1.861,2.777-3.526,4.666-4.74
			c1.879-1.215,4.106-1.945,6.363-1.941c2.258,0.02,4.47,0.767,6.329,1.994c1.869,1.225,3.404,2.894,4.596,4.755
			C168.181,178.671,169.224,183.124,169.245,187.509z M168.877,187.509c-0.043-4.324-1.151-8.688-3.516-12.302
			c-1.181-1.796-2.687-3.388-4.488-4.538c-1.791-1.151-3.888-1.825-6.008-1.82c-2.12,0.02-4.202,0.71-5.974,1.874
			c-1.779,1.161-3.262,2.758-4.417,4.552c-2.317,3.612-3.363,7.952-3.381,12.234c0.029,4.282,1.066,8.62,3.385,12.231
			c1.155,1.794,2.636,3.391,4.416,4.55c1.771,1.161,3.851,1.854,5.97,1.871c2.119,0.003,4.213-0.669,6.003-1.82
			c1.799-1.148,3.305-2.74,4.485-4.534C167.721,196.193,168.818,191.831,168.877,187.509z"/>
	</g>
	<g>
		<path d="M169.11,187.509c-0.011,3.87-0.947,7.798-3.056,11.098c-1.053,1.639-2.409,3.109-4.057,4.187
			c-1.64,1.079-3.589,1.734-5.576,1.75c-1.987,0.003-3.949-0.634-5.606-1.703c-1.665-1.067-3.044-2.534-4.12-4.173
			c-2.155-3.301-3.136-7.251-3.184-11.158c0.048-3.907,1.029-7.857,3.184-11.158c1.075-1.64,2.453-3.106,4.12-4.173
			c1.657-1.069,3.618-1.706,5.606-1.703c1.987,0.016,3.937,0.67,5.576,1.75c1.648,1.077,3.004,2.548,4.057,4.187
			C168.163,179.71,169.099,183.639,169.11,187.509z M168.788,187.509c-0.046-3.815-1.01-7.668-3.096-10.863
			c-1.04-1.587-2.37-2.996-3.96-4.013c-1.582-1.02-3.435-1.618-5.313-1.616c-1.877,0.017-3.717,0.633-5.282,1.663
			c-1.572,1.028-2.879,2.441-3.897,4.027c-2.042,3.193-2.958,7.024-2.968,10.803c0.01,3.778,0.927,7.61,2.968,10.803
			c1.018,1.586,2.326,3,3.897,4.027c1.565,1.03,3.405,1.646,5.282,1.663c1.877,0.002,3.729-0.597,5.313-1.616
			c1.59-1.017,2.918-2.426,3.96-4.013C167.778,195.176,168.742,191.324,168.788,187.509z"/>
	</g>
	<g>
		<path d="M168.056,187.509c0.017,2.309-0.518,4.664-1.765,6.659c-0.623,0.991-1.431,1.886-2.423,2.548
			c-0.986,0.663-2.169,1.075-3.385,1.094c-1.214,0.011-2.418-0.371-3.434-1.016c-1.021-0.645-1.872-1.53-2.521-2.529
			c-1.304-2.006-1.906-4.395-1.918-6.756c0.029-2.359,0.616-4.749,1.927-6.75c0.659-0.99,1.503-1.875,2.523-2.519
			c1.014-0.644,2.214-1.026,3.424-1.012c1.21,0.02,2.39,0.43,3.373,1.09c0.989,0.66,1.795,1.553,2.417,2.541
			C167.528,182.85,168.039,185.202,168.056,187.509z M167.858,187.509c-0.018-2.278-0.639-4.567-1.888-6.45
			c-1.223-1.872-3.262-3.305-5.486-3.268c-2.222,0.032-4.18,1.503-5.329,3.369c-1.192,1.873-1.738,4.124-1.743,6.349
			c0.022,2.223,0.553,4.476,1.751,6.343c1.163,1.851,3.103,3.327,5.321,3.354c2.213,0.037,4.247-1.389,5.47-3.257
			C167.209,192.069,167.808,189.783,167.858,187.509z"/>
	</g>
	<g>
		<path d="M167.985,187.509c0.006,2.037-0.473,4.112-1.579,5.863c-1.071,1.732-2.94,3.158-5.103,3.177
			c-2.163,0.014-4.076-1.388-5.186-3.124c-1.143-1.752-1.675-3.846-1.689-5.916c0.028-2.07,0.549-4.162,1.694-5.914
			c1.11-1.733,3.02-3.137,5.18-3.117c2.159,0.022,4.025,1.443,5.095,3.173C167.506,183.399,167.974,185.472,167.985,187.509z
			 M167.812,187.509c-0.019-2.009-0.551-4.033-1.652-5.703c-1.075-1.659-2.876-2.941-4.857-2.916
			c-1.979,0.017-3.736,1.315-4.771,2.971c-1.064,1.667-1.542,3.671-1.544,5.647c0.016,1.974,0.484,3.977,1.55,5.644
			c1.035,1.654,2.789,2.955,4.765,2.966c1.975,0.022,3.775-1.254,4.848-2.912C167.255,191.539,167.775,189.516,167.812,187.509z"/>
	</g>
	<g>
		<path d="M147.618,170.693c0.289-3.281,0.434-6.589,0.481-9.889c0.055-3.302-0.009-6.606-0.264-9.894
			c-0.265-3.282-0.699-6.564-1.596-9.713c-0.46-1.566-1.043-3.102-1.876-4.481c-0.85-1.366-1.968-2.529-3.417-3.24l0.118-0.344
			c1.694,0.437,3.03,1.764,3.924,3.194c0.905,1.452,1.529,3.036,2.026,4.64c0.967,3.223,1.452,6.545,1.769,9.863
			c0.598,6.649,0.507,13.32-0.025,19.967L147.618,170.693z"/>
	</g>
	<g>
		<path d="M136.688,132.158c0.364-0.429,0.838-0.756,1.355-0.964c0.522-0.2,1.069-0.277,1.612-0.317
			c1.087-0.038,2.156,0.117,3.198,0.34c1.041,0.227,2.061,0.512,3.077,0.8c1.029,0.29,2.042,0.67,3.001,1.177
			c0.956,0.509,1.856,1.163,2.595,1.984c0.73,0.827,1.298,1.796,1.69,2.808c0.406,1.01,0.678,2.046,0.953,3.063l0.795,3.067
			c1.023,4.098,1.983,8.21,2.802,12.36c0.419,2.073,0.778,4.161,1.091,6.263c0.137,1.056,0.278,2.112,0.352,3.188
			c0.086,1.073,0.111,2.165-0.035,3.335l-1.437-0.273c0.129-0.923,0.143-1.946,0.079-2.975c-0.049-1.029-0.166-2.066-0.277-3.102
			c-0.264-2.073-0.576-4.148-0.949-6.216c-0.726-4.138-1.598-8.259-2.53-12.362l-0.727-3.069c-0.253-1.021-0.498-2.034-0.861-2.99
			c-0.349-0.961-0.848-1.846-1.496-2.615c-0.657-0.762-1.472-1.385-2.365-1.884c-0.894-0.498-1.858-0.883-2.85-1.186
			c-1.006-0.307-2.012-0.611-3.025-0.855c-1.013-0.239-2.041-0.419-3.065-0.41c-0.508,0.024-1.014,0.082-1.486,0.249
			c-0.466,0.174-0.885,0.448-1.218,0.815L136.688,132.158z"/>
	</g>
	<ellipse class="st13" cx="64.158" cy="188.514" rx="2.135" ry="7.698"/>
	<ellipse class="st14" cx="67.361" cy="198.055" rx="1.067" ry="3.85"/>
	<ellipse class="st15" cx="101.416" cy="185.668" rx="2.767" ry="7.698"/>
	<ellipse class="st16" cx="105.565" cy="195.21" rx="1.383" ry="3.85"/>
	<g>
		<path class="st17" d="M51.456,193.229c4.472-8.779,17.427-32.514,37.835-17.062c1.579-18.308-20.833-22.722-32.829-5.992
			c4.419,0.632,4.419,0.632,4.419,0.632S53.621,172.701,51.456,193.229z"/>
		<g>
			<path d="M51.528,192.986c0.065-0.263,0.024-0.475,0.073-0.621c0.039-0.129,0.203-0.427,0.301-0.638l0.695-1.378
				c0.476-0.913,0.962-1.821,1.473-2.716c1.012-1.797,2.129-3.537,3.334-5.219c2.407-3.354,5.255-6.486,8.783-8.792
				c1.758-1.147,3.691-2.068,5.746-2.608c2.057-0.533,4.222-0.646,6.32-0.361c2.106,0.269,4.115,0.984,5.992,1.893l1.384,0.731
				c0.448,0.265,0.876,0.563,1.314,0.842c0.891,0.537,1.673,1.226,2.5,1.844l0.002,0.002l-0.406,0.18
				c0.181-3.838-0.655-7.794-3.02-10.741c-2.358-2.916-5.966-4.705-9.726-4.949c-3.755-0.309-7.584,0.618-10.932,2.424
				c-3.397,1.756-6.27,4.428-8.691,7.444l0,0l-0.17-0.399l4.463,0.325l0,0h3.554l-3.491,1.102c-0.334,0.105-0.811,0.376-1.183,0.66
				c-0.398,0.281-0.762,0.625-1.115,0.977c-0.344,0.365-0.683,0.737-0.98,1.152c-0.324,0.391-0.591,0.828-0.867,1.258
				c-1.081,1.741-1.899,3.656-2.585,5.617c-0.313,0.99-0.628,1.984-0.891,2.992c-0.23,1.017-0.521,2.021-0.703,3.051
				c-0.181,1.009-0.412,2.095-0.552,3.043C52.016,191.027,51.731,191.932,51.528,192.986z M51.384,193.472
				c0.061-1.029,0.043-2.208,0.178-3.367c0.128-1.135,0.326-2.108,0.486-3.172c0.158-1.044,0.427-2.07,0.636-3.105
				c0.242-1.029,0.538-2.048,0.832-3.067c0.652-2.02,1.441-4.011,2.532-5.869c0.28-0.461,0.551-0.927,0.887-1.356
				c0.306-0.449,0.663-0.863,1.03-1.271c0.379-0.398,0.772-0.788,1.224-1.125c0.461-0.348,0.885-0.649,1.549-0.879l0.063,1.102l0,0
				l-4.375-0.938l-0.438-0.094l0.268-0.305l0,0c1.088-1.645,2.358-3.176,3.776-4.57c1.428-1.383,3.041-2.586,4.774-3.584
				c3.479-1.955,7.543-3.051,11.596-2.689c4.022,0.324,8.032,2.259,10.473,5.56c1.223,1.63,2.035,3.538,2.453,5.499
				c0.405,1.968,0.455,3.983,0.215,5.946l-0.055,0.449l-0.351-0.268l-0.002-0.002c-1.705-1.116-3.432-2.188-5.28-2.991
				c-1.843-0.804-3.777-1.364-5.743-1.613c-3.951-0.503-7.957,0.649-11.304,2.82c-3.368,2.175-6.174,5.179-8.633,8.398
				c-1.229,1.618-2.352,3.32-3.434,5.048c-0.54,0.866-1.058,1.746-1.566,2.632L52.425,192l-0.411,0.726
				C51.827,193.036,51.553,193.279,51.384,193.472z"/>
		</g>
	</g>
	<g>
		<path class="st18" d="M84.098,209.692c-3.525-1.17-8.249-3.368-13.261-3.105c-9.446,0.494-14.731,7.134-18.515,14.01
			c-3.641,6.615-14.516,5.329-14.516,5.329s13.649,11.882,23.024,3.771c5.339-4.619,8.009-4.806,13.034-3.641
			c5.025,1.165,5.45,2.551,9.936,3.165c4.761,0.652,15.389-5.742,20.341-4.575c7.491,1.765,17.549,13.162,39.364,4.77
			c-28.19-8.532-19.657-15.676-31.506-21.32C98.23,201.538,90.919,211.956,84.098,209.692z"/>
		<path d="M83.868,210.385c-2.183-0.748-4.259-1.598-6.399-2.204c-2.13-0.608-4.316-1.008-6.486-0.912
			c-2.188,0.093-4.36,0.546-6.362,1.418c-2.007,0.863-3.835,2.12-5.446,3.624c-1.618,1.501-3.025,3.241-4.275,5.093
			c-0.626,0.926-1.217,1.879-1.779,2.852c-0.273,0.472-0.562,1.008-0.929,1.49c-0.348,0.492-0.771,0.922-1.203,1.334
			c-1.793,1.613-4.085,2.434-6.341,2.843c-2.276,0.401-4.579,0.451-6.861,0.191h-0.002l0.146-0.329
			c1.8,1.459,3.778,2.727,5.84,3.787c2.066,1.049,4.247,1.9,6.509,2.302c2.252,0.4,4.591,0.345,6.716-0.417
			c1.056-0.39,2.042-0.952,2.935-1.636c0.436-0.34,0.884-0.719,1.335-1.112c0.453-0.382,0.916-0.756,1.395-1.113
			c0.952-0.719,1.972-1.38,3.098-1.879c1.123-0.503,2.37-0.786,3.606-0.816c1.239-0.038,2.448,0.139,3.615,0.372
			c1.162,0.235,2.327,0.519,3.469,0.895c1.142,0.375,2.247,0.876,3.299,1.329c1.051,0.449,2.112,0.769,3.229,0.967
			c2.146,0.515,4.366-0.206,6.579-0.868c2.208-0.705,4.397-1.54,6.641-2.272c1.124-0.364,2.257-0.713,3.429-0.977
			c1.169-0.263,2.376-0.468,3.645-0.396c1.329,0.097,2.427,0.571,3.543,1.022c1.1,0.473,2.156,1.001,3.198,1.541
			c2.082,1.081,4.147,2.141,6.291,3.017c4.273,1.773,8.892,2.682,13.526,2.525c4.638-0.117,9.226-1.215,13.605-2.813l0.003-0.001
			l0.013,0.356c-5.425-1.593-10.86-3.36-15.834-6.229c-2.467-1.443-4.773-3.288-6.574-5.564c-1.816-2.265-3.13-4.777-5.214-6.525
			c-1.026-0.885-2.188-1.609-3.407-2.241c-1.222-0.63-2.504-1.164-3.813-1.567c-2.615-0.829-5.382-1.102-8.09-0.726
			c-2.72,0.35-5.323,1.328-7.955,2.361c-1.326,0.504-2.668,1.032-4.124,1.36C87.002,210.807,85.381,210.876,83.868,210.385z
			 M84.327,209c1.191,0.389,2.497,0.364,3.803,0.063c1.308-0.285,2.613-0.783,3.929-1.277c2.626-1.014,5.372-2.038,8.284-2.396
			c2.902-0.39,5.896-0.075,8.663,0.821c1.39,0.438,2.726,1.003,4.013,1.677c1.29,0.669,2.522,1.488,3.624,2.467
			c1.098,0.985,2.031,2.142,2.838,3.324c0.814,1.183,1.556,2.366,2.406,3.457c1.676,2.197,3.827,3.991,6.208,5.444
			c4.755,2.947,10.111,4.9,15.463,6.657l0.526,0.173l-0.513,0.183l-0.003,0.001c-4.363,1.726-8.973,2.967-13.71,3.216
			c-4.734,0.285-9.522-0.618-13.925-2.357c-2.206-0.863-4.329-1.913-6.419-2.958c-1.049-0.516-2.086-1.04-3.141-1.485
			c-1.041-0.424-2.154-0.862-3.176-0.916c-1.074-0.057-2.203,0.129-3.311,0.387c-1.112,0.257-2.218,0.603-3.319,0.967
			c-2.205,0.733-4.389,1.58-6.639,2.313c-1.126,0.364-2.272,0.7-3.467,0.929c-0.598,0.111-1.213,0.192-1.851,0.199
			c-0.314,0.006-0.654-0.022-0.967-0.063c-0.298-0.05-0.596-0.089-0.892-0.148c-1.188-0.216-2.379-0.588-3.478-1.069
			c-1.094-0.481-2.122-0.956-3.204-1.321c-1.08-0.365-2.193-0.645-3.323-0.883c-1.124-0.234-2.249-0.402-3.354-0.376
			c-2.217,0.016-4.297,1.012-6.147,2.371c-0.955,0.667-1.778,1.406-2.76,2.155c-0.974,0.724-2.052,1.318-3.201,1.723
			c-2.313,0.797-4.815,0.806-7.147,0.318c-2.346-0.48-4.553-1.412-6.629-2.532c-2.073-1.136-4.028-2.459-5.828-3.995l-0.472-0.402
			l0.617,0.073h0.002c2.231,0.148,4.507-0.01,6.676-0.502c2.164-0.491,4.246-1.405,5.818-2.874c0.375-0.381,0.743-0.771,1.038-1.215
			c0.31-0.429,0.548-0.902,0.833-1.415c0.553-1.001,1.137-1.988,1.763-2.953c1.247-1.929,2.671-3.769,4.348-5.388
			c1.667-1.625,3.634-2.972,5.786-3.922c2.153-0.954,4.491-1.456,6.829-1.57c2.371-0.119,4.709,0.301,6.932,0.92
			C80.083,207.437,82.217,208.294,84.327,209z"/>
	</g>
	<g>
		<path class="st10" d="M150.333,204.214c-0.829,0.829-29.332,31.36-29.332,31.36L94.67,239.89l-1.072,2.48l28.092-4.562
			c0,0,30.139-31.671,30.809-32.341C153.168,204.797,151.163,203.384,150.333,204.214z"/>
		<path d="M150.56,204.441l-29.371,31.308l-0.06,0.065l-0.086,0.014l0,0l-26.352,4.179l0.09-0.07v0.001l-1.13,2.454l-0.059-0.077
			h0.001l28.053-4.796l-0.165,0.087l0.001-0.001l16.52-17.363l8.26-8.681l4.13-4.341l1.033-1.085l0.516-0.543
			c0.154-0.169,0.412-0.413,0.372-0.417c0.023-0.053-0.054-0.24-0.199-0.379c-0.14-0.145-0.322-0.272-0.513-0.363
			C151.214,204.244,150.765,204.219,150.56,204.441z M150.106,203.986c0.247-0.251,0.608-0.356,0.915-0.347
			c0.312,0.008,0.596,0.092,0.853,0.215c0.258,0.124,0.494,0.286,0.701,0.499c0.19,0.212,0.428,0.494,0.363,0.95
			c-0.028,0.219-0.231,0.412-0.289,0.47l-0.258,0.271l-0.517,0.542l-1.034,1.084l-4.134,4.334l-8.267,8.668l-16.535,17.337
			l-0.001,0.001l-0.07,0.073l-0.095,0.015l-28.129,4.327h-0.001l-0.098,0.019l0.039-0.095l1.014-2.505v-0.001l0.025-0.059
			l0.065-0.011l26.308-4.453l0,0l-0.146,0.079L150.106,203.986z"/>
	</g>
	<g>
		
			<ellipse transform="matrix(0.9965 -0.0834 0.0834 0.9965 -19.6801 8.6855)" class="st12" cx="94.119" cy="239.901" rx="9.563" ry="7.903"/>
		<path d="M104.009,239.063c0.261,2.43-0.892,4.854-2.667,6.456c-1.774,1.64-4.122,2.568-6.504,2.774
			c-2.384,0.182-4.845-0.348-6.879-1.647c-2.03-1.271-3.571-3.483-3.724-5.928c-0.178-2.448,1.05-4.79,2.835-6.298
			c1.777-1.554,4.073-2.41,6.389-2.593c2.316-0.17,4.703,0.301,6.716,1.518C102.179,234.532,103.776,236.628,104.009,239.063z
			 M103.32,239.12c-0.129-2.191-1.51-4.194-3.385-5.393c-1.877-1.228-4.204-1.715-6.444-1.525c-2.239,0.22-4.43,1.091-6.082,2.597
			c-1.643,1.491-2.669,3.684-2.435,5.858c0.209,2.181,1.645,4.066,3.494,5.183c1.856,1.146,4.108,1.574,6.283,1.396
			c2.172-0.196,4.313-0.997,5.967-2.415C102.371,243.424,103.472,241.311,103.32,239.12z"/>
	</g>
	<g>
		<path class="st17" d="M142.548,190.077c-11.987-11.391-26.038-31.838-45.45-15.199c0-17.256,19.643-30.814,40.828-4.214
			c-3.081-0.616-5.547,1.849-5.547,1.849S137.981,177.343,142.548,190.077z"/>
		<path d="M142.655,190.242c-0.448-0.324-1.076-0.761-1.494-1.197l-1.235-1.192l-2.438-2.411c-1.623-1.607-3.221-3.235-4.86-4.813
			c-3.285-3.139-6.713-6.169-10.604-8.439c-1.945-1.123-4.014-2.029-6.176-2.554c-2.159-0.52-4.404-0.678-6.604-0.366
			c-2.199,0.313-4.335,1.055-6.338,2.069c-1.994,1.035-3.888,2.286-5.679,3.687l-0.001,0.001l-0.311,0.233l-0.013-0.382
			c-0.169-4.828,1.269-9.838,4.417-13.682c3.083-3.866,8.053-6.29,13.052-6.119c2.489,0.057,4.932,0.635,7.211,1.544
			c2.284,0.907,4.427,2.132,6.369,3.598c3.931,2.881,7.237,6.481,10.129,10.323l0.302,0.401l-0.494-0.087l0,0
			c-0.484-0.049-0.968-0.076-1.443,0.011c-0.473,0.076-0.939,0.201-1.377,0.397c-0.44,0.19-0.86,0.424-1.253,0.697
			c-0.387,0.27-0.774,0.591-1.073,0.908l-0.003,0.003l-0.028-0.743c1.301,1.253,2.32,2.616,3.313,4.036
			c0.977,1.421,1.849,2.904,2.661,4.416c0.816,1.51,1.532,3.069,2.212,4.639c0.34,0.785,0.641,1.587,0.963,2.379
			C142.2,188.445,142.431,189.441,142.655,190.242z M142.441,189.913c-0.381-0.793-0.743-1.396-1.017-2.14
			c-0.344-0.777-0.666-1.563-1.027-2.331c-0.721-1.536-1.477-3.056-2.327-4.521c-0.846-1.467-1.75-2.899-2.746-4.258
			c-0.996-1.343-2.084-2.685-3.275-3.764l-0.425-0.386l0.398-0.359l0.006-0.005c0.436-0.375,0.866-0.656,1.336-0.919
			c0.466-0.257,0.957-0.469,1.465-0.627c0.506-0.165,1.037-0.252,1.566-0.28c0.531-0.041,1.061,0.043,1.572,0.149l0,0l-0.192,0.314
			c-1.59-1.791-3.168-3.589-4.922-5.205c-1.705-1.664-3.553-3.172-5.492-4.527c-3.872-2.67-8.342-4.676-13.005-4.737
			c-4.632-0.104-9.212,1.988-12.183,5.591c-1.54,1.746-2.714,3.82-3.503,6.034c-0.82,2.206-1.259,4.557-1.371,6.936l-0.324-0.149
			l0.001-0.001c1.711-1.527,3.529-2.969,5.564-4.09c2.017-1.142,4.241-1.983,6.567-2.324c2.32-0.359,4.718-0.235,6.986,0.346
			c2.274,0.568,4.422,1.529,6.42,2.698c4.01,2.351,7.437,5.48,10.671,8.709c1.62,1.619,3.198,3.274,4.755,4.943l2.352,2.487
			l1.189,1.228C141.873,189.09,142.07,189.441,142.441,189.913z"/>
	</g>
	<g>
		<path d="M77.364,234.01c2.798-2.967,6.697-4.609,10.612-5.113c3.944-0.516,7.942,0.05,11.667,1.265l-0.195,0.608
			c-3.675-1.112-7.574-1.569-11.347-0.991c-3.749,0.563-7.385,2.22-9.892,5.001L77.364,234.01z"/>
	</g>
	<g>
		<path class="st19" d="M176.33,224.445c0,0,5.235-18.435-1.301-30.346c4.755,4.65,7.183,7.544,7.183,7.544
			s2.709-17.277-13.553-33.781c4.991,1.266,12.133,4.253,12.133,4.253s-6.899-21.642-27.524-33.456
			c-0.653-0.686-0.885-1.626-1.325-2.436c-0.436-0.802-1.107-1.309-1.797-1.966c-0.283-0.27-0.57-0.542-0.903-0.745
			c-0.395-0.242-0.842-0.381-1.285-0.518c-0.708-0.219-1.566-0.351-2.205-0.719c5.988,3.443,9.487,22.616,8.867,36.445
			c0.676,0,2.692,1.923,2.692,1.923l1.503,7.119l2.488,0.921c0,0,5.568,8.487,0.872,17.529c-2.709,1.212-2.709,1.212-2.709,1.212
			l-2.032,6.535l-2.569,2.542l-3.02-0.356l-1.283,1.343l3.06,0.828l-22.454,24.149c-1.107-0.216-1.84,0.243-4.393,0
			c-0.422,0.612-0.925,0.972-1.615,1.696c1.431,0.355,2.701,0.355,4.04,0.29l-6.542,7.269l-0.266-0.071
			c0.006,0.895,0.377,1.519,0.894,2.049l0.664,0.151l32.637-34.206c4.747,8.715,17.71,32.849,18.112,37.259
			c-3.141,5.164-10.467,16.676-24.555,20.697c0,0,1.363,8.567-2.703,10.56c-1.402,0.687-3.157-0.021-4.347-0.931
			c-0.431-0.329-0.758-0.719-1.112-1.124c-0.024-0.027-0.717-0.778-0.723-0.709c-0.085,0.826,0.097,14.551,4.903,15.205
			c4.814,0.657,5.441,0.864,5.441,0.864s4.797,1.303,3.509,20.931c6.833,0,9.553,0.244,9.553,0.244s4.601-14.48-2.681-18.786
			c-4.503-2.662-6.872-1.663-6.872-1.663c-1.876-0.996-3.062-2.389-4.401-3.999c-0.959-1.153-1.487-2.465-2.221-3.742
			c-0.875-1.521-0.876-3.727-1.026-5.429c-0.1-1.137,2.789-0.837,3.469-0.925c0.952-0.122,1.856-0.167,2.819-0.182
			c2.892-0.045,5.293-1.592,7.611-3.2c1.408-0.977,2.25-2.009,2.185-3.781c-0.14-3.812-2.051-5.744-2.051-5.744
			s21.655-8.081,22.433-14.661C185.064,240.909,176.33,224.445,176.33,224.445z"/>
		<path class="st19" d="M149.62,228.516c1.678,2.029,3.322,19.743-13.644,20.449c-9.223,0.384-17.725-0.166-25.852-1.739
			c0.413,3.714,1.972,6.198,4.236,7.366c-0.965,0-3.89-0.579-9.187-1.739c-6.116-1.338-10.18-2.98-14.836-5.244
			c0,0,4.875,5.938,20.012,8.566l-2.704-0.267l2.993,2.82c4.338,1.243,8.191,1.744,14.528,0.963c-1.2-1.713-1.2-1.713-1.2-1.713
			s9.017,1.713,17.079-0.874c0.608-2.552-0.21-1.179,3.979-4.734c4.427-2.548,12.162-6.495,17.463-7.56
			C158.232,239.159,149.62,228.516,149.62,228.516z"/>
		<path class="st19" d="M124.502,260.684c2.488,5.001,3.379,19.982,0.702,27.463c-6.024-2.034-8.969,15.801-7.207,24.068
			c3.778,0,6.808,0,6.808,0s-3.651-1.118-2.837-9.349c1.449-14.652,5.639-12.829,5.639-12.829s0.937-11.454,0.686-17.265
			C127.961,265.069,124.502,260.684,124.502,260.684z"/>
		<path class="st19" d="M51.456,274.471l5.711,0.424c14.646-6.824,31.536-21.014,31.536-21.014l-8.502-4.366
			C78.489,253.062,56.87,273.189,51.456,274.471z"/>
		<path class="st19" d="M142.548,190.077c-3.79-4.51-15.521-15.578-17.382-16.741c-2.346-1.466-9.317-6.359-16.481-4.822
			c-7.102,1.523-10.036,5.106-11.587,6.365C102.52,173.911,114.803,168.514,142.548,190.077z"/>
		<path class="st19" d="M89.29,176.167c0,0-1.245-0.899-6.077-3.588c-4.833-2.689-8.563-1.447-12.8-0.47s-9.011,6.262-9.011,6.262
			s0,0.435-0.338,2.943C67.677,174.881,85.661,175.188,89.29,176.167z"/>
	</g>
	<path class="st19" d="M132.308,234.395c1.564-0.024,8.382-1.54,11.583-3.127c-2.688,0.244-6.94,0.757-9.579,0.83
		S132.308,234.395,132.308,234.395z"/>
	<path class="st19" d="M93.599,249.515c2.594,0.18,6.256,0.572,11.029-5.705c4.054,0,19.322,0.041,19.322,0.041l-0.632-2.862
		l-0.927,0.662l-17.437-0.064c0,0,0.13-0.05-0.13-0.908c-1.23,0.068-1.23,0.068-1.23,0.068s-0.405,2.391-1.517,3.544
		c-1.112,1.154-3.27,2.396-3.27,2.396s-2.454,1.498-6.262,1.043s-3.277-0.905-3.277-0.905l1.458,1.417l1.124,1.025L93.599,249.515z"
		/>
	<path class="st19" d="M63.284,230.194c2.176-1.424,3.795-2.432,5.446-2.458c2.289-0.036,5.736,0.78,5.736,0.78l-0.601-2.46
		c0,0-3.471-1.44-4.99-0.572c-1.518,0.867-5.359,1.022-5.956,2.253C62.321,228.967,63.284,230.194,63.284,230.194"/>
	<path class="st19" d="M100.027,227.7c1.397-0.76,3.163-1.087,4.994-0.302s12.194,5.715,17.638,6.401
		c0.903-0.967,0.932-1.599,0.932-1.599s-8.645-2.618-12.447-4.5c-3.801-1.882-7.479-3.834-9.916-3.19
		c-2.437,0.644-1.043,0.695-1.043,0.695L100.027,227.7z"/>
</g>
<path class="st20" d="M150.572,19.874H16.939c-8.25,0-15,30.75-15,39v59.564c0,8.25,6.75,15,15,15h69.483l26.528,23.131
	c2.497,4.234,6.584,4.234,9.082,0l6.088-23.131h22.453c8.25,0,15-6.75,15-15V58.874C165.572,50.624,158.822,19.874,150.572,19.874z"
	/>
<path class="st4" d="M150.572,12.144H16.939c-8.25,0-15,6.75-15,15v83.564c0,8.25,6.75,15,15,15h69.483l26.528,23.131
	c2.497,4.234,6.584,4.234,9.082,0l6.088-23.131h22.453c8.25,0,15-6.75,15-15V27.144C165.572,18.894,158.822,12.144,150.572,12.144z"
	/>
<g>
	<path d="M18.579,68.828L13.012,94.37h3.896l1.059-5.456h5.214l1.073,5.456h3.896l-5.553-25.542
		C22.597,68.828,18.579,68.828,18.579,68.828z M18.756,84.932l1.779-9.034h0.082l1.778,9.034H18.756z"/>
	<path d="M36.678,79.459c-1.186-0.667-2.019-1.271-2.498-1.815c-0.48-0.544-0.72-1.237-0.72-2.079c0-0.912,0.215-1.669,0.645-2.271
		c0.43-0.602,1.029-0.903,1.799-0.903c0.824,0,1.462,0.362,1.915,1.087c0.453,0.726,0.679,1.673,0.679,2.842h3.748l0.027-0.105
		c0.036-2.234-0.534-4.084-1.71-5.552c-1.177-1.468-2.707-2.202-4.589-2.202c-1.855,0-3.381,0.658-4.576,1.974
		c-1.195,1.315-1.792,3.02-1.792,5.114c0,2.117,0.514,3.763,1.541,4.938s2.568,2.225,4.623,3.149
		c1.005,0.561,1.706,1.131,2.104,1.71c0.398,0.579,0.598,1.365,0.598,2.359c0,0.959-0.197,1.719-0.591,2.28
		c-0.394,0.562-0.998,0.842-1.812,0.842c-1.041,0-1.819-0.345-2.335-1.035c-0.516-0.69-0.774-1.824-0.774-3.403h-3.761l-0.027,0.105
		c-0.045,2.655,0.622,4.692,2.003,6.113c1.38,1.421,3.012,2.131,4.895,2.131c1.892,0,3.408-0.625,4.548-1.877
		c1.141-1.251,1.711-2.982,1.711-5.192c0-2.14-0.473-3.839-1.419-5.096C39.961,81.316,38.551,80.278,36.678,79.459z"/>
	<polygon points="58.456,68.828 53.717,68.828 49.861,79.213 48.612,79.213 48.612,68.828 44.743,68.828 44.743,94.37 48.612,94.37 
		48.612,83.757 50.296,83.757 54.206,94.37 58.904,94.37 53.066,80.494 	"/>
	<path d="M75.889,55.873c-3.781,0-6.806,1.666-9.074,4.998s-3.403,7.917-3.403,13.756V88.64c0,5.862,1.134,10.442,3.403,13.739
		s5.302,4.946,9.099,4.946s6.839-1.648,9.124-4.946c2.285-3.297,3.427-7.877,3.427-13.739V74.626c0-5.839-1.151-10.425-3.452-13.756
		C82.711,57.539,79.67,55.873,75.889,55.873z M81.487,88.644c0,3.628-0.477,6.35-1.43,8.164c-0.954,1.814-2.334,2.721-4.143,2.721
		c-1.825,0-3.206-0.907-4.143-2.721s-1.406-4.536-1.406-8.164V74.52c0-3.605,0.46-6.315,1.381-8.129
		c0.92-1.814,2.301-2.722,4.143-2.722c1.825,0,3.214,0.913,4.167,2.739s1.43,4.53,1.43,8.112L81.487,88.644L81.487,88.644z"/>
	<polygon points="90.364,64.391 98.403,64.391 98.403,106.604 105.406,106.604 105.406,64.391 113.494,64.391 113.494,56.594 
		90.364,56.594 	"/>
	<rect x="117.242" y="56.594" width="6.979" height="50.01"/>
	<path d="M150.421,83.505c-1.718-2.461-4.278-4.494-7.681-6.097c-2.154-1.305-3.667-2.49-4.538-3.555
		c-0.872-1.065-1.307-2.421-1.307-4.07c0-1.786,0.39-3.268,1.171-4.448c0.781-1.179,1.87-1.769,3.268-1.769
		c1.496,0,2.655,0.71,3.477,2.129c0.822,1.42,1.233,3.275,1.233,5.564h6.806l0.049-0.206c0.065-4.374-0.97-7.997-3.107-10.871
		c-2.137-2.874-4.916-4.311-8.335-4.311c-3.37,0-6.14,1.288-8.31,3.864c-2.17,2.576-3.255,5.914-3.255,10.012
		c0,4.145,0.933,7.368,2.799,9.669c1.866,2.301,4.665,4.356,8.396,6.166c1.825,1.099,3.099,2.215,3.822,3.349
		c0.723,1.133,1.085,2.674,1.085,4.62c0,1.878-0.358,3.366-1.073,4.465s-1.812,1.649-3.292,1.649c-1.891,0-3.304-0.675-4.241-2.027
		c-0.937-1.351-1.406-3.572-1.406-6.663h-6.831l-0.049,0.206c-0.083,5.198,1.13,9.188,3.637,11.97
		c2.507,2.782,5.47,4.173,8.89,4.173c3.436,0,6.189-1.225,8.261-3.675c2.071-2.45,3.107-5.839,3.107-10.167
		C152.998,89.293,152.139,85.967,150.421,83.505z"/>
</g>
<g>
	<path class="st21" d="M27.449,38.755c-0.078,1.523-0.506,2.69-1.284,3.501s-1.876,1.216-3.296,1.216
		c-1.426,0-2.559-0.542-3.398-1.626s-1.26-2.554-1.26-4.409v-2.578c0-1.849,0.431-3.311,1.294-4.385s2.04-1.611,3.53-1.611
		c1.374,0,2.437,0.41,3.188,1.23s1.161,1.996,1.226,3.525h-1.807c-0.078-1.159-0.322-1.986-0.732-2.48s-1.035-0.742-1.875-0.742
		c-0.97,0-1.715,0.379-2.236,1.138s-0.781,1.87-0.781,3.335v2.607c0,1.439,0.243,2.542,0.728,3.311s1.193,1.152,2.124,1.152
		s1.602-0.231,2.012-0.693s0.664-1.292,0.762-2.49H27.449z"/>
	<path class="st21" d="M31.668,41.743h5.576v1.533h-7.373V29.058h1.797V41.743z"/>
	<path class="st21" d="M41.238,43.276h-1.787V29.058h1.787V43.276z"/>
	<path class="st21" d="M53.289,38.755c-0.078,1.523-0.506,2.69-1.284,3.501s-1.876,1.216-3.296,1.216
		c-1.426,0-2.559-0.542-3.398-1.626s-1.26-2.554-1.26-4.409v-2.578c0-1.849,0.431-3.311,1.294-4.385s2.04-1.611,3.53-1.611
		c1.374,0,2.437,0.41,3.188,1.23s1.161,1.996,1.226,3.525h-1.807c-0.078-1.159-0.322-1.986-0.732-2.48s-1.035-0.742-1.875-0.742
		c-0.97,0-1.715,0.379-2.236,1.138s-0.781,1.87-0.781,3.335v2.607c0,1.439,0.243,2.542,0.728,3.311s1.193,1.152,2.124,1.152
		s1.602-0.231,2.012-0.693s0.664-1.292,0.762-2.49H53.289z"/>
	<path class="st21" d="M58.895,36.724l-1.396,1.689v4.863h-1.787V29.058h1.787v6.865l1.172-1.553l3.828-5.312h2.148l-4.619,6.26
		l4.98,7.959h-2.139L58.895,36.724z"/>
	<path class="st21" d="M77.781,36.997h-4.805v6.279h-1.787V29.058h7.402v1.533h-5.615v4.873h4.805V36.997z"/>
	<path class="st21" d="M90.047,37.417c0,1.94-0.414,3.434-1.24,4.482s-2.002,1.572-3.525,1.572c-1.465,0-2.622-0.509-3.472-1.528
		s-1.291-2.459-1.323-4.321v-2.676c0-1.901,0.42-3.39,1.26-4.468s2.012-1.616,3.516-1.616c1.498,0,2.665,0.516,3.501,1.548
		s1.265,2.505,1.284,4.419V37.417z M88.26,34.927c0-1.504-0.246-2.622-0.737-3.354s-1.245-1.099-2.261-1.099
		c-0.983,0-1.727,0.371-2.231,1.113s-0.76,1.836-0.767,3.281v2.549c0,1.452,0.252,2.559,0.757,3.32s1.258,1.143,2.261,1.143
		s1.745-0.352,2.227-1.055s0.732-1.781,0.752-3.232V34.927z"/>
	<path class="st21" d="M97.107,37.524h-2.5v5.752h-1.797V29.058h3.984c1.393,0,2.447,0.363,3.164,1.089
		c0.716,0.726,1.074,1.789,1.074,3.188c0,0.879-0.193,1.646-0.581,2.3s-0.936,1.147-1.646,1.479l2.754,6.045v0.117h-1.924
		L97.107,37.524z M94.607,35.991h2.168c0.749,0,1.346-0.241,1.792-0.724c0.446-0.483,0.669-1.128,0.669-1.938
		c0-1.826-0.827-2.739-2.48-2.739h-2.148V35.991z"/>
	<path class="st21" d="M117.312,43.276h-1.797v-6.572h-5.723v6.572h-1.787V29.058h1.787v6.113h5.723v-6.113h1.797V43.276z"/>
	<path class="st21" d="M127.225,36.704h-5.029v5.039h5.859v1.533h-7.646V29.058h7.549v1.533h-5.762v4.58h5.029V36.704z"/>
	<path class="st21" d="M132.137,41.743h5.576v1.533h-7.373V29.058h1.797V41.743z"/>
	<path class="st21" d="M141.629,37.71v5.566h-1.787V29.058h4.531c1.321,0,2.36,0.396,3.115,1.187s1.133,1.844,1.133,3.159
		c0,1.367-0.359,2.42-1.079,3.159s-1.733,1.122-3.042,1.147H141.629z M141.629,36.177h2.744c0.794,0,1.403-0.238,1.826-0.714
		c0.423-0.477,0.635-1.158,0.635-2.045c0-0.854-0.218-1.539-0.654-2.054s-1.035-0.773-1.797-0.773h-2.754V36.177z"/>
</g>
</svg>
