<?xml version="1.0" encoding="utf-8"?>
<!-- Generator: Adobe Illustrator 23.0.4, SVG Export Plug-In . SVG Version: 6.00 Build 0)  -->
<svg version="1.1" id="Capa_1" xmlns="http://www.w3.org/2000/svg" xmlns:xlink="http://www.w3.org/1999/xlink" x="0px" y="0px"
	 viewBox="0 0 50 50" style="enable-background:new 0 0 50 50;" xml:space="preserve">
<style type="text/css">
	.st0{fill:#FFFFFF;}
</style>
<path class="st0" d="M16.5,8.5C7.4,8.5,0,15.9,0,25s7.4,16.5,16.5,16.5S33,34.1,33,25S25.6,8.5,16.5,8.5z M23.5,33.8
	c-0.2,0.6-0.6,0.9-1.2,1c-0.4,0.1-0.8-0.1-1.2-0.4c-1.4-1.3-4.6-4.6-5.9-5.9c-0.3-0.3-0.4-0.6-0.4-1c0-2.8,0-10.4,0-13.3
	c0-0.8,0.6-1.4,1.4-1.4c0.8,0,1.4,0.6,1.4,1.4c0,1.3,0,7.2,0,8.5c0,1.2,0,2.6,0,3.8c0,0.2,0.1,0.4,0.2,0.5c1.1,1.1,4.1,4.1,5.2,5.3
	C23.5,32.7,23.6,33.2,23.5,33.8z"/>
</svg>
