<?xml version="1.0" encoding="utf-8"?>
<!-- Generator: Adobe Illustrator 23.0.4, SVG Export Plug-In . SVG Version: 6.00 Build 0)  -->
<svg version="1.1" id="Capa_1" xmlns="http://www.w3.org/2000/svg" xmlns:xlink="http://www.w3.org/1999/xlink" x="0px" y="0px"
	 viewBox="0 0 50 50" style="enable-background:new 0 0 50 50;" xml:space="preserve">
<style type="text/css">
	.st0{fill:#FFFFFF;}
</style>
<path class="st0" d="M24,12.2c0.7-0.1,1.4-0.1,2.2-0.2c0,3,0,5.9,0,8.9c-0.5-0.5-0.9-0.9-1.3-1.4c-0.4,0.4-0.8,0.9-1.2,1.3
	c0-0.2,0-0.2,0-0.3c0-2.6,0-5.3,0-8C23.7,12.3,23.8,12.2,24,12.2z M17.4,14.4c1.3-0.7,2.7-1.1,4.3-1.4c0.3-0.1,0.7-0.2,1.1-0.2
	c0,3.6,0,7.2,0,10.8c0.7-0.7,1.4-1.4,2.2-2.2c0.7,0.8,1.4,1.4,2.2,2.2h0.1c0-3.7,0-7.4,0-11.2c0.3,0,0.6,0,0.9,0
	c0.6,0,1.1,0,1.7,0.1c0.3,0,0.6,0.2,0.6,0.6c0,0.1,0,0.2,0,0.2c0,6.3,0,12.7,0,19c0,0.6-0.2,0.8-0.8,0.8c-4.2,0.1-8.3,0.6-12.2,2.1
	c-0.1,0-0.2,0.1-0.2,0.1c0-0.2,0-0.2,0-0.3c0-6.7,0-13.4,0-20.1C17.1,14.7,17.2,14.6,17.4,14.4z M2.6,13.3c0-0.6,0.2-0.7,0.7-0.8
	c1.8-0.1,3.6-0.1,5.5,0.1c1.6,0.2,3.2,0.4,4.7,0.9c0.7,0.2,1.4,0.6,2.2,1c0.2,0.1,0.2,0.2,0.2,0.3c0,6.7,0,13.6,0,20.3
	c0,0.1,0,0.2,0,0.2c-0.6-0.2-1.3-0.5-2-0.6c-2.4-0.7-4.8-1.1-7.2-1.4c-1.1-0.1-2.2-0.1-3.3-0.2c-0.5,0-0.7-0.2-0.7-0.7
	c0-3.4,0-6.7,0-10C2.6,19.4,2.6,16.4,2.6,13.3z M33,35.4c-0.2,0.2-0.3,0.4-0.6,0.4c-1.1,0.1-2.2,0.1-3.4,0.2c-2.4,0.2-4.7,0.6-7,1.3
	c-1.8,0.6-3.5,1.3-5.2,1.8c-0.2,0-0.3,0-0.5,0c-1.6-0.6-3.2-1.2-4.9-1.8C9,36.5,6.5,36.1,4,35.9c-1.1-0.1-2.2-0.1-3.4-0.2
	c-0.4,0-0.6-0.2-0.6-0.6c0-6.4,0-12.8,0-19.3c0-0.4,0.2-0.6,0.6-0.6c0.2,0,0.5,0,0.7-0.1c0,0.2,0,0.2,0,0.4c0,6,0,12,0,18.1
	c0,0.6,0.2,0.8,0.8,0.8c4.3,0.1,8.5,0.7,12.6,2.2c0.5,0.2,1,0.3,1.4,0.5c0.2,0.1,0.3,0.1,0.5,0c1.6-0.5,3.1-1,4.7-1.5
	c2.5-0.7,5.1-1,7.6-1.2c0.6,0,1.3-0.1,1.9-0.1c0.5,0,0.7-0.2,0.7-0.7c0-2.1,0-4.2,0-6.3c0-3.9,0-7.9,0-11.9c0-0.1,0-0.2,0-0.3
	c0.5,0.1,1-0.2,1.4,0.5C33,22.2,33,28.8,33,35.4z"/>
</svg>
