<?xml version="1.0" encoding="utf-8"?>
<!-- Generator: Adobe Illustrator 23.0.4, SVG Export Plug-In . SVG Version: 6.00 Build 0)  -->
<svg version="1.1" id="Capa_1" xmlns="http://www.w3.org/2000/svg" xmlns:xlink="http://www.w3.org/1999/xlink" x="0px" y="0px"
	 viewBox="0 0 50 50" style="enable-background:new 0 0 50 50;" xml:space="preserve">
<style type="text/css">
	.st0{fill:#FFFFFF;}
</style>
<path class="st0" d="M16.5,8.5C7.4,8.5,0,15.9,0,25s7.4,16.5,16.5,16.5S33,34.1,33,25S25.6,8.5,16.5,8.5z M19.4,29.7
	c-0.5,0.3-1,0.4-1.5,0.5c-1.9,0.3-3.7,0.3-5.7,0.3c-1.2,0-2.3-0.1-3.5-0.2c-0.6-0.1-1.2-0.3-1.9-0.4c-0.1-0.1-0.3-0.1-0.5-0.2
	c-0.2-0.1-0.3-0.3-0.3-0.5c0-1.4,0-2.8,0-4.2s0-2.8,0-4.2c0-0.2,0.1-0.4,0.3-0.5c0.5-0.3,1-0.4,1.5-0.5c1.9-0.3,3.7-0.4,5.7-0.3
	c1.2,0,2.3,0.1,3.5,0.2c0.6,0.1,1.2,0.3,1.9,0.4c0.2,0.1,0.3,0.1,0.5,0.3c0.1,0.1,0.2,0.2,0.2,0.4c0,2.8,0,5.7,0,8.5
	C19.7,29.4,19.5,29.6,19.4,29.7z M26.7,29.6c0,0.2,0,0.4-0.1,0.6c-0.1,0.2-0.3,0.3-0.5,0.3c-0.1-0.1-0.2-0.1-0.3-0.1
	c-1.7-1-3.2-2.1-4.9-3.2c-0.3-0.2-0.4-0.4-0.4-0.8c0-0.9,0-1.9,0-2.8c0-0.3,0.1-0.6,0.4-0.8c1.7-1,3.3-2.1,5-3.2
	c0.1-0.1,0.1-0.1,0.1-0.1c0.3-0.1,0.6-0.1,0.6,0.3c0.1,0.2,0.1,0.3,0.1,0.6c0,1.5,0,3.1,0,4.6C26.7,26.5,26.7,28,26.7,29.6z"/>
</svg>
