<?xml version="1.0" encoding="utf-8"?>
<!-- Generator: Adobe Illustrator 23.0.4, SVG Export Plug-In . SVG Version: 6.00 Build 0)  -->
<svg version="1.1" id="Layer_1" xmlns="http://www.w3.org/2000/svg" xmlns:xlink="http://www.w3.org/1999/xlink" x="0px" y="0px"
	 viewBox="0 0 40 50" style="enable-background:new 0 0 40 50;" xml:space="preserve">
<style type="text/css">
	.st0{fill:#E380B1;}
</style>
<g>
	<path class="st0" d="M38.865,28.222c1-1.222,0.444-1.666-0.333-2.445c-0.777-0.777-0.556-1.778-0.222-2.445
		c0.667-1.333-0.334-1.778-1.222-2.333c-1-0.556-0.555-1.444-0.444-2.111c0-0.667,0.222-1.222-1.333-1.556
		c-1.556-0.334-1.444-1.333-1.666-2.333c-0.222-1.111-0.444-1.111-1.778-1.222c-1.333-0.111-1.666-0.667-2-1.778
		c-0.444-1.111-1.111-0.889-1.778-0.777c-2.111,0.333-2.222-0.556-2.667-1.333c-0.444-0.889-1.333-0.555-1.889-0.222
		c-1.333,1-2.222,0.111-2.222,0.111c-1.556-1.889-2.667-0.333-2.555-0.111c-0.889,0.889-1.666,0.444-2.445,0.111
		c-0.889-0.444-1.556-0.334-2.222,0.667c-0.667,1-1.333,1-2.555,0.777s-1.444,0.112-1.778,1.333
		c-0.334,1.111-1.333,1.222-2.222,1.333c-0.889,0-1.111,0.333-1.222,1.222c-0.111,1.778-1.111,1.889-1.778,2.111
		c-0.555,0.222-1.111,0.222-1.111,1.444c0,1.333-0.111,2.111-1.111,2.778c-1,0.667-1,0.777-0.444,2.111
		c0.556,1.333-0.333,2.222-0.667,2.555c-0.222,0.222-1.333,0.555-0.333,1.889c1,1.222,0.889,1.889,0.333,2.778
		c-0.555,0.889-0.444,1.333,0.333,1.889c0.777,0.555,1.111,1.778,0.777,2.667c-0.334,0.889-0.222,1.444,0.889,1.778
		s1.556,1.222,1.444,2.333s0.444,1.333,1.556,1.444c1.111,0.222,1.666,1.111,1.778,2.111c0.222,1,0.777,1.111,2.111,1
		c1.222-0.111,1.666,0.889,1.889,1.556c0.222,0.777,1.111,1,1.778,0.667c1.666-0.555,2.222,0,2.778,0.777
		c0.556,0.777,1.444,0.777,2.222,0.111c0.777-0.667,1.556-0.667,2.445,0c0.889,0.555,1.444,0.555,2.111-0.334
		c0.667-0.889,1.778-1,2.555-0.667c0.777,0.333,1.666,0.111,1.889-0.555c0.667-1.778,1.778-1.556,2.889-1.444
		c1.111,0.112,1.111-0.111,1.333-1.333c0.222-1.223,1-1.666,2.111-1.778c1,0,1-0.222,1.111-1.556
		c0.112-1.333,0.222-1.778,1.666-2.222s0.889-1.556,0.667-2.222c-0.111-0.555-0.333-1.444,0.777-2.111
		c1.111-0.667,0.777-1.666,0.333-2.333C38.198,29.889,38.088,29,38.865,28.222z M28.756,33.179
		c-5.543-2.411-11.016-2.454-16.547,0.014c0-1.561-0.01-2.962,0.014-4.363c0.002-0.148,0.164-0.36,0.306-0.43
		c3.174-1.562,6.481-2.528,10.056-1.949c2.028,0.328,3.983,0.956,5.823,1.89c0.153,0.078,0.33,0.298,0.332,0.454
		C28.766,30.199,28.756,31.604,28.756,33.179z M34.586,26.895c-0.143,0.064-0.28,0.145-0.428,0.189
		c-0.635,0.188-0.782,0.603-0.765,1.245c0.048,1.821,0.013,3.644,0.016,5.466c0,0.184,0.043,0.368,0.065,0.544
		c0.372,0,0.671,0,0.992,0c0,0.27-0.013,0.488,0.002,0.704c0.032,0.456,0.078,0.911,0.119,1.366
		c-0.119,0.039-0.237,0.079-0.357,0.119c-0.173-0.122-0.364-0.225-0.517-0.369c-0.461-0.434-0.892-0.383-1.346,0.017
		c-0.121,0.107-0.308,0.14-0.465,0.206c-0.056-0.177-0.152-0.351-0.16-0.53c-0.022-0.491-0.008-0.984-0.008-1.528
		c0.316-0.018,0.587-0.034,0.905-0.052c0-2.084,0-4.171,0-6.354c-0.964,0.505-1.903,0.998-2.894,1.518
		c-0.014-0.194-0.05-0.314-0.026-0.419c0.18-0.806-0.278-1.134-0.94-1.415c-2.036-0.861-4.13-1.521-6.311-1.868
		c-1.955-0.311-3.913-0.165-5.805,0.371c-1.562,0.443-3.073,1.068-4.601,1.626c-0.514,0.188-1.007,0.424-0.73,1.245
		c-1.87-0.85-3.613-1.642-5.478-2.49c0.837-0.487,1.585-0.927,2.338-1.358c2.111-1.211,4.225-2.417,6.337-3.626
		c1.757-1.005,3.513-2.011,5.268-3.018c0.062-0.035,0.108-0.099,0.162-0.149c0.119,0,0.237,0,0.357,0
		c0.087,0.07,0.167,0.153,0.263,0.206c3.035,1.682,6.077,3.351,9.103,5.048c0.739,0.415,1.354,0.783,2.284,0.283
		c0.845-0.453,1.576,0.096,1.47,1.004c-0.08,0.685,0.194,0.979,0.735,1.203c0.144,0.06,0.277,0.148,0.415,0.224
		C34.586,26.498,34.586,26.697,34.586,26.895z"/>
	<path class="st0" d="M32.458,26.029c-0.404-0.011-0.693,0.207-0.716,0.615c-0.025,0.44,0.257,0.716,0.684,0.712
		c0.4-0.004,0.643-0.254,0.623-0.69C33.074,26.247,32.847,26.04,32.458,26.029z"/>
</g>
</svg>
