<?xml version="1.0" encoding="utf-8"?>
<!-- Generator: Adobe Illustrator 23.0.4, SVG Export Plug-In . SVG Version: 6.00 Build 0)  -->
<svg version="1.1" id="Layer_1" xmlns="http://www.w3.org/2000/svg" xmlns:xlink="http://www.w3.org/1999/xlink" x="0px" y="0px"
	 viewBox="0 0 50 50" style="enable-background:new 0 0 50 50;" xml:space="preserve">
<g>
	<path d="M21.642,27.195c0.261-0.127,0.451-0.354,0.522-0.625c0.07-0.27,0.016-0.561-0.15-0.799
		c-0.039-0.057-0.068-0.138-0.068-0.196c-0.006-1.118-0.006-2.236-0.006-3.355l0.001-5.096c0-0.069,0-0.139-0.01-0.206
		c-0.05-0.357-0.319-0.599-0.669-0.602c-0.002,0-0.005,0-0.007,0c-0.343,0-0.62,0.242-0.674,0.59
		c-0.012,0.075-0.012,0.152-0.011,0.266v1.259c0,2.378,0,4.756-0.005,7.134c0,0.027-0.025,0.085-0.045,0.132
		c-0.022,0.052-0.044,0.104-0.06,0.158c-0.048,0.169-0.091,0.34-0.133,0.51c-0.012,0.049-0.02,0.101-0.027,0.153
		c-0.008,0.056-0.017,0.119-0.033,0.147c-0.727,1.27-1.458,2.537-2.19,3.803l-0.763,1.323c-0.046,0.079-0.098,0.168-0.131,0.273
		c-0.096,0.305,0.006,0.585,0.28,0.769c0.115,0.077,0.244,0.115,0.371,0.115c0.177,0,0.351-0.073,0.483-0.215
		c0.076-0.081,0.128-0.173,0.185-0.272l0.763-1.321c0.727-1.26,1.455-2.519,2.187-3.777C21.491,27.3,21.567,27.232,21.642,27.195z"
		/>
	<polygon points="13.943,14.081 14.906,15.737 16.483,14.827 15.519,13.167 	"/>
	<rect x="26.434" y="13.541" transform="matrix(0.5012 -0.8654 0.8654 0.5012 1.1583 30.9139)" width="1.917" height="1.823"/>
	<polygon points="33.138,19.224 32.231,17.643 30.566,18.594 31.474,20.174 	"/>
	<rect x="8.192" y="24.109" width="1.865" height="1.789"/>
	<rect x="32.554" y="24.104" width="1.868" height="1.797"/>
	<polygon points="9.406,30.667 10.309,32.248 11.978,31.299 11.07,29.72 	"/>
	<rect x="30.942" y="30.131" transform="matrix(0.5007 -0.8656 0.8656 0.5007 -11.0089 43.0929)" width="1.82" height="1.917"/>
	<rect x="14.253" y="34.641" transform="matrix(0.4996 -0.8662 0.8662 0.4996 -23.185 30.9651)" width="1.916" height="1.822"/>
	<rect x="20.406" y="35.945" width="1.785" height="1.864"/>
	<rect x="20.406" y="12.236" width="1.785" height="1.864"/>
	<rect x="9.866" y="17.914" transform="matrix(0.5022 -0.8648 0.8648 0.5022 -10.9549 18.7143)" width="1.822" height="1.917"/>
	<path d="M27.373,34.454c-0.34,0.196-0.652,0.376-0.973,0.564l-0.272,0.16l0.958,1.658l1.575-0.912l-0.957-1.661L27.373,34.454z"/>
	<path d="M32.573,13.735c-3.016-3.018-7.019-4.679-11.27-4.679c-4.252,0-8.255,1.662-11.271,4.679
		c-3.016,3.017-4.675,7.021-4.673,11.272c0.005,8.768,7.15,15.917,15.926,15.936c0.012,0,0.024,0,0.036,0
		c4.229,0,8.217-1.654,11.23-4.66c3.026-3.019,4.694-7.023,4.696-11.277C37.25,20.756,35.59,16.753,32.573,13.735z M21.321,39.031
		c-0.012,0-0.024,0-0.037,0c-7.699,0-13.981-6.275-14.012-14.005c-0.015-3.723,1.438-7.241,4.091-9.906
		c2.663-2.675,6.192-4.149,9.937-4.15c0.002,0,0.005,0,0.007,0c7.717,0,14.009,6.288,14.026,14.02
		C35.352,32.712,29.066,39.011,21.321,39.031z"/>
</g>
</svg>
