<?xml version="1.0" encoding="utf-8"?>
<!-- Generator: Adobe Illustrator 23.0.4, SVG Export Plug-In . SVG Version: 6.00 Build 0)  -->
<svg version="1.1" id="Layer_1" xmlns="http://www.w3.org/2000/svg" xmlns:xlink="http://www.w3.org/1999/xlink" x="0px" y="0px"
	 viewBox="0 0 120 24" style="enable-background:new 0 0 120 24;" xml:space="preserve">
<style type="text/css">
	.st0{fill:#E380B1;}
</style>
<g>
	<path class="st0" d="M2.634,12.176c0.47-0.607,1.213-1.741,2.073-1.741c0.841,0,1.839,1.037,1.839,1.878
		c0,1.584-1.252,3.423-2.366,4.458c-0.332,0.313-0.646,0.568-1.114,0.646c-0.138,0.02-0.274,0.039-0.411,0.039
		c-1.232,0-2.131-1.017-2.131-2.23v-0.234c0-0.802,0.821-2.973,1.76-2.973L2.634,12.176z M1.929,12.47
		c-0.157,0.078-0.234,0.214-0.312,0.352L1.929,12.47z M1.754,13.917v0.039c0.02,0,0.02-0.02,0.039-0.039H1.754z M5.411,12.079
		c0.02-0.138,0.059-0.254,0.059-0.391c0-0.078-0.02-0.176-0.059-0.254c-0.644,0-1.995,1.623-1.995,2.249
		c0,0.194,0.118,0.352,0.274,0.469c-0.039,0.059-0.118,0.118-0.196,0.118c-0.548,0-0.802-0.43-1.095-0.802
		c-0.293,0.723-0.568,1.467-0.568,2.249c0,0.274,0.02,0.548,0.098,0.821C3.71,16.049,5.098,13.82,5.411,12.079z M2.399,12.724
		c-0.254,0.254-0.411,0.588-0.528,0.92c0.098-0.137,0.489-0.743,0.508-0.88L2.399,12.724z M1.949,12.901
		c0.078-0.058,0.157-0.176,0.176-0.274L1.949,12.901z M3.143,12.04c0.058-0.157,0.703-0.802,0.88-0.959H3.984
		c-0.352,0.293-0.646,0.627-0.9,0.998L3.143,12.04z M4.473,11.492v-0.019h-0.02c-0.02,0-0.02,0.02-0.039,0.02
		c-0.411,0.293-1.037,0.958-1.134,1.467C3.67,12.451,4.024,11.942,4.473,11.492z M3.729,11.787
		c-0.078,0.078-0.332,0.332-0.332,0.411C3.495,12.04,3.632,11.923,3.729,11.787z M4.316,16.029
		c-0.039,0.059-0.098,0.118-0.118,0.196c0.391-0.45,1.467-1.545,1.448-2.151C5.275,14.777,4.805,15.404,4.316,16.029z M4.669,14.642
		c-0.098,0.137-0.431,0.528-0.431,0.607C4.414,15.091,4.551,14.875,4.669,14.642z M4.316,15.579c0,0.02,0,0.02,0.019,0.02
		L4.316,15.579z M4.551,15.365c0.137-0.214,0.312-0.411,0.43-0.625l-0.45,0.607v0.02L4.551,15.365L4.551,15.365z M5.001,14.679
		c-0.02,0.02-0.02,0.039-0.02,0.059L5.001,14.679z M5.295,15.169h0.019v-0.02L5.295,15.169z"/>
	<path class="st0" d="M8.854,12.176c0.47-0.607,1.213-1.74,2.073-1.74c0.841,0,1.839,1.037,1.839,1.878
		c0,1.584-1.252,3.423-2.366,4.458c-0.332,0.313-0.646,0.568-1.114,0.646c-0.138,0.02-0.274,0.039-0.411,0.039
		c-1.232,0-2.131-1.017-2.131-2.23v-0.234c0-0.802,0.821-2.973,1.76-2.973L8.854,12.176z M8.15,12.47
		c-0.157,0.078-0.234,0.214-0.312,0.352L8.15,12.47z M7.973,13.917v0.039c0.02,0,0.02-0.02,0.039-0.039H7.973z M11.631,12.079
		c0.02-0.138,0.059-0.254,0.059-0.391c0-0.078-0.02-0.176-0.059-0.254c-0.644,0-1.995,1.623-1.995,2.249
		c0,0.194,0.118,0.352,0.274,0.469c-0.039,0.059-0.118,0.118-0.196,0.118c-0.548,0-0.802-0.43-1.095-0.802
		c-0.293,0.723-0.568,1.467-0.568,2.249c0,0.274,0.02,0.548,0.098,0.821C9.93,16.049,11.319,13.82,11.631,12.079z M8.619,12.724
		c-0.254,0.254-0.411,0.588-0.528,0.92c0.098-0.137,0.489-0.743,0.508-0.88L8.619,12.724z M8.17,12.901
		c0.078-0.058,0.157-0.176,0.176-0.274L8.17,12.901z M9.363,12.04c0.058-0.157,0.703-0.802,0.88-0.958h-0.039
		c-0.352,0.293-0.646,0.625-0.9,0.998L9.363,12.04z M10.692,11.492v-0.019h-0.02c-0.02,0-0.02,0.02-0.039,0.02
		c-0.411,0.293-1.037,0.958-1.134,1.467C9.891,12.451,10.243,11.942,10.692,11.492z M9.95,11.787
		c-0.078,0.078-0.332,0.332-0.332,0.411C9.714,12.04,9.851,11.923,9.95,11.787z M10.537,16.029
		c-0.039,0.059-0.098,0.118-0.118,0.196c0.391-0.45,1.467-1.545,1.448-2.151C11.494,14.777,11.024,15.404,10.537,16.029z
		 M10.889,14.642c-0.098,0.137-0.431,0.528-0.431,0.607C10.634,15.091,10.771,14.875,10.889,14.642z M10.537,15.579
		c0,0.02,0,0.02,0.019,0.02L10.537,15.579z M10.771,15.365c0.137-0.214,0.312-0.411,0.43-0.625l-0.45,0.607v0.02L10.771,15.365
		L10.771,15.365z M11.221,14.679c-0.02,0.02-0.02,0.039-0.02,0.059L11.221,14.679z M11.514,15.169h0.019v-0.02L11.514,15.169z"/>
	<path class="st0" d="M18.575,13.722c-0.293,1.603-0.723,3.246-0.723,4.89c0,0.254,0.02,0.509,0.098,0.763
		c0,0.02,0.02,0.039,0.02,0.058c0,0.039-0.02,0.078-0.02,0.118c-0.078,0.02-0.157,0.02-0.234,0.02c-0.548,0-1.095-0.45-1.153-0.998
		c-0.02-0.234-0.02-0.489-0.02-0.723c0-0.45,0-0.9,0.058-1.35c0.214-1.76,0.411-3.344,0.92-5.046l-0.041-0.04l-0.607,0.508
		c-0.352,0.313-0.763,0.9-0.998,1.31c-0.723,1.232-1.252,2.542-1.525,3.951c-0.019,0.118-0.039,0.214-0.078,0.333
		c-1.35-0.138-1.467-1.017-1.467-2.171c0-2.053,0.469-4.087,0.919-6.082c0.177-0.802,0.352-1.623,0.607-2.405
		c0.234-0.743,0.548-1.485,0.84-2.21c0.078-0.176,0.138-0.391,0.274-0.548c0.118,0.078,0.176,0.118,0.313,0.118
		c0.176,0,0.45,0.234,0.587,0.352c0.138,0.118,0.157,0.176,0.176,0.352v0.157c0,0.743-0.508,2.21-0.723,2.992
		c-0.274,1.057-0.548,2.093-0.802,3.149c-0.098,0.411-0.43,1.545-0.43,1.898c0,0.02,0.02,0.058,0.02,0.078
		c0.763-1.173,1.33-1.799,2.503-2.581c0.155-0.098,0.273-0.157,0.449-0.157c0.371,0,0.743,0.234,1.017,0.45
		c0.274,0.214,0.371,0.391,0.371,0.743C18.927,12.333,18.692,13.057,18.575,13.722z M13.724,11.081h-0.019v0.039h0.019V11.081z
		 M13.784,10.808l-0.059,0.098l0.039,0.019C13.764,10.887,13.784,10.847,13.784,10.808z M13.803,10.691h-0.019v0.098
		C13.803,10.749,13.803,10.73,13.803,10.691z M13.823,10.514h0.039c-0.02-0.02-0.02-0.058-0.02-0.098
		C13.823,10.455,13.823,10.475,13.823,10.514z M13.862,14.777c0-0.039-0.02-0.058-0.02-0.098c-0.02,0.039-0.02,0.059-0.02,0.098
		H13.862z M13.901,14.25c-0.02,0.078-0.039,0.157-0.039,0.234h0.039V14.25z M13.901,14.23c0.194-0.607,0.312-1.603,0.45-2.267
		c0.431-2.034,1.017-4.049,1.545-6.063l-0.039,0.019c-0.274,0.88-0.568,1.741-0.802,2.621c-0.274,1.037-0.509,2.073-0.723,3.11
		C14.155,12.509,13.98,13.37,13.901,14.23z M13.96,9.947h0.02V9.869C13.96,9.889,13.96,9.928,13.96,9.947z M13.98,9.849
		c0.019-0.019,0.039-0.058,0.039-0.078L13.98,9.752V9.849z M14.037,9.577l0.039,0.019c0-0.098,0.019-0.214,0.019-0.312l0.039-0.02
		c0.078-0.274,0.137-0.528,0.196-0.802c-0.118,0.254-0.176,0.548-0.234,0.821L14.037,9.577z M14.116,10.905v0.078h0.02v-0.078
		H14.116z M14.253,10.359c0,0.039-0.02,0.078-0.02,0.118l-0.039,0.138h0.039l0.058-0.234L14.253,10.359z M15.524,13.174
		c-0.45,0.45-1.134,2.171-1.271,2.816c-0.02,0.058,0,0.137-0.02,0.196c0.058-0.059,0.078-0.118,0.098-0.176
		c0.214-0.625,0.411-1.252,0.703-1.859l0.489-0.939L15.524,13.174L15.524,13.174z M14.292,10.202c0,0.019,0,0.019,0.02,0.039v-0.039
		H14.292z M14.292,15.131h0.02v-0.019L14.292,15.131z M14.331,10.046l0.039,0.02c-0.02-0.039-0.02-0.078-0.02-0.118
		C14.331,9.985,14.331,10.005,14.331,10.046z M14.389,14.152h0.039l0.176-0.371L14.389,14.152z M14.487,9.439
		c0.098-0.118,0.43-1.564,0.47-1.819l0.039-0.118l0.02-0.078c-0.02,0.019-0.02,0.058-0.02,0.078
		c-0.02,0.039-0.039,0.078-0.039,0.118C14.781,8.226,14.605,8.832,14.487,9.439z M14.742,15.247l-0.02-0.02v0.02H14.742z
		 M14.742,6.858c0.02,0,0.02,0,0.039-0.02v-0.02L14.742,6.858z M14.839,6.564h0.02V6.545L14.839,6.564z M14.898,14.777H14.88
		l0.019,0.02V14.777z M15.035,13.546c0-0.02,0-0.02,0.02-0.039h-0.02V13.546z M15.055,7.307l0.019-0.058h-0.019V7.307z M15.074,9.81
		l-0.019,0.02h0.019V9.81z M15.094,7.13h0.02V7.091h-0.02V7.13z M15.133,6.955h0.02v-0.02L15.133,6.955z M15.289,9.008h-0.02v0.039
		C15.269,9.028,15.269,9.028,15.289,9.008z M15.504,8.246h-0.02v0.02L15.504,8.246z M15.583,7.932h-0.02v0.02L15.583,7.932z
		 M15.622,13.017c-0.02,0.039-0.058,0.078-0.058,0.118C15.583,13.096,15.622,13.057,15.622,13.017z M15.622,7.796
		c-0.02,0-0.02,0-0.02,0.02h0.02V7.796z M15.896,5.879c0.059-0.118,0.118-0.234,0.118-0.371l-0.039-0.02
		C15.935,5.625,15.915,5.743,15.896,5.879z M16.033,5.352h0.019c0-0.02,0-0.059-0.019-0.078l0.058-0.078l-0.02-0.021
		c0,0.039-0.02,0.058-0.039,0.098L16.033,5.352L16.033,5.352z M17.656,16.225h-0.02v0.078l0.02-0.019V16.225z M17.734,15.638h-0.02
		c0,0.019,0.02,0.019,0.02,0.039C17.734,15.677,17.734,15.638,17.734,15.638z M17.831,15.013l-0.039,0.137h0.039V15.013z
		 M18.438,12.079c-0.254,0.88-0.411,1.76-0.568,2.66c0.138-0.313,0.176-0.723,0.254-1.037
		C18.242,13.154,18.359,12.626,18.438,12.079z M18.477,11.923h-0.039v0.098L18.477,11.923z"/>
	<path class="st0" d="M26.692,3.337c0.568,0,1.193,0.9,1.193,1.448c0,0.802-0.899,3.521-1.173,4.44
		c-0.157,0.528-0.352,1.057-0.508,1.584l-1.057,3.775c-0.352,1.252-0.627,2.581-0.627,3.872c0,0.371,0.078,0.723,0.177,1.095
		c0.058,0.234,0.157,0.489,0.176,0.723c-0.058,0-0.118,0.02-0.176,0.02c-0.528,0-0.958-0.371-1.251-0.783
		c-0.352-0.489-0.391-1.134-0.391-1.721c0-2.425,1.29-7.022,2.053-9.427c0.234-0.723,1.584-4.126,1.584-4.517
		c0-0.138-0.059-0.274-0.138-0.391C26.575,3.396,26.633,3.337,26.692,3.337z M24.227,16.83c0.098-0.607,0.196-1.193,0.352-1.799
		c0.234-0.939,0.45-1.879,0.704-2.816c0.371-1.31,0.84-2.601,1.153-3.932c-0.254,0.391-1.252,4.069-1.468,4.811
		c-0.391,1.35-0.703,2.739-0.841,4.146C24.169,17.105,24.209,16.968,24.227,16.83z M26.595,7.855
		c-0.078,0.058-0.098,0.118-0.098,0.214L26.595,7.855z M26.653,7.679l-0.039-0.02c-0.019,0.058-0.019,0.137-0.019,0.196
		L26.653,7.679z M26.751,7.346l-0.02-0.019v0.019H26.751z"/>
	<path class="st0" d="M32.01,14.895c-0.43,1.017-1.388,2.758-2.247,3.443c-0.431-0.157-0.743-0.196-0.743-0.743
		c0-1.057,0.234-2.093,0.45-3.13l-0.666,0.684c-0.411,0.43-0.978,1.252-1.662,1.252c-0.489,0-1.213-0.45-1.213-0.998
		c0-1.153,1.233-3.246,2.171-3.912c0.391-0.274,0.88-0.548,1.37-0.548c0.488,0,0.9,0.274,1.252,0.607
		c0.038,0.039,0.078,0.098,0.078,0.157c0,0.039-0.019,0.078-0.039,0.118l-0.568-0.157c-1.408,0.489-2.112,2.073-2.679,3.344
		l0.038,0.039l0.313-0.234l1.878-1.682c0.352-0.313,0.411-0.723,0.86-0.9l0.02,0.196l-0.058,0.019c-0.039,0.078,0,0.059-0.078,0.138
		l0.058-0.02l0.02-0.098l0.058-0.039c0.019-0.039,0.058-0.078,0.118-0.078c0.039,0,0.078,0.039,0.098,0.059l-0.02,0.137l0.078-0.039
		v-0.02l0.098,0.039c-0.157,0.489-0.332,0.958-0.508,1.428l-0.019,0.019c0.019,0,0.019,0,0.019-0.019
		c0.019-0.02,0.058-0.039,0.058-0.078c0.196-0.43,0.352-0.88,0.568-1.29c0.097,0.02,0.176,0.078,0.176,0.176
		c0,0.137-0.058,0.274-0.098,0.391c-0.254,0.704-1.114,3.13-1.114,3.755c0.254-0.157,0.45-0.43,0.646-0.644h0.038
		c-0.254,0.371-0.607,0.684-0.782,1.095h-0.02v0.02c0.02,0,0.02,0,0.02-0.02c0.352-0.352,0.664-0.782,0.978-1.173
		c0.078-0.098,0.158-0.254,0.254-0.352l0.098-0.098c-0.411,0.703-1.057,1.35-1.408,2.073l0.627-0.723l-0.177,0.332l0.138-0.098
		l0.019,0.078c0.02-0.098,0.118-0.214,0.177-0.312H30.7v-0.02l-0.019,0.02h-0.039c0.058-0.157,0.078-0.254,0.214-0.352v0.078
		l0.039-0.078l0.058-0.039l0.039-0.078c0.039-0.157,0.196-0.274,0.254-0.43c0.039-0.098,0.118-0.196,0.177-0.293h-0.02l0.039-0.078
		h-0.019l0.118-0.214l0.019,0.078c0.02-0.098,0.078-0.176,0.118-0.254h-0.02l0.059-0.039c0.038-0.059,0.058-0.118,0.078-0.176v0.019
		C31.855,15.111,31.933,15.013,32.01,14.895z M26.575,14.27c0,0.02-0.02,0.039-0.02,0.058h0.02V14.27z M26.692,14.035
		c0.254-0.431,0.489-0.9,0.763-1.31c0.059-0.078,0.234-0.293,0.234-0.391l-0.039,0.078c-0.273,0.274-0.88,1.33-1.017,1.702
		c-0.019,0.02-0.039,0.058-0.039,0.098l0.039-0.098C26.652,14.093,26.692,14.074,26.692,14.035z M26.887,14.425l0.058-0.137
		c-0.038,0.02-0.038,0.098-0.078,0.137H26.887z M26.926,15.345c-0.019,0.02-0.019,0.058-0.019,0.078h0.019V15.345z M28.549,12.372
		c-0.508,0.313-1.252,1.702-1.448,2.269c-0.078,0.214-0.118,0.45-0.176,0.664c0.039-0.039,0.058-0.078,0.078-0.137
		C27.376,14.192,27.885,13.174,28.549,12.372z M27.005,14.113c0.196-0.371,0.431-0.703,0.646-1.057v-0.039
		C27.395,13.37,27.181,13.702,27.005,14.113z M27.747,12.274l0.059-0.039h-0.02L27.747,12.274z M27.845,12.744h0.039v-0.02
		C27.865,12.744,27.865,12.744,27.845,12.744z M27.943,12.608h0.02v-0.02C27.943,12.587,27.943,12.587,27.943,12.608z
		 M29.899,16.088h0.02v-0.039h-0.02V16.088z M29.977,17.926c-0.02,0-0.039,0.02-0.039,0.039L29.977,17.926z M29.977,15.697
		l0.019,0.039v-0.059L29.977,15.697z M30.134,17.73l-0.138,0.176C30.055,17.848,30.134,17.829,30.134,17.73z M30.076,15.365h0.019
		v-0.098C30.076,15.306,30.076,15.325,30.076,15.365z M30.095,15.188l0.039-0.078h-0.019L30.095,15.188z M30.134,15.091
		c0.098-0.118,0.118-0.254,0.138-0.391C30.213,14.837,30.172,14.954,30.134,15.091z M30.172,17.789c-0.02,0-0.02,0.019-0.039,0.019
		C30.152,17.809,30.172,17.809,30.172,17.789z M30.25,17.653c0-0.039,0.02-0.078,0.02-0.118l-0.118,0.176L30.25,17.653z
		 M30.25,12.997l0.157-0.293C30.349,12.764,30.27,12.901,30.25,12.997z M30.29,17.614l-0.019,0.019
		C30.29,17.633,30.29,17.633,30.29,17.614z M30.31,14.543c-0.02,0.02-0.02,0.039-0.02,0.058L30.31,14.543z M30.369,17.594
		c-0.02,0-0.02,0.02-0.039,0.02h0.039V17.594z M30.369,14.347c-0.02,0.02-0.02,0.058-0.02,0.098l0.02-0.039V14.347z M30.506,17.418
		h-0.019l-0.058,0.039h0.019L30.506,17.418z M30.565,12.96c0,0,0.019,0.039,0.019,0.058l0.078-0.157
		C30.602,12.881,30.565,12.901,30.565,12.96z M30.662,12.842c0.019-0.039,0.019-0.058,0.019-0.098
		C30.662,12.783,30.662,12.802,30.662,12.842z M30.857,16.83c-0.019,0.02-0.019,0.059-0.019,0.078
		C30.857,16.89,30.857,16.85,30.857,16.83z"/>
	<path class="st0" d="M39.699,3.337c0.568,0,1.193,0.9,1.193,1.448c0,0.802-0.899,3.521-1.173,4.44
		c-0.157,0.528-0.352,1.057-0.508,1.584l-1.057,3.775c-0.352,1.252-0.627,2.581-0.627,3.872c0,0.371,0.078,0.723,0.177,1.095
		c0.058,0.234,0.157,0.489,0.176,0.723c-0.058,0-0.118,0.02-0.176,0.02c-0.528,0-0.958-0.371-1.252-0.783
		c-0.352-0.489-0.391-1.134-0.391-1.721c0-2.425,1.291-7.022,2.053-9.427c0.234-0.723,1.584-4.126,1.584-4.517
		c0-0.138-0.059-0.274-0.138-0.391C39.581,3.396,39.639,3.337,39.699,3.337z M37.234,16.83c0.098-0.607,0.196-1.193,0.352-1.799
		c0.234-0.939,0.45-1.879,0.704-2.816c0.371-1.31,0.84-2.601,1.153-3.932c-0.254,0.391-1.252,4.069-1.468,4.811
		c-0.391,1.35-0.703,2.739-0.841,4.146C37.175,17.105,37.214,16.968,37.234,16.83z M39.601,7.855
		c-0.078,0.058-0.098,0.118-0.098,0.214L39.601,7.855z M39.659,7.679l-0.039-0.02c-0.019,0.058-0.019,0.137-0.019,0.196
		L39.659,7.679z M39.757,7.346l-0.02-0.019v0.019H39.757z"/>
	<path class="st0" d="M45.018,14.895c-0.43,1.017-1.388,2.758-2.247,3.443c-0.431-0.157-0.743-0.196-0.743-0.743
		c0-1.057,0.234-2.093,0.45-3.13l-0.666,0.684c-0.411,0.43-0.978,1.252-1.662,1.252c-0.489,0-1.213-0.45-1.213-0.998
		c0-1.153,1.233-3.246,2.171-3.912c0.391-0.274,0.88-0.548,1.37-0.548c0.488,0,0.9,0.274,1.252,0.607
		c0.038,0.039,0.078,0.098,0.078,0.157c0,0.039-0.019,0.078-0.039,0.118L43.2,11.669c-1.408,0.489-2.112,2.073-2.679,3.344
		l0.038,0.039l0.313-0.234l1.878-1.682c0.352-0.313,0.411-0.723,0.86-0.9l0.02,0.196l-0.058,0.019c-0.039,0.078,0,0.059-0.078,0.138
		l0.058-0.02l0.02-0.098l0.058-0.039c0.019-0.039,0.058-0.078,0.118-0.078c0.039,0,0.078,0.039,0.098,0.059l-0.02,0.137l0.078-0.039
		v-0.02l0.098,0.039c-0.157,0.489-0.332,0.958-0.508,1.428l-0.019,0.019c0.019,0,0.019,0,0.019-0.019
		c0.019-0.02,0.058-0.039,0.058-0.078c0.196-0.43,0.352-0.88,0.568-1.29c0.097,0.02,0.176,0.078,0.176,0.176
		c0,0.137-0.058,0.274-0.098,0.391c-0.254,0.704-1.114,3.13-1.114,3.755c0.254-0.157,0.45-0.43,0.646-0.644h0.038
		c-0.254,0.371-0.607,0.684-0.782,1.095h-0.02v0.02c0.02,0,0.02,0,0.02-0.02c0.352-0.352,0.664-0.782,0.978-1.173
		c0.078-0.098,0.158-0.254,0.254-0.352l0.098-0.098c-0.411,0.703-1.057,1.35-1.408,2.073l0.627-0.723l-0.177,0.332l0.138-0.098
		l0.019,0.078c0.02-0.098,0.118-0.214,0.177-0.312h0.019v-0.02l-0.019,0.02H43.65c0.058-0.157,0.078-0.254,0.214-0.352v0.078
		l0.039-0.078l0.058-0.039L44,16.62c0.039-0.157,0.196-0.274,0.254-0.43c0.039-0.098,0.118-0.196,0.177-0.293h-0.02l0.039-0.078
		h-0.019l0.118-0.214l0.019,0.078c0.02-0.098,0.078-0.176,0.118-0.254h-0.02l0.059-0.039c0.038-0.059,0.058-0.118,0.078-0.176v0.019
		C44.861,15.111,44.941,15.013,45.018,14.895z M39.582,14.27c0,0.02-0.02,0.039-0.02,0.058h0.02V14.27z M39.699,14.035
		c0.254-0.431,0.489-0.9,0.763-1.31c0.059-0.078,0.234-0.293,0.234-0.391l-0.039,0.078c-0.273,0.274-0.88,1.33-1.017,1.702
		c-0.019,0.02-0.039,0.058-0.039,0.098l0.039-0.098C39.659,14.093,39.699,14.074,39.699,14.035z M39.894,14.425l0.058-0.137
		c-0.038,0.02-0.038,0.098-0.078,0.137H39.894z M39.934,15.345c-0.019,0.02-0.019,0.058-0.019,0.078h0.019V15.345z M41.557,12.372
		c-0.508,0.313-1.252,1.702-1.448,2.269c-0.078,0.214-0.118,0.45-0.176,0.664c0.039-0.039,0.058-0.078,0.078-0.137
		C40.384,14.192,40.892,13.174,41.557,12.372z M40.012,14.113c0.196-0.371,0.431-0.703,0.646-1.057v-0.039
		C40.403,13.37,40.188,13.702,40.012,14.113z M40.755,12.274l0.059-0.039h-0.02L40.755,12.274z M40.853,12.744h0.039v-0.02
		C40.873,12.744,40.873,12.744,40.853,12.744z M40.95,12.608h0.02v-0.02C40.95,12.587,40.95,12.587,40.95,12.608z M42.906,16.088
		h0.02v-0.039h-0.02V16.088z M42.985,17.926c-0.02,0-0.039,0.02-0.039,0.039L42.985,17.926z M42.985,15.697l0.019,0.039v-0.059
		L42.985,15.697z M43.141,17.73l-0.138,0.176C43.062,17.848,43.141,17.829,43.141,17.73z M43.082,15.365h0.019v-0.098
		C43.082,15.306,43.082,15.325,43.082,15.365z M43.101,15.188l0.039-0.078h-0.019L43.101,15.188z M43.141,15.091
		c0.098-0.118,0.118-0.254,0.138-0.391C43.22,14.837,43.181,14.954,43.141,15.091z M43.181,17.789c-0.02,0-0.02,0.019-0.039,0.019
		C43.16,17.809,43.181,17.809,43.181,17.789z M43.258,17.653c0-0.039,0.02-0.078,0.02-0.118L43.16,17.71L43.258,17.653z
		 M43.258,12.997l0.157-0.293C43.356,12.764,43.278,12.901,43.258,12.997z M43.298,17.614l-0.019,0.019
		C43.298,17.633,43.298,17.633,43.298,17.614z M43.318,14.543c-0.02,0.02-0.02,0.039-0.02,0.059L43.318,14.543z M43.376,17.594
		c-0.02,0-0.02,0.02-0.039,0.02h0.039V17.594z M43.376,14.347c-0.02,0.02-0.02,0.058-0.02,0.098l0.02-0.039V14.347z M43.512,17.418
		h-0.019l-0.058,0.039h0.019L43.512,17.418z M43.571,12.96c0,0,0.019,0.039,0.019,0.058l0.078-0.157
		C43.61,12.881,43.571,12.901,43.571,12.96z M43.67,12.842c0.019-0.039,0.019-0.058,0.019-0.098
		C43.67,12.783,43.67,12.802,43.67,12.842z M43.865,16.83c-0.019,0.02-0.019,0.059-0.019,0.078
		C43.865,16.89,43.865,16.85,43.865,16.83z"/>
</g>
</svg>
