<?xml version="1.0" encoding="utf-8"?>
<!-- Generator: Adobe Illustrator 23.0.4, SVG Export Plug-In . SVG Version: 6.00 Build 0)  -->
<svg version="1.1" id="Layer_1" xmlns="http://www.w3.org/2000/svg" xmlns:xlink="http://www.w3.org/1999/xlink" x="0px" y="0px"
	 viewBox="0 0 360 312" style="enable-background:new 0 0 360 312;" xml:space="preserve">
<style type="text/css">
	.st0{opacity:0.4;}
	.st1{fill:#310940;}
	.st2{fill:#E2BEAE;}
	.st3{fill:#92ACB2;}
	.st4{fill:#8B3D6E;}
	.st5{fill:#FFF360;}
	.st6{fill:#EC509C;}
	.st7{fill:#FFFFFF;}
	.st8{fill:#A9E0F7;}
	.st9{fill:#301118;}
	.st10{fill:#D48BBC;}
	.st11{fill:#50B848;}
	.st12{fill:#CBAD95;}
	.st13{fill:#443E39;}
	.st14{fill:#E4A2AC;}
	.st15{fill:#E7BA2D;}
	.st16{opacity:0.25;}
	.st17{fill:#078366;}
</style>
<g>
	<path d="M53.884,7.497l-0.021-0.02c-1.544-1.362-3.286-2.415-5.176-3.133c-3.782-1.431-7.711-1.431-11.491,0
		c-1.894,0.717-3.608,1.774-5.097,3.142c-1.554,1.435-2.814,3.251-3.742,5.396c-0.928,2.141-1.398,4.634-1.398,7.409v35.312
		c0,2.901,0.473,5.429,1.402,7.511c0.931,2.084,2.194,3.838,3.729,5.19c1.49,1.437,3.209,2.528,5.107,3.246
		c1.887,0.713,3.822,1.077,5.746,1.077s3.858-0.363,5.747-1.077c1.894-0.717,3.639-1.807,5.187-3.235
		c1.495-1.374,2.724-3.123,3.652-5.201c0.93-2.082,1.402-4.61,1.402-7.511V20.29c0-2.774-0.471-5.267-1.398-7.409
		C56.6,10.744,55.375,8.932,53.884,7.497z M48.428,20.292v35.312c0,2.104-0.541,3.653-1.608,4.609
		c-1.103,0.988-2.372,1.47-3.882,1.47c-1.51,0-2.779-0.481-3.882-1.471c-1.067-0.953-1.607-2.502-1.607-4.607V20.292
		c0-2.104,0.541-3.653,1.607-4.607c1.104-0.988,2.372-1.47,3.882-1.47c1.51,0,2.778,0.481,3.882,1.468
		C47.888,16.641,48.428,18.191,48.428,20.292z"/>
	<polygon points="58.601,14.216 69.159,14.216 69.159,72.068 79.655,72.068 79.655,14.216 90.214,14.216 90.214,3.83 58.601,3.83 	
		"/>
	<rect x="91.77" y="3.83" width="10.494" height="68.236"/>
	<path d="M129.892,4.646c-1.962-0.914-4.15-1.378-6.508-1.378c-2.776,0-5.214,0.514-7.241,1.528
		c-2.025,1.014-3.715,2.392-5.012,4.08c-1.367,1.691-2.402,3.73-3.079,6.06c-0.671,2.304-1.011,4.77-1.011,7.329
		c0,4.279,0.7,7.904,2.081,10.769c1.408,2.926,4.19,5.297,8.263,7.045l6.525,2.815c1.098,0.486,1.985,0.944,2.638,1.361
		c0.596,0.38,1.078,0.875,1.415,1.428c0.316,0.61,0.534,1.445,0.646,2.481c0.116,1.103,0.176,2.532,0.176,4.249
		c0,1.467-0.044,2.824-0.133,4.035c-0.083,1.117-0.341,2.082-0.77,2.869c-0.414,0.764-0.983,1.335-1.735,1.744
		c-0.765,0.413-1.874,0.621-3.299,0.621c-2.108,0-3.549-0.597-4.405-1.821c-0.911-1.304-1.353-2.726-1.353-4.35v-3.692h-10.494
		v4.255c0,2.338,0.424,4.529,1.261,6.511c0.834,1.978,1.978,3.739,3.399,5.23c1.434,1.505,3.166,2.696,5.15,3.539
		c1.984,0.845,4.152,1.275,6.443,1.275c3.012,0,5.614-0.53,7.731-1.572c2.121-1.048,3.862-2.511,5.176-4.353
		c1.24-1.752,2.148-3.906,2.705-6.397c0.546-2.454,0.823-5.143,0.823-7.991c0-2.439-0.121-4.663-0.364-6.614
		c-0.249-1.969-0.714-3.753-1.408-5.336c-0.753-1.514-1.801-2.865-3.115-4.015c-1.304-1.141-3.025-2.144-5.107-2.981l-6.978-2.911
		c-1.137-0.477-2.038-0.955-2.679-1.425c-0.597-0.434-1.055-0.955-1.361-1.545c-0.317-0.613-0.518-1.318-0.598-2.104
		c-0.086-0.854-0.131-1.937-0.131-3.218c0-1.084,0.086-2.137,0.26-3.125c0.163-0.948,0.466-1.804,0.884-2.519
		c0.427-0.673,0.975-1.218,1.675-1.671c0.657-0.426,1.557-0.641,2.668-0.641c2.092,0,3.526,0.677,4.383,2.069
		c0.913,1.478,1.377,3.269,1.377,5.321v2.845h10.496v-5.381c0-4.037-1.445-7.669-4.306-10.803
		C133.551,6.774,131.84,5.556,129.892,4.646z"/>
	<path d="M153.782,26.574c-0.911,0.96-1.365,2.331-1.365,4.117v2.117h-2.889v1.582h2.889v15.89h1.938V34.389h4.167v-1.582h-4.167
		v-2.171c0-1.22,0.297-2.162,0.888-2.825c0.591-0.664,1.42-0.995,2.486-0.995c0.634,0,1.221,0.064,1.76,0.194l0.146-1.601
		c-0.637-0.18-1.321-0.271-2.051-0.271C155.959,25.138,154.692,25.616,153.782,26.574z"/>
	<path d="M167.87,32.486c-1.508,0-2.856,0.374-4.045,1.121c-1.191,0.748-2.109,1.794-2.762,3.142
		c-0.653,1.345-0.977,2.858-0.977,4.539v0.387c0,2.692,0.726,4.853,2.174,6.484c1.447,1.632,3.329,2.448,5.644,2.448
		c1.518,0,2.868-0.366,4.053-1.098c1.185-0.733,2.102-1.772,2.754-3.125c0.651-1.351,0.975-2.872,0.975-4.562v-0.404
		c0-2.691-0.721-4.853-2.164-6.484C172.08,33.302,170.195,32.486,167.87,32.486z M173.764,41.659c0,2.195-0.541,3.965-1.622,5.306
		c-1.083,1.341-2.495,2.011-4.24,2.011c-1.757,0-3.173-0.671-4.255-2.011s-1.622-3.055-1.622-5.143v-0.354
		c0-2.185,0.544-3.953,1.631-5.306c1.087-1.352,2.492-2.027,4.215-2.027c1.151,0,2.174,0.304,3.069,0.913
		c0.894,0.608,1.59,1.467,2.084,2.575c0.496,1.108,0.743,2.331,0.743,3.666v0.37H173.764z"/>
	<path d="M180.771,35.586l-0.033-2.776h-1.891v17.471h1.922v-12c0.354-1.281,0.95-2.258,1.784-2.931
		c0.834-0.673,1.854-1.01,3.061-1.01c0.463,0,0.898,0.039,1.307,0.113l0.049-1.76c-0.311-0.139-0.737-0.209-1.275-0.209
		C183.433,32.486,181.793,33.518,180.771,35.586z"/>
	<path d="M202.773,32.486c-1.355,0-2.616,0.384-3.778,1.155c-1.163,0.77-2.069,1.828-2.722,3.173
		c-0.653,1.345-0.977,2.859-0.977,4.539v0.694c0,1.625,0.333,3.092,1.001,4.4c0.668,1.31,1.602,2.328,2.802,3.061
		c1.201,0.733,2.544,1.098,4.03,1.098c2.702,0,4.763-1.028,6.184-3.085l-1.21-0.921c-0.646,0.828-1.365,1.431-2.158,1.81
		c-0.793,0.376-1.704,0.566-2.735,0.566c-1.724,0-3.152-0.66-4.289-1.978c-1.137-1.318-1.704-2.969-1.704-4.949v-0.371h12.467
		v-1.083c0-2.508-0.621-4.487-1.865-5.936C206.578,33.21,204.896,32.486,202.773,32.486z M207.763,40.026h-10.48
		c0.216-1.798,0.82-3.231,1.818-4.296c0.995-1.065,2.221-1.6,3.673-1.6c1.465,0,2.649,0.527,3.555,1.582
		c0.904,1.055,1.384,2.422,1.437,4.103v0.21C207.766,40.026,207.763,40.026,207.763,40.026z"/>
	<path d="M223.992,35.279c-1.238-1.862-3.035-2.794-5.393-2.794c-2.078,0-3.723,0.805-4.934,2.414
		c-1.211,1.611-1.818,3.772-1.818,6.484v0.227c0,2.758,0.617,4.944,1.85,6.565c1.231,1.621,2.856,2.431,4.869,2.431
		c2.399,0,4.22-0.883,5.459-2.649l0.081,2.325h1.81V25.477h-1.922v9.803l0,0V35.279z M223.992,45.776
		c-1.001,2.099-2.691,3.149-5.071,3.149c-1.624,0-2.885-0.644-3.778-1.931c-0.893-1.285-1.341-3.043-1.341-5.273
		c0-2.486,0.451-4.369,1.355-5.646c0.904-1.275,2.171-1.914,3.795-1.914c2.359,0,4.037,1.137,5.039,3.408v8.203h0.001V45.776z"/>
	<path d="M241.381,45.453c-0.743,2.315-2.514,3.473-5.311,3.473c-2.692,0-4.037-1.664-4.037-4.99V32.811h-1.922v11.37
		c0.021,2.121,0.517,3.723,1.484,4.803c0.97,1.084,2.384,1.624,4.246,1.624c2.552,0,4.409-0.845,5.57-2.536l0.033,2.212h1.874
		V32.807h-1.938v12.645h0.003V45.453z"/>
	<path d="M249.898,36.022c0.964-1.26,2.317-1.889,4.062-1.889c1.367,0,2.501,0.42,3.401,1.26c0.9,0.84,1.393,1.944,1.478,3.311
		h1.858c-0.086-1.862-0.751-3.365-1.994-4.504c-1.244-1.141-2.825-1.711-4.74-1.711c-1.507,0-2.824,0.361-3.949,1.083
		c-1.125,0.723-1.988,1.745-2.591,3.069s-0.904,2.848-0.904,4.57v0.581c0,2.692,0.67,4.834,2.011,6.427
		c1.341,1.594,3.156,2.391,5.45,2.391c1.163,0,2.252-0.249,3.271-0.744c1.02-0.496,1.832-1.18,2.448-2.058
		c0.614-0.877,0.948-1.849,1.001-2.915h-1.858c-0.074,1.207-0.568,2.189-1.478,2.948c-0.91,0.758-2.037,1.14-3.383,1.14
		c-1.755,0-3.113-0.624-4.077-1.874c-0.963-1.25-1.445-2.988-1.445-5.216v-0.566C248.452,39.047,248.935,37.281,249.898,36.022z"/>
	<path d="M276.289,38.025c-0.033-1.745-0.611-3.103-1.737-4.077s-2.661-1.461-4.612-1.461c-1.884,0-3.472,0.508-4.763,1.527
		c-1.291,1.017-1.937,2.221-1.937,3.609l1.937,0.017c0-0.968,0.443-1.798,1.325-2.486c0.881-0.69,1.997-1.034,3.343-1.034
		c1.475,0,2.596,0.358,3.366,1.074c0.768,0.716,1.153,1.698,1.153,2.948v1.987h-3.505c-2.528,0-4.503,0.496-5.918,1.487
		c-1.415,0.991-2.122,2.337-2.122,4.037c0,1.431,0.518,2.616,1.558,3.555c1.038,0.934,2.398,1.405,4.077,1.405
		c1.173,0,2.287-0.241,3.335-0.72c1.051-0.478,1.914-1.161,2.591-2.042c0.053,1.077,0.177,1.889,0.373,2.439h2.067v-0.194
		c-0.354-0.84-0.531-2.104-0.531-3.795v-8.272h0V38.025z M274.367,45.453c-0.463,1.044-1.203,1.879-2.221,2.504
		c-1.017,0.624-2.174,0.935-3.465,0.935c-1.163,0-2.107-0.323-2.835-0.968c-0.726-0.646-1.088-1.458-1.088-2.439
		c0-1.197,0.544-2.134,1.631-2.818c1.087-0.684,2.594-1.035,4.522-1.057h3.456L274.367,45.453L274.367,45.453z"/>
	<path d="M285.897,48.925c-0.818,0-1.404-0.239-1.752-0.713c-0.351-0.474-0.526-1.197-0.526-2.167V34.389h3.619v-1.582h-3.619
		v-4.473h-1.937v4.473h-3.213v1.582h3.213v11.66c0,1.497,0.301,2.629,0.904,3.401c0.601,0.77,1.565,1.155,2.889,1.155
		c0.871,0,1.561-0.093,2.068-0.271l-0.081-1.57C286.741,48.871,286.219,48.925,285.897,48.925z"/>
	<path d="M296.811,32.486c-1.508,0-2.856,0.374-4.045,1.121c-1.191,0.748-2.109,1.794-2.762,3.142
		c-0.653,1.345-0.977,2.858-0.977,4.539v0.387c0,2.692,0.726,4.853,2.174,6.484c1.447,1.632,3.329,2.448,5.644,2.448
		c1.518,0,2.868-0.366,4.053-1.098c1.185-0.733,2.102-1.772,2.754-3.125c0.651-1.351,0.975-2.872,0.975-4.562v-0.404
		c0-2.691-0.721-4.853-2.164-6.484C301.021,33.302,299.134,32.486,296.811,32.486z M302.705,41.659c0,2.195-0.541,3.965-1.622,5.306
		c-1.083,1.341-2.495,2.011-4.24,2.011c-1.757,0-3.173-0.671-4.255-2.011c-1.081-1.34-1.622-3.055-1.622-5.143v-0.354
		c0-2.185,0.544-3.953,1.631-5.306c1.087-1.352,2.492-2.027,4.215-2.027c1.151,0,2.174,0.304,3.069,0.913
		c0.894,0.608,1.59,1.467,2.084,2.575c0.496,1.108,0.743,2.331,0.743,3.666v0.37H302.705z"/>
	<path d="M309.709,35.586l-0.033-2.776h-1.891v17.471h1.922v-12c0.354-1.281,0.95-2.258,1.784-2.931
		c0.834-0.673,1.854-1.01,3.061-1.01c0.463,0,0.898,0.039,1.307,0.113l0.049-1.76c-0.311-0.139-0.737-0.209-1.275-0.209
		C312.374,32.486,310.731,33.518,309.709,35.586z"/>
	<path d="M327.995,41.803c-0.846-0.451-2.114-0.877-3.81-1.275c-1.695-0.397-2.865-0.837-3.505-1.315
		c-0.64-0.478-0.961-1.155-0.961-2.027c0-0.904,0.384-1.641,1.155-2.205c0.768-0.566,1.789-0.848,3.061-0.848
		c1.302,0,2.382,0.34,3.238,1.017c0.857,0.68,1.283,1.53,1.283,2.552h1.938c0-1.551-0.588-2.806-1.768-3.772
		c-1.178-0.963-2.742-1.445-4.69-1.445c-1.798,0-3.275,0.448-4.426,1.348c-1.151,0.9-1.728,2.037-1.728,3.415
		c0,0.871,0.207,1.615,0.623,2.228c0.414,0.614,1.048,1.134,1.904,1.558c0.857,0.426,2.059,0.803,3.61,1.131
		c1.551,0.33,2.711,0.784,3.482,1.364c0.768,0.581,1.153,1.351,1.153,2.309c0,0.904-0.414,1.654-1.243,2.244
		c-0.83,0.591-1.917,0.89-3.262,0.89c-1.442,0-2.604-0.314-3.482-0.945c-0.877-0.63-1.354-1.51-1.428-2.639H317.2
		c0,1.508,0.633,2.754,1.899,3.738c1.265,0.985,2.915,1.48,4.949,1.48c1.915,0,3.469-0.443,4.659-1.325
		c1.19-0.883,1.785-2.061,1.785-3.536c0-0.904-0.204-1.674-0.613-2.309C329.468,42.798,328.841,42.254,327.995,41.803z"/>
	<path d="M336.262,48.208c-0.241-0.256-0.568-0.381-0.978-0.381c-0.41,0-0.731,0.127-0.968,0.381
		c-0.238,0.256-0.356,0.567-0.356,0.933c0,0.36,0.117,0.658,0.356,0.903c0.237,0.244,0.558,0.366,0.968,0.366
		c0.41,0,0.736-0.121,0.978-0.366c0.241-0.244,0.364-0.544,0.364-0.903C336.624,48.775,336.503,48.464,336.262,48.208z"/>
	<polygon points="336.074,43.724 336.189,26.767 334.186,26.767 334.284,43.724 	"/>
	<polygon points="339.778,25.592 342.141,25.592 342.141,31.92 343.09,31.92 343.09,25.592 345.462,25.592 345.462,24.748 
		339.778,24.748 	"/>
	<path d="M350.006,29.738c-0.173,0.506-0.3,0.888-0.381,1.15c-0.073-0.236-0.187-0.588-0.343-1.063l-1.698-5.079h-1.428v7.172h0.914
		v-6.105l2.075,6.105h0.857l2.084-6.003v6.003H353v-7.172h-1.275L350.006,29.738z"/>
</g>
<g>
	<g class="st0">
		<path class="st1" d="M245.147,293.386c0-4.594-52.909-8.319-118.173-8.319S8.8,288.791,8.8,293.386
			c0,2.738,18.771,5.165,47.744,6.681c-0.48,0.253-0.739,0.515-0.739,0.783c0,2.079,15.153,3.764,33.846,3.764
			c16.064,0,29.504-1.245,32.969-2.914c1.446,0.005,2.895,0.007,4.353,0.007c4.339,0,8.623-0.016,12.842-0.049
			c3.322,1.69,16.857,2.958,33.057,2.958c18.693,0,33.846-1.685,33.846-3.764c0-0.424-0.64-0.83-1.801-1.21
			C229.579,298.112,245.147,295.877,245.147,293.386z"/>
	</g>
	<g>
		<path class="st2" d="M221.674,141.439c1.994,0.867,3.822,2.344,5.994,2.425c0.241,0.009,0.471,0.009,0.691,0.005
			c5.325-0.132,5.037-4.346,7.904-7.656c0.96-1.108,2.228-1.91,3.547-2.55c9.504-4.601,24.866,0.582,23.955,12.673
			c-0.301,4.003-2.063,7.754-4.126,11.196c-5.461,9.105-14.666,12.888-21.444,20.633c-1.602,1.831-3.414,3.458-5.232,5.072
			c-1.903,1.69-3.055,3.215-4.432,5.35c-3.359,5.218-7.318,10.144-10.742,15.373c-3.155,4.817-6.191,9.71-9.108,14.675
			c-1.168,1.991-3.936,8.704-7.179,7.758c-3.625-1.057-2.272-11.599-3.792-14.379c-2.777-5.074-5.167-7.842-4.569-14.07
			c0.331-3.44,1.924-6.226,3.994-8.857c1.307-1.662,2.369-3.595,3.533-5.359c0.663-1.008,3.18-3.669,3.18-4.826
			c1.648-2.501,3.148-5.257,5.144-7.49c2.408-2.691,4.453-5.746,6.477-8.764c0.994-1.484,1.961-3.053,2.239-4.815
			c0.394-2.515-0.809-4.397-1.4-6.713C215.286,147.113,214.987,138.532,221.674,141.439z"/>
	</g>
	<g>
		<path d="M202.808,228.286c1.377-2.251,2.717-4.525,4.04-6.806c1.335-2.274,2.645-4.562,3.948-6.857
			c2.612-4.583,5.178-9.2,7.93-13.725c2.763-4.516,5.688-8.957,8.952-13.171c3.266-4.21,6.859-8.19,10.79-11.82
			c1.961-1.82,4.003-3.551,6.12-5.19c2.061-1.613,4.066-3.259,5.969-5.012c1.901-1.748,3.695-3.598,5.292-5.57
			c0.816-0.974,1.535-2.005,2.223-3.048c0.651-1.059,1.261-2.14,1.734-3.261c0.948-2.244,1.456-4.613,1.326-6.998
			c-0.109-2.388-0.8-4.761-1.738-7.102c-0.471-1.171-1.008-2.337-1.572-3.503c-0.568-1.164-1.159-2.36-1.748-3.509
			c-0.591-1.157-1.194-2.29-1.845-3.338c-0.649-1.043-1.358-2.005-2.14-2.659c-0.783-0.658-1.588-0.981-2.589-1.015
			c-0.997-0.032-2.14,0.211-3.282,0.582c-0.287,0.1-0.575,0.19-0.862,0.306l-0.429,0.165c-0.128,0.056-0.26,0.104-0.382,0.165
			c-0.501,0.229-0.967,0.498-1.391,0.816c-0.846,0.633-1.532,1.474-2.102,2.48c-1.131,2.028-1.827,4.534-2.487,7.035
			c-0.174,0.661-0.299,1.175-0.396,1.783c-0.095,0.593-0.162,1.205-0.213,1.838c-0.118,1.27-0.111,2.582-0.41,4.124
			c-0.165,0.76-0.413,1.667-1.134,2.515c-0.357,0.415-0.828,0.763-1.312,0.985c-0.484,0.22-0.969,0.338-1.414,0.392
			c-0.895,0.104-1.678,0.021-2.415-0.097c-0.369-0.063-0.728-0.134-1.076-0.22l-0.526-0.134c-0.223-0.063-0.436-0.132-0.633-0.213
			c-0.795-0.32-1.433-0.728-2.028-1.14c-0.593-0.415-1.136-0.848-1.66-1.277c-1.045-0.86-2.026-1.727-3.013-2.483
			c-0.971-0.749-2.017-1.423-2.867-1.611c-0.424-0.093-0.721-0.067-1.004,0.063c-0.285,0.125-0.607,0.413-0.902,0.821
			c-0.297,0.406-0.552,0.92-0.744,1.391c-0.178,0.484-0.276,0.978-0.299,1.486c-0.058,1.018,0.26,2.128,0.698,3.292
			c0.443,1.168,1.018,2.388,1.46,3.748c0.218,0.682,0.41,1.393,0.519,2.142c0.107,0.749,0.132,1.523,0.067,2.295
			c-0.16,1.546-0.714,3.013-1.484,4.251c-0.192,0.311-0.382,0.624-0.6,0.909c-0.213,0.297-0.424,0.584-0.614,0.832
			c-0.392,0.522-0.788,1.032-1.175,1.565c-3.113,4.226-6.187,8.523-9.256,12.812l-9.237,12.863c-1.546,2.14-3.104,4.274-4.694,6.386
			c-1.597,2.112-3.171,4.226-4.896,6.273l-0.981-0.809c1.606-2.045,3.115-4.216,4.629-6.368l4.499-6.5l8.915-13.074
			c2.976-4.36,5.913-8.737,8.985-13.062c0.38-0.54,0.783-1.08,1.175-1.62c0.209-0.278,0.38-0.526,0.547-0.77
			c0.181-0.243,0.327-0.498,0.478-0.751c0.605-1.013,0.967-2.086,1.066-3.171c0.079-1.087-0.121-2.197-0.524-3.34
			c-0.389-1.143-0.96-2.309-1.477-3.598c-0.503-1.284-1.001-2.754-0.955-4.39c0.021-0.807,0.169-1.625,0.438-2.383
			c0.292-0.756,0.621-1.435,1.094-2.102c0.471-0.658,1.108-1.342,2.026-1.778c0.452-0.216,0.96-0.35,1.456-0.389
			s0.974,0.007,1.409,0.1c0.876,0.19,1.597,0.54,2.251,0.909c0.651,0.376,1.24,0.786,1.796,1.203
			c1.113,0.837,2.119,1.713,3.12,2.517c0.985,0.793,2.014,1.567,2.9,1.912c0.109,0.044,0.209,0.074,0.304,0.1l0.433,0.102
			c0.294,0.067,0.582,0.118,0.865,0.162c0.563,0.086,1.108,0.111,1.525,0.053c0.209-0.028,0.369-0.081,0.484-0.137
			c0.114-0.058,0.181-0.114,0.253-0.202c0.144-0.162,0.308-0.561,0.401-1.085c0.19-1.055,0.211-2.397,0.315-3.751
			c0.051-0.684,0.118-1.384,0.227-2.093c0.102-0.698,0.283-1.467,0.443-2.084c0.329-1.298,0.677-2.603,1.103-3.915
			c0.431-1.312,0.934-2.638,1.655-3.938c0.719-1.293,1.706-2.559,2.974-3.519c0.628-0.48,1.31-0.876,2.005-1.201
			c0.174-0.083,0.35-0.153,0.524-0.229l0.494-0.192c0.325-0.132,0.665-0.246,0.999-0.364c1.354-0.447,2.826-0.821,4.474-0.765
			c0.818,0.028,1.678,0.188,2.483,0.508c0.807,0.315,1.535,0.781,2.151,1.305c1.24,1.057,2.079,2.274,2.826,3.461
			c0.739,1.196,1.37,2.395,1.98,3.588c0.61,1.201,1.187,2.369,1.773,3.577c0.582,1.208,1.15,2.441,1.66,3.718
			c1.027,2.543,1.81,5.318,1.912,8.217c0.128,2.9-0.54,5.811-1.678,8.403c-0.568,1.303-1.273,2.52-2.019,3.695
			c-0.777,1.15-1.583,2.276-2.476,3.315c-1.762,2.102-3.707,3.996-5.723,5.777c-2.019,1.778-4.135,3.433-6.263,5.025
			c-2.086,1.553-4.098,3.204-6.059,4.914c-7.863,6.843-14.335,15.165-20.125,23.931c-2.909,4.383-5.716,8.85-8.537,13.312
			c-1.412,2.23-2.83,4.458-4.274,6.669C205.807,223.94,204.322,226.123,202.808,228.286z"/>
	</g>
	<g>
		<path class="st2" d="M54.843,283.411c-1.036,1.643-1.903,3.396-2.923,5.03c-0.772,1.236-0.899,2.561-2.167,3.468
			c-2.443,1.748-3.843,1.168-6.604,0.57c-2.617-0.568-5.188-1.333-7.714-2.216c-2.612-0.913-5.482-0.026-8.164,0.369
			c-2.501,0.366-4.907,1.769-7.355,2.415c-3.72,0.983-7.513,0.552-11.117-0.686c-2.381-0.816-9.427-6.738-4.527-9.031
			c2.204-1.032,4.666-1.875,6.947-2.789c2.07-0.828,4.254-1.878,6.321-2.895c1.968-0.971,4.156-1.338,5.834-2.826
			c1.623-1.44,3.424-2.318,5.32-3.412c2.497-1.44,4.917-3.009,7.246-4.703c1.233-0.897,2.601-1.63,3.799-2.568
			c0.962-0.753,1.551-1.706,2.355-2.638c2.311-2.682,4.738-5.32,7.024-7.974c2.476-2.877,4.082-7.334,5.461-10.828
			c1.66-4.203,3.368-8.528,3.938-13.037c0.473-3.751,0.519-7.65,1.78-11.252c0.941-2.689,4.822-5.408,7.749-4.747
			c2.374,0.535,4.585,2.661,7.049,3.421c6.059,1.871,8.326,6.794,8.994,12.689c0.756,6.667-2.659,11.574-5.668,17.221
			c-3.904,7.325-5.906,15.559-10.287,22.64c-1.732,2.798-3.899,5.371-6.551,7.339C58.905,278.956,56.675,280.507,54.843,283.411z"/>
	</g>
	<g>
		<path d="M59.306,209.413c0.403,2.596,0.679,5.22,0.758,7.858c0.07,2.636-0.014,5.283-0.26,7.916
			c-0.484,5.269-1.611,10.508-3.456,15.51c-0.913,2.503-1.987,4.951-3.21,7.323c-1.229,2.371-2.629,4.655-4.154,6.852
			c-3.057,4.388-6.623,8.421-10.633,11.982c-4.026,3.565-8.544,6.569-13.319,9.006c-4.768,2.455-9.84,4.261-14.745,6.02
			c-1.217,0.45-2.425,0.902-3.537,1.412c-0.554,0.255-1.083,0.526-1.541,0.816c-0.445,0.287-0.832,0.61-0.99,0.86
			c-0.172,0.257-0.169,0.348-0.144,0.64c0.06,0.297,0.243,0.73,0.538,1.171c0.283,0.45,0.672,0.892,1.038,1.317
			c0.389,0.403,0.795,0.788,1.24,1.117c0.883,0.663,1.882,1.157,2.969,1.481c1.092,0.318,2.262,0.473,3.465,0.517
			c2.413,0.083,4.937-0.28,7.476-0.726c2.545-0.45,5.121-1.008,7.782-1.423c0.665-0.104,1.335-0.199,2.012-0.278
			c0.343-0.035,0.644-0.088,1.122-0.104c0.427-0.014,0.818,0.009,1.196,0.044c1.5,0.153,2.814,0.48,4.119,0.814
			c2.587,0.672,5.079,1.449,7.515,1.898c1.198,0.218,2.427,0.352,3.359,0.209c0.464-0.07,0.772-0.22,0.902-0.35
			c0.072-0.072,0.121-0.125,0.181-0.267c0.137-0.318,0.276-0.635,0.422-0.946c1.161-2.487,2.538-4.838,4.161-7.051
			c1.63-2.2,3.507-4.279,5.823-5.964c1.159-0.834,2.448-1.551,3.853-2.056c1.416-0.482,2.942-0.744,4.49-0.628
			c0.8,0.056,1.59,0.241,2.313,0.503c0.719,0.255,1.388,0.603,1.903,0.837c0.239,0.116,0.484,0.181,0.415,0.162
			c-0.016,0.002-0.162,0.009-0.248,0.063c-0.1,0.063-0.118,0.081-0.107,0.076c0.035-0.028,0.151-0.239,0.236-0.464
			c0.095-0.227,0.178-0.508,0.26-0.788c0.158-0.559,0.294-1.212,0.408-1.78c0.049-0.232,0.058-0.436,0.051-0.531
			c-0.021-0.104,0.012-0.002,0.072,0.03c0.051,0.026-0.042-0.046-0.248-0.081c-0.202-0.042-0.48-0.063-0.79-0.079
			c-0.313-0.016-0.656-0.023-1.048-0.06c-0.392-0.042-0.839-0.086-1.4-0.336c-0.276-0.128-0.584-0.327-0.837-0.617
			c-0.253-0.287-0.422-0.64-0.505-0.953c-0.162-0.637-0.095-1.122-0.025-1.546c0.079-0.42,0.202-0.804,0.304-1.106l0.318-0.964
			c0.204-0.651,0.447-1.259,0.672-1.887c0.227-0.626,0.459-1.247,0.702-1.859c1.926-4.921,3.985-9.757,6.071-14.587
			c2.091-4.826,4.226-9.629,6.402-14.416c1.083-2.395,2.195-4.78,3.326-7.153c1.143-2.374,2.267-4.743,3.523-7.086l1.127,0.589
			c-2.279,4.682-4.295,9.548-6.379,14.353c-2.061,4.824-4.08,9.668-6.052,14.527c-1.968,4.859-3.911,9.736-5.7,14.638
			c-0.229,0.612-0.45,1.224-0.658,1.836c-0.209,0.612-0.443,1.226-0.621,1.834l-0.285,0.911c-0.107,0.322-0.167,0.568-0.202,0.795
			c-0.035,0.218-0.014,0.408,0,0.406c0.005,0.002-0.012-0.051-0.046-0.09c-0.035-0.044-0.063-0.058-0.039-0.051
			c0.042,0.019,0.257,0.063,0.517,0.072c0.262,0.014,0.575,0.012,0.92,0.014c0.348,0.005,0.726,0.012,1.173,0.077
			c0.436,0.072,0.994,0.195,1.562,0.635c0.278,0.218,0.522,0.519,0.679,0.83c0.16,0.311,0.246,0.621,0.292,0.899
			c0.081,0.556,0.039,1.015-0.021,1.428c-0.127,0.723-0.257,1.356-0.443,2.065c-0.095,0.352-0.195,0.702-0.343,1.085
			c-0.155,0.382-0.308,0.781-0.688,1.263c-0.206,0.239-0.454,0.503-0.858,0.7c-0.38,0.195-0.858,0.276-1.201,0.248
			c-0.73-0.051-1.101-0.255-1.463-0.394c-0.684-0.304-1.187-0.554-1.708-0.73c-0.515-0.178-1.015-0.283-1.528-0.313
			c-1.076-0.067-2.188,0.132-3.25,0.505c-1.062,0.399-2.089,0.974-3.051,1.685c-1.924,1.43-3.6,3.306-5.065,5.336
			c-1.467,2.033-2.749,4.242-3.795,6.518c-0.13,0.285-0.253,0.57-0.376,0.855c-0.188,0.466-0.515,0.971-0.916,1.351
			c-0.823,0.79-1.813,1.099-2.636,1.238c-1.676,0.25-3.095,0.039-4.474-0.183c-2.735-0.487-5.271-1.266-7.772-1.889
			c-1.24-0.306-2.485-0.605-3.602-0.716c-0.276-0.026-0.54-0.039-0.77-0.032c-0.178,0-0.526,0.049-0.837,0.083
			c-0.626,0.072-1.256,0.162-1.889,0.26c-2.529,0.392-5.088,0.941-7.717,1.405c-2.626,0.454-5.334,0.86-8.178,0.765
			c-1.419-0.051-2.872-0.239-4.302-0.656c-1.428-0.424-2.821-1.108-4.036-2.024c-0.612-0.454-1.161-0.976-1.681-1.518
			c-0.248-0.28-0.487-0.566-0.726-0.853c-0.227-0.294-0.447-0.603-0.661-0.93c-0.417-0.661-0.821-1.428-1.004-2.425
			c-0.079-0.505-0.081-1.071,0.044-1.623c0.121-0.556,0.38-1.062,0.672-1.47c0.596-0.832,1.289-1.312,1.938-1.736
			c0.656-0.406,1.303-0.726,1.943-1.013c1.282-0.573,2.541-1.027,3.79-1.477c2.499-0.885,4.958-1.718,7.376-2.65
			c2.418-0.927,4.782-1.947,7.093-3.076c4.62-2.253,8.966-5.032,12.87-8.363c3.894-3.354,7.473-7.114,10.547-11.252
			c3.074-4.14,5.647-8.66,7.624-13.445c1.963-4.789,3.373-9.828,4.135-14.986C59.602,219.911,59.739,214.649,59.306,209.413z"/>
	</g>
	<g>
		<g>
			<path class="st3" d="M69.558,248.91c0.865,4.414,20.765,37.849,43.241,42.051c-1.333-3.637-1.616-5.206-1.616-5.206
				s16.831,9.601,54.23,1.036c-2.603-0.923-5.053-2.557-5.053-2.557s25.438-7.038,34.131-24.432
				c10.065-20.146-25.533-11.592-25.533-11.592l-81.942-6.006L69.558,248.91z"/>
		</g>
		<g>
			<path d="M69.911,249.104c0.072,0,0.1-0.072,0.095-0.065l0.067,0.216c0.051,0.144,0.1,0.29,0.16,0.436
				c0.114,0.292,0.243,0.582,0.376,0.872c0.267,0.58,0.556,1.15,0.858,1.718c0.603,1.136,1.247,2.251,1.915,3.354
				c1.338,2.204,2.77,4.353,4.27,6.453c3,4.198,6.27,8.206,9.824,11.936c3.558,3.718,7.408,7.17,11.643,10.042
				c4.226,2.853,8.887,5.146,13.841,6.045l0,0l-0.974,1.15c-0.243-0.89-0.473-1.783-0.679-2.684c-0.104-0.45-0.202-0.902-0.29-1.356
				c-0.088-0.459-0.169-0.902-0.229-1.391v-0.002l-0.148-0.793l0.742,0.373c1.98,0.994,4.191,1.69,6.379,2.265
				c2.204,0.566,4.446,0.997,6.704,1.307c4.518,0.628,9.091,0.802,13.653,0.698c4.564-0.111,9.117-0.542,13.639-1.182
				c4.522-0.644,9.008-1.528,13.454-2.587l0,0l-0.1,1.741c-0.911-0.417-1.769-0.895-2.592-1.412
				c-0.825-0.519-1.611-1.064-2.381-1.664l0,0l-0.693-0.461l0.809-0.26c3.164-1.013,6.284-2.269,9.305-3.683
				c3.023-1.419,5.971-2.993,8.774-4.789c2.798-1.799,5.464-3.799,7.891-6.048c2.42-2.253,4.59-4.773,6.307-7.571
				c0.844-1.402,1.62-2.863,2.174-4.374c0.563-1.5,0.927-3.085,0.76-4.569c-0.086-0.737-0.318-1.435-0.695-2.049
				c-0.38-0.612-0.92-1.129-1.541-1.558c-1.252-0.858-2.816-1.333-4.4-1.63c-3.199-0.568-6.548-0.484-9.852-0.206
				c-3.303,0.301-6.623,0.825-9.849,1.551l-0.118,0.025l-0.109-0.009l-40.96-3.106l-40.953-3.231l0,0l0.174-0.026
				C81.422,244.786,75.689,246.946,69.911,249.104z M69.208,248.715c5.858-2.311,11.764-4.622,17.663-6.887l0.083-0.032l0.09,0.007
				l0,0l40.987,2.775l40.978,2.898l-0.225,0.019c3.333-0.758,6.669-1.289,10.06-1.606c3.384-0.292,6.822-0.396,10.26,0.202
				c1.706,0.32,3.445,0.818,4.986,1.859c0.763,0.522,1.467,1.187,1.977,2.003c0.51,0.816,0.816,1.752,0.925,2.682
				c0.206,1.875-0.232,3.66-0.839,5.292c-0.614,1.643-1.435,3.162-2.332,4.631c-1.822,2.925-4.098,5.531-6.611,7.842
				c-2.51,2.32-5.283,4.325-8.173,6.103c-2.895,1.776-5.909,3.343-9.015,4.692c-3.113,1.337-6.273,2.534-9.555,3.428l0.116-0.721
				l0,0c0.816,0.429,1.676,0.823,2.534,1.168c0.86,0.348,1.732,0.644,2.601,0.867l3.169,0.814l-3.271,0.927l0,0
				c-4.511,0.987-9.064,1.799-13.651,2.364c-4.585,0.563-9.203,0.916-13.825,0.943c-4.622,0.021-9.254-0.239-13.829-0.962
				c-2.288-0.357-4.555-0.837-6.79-1.453c-2.235-0.635-4.425-1.356-6.537-2.466l0.593-0.42l0,0c0.121,0.403,0.278,0.837,0.436,1.254
				c0.16,0.42,0.327,0.837,0.501,1.254c0.348,0.832,0.716,1.655,1.099,2.473l0.637,1.365l-1.611-0.216l0,0
				c-5.269-1.041-10.074-3.516-14.374-6.511c-4.307-3.018-8.166-6.59-11.715-10.41c-3.542-3.832-6.783-7.928-9.747-12.209
				c-1.479-2.142-2.893-4.33-4.212-6.579c-0.658-1.124-1.296-2.262-1.889-3.426c-0.297-0.582-0.584-1.171-0.851-1.773
				c-0.132-0.301-0.264-0.605-0.38-0.92c-0.06-0.155-0.114-0.318-0.169-0.48l-0.074-0.25
				C69.183,249.104,69.173,248.872,69.208,248.715z"/>
		</g>
	</g>
	<g>
		<path class="st4" d="M87.117,237.282c-6.704,11.089,5.334,32.564,19.214,37.693c-1.001-3.34,0.823-7.578,0.823-7.578
			s1.722,17.687,36.625,15.032c-2.137-1.358-4.047-5.053-3.129-4.752c13.616,4.441,28.723-4.316,27.149-5.35
			c-4.043-2.659,4.963-1.421,14.059-12.191c-11.989-4.752-9.045-23.141-9.045-23.141l-17.508-1.806l-53.514-0.311L87.117,237.282z"
			/>
	</g>
	<g>
		<g>
			<path class="st3" d="M69.795,246.501c-16.328-26.585-13.894-48.852-10.452-65.603c0,0,2.935,3.261,6.439,3.938
				c-1.963-6.062-3.927-13.106-0.651-21.694l4.351,3.656c0,0-1.034-21.393,27.536-34.485l-1.917,9.724
				c0,0,14.863-26.094,70.781-13.375c-5.876,3.602-8.421,8.792-8.421,8.792s30.023-9.534,49.23,30.67
				c-5.243-3.076-9.722-2.207-9.722-2.207s20.262,20.723,14.177,46.224l-3.739-4.14c0,0,3.7,23.999-9.499,42.346
				c0,0-12.772-12.643-32.323-12.503s-68.908-3.057-71.919-2.499S69.795,246.501,69.795,246.501z"/>
		</g>
		<g>
			<path d="M69.683,246.897c-0.874-1.226-1.787-2.675-2.432-3.862c-0.723-1.233-1.379-2.503-2.051-3.764
				c-1.3-2.548-2.487-5.153-3.549-7.814c-2.13-5.318-3.688-10.874-4.622-16.541c-0.932-5.668-1.229-11.442-0.936-17.181
				c0.276-5.742,1.124-11.437,2.228-17.047l0.387-1.968l1.412,1.479l0,0c0.331,0.431,0.763,0.904,1.187,1.326
				c0.431,0.427,0.89,0.83,1.368,1.205c0.96,0.744,2.024,1.358,3.185,1.706l-0.468,0.529l0,0c-1.233-3.489-2.344-7.107-2.647-10.899
				c-0.158-1.889-0.116-3.806,0.139-5.7c0.253-1.894,0.719-3.76,1.344-5.566l0.436-1.259l1.083,0.865l0,0l3.994,4.077l-0.675,0.334
				l0,0c-0.037-1.025,0.035-1.994,0.148-2.976c0.111-0.981,0.285-1.952,0.496-2.911c0.424-1.924,1.022-3.809,1.783-5.628
				c0.756-1.82,1.662-3.579,2.696-5.262c1.041-1.676,2.211-3.271,3.477-4.787c1.254-1.528,2.659-2.918,4.096-4.272
				c0.742-0.649,1.465-1.324,2.246-1.929l1.154-0.927l1.191-0.876c3.19-2.323,6.613-4.309,10.167-6.006l2.061-0.983l-0.41,2.286l0,0
				l-2.67,9.576l-0.753-0.285l0,0c0.869-1.421,1.915-2.624,3.032-3.79c1.122-1.152,2.334-2.209,3.6-3.197
				c2.548-1.952,5.318-3.609,8.234-4.942c2.911-1.342,5.946-2.406,9.043-3.224c3.099-0.804,6.256-1.365,9.43-1.766
				c6.356-0.719,12.779-0.753,19.14-0.223c6.363,0.526,12.675,1.546,18.906,2.891l2.543,0.549l-2.209,1.474h-0.002
				c-0.853,0.478-1.701,0.978-2.497,1.562c-0.809,0.568-1.572,1.205-2.304,1.88c-0.735,0.672-1.423,1.402-2.07,2.167
				c-0.642,0.763-1.256,1.583-1.759,2.418l-0.491-0.573h0.002c2.605-0.756,5.25-1.043,7.918-1.101
				c2.663-0.046,5.334,0.206,7.953,0.73c5.241,1.048,10.236,3.255,14.641,6.289c4.411,3.034,8.255,6.845,11.525,11.055
				c3.287,4.207,6.034,8.806,8.387,13.574l1.609,3.261l-3.28-1.727l0,0c-0.656-0.44-1.333-0.872-2.049-1.222
				c-0.709-0.376-1.458-0.661-2.223-0.923c-0.767-0.25-1.558-0.436-2.362-0.559c-0.795-0.121-1.639-0.178-2.411-0.123l0.216-0.688
				l0,0c2.932,3.078,5.433,6.484,7.659,10.079c2.211,3.602,4.087,7.425,5.505,11.43c1.416,4.003,2.364,8.197,2.698,12.464
				c0.343,4.265,0.03,8.595-0.904,12.793l0,0l-0.753,2.119l-1.143-1.634l-3.222-4.606l0,0l0.709-0.338
				c0.535,3.711,0.665,7.429,0.57,11.157c-0.116,3.723-0.489,7.446-1.194,11.12c-0.702,3.672-1.713,7.297-3.113,10.786
				c-1.372,3.5-3.183,6.838-5.322,9.954l0,0l-0.684,0.985l-0.892-0.855c-0.93-0.892-2.014-1.778-3.092-2.592
				c-1.089-0.821-2.214-1.597-3.37-2.323c-2.316-1.451-4.743-2.733-7.265-3.788c-2.515-1.071-5.13-1.903-7.789-2.529
				c-2.663-0.603-5.38-0.974-8.111-1.094c-0.684-0.026-1.363-0.03-2.051-0.042l-2.1-0.009l-4.191-0.067
				c-2.793-0.063-5.582-0.155-8.37-0.255c-5.575-0.204-11.147-0.461-16.715-0.732c-11.138-0.535-22.272-1.182-33.4-1.669
				c-1.391-0.058-2.782-0.107-4.168-0.141c-0.691-0.014-1.388-0.028-2.063-0.014c-0.355,0.014-0.633,0.005-0.923,0.088
				c-0.297,0.076-0.621,0.19-0.939,0.304c-2.561,0.976-5.095,2.167-7.617,3.333c-2.52,1.18-5.03,2.388-7.534,3.607l-3.76,1.85
				l-1.873,0.927l-0.934,0.466l-0.468,0.234l-0.234,0.116l-0.116,0.058l-0.065,0.032C69.931,246.895,69.79,246.914,69.683,246.897z
				 M69.906,246.107c-0.067-0.037-0.169-0.037-0.232-0.005l0.051-0.026l0.116-0.06l0.232-0.118l0.466-0.239l0.932-0.475l1.866-0.946
				l3.737-1.878c2.497-1.245,4.998-2.478,7.515-3.686c2.527-1.196,5.03-2.406,7.668-3.44c0.336-0.125,0.668-0.248,1.045-0.348
				c0.382-0.114,0.811-0.114,1.15-0.13c0.719-0.023,1.414-0.014,2.116-0.007c1.4,0.021,2.796,0.058,4.191,0.102
				c11.152,0.382,22.286,0.925,33.424,1.354c5.568,0.218,11.136,0.422,16.704,0.575c2.784,0.074,5.566,0.141,8.347,0.176l4.17,0.028
				l2.082-0.012c0.705,0.007,1.419,0.005,2.128,0.023c2.84,0.1,5.672,0.459,8.449,1.059c2.772,0.624,5.498,1.465,8.122,2.554
				c2.631,1.071,5.162,2.378,7.585,3.864c1.21,0.744,2.388,1.541,3.533,2.388c1.152,0.855,2.242,1.722,3.333,2.749l-1.574,0.132l0,0
				c2.126-2.918,3.959-6.071,5.38-9.416c1.449-3.333,2.536-6.834,3.324-10.401c0.793-3.57,1.263-7.214,1.481-10.876
				c0.199-3.656,0.172-7.36-0.246-10.983l-0.153-1.319l0.862,0.983l0,0l4.256,3.674l-1.896,0.484l0,0
				c0.994-3.955,1.409-8.064,1.194-12.16c-0.206-4.096-1.006-8.169-2.274-12.098c-1.27-3.931-3-7.721-5.072-11.319
				c-2.082-3.584-4.478-7.035-7.242-10.104l0,0l-0.584-0.505l0.8-0.183c0.902-0.206,1.759-0.269,2.65-0.278
				c0.883,0,1.771,0.065,2.647,0.211c0.874,0.155,1.752,0.345,2.601,0.637c0.858,0.269,1.683,0.628,2.501,1.015l0,0l-1.669,1.535
				c-2.179-4.706-4.743-9.242-7.826-13.396c-3.069-4.159-6.688-7.923-10.867-10.953c-4.172-3.027-8.927-5.274-13.973-6.414
				c-2.52-0.568-5.104-0.879-7.694-0.897c-2.578-0.012-5.211,0.218-7.675,0.869h-0.002l-0.916,0.355l0.422-0.925
				c0.45-0.983,0.976-1.875,1.56-2.756c0.584-0.874,1.217-1.72,1.912-2.52c0.693-0.8,1.428-1.569,2.225-2.279
				c0.783-0.726,1.639-1.372,2.513-2h0.002l0.334,2.024c-6.127-1.439-12.33-2.557-18.584-3.19
				c-6.252-0.64-12.559-0.716-18.806-0.127c-3.118,0.336-6.219,0.828-9.265,1.56c-3.041,0.746-6.025,1.732-8.892,2.988
				c-2.87,1.249-5.598,2.816-8.113,4.671c-1.249,0.936-2.448,1.943-3.556,3.041c-1.094,1.094-2.156,2.288-2.962,3.558l0,0
				l-1.048,2.167l0.287-2.45l1.161-9.872l0,0l1.648,1.3c-3.493,1.53-6.864,3.338-10.014,5.478l-1.178,0.807l-1.14,0.855
				c-0.772,0.559-1.486,1.185-2.225,1.785c-1.426,1.256-2.823,2.552-4.08,3.982c-1.266,1.419-2.443,2.916-3.5,4.499
				c-1.05,1.588-1.98,3.255-2.768,4.988c-0.793,1.732-1.43,3.535-1.903,5.382c-0.468,1.836-0.797,3.76-0.809,5.617l0,0l0.13,0.885
				l-0.802-0.552l-4.706-3.231l0,0l1.518-0.394c-0.668,1.66-1.189,3.377-1.516,5.137c-0.327,1.759-0.457,3.558-0.399,5.362
				c0.107,3.616,0.999,7.195,2.056,10.726l0,0l0.255,0.619l-0.723-0.09c-1.347-0.167-2.633-0.651-3.818-1.287
				c-0.591-0.322-1.164-0.677-1.713-1.066c-0.556-0.396-1.066-0.788-1.606-1.291l0,0l1.799-0.489
				c-1.196,5.531-2.128,11.106-2.503,16.729c-0.392,5.619-0.204,11.277,0.605,16.854c0.811,5.577,2.239,11.069,4.244,16.354
				c0.999,2.643,2.123,5.241,3.363,7.784c0.642,1.261,1.268,2.531,1.961,3.767c0.336,0.617,0.693,1.268,0.99,1.79
				C69.333,244.939,69.612,245.507,69.906,246.107z"/>
		</g>
	</g>
	<g>
		
			<ellipse transform="matrix(0.0207 -0.9998 0.9998 0.0207 -75.6095 336.1746)" class="st5" cx="133.799" cy="206.683" rx="34.034" ry="17.529"/>
	</g>
	<g>
		<path class="st6" d="M111.6,168.574c-32.93-7.687-38.994,18.628-38.994,18.628s-5.155-4.337-4.673-17.566
			c3.598,9.68,6.697,10.712,8.906,11.326c0.855,0.236,0,0-0.352-0.814c-6.134-14.159,4.425-33.674,14.835-40.306
			c-3.074,10.297-1.653,16.488,1.092,23.739c0.545-2.16-1.664-33.859,61.986-32.538c0,0-8.343,8.414-8.857,15.681
			c10.603-5.964,35.619-2.14,53.699,14.24c0,0-8.734-2.441-11.748,2.058c15.079,9.23,22.791,27.348,20.663,39.965
			c-5.378-6.674-23.331-34.464-30.846-27.353c-10.487-11.85-33.82,1.043-42.726,17.089
			C134.586,192.723,118.218,170.117,111.6,168.574z"/>
	</g>
	<g>
		<g>
			<path class="st7" d="M124.009,202.496c0.496,17.295-1.718,31.97-15.549,33.871c-10.751,1.479-21.321-11.748-24.114-27.095
				c-3.118-17.142-4.212-31.945,15.294-37.049C119.146,167.118,123.348,179.427,124.009,202.496z"/>
		</g>
		<g>
			<path d="M124.66,202.477c0.127,3.642,0.148,7.295-0.083,10.955c-0.243,3.653-0.721,7.33-1.822,10.897
				c-0.559,1.778-1.273,3.528-2.248,5.158c-0.969,1.63-2.197,3.141-3.695,4.363c-1.491,1.231-3.234,2.147-5.056,2.74
				c-0.913,0.294-1.845,0.517-2.784,0.668c-0.943,0.16-1.943,0.225-2.916,0.172c-1.959-0.09-3.862-0.649-5.591-1.477
				c-1.736-0.823-3.308-1.922-4.717-3.169c-2.816-2.503-5.072-5.526-6.845-8.769c-1.778-3.243-3.122-6.699-4.057-10.248
				c-0.464-1.773-0.821-3.586-1.108-5.38c-0.294-1.794-0.568-3.593-0.8-5.401c-0.468-3.609-0.802-7.255-0.647-10.92
				c0.155-3.644,0.888-7.374,2.761-10.607c0.939-1.604,2.146-3.053,3.54-4.277c1.391-1.236,2.976-2.223,4.629-3.037
				c1.653-0.818,3.391-1.437,5.153-1.933c1.764-0.491,3.551-0.883,5.369-1.134c1.815-0.234,3.658-0.352,5.494-0.181
				c1.829,0.176,3.66,0.637,5.308,1.504c1.65,0.862,3.071,2.137,4.179,3.621c1.115,1.486,1.956,3.148,2.619,4.863
				c1.314,3.445,1.984,7.075,2.459,10.691C124.273,195.198,124.505,198.84,124.66,202.477z M123.357,202.514
				c-0.063-3.618-0.202-7.235-0.568-10.823c-0.378-3.581-0.948-7.165-2.146-10.545c-0.607-1.681-1.368-3.315-2.422-4.747
				c-1.043-1.435-2.374-2.661-3.934-3.505c-1.553-0.858-3.312-1.314-5.09-1.47c-1.78-0.162-3.586-0.051-5.362,0.229
				c-3.547,0.586-7.047,1.623-10.246,3.21c-1.595,0.804-3.092,1.787-4.432,2.949c-1.338,1.164-2.49,2.534-3.394,4.059
				c-1.829,3.053-2.617,6.648-2.802,10.227c-0.107,1.796-0.051,3.602,0.083,5.401c0.139,1.799,0.334,3.598,0.617,5.385
				c0.278,1.787,0.598,3.57,0.941,5.35c0.327,1.783,0.728,3.526,1.263,5.243c1.055,3.431,2.506,6.734,4.349,9.784
				c1.854,3.034,4.061,5.872,6.745,8.12c1.344,1.113,2.791,2.091,4.339,2.819c1.548,0.726,3.201,1.182,4.87,1.289
				c0.839,0.053,1.662,0.012,2.51-0.125c0.853-0.13,1.697-0.311,2.515-0.561c1.634-0.503,3.173-1.277,4.504-2.339
				c2.694-2.112,4.439-5.283,5.524-8.625c1.092-3.366,1.613-6.933,1.903-10.512C123.401,209.744,123.434,206.128,123.357,202.514z"
				/>
		</g>
	</g>
	<g>
		<path d="M129.057,201.726c0.874,17.392-1.915,30.545-15.774,32.246c-10.232,1.256-21.099-10.123-23.89-25.471
			c-3.118-17.142-4.212-31.945,15.294-37.049C124.192,166.348,127.794,176.589,129.057,201.726z"/>
		<path d="M111.698,234.41c-10.032,0-19.965-11.15-22.64-25.846c-3.171-17.429-4.191-32.276,15.545-37.443
			c7.649-2,12.925-1.678,16.609,1.02c5.797,4.247,7.432,14.462,8.192,29.566l0,0c0.498,9.914-0.26,16.952-2.388,22.153
			c-2.541,6.212-7.017,9.631-13.686,10.45C112.783,234.378,112.24,234.41,111.698,234.41z M113.181,170.518
			c-2.404,0-5.185,0.424-8.407,1.266c-19.165,5.016-18.152,19.569-15.044,36.657c2.756,15.144,13.305,26.437,23.512,25.19
			c11.736-1.439,16.509-11.275,15.473-31.889l0,0c-0.749-14.905-2.334-24.963-7.911-29.047
			C118.819,171.242,116.322,170.518,113.181,170.518z"/>
	</g>
	<g>
		<g>
			<path class="st7" d="M144.5,205.947c2.049,17.292,10.002,32.814,23.908,31.497c10.809-1.022,17.631-15.916,17.283-31.896
				c-0.362-16.662-3.21-32.061-23.377-32.566C142.15,172.479,141.362,179.484,144.5,205.947z"/>
		</g>
		<g>
			<path d="M145.091,205.875c0.466,3.602,1.185,7.17,2.225,10.635c1.043,3.459,2.401,6.831,4.23,9.905
				c1.824,3.062,4.149,5.855,7.075,7.747c2.911,1.901,6.426,2.701,9.866,2.306c1.681-0.181,3.303-0.758,4.768-1.632
				c1.467-0.872,2.768-2.042,3.92-3.352c2.295-2.645,3.941-5.872,5.132-9.235c1.189-3.375,1.922-6.919,2.29-10.501
				c0.19-1.79,0.287-3.593,0.292-5.394c-0.007-1.806-0.053-3.637-0.139-5.447c-0.185-3.625-0.552-7.244-1.386-10.749
				c-0.837-3.489-2.188-6.892-4.414-9.678c-1.106-1.391-2.432-2.603-3.915-3.586c-1.481-0.99-3.129-1.727-4.838-2.267
				c-1.711-0.542-3.493-0.869-5.29-1.062c-1.794-0.185-3.618-0.216-5.44-0.209c-1.817,0.016-3.635,0.111-5.422,0.376
				c-1.78,0.267-3.551,0.719-5.114,1.565c-1.567,0.832-2.867,2.109-3.688,3.681c-0.834,1.567-1.24,3.345-1.465,5.127
				c-0.431,3.588-0.209,7.248,0.086,10.879C144.178,198.618,144.628,202.248,145.091,205.875z M143.907,206.017
				c-0.392-3.644-0.765-7.293-1.006-10.96c-0.22-3.665-0.369-7.362,0.123-11.052c0.257-1.836,0.721-3.679,1.611-5.355
				c0.874-1.683,2.302-3.081,3.973-3.959c1.669-0.897,3.505-1.356,5.329-1.662c1.831-0.294,3.679-0.41,5.522-0.45
				c1.838-0.03,3.683-0.021,5.533,0.146c1.845,0.176,3.686,0.489,5.473,1.034c1.787,0.535,3.516,1.303,5.107,2.311
				c1.588,1.008,3.023,2.269,4.226,3.72c2.422,2.911,3.904,6.46,4.838,10.049c0.936,3.607,1.377,7.299,1.634,10.978
				c0.123,1.845,0.206,3.672,0.248,5.529c0.03,1.859-0.037,3.718-0.199,5.573c-0.343,3.704-1.069,7.388-2.281,10.934
				c-1.219,3.535-2.911,6.973-5.399,9.898c-1.242,1.456-2.705,2.763-4.39,3.758c-1.678,0.997-3.586,1.671-5.552,1.875
				c-1.924,0.204-3.887,0.107-5.779-0.357c-1.892-0.457-3.683-1.282-5.287-2.346c-3.215-2.153-5.635-5.199-7.48-8.445
				c-1.854-3.261-3.18-6.764-4.182-10.329C144.971,213.332,144.31,209.684,143.907,206.017z"/>
		</g>
	</g>
	<g>
		<g>
			<path d="M149.665,203.821c2.397,17.248,10.869,35.888,23.778,30.549c7.626-3.155,16.947-14.671,17.439-30.262
				c0.693-21.998-3.21-32.061-23.377-32.566S146.109,178.214,149.665,203.821z"/>
		</g>
		<g>
			<path d="M150.311,203.731c0.524,3.561,1.28,7.086,2.297,10.528c1.022,3.44,2.297,6.808,3.964,9.954
				c0.834,1.569,1.773,3.081,2.844,4.469s2.29,2.654,3.674,3.653c1.379,0.997,2.939,1.708,4.571,1.94
				c1.63,0.246,3.308-0.002,4.884-0.586c1.583-0.586,3.071-1.502,4.458-2.545c1.395-1.041,2.673-2.255,3.855-3.556
				c1.187-1.3,2.274-2.701,3.252-4.175c0.974-1.479,1.836-3.034,2.608-4.634c1.537-3.206,2.624-6.641,3.22-10.172
				c0.308-1.766,0.466-3.547,0.529-5.355c0.07-1.808,0.114-3.616,0.104-5.424c0-1.808-0.088-3.614-0.246-5.41
				c-0.165-1.794-0.389-3.588-0.797-5.338c-0.399-1.75-0.936-3.47-1.699-5.079c-0.767-1.606-1.757-3.104-2.997-4.36
				c-1.236-1.261-2.694-2.297-4.288-3.069c-1.595-0.777-3.301-1.326-5.042-1.729c-3.496-0.786-7.119-1.006-10.728-1.011
				c-1.803,0.009-3.611,0.083-5.389,0.35c-1.771,0.267-3.537,0.688-5.123,1.49c-1.586,0.79-2.944,1.998-3.836,3.514
				c-0.904,1.514-1.368,3.261-1.62,5.023c-0.25,1.766-0.294,3.567-0.255,5.366c0.042,1.799,0.176,3.598,0.35,5.396
				C149.257,196.564,149.769,200.15,150.311,203.731z M149.02,203.91c-0.45-3.605-0.872-7.218-1.134-10.855
				c-0.127-1.817-0.216-3.642-0.211-5.473c0.007-1.829,0.095-3.667,0.401-5.487c0.308-1.813,0.837-3.63,1.815-5.234
				c0.974-1.606,2.455-2.879,4.128-3.681c1.678-0.802,3.479-1.259,5.287-1.53c1.813-0.264,3.637-0.385,5.459-0.433
				c3.635-0.072,7.316,0.039,10.916,0.823c1.796,0.385,3.57,0.953,5.234,1.783c1.662,0.821,3.21,1.912,4.495,3.264
				c1.289,1.349,2.302,2.937,3.071,4.615c0.77,1.681,1.303,3.452,1.69,5.241c0.777,3.586,1.02,7.239,1.134,10.876
				c0.058,1.82,0.063,3.642,0.039,5.459c-0.026,1.82-0.111,3.665-0.341,5.487c-0.452,3.651-1.412,7.248-2.86,10.658
				c-1.442,3.412-3.424,6.604-5.86,9.437c-2.476,2.777-5.424,5.28-9.084,6.634c-1.824,0.654-3.857,0.923-5.818,0.593
				c-1.966-0.311-3.785-1.196-5.32-2.344c-1.539-1.157-2.84-2.554-3.964-4.05c-1.124-1.497-2.086-3.095-2.932-4.74
				c-1.69-3.294-2.949-6.764-3.945-10.29C150.226,211.133,149.505,207.537,149.02,203.91z"/>
		</g>
	</g>
	<g>
		<g>
			<path class="st8" d="M65.842,205.613c6.706-12.021,29.226-43.47,60.331-24.578c1.808-24.74-34.314-30.566-52.552-7.506
				c6.97,0.661,7.7,1.5,7.7,1.5S68.492,177.857,65.842,205.613z"/>
		</g>
		<g>
			<g>
				<path d="M65.961,205.238c-0.005-0.102-0.039-0.202-0.083-0.262c-0.044-0.063-0.079-0.086-0.074-0.116
					c-0.009-0.007,0.067-0.134,0.107-0.209l0.139-0.255l0.563-1.018c0.378-0.677,0.779-1.34,1.18-2.003
					c0.811-1.321,1.655-2.622,2.538-3.897c1.757-2.559,3.693-4.995,5.77-7.313c4.145-4.629,8.95-8.781,14.518-11.748
					c2.782-1.472,5.746-2.638,8.832-3.359c3.085-0.709,6.284-0.985,9.441-0.737c3.162,0.218,6.263,0.96,9.203,2.058
					c2.942,1.103,5.707,2.596,8.289,4.318l0,0l-0.598,0.308c0.081-2.877-0.278-5.763-1.335-8.384
					c-0.522-1.31-1.175-2.559-1.977-3.707c-0.802-1.147-1.748-2.188-2.789-3.122c-2.086-1.866-4.587-3.248-7.239-4.186
					c-2.659-0.927-5.468-1.449-8.301-1.56c-5.67-0.236-11.391,0.997-16.569,3.391c-5.19,2.39-9.842,5.957-13.639,10.338
					l-0.271-0.637c1.321,0.049,2.645,0.116,3.978,0.243c0.665,0.065,1.333,0.141,2.01,0.257c0.338,0.056,0.679,0.127,1.027,0.213
					c0.176,0.049,0.352,0.095,0.54,0.162c0.093,0.03,0.192,0.074,0.294,0.118c0.058,0.028,0.107,0.049,0.172,0.088
					c0.081,0.058,0.088,0.026,0.299,0.229l0.005,0.005l0.985,1.087l-1.458,0.343c-0.232,0.056-0.598,0.183-0.899,0.313
					c-0.315,0.132-0.628,0.29-0.936,0.452c-0.617,0.334-1.208,0.73-1.773,1.161c-1.14,0.858-2.16,1.894-3.088,3.004
					c-1.847,2.239-3.306,4.826-4.448,7.545c-1.15,2.719-2.021,5.568-2.675,8.468c-0.329,1.451-0.61,2.914-0.851,4.383l-0.331,2.163
					c-0.044,0.301-0.116,0.568-0.225,0.865C66.179,204.538,66.056,204.876,65.961,205.238z M65.727,205.991
					c-0.014-0.385-0.056-0.79-0.081-1.24c-0.028-0.447-0.019-0.925,0.019-1.37l0.03-0.331l0.035-0.283l0.07-0.561l0.141-1.122
					c0.204-1.495,0.45-2.983,0.744-4.467c0.586-2.965,1.398-5.897,2.506-8.732c1.103-2.835,2.543-5.573,4.448-8.016
					c0.96-1.212,2.026-2.36,3.257-3.34c0.612-0.494,1.259-0.953,1.949-1.351c0.348-0.197,0.7-0.387,1.073-0.554
					c0.385-0.172,0.721-0.315,1.215-0.447l-0.471,1.43l0.002,0.005c0.151,0.146,0.086,0.072,0.1,0.086
					c-0.005-0.007-0.03-0.021-0.044-0.032c-0.046-0.025-0.093-0.056-0.153-0.086c-0.116-0.06-0.253-0.116-0.387-0.172
					c-0.28-0.107-0.575-0.206-0.879-0.297c-0.605-0.183-1.233-0.336-1.866-0.475c-1.268-0.28-2.557-0.505-3.853-0.714l-0.658-0.104
					l0.385-0.533c3.463-4.787,8.106-8.813,13.484-11.465c5.359-2.666,11.402-4.059,17.436-3.774
					c3.009,0.144,6.022,0.693,8.864,1.762c2.84,1.055,5.531,2.615,7.742,4.731c2.23,2.086,3.929,4.745,4.882,7.624
					c0.953,2.884,1.196,5.948,0.851,8.899l-0.072,0.614l-0.526-0.306l0,0c-5.359-2.923-11.196-4.986-17.195-5.287
					c-5.985-0.341-11.991,1.131-17.313,3.948c-2.67,1.391-5.199,3.076-7.568,4.965c-2.374,1.887-4.611,3.959-6.701,6.178
					c-2.098,2.214-4.031,4.583-5.883,7.014c-0.923,1.219-1.806,2.469-2.661,3.739c-0.427,0.635-0.844,1.277-1.256,1.922
					l-0.612,0.971l-0.331,0.538c-0.09,0.137-0.218,0.283-0.359,0.387C65.954,205.857,65.824,205.926,65.727,205.991z"/>
			</g>
		</g>
	</g>
	<g>
		<g>
			<path class="st8" d="M203.348,207.41c-6.201-12.29-27.399-44.643-59.26-27.058c-0.779-24.794,35.552-29.114,52.819-5.32
				c-6.991,0.371-7.756,1.18-7.756,1.18S201.853,179.568,203.348,207.41z"/>
		</g>
		<g>
			<g>
				<path d="M203.448,207.792c-0.095-0.07-0.223-0.144-0.357-0.255c-0.134-0.111-0.257-0.262-0.343-0.403l-0.311-0.552l-0.57-0.997
					c-0.385-0.661-0.777-1.319-1.175-1.973c-0.8-1.305-1.632-2.589-2.503-3.846c-1.75-2.508-3.584-4.954-5.586-7.253
					c-1.996-2.302-4.145-4.467-6.439-6.449c-2.288-1.989-4.745-3.774-7.355-5.276c-5.199-3.034-11.138-4.752-17.133-4.662
					c-6.006,0.051-11.924,1.871-17.399,4.569l0,0l-0.538,0.285l-0.046-0.617c-0.223-2.962,0.148-6.015,1.219-8.857
					c1.071-2.837,2.877-5.424,5.192-7.415c2.295-2.024,5.051-3.47,7.93-4.407c2.884-0.95,5.916-1.372,8.929-1.391
					c6.038-0.035,12.019,1.609,17.265,4.495c5.264,2.872,9.733,7.086,12.997,12.014l0.364,0.547l-0.661,0.076
					c-1.303,0.153-2.601,0.327-3.88,0.552c-0.637,0.114-1.273,0.241-1.885,0.399c-0.306,0.076-0.605,0.165-0.89,0.26
					c-0.137,0.051-0.276,0.1-0.394,0.155c-0.063,0.025-0.111,0.056-0.158,0.079c-0.014,0.012-0.042,0.025-0.046,0.03
					c0.014-0.014-0.056,0.06,0.102-0.081l0.005-0.005l-0.413-1.449c0.487,0.153,0.818,0.311,1.194,0.498
					c0.364,0.183,0.709,0.387,1.05,0.598c0.675,0.429,1.303,0.913,1.892,1.433c1.189,1.032,2.209,2.221,3.115,3.472
					c1.803,2.517,3.127,5.315,4.112,8.192c0.992,2.879,1.678,5.844,2.142,8.829c0.234,1.493,0.417,2.993,0.559,4.492l0.095,1.127
					l0.046,0.563l0.023,0.285l0.016,0.331c0.019,0.445,0.009,0.923-0.037,1.37C203.536,207.004,203.478,207.41,203.448,207.792z
					 M203.246,207.03c-0.081-0.364-0.188-0.709-0.285-1.008c-0.097-0.301-0.158-0.57-0.19-0.874l-0.236-2.17
					c-0.181-1.479-0.401-2.953-0.67-4.416c-0.533-2.925-1.287-5.807-2.323-8.572c-1.029-2.763-2.376-5.408-4.131-7.724
					c-0.881-1.15-1.857-2.225-2.96-3.132c-0.547-0.457-1.122-0.876-1.725-1.236c-0.301-0.176-0.607-0.348-0.916-0.491
					c-0.294-0.144-0.654-0.285-0.885-0.35l-1.442-0.403l1.029-1.045l0.005-0.005c0.22-0.195,0.223-0.162,0.308-0.218
					c0.067-0.035,0.116-0.053,0.174-0.081c0.104-0.039,0.206-0.079,0.299-0.104c0.19-0.06,0.369-0.1,0.547-0.139
					c0.352-0.072,0.695-0.127,1.036-0.169c0.682-0.088,1.349-0.137,2.019-0.174c1.335-0.072,2.661-0.086,3.985-0.079l-0.299,0.626
					c-3.611-4.534-8.113-8.292-13.199-10.895c-5.076-2.605-10.739-4.075-16.414-4.075c-2.835-0.005-5.663,0.399-8.359,1.215
					c-2.689,0.828-5.243,2.105-7.406,3.883c-1.078,0.89-2.065,1.892-2.914,3.004c-0.851,1.113-1.555,2.334-2.13,3.621
					c-1.164,2.578-1.643,5.445-1.681,8.322l-0.584-0.334l0,0c2.652-1.613,5.478-2.993,8.461-3.971
					c2.981-0.974,6.113-1.586,9.279-1.674c3.164-0.116,6.349,0.292,9.402,1.129c3.053,0.848,5.967,2.137,8.686,3.723
					c5.44,3.197,10.07,7.541,14.017,12.339c1.977,2.404,3.811,4.919,5.461,7.548c0.83,1.31,1.618,2.647,2.374,3.999
					c0.376,0.679,0.749,1.356,1.096,2.049l0.522,1.038l0.128,0.262c0.035,0.074,0.107,0.206,0.097,0.211
					c0.002,0.03-0.032,0.051-0.079,0.111C203.292,206.83,203.253,206.928,203.246,207.03z"/>
			</g>
		</g>
	</g>
	<g>
		
			<ellipse transform="matrix(0.0207 -0.9998 0.9998 0.0207 -76.4486 301.562)" class="st7" cx="115.711" cy="189.805" rx="8.547" ry="5.992"/>
		<path d="M115.622,198.828c-0.032,0-0.065,0-0.097,0c-3.563-0.074-6.377-4.179-6.273-9.149c0.102-4.97,3.069-8.955,6.648-8.88
			c3.563,0.074,6.377,4.179,6.273,9.149C122.071,194.872,119.141,198.828,115.622,198.828z M115.801,181.738
			c-3.009,0-5.517,3.547-5.607,7.96c-0.093,4.453,2.309,8.127,5.352,8.19c0.025,0,0.053,0,0.079,0c3.009,0,5.517-3.547,5.607-7.96
			c0.093-4.453-2.309-8.127-5.352-8.19C115.854,181.738,115.826,181.738,115.801,181.738z"/>
	</g>
	<g>
		
			<ellipse transform="matrix(0.0207 -0.9998 0.9998 0.0207 -98.0394 309.5434)" class="st7" cx="108.99" cy="204.817" rx="4.275" ry="2.995"/>
		<path d="M108.946,209.331c-0.016,0-0.032,0-0.049,0c-1.78-0.037-3.187-2.089-3.136-4.576c0.025-1.189,0.376-2.304,0.985-3.136
			c0.628-0.858,1.481-1.314,2.339-1.303c1.783,0.037,3.19,2.089,3.136,4.573C112.171,207.354,110.706,209.331,108.946,209.331z
			 M109.034,200.785c-0.707,0-1.384,0.394-1.91,1.113c-0.554,0.756-0.872,1.776-0.895,2.87c-0.046,2.225,1.154,4.063,2.677,4.096
			c0.014,0,0.028,0,0.039,0c1.504,0,2.758-1.773,2.805-3.98l0,0c0.046-2.225-1.154-4.063-2.677-4.094
			C109.062,200.785,109.048,200.785,109.034,200.785z"/>
	</g>
	<g>
		
			<ellipse transform="matrix(0.0207 -0.9998 0.9998 0.0207 -18.7836 360.428)" class="st7" cx="174.592" cy="189.802" rx="8.547" ry="5.992"/>
		<path d="M174.505,198.828c-0.032,0-0.065,0-0.097,0c-3.563-0.074-6.377-4.179-6.273-9.149c0.049-2.378,0.749-4.606,1.97-6.273
			c1.259-1.718,2.944-2.643,4.678-2.608c3.563,0.074,6.377,4.179,6.273,9.149l0,0C180.953,194.872,178.023,198.828,174.505,198.828z
			 M174.683,181.738c-1.414,0-2.768,0.786-3.82,2.223c-1.108,1.514-1.743,3.551-1.79,5.737c-0.093,4.453,2.309,8.127,5.352,8.19
			c0.025,0,0.053,0,0.079,0c3.009,0,5.517-3.547,5.607-7.96c0.093-4.453-2.309-8.127-5.352-8.19
			C174.737,181.738,174.709,181.738,174.683,181.738z"/>
	</g>
	<g>
		
			<ellipse transform="matrix(0.0207 -0.9998 0.9998 0.0207 -40.3764 368.4069)" class="st7" cx="167.868" cy="204.814" rx="4.275" ry="2.995"/>
		<path d="M167.829,209.331c-0.016,0-0.032,0-0.049,0c-1.78-0.037-3.19-2.089-3.136-4.576c0.025-1.189,0.376-2.304,0.985-3.136
			c0.628-0.86,1.484-1.317,2.339-1.303c1.78,0.037,3.19,2.089,3.136,4.573c-0.025,1.189-0.373,2.304-0.985,3.136
			C169.502,208.87,168.689,209.331,167.829,209.331z M167.917,200.785c-0.707,0-1.384,0.394-1.91,1.113
			c-0.554,0.756-0.872,1.776-0.895,2.87c-0.046,2.225,1.154,4.063,2.677,4.096c0.723,0.005,1.414-0.38,1.949-1.11
			c0.554-0.756,0.872-1.776,0.895-2.87l0,0c0.046-2.225-1.154-4.063-2.677-4.094C167.945,200.785,167.931,200.785,167.917,200.785z"
			/>
	</g>
	<g>
		<path class="st9" d="M134.683,260.734c-1.089,0.03-2.174,0.09-3.231,0.125c-2.731,0.09-3.611,0.948-7.031,2.334
			c-1.678,0.681-3.489,1.4-4.376,2.979c-2.816-1.083-4.335-3.887-6.521-5.86c-3.347-3.02-3.375-6.738-4.128-8.551
			c-1.045-2.508,0.675-0.494,1.045-2.93c0.044-0.294,0.114-0.626,0.369-0.777c0.174-0.104,0.389-0.093,0.591-0.07
			c3.025,0.362,5.16,3.018,7.703,4.696c0.83,0.549,2.086-0.51,3.006-0.141c0.983,0.392,1.91-0.556,2.752-0.035
			c1.843,1.143,4.59,1.159,6.685,1.229c2.603,0.088,5.209,0.037,7.805-0.151c2.16-0.158,2.993,0.424,4.845-0.64l10.204-4.611
			c1.115-0.64,2.594-0.702,3.561,0.146c0.007,0.005,0.012,0.012,0.019,0.016c0.204,0.195,0.241,0.503,0.255,0.786
			c0.155,3.146-0.96,6.335-3.039,8.7c-1.342,1.525-2.244,3.224-3.146,5.023c-0.554,1.11-2.564,2.891-3.795,1.892
			c-2.181-1.769-4.699-2.823-7.429-3.602C138.86,260.734,136.763,260.678,134.683,260.734z"/>
	</g>
	<g>
		<path class="st10" d="M134.799,270.191c-2.07-0.097-4.133-0.362-6.161-0.79c-1.945-0.41-3.748-1.099-5.642-1.657
			c-1.212-0.357-3.966-0.89-2.079-2.506c1.423-1.219,3.148-2.091,4.882-2.775c1.815-0.716,3.44-0.816,5.304-1.231
			c2.452-0.545,4.458-0.765,6.933-0.343c2.355,0.401,4.339,1.268,6.604,2.033c1.319,0.445,2.733,0.925,3.549,2.135
			c0.624,0.925-6.792,4.694-7.478,4.866c-0.64,0.162-1.3,0.216-1.959,0.253C137.437,270.249,136.116,270.254,134.799,270.191z"/>
	</g>
	<g>
		<path d="M109.514,249.368c0.746,2.701,1.896,5.248,3.479,7.49c1.562,2.253,3.533,4.191,5.744,5.783
			c2.223,1.576,4.682,2.83,7.276,3.681c2.589,0.862,5.299,1.379,8.025,1.472c2.724,0.118,5.464-0.162,8.081-0.895
			c2.626-0.695,5.107-1.889,7.309-3.477c2.193-1.604,4.082-3.646,5.531-6.004c1.477-2.348,2.492-4.995,3.231-7.749l0.459,0.079
			c-0.29,2.879-1.062,5.746-2.369,8.405c-1.319,2.65-3.199,5.065-5.526,6.975c-2.309,1.938-5.051,3.326-7.916,4.237
			c-2.881,0.881-5.902,1.256-8.899,1.171c-5.987-0.209-11.942-2.204-16.69-5.909c-2.374-1.838-4.414-4.115-5.948-6.683
			c-1.523-2.573-2.536-5.433-2.925-8.35L109.514,249.368z"/>
	</g>
	<g>
		<path d="M119.987,266.165c1.625-2.102,3.927-3.676,6.412-4.696c0.628-0.236,1.263-0.466,1.903-0.675l1.959-0.494l1.996-0.297
			c0.67-0.046,1.342-0.1,2.014-0.128c2.687-0.042,5.387,0.338,7.925,1.215c2.531,0.865,4.937,2.214,6.783,4.119l-0.234,0.283
			c-2.179-1.389-4.541-2.339-6.98-2.949c-2.441-0.596-4.951-0.874-7.455-0.809c-0.624,0.049-1.249,0.067-1.873,0.102l-1.859,0.239
			l-1.841,0.355c-0.603,0.16-1.198,0.343-1.808,0.496c-2.385,0.756-4.662,1.885-6.708,3.472L119.987,266.165z"/>
	</g>
	<g>
		<g>
			<path class="st11" d="M170.175,222.792c-19.791,0.192-30.447,6.741-36.852,6.803c-6.405,0.063-17.188-6.277-36.977-6.085
				s-22.223,14.474-46.884,19.105c29.571,18.915,46.215-0.818,59.485,6.864c13.271,7.682,36.018,7.459,49.135-0.48
				c13.118-7.939,37.897,20.496,61.3-5.417C193.422,240.894,189.964,222.6,170.175,222.792z"/>
		</g>
		<g>
			<path d="M170.182,223.585c-5.227,0.114-10.433,0.737-15.512,1.889c-2.541,0.57-5.056,1.247-7.552,2.007
				c-2.499,0.767-4.975,1.606-7.543,2.371c-1.284,0.382-2.605,0.726-4.001,0.969c-0.702,0.114-1.423,0.204-2.181,0.218
				c-0.756,0.005-1.486-0.065-2.193-0.162c-2.8-0.445-5.315-1.261-7.853-1.97c-5.042-1.477-10.083-2.707-15.236-3.391
				c-2.573-0.348-5.162-0.568-7.758-0.677c-1.298-0.056-2.599-0.074-3.899-0.074l-1.915,0.049c-0.633,0.053-1.273,0.076-1.901,0.155
				c-2.522,0.285-5.014,0.807-7.381,1.729c-2.381,0.888-4.638,2.126-6.85,3.493c-2.211,1.372-4.388,2.867-6.632,4.291
				c-2.242,1.43-4.573,2.754-6.987,3.904c-4.838,2.297-10.007,3.82-15.246,4.659l0,0l0.153-0.786
				c3.173,1.905,6.477,3.584,9.91,4.903c3.433,1.314,7.003,2.239,10.626,2.67c3.621,0.461,7.288,0.429,10.918-0.002
				c3.637-0.417,7.228-1.231,10.872-2.045c3.637-0.781,7.408-1.657,11.421-1.298c1.989,0.181,4.001,0.746,5.79,1.718l1.222,0.658
				c0.387,0.22,0.8,0.401,1.201,0.6c0.399,0.202,0.816,0.373,1.229,0.552c0.41,0.185,0.83,0.348,1.249,0.508
				c3.359,1.303,6.91,2.167,10.51,2.668c3.602,0.515,7.26,0.658,10.899,0.524c3.642-0.146,7.269-0.624,10.802-1.458
				c3.521-0.86,6.973-2.042,10.118-3.762l1.203-0.677c0.457-0.262,0.936-0.487,1.426-0.675c0.981-0.38,2.005-0.607,3.02-0.716
				c2.04-0.216,4.022,0.012,5.911,0.396c3.785,0.786,7.304,2.093,10.83,3.266c3.516,1.189,7.028,2.306,10.614,3.011
				c3.579,0.714,7.235,0.974,10.828,0.547c3.588-0.431,7.086-1.613,10.236-3.452c3.155-1.831,5.992-4.223,8.533-6.898l0,0
				l0.276,0.716c-2.269-0.253-4.529-0.61-6.757-1.129c-2.223-0.54-4.411-1.233-6.532-2.093c-4.263-1.69-8.197-4.115-11.885-6.771
				c-3.7-2.64-7.251-5.475-11.217-7.497c-1.977-1.011-4.052-1.803-6.198-2.295C174.6,223.74,172.391,223.546,170.182,223.585z
				 M170.165,222.002c2.323,0.005,4.657,0.255,6.919,0.818c2.262,0.566,4.434,1.449,6.47,2.541
				c4.094,2.181,7.589,5.144,11.238,7.791c3.625,2.677,7.441,5.097,11.597,6.801c2.075,0.851,4.217,1.535,6.395,2.075
				c2.186,0.519,4.407,0.876,6.641,1.134l0.855,0.1l-0.58,0.619l0,0c-2.462,2.835-5.267,5.429-8.507,7.432
				c-3.22,2.024-6.882,3.401-10.675,3.98c-3.797,0.598-7.673,0.364-11.405-0.299c-3.744-0.658-7.367-1.739-10.927-2.865
				c-3.558-1.11-7.077-2.327-10.61-2.983c-1.759-0.318-3.526-0.494-5.197-0.294c-0.834,0.097-1.639,0.29-2.395,0.589
				c-0.378,0.148-0.742,0.325-1.092,0.531l-1.222,0.707c-3.377,1.889-7.01,3.217-10.716,4.124
				c-3.713,0.892-7.501,1.407-11.303,1.576c-3.802,0.172-7.617-0.012-11.388-0.563c-3.769-0.545-7.506-1.458-11.085-2.877
				c-0.447-0.176-0.892-0.357-1.331-0.561c-0.44-0.197-0.881-0.387-1.312-0.612c-0.431-0.22-0.869-0.422-1.289-0.665l-1.229-0.682
				c-1.479-0.823-3.118-1.307-4.833-1.488c-1.715-0.185-3.498-0.079-5.29,0.146c-1.794,0.223-3.602,0.563-5.422,0.923
				c-3.639,0.726-7.346,1.481-11.124,1.829c-3.774,0.359-7.61,0.32-11.37-0.26c-3.758-0.586-7.415-1.683-10.888-3.162
				c-3.479-1.467-6.764-3.329-9.87-5.424l-0.888-0.598l1.041-0.188l0,0c5.121-1.117,10.109-2.777,14.713-5.202
				c2.302-1.212,4.506-2.592,6.681-4.045c2.172-1.46,4.302-3.011,6.535-4.481c2.23-1.465,4.583-2.844,7.121-3.869
				c2.524-1.055,5.218-1.727,7.928-2.063c0.677-0.093,1.358-0.127,2.038-0.192l2.038-0.079c1.338-0.012,2.673-0.007,4.01,0.035
				c2.673,0.086,5.345,0.285,8.004,0.617c5.315,0.644,10.563,1.873,15.656,3.308c2.541,0.688,5.076,1.46,7.497,1.813
				c1.215,0.167,2.283,0.151,3.5-0.056c1.203-0.199,2.439-0.526,3.688-0.869c4.995-1.449,10.185-2.944,15.45-3.815
				C159.512,222.403,164.848,222.002,170.165,222.002z"/>
		</g>
	</g>
	<g class="st0">
		<path class="st1" d="M143.668,180.984c4.397-1.198,36.407-10.426,57.35,31.152c0.072-9.39-0.67-10.538-4.914-15.749
			c-4.244-5.211-9.096-13.254-17.967-17.019c-8.871-3.764-15.786-4.822-22.165-3.496C147.164,177.7,143.668,180.984,143.668,180.984
			z"/>
	</g>
	<g class="st0">
		<path class="st1" d="M126.176,181.035c-6.277-3.73-35.853-9.511-58.686,33.47c-0.25-8.556,0.102-12.573,3.56-16.989
			c3.461-4.416,10.039-12.907,20.369-18.514c6.783-3.683,11.574-4.872,19.344-3.618
			C118.534,176.638,126.176,181.035,126.176,181.035z"/>
	</g>
	<g class="st0">
		<path class="st1" d="M71.665,253.696c0.313,3.166,9.207,0.916,11.523,0.816c3.825-0.162,7.682-0.471,11.435-1.249
			c8.491-1.759,11.14-1.175,15.825,0.981c-1.055-2.483-0.009-5.413-0.009-5.413s-4.968-1.975-10.591-1.159
			c-5.624,0.816-11.423,3.758-17.406,3.396c-2.082-0.125-9.244-0.051-11.734-0.243C70.699,250.966,71.654,253.571,71.665,253.696z"
			/>
	</g>
	<g class="st0">
		<path class="st1" d="M157.773,253.267c5.16-1.402,7.656-3.143,11.569-0.941c7.492,4.219,23.215,7.395,25.146,7.476
			c1.931,0.083,1.634-4.499,1.634-4.499s-6.688-0.688-14.724-3.278s-15.814-5.044-18.748-4.423c-2.932,0.619-4.571,1.4-4.571,1.4
			S158.529,251.689,157.773,253.267z"/>
	</g>
	<g class="st0">
		<path class="st1" d="M124.155,266.413c1.676-1.829,18.584-2.286,22.086-0.304c2.286-0.763,2.286-0.763,2.286-0.763
			s-2.133-3.046-8.987-3.656s-12.571-0.369-18.623,3.547C122.022,266.262,124.155,266.413,124.155,266.413z"/>
	</g>
	<g>
		<g>
			<path class="st2" d="M121.656,283.935c4.808,6.173-17.024,21.326-27.028,17.179c-8.431-3.496-30.624-17.133-39.17-28.711
				c-10.512-14.237,32.39-54.527,39.942-36.993C104.943,257.556,110.052,269.035,121.656,283.935z"/>
		</g>
		<g>
			<path d="M122.905,282.961c0.496,0.617,0.851,1.407,0.978,2.2c0.134,0.795,0.07,1.565-0.088,2.246
				c-0.325,1.375-0.953,2.483-1.627,3.491c-1.382,1.993-3.037,3.611-4.794,5.076c-1.759,1.463-3.646,2.733-5.628,3.85
				c-1.982,1.117-4.061,2.082-6.266,2.798c-2.202,0.714-4.527,1.217-7.01,1.196c-1.238-0.019-2.52-0.176-3.788-0.591
				c-0.308-0.093-0.651-0.236-0.923-0.348l-0.784-0.345c-0.512-0.239-1.025-0.475-1.523-0.726c-3.994-1.98-7.749-4.23-11.437-6.604
				c-3.686-2.371-7.265-4.9-10.73-7.592c-3.461-2.694-6.82-5.538-9.93-8.686c-1.551-1.579-3.044-3.231-4.397-5.025l-0.505-0.675
				c-0.174-0.241-0.355-0.515-0.512-0.781c-0.318-0.542-0.58-1.117-0.781-1.706c-0.406-1.18-0.568-2.408-0.568-3.6
				c0.007-2.395,0.617-4.645,1.421-6.748c0.818-2.107,1.868-4.082,3.034-5.967c2.33-3.774,5.127-7.197,8.187-10.348
				c3.06-3.15,6.388-6.043,10.037-8.516c1.829-1.231,3.73-2.364,5.749-3.31c2.017-0.932,4.159-1.701,6.46-1.959
				c1.147-0.123,2.346-0.109,3.526,0.181c1.175,0.283,2.323,0.865,3.224,1.711c0.909,0.837,1.565,1.898,2.031,2.96l1.319,2.969
				c1.762,3.957,3.53,7.911,5.352,11.831c1.838,3.913,3.741,7.786,5.781,11.576c2.042,3.788,4.219,7.487,6.59,11.059
				C117.676,276.153,120.228,279.605,122.905,282.961z M120.407,284.909c-2.643-3.484-5.162-7.075-7.492-10.786
				c-2.337-3.709-4.467-7.541-6.421-11.446c-1.959-3.904-3.764-7.867-5.503-11.85c-1.75-3.978-3.438-7.974-5.118-11.973l-1.256-3
				c-0.378-0.93-0.895-1.745-1.574-2.39c-1.351-1.31-3.375-1.711-5.38-1.493c-2.017,0.218-4.019,0.925-5.925,1.808
				c-1.91,0.892-3.744,1.982-5.496,3.194c-3.505,2.427-6.734,5.274-9.675,8.375c-2.921,3.118-5.577,6.5-7.738,10.146
				c-1.064,1.829-2,3.727-2.698,5.684c-0.688,1.949-1.154,3.98-1.101,5.934c0.025,0.974,0.188,1.919,0.512,2.782
				c0.162,0.431,0.364,0.841,0.605,1.229c0.123,0.195,0.246,0.371,0.394,0.566l0.487,0.612c1.31,1.627,2.772,3.159,4.309,4.62
				c3.083,2.921,6.442,5.584,9.905,8.102c3.47,2.51,7.056,4.875,10.709,7.116c1.829,1.117,3.679,2.197,5.549,3.231
				c1.866,1.036,3.751,2.044,5.651,2.939c0.475,0.227,0.95,0.438,1.423,0.651l0.709,0.299c0.234,0.09,0.389,0.155,0.603,0.216
				c0.797,0.248,1.692,0.355,2.619,0.35c1.861,0.002,3.829-0.42,5.746-1.02c3.843-1.24,7.585-3.208,10.858-5.675
				c1.623-1.238,3.157-2.624,4.291-4.168c0.559-0.763,1.018-1.579,1.215-2.316c0.102-0.369,0.127-0.7,0.09-0.976
				C120.664,285.381,120.578,285.147,120.407,284.909z"/>
		</g>
	</g>
	<g>
		<g>
			<path class="st2" d="M146.693,283.935c-4.808,6.173,17.024,21.326,27.028,17.179c8.431-3.496,30.623-17.133,39.17-28.711
				c10.512-14.237-32.39-54.527-39.942-36.993C163.408,257.556,158.297,269.035,146.693,283.935z"/>
		</g>
		<g>
			<path d="M147.942,284.909c-0.169,0.241-0.257,0.473-0.294,0.753c-0.037,0.278-0.012,0.61,0.09,0.976
				c0.195,0.737,0.656,1.553,1.215,2.316c1.134,1.544,2.666,2.932,4.291,4.168c3.273,2.466,7.014,4.434,10.858,5.675
				c1.919,0.603,3.885,1.025,5.746,1.02c0.927,0.005,1.822-0.102,2.619-0.35c0.213-0.06,0.369-0.125,0.603-0.216l0.709-0.299
				c0.475-0.211,0.948-0.422,1.423-0.651c1.901-0.895,3.785-1.903,5.651-2.939c1.871-1.034,3.72-2.114,5.549-3.231
				c3.653-2.242,7.239-4.604,10.709-7.116c3.463-2.517,6.822-5.181,9.905-8.102c1.537-1.46,3-2.993,4.309-4.62l0.487-0.612
				c0.148-0.192,0.271-0.369,0.394-0.566c0.241-0.385,0.443-0.795,0.605-1.229c0.325-0.862,0.484-1.808,0.512-2.782
				c0.053-1.952-0.41-3.982-1.101-5.934c-0.698-1.956-1.634-3.855-2.698-5.684c-2.16-3.646-4.817-7.028-7.738-10.146
				c-2.942-3.102-6.171-5.948-9.675-8.375c-1.75-1.212-3.584-2.302-5.496-3.194c-1.905-0.883-3.908-1.59-5.925-1.808
				c-2.005-0.218-4.026,0.183-5.38,1.493c-0.682,0.644-1.196,1.463-1.574,2.39l-1.256,3c-1.681,3.999-3.37,7.995-5.118,11.973
				c-1.741,3.982-3.544,7.949-5.503,11.85c-1.954,3.904-4.084,7.738-6.421,11.446C153.105,277.834,150.585,281.424,147.942,284.909z
				 M145.444,282.961c2.68-3.359,5.229-6.808,7.599-10.382c2.371-3.572,4.55-7.272,6.59-11.059c2.04-3.788,3.943-7.663,5.781-11.576
				c1.822-3.92,3.591-7.874,5.352-11.831l1.319-2.969c0.466-1.062,1.122-2.126,2.031-2.96c0.902-0.846,2.049-1.426,3.224-1.711
				c1.18-0.29,2.378-0.304,3.526-0.181c2.304,0.257,4.444,1.025,6.46,1.959c2.017,0.943,3.92,2.079,5.749,3.31
				c3.649,2.473,6.977,5.366,10.037,8.516s5.858,6.574,8.187,10.348c1.166,1.885,2.216,3.86,3.034,5.967
				c0.804,2.105,1.414,4.356,1.421,6.748c0,1.191-0.162,2.42-0.568,3.6c-0.202,0.589-0.464,1.164-0.781,1.706
				c-0.158,0.269-0.338,0.54-0.512,0.781l-0.505,0.675c-1.354,1.794-2.847,3.447-4.397,5.025c-3.111,3.148-6.472,5.992-9.93,8.686
				c-3.463,2.691-7.044,5.22-10.73,7.592c-3.688,2.374-7.443,4.624-11.437,6.604c-0.498,0.248-1.011,0.487-1.523,0.726l-0.783,0.345
				c-0.269,0.111-0.614,0.255-0.923,0.348c-1.268,0.415-2.552,0.573-3.788,0.591c-2.483,0.021-4.808-0.482-7.01-1.196
				c-2.204-0.716-4.284-1.681-6.266-2.798s-3.869-2.39-5.628-3.85c-1.757-1.465-3.412-3.081-4.794-5.077
				c-0.675-1.008-1.303-2.114-1.627-3.491c-0.158-0.684-0.225-1.453-0.088-2.246C144.595,284.368,144.948,283.578,145.444,282.961z"
				/>
		</g>
	</g>
	<g class="st0">
		<path class="st1" d="M221.957,142.011c0.471,0.471,13.797,17.967,12.962,23.565c-1.178,7.895-22.153,32.874-22.153,32.874
			l-1.623,13.693l-3.563-3.795l0.118,12.137c0,0,12.019-20.974,14.14-23.92s28.162-28.398,28.162-28.398L221.957,142.011z"/>
	</g>
	<g class="st0">
		<path class="st1" d="M55.038,269.582c-3.111,4.673-6.229,16.801-9.703,17.603c-5.57,1.284-9.502-5.378-17.012-2.184
			s-19.075,6.059-21.219,5.906c3.215,1.472,5.466,1.497,6.31,1.653c0.844,0.158,13.039-2.295,19.386-2.775
			c3.278-0.248,16.184,3.445,16.184,3.445s2.362-5.074,4.061-7.128c1.699-2.054,7.376-8.389,7.376-8.389L55.038,269.582z"/>
	</g>
	<g class="st0">
		<path class="st1" d="M72.076,285.884c3.417,2.003,18.03,7.733,24.272,8.129c7.422,0.471,19.796-4.36,23.802-11.312
			c0,0,2.71,2.828,1.885,4.831s-5.067,8.013-9.073,10.016c-4.006,2.003-14.729,6.245-18.618,4.36
			C90.458,300.024,72.076,285.884,72.076,285.884z"/>
	</g>
	<g class="st0">
		<path class="st1" d="M196.86,285.411c-3.417,2.003-18.03,7.733-24.272,8.129c-7.422,0.471-19.796-4.36-23.802-11.312
			c0,0-2.71,2.828-1.885,4.831c0.825,2.003,5.067,8.013,9.073,10.016s14.729,6.245,18.618,4.36
			C178.478,299.552,196.86,285.411,196.86,285.411z"/>
	</g>
	<g>
		<g>
			<path class="st12" d="M199.275,121.351c0,0-0.596-16.122-0.983-23.848c-0.315-6.312-0.427-6.194,5.992-6.509
				c6.419-0.315,23.848-0.983,23.848-0.983l19.882,18.737l-28.428,31.096L199.275,121.351z"/>
		</g>
		<g>
			<path d="M199.013,121.471c-0.413-4.847-0.688-9.805-0.925-14.764c-0.132-2.478-0.206-4.968-0.311-7.448l-0.155-3.713
				c-0.019-0.624-0.035-1.249,0.016-1.91c0.019-0.167,0.028-0.331,0.053-0.501l0.114-0.522c0.06-0.178,0.139-0.359,0.216-0.538
				c0.114-0.169,0.227-0.35,0.366-0.496c0.301-0.294,0.654-0.487,0.994-0.61c0.169-0.051,0.338-0.109,0.505-0.151l0.491-0.093
				c0.647-0.102,1.273-0.146,1.894-0.183c1.24-0.074,2.464-0.116,3.697-0.153l7.383-0.246c4.921-0.178,9.845-0.28,14.768-0.422l0,0
				l0.121-0.005l0.088,0.083l19.879,18.737l0.206,0.195l-0.19,0.209l-28.428,31.096l-0.195,0.211l-0.211-0.192L199.013,121.471z
				 M199.535,121.228l20.243,18.403l-0.406,0.019l28.428-31.099l0.014,0.403l-19.882-18.737l0.209,0.079l0,0
				c-4.917,0.264-9.831,0.568-14.747,0.795l-7.374,0.364l-3.679,0.195c-0.605,0.042-1.208,0.09-1.778,0.183
				c-0.573,0.086-1.089,0.255-1.363,0.533c-0.278,0.262-0.389,0.79-0.424,1.361c-0.042,0.566-0.026,1.173-0.005,1.778l0.172,3.665
				c0.1,2.439,0.227,4.868,0.297,7.309C199.412,111.358,199.544,116.239,199.535,121.228z"/>
		</g>
	</g>
	<g>
		<g>
			<g>
				<path class="st13" d="M201.565,100.804c0.874-0.948-0.169-4.189,1.052-5.538c1.312-1.446,4.585-0.45,5.466-1.405
					c0.394-0.427,0.137-1.78-0.148-3.037c-1.407,0.063-2.659,0.118-3.649,0.167c-6.419,0.315-6.31,0.197-5.992,6.509
					c0.053,1.064,0.111,2.293,0.169,3.611C199.75,101.2,201.157,101.249,201.565,100.804z"/>
			</g>
			<g>
				<path d="M201.352,100.609c0.274-0.331,0.304-0.983,0.318-1.562c0.009-0.598-0.012-1.215,0.03-1.845
					c0.053-0.621,0.127-1.293,0.522-1.887c0.403-0.596,1.076-0.916,1.701-1.043c0.633-0.139,1.259-0.167,1.868-0.192
					c0.605-0.028,1.222-0.039,1.725-0.204c0.114-0.049,0.232-0.097,0.301-0.169c0.051-0.035,0.067-0.058,0.088-0.093
					c0.021-0.037,0.037-0.088,0.051-0.144c0.051-0.236,0.044-0.529,0.016-0.816c-0.058-0.582-0.188-1.173-0.32-1.764v-0.002
					l0.292,0.225c-1.546,0.118-3.092,0.22-4.641,0.315c-0.77,0.058-1.544,0.09-2.29,0.185c-0.737,0.09-1.497,0.236-1.91,0.64
					c-0.403,0.399-0.484,1.164-0.515,1.901c-0.03,0.749,0.019,1.523,0.035,2.295c0.06,1.548,0.095,3.102,0.123,4.652l-0.267-0.274
					l0,0c0.526,0.035,1.05,0.065,1.562,0.056c0.255-0.005,0.51-0.021,0.749-0.06C201.03,100.785,201.266,100.704,201.352,100.609z
					 M201.776,100.998c-0.297,0.285-0.607,0.331-0.885,0.387c-0.285,0.046-0.561,0.063-0.834,0.07
					c-0.547,0.012-1.083-0.021-1.613-0.056l0,0l-0.248-0.009l-0.021-0.264c-0.123-1.546-0.225-3.092-0.32-4.641
					c-0.049-0.779-0.088-1.553-0.072-2.355c-0.002-0.197,0.012-0.401,0.032-0.607c0.012-0.204,0.039-0.41,0.09-0.624
					c0.067-0.417,0.276-0.876,0.61-1.231c0.183-0.162,0.371-0.32,0.58-0.406c0.204-0.118,0.41-0.174,0.617-0.234
					c0.41-0.114,0.814-0.176,1.208-0.218c0.795-0.09,1.569-0.125,2.348-0.153c1.551-0.06,3.102-0.093,4.655-0.118l0.246-0.005
					l0.046,0.227v0.002c0.134,0.598,0.267,1.203,0.331,1.836c0.028,0.318,0.046,0.642-0.03,1.006
					c-0.026,0.093-0.053,0.188-0.107,0.285c-0.053,0.1-0.137,0.195-0.211,0.248c-0.151,0.141-0.322,0.211-0.487,0.28
					c-0.665,0.213-1.286,0.204-1.896,0.239c-0.607,0.025-1.205,0.056-1.766,0.178c-0.563,0.114-1.062,0.378-1.351,0.802
					c-0.294,0.429-0.38,1.025-0.424,1.604c-0.042,0.589-0.019,1.194-0.03,1.815c-0.009,0.313-0.014,0.624-0.067,0.953
					C202.119,100.331,202.05,100.685,201.776,100.998z"/>
			</g>
		</g>
	</g>
	<g>
		<g>
			<path class="st14" d="M266.468,182.92l-14.536-13.384c-2.346-2.16-2.499-5.848-0.338-8.197l20.957-22.761
				c2.16-2.346,5.848-2.499,8.197-0.338l14.536,13.384c2.346,2.16,2.499,5.848,0.338,8.197l-20.957,22.761
				C272.504,184.93,268.816,185.08,266.468,182.92z"/>
		</g>
		<g>
			<path d="M266.146,183.27l-12.598-11.75l-1.574-1.47c-0.529-0.48-1.078-1.066-1.44-1.727c-0.756-1.324-0.983-2.928-0.642-4.407
				c0.167-0.739,0.475-1.446,0.902-2.075c0.438-0.64,0.96-1.134,1.437-1.664l2.928-3.159l11.699-12.645
				c1.963-2.107,3.866-4.219,5.881-6.321c1.103-1.013,2.596-1.576,4.087-1.572c1.493-0.007,2.983,0.566,4.087,1.579l12.687,11.653
				l1.586,1.456c0.533,0.475,1.08,1.038,1.449,1.692c0.772,1.3,1.008,2.893,0.709,4.381c-0.148,0.746-0.44,1.467-0.855,2.112
				c-0.1,0.165-0.209,0.322-0.334,0.468c-0.121,0.151-0.241,0.306-0.357,0.433l-0.712,0.809l-2.847,3.234
				c-1.915,2.14-3.839,4.27-5.788,6.377c-1.938,2.119-3.887,4.226-5.844,6.326l-2.935,3.153l-1.47,1.574l-0.735,0.788l-0.366,0.394
				l-0.417,0.408c-1.164,1.057-2.728,1.643-4.286,1.627C268.832,184.943,267.284,184.331,266.146,183.27z M266.792,182.57
				c0.978,0.885,2.288,1.379,3.6,1.363c1.312-0.005,2.61-0.515,3.56-1.405l0.348-0.35l0.362-0.399l0.723-0.797l1.446-1.595
				l2.9-3.185c1.931-2.123,3.871-4.24,5.823-6.347c1.94-2.116,3.906-4.21,5.879-6.296l2.988-3.104
				c0.494-0.526,1.027-1.02,1.402-1.548c0.387-0.542,0.675-1.164,0.837-1.817c0.334-1.31,0.134-2.754-0.529-3.945
				c-0.334-0.607-0.777-1.106-1.312-1.588l-1.583-1.46l-12.659-11.683c-1.013-0.934-2.381-1.465-3.76-1.46
				c-1.379-0.007-2.749,0.526-3.76,1.458c-1.947,2.054-3.883,4.214-5.823,6.317l-11.637,12.7l-2.907,3.178
				c-0.48,0.538-0.999,1.045-1.368,1.597c-0.378,0.561-0.647,1.194-0.793,1.854c-0.294,1.321-0.083,2.752,0.596,3.92
				c0.341,0.598,0.781,1.073,1.319,1.551l1.592,1.449L266.792,182.57z"/>
		</g>
	</g>
	<g>
		<path class="st15" d="M228.415,90.53c-3.282-3.023,5.739,13.551,3.607,15.869s-13.19-2.967-16.37,0.538
			c-2.965,3.268,2.684,13.996,0.566,16.296c-2.119,2.302-18.611-3.848-16.317-1.736c2.543,2.341,41.171,37.909,41.171,37.909
			l6.463-7.019l0.345-0.373l15.29-16.606l0.313-0.338l6.106-6.63C269.586,128.439,232.043,93.87,228.415,90.53z"/>
	</g>
	<g class="st16">
		<polygon class="st7" points="269.206,128.708 262.933,135.396 232.469,106.705 227.917,89.985 		"/>
	</g>
	<g>
		<rect x="247.418" y="99.644" transform="matrix(0.6774 -0.7356 0.7356 0.6774 -9.1113 221.2523)" width="0.575" height="42.742"/>
	</g>
	<g>
		
			<rect x="231.757" y="116.544" transform="matrix(0.6775 -0.7355 0.7355 0.6775 -26.6281 215.1572)" width="0.575" height="42.802"/>
	</g>
	<g>
		<g>
			
				<rect x="243.26" y="140.92" transform="matrix(0.6774 -0.7356 0.7356 0.6774 -26.7174 243.748)" class="st17" width="42.582" height="22.832"/>
		</g>
		<g>
			<path d="M258.536,176.003l-17.174-15.355l-0.403-0.359l0.371-0.403l28.887-31.284l0.329-0.357l0.35,0.329l16.664,15.61
				l0.209,0.197l-0.192,0.209L258.536,176.003z M258.512,175.43l28.644-31.233l0.016,0.406l-16.929-15.322l0.679-0.028
				l-28.799,31.365l-0.032-0.763L258.512,175.43z"/>
		</g>
	</g>
	<g>
		<g>
			<g>
				<polygon class="st17" points="242.231,138.305 246.772,142.486 251.976,141.395 252.636,136.119 248.093,131.937 
					242.889,133.029 				"/>
			</g>
			<g>
				<path d="M242.46,138.219l4.478,4.087l-0.218-0.06l5.146-1.365l-0.413,0.45l0.936-5.241l0.076,0.211l-4.543-4.182l0.218,0.06
					l-5.139,1.391l0.433-0.471L242.46,138.219z M241.999,138.388l0.343-5.429l0.026-0.41l0.408-0.063l5.267-0.793l0.132-0.021
					l0.086,0.079l4.543,4.182l0.088,0.081l-0.009,0.132l-0.382,5.311l-0.028,0.389l-0.385,0.06l-5.26,0.821l-0.132,0.021
					l-0.086-0.081L241.999,138.388z"/>
			</g>
		</g>
		<g>
			<g>
				<path class="st7" d="M243.765,136.582l2.636-2.863l0.765,0.705l0.498,2.895c0.158,0.746,0.371,1.242,0.64,1.49
					c0.218,0.202,0.42,0.315,0.605,0.343s0.345-0.032,0.48-0.178c0.132-0.144,0.165-0.331,0.097-0.561
					c-0.07-0.229-0.218-0.45-0.445-0.658l0.876-0.953c0.311,0.287,0.54,0.614,0.688,0.983c0.148,0.369,0.192,0.732,0.134,1.092
					c-0.058,0.359-0.213,0.679-0.468,0.955c-0.408,0.443-0.848,0.668-1.321,0.675c-0.473,0.007-0.946-0.209-1.421-0.644
					c-0.199-0.183-0.366-0.392-0.501-0.626c-0.134-0.234-0.246-0.51-0.336-0.828c-0.09-0.318-0.181-0.779-0.269-1.379l-0.267-1.226
					l-1.486,1.613L243.765,136.582z"/>
			</g>
		</g>
	</g>
	<g class="st16">
		
			<rect x="270.648" y="129.393" transform="matrix(0.6834 -0.7301 0.7301 0.6834 -16.6759 244.5328)" class="st7" width="5.865" height="24.197"/>
	</g>
	<g>
		
			<rect x="237.625" y="146.333" transform="matrix(0.6774 -0.7356 0.7356 0.6774 -24.8203 238.104)" class="st15" width="42.878" height="2.035"/>
		<path d="M245.316,164.007l-1.711-1.574l0.097-0.107l29.142-31.648l1.711,1.574l-0.097,0.107L245.316,164.007z M244.013,162.417
			l1.286,1.185l28.85-31.333l-1.286-1.185L244.013,162.417z"/>
	</g>
	<g>
		
			<rect x="248.566" y="156.41" transform="matrix(0.6774 -0.7356 0.7356 0.6774 -28.7035 249.4035)" class="st15" width="42.878" height="2.035"/>
		<path d="M256.259,174.083l-1.711-1.574l0.097-0.107l29.142-31.65l1.711,1.574l-0.097,0.107L256.259,174.083z M254.954,172.493
			l1.287,1.185l28.85-31.333l-1.286-1.185L254.954,172.493z"/>
	</g>
	<g>
		<path d="M273.589,135.699c0.716,0.406,1.37,0.876,2.003,1.372c0.637,0.491,1.24,1.02,1.831,1.56
			c0.584,0.549,1.159,1.106,1.701,1.701c0.545,0.591,1.071,1.203,1.537,1.88c-0.712-0.41-1.365-0.883-2-1.377
			c-0.637-0.491-1.24-1.018-1.836-1.555c-0.586-0.545-1.161-1.103-1.704-1.697C274.576,136.993,274.053,136.378,273.589,135.699z"/>
	</g>
	<g>
		<path d="M248.58,162.862c0.716,0.406,1.37,0.876,2.003,1.372c0.637,0.491,1.24,1.02,1.831,1.56
			c0.584,0.549,1.159,1.106,1.701,1.701c0.545,0.591,1.071,1.203,1.537,1.88c-0.712-0.41-1.365-0.883-2-1.377
			c-0.637-0.491-1.24-1.018-1.836-1.555c-0.586-0.545-1.161-1.103-1.704-1.697C249.567,164.155,249.043,163.541,248.58,162.862z"/>
	</g>
	<g>
		<path d="M270.462,139.095c0.716,0.406,1.37,0.876,2.003,1.372c0.637,0.491,1.24,1.02,1.831,1.56
			c0.584,0.549,1.159,1.106,1.701,1.701c0.545,0.591,1.071,1.203,1.537,1.88c-0.712-0.41-1.365-0.883-2-1.377
			c-0.637-0.491-1.24-1.018-1.836-1.555c-0.586-0.545-1.161-1.103-1.704-1.697C271.449,140.389,270.926,139.774,270.462,139.095z"/>
	</g>
	<g>
		<path d="M267.337,142.491c0.716,0.406,1.37,0.876,2.003,1.372c0.637,0.491,1.24,1.02,1.831,1.56
			c0.584,0.549,1.159,1.106,1.701,1.701c0.545,0.591,1.071,1.203,1.537,1.88c-0.712-0.41-1.365-0.883-2-1.377
			c-0.637-0.491-1.24-1.018-1.836-1.555c-0.586-0.545-1.161-1.103-1.704-1.697C268.322,143.785,267.801,143.17,267.337,142.491z"/>
	</g>
	<g>
		<path d="M264.21,145.885c0.716,0.406,1.37,0.876,2.003,1.372c0.637,0.491,1.24,1.02,1.831,1.56
			c0.584,0.549,1.159,1.106,1.701,1.701c0.545,0.591,1.071,1.203,1.537,1.88c-0.712-0.41-1.365-0.883-2-1.377
			c-0.637-0.491-1.24-1.018-1.836-1.555c-0.586-0.545-1.161-1.103-1.704-1.697C265.198,147.178,264.674,146.564,264.21,145.885z"/>
	</g>
	<g>
		<path d="M261.083,149.281c0.716,0.406,1.37,0.876,2.003,1.372c0.637,0.491,1.24,1.02,1.831,1.56
			c0.584,0.549,1.159,1.106,1.701,1.701c0.545,0.591,1.071,1.203,1.537,1.88c-0.712-0.41-1.365-0.883-2-1.377
			c-0.637-0.491-1.24-1.018-1.836-1.555c-0.586-0.545-1.161-1.103-1.704-1.697C262.071,150.574,261.547,149.96,261.083,149.281z"/>
	</g>
	<g>
		<path d="M257.958,152.676c0.716,0.406,1.37,0.876,2.003,1.372c0.637,0.491,1.24,1.02,1.831,1.56
			c0.584,0.549,1.159,1.106,1.701,1.701c0.545,0.591,1.071,1.203,1.537,1.88c-0.712-0.41-1.365-0.883-2-1.377
			c-0.637-0.491-1.24-1.018-1.836-1.555c-0.586-0.545-1.161-1.103-1.704-1.697C258.944,153.97,258.422,153.356,257.958,152.676z"/>
	</g>
	<g>
		<path d="M254.831,156.07c0.716,0.406,1.37,0.876,2.003,1.372c0.637,0.491,1.24,1.02,1.831,1.56
			c0.584,0.549,1.159,1.106,1.701,1.701c0.545,0.591,1.071,1.203,1.537,1.88c-0.712-0.41-1.365-0.883-2-1.377
			c-0.637-0.491-1.24-1.018-1.836-1.555c-0.586-0.545-1.161-1.103-1.704-1.697C255.819,157.364,255.295,156.752,254.831,156.07z"/>
	</g>
	<g>
		<path d="M251.704,159.466c0.716,0.406,1.37,0.876,2.003,1.372c0.637,0.491,1.24,1.02,1.831,1.56
			c0.584,0.549,1.159,1.106,1.701,1.701c0.545,0.591,1.071,1.203,1.537,1.88c-0.712-0.41-1.365-0.883-2-1.377
			c-0.637-0.491-1.24-1.018-1.836-1.555c-0.586-0.545-1.161-1.103-1.704-1.697C252.692,160.759,252.168,160.145,251.704,159.466z"/>
	</g>
	<g>
		<path d="M258.536,176.003l-17.174-15.355l-0.403-0.359l0.371-0.403l28.887-31.284l0.329-0.357l0.35,0.329l16.664,15.61l0.202,0.19
			l-0.185,0.216c-2.334,2.698-4.722,5.373-7.126,8.037c-2.397,2.677-4.842,5.297-7.269,7.946c-2.436,2.633-4.889,5.229-7.332,7.821
			l-3.667,3.841L258.536,176.003z M258.512,175.43l3.56-4.059l3.544-3.989c2.364-2.629,4.72-5.253,7.091-7.842
			c2.381-2.571,4.743-5.174,7.153-7.717c2.404-2.557,4.824-5.102,7.297-7.626l0.016,0.406l-16.929-15.322l0.679-0.028
			l-28.799,31.365l-0.032-0.763L258.512,175.43z"/>
	</g>
	<g>
		<path d="M228.151,90.818c-0.109-0.097-0.229-0.195-0.318-0.243c-0.028-0.032-0.102-0.002,0.07-0.021
			c0.097-0.021,0.176-0.123,0.178-0.146c0.012-0.028,0.007-0.021,0.007-0.009c-0.002,0.176,0.088,0.524,0.176,0.809
			c0.181,0.6,0.431,1.198,0.675,1.796c0.484,1.198,1.05,2.376,1.572,3.572c0.529,1.194,1.052,2.397,1.535,3.63
			c0.484,1.236,0.92,2.49,1.175,3.887c0.056,0.355,0.1,0.719,0.102,1.117c-0.005,0.399-0.014,0.834-0.257,1.377
			c-0.297,0.619-0.814,0.923-1.24,1.099c-0.443,0.178-0.848,0.236-1.233,0.271c-0.767,0.065-1.46-0.009-2.137-0.095
			s-1.331-0.211-1.975-0.352c-1.289-0.274-2.548-0.573-3.806-0.818c-1.254-0.234-2.517-0.459-3.751-0.417
			c-1.215,0.016-2.462,0.345-3.067,1.231c-0.299,0.438-0.447,1.011-0.51,1.602c-0.053,0.596-0.021,1.217,0.049,1.838
			c0.334,2.499,1.189,4.949,1.822,7.524c0.155,0.649,0.285,1.31,0.376,2.005c0.079,0.7,0.137,1.423-0.072,2.29
			c-0.123,0.433-0.308,0.916-0.818,1.338c-0.498,0.369-0.941,0.454-1.34,0.529c-0.795,0.123-1.493,0.079-2.181,0.009
			c-1.368-0.137-2.656-0.464-3.936-0.777c-1.277-0.325-2.536-0.688-3.788-1.057c-1.254-0.357-2.508-0.707-3.762-0.994
			c-0.313-0.074-0.626-0.139-0.934-0.19c-0.292-0.051-0.651-0.097-0.818-0.079c-0.012,0-0.021,0.007,0.025-0.012
			c0.021-0.009,0.063-0.032,0.109-0.086c0.056-0.056,0.09-0.16,0.095-0.229c0-0.151-0.035-0.165-0.032-0.174
			c-0.002-0.005,0.007,0.012,0.023,0.028c0.056,0.06,0.211,0.197,0.32,0.301l0.719,0.661l5.742,5.29l11.488,10.573l11.539,10.519
			c3.864,3.486,7.717,6.987,11.602,10.45l0.002,0.002l-1.041,0.044l28.468-31.008l0.002-0.002l0.046,1.131
			c-3.354-3.243-6.757-6.433-10.134-9.65l-10.213-9.564c-3.394-3.199-6.843-6.34-10.264-9.509L228.151,90.818z M228.679,90.243
			l10.301,9.467c3.44,3.15,6.854,6.328,10.322,9.446l10.373,9.39c3.484,3.099,6.945,6.229,10.452,9.305l0.589,0.517l-0.542,0.614
			l-0.002,0.002l-28.56,30.925l-0.501,0.542l-0.54-0.498l-0.002-0.002c-3.771-3.588-7.578-7.137-11.37-10.702l-11.433-10.633
			l-11.484-10.579l-5.746-5.285l-0.719-0.661c-0.125-0.121-0.22-0.192-0.387-0.369c-0.039-0.044-0.081-0.093-0.125-0.167
			c-0.039-0.079-0.111-0.169-0.109-0.401c0.002-0.111,0.06-0.253,0.139-0.341c0.074-0.083,0.151-0.13,0.209-0.158
			c0.118-0.056,0.19-0.063,0.26-0.074c0.482-0.042,0.772,0.035,1.12,0.081c0.334,0.058,0.656,0.125,0.981,0.19l3.829,0.828
			c2.541,0.491,5.121,0.981,7.592,1.122c0.607,0.025,1.222,0.028,1.713-0.058c0.239-0.039,0.443-0.13,0.466-0.16
			c-0.009,0.007,0.03-0.035,0.063-0.086c0.035-0.051,0.065-0.137,0.093-0.232c0.118-0.399,0.102-1.001,0.058-1.59
			c-0.046-0.598-0.144-1.219-0.248-1.845c-0.401-2.52-1.062-5.086-1.217-7.779c-0.042-0.675-0.044-1.361,0.049-2.058
			c0.088-0.693,0.269-1.423,0.716-2.061c0.447-0.64,1.101-1.092,1.783-1.342c0.681-0.253,1.379-0.371,2.063-0.429
			c2.738-0.185,5.355,0.311,7.911,0.621c1.263,0.144,2.561,0.329,3.644,0.234c0.262-0.025,0.505-0.074,0.665-0.144
			c0.167-0.065,0.229-0.158,0.213-0.134c0.035-0.051,0.086-0.283,0.086-0.529c0.005-0.253-0.019-0.538-0.058-0.828
			c-0.153-1.175-0.498-2.415-0.834-3.646c-0.35-1.233-0.749-2.466-1.157-3.697c-0.417-1.231-0.821-2.469-1.254-3.704
			c-0.213-0.621-0.415-1.245-0.605-1.889c-0.083-0.341-0.19-0.626-0.183-1.101c0.007-0.07,0.016-0.144,0.058-0.246
			c0.035-0.1,0.172-0.269,0.35-0.308c0.169-0.039,0.274-0.005,0.348,0.019c0.079,0.025,0.13,0.056,0.183,0.086
			C228.42,90.004,228.547,90.122,228.679,90.243z"/>
	</g>
	<g class="st0">
		<path class="st1" d="M288.533,145.428l-1.164-1.038l-22.049,24.077c-14.418-13.345-33.679-30.737-48.899-45.074
			c-0.199-0.185-4.115,0.348-4.115,0.348l-7.83-1.78l-5.227-0.879l68.31,62.877l4.594,0.471l5.301-4.713
			c0,0-4.404-4.089-10.953-10.153L288.533,145.428z"/>
	</g>
	<g class="st16">
		<path class="st7" d="M206.13,94.329l-8.013-1.963c0,0-0.158-0.707,1.178-0.786c1.335-0.079,9.036,0.865,9.036,0.865l-0.158,1.572
			L206.13,94.329z"/>
	</g>
	<g>
		<g>
			<path d="M201.352,100.609c0.274-0.331,0.304-0.983,0.318-1.562c0.009-0.598-0.012-1.215,0.03-1.845
				c0.053-0.621,0.127-1.293,0.522-1.887c0.403-0.596,1.076-0.916,1.701-1.043c0.633-0.139,1.259-0.167,1.868-0.192
				c0.605-0.028,1.222-0.039,1.725-0.204c0.114-0.049,0.232-0.097,0.301-0.169c0.051-0.035,0.067-0.058,0.088-0.093
				c0.021-0.037,0.037-0.088,0.051-0.144c0.051-0.236,0.044-0.529,0.016-0.816c-0.058-0.582-0.188-1.173-0.32-1.764v-0.002
				l0.292,0.225c-1.546,0.118-3.092,0.22-4.641,0.315c-0.77,0.058-1.544,0.09-2.29,0.185c-0.737,0.09-1.497,0.236-1.91,0.64
				c-0.403,0.399-0.484,1.164-0.515,1.901c-0.03,0.749,0.019,1.523,0.035,2.295c0.06,1.548,0.095,3.102,0.123,4.652l-0.267-0.274
				l0,0c0.526,0.035,1.05,0.065,1.562,0.056c0.255-0.005,0.51-0.021,0.749-0.06C201.03,100.785,201.266,100.704,201.352,100.609z
				 M201.776,100.998c-0.297,0.285-0.607,0.331-0.885,0.387c-0.285,0.046-0.561,0.063-0.834,0.07
				c-0.547,0.012-1.083-0.021-1.613-0.056l0,0l-0.248-0.009l-0.021-0.264c-0.123-1.546-0.225-3.092-0.32-4.641
				c-0.049-0.779-0.088-1.553-0.072-2.355c-0.002-0.197,0.012-0.401,0.032-0.607c0.012-0.204,0.039-0.41,0.09-0.624
				c0.067-0.417,0.276-0.876,0.61-1.231c0.183-0.162,0.371-0.32,0.58-0.406c0.204-0.118,0.41-0.174,0.617-0.234
				c0.41-0.114,0.814-0.176,1.208-0.218c0.795-0.09,1.569-0.125,2.348-0.153c1.551-0.06,3.102-0.093,4.655-0.118l0.246-0.005
				l0.046,0.227v0.002c0.134,0.598,0.267,1.203,0.331,1.836c0.028,0.318,0.046,0.642-0.03,1.006
				c-0.026,0.093-0.053,0.188-0.107,0.285c-0.053,0.1-0.137,0.195-0.211,0.248c-0.151,0.141-0.322,0.211-0.487,0.28
				c-0.665,0.213-1.286,0.204-1.896,0.239c-0.607,0.025-1.205,0.056-1.766,0.178c-0.563,0.114-1.062,0.378-1.351,0.802
				c-0.294,0.429-0.38,1.025-0.424,1.604c-0.042,0.589-0.019,1.194-0.03,1.815c-0.009,0.313-0.014,0.624-0.067,0.953
				C202.119,100.331,202.05,100.685,201.776,100.998z"/>
		</g>
	</g>
	<g>
		<path class="st17" d="M235.003,126.793c0.144-0.081,0.371-0.009,0.561-0.014c0.132-0.002,0.264-0.016,0.396-0.025
			c-0.03-0.13-0.028-0.283-0.1-0.382c-0.148-0.202-0.325-0.387-0.51-0.554c-0.41-0.369-0.834-0.721-1.333-1.15
			c-0.03,0.22-0.083,0.338-0.046,0.387c0.209,0.267,0.032,0.427-0.153,0.559c-0.526,0.38-1.484,0.403-2.012-0.03
			c-0.385-0.318-0.387-0.672,0.005-0.99c0.292-0.236,0.612-0.445,0.939-0.633c0.807-0.459,1.639-0.746,2.601-0.487
			c1.043,0.283,1.472,1.314,0.763,2.288c0.257,0.114,0.494,0.32,0.686,0.285c0.461-0.086,0.904-0.28,1.351-0.436
			c0.234-0.081,0.197-0.229,0.042-0.334c-0.09-0.063-0.243-0.081-0.355-0.058c-0.376,0.076-0.522-0.095-0.547-0.44
			c-0.007-0.097-0.009-0.197-0.042-0.287c-0.468-1.365-2.369-2.524-3.82-2.367c-0.955,0.104-1.771,0.445-2.448,1.15
			c-0.573,0.596-0.76,1.718-0.304,2.381c0.498,0.721,1.231,1.161,2.042,1.388C233.48,127.257,234.27,127.204,235.003,126.793z"/>
		<path class="st17" d="M218.536,111.017c0.906-0.315,1.382-1.083,1.284-2.021c-0.025-0.239-0.104-0.531-0.264-0.688
			c-0.665-0.647-1.356-1.254-2.01-1.843c-0.698,0.181-1.321,0.496-1.692,1.038c-0.269,0.392-0.401,0.895-0.475,1.419
			c0.631-0.292,1.261-0.586,1.892-0.881c0.278-0.13,0.549-0.292,0.844-0.352c0.172-0.035,0.389,0.076,0.563,0.169
			c0.13,0.07,0.213,0.218,0.325,0.327c0.206,0.204,0.206,0.38,0.012,0.617c-0.693,0.848-1.611,1.268-2.659,1.46
			c-0.318-0.063-0.661,0.012-0.981-0.042c0.012,0.243-0.009,0.48,0.019,0.726c0.009,0.074,0.03,0.151,0.042,0.225
			c0.308,0.225,0.767,0.385,1.134,0.348C217.233,111.448,217.896,111.239,218.536,111.017z"/>
		<path class="st17" d="M232.124,119.489c-0.654-0.89-1.537-1.368-2.661-1.354c-0.855,0.007-2.017,0.297-2.619,0.767
			c-1.025,0.797-1.275,2.061-0.389,3.027c1.405,1.539,4.284,1.115,5.42-0.046C232.551,121.191,232.697,120.268,232.124,119.489z
			 M231.549,120.201c-0.454,0.693-1.15,1.055-1.892,1.321c-0.482,0.174-0.994,0.264-1.412,0.371
			c-0.343-0.067-0.596-0.093-0.835-0.169c-0.489-0.158-0.614-0.631-0.267-1.043c0.501-0.593,1.166-0.964,1.878-1.238
			c0.362-0.139,0.76-0.172,1.136-0.283c0.471-0.139,0.855,0.046,1.231,0.278C231.751,119.663,231.779,119.849,231.549,120.201z"/>
		<path class="st17" d="M228.086,117.558c0.38-0.192,0.51-0.981,0.209-1.268c-0.772-0.735-1.553-1.458-2.337-2.177
			c-0.132-0.121-0.297-0.204-0.447-0.304c-0.019,0.023-0.039,0.046-0.058,0.07c0.044,0.121,0.088,0.241,0.155,0.429
			c-0.348,0.155-0.675,0.301-1.001,0.45c-0.79,0.357-1.569,0.742-2.374,1.057c-0.415,0.162-0.855,0.503-1.368,0.088
			c0.459,0.744,1.115,1.249,1.683,1.841c0.046-0.014,0.095-0.03,0.141-0.044c-0.012-0.209-0.023-0.42-0.037-0.628
			c-0.026-0.044-0.049-0.086-0.074-0.13c0.566-0.218,1.129-0.438,1.697-0.651c0.318-0.118,0.403,0.037,0.308,0.308
			c-0.114,0.329-0.269,0.647-0.401,0.969c-0.243,0.589-0.482,1.178-0.726,1.776c0.549,0.206,1.025,0.408,1.516,0.559
			c0.16,0.049,0.362-0.035,0.545-0.058c-0.06-0.144-0.083-0.322-0.185-0.429c-0.246-0.257-0.241-0.505-0.097-0.807
			c0.127-0.264,0.209-0.549,0.318-0.823c0.06-0.148,0.134-0.287,0.204-0.431c0.299,0.118,0.549,0.206,0.795,0.313
			C227.087,117.904,227.597,117.804,228.086,117.558z M225.295,116.188c-0.25-0.137-0.176-0.341,0.037-0.45
			c0.334-0.169,0.679-0.313,1.029-0.45c0.491-0.192,0.714,0.181,0.939,0.491c0.086,0.118,0.167,0.392,0.114,0.436
			c-0.255,0.216-0.554,0.38-0.839,0.563C226.092,116.562,225.68,116.399,225.295,116.188z"/>
		<path class="st17" d="M221.443,114.763c-0.496-0.102-1.027,0.301-1.502-0.072c-0.42-0.327-0.837-0.654-1.312-1.022
			c0.202-0.192,0.331-0.362,0.501-0.468c0.297-0.183,0.635-0.299,0.923-0.494c0.297-0.204,0.533-0.144,0.753,0.074
			c0.204,0.204,0.38,0.436,0.589,0.681c-0.121,0.107-0.223,0.181-0.299,0.276c-0.063,0.074-0.095,0.176-0.139,0.264
			c0.097,0.035,0.223,0.127,0.29,0.097c0.508-0.241,1.004-0.508,1.502-0.765c-0.012-0.053-0.021-0.107-0.032-0.16
			c-0.128-0.009-0.269-0.056-0.382-0.021c-0.413,0.134-1.057-0.218-1.138-0.658c-0.014-0.072,0.049-0.204,0.114-0.236
			c0.41-0.211,0.821-0.422,1.249-0.589c0.114-0.044,0.308,0.042,0.431,0.123c0.151,0.097,0.269,0.246,0.396,0.376
			c0.656,0.663,0.654,0.663,0.023,1.344c-0.028,0.03-0.044,0.07-0.107,0.174c0.141,0.07,0.322,0.227,0.401,0.185
			c0.487-0.248,0.95-0.54,1.479-0.853c-0.29-0.104-0.515-0.125-0.656-0.246c-0.668-0.577-1.317-1.18-1.963-1.78
			c-0.396-0.366-0.781-0.746-1.171-1.12c-0.044,0.014-0.09,0.028-0.134,0.042c0.243,0.424,0.053,0.617-0.299,0.788
			c-0.876,0.429-1.752,0.865-2.594,1.356c-0.482,0.28-0.883,0.343-1.328-0.03c-0.074-0.063-0.248-0.009-0.503-0.009
			c0.225,0.276,0.338,0.454,0.487,0.593c0.501,0.471,1.015,0.927,1.525,1.389c0.468,0.424,0.93,0.855,1.407,1.268
			c0.095,0.083,0.271,0.172,0.364,0.137c0.399-0.151,0.781-0.348,1.171-0.526C221.47,114.844,221.456,114.804,221.443,114.763z"/>
		<path class="st17" d="M239.716,126.865c-0.132,0.102-0.267,0.283-0.433,0.322c-0.568,0.137-1.145,0.234-1.722,0.334
			c-0.783,0.134-1.565,0.292-2.353,0.373c-0.41,0.042-0.839,0.306-1.256-0.012c-0.067-0.051-0.181-0.046-0.271-0.067
			c0.016,0.102-0.007,0.243,0.051,0.301c0.457,0.454,0.925,0.897,1.405,1.328c0.076,0.067,0.218,0.063,0.331,0.09
			c-0.009-0.114-0.019-0.225-0.028-0.338c-0.014-0.176-0.097-0.468-0.03-0.51c0.25-0.151,0.593-0.359,0.825-0.29
			c0.373,0.114,0.698,0.415,1.025,0.663c0.352,0.267,0.371,0.42,0.039,0.702c-0.181,0.153-0.44,0.218-0.672,0.294
			c-0.125,0.039-0.269,0.019-0.466,0.028c0.042,0.132,0.042,0.199,0.076,0.232c0.496,0.494,0.99,0.992,1.507,1.467
			c0.083,0.076,0.274,0.037,0.415,0.051c-0.016-0.125,0.012-0.292-0.058-0.371c-0.294-0.327-0.16-0.586,0.093-0.834
			c0.468-0.461,0.96-0.899,1.409-1.377c0.496-0.526,0.96-1.087,1.398-1.59C240.652,127.447,240.172,127.148,239.716,126.865z
			 M238.689,128.476c-0.225,0.209-0.478,0.389-0.732,0.556c-0.051,0.032-0.183-0.014-0.253-0.063
			c-0.128-0.086-0.248-0.19-0.345-0.308c-0.083-0.1-0.204-0.257-0.174-0.338c0.044-0.118,0.197-0.241,0.325-0.274
			c0.297-0.072,0.61-0.09,1.001-0.144c0.065,0.044,0.232,0.1,0.292,0.216C238.842,128.203,238.77,128.4,238.689,128.476z"/>
	</g>
</g>
</svg>
