<?xml version="1.0" encoding="utf-8"?>
<!-- Generator: Adobe Illustrator 23.0.4, SVG Export Plug-In . SVG Version: 6.00 Build 0)  -->
<svg version="1.1" id="OTIS-New" xmlns="http://www.w3.org/2000/svg" xmlns:xlink="http://www.w3.org/1999/xlink" x="0px" y="0px"
	 viewBox="0 0 260 180" style="enable-background:new 0 0 260 180;" xml:space="preserve">
<style type="text/css">
	.st0{fill:#231F20;}
	.st1{fill:#EBF7FD;}
	.st2{fill:#F9EC31;}
	.st3{fill:#404041;}
	.st4{fill:#E5BB63;}
	.st5{fill:#DEAAC0;}
	.st6{fill:#431A2C;}
	.st7{fill:#FFFFFF;}
	.st8{opacity:0.2;}
	.st9{fill:#300940;}
	.st10{opacity:0.4;}
	.st11{opacity:0.27;enable-background:new    ;}
</style>
<g>
	<path class="st0" d="M184.192,78.897l-1.352-1.474c-1.444,1.326-2.876,2.822-4.256,4.447l1.525,1.294
		C181.436,81.602,182.81,80.167,184.192,78.897z"/>
	<path class="st0" d="M171.513,144.995c1.028,1.779,2.188,3.501,3.444,5.117l1.578-1.229c-1.201-1.544-2.308-3.188-3.29-4.889
		L171.513,144.995z"/>
	<path class="st0" d="M193.205,70.693c-1.865,0.756-3.716,1.735-5.498,2.91l1.1,1.67c1.673-1.102,3.406-2.02,5.15-2.726
		L193.205,70.693z"/>
	<path class="st0" d="M188.989,161.993c1.799,0.978,3.683,1.844,5.6,2.575l0.713-1.869c-1.834-0.699-3.637-1.528-5.357-2.464
		L188.989,161.993z"/>
	<path class="st0" d="M205.325,70.697l0.139-1.995c-0.58-0.04-1.139-0.05-1.752-0.06c-1.466,0-2.977,0.124-4.491,0.367l0.316,1.975
		c1.411-0.227,2.815-0.341,4.176-0.341C204.244,70.628,204.792,70.66,205.325,70.697z"/>
	<path class="st0" d="M179.073,154.707c1.469,1.427,3.054,2.767,4.71,3.982l1.184-1.613c-1.583-1.161-3.097-2.441-4.501-3.805
		L179.073,154.707z"/>
	<path class="st0" d="M167.637,109.623l-1.967-0.361c-0.385,2.089-0.63,4.148-0.73,6.118l1.998,0.102
		C167.033,113.598,167.269,111.627,167.637,109.623z"/>
	<path class="st0" d="M176.389,87.845l-1.594-1.209c-1.297,1.709-2.43,3.455-3.364,5.188l1.76,0.95
		C174.077,91.131,175.152,89.473,176.389,87.845z"/>
	<path class="st0" d="M167.096,122.626c0.017-0.37,0.024-0.72,0.024-1.062v-0.109h-2v0.109c0,0.313-0.008,0.636-0.022,1.072
		c0.091,1.673,0.256,3.346,0.491,4.971l1.979-0.287C167.341,125.754,167.182,124.142,167.096,122.626z"/>
	<path class="st0" d="M166.823,133.63c0.537,1.997,1.2,3.959,1.971,5.833l1.85-0.762c-0.738-1.794-1.374-3.676-1.889-5.591
		L166.823,133.63z"/>
	<path class="st0" d="M167.092,103.297l1.922,0.553c0.509-1.768,1.114-3.625,1.852-5.677l-1.883-0.676
		C168.231,99.59,167.612,101.488,167.092,103.297z"/>
	<path class="st0" d="M224.385,163.931l0.488,1.939c1.95-0.491,3.923-1.093,5.863-1.79l-0.676-1.883
		C228.181,162.874,226.271,163.457,224.385,163.931z"/>
	<path class="st0" d="M200.497,166.346c1.983,0.456,4.028,0.789,6.078,0.991l0.195-1.99c-1.965-0.193-3.925-0.514-5.826-0.95
		L200.497,166.346z"/>
	<path class="st0" d="M220.875,78.434l-1.795,0.882c0.243,0.496,0.47,1.022,0.665,1.543c0.448,1.29,0.757,2.604,0.919,3.908
		l1.984-0.246c-0.179-1.443-0.521-2.896-1.022-4.34C221.4,79.576,221.147,78.988,220.875,78.434z"/>
	<path class="st0" d="M245.895,154.046l1.123,1.656c1.661-1.127,3.318-2.341,4.925-3.609l-1.238-1.57
		C249.135,151.762,247.517,152.948,245.895,154.046z"/>
	<path class="st0" d="M259.471,142.444c-1.376,1.433-2.816,2.829-4.28,4.151l1.34,1.484c1.182-1.068,2.339-2.191,3.47-3.333v-1.793
		L259.471,142.444z"/>
	<path class="st0" d="M235.556,159.935l0.844,1.814c1.827-0.85,3.655-1.797,5.433-2.813l-0.992-1.736
		C239.11,158.189,237.332,159.11,235.556,159.935z"/>
	<path class="st0" d="M217.074,73.323c-1.551-1.41-3.382-2.523-5.442-3.309l-0.713,1.869c1.826,0.696,3.444,1.678,4.81,2.919
		L217.074,73.323z"/>
	<path class="st0" d="M218.279,95.508l0.756,0.658l0.776,0.63l0.105-0.141c1.163-1.797,1.985-3.747,2.443-5.794l-1.951-0.437
		C220.003,92.24,219.272,93.97,218.279,95.508z"/>
	<path class="st0" d="M212.676,165.561l0.049,2c2.021-0.05,4.081-0.221,6.124-0.509l-0.279-1.98
		C216.603,165.349,214.62,165.514,212.676,165.561z"/>
</g>
<g>
	<path class="st0" d="M213.764,100.94c-0.195,0-0.391-0.013-0.585-0.039l0.266-1.982c0.557,0.075,1.103-0.042,1.688-0.354
		l0.939,1.766C215.31,100.736,214.535,100.94,213.764,100.94z"/>
</g>
<g>
	<g>
		<path class="st1" d="M143.741,63.753c-3.11,2.15-6.338,4.053-9.476,6.146c-0.852,0.568-1.708,1.139-2.634,1.574
			c-1.561,0.734-3.284,1.068-4.86,1.77c-3.426,1.525-5.953,4.689-9.456,6.027c-1.101-3.327,0.514-6.902,1.306-10.149
			c1.76-7.217,7.167-16.743,15.097-18.37c2.45-0.502,5.516-0.09,7.997,0.06c2.593,0.156,4.27,1.244,6.308,2.832
			c0.669,0.521,1.365,1.078,1.693,1.86c0.672,1.602-0.449,3.374-1.655,4.625C146.773,61.468,145.308,62.667,143.741,63.753z"/>
	</g>
	<g>
		<path class="st2" d="M113.391,110.53c0.213-2.36,0.438-4.584,1.015-6.881c0.665-2.645,1.337-5.312,1.44-8.051
			c0.1-2.683-0.77-5.983-3.276-7.439c-1.309-0.761-2.913-0.986-4.091-1.938c-0.196-0.158-0.382-0.342-0.473-0.576
			c-0.244-0.626,0.264-1.275,0.744-1.747c2.661-2.614,5.942-5.541,9.398-7.05c1.535-0.67,2.848-1.234,4.312-2.136
			c1.737-1.071,3.533-2.059,5.437-2.803c2.877-1.124,5.94-1.672,8.98-2.214c3.747-0.668,7.541-1.338,11.336-1.061
			c4.688,0.342,9.414,1.268,14.059,1.916c10.946,1.525,20.937,7.452,27.695,16.172c6.909,8.915,10.147,20.316,9.136,31.535
			c-0.531,5.888-2.233,11.662-4.967,16.903c-2.686,5.148-6.02,8.737-10.823,11.961c-5.563,3.735-10.961,7.61-17.474,9.395
			c-1.132,0.31-1.892,0.922-2.904,1.372c-1.278,0.568-3.215,0.421-4.596,0.484c-1.518,0.069-3.037,0.079-4.556,0.058
			c-0.21-0.003-0.421,0.015-0.63,0.031c-3.258,0.238-6.499,0.58-9.743,0.419c-3.35-0.167-6.645-0.598-9.891-1.465
			c-3.316-0.886-6.261-2.587-9.458-3.625c-1.239-0.402-2.434-0.926-3.627-1.448c-2.584-1.132-5.322-2.395-6.813-4.789
			c-2.111-3.389-1.061-6.412-0.053-9.954c1.348-4.738,0.467-9.699,0.288-14.523c-0.075-2.015-0.034-3.802-0.46-5.76
			C112.927,115.16,113.195,112.709,113.391,110.53z"/>
	</g>
	<g>
		<path class="st3" d="M113.391,110.53c0.213-2.36,0.438-4.584,1.015-6.881c0.634-2.524,1.04-4.928,1.287-7.503
			c0.021-0.217,0.051-0.454,0.21-0.603c0.184-0.172,0.467-0.161,0.717-0.131c2.339,0.282,4.566,1.412,6.174,3.134
			c1.159,1.241,1.986,2.751,2.731,4.277c1.389,2.846,2.115,6.024,3.53,8.812c1.333,2.625,1.955,5.605,2.318,8.532
			c0.783,6.306,0.026,12.745-1.628,18.854c-1.35,4.987-3.429,10.025-7.378,13.357c-0.968,0.817-3.589-0.527-4.678-1.101
			c-1.547-0.816-3.139-2.233-4.067-3.724c-2.111-3.389-1.061-6.412-0.053-9.954c1.348-4.738,0.467-9.699,0.288-14.523
			c-0.075-2.015-0.034-3.802-0.46-5.76C112.927,115.16,113.195,112.709,113.391,110.53z"/>
	</g>
	<g>
		<path class="st3" d="M128.459,82.473c-1.779-1.974-3.659-4.523-6.093-5.736c-0.594-0.296-1.388-0.82-1.07-1.403
			c0.125-0.23,0.39-0.339,0.635-0.431c2.352-0.882,4.725-1.706,7.118-2.469c1.438-0.459,2.91-0.9,4.419-0.896
			c1.45,0.004,2.863,0.418,4.254,0.828c0.983,0.29,1.806,0.724,2.726,1.134c2.171,0.966,3.483,2.795,4.534,4.881
			c0.852,1.69,1.588,3.566,2.911,4.96c0.497,0.523,1.082,0.793,1.63,1.233c2.257,1.808,3.847,4.609,5.357,7.031
			c1.179,1.89,1.667,3.856,2.351,5.974c1.917,5.93,3.604,11.885,4.086,18.11c0.271,3.498,0.99,7.009,0.32,10.507
			c-1.067,5.568-1.421,11.462-2.91,16.923c-0.684,2.509-2.255,5.056-3.524,7.309c-1.374,2.439-2.906,4.789-4.584,7.03
			c-0.19,0.254-0.387,0.511-0.644,0.697c-0.313,0.226-0.694,0.331-1.069,0.422c-4.267,1.036-8.861,0.677-12.915-1.009
			c-0.179-0.075-0.369-0.162-0.468-0.329c-0.126-0.215-0.06-0.488,0.03-0.72c0.478-1.23,1.494-2.155,2.306-3.196
			c1.066-1.367,1.792-2.962,2.508-4.54c1.284-2.83,2.573-5.674,3.39-8.672c1.27-4.66,1.354-9.535,1.135-14.329
			c-0.205-4.494-0.595-8.668-1.696-13.062c-0.369-1.472-0.819-2.923-1.269-4.372c-0.617-1.986-1.233-3.972-1.85-5.958
			c-0.774-2.492-1.817-4.904-2.903-7.277c-0.996-2.176-1.873-4.001-3.217-6.006C132.355,86.715,130.38,84.604,128.459,82.473z"/>
	</g>
	<g>
		<path class="st3" d="M163.326,74.402c0.04-0.272,0.175-0.56,0.441-0.868c0.596-0.691,1.542-0.953,2.442-1.105
			c4.719-0.794,9.762,0.615,13.387,3.738c1.066,0.919,1.437,1.761,2.177,2.889c0.604,0.921,1.434,1.675,1.936,2.667
			c0.321,0.635,0.253,1.28,0.515,1.901c0.332,0.788,1.145,1.411,1.576,2.16c1.785,3.106,2.419,7.264,3.18,10.724
			c0.772,3.511,1.902,6.839,2.437,10.433c1.127,7.583,0.84,15.38-1.007,22.827c-0.822,3.314-1.934,6.552-3.245,9.705
			c-1.17,2.816-2.557,5.645-4.838,7.669c-2.766,2.455-6.56,3.472-9.401,5.838c-0.357,0.298-0.71,0.623-1.15,0.774
			c-0.788,0.27-1.736-0.06-2.444,0.379c-0.409-0.552-0.027-1.321,0.342-1.9c2.132-3.348,3.815-6.982,4.998-10.771
			c0.557-1.785,0.729-3.796,1.406-5.523c1.165-2.97,1.344-6.178,1.575-9.37c0.253-3.49,0.323-6.994,0.207-10.491
			c-0.06-1.815-0.17-3.63-0.37-5.435c-0.607-5.5-1.74-11.214-3.374-16.478c-0.774-2.492-1.817-4.904-2.903-7.277
			c-0.996-2.176-1.873-4.001-3.217-6.006c-0.975-1.453-2.085-2.819-3.248-4.125C164.109,76.041,163.192,75.309,163.326,74.402z"/>
	</g>
	<g>
		<path class="st3" d="M197.662,96.232c0.316-0.241,0.78-0.375,1.438-0.363c1.261,0.023,2.495,0.342,3.737,0.562
			c0.919,0.163,1.847,0.272,2.778,0.335c1.945,0.13,3.867,0.019,5.797-0.222c0.857-0.107,4.556-0.079,4.938-0.938
			c-1.046,2.352-2.099,4.718-3.538,6.852c-2.396,3.555-5.985,7.388-9.657,9.595c-0.957,0.575-2.257,1.227-3.315,0.509
			c-0.995-0.676-0.521-1.252-0.412-2.186c0.3-2.573-0.772-5.828-1.318-8.34C197.757,100.418,196.266,97.294,197.662,96.232z"/>
	</g>
	<g>
		<path class="st4" d="M88.885,153.598c-0.59-0.135-1.168-0.3-1.73-0.499c-4.433-1.567-8.897-3.357-12.584-6.347
			c-1.314-1.065-2.508-2.267-3.698-3.469c-2.278-2.301-4.588-4.661-6.032-7.559c-0.966-1.937-1.512-4.052-1.984-6.165
			c-0.456-2.043-0.848-4.099-1.176-6.167c-0.443-2.793-0.768-5.605-0.973-8.426c-0.09-1.238-0.251-2.301-0.006-3.52
			c0.251-1.246,0.562-2.479,0.933-3.694c1.482-4.86,3.914-9.457,7.248-13.302c0.937-1.081,1.874-1.508,3.055-2.218
			c1.492-0.897,2.787-2.142,4.251-3.099c2.956-1.933,6.178-3.457,9.545-4.521c2.472-0.781,5.731-1.861,8.354-1.622
			c2.929,0.267,5.993,1.025,8.849,1.761c2.025,0.522,4.03,1.115,6.055,1.638c2.206,0.57,4.058,1.316,5.926,2.668
			c2.796,2.023,5.258,4.508,7.255,7.322c1.159,1.633,2.178,3.421,2.597,5.371c0.034,0.157,0.063,0.315,0.089,0.474
			c0.187,1.162,0.149,2.348,0.11,3.524c-0.097,2.904-0.193,5.807-0.29,8.711c-0.09,2.708-0.81,5.297-0.423,7.982
			c0.442,3.066,0.883,6.133,1.325,9.2c0.231,1.603,0.639,3.593,0.051,5.159c-0.451,1.2-1.102,2.434-1.625,3.62
			c-0.841,1.906-2.985,3.898-4.658,5.099c-2.225,1.596-4.559,3.125-6.798,4.736c-1.411,1.016-3.088,2.3-4.882,2.476
			c-1.854,0.183-3.678,0.383-5.564,0.661C97.923,154.007,93.103,154.566,88.885,153.598z"/>
	</g>
	<g>
		<path class="st5" d="M94.227,148.615c-0.033-0.03-0.065-0.062-0.096-0.095c-1.432-1.528,1.162-2.912,2.244-3.411
			c1.18-0.543,2.397-1.096,3.695-1.153c0.676-0.029,1.349,0.078,2.016,0.185c0.542,0.087,1.084,0.174,1.626,0.261
			c0.486,0.078,0.99,0.163,1.395,0.443s0.678,0.815,0.499,1.274c-0.166,0.426-0.564,0.75-0.767,1.17
			c-0.517,1.067-0.578,2.175-1.771,2.655c-1.043,0.419-2.187,0.94-3.336,0.868c-1.353-0.085-2.548-0.864-3.812-1.355
			C95.329,149.227,94.688,149.042,94.227,148.615z"/>
	</g>
	<g>
		<path class="st6" d="M89.04,145.021c-0.338-0.232-0.644-0.506-0.902-0.83c-0.319-0.4-0.553-0.864-0.895-1.243
			c-0.52-0.576-1.298-0.977-1.529-1.718c0.074,0.236,2.88,0.471,3.227,0.51c1.086,0.122,2.046,0.458,3.155,0.433
			c0.842-0.019,1.639-0.113,2.471-0.198c2.194-0.225,4.517-0.423,6.724-0.454c2.434-0.035,5.226-0.644,7.385-1.768
			c-0.636,1.787-1.401,3.528-2.287,5.204c-3.095-0.554-6.335-1.101-9.335-0.158c-1.282,0.403-2.477,1.071-3.511,1.929
			c-0.945,0.784-1.475,0.09-2.268-0.506C90.586,145.705,89.749,145.508,89.04,145.021z"/>
	</g>
	<g>
		<path class="st0" d="M70.294,93.642c-0.564,0.517-1.094,1.064-1.586,1.598c-4.248,4.614-6.195,11.283-7.62,17.267
			c-0.198,0.83-0.337,1.696-0.603,2.503c-1.074-0.633-0.764-2.354-0.576-3.373c0.324-1.756,0.319-3.555,0.666-5.317
			c0.569-2.884,1.429-6.785,3.405-9.071c2.498-2.888,5.361-5.83,9.116-6.925c0.391-0.114,1.743-0.549,1.873,0.207
			c0.104,0.608-1.071,0.734-1.465,0.906C72.344,91.943,71.267,92.749,70.294,93.642z"/>
	</g>
	<g>
		<path class="st0" d="M95.117,94.652c0.877-0.518,1.805-0.93,2.659-1.48c0.734-0.473,1.616-0.854,2.488-0.964
			c0.763-0.096,1.452-0.539,2.252-0.36c0.278,0.062,0.538,0.187,0.791,0.319c0.771,0.401,1.444,0.959,2.128,1.488
			c0.245,0.19,0.463,0.421,0.726,0.578c0.365,0.218,0.771,0.351,1.128,0.591c0.904,0.607,1.192,1.456,1.806,2.296
			c3.731,5.101,5.268,11.479,4.702,17.761c-0.992,11.003-8.114,19.353-15.908,18.65c-7.794-0.703-13.308-10.192-12.316-21.195
			c0.387-4.293,1.733-8.581,4.197-12.143C91.236,98.075,92.879,95.975,95.117,94.652z"/>
	</g>
	<g>
		<path class="st7" d="M111.001,100.456c-0.042-0.088-0.082-0.177-0.122-0.265c-0.325-0.724-0.589-1.48-1-2.158
			c-0.742-1.222-1.899-2.097-3.032-2.931c-0.578-0.426-1.161-0.846-1.707-1.312c-0.482-0.412-1.202-0.909-1.212-1.583
			c-0.001-0.074,0.001-0.156,0.05-0.21c0.04-0.044,0.101-0.059,0.159-0.071c0.895-0.18,1.791,0.079,2.658,0.278
			c0.419,0.096,0.841,0.167,1.264,0.239c0.358,0.061,0.723,0.009,1.076,0.088c0.278,0.062,0.538,0.187,0.791,0.319
			c0.771,0.401,1.444,0.959,2.128,1.488c0.245,0.19,0.463,0.421,0.726,0.578c0.365,0.218,0.771,0.351,1.128,0.591
			c0.904,0.607,1.192,1.456,1.806,2.296c2.89,3.951,4.418,8.612,4.515,13.5c0.041,2.058,0.111,4.259-0.305,6.277
			c-0.425,2.061-1.087,4.072-1.972,5.981c-0.284,0.613-0.591,1.216-0.952,1.786c-0.395,0.625-0.853,1.207-1.31,1.788
			c-0.717,0.912-1.434,1.824-2.151,2.736c-0.769,0.978-2,1.535-3.074,2.107c-1.139,0.606-2.279,1.212-3.467,1.715
			c-1.524,0.644-3.287,0.657-4.92,0.835c-0.537,0.059-1.257,0.187-1.681-0.245c-0.221-0.225-0.291-0.612-0.095-0.859
			c0.094-0.119,0.233-0.191,0.367-0.262c0.536-0.285,1.053-0.603,1.57-0.92c1.719-1.055,3.571-2.01,5.12-3.308
			c1.248-1.046,2.194-2.366,3.07-3.725c0.306-0.475,0.515-1.005,0.712-1.534c1.435-3.857,2.352-7.907,2.72-12.006
			c0.055-0.613,0.098-1.23,0.07-1.845c-0.081-1.786-0.832-3.416-1.153-5.145C112.498,103.16,111.651,101.835,111.001,100.456z"/>
	</g>
	<g>
		<path class="st0" d="M125.36,118.539c-0.012,2.263,0.098,4.523,0.327,6.781c0.22,2.26,0.578,4.508,0.834,6.824
			c0.105,1.166,0.203,2.346,0.125,3.566c-0.084,1.216-0.35,2.456-0.858,3.607c-0.533,1.135-1.306,2.15-2.063,3.007
			c-0.738,0.912-1.572,1.739-2.394,2.573c-3.377,3.248-7.356,5.895-11.719,7.629c-2.172,0.883-4.431,1.569-6.741,1.989
			c-2.305,0.427-4.651,0.689-7,0.649c-4.689-0.032-9.391-0.921-13.742-2.718c-4.353-1.784-8.347-4.436-11.694-7.744
			c-6.714-6.593-10.78-15.884-10.83-25.336c-0.054-4.71,0.792-9.43,2.505-13.82c1.709-4.391,4.287-8.44,7.535-11.854
			c6.469-6.859,15.694-11.062,25.138-11.327c9.429-0.407,18.949,3.098,25.889,9.496c1.754,1.616,3.324,3.556,4.311,5.823
			c0.978,2.272,1.305,4.74,1.331,7.098c0.027,2.37-0.191,4.676-0.366,6.957C125.79,114.021,125.383,116.269,125.36,118.539z
			 M123.822,118.521c0.048-2.316-0.057-4.645,0.15-6.935c0.175-2.289,0.383-4.557,0.355-6.774c-0.026-2.213-0.33-4.378-1.172-6.333
			c-0.852-1.95-2.22-3.657-3.831-5.142c-6.567-6.042-15.555-9.345-24.472-8.952c-8.916,0.25-17.639,4.196-23.769,10.679
			c-3.076,3.224-5.519,7.049-7.142,11.199c-1.626,4.148-2.435,8.616-2.391,13.079c0.069,4.461,1.016,8.9,2.749,13.01
			c1.738,4.109,4.283,7.878,7.446,11.032c3.16,3.157,6.94,5.696,11.068,7.414c4.125,1.729,8.598,2.6,13.069,2.655
			c8.963,0.123,17.88-3.476,24.32-9.719c0.787-0.795,1.588-1.582,2.295-2.452c0.76-0.859,1.38-1.687,1.834-2.629
			c0.419-0.95,0.647-1.976,0.727-3.045c0.074-1.072-0.011-2.185-0.109-3.3c-0.241-2.242-0.596-4.527-0.814-6.832
			C123.908,123.168,123.802,120.843,123.822,118.521z"/>
	</g>
	<g>
		<path class="st0" d="M120.6,114.745c-0.429,5.153-2.283,10.277-5.696,14.298c-1.7,2-3.794,3.709-6.205,4.862
			c-2.402,1.159-5.134,1.72-7.833,1.507c-2.698-0.218-5.324-1.205-7.536-2.744c-2.212-1.548-4.022-3.601-5.39-5.882
			c-2.763-4.583-3.731-10.044-3.264-15.28c0.509-5.237,2.507-10.395,6.044-14.363c1.759-1.975,3.899-3.646,6.336-4.738
			c2.427-1.098,5.15-1.589,7.807-1.319c2.658,0.275,5.202,1.307,7.337,2.847c2.143,1.541,3.886,3.57,5.196,5.819
			C120.011,104.281,120.955,109.589,120.6,114.745z M119.608,114.656c0.501-4.962-0.484-10.136-3.086-14.383
			c-1.289-2.117-2.974-3.994-4.994-5.386c-2.011-1.399-4.368-2.273-6.789-2.462c-2.423-0.181-4.863,0.326-7.041,1.378
			c-2.183,1.05-4.115,2.608-5.694,4.464c-3.166,3.732-4.942,8.541-5.399,13.414c-0.39,4.883,0.571,9.903,3.027,14.095
			c2.424,4.166,6.587,7.404,11.39,7.888c2.38,0.238,4.811-0.2,7.014-1.191c2.209-0.988,4.187-2.509,5.824-4.34
			C117.152,124.455,119.07,119.612,119.608,114.656z"/>
	</g>
	<g>
		<path class="st0" d="M59.778,115.784c-0.335-2.133-0.403-4.333-0.205-6.54c0.908-10.072,7.213-18.293,15.332-19.991l0.184,0.878
			c-7.737,1.619-13.75,9.512-14.623,19.194c-0.192,2.133-0.125,4.26,0.198,6.32L59.778,115.784z"/>
	</g>
	<g>
		<path class="st0" d="M101.789,91.398c2.223,0.639,4.273,1.846,6.001,3.387c1.723,1.553,3.136,3.43,4.225,5.469
			c1.069,2.051,1.817,4.259,2.263,6.521c0.092,0.569,0.207,1.135,0.279,1.707l0.167,1.721l0.028,1.728
			c0.006,0.576-0.055,1.15-0.08,1.724c-0.351,4.575-1.794,9.128-4.488,12.888c-1.338,1.875-2.956,3.569-4.854,4.893
			c-1.894,1.321-4.048,2.287-6.315,2.728l-0.186-0.878c4.245-1.032,7.804-3.961,10.217-7.531c2.409-3.607,3.791-7.875,4.071-12.208
			c0.299-4.326-0.457-8.755-2.416-12.614c-1.896-3.861-5.095-7.172-9.188-8.679L101.789,91.398z"/>
	</g>
	<g>
		<path class="st0" d="M73.075,138.017c3.064,0.664,6.119,1.35,9.157,2.097c3.024,0.753,6.092,1.113,9.177,1.279
			c3.085,0.172,6.175-0.037,9.215-0.41c3.033-0.416,6.039-1.015,8.843-2.202l0.002-0.001l1.215-0.562l-0.6,1.168
			c-1.285,2.5-2.392,5.09-3.893,7.564c-0.765,1.22-1.604,2.453-2.83,3.417c-0.33,0.211-0.653,0.437-0.996,0.629
			c-0.375,0.138-0.742,0.31-1.128,0.407c-0.396,0.05-0.796,0.144-1.19,0.143c-0.392-0.031-0.79-0.046-1.175-0.101
			c-1.533-0.306-2.831-1.055-4.065-1.83c-1.189-0.79-2.333-1.616-3.479-2.457c-1.141-0.844-2.278-1.697-3.369-2.614
			c-1.094-0.938-2.156-1.816-3.151-2.995l0.718-0.538c0.865,0.95,2.008,1.862,3.091,2.715c1.108,0.854,2.235,1.691,3.385,2.498
			c1.144,0.811,2.317,1.6,3.48,2.372c1.151,0.715,2.355,1.379,3.615,1.619c1.257,0.234,2.485-0.063,3.497-0.851
			c1.019-0.778,1.826-1.904,2.562-3.06c1.474-2.332,2.694-4.906,4.142-7.348l0.615,0.606l-0.002,0.001
			c-2.715,1.817-5.918,2.65-9.065,3.089c-3.17,0.401-6.367,0.394-9.526,0.126c-3.158-0.254-6.311-0.849-9.307-1.827
			C79.018,140.02,76.042,139.03,73.075,138.017z"/>
	</g>
	<g>
		<path class="st0" d="M93.454,147.944l-0.747-0.497c3.128-4.704,10.658-4.229,13.995-2.643l-0.385,0.81
			C103.316,144.188,96.255,143.73,93.454,147.944z"/>
	</g>
	<g>
		<path class="st0" d="M107.998,83.954c1.749-1.697,3.581-3.32,5.548-4.777c1.985-1.424,4.022-2.798,6.182-3.958
			c4.282-2.387,8.884-4.224,13.64-5.475c9.544-2.489,19.577-2.746,29.329-1.082c4.853,0.971,9.667,2.381,14.153,4.623
			c4.456,2.278,8.579,5.257,12.073,8.885c0.832,0.944,1.709,1.853,2.5,2.831l2.21,3.065c1.3,2.15,2.581,4.331,3.492,6.674
			c1.922,4.626,3.202,9.534,3.585,14.497c0.333,2.462,0.321,5.013,0.146,7.51c-0.179,2.505-0.573,4.998-1.217,7.424
			c-0.637,2.426-1.45,4.808-2.493,7.086c-1.045,2.277-2.27,4.465-3.653,6.548c-5.568,8.339-13.872,14.598-23.048,18.257
			c-9.201,3.699-19.312,4.762-29.031,3.61c-9.727-1.148-19.243-4.483-27.232-10.094c-0.203-0.142-0.252-0.422-0.109-0.625
			c0.138-0.196,0.407-0.247,0.608-0.121c8.114,5.108,17.453,8.097,26.932,8.877c2.37,0.2,4.749,0.271,7.123,0.206
			c1.189,0.002,2.37-0.107,3.553-0.168c1.178-0.116,2.36-0.216,3.529-0.393c2.347-0.315,4.659-0.826,6.943-1.42
			c2.267-0.656,4.514-1.384,6.678-2.32c8.682-3.652,16.284-9.774,21.461-17.539c5.171-7.759,7.647-17.262,6.513-26.506
			c-0.387-4.674-1.625-9.227-3.426-13.489c-1.828-4.25-4.31-8.24-7.539-11.558c-3.191-3.348-6.979-6.105-11.103-8.262
			c-4.14-2.15-8.651-3.547-13.24-4.541l-3.482-0.599c-1.159-0.213-2.345-0.258-3.518-0.396c-2.346-0.314-4.724-0.251-7.094-0.338
			c-4.736-0.017-9.464,0.569-14.09,1.603c-4.604,1.109-9.145,2.608-13.406,4.735c-4.275,2.098-8.272,4.763-11.906,7.885
			l-0.008,0.007c-0.188,0.161-0.471,0.14-0.633-0.048C107.815,84.388,107.829,84.118,107.998,83.954z"/>
	</g>
	<g>
		<path class="st0" d="M199.256,111.982c1.628-0.136,3.465-1.216,5.062-2.413c1.625-1.222,3.144-2.643,4.588-4.136
			c1.435-1.506,2.795-3.094,4.073-4.744c1.266-1.652,2.493-3.369,3.43-5.185l0.001-0.002l0.516,0.62
			c-3.58,0.971-7.255,1.797-11.07,1.851c-1.902,0.032-3.828-0.166-5.704-0.597c-1.877-0.428-3.693-1.088-5.426-1.865
			c-0.564-0.253-0.816-0.915-0.564-1.479c0.253-0.564,0.915-0.816,1.479-0.564c0.02,0.009,0.042,0.02,0.061,0.029
			c1.591,0.832,3.227,1.538,4.927,2.036c1.698,0.5,3.46,0.793,5.252,0.872c3.591,0.17,7.239-0.408,10.829-1.155l0.89-0.185
			l-0.374,0.805l-0.001,0.002c-0.892,1.99-2.04,3.786-3.241,5.55c-1.212,1.756-2.509,3.451-3.899,5.081
			c-1.403,1.618-2.89,3.177-4.563,4.588c-0.415,0.356-0.839,0.704-1.302,1.019c-0.445,0.331-0.904,0.65-1.413,0.922
			c-0.955,0.604-2.109,1.032-3.394,1.234c-0.625,0.099-1.212-0.328-1.311-0.954c-0.099-0.625,0.328-1.212,0.954-1.311
			c0.027-0.004,0.053-0.007,0.08-0.01L199.256,111.982z"/>
	</g>
	<g>
		<path class="st0" d="M116.72,77.582c-0.036-3.904,0.415-7.848,1.561-11.658c1.151-3.786,2.993-7.506,5.881-10.434
			c1.459-1.423,3.115-2.709,5.006-3.527c0.454-0.243,0.939-0.408,1.427-0.565c0.486-0.154,0.967-0.346,1.454-0.466
			c0.969-0.259,1.959-0.437,2.951-0.58c3.975-0.555,8.117,0.074,11.666,1.835c0.222,0.11,0.313,0.38,0.203,0.602
			c-0.103,0.208-0.349,0.299-0.561,0.22c-3.547-1.326-7.386-1.595-11.042-0.94c-0.913,0.177-1.819,0.384-2.705,0.667
			c-0.446,0.131-0.855,0.325-1.283,0.482c-0.427,0.159-0.85,0.322-1.239,0.559c-1.651,0.756-3.071,1.927-4.335,3.218
			c-2.543,2.616-4.182,6.045-5.392,9.579c-1.208,3.559-1.998,7.291-2.698,11.081c-0.043,0.245-0.276,0.409-0.521,0.366
			C116.877,77.983,116.724,77.793,116.72,77.582z"/>
	</g>
	<g>
		<path class="st0" d="M181.508,148.697c-0.106,0-0.212-0.037-0.297-0.112c-0.186-0.164-0.204-0.447-0.04-0.633
			c12.822-14.532,10.801-35.799,9.337-44.268c-2.304-13.329-7.918-24.855-13.652-28.028c-0.217-0.12-0.295-0.393-0.175-0.61
			c0.12-0.217,0.393-0.294,0.61-0.175c5.955,3.296,11.754,15.081,14.101,28.66c1.486,8.596,3.53,30.191-9.548,45.014
			C181.755,148.645,181.632,148.697,181.508,148.697z"/>
	</g>
	<g>
		<path class="st0" d="M166.614,156.536c-0.106,0-0.212-0.037-0.297-0.112c-0.186-0.164-0.204-0.447-0.04-0.633
			c11.565-13.108,12.648-35.35,9.806-51.794c-2.258-13.058-7.099-23.673-12.048-26.412c-0.217-0.12-0.295-0.393-0.175-0.61
			c0.12-0.217,0.394-0.295,0.61-0.175c5.255,2.908,10.16,13.524,12.497,27.044c2.878,16.649,1.758,39.195-10.017,52.54
			C166.861,156.484,166.737,156.536,166.614,156.536z"/>
	</g>
	<g>
		<path class="st0" d="M149.842,159.456c-0.106,0-0.212-0.037-0.297-0.112c-0.186-0.164-0.204-0.447-0.04-0.633
			c11.706-13.268,13.044-34.38,10.394-49.713c-2.077-12.014-6.603-21.538-11.532-24.266c-0.217-0.12-0.295-0.393-0.175-0.61
			c0.12-0.217,0.394-0.294,0.61-0.175c5.157,2.854,9.86,12.627,11.981,24.898c2.686,15.538,1.311,36.954-10.605,50.459
			C150.089,159.405,149.966,159.456,149.842,159.456z"/>
	</g>
	<g>
		<path class="st0" d="M135.287,157.389c-0.106,0-0.212-0.037-0.297-0.112c-0.186-0.164-0.204-0.447-0.04-0.633
			c8.336-9.448,11.419-24.442,8.458-41.136c-3.143-17.726-12.444-33.535-23.145-39.338c-0.218-0.118-0.299-0.39-0.18-0.608
			c0.117-0.218,0.391-0.298,0.608-0.18c10.928,5.926,20.412,21.989,23.601,39.97c3.008,16.965-0.152,32.232-8.669,41.886
			C135.535,157.338,135.411,157.389,135.287,157.389z"/>
	</g>
	<g>
		<path class="st0" d="M121.679,153.353c-0.138,0-0.275-0.064-0.363-0.184c-0.146-0.2-0.102-0.481,0.099-0.627
			c11.122-8.098,13.144-34.23,3.731-48.209c-0.138-0.205-0.084-0.484,0.121-0.622c0.204-0.14,0.485-0.085,0.622,0.121
			c9.635,14.307,7.495,41.104-3.947,49.435C121.863,153.325,121.77,153.353,121.679,153.353z"/>
	</g>
	<g>
		<g>
			<path class="st1" d="M130.627,82.793c1.749-9.928,7.393-30.51,22.565-31.478c15.172-0.968,23.594,12.52,19.422,18.839
				s-26.056,16.34-31.26,16.943S130.627,82.793,130.627,82.793z"/>
		</g>
		<g>
			<path class="st0" d="M130.204,82.94c0.021-0.376,0.057-0.774,0.117-1.165l0.149-0.952c0.102-0.63,0.214-1.258,0.34-1.883
				c0.249-1.252,0.517-2.501,0.83-3.741c0.61-2.484,1.375-4.937,2.322-7.331c1.875-4.764,4.414-9.468,8.408-13.038
				c0.987-0.892,2.074-1.69,3.25-2.347c1.161-0.681,2.418-1.21,3.716-1.591c1.292-0.411,2.647-0.589,3.982-0.691
				c1.322-0.067,2.652-0.032,3.974,0.105c5.285,0.551,10.418,3.097,13.853,7.244c1.703,2.064,3.024,4.531,3.444,7.297
				c0.213,1.374,0.135,2.841-0.332,4.231c-0.243,0.677-0.579,1.386-1.027,1.924c-0.439,0.543-0.864,1.121-1.365,1.549
				c-1.942,1.844-4.071,3.312-6.259,4.654c-2.188,1.344-4.42,2.593-6.699,3.741c-2.27,1.167-4.582,2.245-6.922,3.26
				c-2.336,1.026-4.72,1.941-7.173,2.721c-1.222,0.376-2.49,0.757-3.869,0.835c-1.371,0.06-2.708-0.208-3.955-0.632
				c-1.25-0.428-2.424-1.013-3.527-1.694c-0.556-0.334-1.087-0.705-1.611-1.084c-0.259-0.194-0.518-0.386-0.769-0.591l-0.376-0.308
				l-0.186-0.159l-0.093-0.081C130.432,83.225,130.248,83.059,130.204,82.94z M131.051,82.645c0.016-0.067-0.11-0.181-0.041-0.118
				l0.089,0.072l0.181,0.142l0.37,0.279c0.247,0.186,0.504,0.361,0.759,0.537c0.517,0.343,1.039,0.678,1.582,0.975
				c1.079,0.602,2.201,1.122,3.36,1.48c1.156,0.357,2.355,0.551,3.515,0.464c1.15-0.097,2.329-0.476,3.509-0.881
				c2.354-0.82,4.671-1.811,6.96-2.852c2.289-1.042,4.552-2.148,6.767-3.338c2.225-1.171,4.395-2.44,6.5-3.785
				c2.104-1.337,4.139-2.818,5.839-4.493c0.466-0.401,0.778-0.862,1.139-1.299c0.366-0.436,0.563-0.903,0.75-1.409
				c0.332-1.016,0.406-2.149,0.222-3.274c-0.352-2.26-1.499-4.434-3.024-6.249c-3.074-3.665-7.687-5.94-12.471-6.408
				c-1.199-0.116-2.408-0.141-3.615-0.073c-1.185,0.091-2.361,0.231-3.49,0.586c-1.133,0.325-2.232,0.777-3.259,1.373
				c-1.038,0.574-2.011,1.275-2.92,2.062c-1.838,1.555-3.372,3.485-4.733,5.53c-1.35,2.059-2.506,4.266-3.492,6.556
				c-0.995,2.287-1.819,4.655-2.576,7.047c-0.376,1.198-0.71,2.41-1.025,3.627l-0.456,1.832l-0.216,0.913
				C131.221,82.173,131.144,82.398,131.051,82.645z"/>
		</g>
	</g>
	<g>
		
			<ellipse transform="matrix(0.1165 -0.9932 0.9932 0.1165 -21.4264 189.7666)" class="st7" cx="95.946" cy="106.926" rx="5.454" ry="3.736"/>
		<path class="st0" d="M95.618,112.657c-0.113,0-0.228-0.007-0.342-0.02c-2.208-0.259-3.705-3.032-3.336-6.181
			c0.37-3.149,2.467-5.488,4.675-5.242c2.208,0.259,3.705,3.032,3.335,6.181c-0.177,1.505-0.748,2.878-1.607,3.863
			C97.55,112.17,96.593,112.657,95.618,112.657z M96.277,101.788c-1.783,0-3.431,2.048-3.746,4.737
			c-0.331,2.824,0.932,5.302,2.816,5.522c0.893,0.104,1.797-0.314,2.551-1.179c0.782-0.896,1.302-2.154,1.465-3.542
			c0.332-2.824-0.932-5.302-2.815-5.522C96.457,101.793,96.366,101.788,96.277,101.788z"/>
	</g>
	<g>
		
			<ellipse transform="matrix(0.1165 -0.9932 0.9932 0.1165 -28.9298 201.0747)" class="st7" cx="98.55" cy="116.798" rx="2.727" ry="1.868"/>
		<path class="st0" d="M98.382,119.663c-0.056,0-0.111-0.004-0.166-0.01c-1.104-0.13-1.852-1.516-1.668-3.09
			c0.185-1.576,1.24-2.752,2.337-2.621c1.104,0.13,1.852,1.516,1.668,3.09l0,0C100.377,118.527,99.423,119.663,98.382,119.663z
			 M98.715,114.228c-0.891,0-1.715,1.025-1.873,2.369c-0.165,1.412,0.466,2.651,1.408,2.762c0.939,0.107,1.842-0.949,2.008-2.361
			l0,0c0.165-1.412-0.466-2.651-1.408-2.762C98.805,114.231,98.76,114.228,98.715,114.228z"/>
	</g>
	<g class="st8">
		<path class="st9" d="M216.82,95.686c-12.081,10.47-15.459,7.738-18.354,7.852c3.664,7.084-27.453,47.169-74.615,37.392
			c-6.703,8.462-8.893,8.278-8.893,8.278s2.805,1.51,7.427,3.759c4.622,2.249,31.979,12.215,48.283,1.793
			c16.304-10.422,20.259-13.74,23.47-19.601c5.737-10.473,6.664-22.969,6.664-22.969s3.602-0.26,7.923-5.395
			S216.82,95.686,216.82,95.686z"/>
	</g>
	<g class="st8">
		<path class="st9" d="M140.173,87.956c5.353,1.681,32.933-3.022,35.001-6.03s-5.168-6.92-5.925-7.368s-10.858,5.102-12.684,6.612
			C154.739,82.68,140.173,87.956,140.173,87.956z"/>
	</g>
	<g class="st8">
		<path class="st9" d="M124.677,114.46c-1.888,3.677-3.505,6.527-2.853,12.376c0.652,5.849,0.362,20.046-12.555,24.949
			c14.194-5.685,13.526-8.404,14.581-10.855c1.055-2.45,2.441-6.651,1.693-10.339C124.794,126.904,124.677,114.46,124.677,114.46z"
			/>
	</g>
	<g class="st10">
		<path class="st9" d="M104.839,147.289c-2.392-0.634-9.383,0.345-10.613,1.327c0,0-2.378-1.668,0.894-2.903
			c3.273-1.235,7.196-1.753,8.591-1.31c1.395,0.443,2.796,0.807,2.796,0.807L104.839,147.289z"/>
	</g>
	<g>
		<path class="st0" d="M143.426,154.837c0.71,1.201,1.443,2.209,2.467,3.133c1.014,0.925,2.248,1.757,3.514,2.554l0.001,0
			l0.171,0.101c0.44,0.261,0.585,0.83,0.324,1.27c-0.067,0.113-0.158,0.209-0.258,0.281c-1.519,1.087-2.945,2.361-3.787,4.013
			c-0.414,0.823-0.641,1.743-0.657,2.696c-0.028,0.955,0.176,1.924,0.431,2.876c-0.407-0.895-0.779-1.829-0.921-2.843
			c-0.153-1.008-0.079-2.079,0.232-3.085c0.306-1.01,0.822-1.94,1.418-2.795c0.589-0.87,1.301-1.621,2.023-2.365l0.237,1.652
			l-0.001,0c-1.494-0.423-3.003-0.884-4.521-1.61c-1.523-0.709-3-1.811-4.206-2.942l-0.059-0.056
			c-0.936-0.878-0.982-2.349-0.104-3.285c0.878-0.936,2.349-0.982,3.285-0.104C143.177,154.477,143.318,154.656,143.426,154.837z"/>
	</g>
	<g>
		<path class="st0" d="M133.796,153.464c0.71,1.201,1.443,2.209,2.467,3.133c1.014,0.925,2.248,1.757,3.514,2.554l0.001,0
			l0.171,0.101c0.44,0.261,0.585,0.83,0.324,1.27c-0.067,0.113-0.158,0.209-0.258,0.281c-1.519,1.087-2.945,2.361-3.787,4.013
			c-0.414,0.823-0.641,1.743-0.657,2.696c-0.028,0.955,0.176,1.924,0.431,2.876c-0.407-0.895-0.779-1.829-0.921-2.843
			c-0.153-1.008-0.079-2.079,0.232-3.085c0.307-1.01,0.822-1.94,1.418-2.795c0.589-0.87,1.301-1.621,2.023-2.365l0.237,1.652
			l-0.001,0c-1.494-0.423-3.003-0.884-4.521-1.61c-1.523-0.709-3-1.811-4.206-2.942l-0.059-0.056
			c-0.936-0.878-0.982-2.349-0.104-3.285c0.878-0.936,2.349-0.982,3.285-0.104C133.547,153.104,133.687,153.283,133.796,153.464z"/>
	</g>
	<g>
		<path class="st0" d="M152.833,156.079c0.71,1.201,1.443,2.209,2.467,3.133c1.014,0.925,2.248,1.757,3.514,2.554l0.001,0
			l0.171,0.101c0.44,0.261,0.585,0.83,0.324,1.27c-0.067,0.113-0.158,0.209-0.258,0.281c-1.519,1.087-2.945,2.361-3.787,4.013
			c-0.414,0.823-0.641,1.743-0.657,2.696c-0.028,0.955,0.176,1.924,0.431,2.876c-0.407-0.895-0.779-1.829-0.921-2.843
			c-0.153-1.008-0.079-2.079,0.232-3.085c0.307-1.01,0.822-1.94,1.418-2.795c0.589-0.87,1.301-1.621,2.023-2.365l0.237,1.652
			l-0.001,0c-1.494-0.423-3.003-0.884-4.521-1.61c-1.523-0.709-3-1.811-4.206-2.942l-0.059-0.056
			c-0.936-0.878-0.982-2.349-0.104-3.285c0.878-0.936,2.349-0.982,3.285-0.104C152.584,155.719,152.724,155.898,152.833,156.079z"/>
	</g>
	<g class="st11">
		<path d="M95.883,11.775H15.582c-6.835,0-12.427,5.592-12.427,12.427v42.944c0,6.835,5.592,12.427,12.427,12.427h27.153
			l21.978,19.164c2.069,3.508,5.455,3.508,7.524,0l5.044-19.164h18.602c6.835,0,12.427-5.592,12.427-12.427V24.203
			C108.31,17.368,102.718,11.775,95.883,11.775z"/>
	</g>
	<g>
		<path class="st7" d="M95.883,5.371H15.582c-6.835,0-12.427,5.592-12.427,12.427v42.944c0,6.835,5.592,12.427,12.427,12.427h27.153
			l21.978,19.164c2.069,3.508,5.455,3.508,7.524,0l5.044-19.164h18.602c6.835,0,12.427-5.592,12.427-12.427V17.799
			C108.31,10.963,102.718,5.371,95.883,5.371z"/>
	</g>
	<g>
		<path class="st0" d="M86.541,84.588c-0.725-2.215-1.956-4.374-3.387-6.384c-1.436-2.017-3.11-3.894-4.93-5.619
			c-1.824-1.722-3.801-3.301-5.948-4.627c-2.146-1.307-4.475-2.413-7.014-2.773c2.564,0.111,5.055,1.002,7.37,2.125
			c2.322,1.14,4.504,2.56,6.556,4.153c2.049,1.598,3.975,3.373,5.703,5.362c1.722,1.991,3.293,4.169,4.417,6.72
			c0.33,0.749-0.01,1.623-0.758,1.952c-0.749,0.33-1.623-0.01-1.952-0.758c-0.02-0.044-0.037-0.089-0.052-0.134L86.541,84.588z"/>
	</g>
	<g>
		<path class="st0" d="M100.636,86.622c0.217-2.321-0.052-4.791-0.563-7.204c-0.513-2.422-1.301-4.81-2.283-7.118
			c-0.987-2.306-2.171-4.543-3.612-6.613c-1.447-2.054-3.143-3.996-5.329-5.338c2.307,1.123,4.237,2.933,5.913,4.885
			c1.675,1.971,3.111,4.143,4.358,6.421c1.243,2.282,2.302,4.678,3.095,7.19c0.786,2.512,1.36,5.136,1.374,7.923
			c0.004,0.818-0.655,1.484-1.473,1.489c-0.818,0.004-1.484-0.655-1.489-1.473c0-0.048,0.002-0.096,0.006-0.144L100.636,86.622z"/>
	</g>
	<g>
		<g>
			<path class="st0" d="M15.811,35.419V17.557h5.398c1.832,0,3.345,0.693,4.539,2.079c1.194,1.386,1.791,3.171,1.791,5.355v3.006
				c0,2.183-0.597,3.967-1.791,5.349c-1.194,1.382-2.707,2.073-4.539,2.073H15.811z M19.307,20.341v12.293h1.706
				c0.973,0,1.724-0.424,2.251-1.271c0.528-0.848,0.791-1.971,0.791-3.371v-3.033c0-1.392-0.264-2.509-0.791-3.353
				c-0.527-0.843-1.278-1.265-2.251-1.265H19.307z"/>
		</g>
		<g>
			<path class="st0" d="M41.966,29.003c0,2.094-0.569,3.729-1.705,4.907c-1.137,1.178-2.65,1.767-4.539,1.767
				s-3.398-0.589-4.527-1.767c-1.129-1.178-1.693-2.813-1.693-4.907v-5.006c0-2.085,0.564-3.724,1.693-4.913
				c1.129-1.19,2.633-1.785,4.515-1.785c1.881,0,3.394,0.595,4.539,1.785c1.145,1.19,1.717,2.828,1.717,4.913V29.003z
				 M38.495,23.959c0-1.279-0.237-2.245-0.712-2.897c-0.474-0.652-1.165-0.979-2.073-0.979c-0.916,0-1.603,0.324-2.061,0.972
				c-0.458,0.648-0.687,1.615-0.687,2.903v5.045c0,1.296,0.233,2.268,0.7,2.916c0.466,0.648,1.153,0.972,2.061,0.972
				c0.9,0,1.586-0.324,2.061-0.972c0.474-0.648,0.712-1.62,0.712-2.916V23.959z"/>
		</g>
		<g>
			<path class="st0" d="M56.738,35.419h-3.472l-5.459-11.422l-0.074,0.025v11.397h-3.496V17.557h3.496l5.459,11.409l0.074-0.025
				V17.557h3.472V35.419z"/>
		</g>
		<g>
			<path class="st0" d="M62.184,18.636l-1.791,4.22h-1.681l0.601-4.22v-2.355h2.871V18.636z"/>
		</g>
		<g>
			<path class="st0" d="M74.465,20.341h-4.024v15.078h-3.484V20.341h-3.999v-2.784h11.507V20.341z"/>
		</g>
		<g>
			<path class="st0" d="M15.811,60.536V42.674h5.263c1.84,0,3.277,0.409,4.312,1.226c1.035,0.818,1.552,2.037,1.552,3.656
				c0,0.851-0.188,1.605-0.565,2.264s-0.94,1.151-1.693,1.478c0.94,0.221,1.636,0.699,2.086,1.435
				c0.449,0.736,0.675,1.599,0.675,2.588c0,1.71-0.489,3.006-1.466,3.889s-2.378,1.325-4.202,1.325H15.811z M19.307,50.219h1.926
				c0.711-0.016,1.258-0.223,1.638-0.621c0.38-0.398,0.57-0.97,0.57-1.716c0-0.837-0.196-1.449-0.589-1.839
				c-0.392-0.389-0.986-0.584-1.779-0.584h-1.767V50.219z M19.307,52.66v5.091h2.466c0.736,0,1.286-0.204,1.65-0.613
				c0.364-0.409,0.546-1.018,0.546-1.828c0-0.85-0.155-1.505-0.466-1.963s-0.809-0.687-1.497-0.687H19.307z"/>
		</g>
		<g>
			<path class="st0" d="M39.243,52.697h-5.999v5.054h7.054v2.785h-10.55V42.674h10.526v2.784h-7.03v4.454h5.999V52.697z"/>
		</g>
		<g>
			<path class="st0" d="M51.609,52.697H45.61v5.054h7.054v2.785h-10.55V42.674h10.526v2.784h-7.03v4.454h5.999V52.697z"/>
		</g>
		<g>
			<path class="st0" d="M67.926,55.875c0-0.695-0.18-1.245-0.54-1.65c-0.36-0.405-0.994-0.804-1.901-1.196
				c-1.857-0.646-3.249-1.38-4.177-2.202c-0.929-0.822-1.392-1.973-1.392-3.453c0-1.464,0.54-2.656,1.619-3.576
				c1.08-0.92,2.458-1.38,4.134-1.38c1.701,0,3.083,0.513,4.147,1.54c1.063,1.027,1.578,2.321,1.546,3.883l-0.025,0.074H67.95
				c0-0.818-0.204-1.48-0.613-1.987s-0.986-0.761-1.73-0.761c-0.695,0-1.237,0.211-1.625,0.632c-0.389,0.421-0.583,0.95-0.583,1.589
				c0,0.589,0.217,1.074,0.65,1.454c0.433,0.38,1.186,0.803,2.257,1.27c1.693,0.572,2.967,1.298,3.822,2.177
				c0.855,0.88,1.282,2.067,1.282,3.564c0,1.546-0.515,2.756-1.546,3.631c-1.031,0.875-2.401,1.313-4.11,1.313
				c-1.701,0-3.176-0.497-4.423-1.491c-1.247-0.994-1.851-2.419-1.809-4.275l0.025-0.074h3.398c0,1.104,0.233,1.897,0.699,2.38
				c0.466,0.483,1.169,0.724,2.11,0.724c0.736,0,1.282-0.196,1.638-0.589S67.926,56.545,67.926,55.875z"/>
		</g>
		<g>
			<path class="st0" d="M86.119,60.536h-3.484v-7.398H77.09v7.398h-3.496V42.674h3.496v7.68h5.545v-7.68h3.484V60.536z"/>
		</g>
		<g>
			<path class="st0" d="M93.971,50.329h0.074l2.981-7.655h3.791l-5.104,11.507v6.355h-3.484V53.96l-5.018-11.286h3.816
				L93.971,50.329z"/>
		</g>
	</g>
</g>
</svg>
