<?xml version="1.0" encoding="utf-8"?>
<!-- Generator: Adobe Illustrator 23.0.4, SVG Export Plug-In . SVG Version: 6.00 Build 0)  -->
<svg version="1.1" id="Layer_1" xmlns="http://www.w3.org/2000/svg" xmlns:xlink="http://www.w3.org/1999/xlink" x="0px" y="0px"
	 viewBox="0 0 50 50" style="enable-background:new 0 0 50 50;" xml:space="preserve">
<g id="tei5gj_1_">
	<g>
		<path d="M31.392,7.715c5.192,0,10.384-0.002,15.578,0.002c1.312,0,1.556,0.234,1.56,1.523c0.008,2.048,0.011,4.097-0.002,6.145
			c-0.007,1.122-0.331,1.446-1.456,1.446c-10.42,0.005-20.84,0.005-31.259,0c-1.225,0-1.49-0.262-1.5-1.501
			c-0.016-2.048-0.016-4.097,0-6.145c0.008-1.233,0.26-1.467,1.503-1.469C21.006,7.713,26.2,7.715,31.392,7.715z"/>
		<path d="M31.401,29.354c-5.192,0-10.386,0.002-15.58-0.002c-1.238,0-1.501-0.246-1.51-1.469c-0.015-2.084,0.005-4.169-0.007-6.251
			c-0.005-0.946,0.355-1.406,1.385-1.403c10.492,0.021,20.985,0.02,31.477,0.003c0.948-0.002,1.366,0.403,1.366,1.321
			c-0.003,2.155-0.007,4.31,0.002,6.464c0.005,0.989-0.47,1.354-1.447,1.349C41.859,29.339,36.63,29.354,31.401,29.354z"/>
		<path d="M31.316,41.88c-5.158,0-10.314,0.002-15.471-0.002c-1.295,0-1.528-0.228-1.536-1.544c-0.01-2.048-0.016-4.097,0.005-6.145
			c0.011-1.159,0.291-1.425,1.467-1.426c10.42-0.005,20.84-0.005,31.259,0c1.184,0,1.482,0.311,1.488,1.521
			c0.008,2.012,0.007,4.026,0,6.039c-0.005,1.307-0.249,1.552-1.529,1.554C41.773,41.881,36.544,41.88,31.316,41.88z"/>
		<path d="M10.853,12.257c0,1.13-0.016,2.258,0.007,3.388c0.016,0.802-0.363,1.182-1.14,1.184c-2.258,0.005-4.517,0.005-6.777,0
			c-0.778-0.002-1.182-0.419-1.185-1.181c-0.013-2.258-0.013-4.517,0-6.777c0.005-0.753,0.367-1.167,1.177-1.163
			c2.258,0.016,4.517,0.016,6.777,0c0.809-0.005,1.153,0.372,1.143,1.159C10.843,9.997,10.851,11.127,10.853,12.257z"/>
		<path d="M10.853,24.804c0,1.13-0.01,2.258,0.003,3.388c0.01,0.791-0.345,1.167-1.148,1.164c-2.258-0.01-4.519-0.01-6.777,0
			c-0.807,0.005-1.167-0.436-1.174-1.177c-0.016-2.258-0.018-4.519,0.002-6.777c0.005-0.745,0.382-1.169,1.185-1.164
			c2.258,0.013,4.519,0.01,6.777,0.002c0.807-0.003,1.145,0.391,1.135,1.176C10.841,22.544,10.853,23.674,10.853,24.804z"/>
		<path d="M6.355,41.88c-1.094,0-2.189-0.026-3.281,0.008c-0.891,0.029-1.321-0.36-1.321-1.239
			c-0.002-2.224-0.005-4.447,0.003-6.671c0.003-0.822,0.439-1.218,1.262-1.217c2.224,0.005,4.447,0,6.671,0.005
			c0.761,0.002,1.176,0.334,1.171,1.153c-0.016,2.294-0.007,4.588-0.005,6.882c0,0.745-0.365,1.09-1.11,1.082
			C8.613,41.87,7.483,41.88,6.355,41.88z"/>
	</g>
</g>
</svg>
