<?xml version="1.0" encoding="utf-8"?>
<!-- Generator: Adobe Illustrator 23.0.4, SVG Export Plug-In . SVG Version: 6.00 Build 0)  -->
<svg version="1.1" id="Capa_1" xmlns="http://www.w3.org/2000/svg" xmlns:xlink="http://www.w3.org/1999/xlink" x="0px" y="0px"
	 viewBox="0 0 36 18" style="enable-background:new 0 0 36 18;" xml:space="preserve">
<g>
	<path d="M24.517,11.993c-0.028-0.05-0.068-0.093-0.118-0.133c0.104-0.169,0.167-0.365,0.167-0.577V5.332
		c0-0.617-0.508-1.119-1.132-1.119h-0.182c-0.209,0-0.377,0.167-0.377,0.373c0,0.206,0.169,0.373,0.377,0.373h0.182
		c0.209,0,0.377,0.167,0.377,0.373v5.952c0,0.206-0.169,0.373-0.377,0.373h-0.684H15.3h-2.732c-0.208,0-0.377-0.167-0.377-0.373
		V5.332c0-0.206,0.169-0.373,0.377-0.373h0.939c0.209,0,0.377-0.167,0.377-0.373s-0.169-0.373-0.377-0.373h-0.939
		c-0.624,0-1.132,0.502-1.132,1.119v5.952c0,0.212,0.063,0.408,0.167,0.577c-0.05,0.039-0.091,0.082-0.118,0.133l-1.557,1.536v0.155
		c0,0.362,0.37,0.539,1.132,0.539h13.883c0.762,0,1.132-0.176,1.132-0.539v-0.155L24.517,11.993z M24.942,13.477h-5.001
		l-0.216-0.379c0-0.043-0.089-0.077-0.199-0.077h-0.18h-1.962h-0.72c-0.109,0-0.199,0.035-0.199,0.077l-0.216,0.379h-5.19
		c-0.004,0-0.007,0-0.011,0l1.042-1.029c0.08-0.02,0.244-0.045,0.476-0.045H15.3h7.449h0.684c0.232,0,0.397,0.025,0.477,0.045
		l1.043,1.029C24.949,13.477,24.946,13.477,24.942,13.477z"/>
	<path d="M15.037,4.186c0,0.001,0,0.002,0,0.003c0,0.645,0,1.291,0,1.936c0,0.033,0.002,0.044,0.017,0.044c0.001,0,0.003,0,0.004,0
		c-0.118,0.322-0.115,0.646-0.111,0.89l0,0.032c-0.264,0.114-0.416,0.403-0.416,0.822c0,0.517,0.23,0.838,0.62,0.874
		c1.082,1.59,2.026,2.158,2.552,2.158h0.257c0.526,0,1.471-0.568,2.552-2.158c0.39-0.036,0.62-0.357,0.62-0.874
		c0-0.429-0.16-0.721-0.437-0.828l0-0.025c0.004-0.245,0.007-0.571-0.114-0.895c0.01,0.003,0.018,0.005,0.024,0.005
		c0.014,0,0.017-0.009,0.017-0.035c0-0.65,0-1.299,0-1.948c0.421-0.117,0.842-0.234,1.264-0.351
		c0.012-0.003,0.024-0.005,0.041-0.009c0,0.016,0,0.028,0,0.041c0,0.252,0,1.843,0.001,2.095c0,0.025-0.007,0.04-0.034,0.053
		c-0.121,0.06-0.186,0.153-0.188,0.277c-0.002,0.097-0.007,0.195,0.007,0.29c0.023,0.155,0.179,0.264,0.357,0.264
		c0.01,0,0.019,0,0.029-0.001c0.179-0.012,0.326-0.148,0.331-0.308c0.003-0.083,0.003-0.166-0.001-0.249
		c-0.004-0.124-0.069-0.216-0.19-0.276c-0.023-0.012-0.031-0.023-0.031-0.047c0.001-0.282,0.001-1.903,0-2.185
		c0-0.025,0.007-0.037,0.036-0.044c0.184-0.049,0.369-0.101,0.565-0.155c-0.034-0.01-0.058-0.017-0.082-0.024
		c-0.135-0.036-0.271-0.072-0.406-0.108c-0.978-0.261-1.956-0.522-2.934-0.783C19.264,2.633,19.142,2.6,19.02,2.568
		c-0.378-0.101-0.757-0.202-1.135-0.303c-0.012-0.004-0.022-0.01-0.033-0.015c-0.011,0-0.023,0-0.034,0
		c-0.013,0.004-0.026,0.01-0.04,0.013c-1.129,0.301-2.258,0.603-3.387,0.904c-0.31,0.083-0.619,0.165-0.929,0.247
		c-0.202,0.054-0.405,0.109-0.606,0.163c0,0.003,0,0.005,0,0.008c0.075,0.019,0.15,0.036,0.224,0.056
		C13.732,3.824,14.385,4.004,15.037,4.186z M15.404,6.078c0.254-0.058,0.512-0.087,0.774-0.087c0.113,0,0.226,0.005,0.34,0.016
		c0.456,0.044,0.88,0.171,1.271,0.383c0.016,0.009,0.03,0.013,0.043,0.013c0.014,0,0.028-0.004,0.044-0.013
		c0.499-0.269,1.04-0.4,1.617-0.4c0.04,0,0.081,0.001,0.122,0.002c0.213,0.007,0.421,0.035,0.625,0.08
		c0.189,0.323,0.191,0.681,0.187,0.963h-0.019l-0.578,0.287c-0.094-0.385-0.443-0.673-0.86-0.673c-0.331,0-0.616,0.182-0.768,0.448
		h-0.734c-0.153-0.266-0.438-0.448-0.768-0.448c-0.418,0-0.767,0.288-0.86,0.673L15.26,7.036h-0.032
		c-0.003,0-0.005,0.001-0.008,0.001C15.215,6.756,15.217,6.399,15.404,6.078z M19.585,7.526c0,0.336-0.276,0.609-0.616,0.609
		c-0.339,0-0.616-0.273-0.616-0.609s0.276-0.609,0.616-0.609C19.308,6.917,19.585,7.19,19.585,7.526z M17.313,7.526
		c0,0.336-0.276,0.609-0.616,0.609c-0.34,0-0.616-0.273-0.616-0.609s0.276-0.609,0.616-0.609C17.037,6.917,17.313,7.19,17.313,7.526
		z M15.819,7.613c0.045,0.442,0.419,0.79,0.878,0.79c0.489,0,0.887-0.393,0.887-0.877c0-0.055-0.007-0.109-0.017-0.161h0.531
		c-0.01,0.052-0.017,0.106-0.017,0.161c0,0.484,0.398,0.877,0.887,0.877c0.459,0,0.833-0.348,0.878-0.79l0.623-0.309
		c0.324,0.019,0.393,0.338,0.393,0.608c0,0.277-0.073,0.609-0.423,0.609c0.001,0-0.072,0-0.072,0l-0.04,0.06
		c-1.04,1.546-1.924,2.095-2.365,2.095h-0.257c-0.441,0-1.325-0.548-2.365-2.095l-0.04-0.06h-0.073c-0.35,0-0.423-0.331-0.423-0.609
		c0-0.27,0.069-0.589,0.393-0.608L15.819,7.613z"/>
</g>
</svg>
