<?xml version="1.0" encoding="utf-8"?>
<!-- Generator: Adobe Illustrator 23.0.4, SVG Export Plug-In . SVG Version: 6.00 Build 0)  -->
<svg version="1.1" id="Capa_1" xmlns="http://www.w3.org/2000/svg" xmlns:xlink="http://www.w3.org/1999/xlink" x="0px" y="0px"
	 viewBox="0 0 50 50" style="enable-background:new 0 0 50 50;" xml:space="preserve">
<path d="M25.213,22.096l-13.747,0.091l2.055-2.055c1.095-1.095,1.095-2.877,0-3.972c-1.095-1.095-2.877-1.095-3.972,0l-6.602,6.602
	c-0.554,0.554-0.874,1.278-0.915,2.06l-0.006,0.015l-0.001,0.214c-0.001,0.264,0.059,0.472,0.093,0.594
	c0.141,0.653,0.418,1.186,0.827,1.596l6.601,6.602c1.099,1.093,2.881,1.091,3.975-0.003c1.095-1.095,1.095-2.877,0-3.972
	l-2.062-2.062l13.79-0.091c0.745-0.005,1.443-0.298,1.969-0.824c0.536-0.536,0.828-1.248,0.823-2.006
	C28.03,23.338,26.763,22.086,25.213,22.096z"/>
<g>
	<g>
		<path d="M41.471,49.962H2.608C1.17,49.962,0,48.792,0,47.354V35.556c0-0.828,0.671-1.5,1.5-1.5s1.5,0.672,1.5,1.5v11.406h38.078
			V3.038H3v11.406c0,0.829-0.671,1.5-1.5,1.5S0,15.273,0,14.444V2.646c0-1.438,1.17-2.608,2.608-2.608h38.862
			c1.438,0,2.607,1.17,2.607,2.608v44.708C44.078,48.792,42.908,49.962,41.471,49.962z"/>
	</g>
</g>
</svg>
