<?xml version="1.0" encoding="utf-8"?>
<!-- Generator: Adobe Illustrator 23.0.4, SVG Export Plug-In . SVG Version: 6.00 Build 0)  -->
<svg version="1.1" id="Layer_1" xmlns="http://www.w3.org/2000/svg" xmlns:xlink="http://www.w3.org/1999/xlink" x="0px" y="0px"
	 viewBox="0 0 79.322 14" style="enable-background:new 0 0 79.322 14;" xml:space="preserve">
<style type="text/css">
	.st0{fill:#ECEFEE;}
	.st1{fill:#FAAF5E;}
</style>
<g>
	<path class="st0" d="M73.513,3.963c-1.809-5.317-3.5-5.277-5.071,0.118c-5.503,0.117-5.989,1.773-1.458,4.969
		c-1.592,5.389-0.202,6.373,4.17,2.953c4.519,3.214,5.864,2.166,4.035-3.144C79.574,5.457,79.015,3.825,73.513,3.963z"/>
	<path class="st1" d="M57.534,3.963c-1.809-5.317-3.5-5.277-5.071,0.118c-5.503,0.117-5.989,1.773-1.458,4.969
		c-1.592,5.389-0.202,6.373,4.17,2.953c4.519,3.214,5.864,2.166,4.035-3.144C63.596,5.457,63.037,3.825,57.534,3.963z"/>
	<path class="st1" d="M41.555,3.963c-1.809-5.317-3.5-5.277-5.071,0.118c-5.503,0.117-5.989,1.773-1.458,4.969
		c-1.592,5.389-0.202,6.373,4.17,2.953c4.519,3.214,5.864,2.166,4.035-3.144C47.617,5.457,47.058,3.825,41.555,3.963z"/>
	<path class="st1" d="M25.577,3.963c-1.809-5.317-3.5-5.277-5.071,0.118c-5.503,0.117-5.989,1.773-1.458,4.969
		c-1.592,5.389-0.202,6.373,4.17,2.953c4.519,3.214,5.864,2.166,4.035-3.144C31.638,5.457,31.079,3.825,25.577,3.963z"/>
	<path class="st1" d="M9.598,3.963c-1.809-5.317-3.5-5.277-5.071,0.118C-0.976,4.198-1.462,5.854,3.069,9.05
		c-1.592,5.389-0.202,6.373,4.17,2.953c4.519,3.214,5.864,2.166,4.035-3.144C15.659,5.457,15.101,3.825,9.598,3.963z"/>
</g>
</svg>
