<?xml version="1.0" encoding="utf-8"?>
<!-- Generator: Adobe Illustrator 23.0.4, SVG Export Plug-In . SVG Version: 6.00 Build 0)  -->
<svg version="1.1" id="Layer_1" xmlns="http://www.w3.org/2000/svg" xmlns:xlink="http://www.w3.org/1999/xlink" x="0px" y="0px"
	 viewBox="0 0 364.386 41.702" style="enable-background:new 0 0 364.386 41.702;" xml:space="preserve">
<style type="text/css">
	.st0{fill:#E797A4;}
	.st1{fill:#FFFFFF;}
	.st2{fill:#DDE91F;}
	.st3{fill:#4FC5DD;}
	.st4{fill:#E380B1;}
</style>
<g>
	<path class="st0" d="M203.607,32.46c0.061,0.706-0.467,1.314-1.175,1.351s-1.366,0.642-1.464,1.343
		c-0.097,0.701-0.748,1.176-1.446,1.055c-0.698-0.121-1.475,0.321-1.725,0.984c-0.252,0.663-0.991,0.98-1.645,0.706
		c-0.654-0.274-1.509-0.015-1.901,0.575c-0.392,0.59-1.184,0.735-1.76,0.322c-0.576-0.412-1.468-0.35-1.982,0.137
		c-0.514,0.488-1.318,0.453-1.788-0.077c-0.471-0.53-1.352-0.669-1.963-0.307c-0.609,0.362-1.387,0.149-1.726-0.473
		c-0.341-0.622-1.171-0.953-1.845-0.736c-0.674,0.217-1.384-0.164-1.577-0.845c-0.193-0.681-0.931-1.19-1.635-1.127
		c-0.706,0.06-1.313-0.468-1.35-1.176s-0.641-1.367-1.343-1.464c-0.701-0.098-1.176-0.748-1.056-1.446
		c0.122-0.698-0.32-1.475-0.983-1.725c-0.663-0.252-0.98-0.992-0.707-1.645c0.274-0.653,0.015-1.509-0.575-1.901
		c-0.59-0.392-0.735-1.185-0.323-1.76c0.413-0.577,0.35-1.468-0.137-1.982c-0.488-0.514-0.453-1.318,0.077-1.788
		c0.531-0.47,0.669-1.352,0.306-1.963c-0.362-0.61-0.147-1.387,0.474-1.727c0.622-0.341,0.954-1.171,0.735-1.844
		c-0.216-0.674,0.165-1.384,0.846-1.578c0.681-0.193,1.19-0.93,1.128-1.635c-0.061-0.705,0.467-1.313,1.175-1.35
		c0.708-0.037,1.366-0.641,1.464-1.343c0.098-0.702,0.748-1.176,1.446-1.055s1.475-0.321,1.725-0.984
		c0.252-0.663,0.991-0.98,1.644-0.707c0.653,0.274,1.509,0.016,1.902-0.575c0.392-0.59,1.184-0.735,1.761-0.322
		c0.576,0.412,1.467,0.351,1.982-0.137c0.514-0.488,1.318-0.453,1.788,0.077s1.352,0.669,1.963,0.307
		c0.61-0.362,1.387-0.149,1.727,0.473s1.171,0.953,1.844,0.735c0.675-0.216,1.385,0.165,1.577,0.846
		c0.193,0.682,0.931,1.19,1.635,1.128c0.706-0.061,1.313,0.467,1.35,1.175c0.038,0.708,0.641,1.367,1.344,1.465
		c0.702,0.097,1.175,0.748,1.055,1.445c-0.122,0.698,0.32,1.475,0.984,1.725c0.664,0.252,0.98,0.992,0.706,1.645
		c-0.275,0.654-0.015,1.509,0.575,1.901c0.589,0.392,0.735,1.185,0.322,1.76c-0.412,0.577-0.351,1.468,0.137,1.982
		c0.488,0.514,0.453,1.318-0.076,1.789c-0.53,0.469-0.669,1.352-0.307,1.962c0.362,0.609,0.149,1.387-0.473,1.726
		c-0.622,0.341-0.953,1.171-0.735,1.844c0.217,0.675-0.165,1.385-0.845,1.578C204.053,31.019,203.545,31.755,203.607,32.46z"/>
	<g>
		<path class="st1" d="M201.882,29.394c-0.273-0.189-0.523-0.45-0.826-0.542c-0.199-0.061-0.474,0.116-0.713,0.196
			c-0.165,0.055-0.322,0.125-0.484,0.188c-0.037-0.174-0.096-0.347-0.104-0.522c-0.016-0.372-0.005-0.745-0.005-1.171
			c0.267-0.019,0.514-0.037,0.79-0.057c0-1.802,0-3.607,0-5.503c-0.855,0.452-1.65,0.871-2.496,1.318
			c-0.01-0.179-0.041-0.297-0.017-0.403c0.147-0.653-0.228-0.917-0.758-1.144c-1.746-0.746-3.544-1.32-5.419-1.617
			c-1.712-0.271-3.423-0.155-5.078,0.325c-1.34,0.388-2.638,0.923-3.949,1.413c-0.397,0.149-0.846,0.31-0.522,1.048
			c-1.654-0.752-3.143-1.428-4.71-2.139c1.139-0.655,2.205-1.268,3.271-1.879c2.768-1.587,5.541-3.164,8.301-4.767
			c0.451-0.263,0.79-0.298,1.275-0.022c2.728,1.554,5.482,3.059,8.223,4.589c0.268,0.15,0.474,0.23,0.779,0.038
			c0.245-0.155,0.568-0.219,0.865-0.252c0.552-0.061,0.918,0.196,0.848,0.733c-0.112,0.867,0.395,1.158,1.036,1.409
			c0,0.169,0,0.341,0,0.509c-1.021,0.357-1.021,0.357-1.021,1.362c-0.001,1.508-0.004,3.017,0.002,4.525
			c0.001,0.173,0.043,0.346,0.066,0.509c0.312,0,0.558,0,0.778,0c0.033,0.053,0.049,0.067,0.049,0.081
			c0.01,0.593,0.017,1.185,0.025,1.778C202.019,29.394,201.95,29.394,201.882,29.394z M200.885,20.931
			c0.019-0.376-0.241-0.606-0.551-0.544c-0.228,0.046-0.523,0.335-0.572,0.562c-0.078,0.361,0.208,0.603,0.586,0.597
			C200.708,21.539,200.893,21.314,200.885,20.931z"/>
		<path class="st1" d="M183.029,26.502c0-1.305-0.008-2.49,0.011-3.677c0.003-0.129,0.133-0.313,0.252-0.374
			c3.576-1.818,7.27-2.437,11.144-1.039c0.827,0.298,1.638,0.641,2.447,0.984c0.124,0.053,0.282,0.222,0.284,0.34
			c0.021,1.217,0.012,2.434,0.012,3.764C192.447,24.436,187.759,24.415,183.029,26.502z"/>
	</g>
</g>
<g>
	<path class="st2" d="M30.877,32.461c0.061,0.706-0.467,1.314-1.175,1.351c-0.707,0.037-1.366,0.642-1.464,1.343
		c-0.097,0.701-0.748,1.176-1.446,1.055c-0.698-0.121-1.475,0.321-1.725,0.984c-0.252,0.663-0.991,0.98-1.645,0.706
		c-0.654-0.274-1.509-0.015-1.901,0.575c-0.392,0.59-1.184,0.735-1.76,0.322c-0.576-0.412-1.468-0.35-1.982,0.137
		c-0.514,0.488-1.318,0.453-1.788-0.077c-0.471-0.53-1.352-0.669-1.963-0.307c-0.609,0.362-1.387,0.149-1.726-0.473
		c-0.341-0.622-1.171-0.953-1.845-0.736c-0.674,0.217-1.384-0.164-1.577-0.845c-0.193-0.681-0.931-1.19-1.635-1.127
		c-0.706,0.06-1.313-0.468-1.35-1.176c-0.037-0.707-0.641-1.367-1.343-1.464c-0.701-0.098-1.176-0.748-1.056-1.446
		c0.122-0.698-0.32-1.475-0.983-1.725c-0.663-0.252-0.98-0.992-0.707-1.645c0.274-0.653,0.015-1.509-0.575-1.901
		c-0.59-0.392-0.735-1.185-0.323-1.76c0.413-0.577,0.35-1.468-0.137-1.982c-0.488-0.514-0.453-1.318,0.077-1.788
		c0.531-0.47,0.67-1.352,0.306-1.963c-0.362-0.61-0.147-1.387,0.474-1.727c0.622-0.341,0.954-1.171,0.735-1.844
		c-0.216-0.674,0.165-1.384,0.846-1.578c0.681-0.193,1.19-0.93,1.128-1.635c-0.061-0.705,0.467-1.313,1.175-1.35
		c0.708-0.039,1.366-0.642,1.464-1.344C7.072,8.338,7.722,7.864,8.42,7.985c0.698,0.121,1.475-0.321,1.725-0.984
		c0.252-0.663,0.991-0.98,1.644-0.707c0.653,0.274,1.509,0.016,1.902-0.575c0.392-0.59,1.184-0.735,1.761-0.322
		c0.576,0.412,1.467,0.351,1.982-0.137c0.514-0.488,1.318-0.453,1.788,0.077s1.352,0.669,1.963,0.307
		c0.61-0.362,1.387-0.149,1.727,0.473s1.171,0.953,1.844,0.735c0.675-0.216,1.385,0.165,1.577,0.846
		c0.193,0.682,0.931,1.19,1.635,1.128c0.706-0.061,1.313,0.467,1.35,1.175c0.038,0.708,0.641,1.367,1.344,1.465
		c0.702,0.097,1.176,0.748,1.055,1.445c-0.122,0.698,0.32,1.475,0.984,1.725c0.664,0.252,0.98,0.992,0.706,1.645
		c-0.274,0.654-0.015,1.509,0.575,1.901c0.589,0.392,0.735,1.185,0.322,1.76c-0.412,0.577-0.351,1.468,0.137,1.982
		c0.488,0.514,0.453,1.318-0.076,1.789c-0.53,0.469-0.669,1.352-0.307,1.962s0.149,1.387-0.473,1.726
		c-0.622,0.341-0.953,1.171-0.735,1.844c0.217,0.675-0.165,1.385-0.845,1.578C31.324,31.02,30.816,31.755,30.877,32.461z"/>
	<g>
		<path class="st1" d="M28.125,20.206c-0.445-0.62-0.89-1.237-1.338-1.855c-0.323-0.445-0.783-0.573-1.289-0.358
			c-0.585,0.245-1.192,0.088-1.548-0.404c-0.356-0.49-0.316-1.117,0.102-1.597c0.362-0.415,0.389-0.884,0.076-1.321
			c-0.328-0.46-0.66-0.917-0.991-1.375l-0.403-0.557c-0.178-0.246-0.418-0.389-0.717-0.425c-0.347-0.044-0.614,0.114-0.831,0.271
			L6.659,23.083c-0.529,0.383-0.641,0.979-0.277,1.484C6.908,25.3,7.437,26.03,7.966,26.76c0.246,0.34,0.549,0.397,0.904,0.172
			c0.238-0.151,0.48-0.209,0.705-0.219c0.554,0.025,0.928,0.267,1.142,0.741c0.221,0.487,0.153,0.93-0.207,1.355
			c-0.386,0.455-0.408,0.907-0.067,1.38c0.316,0.439,0.634,0.879,0.952,1.317l0.332,0.459c0.233,0.323,0.479,0.502,0.752,0.546
			c0.045,0.007,0.09,0.011,0.136,0.011c0.233,0,0.48-0.095,0.749-0.291l14.514-10.483C28.434,21.344,28.528,20.767,28.125,20.206z
			 M11.476,29.527c0.699-0.861,0.74-2.088,0.1-2.982c-0.66-0.924-1.814-1.27-2.869-0.865c-0.018,0.007-0.031,0.011-0.036,0.014
			c-0.006-0.007-0.013-0.016-0.024-0.031c-0.309-0.439-0.623-0.872-0.942-1.313l-0.259-0.357l10.859-7.845
			c0.11-0.08,0.131-0.088,0.193-0.071c0.13,0.036,0.277,0.008,0.415-0.081c0.171-0.11,0.297-0.295,0.322-0.468
			c0.005-0.031,0.014-0.053,0.004-0.047c0.765-0.558,1.534-1.113,2.301-1.667l0.32-0.231l1.224,1.694
			c-0.299,0.37-0.477,0.765-0.544,1.205c-0.132,0.875,0.196,1.727,0.88,2.281c0.678,0.551,1.574,0.698,2.395,0.39
			c0.034-0.013,0.053-0.018,0.057-0.02c0.006,0.006,0.018,0.018,0.034,0.043c0.281,0.402,0.569,0.799,0.857,1.196l0.334,0.46
			l-2.57,1.858c-0.015,0.011-0.046,0.036-0.081,0.034c-0.135-0.047-0.294-0.025-0.445,0.063c-0.18,0.106-0.317,0.291-0.348,0.469
			c-0.007,0.036-0.03,0.079-0.043,0.089c-3.023,2.188-6.047,4.373-9.072,6.557l-1.856,1.341l-1.224-1.693L11.476,29.527z
			 M21.864,13.326l0.006,0.007l-0.003,0.002L21.864,13.326L21.864,13.326z"/>
		<path class="st1" d="M19.294,17.439l0.073,0.098c0.109,0.149,0.256,0.227,0.416,0.227c0.054,0,0.109-0.009,0.165-0.027
			c0.285-0.09,0.493-0.348,0.494-0.613l0.002-0.025l-0.008-0.028c-0.005-0.034-0.017-0.103-0.061-0.168l-0.101-0.143
			c-0.131-0.191-0.263-0.381-0.409-0.559l0,0c-0.092-0.112-0.352-0.334-0.796,0.017c-0.244,0.193-0.299,0.473-0.139,0.713
			C19.047,17.103,19.171,17.271,19.294,17.439z"/>
		<path class="st1" d="M22.546,21.362c-0.069,0.084-0.203,0.315,0.045,0.643c0.064,0.084,0.125,0.169,0.186,0.256
			c0.063,0.088,0.127,0.179,0.193,0.265c0.079,0.103,0.218,0.235,0.417,0.235c0.109,0,0.235-0.039,0.38-0.143
			c0.397-0.284,0.317-0.582,0.179-0.783c-0.135-0.196-0.273-0.394-0.424-0.58l0,0c-0.06-0.074-0.135-0.123-0.207-0.17
			c-0.031-0.02-0.062-0.041-0.097-0.066l-0.127-0.093l-0.125,0.096c-0.04,0.032-0.081,0.06-0.122,0.088
			C22.74,21.182,22.632,21.257,22.546,21.362z"/>
		<path class="st1" d="M21.338,19.707c-0.146,0.181-0.128,0.397,0.056,0.64c0.054,0.074,0.108,0.147,0.16,0.221
			c0.074,0.102,0.147,0.206,0.223,0.305c0.076,0.099,0.21,0.221,0.404,0.221c0.113,0,0.245-0.042,0.398-0.154
			c0.401-0.292,0.272-0.611,0.16-0.775c-0.135-0.197-0.273-0.396-0.425-0.582c-0.061-0.075-0.138-0.123-0.214-0.169
			c-0.031-0.018-0.063-0.039-0.098-0.062l-0.129-0.089l-0.123,0.098c-0.041,0.033-0.083,0.063-0.124,0.093
			C21.528,19.526,21.423,19.603,21.338,19.707z"/>
		<path class="st1" d="M20.156,18.63c0.132,0.193,0.265,0.386,0.414,0.568c0.063,0.076,0.143,0.127,0.22,0.176
			c0.032,0.02,0.067,0.041,0.102,0.067l0.13,0.093l0.124-0.102c0.042-0.034,0.084-0.066,0.125-0.095
			c0.102-0.074,0.206-0.152,0.289-0.257c0.08-0.102,0.179-0.317-0.052-0.624c-0.06-0.081-0.119-0.163-0.178-0.245
			c-0.067-0.094-0.135-0.188-0.204-0.279c-0.123-0.162-0.388-0.386-0.8-0.088C19.934,18.127,20.018,18.427,20.156,18.63z"/>
		<polygon class="st1" points="15.032,27 16.964,25.017 19.692,25.486 18.403,23.035 19.691,20.586 16.964,21.054 15.031,19.073 
			14.634,21.812 12.151,23.036 14.634,24.261 		"/>
	</g>
</g>
<g>
	<path class="st3" d="M119.661,32.46c0.061,0.706-0.467,1.314-1.175,1.351s-1.366,0.642-1.464,1.343
		c-0.097,0.701-0.748,1.176-1.446,1.055c-0.698-0.121-1.475,0.321-1.725,0.984c-0.252,0.663-0.991,0.98-1.645,0.706
		c-0.654-0.274-1.509-0.015-1.901,0.575c-0.392,0.59-1.184,0.735-1.76,0.322c-0.576-0.413-1.468-0.35-1.982,0.137
		c-0.514,0.488-1.318,0.453-1.788-0.077c-0.471-0.53-1.352-0.669-1.963-0.307c-0.609,0.362-1.387,0.149-1.726-0.473
		c-0.341-0.622-1.171-0.953-1.845-0.736c-0.674,0.217-1.384-0.164-1.577-0.845c-0.193-0.681-0.931-1.19-1.635-1.127
		c-0.706,0.06-1.313-0.468-1.35-1.176s-0.641-1.367-1.343-1.464c-0.701-0.098-1.176-0.748-1.056-1.446
		c0.122-0.698-0.32-1.475-0.983-1.725c-0.663-0.252-0.98-0.992-0.707-1.645c0.274-0.653,0.015-1.509-0.575-1.901
		c-0.59-0.392-0.735-1.185-0.323-1.76c0.413-0.577,0.35-1.468-0.137-1.982c-0.488-0.514-0.453-1.318,0.077-1.788
		c0.531-0.47,0.67-1.352,0.306-1.963c-0.362-0.61-0.147-1.387,0.474-1.727c0.622-0.341,0.954-1.171,0.735-1.844
		c-0.216-0.674,0.165-1.384,0.846-1.578c0.681-0.193,1.19-0.93,1.128-1.635c-0.061-0.705,0.467-1.313,1.175-1.35
		c0.708-0.037,1.366-0.641,1.464-1.343c0.098-0.702,0.748-1.176,1.446-1.055s1.475-0.321,1.725-0.984
		c0.252-0.663,0.991-0.98,1.644-0.707c0.653,0.274,1.509,0.016,1.902-0.575c0.392-0.59,1.184-0.735,1.761-0.322
		c0.576,0.412,1.467,0.351,1.982-0.137c0.514-0.488,1.318-0.453,1.788,0.077c0.47,0.53,1.352,0.669,1.963,0.307
		c0.61-0.362,1.387-0.149,1.727,0.473s1.171,0.953,1.844,0.735c0.675-0.216,1.385,0.165,1.577,0.846
		c0.193,0.682,0.931,1.19,1.635,1.128c0.706-0.061,1.313,0.467,1.35,1.175c0.038,0.708,0.641,1.367,1.344,1.465
		c0.702,0.097,1.176,0.748,1.055,1.445c-0.122,0.698,0.32,1.475,0.984,1.725c0.664,0.252,0.98,0.992,0.706,1.645
		c-0.274,0.654-0.015,1.509,0.575,1.901c0.589,0.392,0.735,1.185,0.322,1.76c-0.412,0.577-0.351,1.468,0.137,1.982
		c0.488,0.514,0.453,1.318-0.076,1.789c-0.53,0.469-0.669,1.352-0.307,1.962c0.362,0.609,0.149,1.387-0.473,1.726
		c-0.622,0.341-0.953,1.171-0.735,1.844c0.217,0.675-0.165,1.385-0.845,1.578C120.108,31.019,119.601,31.755,119.661,32.46z"/>
	<g>
		<path class="st1" d="M102.382,30.408c-3.012-1.684-4.884-4.87-4.884-8.312s1.872-6.628,4.884-8.313
			c0.266-0.149,0.362-0.486,0.213-0.752c-0.149-0.266-0.485-0.362-0.752-0.213c-3.361,1.88-5.449,5.435-5.449,9.276
			c0,3.842,2.088,7.396,5.449,9.276c0.086,0.048,0.178,0.071,0.27,0.071c0.193,0,0.382-0.102,0.483-0.283
			C102.744,30.894,102.648,30.557,102.382,30.408z"/>
		<path class="st1" d="M104.091,27.884c-2.393-0.908-4.002-3.234-4.002-5.787c0-2.554,1.608-4.88,4.001-5.787
			c0.285-0.108,0.429-0.427,0.321-0.713s-0.428-0.429-0.713-0.321c-2.82,1.07-4.716,3.81-4.716,6.821c0,3.01,1.895,5.75,4.715,6.821
			c0.065,0.025,0.131,0.036,0.196,0.036c0.222,0,0.432-0.136,0.516-0.357C104.52,28.311,104.376,27.991,104.091,27.884z"/>
		<path class="st1" d="M110.936,12.82c-0.265-0.149-0.603-0.054-0.752,0.213c-0.15,0.266-0.054,0.603,0.213,0.752
			c3.012,1.685,4.884,4.871,4.884,8.313s-1.872,6.628-4.884,8.312c-0.266,0.149-0.362,0.486-0.213,0.752
			c0.102,0.18,0.289,0.283,0.483,0.283c0.091,0,0.184-0.022,0.27-0.071c3.361-1.879,5.449-5.434,5.449-9.276
			C116.386,18.255,114.297,14.7,110.936,12.82z"/>
		<path class="st1" d="M113.795,22.097c0-3.011-1.895-5.751-4.716-6.821c-0.284-0.107-0.605,0.036-0.713,0.321
			c-0.109,0.285,0.035,0.605,0.321,0.713c2.393,0.908,4.001,3.234,4.001,5.787s-1.608,4.879-4.002,5.787
			c-0.285,0.108-0.429,0.427-0.32,0.713c0.084,0.221,0.294,0.357,0.516,0.357c0.065,0,0.131-0.011,0.196-0.036
			C111.9,27.847,113.795,25.106,113.795,22.097z"/>
		<polygon class="st1" points="104.21,25.576 109.85,22.097 104.21,18.616 		"/>
	</g>
</g>
<g>
	<path class="st4" d="M211.575,22.097"/>
</g>
<g>
	<path d="M221.716,24.555c-0.114,1.586-0.7,2.834-1.756,3.745c-1.056,0.91-2.446,1.366-4.174,1.366
		c-1.889,0-3.375-0.636-4.458-1.907c-1.082-1.272-1.624-3.017-1.624-5.237v-0.9c0-1.417,0.249-2.665,0.749-3.745
		c0.499-1.079,1.213-1.907,2.14-2.484c0.927-0.577,2.005-0.865,3.233-0.865c1.7,0,3.07,0.455,4.108,1.366
		c1.039,0.911,1.64,2.189,1.802,3.836h-3.036c-0.075-0.951-0.339-1.641-0.795-2.069c-0.455-0.429-1.149-0.643-2.08-0.643
		c-1.011,0-1.769,0.363-2.271,1.088c-0.503,0.725-0.761,1.85-0.774,3.375v1.113c0,1.592,0.241,2.756,0.724,3.491
		c0.482,0.735,1.243,1.103,2.281,1.103c0.938,0,1.638-0.214,2.1-0.643c0.462-0.428,0.727-1.091,0.795-1.988H221.716z"/>
	<path d="M232.057,23.058h-5.829v3.967h6.84v2.439h-9.876V14.73h9.856v2.459h-6.82V20.7h5.829V23.058z"/>
	<path d="M239.785,24.07h-2.418v5.393h-3.036V14.73h5.474c1.741,0,3.083,0.388,4.027,1.163c0.944,0.776,1.417,1.873,1.417,3.289
		c0,1.005-0.218,1.843-0.653,2.515c-0.435,0.671-1.094,1.206-1.978,1.604l3.187,6.021v0.142h-3.258L239.785,24.07z M237.367,21.611
		h2.448c0.762,0,1.353-0.194,1.771-0.582c0.418-0.388,0.628-0.923,0.628-1.604c0-0.695-0.197-1.241-0.592-1.639
		c-0.395-0.398-1-0.597-1.817-0.597h-2.438V21.611z"/>
	<path d="M257.623,17.189h-4.513v12.275h-3.036V17.189h-4.453V14.73h12.001V17.189z"/>
	<path d="M262.064,29.463h-3.036V14.73h3.036V29.463z"/>
	<path d="M273.224,23.442h-5.829v6.021h-3.036V14.73h9.592v2.459h-6.557v3.805h5.829V23.442z"/>
	<path d="M278.423,29.463h-3.036V14.73h3.036V29.463z"/>
	<path d="M292.284,24.555c-0.114,1.586-0.7,2.834-1.756,3.745c-1.056,0.91-2.446,1.366-4.174,1.366
		c-1.889,0-3.375-0.636-4.458-1.907c-1.082-1.272-1.624-3.017-1.624-5.237v-0.9c0-1.417,0.249-2.665,0.749-3.745
		c0.499-1.079,1.213-1.907,2.14-2.484c0.927-0.577,2.005-0.865,3.233-0.865c1.7,0,3.07,0.455,4.108,1.366
		c1.039,0.911,1.64,2.189,1.802,3.836h-3.036c-0.075-0.951-0.339-1.641-0.795-2.069c-0.455-0.429-1.149-0.643-2.08-0.643
		c-1.011,0-1.769,0.363-2.271,1.088c-0.503,0.725-0.761,1.85-0.774,3.375v1.113c0,1.592,0.241,2.756,0.724,3.491
		c0.482,0.735,1.243,1.103,2.281,1.103c0.938,0,1.638-0.214,2.1-0.643c0.462-0.428,0.727-1.091,0.795-1.988H292.284z"/>
	<path d="M302.078,26.427h-5.323l-1.012,3.036h-3.228L298,14.73h2.813l5.515,14.734h-3.229L302.078,26.427z M297.575,23.969h3.683
		l-1.852-5.515L297.575,23.969z"/>
	<path d="M317.063,17.189h-4.513v12.275h-3.035V17.189h-4.453V14.73h12.001V17.189z"/>
	<path d="M321.504,29.463h-3.036V14.73h3.036V29.463z"/>
	<path d="M335.902,22.43c0,1.451-0.257,2.722-0.769,3.815c-0.513,1.093-1.246,1.936-2.2,2.529c-0.955,0.594-2.05,0.891-3.284,0.891
		c-1.221,0-2.311-0.294-3.268-0.881c-0.958-0.587-1.7-1.425-2.226-2.514c-0.526-1.09-0.794-2.343-0.8-3.76v-0.728
		c0-1.45,0.261-2.727,0.784-3.831c0.522-1.103,1.261-1.949,2.216-2.54c0.954-0.591,2.046-0.886,3.273-0.886
		c1.228,0,2.319,0.295,3.274,0.886c0.954,0.59,1.692,1.437,2.216,2.54c0.522,1.103,0.784,2.377,0.784,3.82V22.43z M332.826,21.763
		c0-1.545-0.277-2.719-0.83-3.522c-0.554-0.803-1.343-1.204-2.368-1.204c-1.018,0-1.805,0.396-2.357,1.189
		c-0.554,0.793-0.833,1.955-0.84,3.486v0.718c0,1.505,0.276,2.672,0.83,3.502c0.553,0.829,1.349,1.244,2.388,1.244
		c1.019,0,1.802-0.4,2.348-1.199c0.547-0.8,0.823-1.965,0.83-3.497V21.763z"/>
	<path d="M349.571,29.463h-3.035l-5.91-9.694v9.694h-3.036V14.73h3.036l5.92,9.714V14.73h3.025V29.463z"/>
	<path d="M359.345,25.598c0-0.573-0.202-1.014-0.607-1.321c-0.405-0.307-1.134-0.631-2.185-0.971
		c-1.053-0.341-1.886-0.676-2.5-1.007c-1.673-0.904-2.509-2.122-2.509-3.653c0-0.796,0.224-1.506,0.673-2.13
		c0.448-0.624,1.092-1.111,1.932-1.462c0.84-0.351,1.782-0.526,2.828-0.526c1.053,0,1.991,0.191,2.814,0.572
		c0.823,0.381,1.462,0.919,1.917,1.614c0.456,0.695,0.683,1.484,0.683,2.368h-3.035c0-0.675-0.213-1.199-0.638-1.573
		c-0.425-0.375-1.022-0.562-1.792-0.562c-0.742,0-1.319,0.157-1.73,0.471c-0.412,0.314-0.617,0.727-0.617,1.239
		c0,0.479,0.241,0.881,0.724,1.204c0.482,0.323,1.192,0.627,2.13,0.91c1.727,0.52,2.986,1.164,3.774,1.933
		c0.789,0.769,1.184,1.727,1.184,2.874c0,1.275-0.482,2.275-1.447,3c-0.965,0.726-2.263,1.088-3.896,1.088
		c-1.133,0-2.165-0.207-3.096-0.622c-0.931-0.415-1.641-0.983-2.13-1.705c-0.49-0.722-0.734-1.558-0.734-2.51h3.046
		c0,1.626,0.972,2.439,2.914,2.439c0.723,0,1.285-0.147,1.69-0.44C359.142,26.534,359.345,26.124,359.345,25.598z"/>
</g>
<g>
	<polygon points="36.724,29.463 39.76,29.463 39.76,23.442 45.589,23.442 45.589,20.994 39.76,20.994 39.76,17.189 46.317,17.189 
		46.317,14.73 36.724,14.73 	"/>
	<path d="M57.826,21.697c0.435-0.672,0.652-1.51,0.652-2.515c0-1.417-0.472-2.513-1.417-3.289c-0.945-0.775-2.287-1.163-4.027-1.163
		H47.56v14.734h3.036V24.07h2.419l2.762,5.393h3.259v-0.142l-3.188-6.021C56.732,22.903,57.391,22.368,57.826,21.697z
		 M54.816,21.029c-0.419,0.388-1.009,0.582-1.771,0.582h-2.449v-4.422h2.439c0.816,0,1.422,0.199,1.816,0.597
		c0.395,0.398,0.592,0.944,0.592,1.639C55.443,20.106,55.234,20.641,54.816,21.029z"/>
	<polygon points="63.304,23.058 69.132,23.058 69.132,20.7 63.304,20.7 63.304,17.189 70.124,17.189 70.124,14.73 60.268,14.73 
		60.268,29.463 70.144,29.463 70.144,27.025 63.304,27.025 	"/>
	<polygon points="74.443,27.025 74.443,23.058 80.272,23.058 80.272,20.7 74.443,20.7 74.443,17.189 81.264,17.189 81.264,14.73 
		71.407,14.73 71.407,29.463 81.284,29.463 81.284,27.025 	"/>
</g>
<g>
	<polygon points="129.683,14.73 126.647,14.73 126.647,29.463 136.129,29.463 136.129,27.025 129.683,27.025 	"/>
	<rect x="137.544" y="14.73" width="3.036" height="14.734"/>
	<polygon points="148.319,25.81 144.999,14.73 141.63,14.73 146.74,29.463 149.907,29.463 155.038,14.73 151.658,14.73 	"/>
	<polygon points="158.942,27.025 158.942,23.058 164.771,23.058 164.771,20.7 158.942,20.7 158.942,17.189 165.763,17.189 
		165.763,14.73 155.906,14.73 155.906,29.463 165.783,29.463 165.783,27.025 	"/>
</g>
</svg>
