<?xml version="1.0" encoding="utf-8"?>
<!-- Generator: Adobe Illustrator 23.0.4, SVG Export Plug-In . SVG Version: 6.00 Build 0)  -->
<svg version="1.1" id="Layer_1" xmlns="http://www.w3.org/2000/svg" xmlns:xlink="http://www.w3.org/1999/xlink" x="0px" y="0px"
	 viewBox="0 0 50 50" style="enable-background:new 0 0 50 50;" xml:space="preserve">
<style type="text/css">
	.st0{fill:#4FC5DD;}
</style>
<g>
	<path class="st0" d="M32.784,33.373l-6.599,6.6V22.781c0-0.746-0.604-1.35-1.35-1.35s-1.35,0.604-1.35,1.35v17.191l-6.599-6.599
		c-0.527-0.525-1.382-0.525-1.909,0c-0.527,0.527-0.527,1.383,0,1.91l8.903,8.903c0.013,0.013,0.03,0.017,0.044,0.029
		c0.115,0.107,0.244,0.201,0.394,0.263c0.001,0.001,0.003,0,0.004,0.001c0.157,0.064,0.323,0.095,0.49,0.097
		c0.007,0,0.015,0.004,0.022,0.004c0,0,0,0,0,0s0,0,0,0c0.174,0,0.347-0.034,0.51-0.1c0.163-0.066,0.315-0.165,0.444-0.294
		l8.904-8.903c0.526-0.527,0.526-1.383,0-1.91C34.167,32.848,33.312,32.848,32.784,33.373z"/>
	<path class="st0" d="M33.74,46.787H15.933c-0.746,0-1.35,0.604-1.35,1.35s0.604,1.35,1.35,1.35H33.74c0.745,0,1.35-0.604,1.35-1.35
		S34.485,46.787,33.74,46.787z"/>
	<path class="st0" d="M35.195,9.529c-0.629-5.073-5.034-9.015-10.358-9.015c-5.323,0-9.729,3.942-10.358,9.015
		c-3.927,0.614-6.941,4.019-6.941,8.116c0,4.529,3.685,8.214,8.214,8.214h4.489c0.746,0,1.35-0.604,1.35-1.35s-0.604-1.35-1.35-1.35
		h-4.489c-3.041,0-5.514-2.474-5.514-5.514s2.474-5.514,5.514-5.514c0.746,0,1.35-0.604,1.35-1.35c0-4.172,3.47-7.566,7.735-7.566
		s7.736,3.394,7.736,7.566c0,0.746,0.604,1.35,1.35,1.35c3.04,0,5.514,2.474,5.514,5.514s-2.474,5.514-5.514,5.514h-4.489
		c-0.745,0-1.35,0.604-1.35,1.35s0.604,1.35,1.35,1.35h4.489c4.529,0,8.213-3.685,8.213-8.214
		C42.135,13.548,39.121,10.143,35.195,9.529z"/>
	<path class="st0" d="M25.021,17.332l5.481-5.481c0.527-0.527,0.527-1.382,0.001-1.909c-0.527-0.527-1.384-0.527-1.909,0
		l-4.527,4.526l-1.708-1.708c-0.527-0.527-1.382-0.527-1.909,0s-0.527,1.382,0,1.909l2.662,2.662
		c0.264,0.264,0.609,0.396,0.955,0.396C24.412,17.727,24.758,17.595,25.021,17.332z"/>
</g>
</svg>
