<?xml version="1.0" encoding="utf-8"?>
<!-- Generator: Adobe Illustrator 23.0.4, SVG Export Plug-In . SVG Version: 6.00 Build 0)  -->
<svg version="1.1" id="eyeballContainer" xmlns="http://www.w3.org/2000/svg" xmlns:xlink="http://www.w3.org/1999/xlink" x="0px"
	 y="0px" viewBox="0 0 500 500" style="enable-background:new 0 0 500 500;" xml:space="preserve">
<style type="text/css">
	.st0{fill:#FFFFFF;}
</style>
<g>
<path class="st0 eyeball" d="M282.749,211.657c-2.256,0-4.085,1.829-4.085,4.085s1.829,4.085,4.085,4.085c2.256,0,4.085-1.829,4.085-4.085
	S285.005,211.657,282.749,211.657z"/>
<circle class="st0 eyeball" cx="327.849" cy="215.742" r="4.085"/>
<path class="st0 eyeball" d="M289.034,207.726c-1.215,0-2.201,0.985-2.201,2.201s0.985,2.201,2.201,2.201c1.215,0,2.201-0.985,2.201-2.201 S290.25,207.726,289.034,207.726z"/>
<path class="st0 eyeball" d="M334.232,207.726c-1.215,0-2.201,0.985-2.201,2.201s0.985,2.201,2.201,2.201c1.215,0,2.201-0.985,2.201-2.201 S335.447,207.726,334.232,207.726z"/>
</g>
</svg>
