<?xml version="1.0" encoding="utf-8"?>
<!-- Generator: Adobe Illustrator 23.0.4, SVG Export Plug-In . SVG Version: 6.00 Build 0)  -->
<svg version="1.1" id="Layer_1" xmlns="http://www.w3.org/2000/svg" xmlns:xlink="http://www.w3.org/1999/xlink" x="0px" y="0px"
	 viewBox="0 0 134.071 134.071" style="enable-background:new 0 0 134.071 134.071;" xml:space="preserve">
<style type="text/css">
	.st0{fill:#002B54;}
	.st1{fill:#FFFFFF;}
</style>
<g id="XMLID_1419_">
	<path id="XMLID_1421_" class="st0" d="M67.035,127.232L67.035,127.232c-33.654,0-60.936-27.282-60.936-60.936l0,0
		c0-33.654,27.282-60.936,60.936-60.936l0,0c33.654,0,60.936,27.282,60.936,60.936l0,0C127.972,99.95,100.69,127.232,67.035,127.232
		z"/>
	<path id="XMLID_1420_" class="st1" d="M57.75,103.128h14.833V65.983h10.349l1.103-12.438H72.584c0,0,0-4.643,0-7.083
		c0-2.932,0.589-4.091,3.425-4.091c2.281,0,8.028,0,8.028,0V29.463c0,0-8.464,0-10.271,0c-11.038,0-16.015,4.862-16.015,14.166
		c0,8.106,0,9.916,0,9.916h-7.716v12.593h7.716V103.128z"/>
</g>
</svg>
