<?xml version="1.0" encoding="utf-8"?>
<!-- Generator: Adobe Illustrator 23.0.4, SVG Export Plug-In . SVG Version: 6.00 Build 0)  -->
<svg version="1.1" id="Layer_1" xmlns="http://www.w3.org/2000/svg" xmlns:xlink="http://www.w3.org/1999/xlink" x="0px" y="0px"
	 viewBox="0 0 50 50" style="enable-background:new 0 0 50 50;" xml:space="preserve">
<g>
	<path d="M30.527,21.556c-0.054-0.476-0.505-0.815-1.031-0.815c-2.952-0.001-5.902-0.001-8.853-0.001
		c-2.952,0-5.902-0.001-8.853,0.001c-0.654,0.001-1.07,0.41-1.061,1.06c0.009,0.595,0.032,1.192,0.057,1.786
		c0.067,1.612,0.138,3.223,0.206,4.835c0.057,1.343,0.13,2.685,0.159,4.029c0.013,0.583,0.546,0.998,1.067,0.994
		c2.152-0.017,4.303-0.007,6.455-0.007c3.475,0,6.95-0.005,10.424,0.005c0.545,0.002,1.011-0.51,1.019-0.955
		c0.022-1.111,0.085-2.222,0.131-3.332c0.053-1.27,0.107-2.541,0.161-3.811c0.04-0.937,0.083-1.873,0.118-2.81
		C30.537,22.209,30.563,21.878,30.527,21.556z"/>
	<path d="M11.745,19.844c5.931,0,11.845,0,17.789,0c0-0.736-0.011-1.448,0.004-2.16c0.01-0.449-0.287-0.881-0.877-0.877
		c-2.893,0.016-5.787,0.009-8.681,0.001c-0.123-0.001-0.269-0.057-0.365-0.137c-0.381-0.315-0.748-0.645-1.114-0.978
		c-0.15-0.137-0.316-0.189-0.515-0.189c-1.796,0.003-3.592,0.001-5.387,0.002c-0.544,0.001-0.864,0.322-0.864,0.866
		c-0.001,1.083-0.001,2.167,0,3.249C11.735,19.694,11.741,19.763,11.745,19.844z"/>
</g>
</svg>
