<?xml version="1.0" encoding="utf-8"?>
<!-- Generator: Adobe Illustrator 23.0.4, SVG Export Plug-In . SVG Version: 6.00 Build 0)  -->
<svg version="1.1" id="OTIS-New" xmlns="http://www.w3.org/2000/svg" xmlns:xlink="http://www.w3.org/1999/xlink" x="0px" y="0px"
	 viewBox="0 0 200 200" style="enable-background:new 0 0 200 200;" xml:space="preserve">
<style type="text/css">
	.st0{opacity:0.4;fill:#310940;enable-background:new    ;}
	.st1{fill:#E2BEAE;}
	.st2{fill:#92ACB2;}
	.st3{fill:#FFF360;}
	.st4{fill:#FFFFFF;}
	.st5{fill:#EC509C;}
	.st6{fill:#8B3D6E;}
	.st7{fill:#301118;}
	.st8{fill:#D48BBC;}
	.st9{fill:none;}
	.st10{fill:#D1D3D4;}
	.st11{fill:#939598;}
	.st12{fill:#4D4D4F;}
	.st13{fill:#FFFFFF;stroke:#000000;stroke-width:0.6018;stroke-miterlimit:10;}
	.st14{fill:#FFFFFF;stroke:#000000;stroke-width:0.3009;stroke-miterlimit:10;}
	.st15{fill:#FFFFFF;stroke:#000000;stroke-width:0.685;stroke-miterlimit:10;}
	.st16{fill:#FFFFFF;stroke:#000000;stroke-width:0.3425;stroke-miterlimit:10;}
	.st17{fill:#A9E0F7;}
	.st18{fill:#50B848;}
	.st19{fill:#310940;}
	.st20{opacity:0.27;enable-background:new    ;}
</style>
<g>
	<ellipse class="st0" cx="139.54" cy="194.855" rx="55.593" ry="3.547"/>
	<path class="st1" d="M134.89,194.743c-2.6,0.036-5.246,0.041-7.815,0.003c-0.626-0.009-1.897,0.035-2.528,0.069
		c-1.713,0.093-3.511-0.127-5.252-0.055c-2.196,0.092-4.259-0.351-6.429-0.088c-0.2,0.024-0.412,0.047-0.598-0.031
		c-0.223-0.095-0.361-0.316-0.485-0.524c-0.436-0.736-0.989-1.511-1.113-2.36c-0.138-0.941-0.153-1.916-0.117-2.863
		c0.042-1.065,0.224-1.794,0.623-2.752c0.388-0.931,0.336-1.981,0.83-2.882c1.283-2.336,3.737-2.518,6.121-2.19
		c2.581,0.355,5.018,0.9,7.548,1.481c0.548,0.125,1.115,0.167,1.651,0.337c1.676,0.531,3.693,0.765,5.433,0.601
		c0.473-0.045,0.77,0.154,1.22,0.177c0.318,0.016,0.597-0.203,0.819-0.432c0.779-0.807,1.222-1.857,1.506-2.927
		c0.285-1.073,0.639-2.138,0.887-3.229c0.533-2.353,0.453-4.832-0.13-7.168c-0.279-1.12-0.672-2.21-1.155-3.258
		c-0.771-1.67-1.79-3.55-3.102-4.863c-0.984-0.985-1.767-2.113-2.656-3.202c-1.883-2.305-3.982-4.799-6.521-6.409
		c-2.445-1.551-2.389-2.035-5.327-2.535c-0.449-0.076-0.986-0.082-1.27,0.274c-0.165,0.206-0.198,0.486-0.214,0.75
		c-0.214,3.647,2.881,2.93-0.007,5.036c-2.369,1.728-7.783,6.528-10.396,7.868c-2.369,1.215-4.863,3.057-7.091,4.63
		c-2.018,1.426-3.821,2.27-6.261,1.888c-1.836-0.287-4.738-2.231-6.113-3.481c-1.185-1.076-2.776-3.577-3.266-5.101
		c-0.49-1.525,1.544-3.107,3.028-3.707c0.397-0.16,1.408-0.903,1.738-1.178c1.085-0.905-0.556-2.283-0.043-3.599
		c0.388-0.995,2.619-1.594,3.655-1.333c1.036,0.262,3.283,0.602,4.283,0.978c2.411,0.905,3.486,1.186,5.748-0.045
		c3.031-1.649,5.731-3.59,8.386-5.768c0.55-0.451,1.643-0.356,1.899-1.02c0.318-0.826,0.09-1.796,0.456-2.602
		c0.523-1.151,1.987-1.476,3.248-1.567c5.337-0.39,9.744,1.105,14.613,2.985c3.457,1.335,8.533-0.979,12.459-1.278
		c6.53-0.498,11.345,1.591,16.128-4.305c1.952-2.407,4.042-5.151,5.634-7.782c1.03-1.703,2.377-4.447,5.056-2.666
		c1.138,0.757,1.677,2.125,2.144,3.41c1.466,4.027,3.516,7.813,4.993,11.836c0.655,1.786,1.456,3.525,1.901,5.381
		c0.216,0.9,0.353,1.827,0.308,2.754c-0.022,0.457-0.196,0.92-0.209,1.364c-0.037,1.253-0.514,1.763-1.471,2.626
		c-0.872,0.788-1.527,1.737-2.605,2.285c-0.349,0.177-0.731,0.296-1.049,0.525c-0.359,0.257-0.61,0.635-0.928,0.939
		c-0.461,0.44-1.049,0.717-1.625,0.987c-0.726,0.339-1.453,0.679-2.179,1.018c-1.055,0.493-1.88,0.621-3,0.728
		c-0.637,0.061-1.485,1.073-2.132,0.849c0.185,0.649,0.702,1.144,1.026,1.738c0.245,0.45,0.376,0.951,0.504,1.447
		c0.077,0.3,0.156,0.604,0.146,0.914c-0.015,0.43-0.198,0.836-0.408,1.213c-0.602,1.084-1.284,2.111-2.467,2.523
		c-1.57,0.548-3.249,0.737-4.884,0.991c-0.482,0.075-0.952-0.074-1.426-0.02c-0.087,0.01-0.167,0.022-0.243,0.036
		c-2.051,0.37-0.686,3.233-0.408,4.355c0.2,0.805,0.235,1.257,0.906,1.867c1.238,1.126,2.635,2.478,4.279,2.953
		c1.248,0.361,2.563,0.331,3.619,1.189c1.112,0.904,1.827,2.305,2.205,3.665c0.513,1.846,0.49,3.792,0.465,5.707
		c-0.009,0.644-0.188,1.25-0.465,1.831c-0.429,0.898-1.453,1.026-2.23,1.019c-2.921-0.027-5.507-0.094-8.428-0.12
		c-3.163-0.029-5.418,0.158-8.581,0.12c-1.613-0.02-1.863-0.478-3.447,0c-1.308,0.394-2.633-0.053-4.022-0.12
		C138.944,194.563,136.188,194.726,134.89,194.743z"/>
	<path class="st2" d="M175.333,123.081c-0.197-0.902-0.315-1.827-0.587-2.719c-0.117-0.384-0.253-0.759-0.404-1.13
		c-0.125-0.305-0.134-0.606-0.244-0.917c-0.19-0.537-0.531-1.015-0.74-1.547c-0.105-0.27-0.14-0.783-0.376-0.968
		c0.325,0.255,0.467,0.697,0.807,0.929c1.125,0.767,1.587,2.264,2.702,3.103c0.291,0.219,1.526,1.237,1.37,1.664
		c0.385-1.058,0.398-2.172,0.277-3.278c-0.109-1.005-0.105-2.004-0.281-3.015c-0.374-2.155-1.08-4.24-1.956-6.24
		c-0.727-1.66-1.712-3.195-2.741-4.687c-0.649-0.941-1.318-1.869-2.037-2.758c-0.359-0.443-0.73-0.877-1.117-1.296
		c-0.312-0.337-0.778-0.668-1.005-1.066c0.919,0.413,1.848,0.801,2.788,1.165c0.38,0.148,0.762,0.291,1.149,0.421
		c1.421,0.475,2.732,1.212,4.217,1.534c-0.927-2.588-2.146-5.072-3.622-7.391c-0.849-1.333-1.788-2.541-2.561-3.925
		c-0.36-0.645-0.837-1.034-1.288-1.589c-1.016-1.25-2.035-2.5-3.16-3.654c-0.488-0.5-0.92-0.755-1.495-1.105
		c-0.357-0.218-0.531-0.562-0.79-0.869c-0.277-0.327-0.563-0.49-0.925-0.73c-0.729-0.485-1.413-1.033-2.135-1.526
		c-0.603-0.412-1.292-0.711-1.919-1.108c-1.36-0.86-2.777-1.628-4.194-2.389c-0.497-0.267-1.015-0.502-1.562-0.641
		c-0.985-0.25-1.955-0.32-2.921-0.651c-0.779-0.266-1.625-0.407-2.44-0.527c-1.84-0.285-3.764-0.817-5.593-0.707
		c0.247-0.555,0.805-0.922,1.22-1.348c0.35-0.359,0.725-0.692,1.115-1.005c0-0.23,0.847-0.564,1.034-0.668
		c0.519-0.287,1.009-0.645,1.509-0.965c0.12-0.077,0.247-0.183,0.215-0.311c-0.016-0.069-0.076-0.118-0.136-0.156
		c-0.259-0.164-0.574-0.207-0.879-0.242c-2.662-0.303-5.257-0.362-7.939-0.272c-2.866,0.096-5.774,0.309-8.553,1.059
		c-2.594,0.7-5.217,1.397-7.611,2.674c-1.893,1.01-3.693,2.194-5.372,3.532c-0.839,0.668-1.648,1.375-2.423,2.117
		c-0.68,0.652-1.301,1.529-2.045,2.083c0.215-1.567,0.696-3.045,1.245-4.533c0.259-0.701,0.52-1.459,0.894-2.109
		c0.113-0.197,0.822-1.415,0.931-1.442c-2.163,0.515-4.12,1.651-6.023,2.8c-0.887,0.536-1.774,1.08-2.578,1.734
		c-2.52,2.049-4.072,5.031-5.472,7.961c-0.56,1.171-1.113,2.362-1.407,3.633c-0.134,0.577-0.333,1.115-0.516,1.687
		c-0.093,0.288-0.634,1.577-0.473,1.828c-1.222-1.899-0.616-4.076-0.952-6.218c0.034,0.216-0.359,0.833-0.438,1.064
		c-0.134,0.386-0.223,0.781-0.33,1.173c-0.247,0.902-0.557,1.786-0.805,2.689c-0.263,0.952-0.494,1.915-0.653,2.89
		c-0.074,0.454-0.206,0.977-0.163,1.439c0.042,0.442,0.239,1.057-0.415,1.175c-0.138,0.025-0.471-0.067-0.598-0.138
		c-0.3-0.171-0.536-0.555-0.657-0.871c-0.096-0.25-0.085-1.283-0.279-1.436c-0.312-0.247-0.55,0.297-0.64,0.573
		c-0.353,1.081-0.339,2.247-0.234,3.379c0.248,2.676,0.749,5.366,2.826,7.27c0.1,0.092,0.218,0.187,0.353,0.179
		c0.127-0.007,0.231-0.103,0.324-0.19c1.019-0.95,1.792,0.09,2.679,0.636c1.034,0.636,2.106,1.217,3.072,1.956
		c1.802,1.382,4.207,3.972,3.701,6.476c-0.184,0.908-0.846,1.705-1.194,2.556c-0.568,1.385-0.978,2.756-1.756,4.054
		c-0.854,1.423-1.923,2.709-2.746,4.151c-3.001,5.263-2.074,13.387,1.374,18.369c3.588,5.184,8.88,9.118,14.696,11.477
		c0.905,0.367,2.148,1.018,3.109,1.049c-0.253-0.008-0.942-2.853-1.167-3.182c-0.161-0.236-0.535-0.821-0.317-1.108
		c0.275-0.363,0.203,0,0.45,0.2c0.622,0.503,1.687,1.259,2.45,1.557c0.856,0.334,1.689,0.737,2.534,1.122
		c1.109,0.506,2.244,1.018,3.458,1.131c0.375,0.035,0.762,0.032,1.112,0.172c0.171,0.068,0.326,0.167,0.491,0.247
		c1.222,0.589,2.819,0.442,4.143,0.593c1.637,0.188,3.261,0.21,4.892,0.319c-0.117-0.008-1.297-1.84-1.323-2.071
		c-0.006-0.055-0.007-0.115,0.022-0.163c0.061-0.103,0.21-0.098,0.33-0.078c3.427,0.537,6.857,0.345,10.291,0.566
		c1.709,0.109,3.48,0.21,5.078-0.403c0.343-0.132,0.676-0.296,0.966-0.521c0.213-0.165,0.4-0.361,0.61-0.529
		c0.362-0.293,0.783-0.502,1.201-0.709c3.405-1.685,6.87-3.39,10.616-4.025c-0.202-0.322-0.384-0.686-0.622-0.984
		c-0.152-0.19-0.358-0.296-0.531-0.463c-0.595-0.571-0.978-1.233-1.421-1.908c-0.073-0.111-0.15-0.221-0.192-0.346
		c-0.032-0.094-0.042-0.194-0.051-0.293c-0.044-0.508-0.083-1.101,0.02-1.604c0.085-0.414,0.434-0.803,0.704-1.123
		c0.147-0.175,0.307-0.351,0.515-0.443c0.466-0.208,0.914,0.059,1.359,0.169c0.491,0.123,0.917,0.274,1.369,0.51
		c-0.175-0.091,0.001-1.375,0.024-1.565c0.047-0.38-0.012-0.877,0.109-1.233c0.431-1.259,2.175-1.113,3.127-0.684
		c0.987,0.445,1.33,1.095,1.885,1.937c-0.103-0.156-0.026-0.72-0.036-0.918c-0.014-0.28-0.009-0.558-0.008-0.834
		c0.002-0.398-0.036-0.783,0.02-1.182c0.108-0.747,0.47-1.546,1.3-1.667c0.344-0.05,0.51,0.113,0.759,0.305
		c0.446,0.344,0.821,0.62,1.208,1.041c0.189,0.206,0.38,0.416,0.49,0.672c-0.3-0.528-0.537-1.085-0.725-1.661
		c-0.134-0.409-0.243-0.947-0.491-1.297c-0.064-0.09-0.14-0.19-0.121-0.299c0.009-0.053,0.04-0.099,0.069-0.142
		c0.232-0.344,0.386-0.548,0.471-0.952c0.085-0.405,0.195-0.804,0.299-1.204c0.392-1.505,0.531-3.063,0.628-4.615
		c0.045-0.741,0.081-1.486,0.096-2.229C175.687,125.887,175.642,124.498,175.333,123.081z"/>
	<path class="st3" d="M126.659,115.227c0,4.058-0.401,8.607-2.32,12.266c-0.524,1-1.292,2.206-2.442,2.552
		c-0.733,0.221-1.421-0.132-2.152,0.018c-1.23,0.25-2.234,0.883-3.549,0.873c-1.384-0.011-3.637-0.822-4.558-1.865
		c-0.681-0.771-1.031-1.789-1.16-2.809c-0.066-0.522-0.078-1.059,0.053-1.569c0.456-1.769,2.456-2.753,3.077-4.471
		c0.701-1.938,0.142-3.857,0.201-5.833c0.07-2.368,0.52-4.704,0.965-7.025c0.547-2.85,1.997-6.513,0.183-9.164
		c-0.125-0.183-0.264-0.362-0.325-0.575s-0.022-0.473,0.158-0.603c0.088-0.063,0.198-0.089,0.305-0.105
		c0.894-0.136,1.851,0.272,2.37,1.014c0.278,0.397,0.46,0.9,0.885,1.133c1.441,0.792,3.399-0.43,4.376-1.409
		c0.241-0.242,0.547-0.527,0.874-0.425c0.209,0.065,0.337,0.271,0.437,0.467c0.979,1.925,0.91,4.187,1.202,6.327
		c0.258,1.895,0.814,3.731,1.163,5.609C126.751,111.508,126.659,113.332,126.659,115.227z"/>
	<path class="st4" d="M113.474,103.964c-0.08-0.325-0.183-0.647-0.198-0.981c-0.013-0.334,0.077-0.691,0.326-0.914
		c0.321-0.287,0.814-0.279,1.227-0.152c0.664,0.206,1.239,0.684,1.56,1.301c0.41,0.786,0.401,1.715,0.382,2.602
		c-0.018,0.821,0.035,1.64,0.067,2.459c0.015,0.37-0.04,0.724-0.107,1.075c-0.096,0.508-0.216,1.009-0.188,1.544
		c0.063,1.173-0.358,2.233-0.496,3.374c-0.228,1.879-0.726,3.759-1.073,5.628c-0.08,0.43-0.16,0.862-0.313,1.271
		c-0.492,1.316-1.099,2.586-1.701,3.863c-0.17,0.361-0.542,0.659-0.635,1.041c-0.053,0.221-0.062,0.457-0.163,0.66
		c-0.143,0.288-0.476,0.47-0.796,0.434c-0.5-0.055-0.845-0.561-1.336-0.668c-0.1-0.021-0.207-0.028-0.287-0.09
		c-0.117-0.09-0.131-0.261-0.12-0.409c0.183-2.515,1.98-4.616,2.426-7.09c0.158-0.872,0.198-1.761,0.334-2.637
		c0.205-1.312,0.805-2.588,0.927-3.898c0.117-1.258,0.583-2.464,0.483-3.754c-0.063-0.813-0.372-1.669-0.259-2.488
		C113.639,105.367,113.669,104.75,113.474,103.964z"/>
	<path class="st4" d="M141.998,122.899c-1.049,2.529-2.265,4.921-4.194,6.909c-0.117,0.121-0.243,0.245-0.401,0.301
		c-0.359,0.127-0.733-0.12-1.033-0.354c-0.196-0.153-0.393-0.306-0.589-0.459c-0.089-0.069-0.183-0.144-0.22-0.251
		c-0.036-0.102-0.014-0.215,0.01-0.321c0.2-0.9,0.474-1.785,0.818-2.641c0.297-0.74,0.777-1.397,0.954-2.171
		c0.092-0.403,0.045-0.807,0.117-1.211c0.214-1.204,0.992-2.428,1.413-3.583c0.927-2.538,1.615-5.159,2.136-7.809
		c0.171-0.871,0.424-1.788,0.45-2.672c0.028-0.976-0.013-1.928,0.113-2.902c0.036-0.285,0.084-0.575,0.227-0.823
		c0.225-0.388,0.69-0.622,1.136-0.571c0.527,0.06,0.941,0.463,1.31,0.842c0.401,0.413,0.813,0.84,1.023,1.376
		c0.22,0.562,0.196,1.187,0.138,1.788c-0.142,1.476-0.471,2.911-0.581,4.376c-0.131,1.732-0.813,3.325-1.01,5.011
		C143.603,119.522,142.677,121.259,141.998,122.899z"/>
	<path d="M112.737,117.795c-0.016,0.085-0.031,0.169-0.047,0.254c-0.16,0.871-0.386,1.553-0.692,2.359
		c-0.339,0.894-0.438,1.848-0.894,2.705c-0.69,1.306-1.192,2.707-1.889,4.012c-0.127,0.239-0.603,1.374-0.995,1.275
		c-0.392-0.099-0.2-1.013-0.32-1.296c-0.203-0.474-0.817-0.805-1.262-1.016c-0.986-0.469-2.542-0.474-3.612-0.341
		c-0.992,0.123-1.751,0.891-2.828,0.949c-0.216,0.012-0.446,0.003-0.628-0.115c-0.15-0.097-0.248-0.256-0.33-0.415
		c-0.262-0.508-0.412-1.065-0.561-1.617c-0.231-0.855-0.461-1.711-0.691-2.565c-0.182-0.674-0.217-1.248-0.231-1.928
		c-0.012-0.605-0.198-1.215-0.239-1.828c-0.053-0.788,0.013-1.578,0.079-2.364c0.131-1.551,0.033-3.088,0.146-4.648
		c0.071-0.974,0.34-1.912,0.496-2.873c0.067-0.411,0.135-0.827,0.295-1.212c0.113-0.272,0.269-0.523,0.424-0.773
		c0.125-0.2,0.25-0.401,0.375-0.602c0.143-0.231,0.287-0.462,0.471-0.662c0.652-0.715,1.629-0.968,2.349-1.575
		c0.873-0.735,1.527-1.607,2.608-2.08c0.599-0.262,1.248-0.385,1.891-0.506c2.117-0.397,4.321-0.792,6.396-0.219
		c0.67,0.185,0.435,0.933,0.397,1.463c-0.047,0.672,0.216,1.277,0.332,1.935c0.239,1.36,0.266,2.75,0.169,4.126
		c-0.047,0.66-0.189,1.324-0.214,1.983c-0.018,0.462,0.085,0.891,0.031,1.357C113.52,113.665,113.119,115.73,112.737,117.795z"/>
	<path d="M121.791,104.645c0.016-0.102,0.033-0.206,0.049-0.308c0.039-0.245,0.078-0.49,0.161-0.724
		c0.293-0.833,1.024-1.243,1.575-1.856c0.599-0.668,1.025-1.405,1.77-1.944c1.543-1.114,3.261-0.929,5.005-1.241
		c1.126-0.202,2.262-0.392,3.408-0.414c0.873-0.016,2.229-0.067,3.017,0.352c1.303,0.693,2.653,1.337,3.932,2.069
		c1.025,0.587,1.332,2.151,1.384,3.265c0.063,1.349-0.263,2.659-0.227,3.999c0.041,1.521-0.328,3.156-0.514,4.666
		c-0.122,0.992-0.121,1.991-0.403,2.966c-0.179,0.637-0.194,1.244-0.427,1.864c-0.611,1.62-0.709,3.325-1.215,4.981
		c-0.46,1.504-1.101,2.409-1.667,3.863c-0.094,0.239-0.707,0.989-0.852,1.201c-0.682,0.998-1.007,1.91-2.586,0.428
		c-0.43-0.403-0.809-0.872-1.309-1.184c-0.503-0.312-1.102-0.421-1.685-0.522c-1.632-0.286-3.264-0.571-4.896-0.857
		c-0.786-0.138-1.57-0.296-2.355-0.432c-0.598-0.103-0.829,2.295-1.432,2.353c-0.198-1.01-0.398-2.219-0.784-5.266
		c-0.117-0.92-0.188-1.871-0.307-2.801c-0.084-0.66-0.168-1.32-0.208-1.983c-0.045-0.736-0.034-1.475-0.024-2.213
		c0.012-0.872,0.024-1.745,0.036-2.618c0.027-1.921,0.054-3.846,0.281-5.754c0.098-0.816,0.134-1.759,0.471-2.518
		c0.143-0.322,0.287-0.644,0.43-0.966c0.301-0.677,0.628-1.386,1.227-1.821"/>
	<path class="st5" d="M96.306,106.689c-1.413-1.855-2.644-6.297-2.045-7.737c0.761,1.357,2.252,0.952,2.252,0.952
		s0.432-2.279,1.018-6.251c0.929,1.767,1.93,2.915,1.93,2.915s3.632-13.074,10.913-18.649c-1.462,4.695,0,10.658,0,10.658
		s13.561-16.097,30.117-15.494c-5.647,4.248-7.533,5.236-8.846,9.957c18.275-9.338,35.496,4.737,40.165,13.555
		c-13.894-8.818-25.306-4.87-25.306-4.87s6.949,3.966,6.949,6.425c-6.223-3.174-12.426-0.425-12.745,2.432s-2.962-4.278-2.962-4.278
		s-11.073-2.889-14.146,0.927c-1.985,2.465-3.928,4.145-5.05,7.738c-1.404-5.853-3.295-8.058-5.161-8.476
		c-3.77-0.846-10.065,4.832-10.297,4.882C102.86,101.427,96.306,106.689,96.306,106.689L96.306,106.689z"/>
	<path class="st6" d="M101.498,133.952c-2.279,5.031,6.108,17.28,14.388,19.625c-0.829-2.296-1.227-4.666-1.118-5.265
		c0.872,0.572,12.56,7.965,18.851,7.645c-1.1-1.426-1.793-2.802-1.602-3.156c2.126,1.121,15.02,1.78,17.992,1.644
		c-15.269-6.88-22.438-15.502-20.117-20.976c1.413-3.333-24.631-1.685-24.739-1.712
		C105.043,131.729,101.498,133.952,101.498,133.952z"/>
	<path class="st7" d="M121.515,145.904c-0.577,0.305-1.248,0.43-1.844,0.71c-0.586,0.276-1.112,0.706-1.748,0.824
		c-0.569,0.106-1.15-0.053-1.707-0.209c-0.864-0.243-1.728-0.487-2.592-0.73c-0.62-0.174-1.249-0.353-1.793-0.699
		c-0.431-0.274-0.792-0.643-1.144-1.012c-0.89-0.933-1.753-1.892-2.586-2.876c-0.922-1.088-1.185-2.401-1.62-3.737
		c-0.086-0.266-0.174-0.537-0.189-0.816c-0.023-0.459,0.15-0.902,0.321-1.329c0.214-0.534,0.433-1.077,0.792-1.527
		c0.371-0.466,0.873-0.807,1.388-1.109c2.678-1.567,6.228-1.045,9.222-1.045c0.875,0,1.991-0.189,2.84,0.009
		c1.761,0.411,2.548,1.945,3.132,3.506c0.733,1.96-0.148,3.608-0.517,5.528c-0.15,0.781-0.211,1.581-0.421,2.348
		c-0.21,0.767-0.593,1.523-1.243,1.981C121.715,145.79,121.617,145.849,121.515,145.904z"/>
	<path class="st8" d="M121.176,145.999c-0.047,0.025-0.096,0.048-0.146,0.069c-0.921,0.39-1.716,0.697-2.746,0.671
		c-0.644-0.016-1.289-0.032-1.933-0.049c-0.765-0.02-1.538-0.04-2.277-0.243c-1.587-0.437-3.809-1.697-4.73-3.095
		c-0.034-0.051-0.069-0.109-0.06-0.171c0.01-0.073,0.076-0.123,0.136-0.164c0.752-0.518,1.743-0.967,2.409-1.518
		c0.366-0.303,0.585-0.641,1.076-0.871c0.517-0.242,1.074-0.391,1.628-0.522c0.593-0.141,1.197-0.263,1.806-0.245
		c1.129,0.034,2.093,0.362,3.212,0.182c1.107-0.178,2.458-0.034,3.499,0.386c0.401,0.161,0.505,0.324,0.483,0.782
		c-0.061,1.331-0.506,2.641-1.268,3.733C121.977,145.366,121.625,145.763,121.176,145.999z"/>
	<line class="st9" x1="113.388" y1="142.309" x2="113.332" y2="142.309"/>
	<g>
		<path d="M106.884,137.802c0.232,1.146,0.656,2.247,1.237,3.256c0.568,1.016,1.283,1.949,2.109,2.76
			c1.63,1.621,3.778,2.836,6.047,2.691c1.14-0.05,2.273-0.292,3.282-0.796c1.003-0.514,1.85-1.292,2.488-2.231
			c0.144-0.245,0.321-0.471,0.441-0.732l0.369-0.778c0.187-0.546,0.394-1.089,0.506-1.664c0.162-0.562,0.223-1.148,0.313-1.729
			c0.074-0.583,0.089-1.176,0.142-1.766h0.421c0.016,1.206-0.014,2.426-0.256,3.629c-0.088,0.608-0.295,1.191-0.474,1.782
			l-0.37,0.855c-0.121,0.287-0.305,0.545-0.457,0.819c-0.66,1.067-1.622,1.966-2.745,2.553c-1.13,0.58-2.383,0.858-3.626,0.926
			c-0.611,0.018-1.274,0.002-1.891-0.158c-0.627-0.126-1.215-0.367-1.779-0.637c-1.122-0.559-2.122-1.322-2.971-2.216
			c-1.687-1.786-2.911-4.055-3.203-6.501L106.884,137.802z"/>
	</g>
	<ellipse class="st10" cx="159.906" cy="112.493" rx="9.436" ry="12.452"/>
	<path class="st11" d="M166.96,120.155c0.219-0.365,0.511-0.68,0.8-0.991c-0.33,1.1-0.989,1.969-1.741,2.814
		c-1.559,1.751-3.73,2.967-6.114,2.967c-5.211,0-9.436-5.575-9.436-12.452c0-6.878,4.224-12.452,9.436-12.452
		c3.3,0,6.421,2.432,7.786,5.358c0.111,0.239,0.223,0.479,0.335,0.717c-0.62-0.882-1.309-1.702-2.038-2.494
		c-0.455-0.495-1.042-0.844-1.577-1.244c-0.26-0.195-0.446-0.226-0.734-0.33c-0.361-0.129-0.495-0.352-0.903-0.381
		c-0.327-0.023-0.684-0.125-1.021-0.163c-0.567-0.066-1.124-0.075-1.694-0.045c-0.557,0.029-1.123,0.077-1.642,0.281
		c-0.368,0.144-0.701,0.363-1.02,0.597c-1.813,1.336-3.186,3.259-3.863,5.406c-0.304,0.966-0.502,2.037-0.643,3.034
		c-0.166,1.167-0.1,2.36,0.116,3.516c0.187,1.005,0.486,1.986,0.84,2.944c0.301,0.811,0.542,1.857,1.057,2.561
		c0.146,0.199,0.31,0.384,0.475,0.568c1.33,1.486,2.809,2.841,4.875,3.101c0.413,0.052,0.729-0.061,1.115-0.141
		c0.43-0.089,0.882-0.067,1.316-0.164c0.854-0.191,1.668-0.554,2.378-1.065c0.367-0.264,0.705-0.568,1.041-0.869
		c0.214-0.191,0.429-0.385,0.591-0.622C166.795,120.46,166.871,120.305,166.96,120.155z"/>
	<path class="st11" d="M167.522,116.503c-0.343,0.979-1.182,1.691-2.104,2.111c-0.391,0.178-0.597,0.295-1.021,0.326
		c-0.435,0.031-0.876,0.092-1.296,0.021c-0.433-0.073-0.974-0.231-1.362-0.433c-0.639-0.331-1.171-1.088-1.54-1.684
		c-0.812-1.314-1.185-2.882-1.185-4.419c0-3.529,1.83-6.591,4.505-6.591c2.411,0,3.633,1.448,4.333,2.95
		c0.057,0.123,0.115,0.246,0.172,0.368c-0.318-0.452-0.672-0.873-1.046-1.28c-0.233-0.254-0.535-0.433-0.809-0.638
		c-0.133-0.1-0.229-0.117-0.377-0.169c-0.185-0.067-0.254-0.181-0.463-0.196c-0.167-0.012-0.351-0.064-0.524-0.084
		c-0.291-0.034-0.577-0.038-0.869-0.023c-0.286,0.015-0.576,0.04-0.843,0.144c-0.189,0.074-0.361,0.186-0.523,0.307
		c-0.863,0.637-1.54,1.25-1.974,2.27c-0.312,0.732-0.474,1.519-0.577,2.308c-0.055,0.431-0.094,0.869-0.038,1.299
		c0.045,0.342,0.147,0.674,0.256,1.001c0.291,0.867,0.639,1.729,1.186,2.463c0.194,0.26,0.412,0.504,0.651,0.724
		c0.374,0.347,0.805,0.643,1.289,0.806C164.903,118.604,166.553,117.649,167.522,116.503z"/>
	<path class="st12" d="M155.997,76.658c0.049,0.022,0.098,0.045,0.147,0.068c0.738,0.357,1.364,0.913,1.863,1.558
		c0.299,0.386,0.39,0.818,0.571,1.256c0.067,0.162,0.184,0.29,0.249,0.454c0.1,0.25,0.16,0.524,0.235,0.782
		c0.42,1.452,0.72,2.928,1.084,4.391c0.272,1.086,0.504,2.169,0.74,3.27c0.248,1.154,0.435,2.33,0.724,3.48
		c0.074,0.295,0.192,0.585,0.255,0.88c0.058,0.273,0.061,0.573,0.078,0.854c0.04,0.645,0.057,1.293,0.192,1.927
		c0.337,1.573,0.368,3.168,0.351,4.793c0,0.013-0.571-0.235-0.622-0.263c-0.228-0.126-0.379-0.158-0.643-0.179
		c-0.431-0.034-0.863-0.049-1.295-0.06c-0.322-0.008-0.688-0.064-1.005,0.004c-0.668,0.144-1.316,0.386-1.956,0.625
		c-0.49,0.183-0.771,0.658-1.281,0.809c-0.258-1.136,0.283-2.12,0.344-3.243c0.059-1.107,0.026-2.216-0.006-3.323
		c-0.053-1.836-0.025-3.666-0.074-5.501c-0.032-1.212-0.256-2.408-0.415-3.607c-0.077-0.579-0.098-1.148-0.27-1.704
		c-0.185-0.599-0.369-1.198-0.554-1.797c-0.256-0.832-0.515-1.669-0.903-2.451c-0.118-0.239-0.189-0.51-0.337-0.726
		c-0.141-0.206-0.291-0.419-0.444-0.616c-0.281-0.363-0.594-0.708-0.957-0.984c-0.546-0.417-1.163-0.771-1.834-0.935
		c-0.216-0.053-0.436-0.103-0.653-0.15c-0.412-0.087-0.859-0.233-1.277-0.272c0.236-0.272,0.557-0.535,0.926-0.579
		c0.351-0.042,0.67-0.165,1.028-0.207c0.527-0.063,0.997,0.067,1.511,0.138c0.508,0.07,1.124,0.223,1.596,0.421
		c0.455,0.191,0.933,0.304,1.417,0.439C155.189,76.327,155.609,76.487,155.997,76.658z"/>
	<g>
		<path d="M111.971,126.326c1.036-1.518,1.597-3.318,2.138-5.081c0.518-1.78,0.916-3.596,1.277-5.417
			c0.36-1.822,0.628-3.662,0.854-5.503c0.223-1.842,0.409-3.688,0.49-5.542l0.239-0.009c0.166,1.875,0.04,3.757-0.157,5.617
			c-0.205,1.862-0.516,3.709-0.885,5.544c-0.367,1.835-0.822,3.654-1.388,5.442c-0.283,0.894-0.597,1.78-0.983,2.638
			c-0.366,0.865-0.828,1.697-1.395,2.459L111.971,126.326z"/>
	</g>
	<g>
		<path d="M98.981,105.896c-0.554,1.637-0.808,3.354-0.964,5.073c-0.151,1.722-0.175,3.456-0.147,5.188
			c0.044,1.732,0.172,3.464,0.392,5.183c0.247,1.705,0.51,3.453,1.233,4.999l-0.206,0.124c-0.886-1.567-1.232-3.323-1.537-5.047
			c-0.301-1.732-0.442-3.486-0.506-5.241c-0.069-1.755-0.017-3.517,0.177-5.268c0.216-1.743,0.575-3.502,1.338-5.105L98.981,105.896
			z"/>
	</g>
	<g>
		<path d="M113.677,102.757c0.48,1.937,0.477,3.925,0.433,5.884c-0.08,1.964-0.252,3.923-0.571,5.862
			c-0.307,1.94-0.687,3.872-1.243,5.76c-0.541,1.888-1.235,3.754-2.251,5.447l-0.21-0.116c0.842-1.747,1.413-3.608,1.881-5.487
			c0.448-1.886,0.818-3.791,1.092-5.713c0.262-1.923,0.49-3.851,0.608-5.789c0.127-1.932,0.241-3.883,0.028-5.797L113.677,102.757z"
			/>
	</g>
	<g>
		<path d="M122.294,103.496c-0.258,1.778-0.476,3.554-0.612,5.339c-0.155,1.783-0.189,3.573-0.197,5.364
			c0.014,3.584,0.35,7.157,0.76,10.737l-0.238,0.034c-0.318-1.772-0.628-3.553-0.821-5.35c-0.214-1.795-0.324-3.603-0.359-5.414
			c-0.082-3.618,0.253-7.264,1.13-10.777L122.294,103.496z"/>
	</g>
	<g>
		<path d="M145.481,107.48c0.081,2.15-0.14,4.296-0.491,6.412c-0.355,2.118-0.885,4.207-1.577,6.243
			c-0.684,2.037-1.522,4.033-2.611,5.896c-1.073,1.863-2.399,3.614-4.058,4.993l-0.16-0.179c1.516-1.483,2.702-3.25,3.695-5.105
			c0.976-1.867,1.771-3.829,2.426-5.837c0.649-2.012,1.14-4.072,1.569-6.144c0.428-2.074,0.767-4.168,0.967-6.281L145.481,107.48z"
			/>
	</g>
	<g>
		<path d="M142.187,104.958c0.141,1.055,0.133,2.115,0.078,3.165c-0.057,1.051-0.138,2.101-0.281,3.143
			c-0.258,2.087-0.645,4.155-1.131,6.2c-0.485,2.045-1.053,4.076-1.828,6.04c-0.388,0.98-0.811,1.952-1.346,2.87
			c-0.529,0.912-1.156,1.809-2.038,2.445l-0.142-0.194c0.777-0.656,1.346-1.535,1.813-2.451c0.465-0.921,0.864-1.879,1.212-2.855
			c0.686-1.958,1.223-3.973,1.689-6c0.227-1.016,0.432-2.037,0.616-3.061c0.195-1.023,0.372-2.049,0.523-3.079
			c0.287-2.057,0.61-4.13,0.596-6.198L142.187,104.958z"/>
	</g>
	<g>
		<path d="M158.86,79.941c2.122,1.212,4.131,2.627,5.988,4.221c1.859,1.591,3.554,3.373,5.091,5.279
			c3.087,3.811,5.449,8.162,7.313,12.685l0.27,0.655l-0.668-0.252h-0.001l-8.034-3.289l0.121-0.203l0.001,0.001
			c1.585,1.419,2.963,3.035,4.203,4.753c1.231,1.724,2.298,3.569,3.154,5.514c0.852,1.946,1.488,3.991,1.85,6.092
			c0.372,2.099,0.444,4.249,0.27,6.377l-0.061,0.751l-0.506-0.571l0,0l-4.931-5.972l0.196-0.136v0.001
			c0.798,1.608,1.383,3.3,1.843,5.027c0.457,1.728,0.752,3.499,0.893,5.284c0.13,1.786,0.093,3.588-0.142,5.369
			c-0.231,1.782-0.67,3.536-1.283,5.229l-0.588-0.223c0.627-1.637,1.088-3.341,1.345-5.08c0.262-1.738,0.332-3.506,0.236-5.267
			c-0.106-1.76-0.365-3.513-0.785-5.229c-0.422-1.712-0.976-3.408-1.729-4.999v-0.001l-0.468-0.859l0.664,0.723l5.244,5.711v0.001
			l-0.568,0.179c0.202-2.069,0.167-4.167-0.164-6.225c-0.32-2.061-0.912-4.078-1.72-6.006c-0.811-1.927-1.834-3.767-3.026-5.492
			c-1.197-1.716-2.546-3.349-4.08-4.767l-0.001-0.001l-0.521-0.433l0.641,0.231l8.17,2.935h0.001l-0.399,0.403
			c-1.786-4.499-4.066-8.835-7.073-12.647c-1.497-1.906-3.151-3.693-4.975-5.293c-1.819-1.604-3.794-3.033-5.886-4.265
			L158.86,79.941z"/>
	</g>
	<g>
		<path d="M95.901,106.884c-1.349-1.642-2.28-3.61-2.797-5.682c-0.254-1.039-0.396-2.112-0.372-3.197
			c0.026-1.082,0.221-2.185,0.692-3.204l0.001-0.001l0.61-1.134l0.14,1.241c0.069,0.614,0.175,1.23,0.417,1.771
			c0.129,0.26,0.291,0.504,0.517,0.651c0.216,0.153,0.527,0.176,0.778,0.076h0.001l-0.059,0.109
			c-0.051-1.786,0.154-3.559,0.515-5.304s0.921-3.451,1.658-5.083l0.001-0.001l0.638-1.324l-0.04,1.461
			c-0.028,1.052-0.037,2.105,0.015,3.153c0.026,0.523,0.069,1.047,0.147,1.561c0.036,0.258,0.088,0.512,0.153,0.76
			c0.036,0.123,0.071,0.246,0.12,0.359c0.038,0.106,0.122,0.244,0.154,0.276l-0.001-0.002l-0.172,0.084
			c0.464-2.233,1.185-4.394,2.078-6.487c0.895-2.092,2.012-4.094,3.358-5.942c1.361-1.833,2.973-3.507,4.869-4.818
			c1.885-1.326,4.053-2.246,6.313-2.733h0.001l0.775-0.169l-0.372,0.697c-0.68,1.275-1.314,2.574-1.879,3.904
			c-0.283,0.664-0.548,1.336-0.784,2.018c-0.233,0.68-0.453,1.377-0.585,2.072v0.001l-0.216-0.084
			c1.995-2.571,4.527-4.645,7.247-6.386c2.735-1.726,5.725-3.041,8.833-3.942c3.113-0.885,6.337-1.379,9.573-1.462
			c3.236-0.098,6.478,0.162,9.665,0.714l0.77,0.134l-0.664,0.402c-0.998,0.604-1.989,1.22-2.95,1.877
			c-0.482,0.327-0.952,0.669-1.405,1.029c-0.225,0.181-0.449,0.366-0.654,0.564c-0.105,0.098-0.203,0.2-0.294,0.307
			c-0.046,0.053-0.088,0.107-0.125,0.161c-0.036,0.041-0.069,0.142-0.073,0.118v-0.001l-0.125-0.103
			c1.462-0.036,2.91,0.088,4.348,0.297c1.437,0.214,2.857,0.537,4.246,0.962l-0.071,0.229c-1.377-0.422-2.786-0.742-4.21-0.954
			c-1.423-0.208-2.87-0.331-4.3-0.295l-0.115,0.003l-0.011-0.107v-0.001c0.012-0.17,0.059-0.198,0.098-0.281
			c0.042-0.069,0.086-0.133,0.134-0.192c0.094-0.121,0.192-0.235,0.297-0.343c0.205-0.218,0.424-0.419,0.645-0.615
			c0.445-0.39,0.904-0.76,1.374-1.113c0.937-0.711,1.904-1.381,2.878-2.037l0.105,0.535c-3.148-0.573-6.351-0.859-9.549-0.791
			c-3.198,0.053-6.389,0.513-9.473,1.36c-3.08,0.863-6.048,2.138-8.773,3.822c-2.705,1.695-5.245,3.745-7.224,6.249l-0.273,0.345
			l0.057-0.43v-0.001c0.097-0.741,0.278-1.446,0.474-2.152c0.198-0.705,0.428-1.399,0.676-2.088c0.494-1.377,1.06-2.727,1.672-4.054
			l0.403,0.528h0.001c-2.173,0.428-4.267,1.268-6.111,2.515c-1.854,1.233-3.456,2.832-4.824,4.604
			c-1.353,1.787-2.492,3.741-3.416,5.795c-0.922,2.052-1.679,4.194-2.177,6.385l-0.036,0.161l-0.135-0.077l-0.003-0.002
			c-0.178-0.134-0.208-0.248-0.282-0.378c-0.063-0.126-0.109-0.255-0.156-0.384c-0.085-0.259-0.156-0.521-0.209-0.784
			c-0.113-0.526-0.19-1.056-0.249-1.587c-0.119-1.061-0.175-2.126-0.212-3.189l0.599,0.136v0.001
			c-0.774,1.559-1.384,3.207-1.802,4.907c-0.418,1.697-0.684,3.451-0.699,5.197l-0.001,0.077L96.01,97.61l-0.001,0.001
			c-0.32,0.19-0.729,0.216-1.074,0.053c-0.347-0.158-0.593-0.442-0.792-0.729c-0.376-0.593-0.58-1.243-0.751-1.89l0.749,0.107v0.001
			c-0.452,0.873-0.682,1.871-0.749,2.882c-0.068,1.014,0.021,2.045,0.221,3.056c0.409,2.018,1.231,3.983,2.479,5.646L95.901,106.884
			z"/>
	</g>
	<g>
		<path d="M168.997,125.873c2.179,4.141,4.242,8.344,6.148,12.622c0.951,2.14,1.854,4.304,2.668,6.506
			c0.79,2.21,1.566,4.438,1.871,6.828c0.068,0.599,0.096,1.213-0.013,1.854c-0.105,0.66-0.417,1.227-0.767,1.737
			c-0.702,1.033-1.63,1.825-2.571,2.563c-0.951,0.73-1.957,1.368-2.99,1.952c-1.029,0.59-2.09,1.118-3.171,1.594
			c-2.154,0.97-4.375,1.776-6.638,2.424c-2.263,0.642-4.578,1.153-6.924,1.318c2.279-0.558,4.486-1.301,6.676-2.086
			c2.185-0.796,4.343-1.658,6.451-2.616c2.093-0.983,4.178-2.006,6.044-3.333c1.816-1.313,3.678-2.995,3.207-5.339
			c-0.234-2.267-0.951-4.515-1.683-6.717c-0.758-2.204-1.608-4.38-2.508-6.536c-1.803-4.311-3.77-8.557-5.853-12.744
			L168.997,125.873z"/>
	</g>
	<g>
		<path d="M156.611,139.455c1.581,1.648,3.027,3.421,4.48,5.182c1.446,1.769,2.867,3.555,4.275,5.357l0.303,0.387l-0.49,0.145
			l-0.001,0.001c-2.034,0.57-4.053,1.264-6.01,2.07c-1.948,0.817-3.875,1.741-5.546,2.983c-0.826,0.618-1.6,1.338-2.059,2.202
			c-0.124,0.215-0.192,0.434-0.272,0.67c-0.07,0.253-0.136,0.507-0.198,0.763c-0.121,0.512-0.233,1.027-0.324,1.546
			c-0.361,2.073-0.541,4.201-0.304,6.274c0.122,1.03,0.355,2.057,0.821,2.952c0.448,0.902,1.19,1.626,2.126,1.928
			c0.933,0.339,1.967,0.182,3.036,0.087c1.057-0.105,2.11-0.233,3.149-0.417c1.038-0.188,2.066-0.428,3.033-0.801
			c0.952-0.378,1.887-0.896,2.431-1.707c0.27-0.401,0.422-0.867,0.455-1.353c0.033-0.488-0.063-0.986-0.2-1.473
			c-0.291-0.978-0.779-1.912-1.283-2.85l0.197-0.137c0.71,0.813,1.3,1.753,1.649,2.816c0.165,0.533,0.27,1.099,0.237,1.682
			c-0.035,0.58-0.222,1.163-0.548,1.651c-0.664,0.985-1.704,1.539-2.71,1.948c-1.025,0.4-2.086,0.65-3.147,0.846
			c-1.063,0.193-2.13,0.327-3.198,0.437c-0.543,0.046-1.047,0.12-1.623,0.131c-0.561,0.009-1.139-0.042-1.687-0.235
			c-0.548-0.182-1.063-0.482-1.49-0.874c-0.431-0.391-0.757-0.871-1.022-1.367c-0.525-1.003-0.772-2.098-0.906-3.18
			c-0.255-2.176-0.076-4.352,0.284-6.48c0.091-0.533,0.203-1.063,0.326-1.59c0.062-0.263,0.129-0.526,0.201-0.788
			c0.087-0.271,0.182-0.562,0.324-0.812c0.546-1.031,1.39-1.798,2.258-2.457c1.765-1.308,3.733-2.227,5.718-3.053
			c1.996-0.811,4.025-1.499,6.106-2.071l0.001-0.001l-0.187,0.532c-1.311-1.863-2.643-3.717-3.995-5.553
			C159.459,143.018,158.107,141.18,156.611,139.455z"/>
	</g>
	<g>
		<path d="M162.453,146.86c-0.073-0.59-0.082-1.177-0.015-1.771c0.076-0.585,0.231-1.206,0.676-1.691
			c0.446-0.496,1.183-0.652,1.792-0.554c0.627,0.077,1.196,0.307,1.744,0.554l0.003,0.002l-0.505,0.35
			c0.018-0.785,0-1.569,0.236-2.331l0.222-0.554c0.115-0.165,0.212-0.344,0.349-0.491c0.279-0.295,0.649-0.506,1.049-0.571
			c0.811-0.14,1.579,0.204,2.231,0.61c0.652,0.432,1.2,1.002,1.675,1.634l-0.573,0.175v-0.002c0.018-0.757,0.055-1.516,0.154-2.271
			c0.055-0.376,0.125-0.754,0.244-1.123c0.119-0.363,0.289-0.744,0.626-1c0.172-0.121,0.384-0.182,0.591-0.18
			c0.206,0.011,0.398,0.071,0.576,0.153c0.351,0.172,0.647,0.419,0.92,0.679c0.544,0.529,1.014,1.119,1.378,1.804l-0.221,0.094
			c-0.279-0.662-0.747-1.27-1.268-1.784c-0.268-0.251-0.562-0.479-0.887-0.628c-0.163-0.07-0.334-0.117-0.502-0.123
			c-0.169,0.001-0.324,0.064-0.454,0.163c-0.254,0.216-0.394,0.558-0.483,0.903c-0.094,0.347-0.135,0.712-0.151,1.078
			c-0.04,0.732,0.013,1.471,0.095,2.206v0.002l-0.071,1.19l-0.502-1.015c-0.318-0.643-0.776-1.226-1.351-1.664
			c-0.561-0.434-1.285-0.755-1.98-0.634c-0.702,0.109-1.203,0.736-1.328,1.44c-0.14,0.706-0.048,1.446,0.109,2.151l0.128,0.572
			l-0.633-0.223l-0.003-0.001c-0.475-0.288-0.981-0.539-1.502-0.642c-0.515-0.117-1.057-0.051-1.422,0.314
			c-0.37,0.357-0.559,0.908-0.656,1.455c-0.098,0.553-0.107,1.134-0.053,1.694L162.453,146.86z"/>
	</g>
	<g>
		<path d="M99.581,138.941c0.032,1.154,0.424,2.283,0.931,3.328c0.508,1.051,1.142,2.041,1.848,2.975
			c1.412,1.87,3.086,3.535,4.898,5.018c1.815,1.482,3.786,2.768,5.851,3.869c2.069,1.095,4.241,1.986,6.475,2.669h0.001
			l-0.481,0.499l-1.426-4.8v-0.001l-0.158-0.432l0.355,0.305c1.302,1.122,2.844,1.98,4.41,2.709
			c1.577,0.723,3.227,1.278,4.903,1.722c0.843,0.205,1.685,0.411,2.543,0.548c0.85,0.175,1.714,0.265,2.573,0.376
			c0.86,0.111,1.729,0.137,2.593,0.21c0.867,0.03,1.735,0.034,2.602,0.053l0,0l-0.261,0.473l-1.315-2.444l-0.109-0.203l0.223,0.02
			c2.753,0.247,5.518,0.404,8.279,0.438c1.381,0.019,2.761,0.003,4.135-0.079c1.37-0.085,2.749-0.205,4.062-0.527l0.138,0.574
			c-1.388,0.308-2.784,0.397-4.175,0.455c-1.391,0.053-2.782,0.041-4.169-0.008c-2.774-0.093-5.538-0.31-8.295-0.615l0.115-0.183
			l1.633,2.244l0.344,0.473h-0.605l0,0c-0.879-0.034-1.757-0.054-2.634-0.102c-0.875-0.09-1.753-0.132-2.623-0.26
			c-0.869-0.128-1.741-0.235-2.6-0.428c-0.865-0.154-1.715-0.379-2.565-0.602c-1.689-0.481-3.349-1.073-4.934-1.834
			c-1.577-0.772-3.107-1.655-4.434-2.839l0.196-0.126v0.001l1.929,4.621l0.297,0.713l-0.778-0.213h-0.001
			c-2.268-0.741-4.464-1.691-6.548-2.844c-2.08-1.159-4.056-2.503-5.87-4.042c-1.811-1.54-3.477-3.26-4.874-5.186
			c-0.699-0.962-1.326-1.981-1.825-3.066c-0.497-1.079-0.882-2.243-0.894-3.459L99.581,138.941L99.581,138.941z"/>
	</g>
	<g>
		<path d="M106.487,149.848c-1.059,1.097-2.337,1.95-3.68,2.648c-0.674,0.349-1.37,0.657-2.093,0.906
			c-0.362,0.123-0.732,0.231-1.115,0.307c-0.388,0.061-0.776,0.147-1.252-0.007c-1.364-0.603-2.803-0.991-4.246-1.333
			c-0.722-0.161-1.451-0.293-2.179-0.362c-0.722-0.065-1.466-0.082-2.109,0.096c-0.317,0.09-0.591,0.243-0.733,0.455
			c-0.185,0.279-0.376,0.615-0.411,0.856c-0.013,0.121-0.002,0.175,0.067,0.297c0.069,0.12,0.204,0.288,0.309,0.492
			c0.223,0.419,0.252,0.909,0.201,1.316c-0.025,0.214-0.056,0.399-0.117,0.614c-0.055,0.224-0.165,0.433-0.287,0.625
			c-0.258,0.378-0.602,0.65-0.941,0.871c-0.688,0.43-1.392,0.708-2.028,1.047c-0.636,0.33-1.202,0.734-1.5,1.277
			c-0.307,0.529-0.328,1.239-0.186,1.877c0.336,1.314,1.253,2.531,2.225,3.592c0.996,1.063,2.138,2.001,3.376,2.766
			c1.237,0.753,2.592,1.357,3.981,1.529c0.691,0.08,1.383,0.042,2.017-0.157c0.163-0.038,0.307-0.123,0.462-0.181l0.487-0.251
			c0.328-0.166,0.652-0.344,0.974-0.531c1.294-0.73,2.568-1.516,3.829-2.319c2.517-1.617,5.025-3.259,7.483-4.969
			c2.428-1.739,4.957-3.399,7.12-5.435l0.18,0.158c-1.009,1.146-2.18,2.099-3.335,3.063c-1.166,0.952-2.353,1.877-3.567,2.766
			c-2.414,1.794-4.868,3.535-7.398,5.166c-1.262,0.822-2.535,1.625-3.847,2.384c-0.326,0.192-0.657,0.379-0.997,0.556
			c-0.171,0.09-0.332,0.182-0.51,0.27c-0.194,0.078-0.38,0.183-0.582,0.235c-0.797,0.264-1.638,0.299-2.434,0.199
			c-1.599-0.213-3.043-0.882-4.356-1.689c-1.31-0.821-2.502-1.811-3.552-2.944c-0.523-0.568-1.009-1.173-1.434-1.831
			c-0.424-0.657-0.79-1.371-0.985-2.182c-0.089-0.417-0.123-0.83-0.088-1.254c0.035-0.424,0.156-0.861,0.375-1.244
			c0.442-0.782,1.18-1.261,1.863-1.614c1.341-0.703,2.968-1.091,2.994-2.488c0.045-0.333,0.023-0.628-0.104-0.879
			c-0.063-0.133-0.163-0.26-0.283-0.465c-0.126-0.199-0.2-0.531-0.147-0.782c0.102-0.502,0.33-0.816,0.554-1.158
			c0.295-0.411,0.736-0.61,1.135-0.718c0.815-0.206,1.6-0.158,2.366-0.08c0.765,0.086,1.514,0.235,2.253,0.413
			c1.47,0.367,2.931,0.821,4.296,1.465c0.239,0.094,0.629,0.063,0.972,0.007c0.354-0.061,0.709-0.153,1.061-0.262
			c0.702-0.22,1.391-0.502,2.059-0.825c1.33-0.652,2.619-1.434,3.684-2.465L106.487,149.848z"/>
	</g>
	<g>
		<path d="M129.331,157.431c1.662,1.79,3.29,3.633,4.683,5.662c1.392,2.022,2.566,4.234,3.249,6.629
			c0.691,2.387,0.836,4.956,0.36,7.417c-0.233,1.231-0.606,2.432-1.084,3.588c-0.492,1.15-1.09,2.248-1.747,3.308l-0.142,0.228
			h-0.28h-0.001c-2.782-0.044-5.431-0.687-8.048-1.303c-2.615-0.623-5.206-1.341-7.824-1.678c-1.298-0.152-2.637-0.219-3.822,0.142
			c-0.586,0.183-1.108,0.495-1.478,0.95c-0.353,0.473-0.707,1.078-0.991,1.649c-1.161,2.324-1.674,5.038-1.203,7.591
			c0.122,0.632,0.316,1.253,0.618,1.792c0.15,0.267,0.334,0.514,0.549,0.683c0.109,0.078,0.219,0.152,0.334,0.18
			c0.056,0.024,0.113,0.025,0.169,0.032c0.057,0.008,0.161,0.004,0.239,0.007l4.029,0.061l8.055,0.117l8.054,0.084
			c2.681,0.003,5.377,0.059,8.044-0.062l0.021,0.239c-2.697,0.16-5.377,0.142-8.065,0.177l-8.058,0.03l-8.057-0.003l-4.026-0.003
			c-0.09-0.002-0.154,0.005-0.264-0.004c-0.111-0.008-0.222-0.018-0.324-0.055c-0.213-0.056-0.39-0.169-0.552-0.287
			c-0.316-0.246-0.539-0.552-0.721-0.863c-0.362-0.63-0.575-1.307-0.716-1.989c-0.534-2.741-0.018-5.588,1.182-8.065
			c0.31-0.631,0.624-1.2,1.066-1.807c0.474-0.598,1.154-1.003,1.844-1.223c1.399-0.434,2.814-0.353,4.168-0.215
			c2.719,0.324,5.327,1.024,7.939,1.618c2.604,0.59,5.231,1.188,7.835,1.2h0.001l-0.422,0.228c0.657-0.999,1.256-2.035,1.755-3.12
			c0.483-1.09,0.868-2.222,1.12-3.385c0.514-2.326,0.444-4.771-0.162-7.093c-0.598-2.328-1.685-4.522-3.006-6.552
			c-1.321-2.037-2.888-3.911-4.501-5.741L129.331,157.431z"/>
	</g>
	<g>
		<path d="M139.963,160.521c0.477,0.684,0.921,1.395,1.3,2.144c0.384,0.747,0.664,1.545,0.902,2.353
			c0.445,1.627,0.636,3.312,0.725,4.988c0.165,3.36-0.02,6.715-0.245,10.055l-1.089-0.108c0.405-3.302,0.769-6.616,0.786-9.933
			c0.003-1.656-0.094-3.317-0.443-4.936c-0.19-0.804-0.422-1.602-0.761-2.361C140.805,161.962,140.402,161.23,139.963,160.521z"/>
	</g>
	<g>
		<path d="M155.412,172.434c0.036,0.891,0.089,1.784,0.278,2.65c0.186,0.863,0.483,1.699,0.94,2.439
			c0.449,0.747,1.066,1.372,1.739,1.945c0.672,0.575,1.397,1.114,2.082,1.723l-0.441,0.477c-0.636-0.611-1.334-1.173-2.004-1.792
			c-0.67-0.615-1.308-1.31-1.757-2.126c-0.457-0.809-0.735-1.703-0.893-2.6c-0.161-0.901-0.179-1.811-0.181-2.714L155.412,172.434
			L155.412,172.434z"/>
	</g>
	<g>
		<path d="M146.947,180.043c-1.594-0.104-3.224-0.091-4.639,0.428c-0.7,0.268-1.318,0.688-1.793,1.257
			c-0.475,0.568-0.824,1.259-1.057,2.004c-0.241,0.742-0.384,1.527-0.484,2.324c-0.102,0.817-0.21,1.63-0.295,2.438
			c-0.083,0.807-0.146,1.613-0.117,2.398c0.029,0.78,0.156,1.558,0.535,2.151c0.365,0.602,1.022,0.948,1.763,1.091
			c0.372,0.071,0.757,0.094,1.152,0.101l1.232,0.007l4.928,0.028l9.856,0.026l4.928,0.013l2.465,0.007l0.616,0.002h0.077
			c0.01-0.003,0.012-0.004,0.018-0.003c0.012-0.004,0.027-0.009,0.046-0.02c0.04-0.024,0.09-0.071,0.138-0.132
			c0.196-0.257,0.333-0.639,0.438-1.009c0.397-1.528,0.441-3.18,0.297-4.774c-0.165-1.585-0.539-3.205-1.426-4.467
			c-0.441-0.624-1.038-1.112-1.736-1.331c-0.747-0.206-1.568-0.385-2.36-0.546c-1.602-0.323-3.217-0.597-4.835-0.85
			C153.458,180.689,150.202,180.276,146.947,180.043z M147.026,179.015c3.297,0.291,6.559,0.76,9.808,1.313
			c1.624,0.281,3.244,0.584,4.857,0.937c0.813,0.183,1.597,0.357,2.432,0.596c0.876,0.283,1.603,0.906,2.099,1.625
			c0.997,1.461,1.349,3.17,1.511,4.829c0.131,1.672,0.078,3.357-0.366,5.011c-0.127,0.412-0.26,0.825-0.563,1.226
			c-0.081,0.099-0.179,0.198-0.316,0.279c-0.069,0.04-0.15,0.072-0.239,0.091c-0.045,0.006-0.094,0.011-0.135,0.013h-0.077
			l-0.616,0.002l-2.465,0.007l-4.928,0.013l-9.856,0.026l-4.928,0.028l-1.232,0.007c-0.426-0.002-0.863-0.023-1.301-0.102
			c-0.436-0.083-0.877-0.221-1.285-0.456c-0.409-0.231-0.766-0.575-1.022-0.97c-0.515-0.803-0.647-1.713-0.693-2.561
			c-0.041-0.858,0.018-1.695,0.094-2.522c0.078-0.827,0.178-1.645,0.27-2.458c0.096-0.833,0.237-1.674,0.494-2.498
			c0.25-0.822,0.628-1.64,1.197-2.343c0.566-0.706,1.34-1.252,2.169-1.583C143.613,178.864,145.365,178.896,147.026,179.015z"/>
	</g>
	<g>
		<path d="M169.546,112.425c-0.004,2.89-0.699,5.827-2.273,8.296c-0.786,1.227-1.798,2.328-3.031,3.136
			c-1.226,0.809-2.685,1.302-4.175,1.315c-1.489,0-2.958-0.479-4.197-1.281c-1.246-0.8-2.275-1.899-3.076-3.126
			c-1.606-2.47-2.339-5.422-2.363-8.34c0.032-2.917,0.76-5.868,2.367-8.338c0.802-1.227,1.83-2.324,3.076-3.124
			c1.239-0.801,2.706-1.282,4.194-1.279c1.488,0.013,2.946,0.506,4.172,1.314c1.232,0.807,2.244,1.908,3.029,3.134
			C168.845,106.6,169.533,109.535,169.546,112.425z M169.304,112.425c-0.028-2.85-0.759-5.727-2.318-8.109
			c-0.778-1.184-1.771-2.233-2.958-2.991c-1.181-0.759-2.563-1.203-3.96-1.2c-1.397,0.013-2.77,0.468-3.938,1.235
			c-1.173,0.765-2.15,1.818-2.911,3c-1.527,2.381-2.217,5.242-2.229,8.064c0.019,2.823,0.703,5.682,2.231,8.062
			c0.761,1.183,1.738,2.235,2.911,2.999c1.167,0.765,2.538,1.222,3.935,1.233c1.397,0.002,2.777-0.441,3.957-1.2
			c1.186-0.757,2.179-1.806,2.956-2.989C168.542,118.149,169.265,115.274,169.304,112.425z"/>
	</g>
	<g>
		<path d="M169.457,112.425c-0.007,2.551-0.624,5.14-2.014,7.315c-0.694,1.08-1.588,2.049-2.674,2.76
			c-1.081,0.711-2.366,1.143-3.675,1.154c-1.31,0.002-2.603-0.418-3.695-1.123c-1.097-0.703-2.006-1.67-2.716-2.751
			c-1.42-2.176-2.067-4.78-2.099-7.355c0.032-2.575,0.678-5.179,2.099-7.355c0.709-1.081,1.617-2.047,2.716-2.751
			c1.092-0.705,2.385-1.125,3.695-1.123c1.31,0.011,2.595,0.442,3.675,1.154c1.086,0.71,1.98,1.68,2.674,2.76
			C168.833,107.285,169.45,109.874,169.457,112.425z M169.245,112.425c-0.03-2.515-0.666-5.054-2.041-7.16
			c-0.686-1.046-1.562-1.975-2.61-2.645c-1.043-0.672-2.264-1.067-3.502-1.065c-1.237,0.011-2.45,0.417-3.482,1.096
			c-1.036,0.678-1.898,1.609-2.569,2.654c-1.346,2.105-1.95,4.63-1.956,7.121c0.007,2.49,0.611,5.016,1.956,7.121
			c0.671,1.045,1.533,1.977,2.569,2.654c1.032,0.679,2.244,1.085,3.482,1.096c1.237,0.001,2.458-0.394,3.502-1.065
			c1.048-0.67,1.923-1.599,2.61-2.645C168.579,117.479,169.215,114.94,169.245,112.425z"/>
	</g>
	<g>
		<path d="M168.763,112.425c0.011,1.522-0.341,3.074-1.163,4.389c-0.411,0.653-0.943,1.243-1.597,1.68
			c-0.65,0.437-1.43,0.709-2.231,0.721c-0.8,0.007-1.594-0.245-2.264-0.67c-0.673-0.425-1.234-1.009-1.662-1.667
			c-0.86-1.322-1.256-2.897-1.264-4.453c0.019-1.555,0.406-3.13,1.27-4.449c0.434-0.653,0.991-1.236,1.663-1.66
			c0.668-0.424,1.459-0.676,2.257-0.667c0.798,0.013,1.575,0.283,2.223,0.718c0.652,0.435,1.183,1.024,1.593,1.675
			C168.415,109.354,168.752,110.905,168.763,112.425z M168.632,112.425c-0.012-1.502-0.421-3.01-1.244-4.252
			c-0.806-1.234-2.15-2.179-3.616-2.154c-1.465,0.021-2.755,0.991-3.513,2.221c-0.786,1.235-1.146,2.718-1.149,4.185
			c0.014,1.465,0.365,2.95,1.154,4.181c0.767,1.22,2.045,2.193,3.507,2.211c1.459,0.024,2.799-0.916,3.606-2.147
			C168.204,115.431,168.599,113.924,168.632,112.425z"/>
	</g>
	<g>
		<path d="M168.716,112.425c0.004,1.343-0.312,2.71-1.041,3.865c-0.706,1.142-1.938,2.082-3.364,2.094
			c-1.426,0.009-2.687-0.915-3.418-2.059c-0.753-1.155-1.104-2.535-1.113-3.9c0.018-1.364,0.362-2.743,1.117-3.898
			c0.732-1.142,1.991-2.068,3.414-2.055c1.423,0.015,2.653,0.951,3.358,2.092C168.4,109.716,168.709,111.083,168.716,112.425z
			 M168.602,112.425c-0.013-1.324-0.363-2.658-1.089-3.759c-0.709-1.094-1.896-1.939-3.202-1.922
			c-1.304,0.011-2.463,0.867-3.145,1.958c-0.701,1.099-1.016,2.42-1.018,3.722c0.011,1.301,0.319,2.621,1.022,3.72
			c0.682,1.09,1.838,1.948,3.141,1.955c1.302,0.015,2.488-0.827,3.196-1.919C168.235,115.082,168.578,113.748,168.602,112.425z"/>
	</g>
	<g>
		<path d="M155.291,101.341c0.19-2.163,0.286-4.343,0.317-6.518c0.036-2.177-0.006-4.354-0.174-6.522
			c-0.175-2.163-0.461-4.327-1.052-6.402c-0.303-1.032-0.688-2.045-1.237-2.954c-0.56-0.9-1.297-1.667-2.252-2.136l0.078-0.227
			c1.117,0.288,1.997,1.163,2.587,2.105c0.597,0.957,1.008,2.001,1.335,3.058c0.637,2.124,0.957,4.314,1.166,6.501
			c0.394,4.383,0.334,8.78-0.016,13.161L155.291,101.341z"/>
	</g>
	<g>
		<path d="M148.086,75.94c0.24-0.283,0.552-0.498,0.893-0.635c0.344-0.132,0.705-0.183,1.063-0.209
			c0.717-0.025,1.421,0.077,2.108,0.224c0.686,0.15,1.359,0.337,2.028,0.527c0.678,0.191,1.346,0.442,1.978,0.776
			c0.63,0.336,1.223,0.767,1.711,1.308c0.481,0.545,0.856,1.184,1.114,1.851c0.268,0.666,0.447,1.349,0.628,2.019l0.524,2.022
			c0.674,2.701,1.307,5.412,1.847,8.147c0.276,1.366,0.513,2.743,0.719,4.128c0.09,0.696,0.183,1.392,0.232,2.101
			c0.057,0.707,0.073,1.427-0.023,2.198l-0.947-0.18c0.085-0.608,0.094-1.283,0.052-1.961c-0.032-0.678-0.109-1.362-0.183-2.045
			c-0.174-1.366-0.38-2.734-0.626-4.097c-0.479-2.728-1.053-5.444-1.668-8.148l-0.479-2.023c-0.167-0.673-0.328-1.341-0.568-1.971
			c-0.23-0.633-0.559-1.217-0.986-1.724c-0.433-0.502-0.97-0.913-1.559-1.242c-0.589-0.328-1.225-0.582-1.879-0.782
			c-0.663-0.202-1.326-0.403-1.994-0.564c-0.668-0.158-1.345-0.276-2.02-0.27c-0.335,0.016-0.668,0.054-0.979,0.164
			c-0.307,0.115-0.583,0.295-0.803,0.537L148.086,75.94z"/>
	</g>
	<ellipse class="st13" cx="100.278" cy="113.088" rx="1.407" ry="5.074"/>
	<ellipse class="st14" cx="102.389" cy="119.377" rx="0.703" ry="2.538"/>
	<ellipse class="st15" cx="124.837" cy="111.212" rx="1.824" ry="5.074"/>
	<ellipse class="st16" cx="127.571" cy="117.501" rx="0.912" ry="2.538"/>
	<g>
		<path class="st17" d="M91.905,116.196c2.948-5.787,11.487-21.432,24.939-11.247c1.041-12.068-13.732-14.977-21.639-3.95
			c2.913,0.417,2.913,0.417,2.913,0.417S93.332,102.665,91.905,116.196z"/>
		<g>
			<path d="M91.953,116.035c0.043-0.173,0.016-0.313,0.048-0.409c0.026-0.085,0.134-0.281,0.198-0.421l0.458-0.908
				c0.314-0.602,0.634-1.2,0.971-1.79c0.667-1.185,1.403-2.331,2.198-3.44c1.587-2.211,3.464-4.275,5.789-5.795
				c1.159-0.756,2.433-1.363,3.788-1.719c1.356-0.351,2.783-0.426,4.166-0.238c1.388,0.177,2.712,0.649,3.95,1.248l0.912,0.482
				c0.295,0.175,0.577,0.371,0.866,0.555c0.587,0.354,1.103,0.808,1.648,1.215l0.001,0.001l-0.268,0.119
				c0.119-2.53-0.432-5.137-1.991-7.08c-1.554-1.922-3.933-3.101-6.411-3.262c-2.475-0.204-4.999,0.407-7.206,1.598
				c-2.239,1.157-4.133,2.919-5.729,4.907l0,0l-0.112-0.263l2.942,0.214l0,0h2.343l-2.301,0.726c-0.22,0.069-0.535,0.248-0.78,0.435
				c-0.262,0.185-0.502,0.412-0.735,0.644c-0.227,0.241-0.45,0.486-0.646,0.759c-0.214,0.258-0.39,0.546-0.571,0.829
				c-0.713,1.148-1.252,2.41-1.704,3.702c-0.206,0.653-0.414,1.308-0.587,1.972c-0.152,0.67-0.343,1.332-0.463,2.011
				c-0.119,0.665-0.272,1.381-0.364,2.006C92.274,114.744,92.086,115.341,91.953,116.035z M91.858,116.356
				c0.04-0.678,0.028-1.455,0.117-2.219c0.084-0.748,0.215-1.39,0.32-2.091c0.104-0.688,0.281-1.364,0.419-2.047
				c0.16-0.678,0.355-1.35,0.548-2.022c0.43-1.331,0.95-2.644,1.669-3.869c0.185-0.304,0.363-0.611,0.585-0.894
				c0.202-0.296,0.437-0.569,0.679-0.838c0.25-0.262,0.509-0.519,0.807-0.742c0.304-0.229,0.583-0.428,1.021-0.579l0.042,0.726l0,0
				l-2.884-0.618l-0.289-0.062l0.177-0.201l0,0c0.717-1.084,1.554-2.093,2.489-3.012c0.941-0.912,2.004-1.705,3.147-2.362
				c2.293-1.289,4.972-2.011,7.644-1.772c2.651,0.214,5.294,1.489,6.903,3.665c0.806,1.074,1.341,2.332,1.617,3.625
				c0.267,1.297,0.3,2.625,0.142,3.919l-0.036,0.296l-0.231-0.177l-0.001-0.001c-1.124-0.736-2.262-1.442-3.48-1.972
				c-1.215-0.53-2.49-0.899-3.786-1.063c-2.604-0.332-5.245,0.428-7.451,1.859c-2.22,1.434-4.07,3.414-5.69,5.536
				c-0.81,1.067-1.55,2.188-2.264,3.327c-0.356,0.571-0.697,1.151-1.032,1.735l-0.494,0.883l-0.271,0.479
				C92.15,116.068,91.969,116.229,91.858,116.356z"/>
		</g>
	</g>
	<g>
		<path class="st18" d="M113.421,127.047c-2.324-0.771-5.437-2.22-8.741-2.047c-6.226,0.326-9.71,4.702-12.204,9.235
			c-2.4,4.36-9.568,3.513-9.568,3.513s8.997,7.832,15.176,2.486c3.519-3.045,5.279-3.168,8.591-2.4s3.592,1.682,6.549,2.086
			c3.138,0.43,10.144-3.785,13.408-3.016c4.938,1.163,11.568,8.676,25.947,3.144c-18.582-5.624-12.957-10.333-20.767-14.053
			C122.737,121.673,117.917,128.54,113.421,127.047z"/>
		<path d="M113.27,127.504c-1.439-0.493-2.807-1.053-4.218-1.453c-1.404-0.401-2.845-0.664-4.275-0.601
			c-1.442,0.061-2.874,0.36-4.194,0.935c-1.323,0.569-2.528,1.397-3.59,2.389c-1.067,0.989-1.994,2.136-2.818,3.357
			c-0.413,0.61-0.802,1.239-1.173,1.88c-0.18,0.311-0.37,0.664-0.612,0.982c-0.229,0.324-0.508,0.608-0.793,0.879
			c-1.182,1.063-2.693,1.604-4.18,1.874c-1.5,0.264-3.018,0.297-4.522,0.126h-0.001l0.096-0.217c1.186,0.962,2.49,1.798,3.849,2.496
			c1.362,0.691,2.799,1.252,4.29,1.517c1.484,0.264,3.026,0.227,4.427-0.275c0.696-0.257,1.346-0.628,1.935-1.078
			c0.287-0.224,0.583-0.474,0.88-0.733c0.299-0.252,0.604-0.498,0.92-0.734c0.628-0.474,1.3-0.91,2.042-1.239
			c0.74-0.332,1.562-0.518,2.377-0.538c0.817-0.025,1.614,0.092,2.383,0.245c0.766,0.155,1.534,0.342,2.287,0.59
			c0.753,0.247,1.481,0.577,2.175,0.876c0.693,0.296,1.392,0.507,2.128,0.637c1.415,0.339,2.878-0.136,4.337-0.572
			c1.455-0.465,2.898-1.015,4.377-1.498c0.741-0.24,1.488-0.47,2.26-0.644c0.771-0.173,1.566-0.308,2.403-0.261
			c0.876,0.064,1.6,0.376,2.335,0.674c0.725,0.312,1.421,0.66,2.108,1.016c1.372,0.713,2.734,1.411,4.147,1.989
			c2.817,1.169,5.861,1.768,8.916,1.664c3.057-0.077,6.081-0.801,8.968-1.854l0.002-0.001l0.009,0.235
			c-3.576-1.05-7.158-2.215-10.437-4.106c-1.626-0.951-3.146-2.167-4.333-3.668c-1.197-1.493-2.063-3.149-3.437-4.301
			c-0.676-0.583-1.442-1.061-2.246-1.477c-0.805-0.415-1.651-0.767-2.513-1.033c-1.724-0.546-3.548-0.726-5.333-0.479
			c-1.793,0.231-3.509,0.875-5.244,1.556c-0.874,0.332-1.759,0.68-2.718,0.896C115.336,127.782,114.267,127.828,113.27,127.504z
			 M113.572,126.591c0.785,0.256,1.646,0.24,2.507,0.042c0.862-0.188,1.722-0.516,2.59-0.842c1.731-0.668,3.541-1.343,5.46-1.579
			c1.913-0.257,3.886-0.049,5.71,0.541c0.916,0.289,1.797,0.661,2.645,1.105c0.85,0.441,1.662,0.981,2.389,1.626
			c0.724,0.649,1.339,1.412,1.871,2.191c0.537,0.78,1.026,1.56,1.586,2.279c1.105,1.448,2.523,2.631,4.092,3.588
			c3.134,1.943,6.665,3.23,10.193,4.388l0.347,0.114l-0.338,0.121l-0.002,0.001c-2.876,1.138-5.915,1.956-9.037,2.12
			c-3.12,0.188-6.276-0.407-9.179-1.554c-1.454-0.569-2.853-1.261-4.231-1.95c-0.691-0.34-1.375-0.686-2.07-0.979
			c-0.686-0.279-1.42-0.568-2.093-0.604c-0.708-0.038-1.452,0.085-2.182,0.255c-0.733,0.169-1.462,0.397-2.188,0.637
			c-1.453,0.483-2.893,1.041-4.376,1.525c-0.742,0.24-1.498,0.461-2.285,0.612c-0.394,0.073-0.8,0.127-1.22,0.131
			c-0.207,0.004-0.431-0.015-0.637-0.042c-0.196-0.033-0.393-0.059-0.588-0.098c-0.783-0.142-1.568-0.388-2.293-0.705
			c-0.721-0.317-1.399-0.63-2.112-0.871c-0.712-0.241-1.446-0.425-2.19-0.582c-0.741-0.154-1.482-0.265-2.211-0.248
			c-1.461,0.011-2.832,0.667-4.052,1.563c-0.629,0.44-1.172,0.927-1.819,1.42c-0.642,0.477-1.353,0.869-2.11,1.136
			c-1.525,0.525-3.174,0.531-4.711,0.21c-1.546-0.316-3.001-0.931-4.37-1.669c-1.366-0.749-2.655-1.621-3.842-2.633l-0.311-0.265
			l0.407,0.048h0.001c1.471,0.098,2.971-0.007,4.401-0.331c1.426-0.324,2.799-0.926,3.835-1.894c0.247-0.251,0.49-0.508,0.684-0.801
			c0.204-0.283,0.361-0.595,0.549-0.933c0.365-0.66,0.749-1.31,1.162-1.946c0.822-1.272,1.761-2.484,2.866-3.552
			c1.099-1.071,2.395-1.959,3.814-2.585c1.419-0.629,2.96-0.96,4.501-1.035c1.563-0.078,3.104,0.198,4.569,0.606
			C110.775,125.561,112.181,126.126,113.572,126.591z"/>
	</g>
	<g>
		<path class="st10" d="M157.081,123.436c-0.546,0.546-19.334,20.671-19.334,20.671l-17.356,2.845l-0.707,1.635l18.517-3.007
			c0,0,19.866-20.876,20.308-21.318C158.949,123.821,157.628,122.889,157.081,123.436z"/>
		<path d="M157.23,123.586l-19.36,20.637l-0.04,0.043l-0.057,0.009l0,0l-17.37,2.755l0.059-0.046v0.001l-0.745,1.618l-0.039-0.051
			h0.001l18.491-3.161l-0.109,0.057l0.001-0.001l10.889-11.445l5.445-5.722l2.722-2.861l0.681-0.715l0.34-0.358
			c0.102-0.111,0.272-0.272,0.245-0.275c0.015-0.035-0.036-0.158-0.131-0.25c-0.092-0.096-0.212-0.179-0.338-0.239
			C157.661,123.456,157.365,123.44,157.23,123.586z M156.931,123.286c0.163-0.165,0.401-0.235,0.603-0.229
			c0.206,0.005,0.393,0.061,0.562,0.142c0.17,0.082,0.326,0.189,0.462,0.329c0.125,0.14,0.282,0.326,0.239,0.626
			c-0.018,0.144-0.152,0.272-0.19,0.31l-0.17,0.179L158.096,125l-0.682,0.715l-2.725,2.857l-5.449,5.714l-10.899,11.428
			l-0.001,0.001l-0.046,0.048l-0.063,0.01l-18.541,2.852h-0.001l-0.065,0.013l0.026-0.063l0.668-1.651v-0.001l0.016-0.039
			l0.043-0.007l17.341-2.935l0,0l-0.096,0.052L156.931,123.286z"/>
	</g>
	<g>
		
			<ellipse transform="matrix(0.9965 -0.0834 0.0834 0.9965 -11.8383 10.5223)" class="st12" cx="120.025" cy="146.958" rx="6.303" ry="5.209"/>
		<path d="M126.546,146.407c0.172,1.602-0.588,3.2-1.758,4.256c-1.169,1.081-2.717,1.693-4.287,1.829
			c-1.571,0.12-3.194-0.229-4.534-1.086c-1.338-0.838-2.354-2.296-2.455-3.907c-0.117-1.614,0.692-3.157,1.869-4.151
			c1.171-1.024,2.685-1.589,4.211-1.709c1.527-0.112,3.1,0.198,4.427,1.001C125.34,143.421,126.392,144.802,126.546,146.407z
			 M126.092,146.445c-0.085-1.444-0.995-2.764-2.231-3.555c-1.237-0.809-2.771-1.13-4.248-1.005
			c-1.476,0.145-2.92,0.719-4.009,1.712c-1.083,0.983-1.759,2.428-1.605,3.861c0.138,1.438,1.084,2.68,2.303,3.416
			c1.223,0.755,2.708,1.038,4.141,0.92c1.432-0.129,2.843-0.657,3.933-1.592C125.466,149.282,126.192,147.889,126.092,146.445z"/>
	</g>
	<g>
		<path class="st17" d="M151.949,114.118c-7.901-7.508-17.163-20.986-29.959-10.019c0-11.374,12.948-20.311,26.912-2.778
			c-2.031-0.406-3.656,1.219-3.656,1.219S148.939,105.724,151.949,114.118z"/>
		<path d="M152.02,114.227c-0.295-0.214-0.709-0.502-0.985-0.789l-0.814-0.786l-1.607-1.589c-1.07-1.059-2.123-2.132-3.203-3.173
			c-2.165-2.069-4.425-4.066-6.99-5.563c-1.282-0.74-2.646-1.337-4.071-1.683c-1.423-0.343-2.903-0.447-4.353-0.241
			c-1.449,0.206-2.857,0.695-4.178,1.364c-1.314,0.682-2.563,1.507-3.743,2.43l-0.001,0.001l-0.205,0.154l-0.009-0.252
			c-0.111-3.182,0.836-6.485,2.911-9.019c2.032-2.548,5.308-4.146,8.603-4.033c1.641,0.038,3.251,0.419,4.753,1.018
			c1.506,0.598,2.918,1.405,4.198,2.372c2.591,1.899,4.77,4.272,6.677,6.804l0.199,0.264l-0.326-0.057l0,0
			c-0.319-0.032-0.638-0.05-0.951,0.007c-0.312,0.05-0.619,0.132-0.908,0.262c-0.29,0.125-0.567,0.279-0.826,0.459
			c-0.255,0.178-0.51,0.39-0.707,0.599l-0.002,0.002l-0.018-0.49c0.858,0.826,1.529,1.724,2.184,2.66
			c0.644,0.937,1.219,1.914,1.754,2.911c0.538,0.995,1.01,2.023,1.458,3.058c0.224,0.517,0.423,1.046,0.635,1.568
			C151.72,113.042,151.872,113.699,152.02,114.227z M151.878,114.01c-0.251-0.523-0.49-0.92-0.67-1.411
			c-0.227-0.512-0.439-1.03-0.677-1.536c-0.475-1.012-0.974-2.014-1.534-2.98c-0.558-0.967-1.154-1.911-1.81-2.807
			c-0.657-0.885-1.374-1.77-2.159-2.481l-0.28-0.254l0.262-0.237l0.004-0.003c0.287-0.247,0.571-0.432,0.881-0.606
			c0.307-0.169,0.631-0.309,0.966-0.413c0.334-0.109,0.684-0.166,1.032-0.185c0.35-0.027,0.699,0.028,1.036,0.098l0,0l-0.127,0.207
			c-1.048-1.181-2.088-2.366-3.244-3.431c-1.124-1.097-2.342-2.091-3.62-2.984c-2.552-1.76-5.499-3.082-8.572-3.122
			c-3.053-0.069-6.072,1.31-8.031,3.685c-1.015,1.151-1.789,2.518-2.309,3.977c-0.541,1.454-0.83,3.004-0.904,4.572l-0.214-0.098
			l0.001-0.001c1.128-1.007,2.326-1.957,3.668-2.696c1.33-0.753,2.795-1.307,4.329-1.532c1.529-0.237,3.11-0.155,4.605,0.228
			c1.499,0.374,2.915,1.008,4.232,1.778c2.643,1.55,4.902,3.612,7.034,5.741c1.068,1.067,2.108,2.158,3.134,3.258l1.55,1.639
			l0.784,0.809C151.504,113.467,151.634,113.699,151.878,114.01z"/>
	</g>
	<g>
		<path d="M108.983,143.077c1.844-1.956,4.414-3.038,6.995-3.37c2.6-0.34,5.235,0.033,7.69,0.834l-0.129,0.401
			c-2.422-0.733-4.992-1.034-7.479-0.653c-2.471,0.371-4.868,1.463-6.52,3.296L108.983,143.077z"/>
	</g>
	<g>
		<path class="st19" d="M174.217,136.772c0,0,3.451-12.152-0.858-20.003c3.134,3.065,4.735,4.973,4.735,4.973
			s1.786-11.388-8.934-22.267c3.29,0.834,7.998,2.803,7.998,2.803s-4.548-14.265-18.143-22.053c-0.43-0.452-0.583-1.072-0.873-1.606
			c-0.287-0.529-0.73-0.863-1.185-1.296c-0.187-0.178-0.376-0.357-0.595-0.491c-0.26-0.16-0.555-0.251-0.847-0.341
			c-0.467-0.144-1.032-0.231-1.453-0.474c3.947,2.269,6.253,14.907,5.845,24.023c0.446,0,1.774,1.268,1.774,1.268l0.991,4.693
			l1.64,0.607c0,0,3.67,5.594,0.575,11.554c-1.786,0.799-1.786,0.799-1.786,0.799l-1.339,4.308l-1.693,1.676l-1.991-0.235
			l-0.846,0.885l2.017,0.546l-14.801,15.918c-0.73-0.142-1.213,0.16-2.896,0c-0.278,0.403-0.61,0.641-1.065,1.118
			c0.943,0.234,1.78,0.234,2.663,0.191l-4.312,4.791l-0.175-0.047c0.004,0.59,0.248,1.001,0.589,1.351l0.438,0.1l21.513-22.547
			c3.129,5.745,11.674,21.653,11.939,24.559c-2.07,3.404-6.899,10.992-16.186,13.643c0,0,0.898,5.647-1.782,6.961
			c-0.924,0.453-2.081-0.014-2.865-0.614c-0.284-0.217-0.5-0.474-0.733-0.741c-0.016-0.018-0.473-0.513-0.477-0.467
			c-0.056,0.544,0.064,9.591,3.232,10.022c3.173,0.433,3.586,0.57,3.586,0.57s3.162,0.859,2.313,13.797
			c4.504,0,6.297,0.161,6.297,0.161s3.033-9.545-1.767-12.383c-2.968-1.755-4.53-1.096-4.53-1.096
			c-1.237-0.657-2.018-1.575-2.901-2.636c-0.632-0.76-0.98-1.625-1.464-2.467c-0.577-1.003-0.577-2.457-0.676-3.579
			c-0.066-0.749,1.838-0.552,2.287-0.61c0.628-0.08,1.223-0.11,1.858-0.12c1.906-0.03,3.489-1.049,5.017-2.109
			c0.928-0.644,1.483-1.324,1.44-2.492c-0.092-2.513-1.352-3.786-1.352-3.786s14.274-5.327,14.787-9.664
			C179.974,147.624,174.217,136.772,174.217,136.772z"/>
		<path class="st19" d="M156.611,139.455c1.106,1.337,2.19,13.014-8.994,13.479c-6.079,0.253-11.684-0.109-17.04-1.146
			c0.272,2.448,1.3,4.085,2.792,4.855c-0.636,0-2.564-0.382-6.056-1.146c-4.031-0.882-6.71-1.964-9.779-3.457
			c0,0,3.213,3.914,13.191,5.646l-1.782-0.176l1.973,1.859c2.859,0.819,5.399,1.15,9.576,0.635
			c-0.791-1.129-0.791-1.129-0.791-1.129s5.944,1.129,11.258-0.576c0.401-1.682-0.138-0.777,2.623-3.12
			c2.918-1.68,8.017-4.281,11.511-4.983C162.287,146.471,156.611,139.455,156.611,139.455z"/>
		<path class="st19" d="M140.054,160.659c1.64,3.296,2.227,13.171,0.463,18.102c-3.971-1.341-5.912,10.415-4.751,15.865
			c2.49,0,4.488,0,4.488,0s-2.407-0.737-1.87-6.162c0.955-9.658,3.717-8.456,3.717-8.456s0.618-7.55,0.452-11.38
			C142.334,163.549,140.054,160.659,140.054,160.659z"/>
		<path class="st19" d="M91.905,169.747l3.764,0.279c9.654-4.498,20.787-13.852,20.787-13.852l-5.604-2.878
			C109.724,155.635,95.474,168.902,91.905,169.747z"/>
		<path class="st19" d="M151.949,114.118c-2.498-2.973-10.231-10.268-11.457-11.035c-1.546-0.966-6.141-4.192-10.864-3.178
			c-4.681,1.004-6.615,3.366-7.638,4.196C125.564,103.462,133.661,99.905,151.949,114.118z"/>
		<path class="st19" d="M116.844,104.949c0,0-0.821-0.593-4.006-2.365c-3.186-1.772-5.644-0.954-8.437-0.31
			c-2.793,0.644-5.94,4.128-5.94,4.128s0,0.287-0.223,1.94C102.597,104.101,114.452,104.304,116.844,104.949z"/>
	</g>
	<path class="st19" d="M145.199,143.33c1.031-0.016,5.525-1.015,7.635-2.061c-1.772,0.161-4.575,0.499-6.314,0.547
		C144.781,141.865,145.199,143.33,145.199,143.33z"/>
	<path class="st19" d="M119.684,153.297c1.71,0.119,4.124,0.377,7.27-3.76c2.672,0,12.736,0.027,12.736,0.027l-0.417-1.887
		l-0.611,0.436l-11.494-0.042c0,0,0.086-0.033-0.086-0.599c-0.811,0.045-0.811,0.045-0.811,0.045s-0.267,1.576-1,2.336
		c-0.733,0.761-2.155,1.579-2.155,1.579s-1.618,0.987-4.128,0.688s-2.16-0.597-2.16-0.597l0.961,0.934l0.741,0.676L119.684,153.297z
		"/>
	<path class="st19" d="M99.702,140.561c1.434-0.939,2.501-1.603,3.59-1.62c1.509-0.024,3.781,0.514,3.781,0.514l-0.396-1.622
		c0,0-2.288-0.949-3.289-0.377s-3.532,0.674-3.926,1.485C99.067,139.753,99.702,140.561,99.702,140.561"/>
	<path class="st19" d="M123.921,138.917c0.921-0.501,2.085-0.717,3.292-0.199c1.207,0.518,8.038,3.767,11.626,4.219
		c0.595-0.637,0.614-1.054,0.614-1.054s-5.698-1.726-8.205-2.966c-2.505-1.241-4.93-2.527-6.536-2.103s-0.687,0.458-0.687,0.458
		L123.921,138.917z"/>
</g>
<path class="st20" d="M170.238,5.747H43.153c-5.438,0-9.887,4.449-9.887,9.887v51.262c0,5.438,4.449,9.887,9.887,9.887h71.8
	l17.486,15.247c1.646,2.791,4.34,2.791,5.986,0l4.013-15.247h27.8c5.438,0,9.887-4.449,9.887-9.887V15.635
	C180.125,10.197,175.676,5.747,170.238,5.747z"/>
<path class="st4" d="M170.238,0.652H43.153c-5.438,0-9.887,4.449-9.887,9.887v51.262c0,5.438,4.449,9.887,9.887,9.887h71.8
	l17.486,15.247c1.646,2.791,4.34,2.791,5.986,0l4.013-15.247h27.8c5.438,0,9.887-4.449,9.887-9.887V10.54
	C180.125,5.101,175.676,0.652,170.238,0.652z"/>
<g>
	<path d="M81.412,35.05V23.38h1.474l2.316,7.031h0.03V23.38h1.534V35.05h-1.445l-2.346-7.015h-0.03v7.015
		C82.946,35.05,81.412,35.05,81.412,35.05z"/>
	<path d="M88.15,35.05V23.38h4.572v1.573h-3.038v3.426h2.647v1.574h-2.647v3.426h3.038v1.671C92.722,35.05,88.15,35.05,88.15,35.05z
		"/>
	<path d="M93.715,35.05V23.38h4.572v1.573h-3.038v3.426h2.647v1.574h-2.647v3.426h3.038v1.671
		C98.287,35.05,93.715,35.05,93.715,35.05z"/>
	<path d="M99.28,35.05V23.38h2.271c0.882,0,1.551,0.262,2.008,0.787c0.456,0.524,0.684,1.267,0.684,2.229v5.458
		c0,1.092-0.243,1.899-0.729,2.418c-0.486,0.519-1.186,0.778-2.098,0.778H99.28z M100.813,24.954v8.522h0.707
		c0.431,0,0.737-0.117,0.918-0.352s0.271-0.604,0.271-1.107v-5.621c0-0.459-0.085-0.814-0.256-1.065
		c-0.17-0.251-0.481-0.377-0.932-0.377C101.52,24.954,100.813,24.954,100.813,24.954z"/>
	<path d="M108.484,35.05V23.38h1.534v4.999h1.895V23.38h1.534V35.05h-1.534v-5.195h-1.895v5.195
		C110.018,35.05,108.484,35.05,108.484,35.05z"/>
	<path d="M114.891,35.05V23.38h4.572v1.573h-3.038v3.426h2.647v1.574h-2.647v3.426h3.038v1.671
		C119.463,35.05,114.891,35.05,114.891,35.05z"/>
	<path d="M120.456,35.05V23.38h1.534v9.998h3.038v1.671C125.029,35.05,120.456,35.05,120.456,35.05z"/>
	<path d="M126.02,35.05V23.38h2.301c0.42,0,0.792,0.06,1.113,0.18c0.321,0.12,0.611,0.333,0.872,0.639s0.442,0.664,0.541,1.073
		c0.101,0.41,0.15,0.965,0.15,1.664c0,0.524-0.027,0.967-0.082,1.327c-0.055,0.361-0.173,0.699-0.354,1.016
		c-0.21,0.382-0.491,0.68-0.843,0.893c-0.351,0.213-0.812,0.32-1.384,0.32h-0.782v4.556L126.02,35.05L126.02,35.05z M127.555,24.954
		v3.966h0.737c0.311,0,0.551-0.049,0.722-0.147c0.17-0.098,0.296-0.235,0.377-0.41c0.08-0.164,0.127-0.366,0.142-0.606
		c0.015-0.24,0.022-0.508,0.022-0.803c0-0.273-0.005-0.533-0.015-0.778c-0.01-0.246-0.056-0.462-0.136-0.647
		c-0.08-0.186-0.201-0.328-0.361-0.426c-0.161-0.098-0.391-0.147-0.692-0.147L127.555,24.954L127.555,24.954z"/>
	<path d="M65.215,40.256c0-0.47,0.076-0.885,0.226-1.245s0.351-0.661,0.602-0.901c0.241-0.229,0.514-0.404,0.82-0.524
		c0.306-0.12,0.614-0.18,0.925-0.18c0.311,0,0.619,0.06,0.925,0.18c0.305,0.12,0.584,0.295,0.835,0.524
		c0.241,0.24,0.436,0.541,0.587,0.901c0.15,0.361,0.225,0.776,0.225,1.245v0.59h-1.534v-0.59c0-0.404-0.103-0.702-0.308-0.893
		s-0.448-0.287-0.729-0.287c-0.281,0-0.524,0.096-0.729,0.287s-0.308,0.489-0.308,0.893v6.162c0,0.404,0.103,0.702,0.308,0.893
		s0.448,0.287,0.729,0.287c0.28,0,0.524-0.096,0.729-0.287s0.308-0.489,0.308-0.893v-2.195h-1.219v-1.475h2.752v3.671
		c0,0.492-0.076,0.912-0.225,1.262c-0.15,0.35-0.346,0.64-0.587,0.868c-0.251,0.24-0.529,0.421-0.835,0.541
		c-0.306,0.12-0.614,0.18-0.925,0.18s-0.619-0.06-0.925-0.18c-0.306-0.12-0.579-0.3-0.82-0.541
		c-0.251-0.229-0.451-0.519-0.602-0.868c-0.15-0.35-0.226-0.77-0.226-1.262L65.215,40.256L65.215,40.256z"/>
	<path d="M71.712,49.172V37.503h4.572v1.573h-3.038v3.426h2.647v1.573h-2.647V47.5h3.038v1.671L71.712,49.172L71.712,49.172z"/>
	<path d="M78.284,49.172V39.076h-1.775v-1.573h5.084v1.573h-1.775v10.096H78.284z"/>
	<path d="M83.278,49.172V39.076h-1.775v-1.573h5.084v1.573h-1.775v10.096H83.278z"/>
	<path d="M87.308,49.172V37.503h1.534v11.669H87.308z"/>
	<path d="M90.271,49.172V37.503h1.474l2.316,7.031h0.03v-7.031h1.534v11.669h-1.444l-2.346-7.015h-0.03v7.015H90.271z"/>
	<path d="M96.919,40.256c0-0.47,0.076-0.885,0.226-1.245s0.351-0.661,0.602-0.901c0.241-0.229,0.514-0.404,0.82-0.524
		s0.614-0.18,0.925-0.18c0.311,0,0.619,0.06,0.925,0.18c0.305,0.12,0.584,0.295,0.835,0.524c0.241,0.24,0.436,0.541,0.587,0.901
		c0.15,0.361,0.225,0.776,0.225,1.245v0.59h-1.534v-0.59c0-0.404-0.103-0.702-0.308-0.893c-0.205-0.191-0.448-0.287-0.729-0.287
		s-0.524,0.096-0.729,0.287s-0.308,0.489-0.308,0.893v6.162c0,0.404,0.103,0.702,0.308,0.893s0.448,0.287,0.729,0.287
		c0.28,0,0.524-0.096,0.729-0.287c0.205-0.191,0.308-0.489,0.308-0.893v-2.195h-1.219v-1.475h2.752v3.671
		c0,0.492-0.076,0.912-0.225,1.262c-0.15,0.35-0.346,0.64-0.587,0.868c-0.251,0.24-0.529,0.421-0.835,0.541
		c-0.306,0.12-0.614,0.18-0.925,0.18s-0.619-0.06-0.925-0.18c-0.306-0.12-0.579-0.3-0.82-0.541
		c-0.251-0.229-0.451-0.519-0.602-0.868c-0.15-0.35-0.226-0.77-0.226-1.262L96.919,40.256L96.919,40.256z"/>
	<path d="M111.177,40.863h-1.534v-0.377c0-0.382-0.083-0.713-0.248-0.991c-0.165-0.279-0.444-0.418-0.835-0.418
		c-0.211,0-0.381,0.044-0.511,0.131s-0.236,0.197-0.316,0.328c-0.08,0.142-0.136,0.303-0.165,0.483
		c-0.03,0.18-0.045,0.369-0.045,0.565c0,0.229,0.007,0.421,0.023,0.574c0.015,0.153,0.053,0.289,0.113,0.41
		c0.061,0.12,0.148,0.224,0.263,0.311c0.115,0.087,0.273,0.175,0.474,0.262l1.173,0.508c0.341,0.142,0.617,0.309,0.827,0.5
		s0.376,0.412,0.496,0.664c0.11,0.262,0.185,0.56,0.226,0.893c0.04,0.333,0.06,0.713,0.06,1.139c0,0.492-0.045,0.948-0.136,1.368
		c-0.09,0.421-0.236,0.778-0.436,1.073c-0.211,0.306-0.487,0.547-0.827,0.721c-0.341,0.175-0.757,0.262-1.248,0.262
		c-0.371,0-0.717-0.071-1.038-0.213c-0.321-0.142-0.597-0.339-0.827-0.59s-0.414-0.543-0.548-0.877
		c-0.136-0.333-0.203-0.696-0.203-1.09v-0.623h1.534v0.524c0,0.306,0.083,0.582,0.248,0.828c0.165,0.246,0.444,0.369,0.835,0.369
		c0.261,0,0.463-0.041,0.609-0.123c0.145-0.082,0.258-0.199,0.339-0.352c0.08-0.153,0.127-0.336,0.143-0.549
		c0.015-0.213,0.022-0.451,0.022-0.713c0-0.306-0.01-0.557-0.03-0.754s-0.06-0.355-0.121-0.475c-0.07-0.12-0.163-0.218-0.278-0.295
		c-0.115-0.076-0.268-0.158-0.459-0.246l-1.098-0.492c-0.662-0.295-1.105-0.686-1.331-1.172c-0.225-0.486-0.339-1.095-0.339-1.828
		c0-0.437,0.055-0.852,0.166-1.245c0.11-0.393,0.276-0.732,0.496-1.016c0.211-0.284,0.479-0.511,0.804-0.68
		c0.325-0.169,0.715-0.254,1.166-0.254c0.381,0,0.729,0.076,1.045,0.229c0.316,0.154,0.589,0.356,0.82,0.606
		c0.461,0.524,0.692,1.125,0.692,1.803V40.863z"/>
	<path d="M113.327,49.172V39.076h-1.775v-1.573h5.084v1.573h-1.775v10.096H113.327z"/>
	<path d="M115.794,49.172l2.392-11.669h1.279l2.392,11.669h-1.534l-0.451-2.508h-2.09l-0.451,2.508H115.794z M119.584,45.091
		l-0.752-4.228h-0.03l-0.752,4.228H119.584z"/>
	<path d="M122.607,49.172V37.503h2.467c1.806,0,2.707,1.142,2.707,3.426c0,0.688-0.098,1.273-0.294,1.754
		c-0.196,0.481-0.54,0.868-1.03,1.163l1.654,5.326h-1.624l-1.429-4.982h-0.917v4.982H122.607z M124.141,39.076v3.639h0.872
		c0.271,0,0.486-0.041,0.646-0.123c0.161-0.082,0.286-0.199,0.377-0.352c0.08-0.153,0.136-0.341,0.166-0.565
		c0.03-0.224,0.045-0.483,0.045-0.778s-0.016-0.554-0.045-0.778c-0.03-0.224-0.09-0.418-0.181-0.582
		c-0.19-0.306-0.551-0.459-1.083-0.459L124.141,39.076L124.141,39.076z"/>
	<path d="M129.752,49.172V39.076h-1.775v-1.573h5.083v1.573h-1.775v10.096H129.752z"/>
	<path d="M133.736,49.172V37.503h4.573v1.573h-3.038v3.426h2.647v1.573h-2.647V47.5h3.038v1.671L133.736,49.172L133.736,49.172z"/>
	<path d="M139.301,49.172V37.503h2.271c0.882,0,1.551,0.262,2.008,0.787c0.456,0.524,0.684,1.267,0.684,2.229v5.458
		c0,1.092-0.243,1.899-0.729,2.418c-0.486,0.519-1.187,0.778-2.098,0.778H139.301z M140.836,39.076v8.522h0.706
		c0.431,0,0.738-0.117,0.918-0.352c0.18-0.235,0.271-0.604,0.271-1.107v-5.621c0-0.459-0.085-0.814-0.256-1.065
		s-0.481-0.377-0.933-0.377C141.542,39.076,140.836,39.076,140.836,39.076z"/>
	<path d="M145.469,40.863v-0.968c0-0.339,0.06-0.661,0.18-0.967c0.12-0.306,0.286-0.574,0.497-0.803
		c0.21-0.218,0.456-0.393,0.737-0.524c0.281-0.131,0.581-0.197,0.903-0.197c0.371,0,0.709,0.082,1.015,0.246
		c0.306,0.164,0.559,0.393,0.76,0.688c0.1,0.153,0.182,0.292,0.248,0.418c0.065,0.126,0.117,0.265,0.158,0.418
		c0.07,0.273,0.105,0.662,0.105,1.164c0,0.284-0.002,0.522-0.007,0.713c-0.005,0.191-0.018,0.358-0.038,0.5
		c-0.02,0.142-0.045,0.265-0.076,0.369c-0.03,0.104-0.07,0.199-0.12,0.287l-1.038,1.934c-0.07,0.131-0.13,0.265-0.18,0.401
		c-0.05,0.137-0.076,0.281-0.076,0.434v1.311h-1.534v-1.524c0-0.24,0.036-0.47,0.106-0.688c0.07-0.218,0.16-0.432,0.271-0.639
		l0.963-1.705c0.079-0.142,0.133-0.295,0.158-0.459c0.024-0.164,0.038-0.328,0.038-0.492v-0.868c0-0.229-0.073-0.426-0.219-0.59
		c-0.145-0.164-0.323-0.246-0.534-0.246c-0.18,0-0.356,0.071-0.526,0.213c-0.17,0.142-0.256,0.35-0.256,0.623v0.951h-1.534V40.863z
		 M147.003,49.172V47.5h1.534v1.671L147.003,49.172L147.003,49.172z"/>
</g>
</svg>
