<?xml version="1.0" encoding="utf-8"?>
<!-- Generator: Adobe Illustrator 23.0.4, SVG Export Plug-In . SVG Version: 6.00 Build 0)  -->
<svg version="1.1" id="Layer_1" xmlns="http://www.w3.org/2000/svg" xmlns:xlink="http://www.w3.org/1999/xlink" x="0px" y="0px"
	 viewBox="0 0 50 50" style="enable-background:new 0 0 50 50;" xml:space="preserve">
<style type="text/css">
	.st0{fill:#4FC5DD;}
</style>
<g>
	<path class="st0" d="M31.202,18.207c-1.053,0-1.861,0.378-2.422,1.136c-0.561,0.757-0.842,1.866-0.842,3.327v4.648
		c0,1.476,0.283,2.594,0.848,3.356c0.565,0.761,1.371,1.142,2.417,1.142c1.076,0,1.905-0.378,2.484-1.136
		c0.581-0.757,0.871-1.878,0.871-3.362V22.67c0-1.461-0.292-2.57-0.876-3.327C33.097,18.586,32.271,18.207,31.202,18.207z"/>
	<path class="st0" d="M33.536,2.236H16.464c-7.825,0-14.227,6.402-14.227,14.227v17.073c0,7.825,6.402,14.227,14.227,14.227h17.073
		c7.825,0,14.227-6.402,14.227-14.227V16.464C47.764,8.639,41.361,2.236,33.536,2.236z M24.172,31.009
		c-0.384,0.677-1.009,1.284-1.874,1.822c-0.865,0.538-1.97,0.808-3.315,0.808c-1.76,0-3.179-0.535-4.255-1.603
		c-1.076-1.069-1.614-2.591-1.614-4.567v-4.981c0-1.946,0.511-3.452,1.533-4.521c1.023-1.068,2.38-1.603,4.071-1.603
		c1.714,0,3.025,0.433,3.933,1.298c0.907,0.865,1.392,2.077,1.453,3.639l-0.023,0.069h-2.215c-0.038-1.053-0.313-1.854-0.824-2.404
		c-0.511-0.55-1.274-0.824-2.289-0.824c-1.023,0-1.83,0.368-2.422,1.103c-0.592,0.735-0.888,1.804-0.888,3.205v5.014
		c0,1.432,0.317,2.524,0.952,3.275c0.634,0.75,1.497,1.126,2.589,1.126c0.799,0,1.42-0.136,1.863-0.409
		c0.442-0.273,0.771-0.621,0.986-1.044v-3.817h-2.872v-1.695h5.213C24.172,24.898,24.172,31.009,24.172,31.009z M36.887,27.318
		c0,1.991-0.515,3.542-1.545,4.654c-1.03,1.111-2.41,1.667-4.14,1.667c-1.707,0-3.065-0.555-4.072-1.667
		c-1.007-1.111-1.51-2.662-1.51-4.654v-4.613c0-1.983,0.506-3.536,1.517-4.659c1.01-1.123,2.365-1.683,4.065-1.683
		c1.722,0,3.1,0.561,4.134,1.683c1.035,1.123,1.551,2.676,1.551,4.659V27.318z"/>
</g>
</svg>
