<?xml version="1.0" encoding="utf-8"?>
<!-- Generator: Adobe Illustrator 23.0.4, SVG Export Plug-In . SVG Version: 6.00 Build 0)  -->
<svg version="1.1" id="Layer_1" xmlns="http://www.w3.org/2000/svg" xmlns:xlink="http://www.w3.org/1999/xlink" x="0px" y="0px"
	 viewBox="0 0 50 50" style="enable-background:new 0 0 50 50;" xml:space="preserve">
<style type="text/css">
	.st0{fill:#FFFFFF;}
</style>
<g id="zA5apw_1_">
	<g>
		<path class="st0" d="M24.927,40.028c-3.922,0-7.843,0.001-11.765,0c-1.209,0-1.674-0.463-1.674-1.662
			c0-2.607,0.009-5.214-0.005-7.822c-0.006-1.122,0.451-1.98,1.352-2.624c1.354-0.968,2.704-1.941,4.06-2.907
			c1.03-0.734,1.879-0.536,2.737,0.384c1.024,1.098,2.102,2.17,3.283,3.09c1.269,0.989,2.679,0.906,4.041,0.029
			c1.346-0.867,2.421-2.01,3.404-3.253c0.608-0.769,1.561-0.967,2.378-0.4c1.6,1.112,3.187,2.245,4.741,3.421
			c0.654,0.495,0.959,1.234,0.959,2.074c0,2.717,0.004,5.433-0.002,8.15c-0.002,1.025-0.503,1.516-1.547,1.517
			C32.902,40.03,28.914,40.027,24.927,40.028z"/>
		<path class="st0" d="M24.987,25.474c-4.24,0.06-7.79-3.391-7.85-7.629c-0.06-4.295,3.345-7.883,7.536-7.941
			c4.452-0.061,8.001,3.33,8.052,7.693C32.777,21.914,29.34,25.413,24.987,25.474z"/>
		<path class="st0" d="M34.485,21.073c1.353-4.126,0.406-7.652-2.6-10.661c1.888-2.445,5.852-2.948,8.635-1.11
			c2.877,1.9,3.82,5.813,2.127,8.829C41.025,21.02,37.31,22.376,34.485,21.073z"/>
		<path class="st0" d="M17.903,10.407c-3.006,3.008-3.955,6.535-2.619,10.622c-2.056,1.355-6.006,0.195-7.759-2.281
			c-2.079-2.936-1.448-7.052,1.412-9.215C11.697,7.445,15.845,7.842,17.903,10.407z"/>
		<path class="st0" d="M9.046,33.906c-0.236,0.022-0.384,0.048-0.532,0.048c-1.927,0.003-3.853,0.01-5.78,0
			c-0.894-0.005-1.339-0.447-1.343-1.333c-0.009-2.277-0.003-4.554-0.002-6.831c0-0.873,0.359-1.572,1.067-2.072
			c1.216-0.858,2.439-1.706,3.67-2.541c0.881-0.598,1.588-0.44,2.294,0.345c0.715,0.794,1.475,1.555,2.276,2.261
			c0.701,0.619,1.552,0.975,2.634,0.983c-0.188,0.167-0.295,0.279-0.417,0.368c-0.602,0.437-1.217,0.857-1.812,1.303
			c-1.327,0.994-2.039,2.314-2.054,3.985C9.038,31.576,9.046,32.73,9.046,33.906z"/>
		<path class="st0" d="M40.741,33.861c0-1.089-0.021-2.094,0.005-3.098c0.05-1.906-0.72-3.381-2.261-4.483
			c-0.687-0.491-1.354-1.009-2.116-1.579c2.299-0.099,3.569-1.606,4.853-3.066c0.925-1.052,1.544-1.164,2.679-0.366
			c1.092,0.768,2.181,1.54,3.271,2.311c0.769,0.544,1.15,1.268,1.141,2.23c-0.022,2.233-0.004,4.467-0.008,6.7
			c-0.002,0.96-0.391,1.347-1.358,1.349C44.913,33.864,42.879,33.861,40.741,33.861z"/>
	</g>
</g>
</svg>
