<?xml version="1.0" encoding="utf-8"?>
<!-- Generator: Adobe Illustrator 23.0.4, SVG Export Plug-In . SVG Version: 6.00 Build 0)  -->
<svg version="1.1" id="Layer_1" xmlns="http://www.w3.org/2000/svg" xmlns:xlink="http://www.w3.org/1999/xlink" x="0px" y="0px"
	 viewBox="0 0 136 100" style="enable-background:new 0 0 136 100;" xml:space="preserve">
<style type="text/css">
	.st0{fill:#FFFFFF;}
</style>
<g>
	<g>
		<path class="st0" d="M80.658,24.202c-6.477,0-24.123,3.842-24.123,22.341c0,18.5,10.246,19.211,10.246,22.057
			s-0.923,6.831,1.816,9.107c2.739,2.277,21.385,2.277,24.123,0c2.739-2.277,1.816-6.262,1.816-9.107
			c0-2.847,10.246-3.558,10.246-22.057C104.781,28.045,87.136,24.202,80.658,24.202z M80.658,38.643
			c1.418,0,2.567,1.232,2.567,2.753l-0.649,14.037c0,1.521-1.919,1.926-1.919,1.926s-1.924-0.406-1.924-1.926L78.09,41.396
			C78.09,39.876,79.24,38.643,80.658,38.643z M80.658,64.831c-1.493,0-2.704-1.21-2.704-2.704c0-1.493,1.211-2.704,2.704-2.704
			c1.493,0,2.704,1.211,2.704,2.704C83.362,63.62,82.151,64.831,80.658,64.831z"/>
		<path class="st0" d="M68.834,81.998c0,8.384,5.022,8.707,5.022,9.996s-0.452,3.096,0.89,4.127
			c1.342,1.032,5.912,1.032,5.912,1.032s4.57,0,5.912-1.032c1.342-1.032,0.89-2.838,0.89-4.127s5.022-1.612,5.022-9.996
			c0,0-8.69,0.925-11.823,0.925S68.834,81.998,68.834,81.998z"/>
	</g>
	<g>
		<path class="st0" d="M80.658,2.847c-1.064,0-1.926,0.862-1.926,1.926v10.246c0,1.064,0.862,1.926,1.926,1.926
			c1.064,0,1.926-0.862,1.926-1.926V4.773C82.584,3.709,81.722,2.847,80.658,2.847z"/>
		<path class="st0" d="M125.164,44.263h-10.246c-1.064,0-1.926,0.862-1.926,1.926c0,1.064,0.862,1.926,1.926,1.926h10.246
			c1.064,0,1.926-0.862,1.926-1.926C127.089,45.125,126.227,44.263,125.164,44.263z"/>
		<path class="st0" d="M48.324,46.189c0-1.064-0.862-1.926-1.926-1.926H36.152c-1.064,0-1.926,0.862-1.926,1.926
			c0,1.064,0.862,1.926,1.926,1.926h10.246C47.463,48.114,48.324,47.252,48.324,46.189z"/>
		<path class="st0" d="M106.245,23.325l7.245-7.245c0.752-0.752,0.752-1.971,0-2.723s-1.971-0.752-2.723,0l-7.245,7.245
			c-0.752,0.752-0.752,1.971,0,2.723C104.274,24.078,105.493,24.078,106.245,23.325z"/>
		<path class="st0" d="M55.071,69.052l-7.245,7.245c-0.752,0.752-0.752,1.971,0,2.723s1.971,0.752,2.723,0l7.245-7.245
			c0.752-0.752,0.752-1.971,0-2.723S55.824,68.3,55.071,69.052z"/>
		<path class="st0" d="M50.549,13.357c-0.752-0.752-1.971-0.752-2.723,0s-0.752,1.971,0,2.723l7.245,7.245
			c0.752,0.752,1.971,0.752,2.723,0c0.752-0.752,0.752-1.971,0-2.723L50.549,13.357z"/>
		<path class="st0" d="M106.245,69.052c-0.752-0.752-1.971-0.752-2.723,0s-0.752,1.971,0,2.723l7.245,7.245
			c0.752,0.752,1.971,0.752,2.723,0s0.752-1.971,0-2.723L106.245,69.052z"/>
	</g>
</g>
</svg>
