<?xml version="1.0" encoding="utf-8"?>
<!-- Generator: Adobe Illustrator 23.0.4, SVG Export Plug-In . SVG Version: 6.00 Build 0)  -->
<svg version="1.1" id="Layer_1" xmlns="http://www.w3.org/2000/svg" xmlns:xlink="http://www.w3.org/1999/xlink" x="0px" y="0px"
	 viewBox="0 0 98.544 100" style="enable-background:new 0 0 98.544 100;" xml:space="preserve">
<style type="text/css">
	.st0{fill:#FFFFFF;}
</style>
<g>
	<g>
		<path class="st0" d="M49.308,22.644c-6.868,0-25.579,4.074-25.579,23.69c0,19.617,10.865,20.371,10.865,23.389
			s-0.979,7.243,1.926,9.657c2.904,2.414,22.676,2.414,25.579,0c2.904-2.414,1.926-6.64,1.926-9.657
			c0-3.019,10.865-3.773,10.865-23.389C74.888,26.719,56.178,22.644,49.308,22.644z M49.308,37.957c1.504,0,2.722,1.306,2.722,2.919
			l-0.688,14.885c0,1.613-2.035,2.042-2.035,2.042s-2.04-0.431-2.04-2.042l-0.682-14.885C46.585,39.265,47.805,37.957,49.308,37.957
			z M49.308,65.726c-1.583,0-2.867-1.283-2.867-2.867c0-1.583,1.284-2.867,2.867-2.867c1.583,0,2.867,1.284,2.867,2.867
			C52.176,64.442,50.892,65.726,49.308,65.726z"/>
		<path class="st0" d="M36.771,83.93c0,8.89,5.325,9.233,5.325,10.6s-0.479,3.283,0.944,4.376C44.462,100,49.308,100,49.308,100
			s4.846,0,6.269-1.094s0.944-3.009,0.944-4.376s5.325-1.709,5.325-10.6c0,0-9.215,0.981-12.537,0.981
			C45.987,84.911,36.771,83.93,36.771,83.93z"/>
	</g>
	<g>
		<path class="st0" d="M49.308,0c-1.128,0-2.042,0.914-2.042,2.042v10.865c0,1.128,0.914,2.042,2.042,2.042
			c1.128,0,2.042-0.914,2.042-2.042V2.042C51.351,0.914,50.437,0,49.308,0z"/>
		<path class="st0" d="M96.502,43.917H85.637c-1.128,0-2.042,0.914-2.042,2.042c0,1.128,0.914,2.042,2.042,2.042h10.865
			c1.128,0,2.042-0.914,2.042-2.042C98.543,44.831,97.629,43.917,96.502,43.917z"/>
		<path class="st0" d="M15.022,45.959c0-1.128-0.914-2.042-2.042-2.042H2.115c-1.128,0-2.042,0.914-2.042,2.042
			c0,1.128,0.914,2.042,2.042,2.042H12.98C14.109,48,15.022,47.086,15.022,45.959z"/>
		<path class="st0" d="M76.44,21.714l7.682-7.682c0.797-0.797,0.797-2.09,0-2.887c-0.797-0.797-2.09-0.797-2.887,0l-7.682,7.682
			c-0.797,0.797-0.797,2.09,0,2.887C74.35,22.513,75.643,22.513,76.44,21.714z"/>
		<path class="st0" d="M22.177,70.202l-7.682,7.682c-0.797,0.797-0.797,2.09,0,2.887c0.797,0.797,2.09,0.797,2.887,0l7.682-7.682
			c0.797-0.797,0.797-2.09,0-2.887C24.267,69.405,22.975,69.405,22.177,70.202z"/>
		<path class="st0" d="M17.381,11.145c-0.797-0.797-2.09-0.797-2.887,0c-0.797,0.797-0.797,2.09,0,2.887l7.682,7.682
			c0.797,0.797,2.09,0.797,2.887,0c0.797-0.797,0.797-2.09,0-2.887L17.381,11.145z"/>
		<path class="st0" d="M76.44,70.202c-0.797-0.797-2.09-0.797-2.887,0s-0.797,2.09,0,2.887l7.682,7.682
			c0.797,0.797,2.09,0.797,2.887,0c0.797-0.797,0.797-2.09,0-2.887L76.44,70.202z"/>
	</g>
</g>
</svg>
