<?xml version="1.0" encoding="utf-8"?>
<!-- Generator: Adobe Illustrator 23.0.4, SVG Export Plug-In . SVG Version: 6.00 Build 0)  -->
<svg version="1.1" id="Layer_1" xmlns="http://www.w3.org/2000/svg" xmlns:xlink="http://www.w3.org/1999/xlink" x="0px" y="0px"
	 viewBox="0 0 134.071 134.071" style="enable-background:new 0 0 134.071 134.071;" xml:space="preserve">
<style type="text/css">
	.st0{fill:#002B54;}
	.st1{fill:#FFFFFF;}
</style>
<g id="XMLID_1346_">
	<path id="XMLID_1418_" class="st0" d="M67.036,127.232L67.036,127.232c-33.654,0-60.936-27.282-60.936-60.936l0,0
		c0-33.654,27.282-60.936,60.936-60.936h0c33.654,0,60.936,27.282,60.936,60.936l0,0C127.972,99.95,100.69,127.232,67.036,127.232z"
		/>
	<g id="XMLID_1347_">
		<path id="XMLID_1352_" class="st1" d="M67.036,38.904c8.921,0,9.978,0.034,13.501,0.195c3.257,0.149,5.027,0.693,6.205,1.151
			c1.559,0.606,2.673,1.33,3.841,2.499c1.17,1.17,1.893,2.282,2.499,3.841c0.458,1.178,1.002,2.947,1.151,6.205
			c0.16,3.523,0.195,4.579,0.195,13.501c0,8.922-0.035,9.978-0.195,13.501c-0.149,3.258-0.693,5.027-1.151,6.204
			c-0.606,1.56-1.33,2.673-2.499,3.842c-1.169,1.169-2.282,1.893-3.841,2.499c-1.178,0.458-2.947,1.002-6.205,1.151
			c-3.523,0.16-4.579,0.194-13.501,0.194c-8.922,0-9.978-0.034-13.501-0.194c-3.257-0.149-5.027-0.693-6.204-1.151
			c-1.56-0.606-2.673-1.33-3.842-2.499c-1.169-1.169-1.893-2.282-2.499-3.842c-0.457-1.177-1.002-2.946-1.151-6.204
			c-0.16-3.523-0.194-4.579-0.194-13.501c0-8.921,0.034-9.978,0.194-13.501c0.149-3.258,0.694-5.027,1.151-6.205
			c0.606-1.559,1.33-2.672,2.499-3.841c1.169-1.169,2.282-1.893,3.842-2.499c1.177-0.458,2.947-1.002,6.204-1.151
			C57.057,38.938,58.115,38.904,67.036,38.904 M67.036,32.884c-9.074,0-10.212,0.039-13.776,0.201
			c-3.556,0.162-5.985,0.728-8.11,1.553c-2.197,0.854-4.061,1.996-5.918,3.854c-1.858,1.857-3,3.721-3.853,5.918
			c-0.826,2.125-1.392,4.554-1.553,8.11c-0.163,3.564-0.201,4.701-0.201,13.776c0,9.074,0.038,10.212,0.201,13.776
			c0.162,3.556,0.727,5.985,1.553,8.11c0.853,2.197,1.995,4.06,3.853,5.918c1.857,1.857,3.721,3,5.918,3.854
			c2.125,0.825,4.554,1.391,8.11,1.553c3.564,0.162,4.701,0.201,13.776,0.201c9.074,0,10.212-0.038,13.775-0.201
			c3.556-0.162,5.985-0.728,8.11-1.553c2.197-0.854,4.061-1.996,5.918-3.854c1.858-1.858,3-3.721,3.854-5.918
			c0.826-2.125,1.391-4.554,1.553-8.11c0.162-3.564,0.2-4.701,0.2-13.776c0-9.074-0.038-10.212-0.2-13.776
			c-0.162-3.556-0.728-5.985-1.553-8.11c-0.854-2.197-1.996-4.061-3.854-5.918c-1.857-1.858-3.721-3-5.918-3.854
			c-2.125-0.825-4.554-1.391-8.11-1.553C77.247,32.923,76.11,32.884,67.036,32.884"/>
		<path id="XMLID_1349_" class="st1" d="M67.036,49.139c-9.475,0-17.157,7.681-17.157,17.157c0,9.476,7.682,17.157,17.157,17.157
			c9.476,0,17.157-7.682,17.157-17.157C84.193,56.82,76.511,49.139,67.036,49.139 M67.036,77.433
			c-6.151,0-11.137-4.987-11.137-11.137c0-6.151,4.986-11.137,11.137-11.137c6.151,0,11.137,4.986,11.137,11.137
			C78.173,72.446,73.187,77.433,67.036,77.433"/>
		<path id="XMLID_1348_" class="st1" d="M88.88,48.46c0,2.214-1.795,4.01-4.009,4.01c-2.215,0-4.01-1.796-4.01-4.01
			c0-2.214,1.795-4.009,4.01-4.009C87.085,44.451,88.88,46.246,88.88,48.46"/>
	</g>
</g>
</svg>
