<?xml version="1.0" encoding="utf-8"?>
<!-- Generator: Adobe Illustrator 23.0.4, SVG Export Plug-In . SVG Version: 6.00 Build 0)  -->
<svg version="1.1" id="Layer_1" xmlns="http://www.w3.org/2000/svg" xmlns:xlink="http://www.w3.org/1999/xlink" x="0px" y="0px"
	 viewBox="0 0 134.071 134.071" style="enable-background:new 0 0 134.071 134.071;" xml:space="preserve">
<style type="text/css">
	.st0{fill:#BABABA;}
	.st1{fill:#FFFFFF;}
	.st2{fill:#B2BB1C;}
	.st3{fill:#002B54;}
	.st4{fill:#0083A9;}
	.st5{fill:#00394E;}
	.st6{fill:#006887;}
</style>
<path class="st0" d="M105.112,117.576H30.109c-3.441,0-6.241-2.8-6.241-6.241V18.449c0-3.441,2.8-6.241,6.241-6.241h75.003
	c3.441,0,6.241,2.8,6.241,6.241v92.886C111.354,114.776,108.554,117.576,105.112,117.576z M30.109,13.208
	c-2.89,0-5.241,2.351-5.241,5.241v92.886c0,2.89,2.351,5.241,5.241,5.241h75.003c2.89,0,5.241-2.352,5.241-5.241V18.449
	c0-2.89-2.352-5.241-5.241-5.241H30.109z"/>
<path class="st1" d="M105.112,117.075H30.109c-3.158,0-5.741-2.584-5.741-5.741V18.449c0-3.158,2.584-5.741,5.741-5.741h75.004
	c3.158,0,5.741,2.584,5.741,5.741v92.885C110.854,114.492,108.27,117.075,105.112,117.075z"/>
<g>
	<path class="st2" d="M84.561,42.704c0-1.502,0-2.973,0-4.486c2.976,0,5.928,0,8.89,0c0-1.419,0-2.796,0-4.199
		c-0.151,0-0.268,0-0.385,0c-1.559,0-3.118,0.006-4.677-0.006c-0.249-0.002-0.41,0.079-0.574,0.26
		c-2.332,2.576-5.007,4.728-8.028,6.444c-0.237,0.135-0.29,0.29-0.289,0.537c0.008,1.823,0.004,3.647,0.005,5.47
		c0,0.138,0.017,0.276,0.026,0.405c5.025,0,10.001,0,14.994,0c0-1.473,0-2.92,0-4.426C91.177,42.704,87.878,42.704,84.561,42.704z"
		/>
	<path class="st2" d="M42.396,47.148c1.742,0,3.454,0,5.199,0c0-0.635,0-1.25,0-1.975c1.766,1.454,3.728,2.161,5.863,2.432
		c2.042,0.259,4.03,0.044,5.938-0.753c0.349-0.146,0.666-0.368,0.997-0.555c-6.433-0.002-12.406-1.576-17.997-4.703
		C42.396,43.49,42.396,45.318,42.396,47.148z"/>
	<path class="st2" d="M68.623,45.375c-0.013,0.587-0.008,1.175-0.008,1.754c1.779,0,3.489,0,5.215,0c0-1.16,0-2.292,0-3.402
		c-1.706,0.496-3.374,0.98-5.04,1.471C68.721,45.219,68.624,45.313,68.623,45.375z"/>
	<path class="st2" d="M93.961,25.625c-0.028-0.009-0.057-0.017-0.085-0.026c-0.849,1.457-1.697,2.915-2.55,4.38
		c0.893,0,1.761,0,2.635,0C93.961,28.511,93.961,27.068,93.961,25.625z"/>
</g>
<g>
	<path class="st3" d="M62.511,26.813c-0.063,0.017-0.08,0.027-0.088,0.022c-0.069-0.039-0.137-0.079-0.204-0.121
		c-1.743-1.099-3.653-1.645-5.704-1.649c-2.053-0.004-4.029,0.37-5.758,1.557c-1.981,1.36-2.813,3.299-2.67,5.665
		c0.142,2.357,1.402,3.967,3.497,4.924c1.004,0.458,2.069,0.785,3.114,1.15c0.872,0.305,1.765,0.559,2.511,1.134
		c0.475,0.366,0.824,0.819,0.844,1.456c0.038,1.237-0.601,2.066-1.812,2.329c-1.378,0.299-2.693,0.081-3.894-0.63
		c-0.695-0.412-1.317-0.946-1.912-1.382c-0.635,0.634-1.312,1.309-1.986,1.982c-0.011-0.006,0.019,0.018,0.053,0.031
		c4.062,1.538,8.292,2.123,12.608,2.201c0.157,0.003,0.351-0.103,0.471-0.218c1.597-1.539,2.245-4.688,1.411-6.831
		c-0.589-1.513-1.721-2.527-3.14-3.203c-0.96-0.457-1.991-0.764-2.988-1.143c-0.837-0.318-1.694-0.595-2.5-0.978
		c-1.463-0.697-1.315-2.585-0.015-3.32c0.696-0.394,1.452-0.484,2.222-0.425c1.434,0.111,2.628,0.729,3.604,1.84
		c0.758-0.798,1.51-1.59,2.342-2.465c0,0.511,0,0.89,0,1.32c2.043,0,4.055,0,6.102,0c0,4.884,0,9.715,0,14.552
		c0.087,0,0.143,0.013,0.189-0.002c1.565-0.508,3.128-1.024,4.696-1.523c0.314-0.1,0.376-0.281,0.374-0.585
		c-0.019-3.99-0.024-7.98-0.033-11.97c0-0.151,0-0.303,0-0.453c1.915,0,3.76,0,5.661,0c0,3.303,0,6.583,0,9.939
		c2.638-1.685,4.922-3.639,6.997-6.009c-0.725,0-1.327,0-1.936,0c0-1.357,0-2.681,0-4.033c0.173,0,0.316,0,0.46,0
		c1.427,0,2.854-0.007,4.281,0.006c0.257,0.002,0.409-0.074,0.536-0.297c0.484-0.848,0.995-1.681,1.473-2.532
		c0.276-0.49,0.507-1.006,0.768-1.528c-9.887,0-19.72,0-29.575,0C62.511,26.044,62.511,26.425,62.511,26.813z"/>
	<path class="st3" d="M42.382,25.617c-0.007,0.112-0.015,0.189-0.015,0.266c-0.001,4.73-0.003,9.46,0.011,14.189
		c0,0.152,0.141,0.374,0.277,0.444c1.512,0.777,3.036,1.531,4.558,2.287c0.109,0.054,0.231,0.08,0.353,0.121
		c0-5.803,0-11.554,0-17.323c-1.644,0-3.255,0-4.866,0.001C42.61,25.602,42.518,25.61,42.382,25.617z"/>
	<path class="st3" d="M95.704,45.425c-0.492,0.01-0.869,0.404-0.858,0.897c0.011,0.471,0.396,0.846,0.87,0.847
		c0.492,0.001,0.877-0.386,0.874-0.879C96.586,45.796,96.196,45.416,95.704,45.425z M95.726,47.013
		c-0.378,0.004-0.715-0.321-0.721-0.695c-0.006-0.4,0.334-0.742,0.727-0.733c0.378,0.009,0.697,0.338,0.698,0.721
		C96.431,46.691,96.115,47.008,95.726,47.013z"/>
	<path class="st3" d="M95.445,45.815c0,0.347,0,0.648,0,0.949c0.03,0,0.059,0,0.089,0c0.022-0.118,0.044-0.236,0.075-0.404
		c0.164,0.179,0.287,0.314,0.385,0.422c0.037-0.245,0.099-0.433,0.082-0.614c-0.011-0.123-0.106-0.289-0.209-0.339
		C95.743,45.77,95.57,45.815,95.445,45.815z"/>
</g>
<g>
	<circle class="st0" cx="95.477" cy="56.353" r="0.902"/>
	<circle class="st0" cx="90.44" cy="56.353" r="0.902"/>
	<circle class="st0" cx="85.403" cy="56.353" r="0.902"/>
	<circle class="st0" cx="80.366" cy="56.353" r="0.902"/>
	<circle class="st0" cx="75.329" cy="56.353" r="0.902"/>
	<circle class="st0" cx="70.292" cy="56.353" r="0.902"/>
	<circle class="st0" cx="65.255" cy="56.353" r="0.902"/>
	<circle class="st0" cx="60.218" cy="56.353" r="0.902"/>
	<circle class="st0" cx="55.181" cy="56.353" r="0.902"/>
	<circle class="st0" cx="50.144" cy="56.353" r="0.902"/>
	<circle class="st0" cx="45.107" cy="56.353" r="0.902"/>
	<circle class="st0" cx="40.07" cy="56.353" r="0.902"/>
	<circle class="st0" cx="35.033" cy="56.353" r="0.902"/>
	<circle class="st0" cx="100.514" cy="56.353" r="0.902"/>
</g>
<g>
	<path class="st4" d="M44.537,65.207c0.59-0.121,1.434-0.188,2.238-0.188c1.247,0,2.051,0.228,2.614,0.737
		c0.456,0.402,0.711,1.019,0.711,1.715c0,1.193-0.751,1.984-1.703,2.305v0.04c0.697,0.242,1.112,0.885,1.327,1.823
		c0.295,1.261,0.509,2.131,0.697,2.48h-1.206c-0.147-0.255-0.349-1.032-0.603-2.158c-0.268-1.247-0.75-1.717-1.81-1.757h-1.099
		v3.914h-1.166V65.207z M45.703,69.321h1.193c1.247,0,2.038-0.684,2.038-1.716c0-1.166-0.845-1.675-2.078-1.689
		c-0.563,0-0.965,0.054-1.153,0.107V69.321z"/>
	<path class="st4" d="M51.744,71.09c0.027,1.595,1.046,2.252,2.225,2.252c0.844,0,1.354-0.148,1.796-0.335l0.201,0.845
		c-0.415,0.188-1.126,0.402-2.158,0.402c-1.997,0-3.19-1.313-3.19-3.271c0-1.957,1.153-3.498,3.043-3.498
		c2.118,0,2.681,1.862,2.681,3.056c0,0.241-0.027,0.429-0.04,0.549H51.744z M55.202,70.246c0.014-0.75-0.308-1.917-1.635-1.917
		c-1.193,0-1.716,1.099-1.809,1.917H55.202z"/>
	<path class="st4" d="M60.721,74.12l-0.093-0.818h-0.04c-0.362,0.509-1.059,0.965-1.984,0.965c-1.314,0-1.984-0.925-1.984-1.863
		c0-1.568,1.394-2.426,3.9-2.413v-0.135c0-0.535-0.147-1.501-1.474-1.501c-0.603,0-1.233,0.188-1.689,0.482l-0.268-0.777
		c0.536-0.349,1.313-0.576,2.131-0.576c1.984,0,2.466,1.353,2.466,2.654v2.426c0,0.563,0.027,1.113,0.107,1.555H60.721z
		 M60.546,70.809c-1.287-0.027-2.747,0.201-2.747,1.461c0,0.763,0.509,1.125,1.112,1.125c0.844,0,1.38-0.535,1.568-1.085
		c0.04-0.121,0.067-0.255,0.067-0.376V70.809z"/>
	<path class="st4" d="M68.518,64.604v7.841c0,0.577,0.013,1.233,0.053,1.675h-1.059l-0.054-1.126h-0.027
		c-0.362,0.724-1.153,1.274-2.212,1.274c-1.568,0-2.774-1.327-2.774-3.298c-0.014-2.158,1.327-3.484,2.908-3.484
		c0.992,0,1.662,0.469,1.957,0.991h0.027v-3.873H68.518z M67.339,70.273c0-0.148-0.014-0.349-0.054-0.496
		c-0.174-0.75-0.818-1.367-1.702-1.367c-1.22,0-1.944,1.073-1.944,2.507c0,1.314,0.643,2.399,1.917,2.399
		c0.791,0,1.514-0.522,1.729-1.407c0.04-0.161,0.054-0.321,0.054-0.509V70.273z"/>
	<path class="st4" d="M71.115,65.81c0.013,0.402-0.282,0.724-0.751,0.724c-0.415,0-0.71-0.322-0.71-0.724
		c0-0.416,0.308-0.737,0.737-0.737C70.833,65.073,71.115,65.394,71.115,65.81z M69.801,74.12v-6.488h1.18v6.488H69.801z"/>
	<path class="st4" d="M72.266,69.388c0-0.67-0.013-1.219-0.054-1.756h1.046l0.067,1.073h0.027c0.321-0.617,1.072-1.219,2.145-1.219
		c0.898,0,2.292,0.535,2.292,2.76v3.874h-1.179v-3.74c0-1.046-0.389-1.917-1.501-1.917c-0.777,0-1.381,0.549-1.582,1.206
		c-0.054,0.147-0.08,0.349-0.08,0.549v3.9h-1.18V69.388z"/>
	<path class="st4" d="M79.688,71.09c0.027,1.595,1.045,2.252,2.225,2.252c0.844,0,1.354-0.148,1.796-0.335l0.201,0.845
		c-0.415,0.188-1.126,0.402-2.158,0.402c-1.997,0-3.19-1.313-3.19-3.271c0-1.957,1.153-3.498,3.043-3.498
		c2.118,0,2.681,1.862,2.681,3.056c0,0.241-0.027,0.429-0.04,0.549H79.688z M83.145,70.246c0.014-0.75-0.308-1.917-1.635-1.917
		c-1.193,0-1.716,1.099-1.809,1.917H83.145z"/>
	<path class="st4" d="M84.912,72.913c0.349,0.228,0.965,0.469,1.555,0.469c0.858,0,1.26-0.429,1.26-0.965
		c0-0.563-0.335-0.871-1.206-1.192c-1.166-0.416-1.716-1.06-1.716-1.837c0-1.045,0.845-1.903,2.238-1.903
		c0.657,0,1.233,0.187,1.595,0.402l-0.295,0.858c-0.255-0.161-0.724-0.376-1.327-0.376c-0.697,0-1.086,0.403-1.086,0.885
		c0,0.536,0.389,0.777,1.233,1.099c1.126,0.429,1.703,0.992,1.703,1.958c0,1.139-0.885,1.943-2.426,1.943
		c-0.71,0-1.367-0.174-1.823-0.442L84.912,72.913z"/>
	<path class="st4" d="M89.547,72.913c0.349,0.228,0.965,0.469,1.555,0.469c0.858,0,1.26-0.429,1.26-0.965
		c0-0.563-0.335-0.871-1.206-1.192c-1.166-0.416-1.716-1.06-1.716-1.837c0-1.045,0.845-1.903,2.238-1.903
		c0.657,0,1.233,0.187,1.595,0.402l-0.295,0.858c-0.255-0.161-0.724-0.376-1.327-0.376c-0.697,0-1.086,0.403-1.086,0.885
		c0,0.536,0.389,0.777,1.233,1.099c1.126,0.429,1.703,0.992,1.703,1.958c0,1.139-0.885,1.943-2.426,1.943
		c-0.71,0-1.367-0.174-1.823-0.442L89.547,72.913z"/>
</g>
<g>
	<path class="st4" d="M13.12,77.142c0,0,24.396,10.659,54.491,10.659c17.618,0,33.282-3.653,43.243-6.682
		c7.054-2.145,11.248-3.977,11.248-3.977v19.569c0,0-24.396,10.659-54.491,10.659S13.12,96.711,13.12,96.711v-6.276V77.142z"/>
	<g>
		<path class="st5" d="M110.854,71.574v9.546c7.054-2.145,11.248-3.977,11.248-3.977L110.854,71.574z"/>
		<path class="st5" d="M24.367,81.12v-9.546L13.12,77.142C13.12,77.142,17.313,78.974,24.367,81.12z"/>
	</g>
	<g>
		<path class="st1" d="M22.892,93.53c0.427,0.44,1.1,0.889,1.879,1.088c1.155,0.295,1.986-0.143,2.211-1.025
			c0.209-0.818-0.139-1.404-1.204-2.16c-1.298-0.871-1.992-1.836-1.677-3.069c0.348-1.363,1.736-2.088,3.436-1.653
			c0.896,0.228,1.492,0.602,1.825,0.922l-0.547,0.842c-0.246-0.229-0.763-0.637-1.555-0.84c-1.194-0.305-1.831,0.293-1.983,0.891
			c-0.209,0.818,0.221,1.356,1.308,2.131c1.334,0.948,1.904,1.855,1.576,3.14c-0.345,1.35-1.643,2.263-3.706,1.736
			c-0.844-0.216-1.702-0.697-2.09-1.128L22.892,93.53z"/>
		<path class="st1" d="M29.776,93.598c-0.334,1.559,0.511,2.429,1.659,2.694c0.822,0.191,1.352,0.162,1.825,0.078l0.005,0.868
			c-0.447,0.089-1.187,0.137-2.192-0.095c-1.945-0.45-2.81-1.998-2.369-3.904c0.442-1.905,1.911-3.146,3.752-2.72
			c2.063,0.477,2.191,2.418,1.922,3.58c-0.054,0.235-0.123,0.412-0.163,0.526L29.776,93.598z M33.334,93.555
			c0.182-0.728,0.132-1.936-1.161-2.235c-1.161-0.269-1.918,0.683-2.194,1.459L33.334,93.555z"/>
		<path class="st1" d="M37.843,98.465l0.073-0.819l-0.039-0.008c-0.457,0.426-1.232,0.732-2.137,0.546
			c-1.287-0.265-1.756-1.306-1.568-2.225c0.316-1.535,1.854-2.095,4.306-1.576l0.027-0.132c0.108-0.524,0.158-1.5-1.141-1.767
			c-0.591-0.121-1.245-0.064-1.751,0.133L35.507,91.8c0.595-0.233,1.402-0.3,2.203-0.135c1.943,0.4,2.143,1.822,1.881,3.096
			l-0.489,2.375c-0.113,0.551-0.198,1.095-0.208,1.545L37.843,98.465z M38.34,95.188c-1.255-0.286-2.731-0.357-2.986,0.876
			c-0.154,0.748,0.272,1.205,0.862,1.327c0.827,0.17,1.46-0.247,1.755-0.748c0.064-0.109,0.117-0.235,0.141-0.354L38.34,95.188z"/>
		<path class="st1" d="M41.837,89.55l1.159,0.215l-1.731,9.35L40.106,98.9L41.837,89.55z"/>
		<path class="st1" d="M52.806,97.551c-0.324,2.375-2.111,3.186-3.664,2.974c-1.739-0.236-2.905-1.694-2.628-3.725
			c0.293-2.15,1.872-3.219,3.65-2.976C52.009,94.076,53.074,95.587,52.806,97.551z M47.7,96.923
			c-0.192,1.407,0.473,2.579,1.614,2.735c1.115,0.151,2.094-0.783,2.292-2.23c0.148-1.088-0.207-2.543-1.588-2.73
			C48.638,94.509,47.867,95.701,47.7,96.923z"/>
		<path class="st1" d="M53.509,100.911l0.554-5.559l-0.906-0.091l0.089-0.893l0.906,0.091l0.03-0.306
			c0.091-0.906,0.373-1.713,0.971-2.178c0.482-0.383,1.086-0.498,1.632-0.444c0.413,0.042,0.764,0.171,0.981,0.287l-0.25,0.891
			c-0.165-0.097-0.399-0.188-0.732-0.221c-1-0.099-1.34,0.755-1.439,1.742l-0.035,0.347l1.56,0.155l-0.089,0.893l-1.56-0.155
			l-0.554,5.558L53.509,100.911z"/>
		<path class="st1" d="M60.477,98.62l-1.024,2.81l-1.205-0.036l3.342-8.93l1.406,0.043l2.804,9.118l-1.245-0.038l-0.877-2.868
			L60.477,98.62z M63.463,97.8l-0.804-2.625c-0.183-0.595-0.3-1.134-0.418-1.66l-0.027-0.001c-0.15,0.531-0.314,1.076-0.505,1.619
			l-0.963,2.584L63.463,97.8z"/>
		<path class="st1" d="M66.46,92.029l1.178-0.028l0.228,9.506l-1.178,0.028L66.46,92.029z"/>
		<path class="st1" d="M70.236,93.099c0.031,0.401-0.249,0.735-0.718,0.757c-0.415,0.018-0.724-0.29-0.742-0.691
			c-0.018-0.415,0.275-0.75,0.704-0.769C69.922,92.375,70.218,92.684,70.236,93.099z M69.295,101.458l-0.29-6.48l1.178-0.052
			l0.29,6.48L69.295,101.458z"/>
		<path class="st1" d="M77.024,94.444c0.01,0.47,0.024,0.993,0.086,1.781l0.295,3.754c0.117,1.483-0.106,2.415-0.69,3.026
			c-0.582,0.637-1.475,0.895-2.29,0.96c-0.775,0.061-1.645-0.059-2.193-0.365l0.223-0.918c0.449,0.233,1.135,0.421,1.937,0.358
			c1.202-0.094,2.035-0.791,1.906-2.422l-0.057-0.721l-0.027,0.003c-0.313,0.629-0.97,1.165-1.973,1.244
			c-1.603,0.126-2.859-1.147-3-2.936c-0.172-2.191,1.159-3.546,2.642-3.663c1.122-0.088,1.783,0.451,2.106,0.963l0.027-0.002
			l-0.023-0.979L77.024,94.444z M76.009,97.091c-0.016-0.2-0.043-0.373-0.109-0.529c-0.268-0.664-0.886-1.18-1.741-1.113
			c-1.122,0.088-1.849,1.1-1.731,2.596c0.1,1.269,0.824,2.274,2.093,2.174c0.721-0.057,1.34-0.563,1.535-1.331
			c0.051-0.206,0.06-0.435,0.044-0.635L76.009,97.091z"/>
		<path class="st1" d="M78.365,96.069c-0.079-0.665-0.157-1.209-0.26-1.736l1.037-0.122l0.193,1.056l0.027-0.004
			c0.247-0.649,0.92-1.336,1.985-1.462c0.891-0.106,2.337,0.263,2.599,2.471l0.456,3.844l-1.17,0.138l-0.44-3.711
			c-0.123-1.038-0.611-1.857-1.715-1.726c-0.771,0.092-1.305,0.708-1.427,1.383c-0.036,0.153-0.039,0.356-0.015,0.555l0.459,3.87
			l-1.17,0.139L78.365,96.069z"/>
		<path class="st1" d="M84.996,95.286c-0.105-0.662-0.205-1.202-0.328-1.725l1.019-0.162l0.217,1.023l0.04-0.007
			c0.26-0.665,0.765-1.329,1.824-1.497c0.873-0.138,1.618,0.286,2.016,0.995l0.027-0.004c0.142-0.389,0.349-0.706,0.582-0.948
			c0.337-0.351,0.735-0.577,1.344-0.675c0.847-0.135,2.191,0.221,2.544,2.444l0.599,3.77l-1.138,0.18l-0.576-3.624
			c-0.196-1.231-0.763-1.9-1.702-1.75c-0.662,0.105-1.1,0.677-1.208,1.276c-0.028,0.167-0.034,0.385,0,0.597l0.628,3.955
			l-1.137,0.181l-0.61-3.836c-0.162-1.019-0.729-1.689-1.616-1.547c-0.727,0.116-1.164,0.782-1.257,1.393
			c-0.039,0.182-0.034,0.385-0.002,0.584l0.614,3.862l-1.138,0.181L84.996,95.286z"/>
		<path class="st1" d="M96.376,95.115c0.325,1.561,1.448,2.015,2.606,1.793c0.829-0.158,1.301-0.398,1.7-0.665l0.356,0.791
			c-0.373,0.262-1.03,0.606-2.043,0.799c-1.96,0.374-3.377-0.691-3.744-2.612c-0.367-1.921,0.476-3.65,2.331-4.004
			c2.078-0.396,2.98,1.327,3.204,2.497c0.045,0.237,0.054,0.426,0.063,0.548L96.376,95.115z M99.612,93.639
			c-0.128-0.739-0.662-1.823-1.964-1.575c-1.171,0.223-1.478,1.4-1.417,2.22L99.612,93.639z"/>
		<path class="st1" d="M101.463,92.396c-0.14-0.654-0.268-1.189-0.42-1.704l1.022-0.219l0.29,1.034l0.026-0.006
			c0.185-0.67,0.792-1.417,1.84-1.641c0.877-0.188,2.351,0.045,2.817,2.218l0.81,3.785l-1.153,0.247l-0.782-3.654
			c-0.219-1.022-0.78-1.792-1.867-1.56c-0.76,0.163-1.234,0.826-1.293,1.51c-0.021,0.155-0.006,0.357,0.036,0.553l0.816,3.812
			l-1.153,0.247L101.463,92.396z"/>
		<path class="st1" d="M109.233,86.978l0.422,1.814l1.645-0.382l0.203,0.875l-1.645,0.382l0.793,3.407
			c0.182,0.783,0.507,1.176,1.147,1.027c0.3-0.07,0.513-0.161,0.647-0.234l0.253,0.849c-0.2,0.143-0.538,0.291-0.982,0.393
			c-0.535,0.124-1.005,0.055-1.352-0.194c-0.406-0.264-0.654-0.797-0.826-1.541l-0.802-3.446l-0.979,0.228l-0.203-0.875l0.979-0.228
			l-0.352-1.514L109.233,86.978z"/>
	</g>
	<g>
		<polygon class="st6" points="7.711,81.12 3.892,91.074 13.12,90.435 13.12,77.142 24.367,71.574 3.892,71.574 		"/>
		<polygon class="st6" points="131.329,71.574 110.854,71.574 122.101,77.142 122.101,90.435 131.329,91.074 127.51,81.12 		"/>
	</g>
</g>
</svg>
