<?xml version="1.0" encoding="utf-8"?>
<!-- Generator: Adobe Illusyrator 23.0.4, SVG Export Plug-In . SVG Version: 6.00 Build 0)  -->
<svg version="1.1" id="karate-otis-container" xmlns="http://www.w3.org/2000/svg" xmlns:xlink="http://www.w3.org/1999/xlink" x="0px" y="0px"
	 viewBox="0 0 500 500" syyle="enable-background:new 0 0 500 500;" xml:space="preserve">
<style type="text/css">
	.sy0{fill:#92ACB2;}
	.sy1{fill:#E2BEAE;}
	.sy2{fill:#8B3D6E;}
	.sy3{fill:#F6F5EC;}
	.sy4{fill:#FFF360;}
	.sy5{fill:#EC509C;}
	.sy6{fill:#FFFFFF;}
	.sy7{fill:#A9E0F7;}
	.sy8{fill:#310940;}
	.sy9{fill:#282827;}
	.sy10{fill:#50B848;}
	.sy11{fill:none;}
	.sy12{opacity:0.4;}
</style>
<g id="karate-otis">
	<g>
		<path class="sy0" d="M244.706,375.433c-13.039-13.758-6.158-22.498-9.309-41.09c0,0,2.389,1.645,4.747,1.541
			c-2.196-3.594-4.543-7.822-3.76-13.848l3.36,1.679c0,0-3.96-13.595,12.392-26.411l0.266,6.548c0,0,5.536-19.065,43.446-19.499
			c-3.223,3.221-4.06,6.949-4.06,6.949s17.833-10.753,36.374,12.136c-3.845-1.17-6.591,0.079-6.591,0.079s16.886,6.915,16.9,24.247
			l-2.818,0.77c0,0,10.504,9.56,7.171,25.157c0,0-17.806-2.197-30.354,0.903s-44.773,8.647-46.623,9.47
			S244.706,375.433,244.706,375.433z"/>
	</g>
	<g>
		<path class="sy1" d="M298.857,390.291c-0.162,0.148-0.303,0.313-0.418,0.498c-0.447,0.716-0.465,1.609-0.463,2.452
			c0.014,5.527,0.323,11.054,0.926,16.549c0.01,0.092,0.023,0.191,0.086,0.261c0.385,0.421,1.823-0.152,2.37,0.003
			c0.988,0.279,1.789,1.101,2.172,2.038c0.532,1.3,0.44,2.759,0.375,4.163c-0.197,4.242-0.067,8.5,0.387,12.722
			c-4.182,0.031-8.365,0.063-12.547,0.094c-3.969,0.03-7.943,0.265-11.874,0.836c-1.242,0.179-3.854,0.961-5.061,0.58
			c-1.143-0.361-2.201-3.24-2.625-4.768c-0.356-1.281-0.484-2.867-0.645-4.185c-0.219-1.791-0.316-3.617-0.116-5.414
			c0.081-0.726,0.097-1.458,0.18-2.179c0.086-0.75,0.18-1.816,0.507-2.498c0.232-0.484,0.689-0.831,1.183-1.04
			c0.538-0.227,1.064-0.281,1.633-0.321c0.542-0.039,1.06-0.246,1.604-0.305c1.158-0.126,2.594,0.064,2.997-1.311
			c0.426-1.452,0.753-2.936,0.993-4.43c0.058-0.358,0.241-0.655,0.362-0.986c0.151-0.413,0.359-0.8,0.38-1.243
			c0.028-0.584,0.018-1.187,0.011-1.772c-0.018-1.611-0.219-3.221-0.599-4.787c-0.497-2.045-1.538-3.652-2.319-5.538
			c-0.714-1.723-0.35-3.64-1.127-5.41c-0.642-1.462-1.669-2.717-2.458-4.105c-5.008-8.81,7.919-15.904,15.195-16.05
			c3.894-0.078,7.785-0.254,11.258-2.197c2.096-1.173,3.711-3.257,6.015-4.076c4.607-1.637,11.033,0.156,15.726,0.761
			c3.434,0.443,6.773,1.102,10.247,1.478c0.6,0.065,1.211,0.13,1.805,0.02c0.62-0.115,1.188-0.413,1.752-0.694
			c4.032-2.006,8.401-3.197,12.804-4.048c0-1.847,1.048-7.89,3.212-8.052c1.914-0.143,3.809-0.148,5.688-0.468
			c2.026-0.345,4.094-1.23,6.161-1.213c3.689,0.029,6.592,1.931,6.834,5.5c0.164,2.41,0.059,4.823,0.14,7.234
			c0.083,2.478,0.389,4.941,0.566,7.412c0.082,1.152,0.028,2.319,0.096,3.459c0.035,0.585,0.232,1.186,0.292,1.777
			c0.055,0.543,0.085,1.087,0.117,1.632c0.035,0.601,0.067,1.202,0.133,1.801c0.049,0.448,0.244,0.866,0.267,1.304
			c0.028,0.53-0.032,1.063,0.007,1.597c0.013,0.176,0.03,0.356-0.009,0.528s-0.147,0.34-0.313,0.401
			c-0.071,0.026-0.148,0.032-0.223,0.037c-0.483,0.032-0.944-0.006-1.421-0.006c-0.542,0-1.09,0.187-1.635,0.227
			c-1.195,0.087-2.397-0.042-3.59,0.081c-1.564,0.161-3.128,0.322-4.692,0.483c-1.3,0.134-2.683,0.447-3.977,0.221
			c-0.953-0.167-1.659-0.155-2.246-1.03c-0.487-0.726-0.702-1.596-1.099-2.368c-0.158-0.307-0.338-0.615-0.584-0.861
			c-1.142-1.182-1.913-0.248-3.524,0.188c-2.75,0.741-5.49,1.523-8.244,2.251c-5.618,1.484-11.32,2.772-17.137,3.108
			c-1.66,0.096-3.696-0.289-5.279,0.046c-0.794,0.168-1.461,0.69-2.089,1.204c-1.759,1.439-3.374,3.359-5.24,4.626
			c-1.426,0.968-3.353,1.456-5.002,1.961C304.666,389.114,300.567,388.734,298.857,390.291z"/>
	</g>
	<g>
		<g>
			<path d="M298.138,409.619c-0.338-2.131-0.481-4.26-0.592-6.389c-0.113-2.129-0.114-4.259-0.122-6.391
				c0.012-4.259,0.064-8.557,0.707-12.832l0.99,0.055c0.19,4.245,0.451,8.482,0.541,12.75c0.044,2.132,0.091,4.266,0.01,6.402
				c-0.077,2.135-0.208,4.271-0.542,6.405H298.138z"/>
		</g>
	</g>
	<g>
		<path d="M276.356,375.856c1.729,2.276,3.415,4.766,4.255,7.698c0.834,2.956,0.6,5.854,0.674,8.591
			c0.016,1.396,0.1,2.731,0.178,4.162c0.079,1.421,0.067,2.847-0.046,4.264c-0.233,2.833-0.751,5.637-1.892,8.28l-0.558-0.253
			c0.926-2.554,1.282-5.349,1.337-8.078c0.027-1.372-0.044-2.743-0.201-4.103c-0.153-1.351-0.353-2.794-0.46-4.188
			c-0.254-2.813-0.263-5.602-1.146-8.007c-0.87-2.416-2.51-4.555-4.29-6.589L276.356,375.856z"/>
	</g>
	<g>
		<path d="M303.5,412.421c-0.027-0.36-0.326-0.713-0.74-0.98c-0.408-0.272-0.89-0.483-1.385-0.658
			c-0.997-0.348-2.056-0.577-3.122-0.757c-2.136-0.363-4.322-0.495-6.501-0.547c-4.358-0.082-8.747,0.136-13.003,0.776
			c-1.062,0.159-2.11,0.366-3.12,0.616c-0.979,0.249-2.034,0.596-2.606,1.03c-0.14,0.099-0.207,0.2-0.196,0.193
			c-0.053,0.102-0.14,0.35-0.193,0.552c-0.118,0.435-0.191,0.928-0.239,1.431c-0.095,1.01-0.087,2.072-0.038,3.133
			c0.106,2.128,0.403,4.276,0.79,6.392c0.197,1.057,0.426,2.109,0.706,3.129c0.141,0.508,0.294,1.011,0.469,1.475
			c0.087,0.23,0.182,0.454,0.275,0.633c0.045,0.09,0.094,0.166,0.117,0.197c-0.005,0.051,0.091-0.04-0.391-0.161l-0.18-0.01
			l7.525-0.105l7.526-0.09c2.508-0.043,5.018-0.025,7.527-0.031c2.509-0.005,5.019-0.006,7.529,0.026h0.001l-0.388,0.407
			c-0.004-2.776-0.037-5.552-0.107-8.327C303.694,417.969,303.584,415.196,303.5,412.421z M304.299,412.398
			c0.037,2.777,0.048,5.555,0.107,8.331c0.051,2.777,0.139,5.552,0.256,8.328l0.016,0.389l-0.404,0.018l-0.001,0
			c-2.504,0.181-5.009,0.328-7.514,0.471c-2.505,0.141-5.01,0.308-7.516,0.413l-7.518,0.355l-7.518,0.34l-0.093,0.004l-0.088-0.014
			c-0.377-0.059-0.608-0.233-0.733-0.336c-0.143-0.12-0.228-0.222-0.301-0.314c-0.146-0.187-0.241-0.347-0.325-0.5
			c-0.167-0.307-0.29-0.59-0.404-0.873c-0.224-0.563-0.401-1.112-0.565-1.663c-0.323-1.1-0.583-2.198-0.811-3.303
			c-0.452-2.209-0.752-4.439-0.887-6.712c-0.059-1.139-0.079-2.286,0.024-3.472c0.054-0.594,0.134-1.196,0.299-1.827
			c0.092-0.328,0.169-0.61,0.357-1.003c0.257-0.502,0.594-0.801,0.895-1.028c1.23-0.858,2.354-1.108,3.491-1.415
			c1.132-0.27,2.258-0.434,3.38-0.571c2.243-0.276,4.482-0.331,6.713-0.339c2.231-0.002,4.458,0.1,6.677,0.302
			c2.219,0.204,4.43,0.499,6.625,0.958c1.096,0.238,2.188,0.525,3.254,0.954c0.532,0.219,1.059,0.473,1.553,0.836
			C303.743,411.071,304.274,411.626,304.299,412.398z"/>
	</g>
	<g>
		<g>
			<path d="M353.096,374.84c-2.535,1.344-5.251,2.32-8.006,3.093c-2.757,0.779-5.574,1.282-8.375,1.724
				c-2.803,0.441-5.604,0.775-8.368,1.191c-2.764,0.412-5.5,0.887-8.132,1.749l-0.389-0.913c2.592-1.301,5.399-2.077,8.178-2.696
				c2.789-0.604,5.58-1.059,8.347-1.54c2.769-0.473,5.507-1.009,8.232-1.58c2.727-0.573,5.419-1.253,8.15-1.951L353.096,374.84z"/>
		</g>
	</g>
	<g>
		<path d="M317.387,350.076c2.437,1.796,4.867,3.57,7.418,5.072c2.544,1.495,5.242,2.717,8.094,3.142
			c1.422,0.215,2.871,0.22,4.305,0.018c0.717-0.104,1.427-0.262,2.132-0.453l2.201-0.604l8.8-2.414l0.176,0.587l-8.604,3.024
			l-2.15,0.756c-0.75,0.249-1.514,0.463-2.295,0.621c-1.563,0.309-3.181,0.394-4.777,0.241c-3.207-0.3-6.222-1.488-8.985-2.913
			c-2.775-1.436-5.358-3.119-7.91-4.79L317.387,350.076z"/>
	</g>
	<g>
		<path d="M356.677,379.949c-0.77,0.062-1.381-0.403-1.775-0.835c-0.416-0.45-0.728-0.946-1.006-1.449
			c-0.546-1.011-0.955-2.064-1.315-3.126c-0.704-2.129-1.247-4.293-1.7-6.474c-0.451-2.182-0.804-4.383-1.054-6.6
			c-0.243-2.217-0.441-4.449-0.421-6.708c0.01-1.13,0.045-2.268,0.186-3.423c0.177-1.165,0.299-2.31,1.012-3.629
			c0.192-0.325,0.45-0.693,0.92-1.005c0.369-0.232,0.64-0.34,0.956-0.468c0.608-0.235,1.197-0.382,1.781-0.503
			c1.166-0.236,2.309-0.346,3.447-0.416c2.274-0.122,4.523-0.076,6.769,0.124c1.123,0.102,2.244,0.236,3.373,0.433
			c0.566,0.101,1.132,0.215,1.716,0.374c0.293,0.081,0.589,0.171,0.913,0.302c0.162,0.066,0.331,0.142,0.534,0.266
			c0.1,0.062,0.211,0.135,0.346,0.264c0.117,0.113,0.315,0.322,0.417,0.691l0.024,0.086l0.006,0.093l0.511,7.508l0.496,7.51
			c0.178,2.502,0.295,5.009,0.438,7.515c0.141,2.505,0.277,5.011,0.38,7.519l0,0.001l0.027,0.404l-0.388,0.028
			c-2.771,0.197-5.539,0.423-8.303,0.686C362.202,379.369,359.441,379.672,356.677,379.949z M356.611,379.152
			c2.766-0.23,5.535-0.433,8.299-0.685c2.765-0.244,5.527-0.524,8.286-0.833l-0.36,0.431l0-0.001
			c-0.315-2.491-0.598-4.984-0.876-7.478c-0.276-2.494-0.578-4.986-0.818-7.483l-0.76-7.488l-0.745-7.489l0.03,0.178
			c0.174,0.465,0.253,0.36,0.204,0.371c-0.033-0.019-0.114-0.059-0.209-0.094c-0.188-0.073-0.421-0.142-0.66-0.202
			c-0.481-0.122-0.998-0.217-1.518-0.3c-1.045-0.162-2.116-0.271-3.189-0.348c-2.147-0.146-4.314-0.198-6.44-0.063
			c-1.06,0.07-2.116,0.183-3.108,0.391c-0.494,0.104-0.976,0.233-1.394,0.399c-0.195,0.076-0.432,0.189-0.527,0.254
			c0.005-0.012-0.087,0.066-0.17,0.216c-0.366,0.617-0.592,1.705-0.73,2.706c-0.135,1.032-0.223,2.097-0.26,3.17
			c-0.155,4.301,0.124,8.687,0.697,13.008c0.298,2.159,0.675,4.316,1.278,6.398c0.299,1.039,0.646,2.066,1.105,3.017
			c0.231,0.472,0.494,0.927,0.81,1.302C355.866,378.909,356.251,379.166,356.611,379.152z"/>
	</g>
	<g>
		<g>
			<path class="sy0" d="M253.108,377.546c1.235,2.704,16.979,17.295,32.076,16.536c-1.417-2.133-1.841-3.099-1.841-3.099
				s13.83,6.37,36.555-4.896c-1.815-0.192-3.643-0.865-3.643-0.865s15.271-8.442,18.18-20.965
				c3.369-14.502-18.201-3.521-18.201-3.521l-53.605,8.758L253.108,377.546z"/>
		</g>
		<g>
			<path d="M253.414,377.615c0.064,0.023,0.102,0.019,0.115,0.042l0.143,0.206c0.099,0.152,0.225,0.296,0.339,0.444
				c0.24,0.291,0.492,0.577,0.755,0.855c0.524,0.557,1.072,1.097,1.64,1.616c1.131,1.044,2.317,2.031,3.539,2.971
				c2.446,1.877,5.036,3.565,7.74,5.03c2.712,1.445,5.539,2.683,8.479,3.513c2.929,0.854,5.978,1.27,8.987,1.113h0l-0.529,1.049
				c-0.286-0.54-0.564-1.086-0.828-1.639c-0.265-0.558-0.516-1.102-0.736-1.707l0,0l-0.3-0.686l0.718,0.275
				c2.867,1.1,6.039,1.516,9.141,1.628c3.12,0.091,6.25-0.169,9.322-0.73c6.154-1.108,12.074-3.317,17.646-6.144l0.001,0l0.24,1.339
				c-1.31-0.283-2.505-0.731-3.675-1.275l-0.001,0l-0.617-0.223l0.573-0.345c1.878-1.131,3.681-2.434,5.397-3.812
				c1.716-1.383,3.368-2.846,4.886-4.433c3.016-3.168,5.656-6.79,6.995-10.917c0.332-1.024,0.605-2.08,0.727-3.128
				c0.131-1.043,0.122-2.105-0.206-3.012c-0.319-0.911-1.014-1.586-1.94-1.925c-0.919-0.353-1.988-0.421-3.045-0.369
				c-2.132,0.124-4.269,0.688-6.346,1.373c-2.075,0.698-4.128,1.543-6.087,2.502l-0.082,0.04l-0.079,0.013l-26.814,4.309
				c-8.934,1.457-17.885,2.813-26.829,4.215l-0.001,0l0.152-0.07L253.414,377.615z M252.802,377.478l9.624-8.222l0.065-0.056
				l0.087-0.014l0.001,0c8.925-1.517,17.842-3.081,26.775-4.543l26.791-4.449l-0.161,0.053c2.029-1.004,4.091-1.864,6.226-2.594
				c2.134-0.712,4.331-1.314,6.645-1.462c1.153-0.058,2.357-0.008,3.526,0.428c0.579,0.22,1.146,0.544,1.611,1
				c0.464,0.455,0.813,1.021,1.031,1.612c0.43,1.194,0.424,2.423,0.284,3.573c-0.144,1.16-0.44,2.266-0.799,3.351
				c-1.463,4.349-4.2,8.112-7.379,11.272c-3.189,3.18-6.805,5.869-10.721,8.068l-0.043-0.568l0.001,0
				c1.19,0.275,2.433,0.454,3.608,0.454l2.536,0l-2.296,1.339l-0.001,0c-5.729,2.757-11.806,4.883-18.105,5.882
				c-3.144,0.507-6.343,0.706-9.526,0.546c-3.182-0.188-6.357-0.654-9.368-1.882l0.418-0.41l0,0
				c0.296,0.481,0.654,0.976,1.009,1.447c0.358,0.475,0.73,0.942,1.108,1.403l0.777,0.946l-1.306,0.103l0,0
				c-3.199,0.105-6.377-0.4-9.387-1.341c-3.022-0.918-5.889-2.244-8.624-3.769c-2.726-1.546-5.319-3.31-7.761-5.261
				c-1.22-0.977-2.403-2.001-3.532-3.085c-0.566-0.54-1.115-1.1-1.643-1.684c-0.265-0.291-0.52-0.592-0.767-0.905
				c-0.12-0.162-0.246-0.312-0.357-0.488c-0.061-0.095-0.105-0.148-0.179-0.278C252.887,377.799,252.832,377.625,252.802,377.478z"
				/>
		</g>
	</g>
	<g>
		<path class="sy2" d="M261.936,366.315c-2.602,8.162,8.444,20.115,18.158,21.275c-1.159-1.994-0.638-4.999-0.638-4.999
			s9.872,8.026,31.902,0.944c-2.88-0.989-3.514-2.405-3.514-2.405s13.893-5.509,18.523-14.712c-8.44-1.21-9.379-13.484-9.379-13.484
			l-11.535,1.535l-34.452,8.042L261.936,366.315z"/>
	</g>
	<g>
		<path class="sy3" d="M343.175,349.313c-0.363,1.906-1.163,3.754-2.438,5.178c-1.651,1.845-4.41,2.92-6.797,1.927
			c-0.664,0-1.478-1.163-1.796-1.636c-0.504-0.749-0.944-1.256-1.638-1.872c-0.388-0.345-0.8-0.732-0.881-1.245
			c-0.04-0.254,0.007-0.517-0.041-0.769c-0.072-0.378-0.346-0.684-0.634-0.94c-0.72-0.639-1.674-1.254-2.567-1.622
			c-0.732-0.302-1.326-0.457-1.639-1.297c-0.209-0.56-0.201-1.178-0.113-1.769c0.387-0.848,0.805-1.682,1.272-2.489
			c0.194-0.335,0.375-0.69,0.653-0.963c0.263-0.259,0.587-0.435,0.912-0.602c0.312-0.16,0.575-0.427,0.852-0.644
			c0.445-0.348,0.953-0.837,1.525-0.937c0.618-0.108,1.185-0.398,1.763-0.638c0.485-0.201,0.974-0.47,1.473-0.616
			c0.802-0.234,1.607-0.516,2.305-0.987c0.317-0.214,0.669-0.348,1.005-0.539c0.405-0.231,0.806-0.468,1.202-0.715
			c0.633-0.395,1.21-1.031,1.713-1.582c0.024-0.026,0.049-0.054,0.083-0.063c0.036-0.01,0.074,0,0.111,0.004
			c0.141,0.014,0.288-0.076,0.419-0.023c0.046,0.019,0.084,0.054,0.119,0.091c0.365,0.383,0.493,0.925,0.714,1.406
			c0.212,0.461,0.483,0.918,0.737,1.356c0.105,0.181,0.213,0.32,0.266,0.531c0.059,0.235,0.08,0.478,0.142,0.713
			c0.161,0.609,0.403,1.203,0.543,1.832c0.455,2.038,0.911,4.093,0.961,6.181C343.423,347.48,343.349,348.403,343.175,349.313z"/>
	</g>
	<g>
		<path class="sy3" d="M252.153,366.216c-1.508,1.599-3.085,3.127-4.808,4.49c-1.02,0.807-2.122,1.412-3.262,2.017
			c-0.177,0.094-0.367,0.167-0.541,0.266c-0.116,0.066-0.346,0.315-0.481,0.292c-0.027-0.004-0.039-0.034-0.05-0.059
			c-0.088-0.214-0.282-0.31-0.45-0.45c-0.135-0.113-0.197-0.26-0.32-0.382c-0.283-0.28-0.594-0.437-0.792-0.804
			c-0.183-0.34-0.304-0.709-0.468-1.058c-0.203-0.43-0.473-0.825-0.742-1.217c-0.39-0.569-0.779-1.138-1.169-1.707
			c-0.176-0.257-0.377-0.504-0.496-0.792c-0.117-0.281-0.178-0.596-0.314-0.868c-0.239-0.479-0.374-1.047-0.554-1.552
			c-0.19-0.532-0.38-1.064-0.57-1.597c-0.185-0.518-0.179-1.037-0.212-1.585c-0.024-0.399-0.047-0.747-0.166-1.124
			c-0.136-0.431-0.168-1.487,0.433-1.577c0.156-0.024,0.315,0.008,0.47,0.039c0.691,0.136,1.387,0.247,2.086,0.335
			c0.64,0.08,1.255,0.212,1.905,0.263c1.365,0.106,2.762,0.076,4.082-0.324c0.46-0.14,0.908-0.323,1.375-0.437
			c0.294-0.071,0.596-0.102,0.891-0.17c0.21-0.048,0.311-0.158,0.493-0.255c0.316-0.171,0.691-0.199,1.044-0.174
			c0.336,0.024,0.696,0.054,1.025,0.117c0.305,0.059,0.627,0.033,0.936,0.083c0.649,0.105,1.277,0.338,1.846,0.667
			c0.381,0.219,0.787,0.489,1.08,0.821c0.114,0.13,0.165,0.29,0.269,0.426c0.159,0.206,0.371,0.386,0.553,0.572
			c0.15,0.154,0.303,0.312,0.393,0.507c0.117,0.254,0.116,0.55,0.048,0.822c-0.224,0.893-0.891,1.499-1.484,2.166
			C253.531,364.725,252.85,365.478,252.153,366.216z"/>
	</g>
	<g>
		<path d="M244.656,375.75c-0.73-0.667-1.474-1.458-2.021-2.121c-0.601-0.687-1.165-1.408-1.706-2.147
			c-1.083-1.476-2.044-3.054-2.814-4.729c-1.575-3.349-2.225-7.074-2.365-10.721c-0.161-3.658-0.001-7.276-0.107-10.869
			c-0.081-3.594-0.422-7.163-1.051-10.683l-0.396-2.215l1.662,1.408c0.266,0.226,0.614,0.468,0.944,0.677
			c0.337,0.212,0.687,0.405,1.047,0.577c0.72,0.34,1.487,0.582,2.279,0.639h0l-0.259,0.486c-1.34-2.048-2.624-4.203-3.417-6.602
			c-0.81-2.388-1.067-4.979-0.816-7.509l0,0l0.233-1.128l0.848,0.553l3.167,2.065l0,0l-0.45,0.376
			c-0.655-2.58-0.627-5.218-0.237-7.804c0.399-2.586,1.243-5.097,2.408-7.442c2.335-4.708,5.931-8.683,9.96-11.978l0.001,0
			l1.577-1.076l-0.09,1.763l-0.334,6.571l0,0.001l-0.627-0.076c0.705-2.076,1.87-3.864,3.188-5.536
			c1.338-1.653,2.865-3.151,4.535-4.463c3.332-2.648,7.157-4.599,11.12-6.083c7.975-2.925,16.481-3.981,24.9-4.191h0h2.296
			l-1.675,1.474c-0.962,0.846-1.835,1.821-2.572,2.905c-0.734,1.077-1.371,2.274-1.786,3.503l0,0.001l-0.477-0.344
			c3.127-1.738,6.634-2.546,10.169-2.713c3.542-0.145,7.105,0.51,10.415,1.779c3.325,1.256,6.378,3.138,9.152,5.328
			c2.78,2.192,5.263,4.73,7.522,7.433l0,0l2.057,2.713l-3.045-1.246c-0.96-0.393-1.982-0.658-3.035-0.761
			c-0.527-0.051-1.06-0.055-1.592-0.019c-0.527,0.037-1.079,0.122-1.561,0.266l-0.001,0l-0.011-0.587
			c2.448,1.043,4.695,2.423,6.801,4.023c2.091,1.611,4.016,3.465,5.631,5.585c1.621,2.112,2.93,4.484,3.814,7.021
			c0.894,2.534,1.327,5.226,1.394,7.913l0,0.001l-0.104,0.788l-0.531,0.044l-2.96,0.247l-0.001,0l0.131-0.545
			c1.699,1.605,3.083,3.448,4.283,5.424c1.192,1.976,2.146,4.103,2.823,6.322c1.379,4.439,1.54,9.24,0.643,13.815l0,0.002
			l-0.138,0.718l-0.754-0.083c-8.367-0.916-16.919-1.181-25.266-0.133c-2.093,0.304-4.106,0.703-6.197,1.214
			c-2.082,0.476-4.167,0.916-6.254,1.343c-4.174,0.852-8.354,1.649-12.536,2.436c-8.355,1.592-16.758,3.024-25.065,4.731
			c-0.498,0.118-1.067,0.224-1.458,0.39c-0.46,0.215-0.936,0.464-1.406,0.703l-2.822,1.48l-5.628,3.002l-5.619,3.021l-2.808,1.515
			l-1.403,0.758l-0.702,0.379l-0.351,0.19l-0.211,0.112C244.888,375.689,244.766,375.727,244.656,375.75z M244.756,375.117
			c0.007-0.041,0.001-0.067,0.007-0.078c-0.013,0.001,0.097-0.055,0.139-0.08l0.349-0.193l0.699-0.385l1.397-0.77l2.796-1.537
			l5.596-3.067l5.607-3.049l2.817-1.507c0.476-0.247,0.94-0.495,1.442-0.735c0.59-0.247,1.08-0.323,1.612-0.461
			c8.341-1.811,16.699-3.33,25.039-5.015c4.17-0.833,8.337-1.675,12.49-2.571c2.076-0.449,4.148-0.91,6.208-1.405
			c2.036-0.525,4.195-0.971,6.31-1.294c8.54-1.141,17.124-0.944,25.66-0.086l-0.892,0.635l0-0.002
			c1.004-4.308,1.023-8.862-0.144-13.165c-0.571-2.151-1.416-4.235-2.502-6.191c-1.084-1.947-2.396-3.818-3.947-5.393l-0.395-0.401
			l0.526-0.145l0.001,0l2.674-1.293l-0.635,0.832l0-0.001c0.023-2.518-0.292-5.048-1.049-7.458
			c-0.748-2.413-1.905-4.701-3.385-6.775c-1.473-2.08-3.268-3.937-5.247-5.574c-1.983-1.622-4.166-3.064-6.477-4.144l-0.661-0.309
			l0.649-0.279l0.001,0c0.553-0.282,1.095-0.462,1.669-0.612c0.57-0.145,1.155-0.246,1.747-0.296
			c1.183-0.099,2.393-0.014,3.575,0.236l-0.988,1.467l0,0c-2.117-2.687-4.448-5.211-7.063-7.399
			c-2.61-2.186-5.486-4.076-8.632-5.369c-3.133-1.307-6.522-2.033-9.933-1.994c-3.388,0.053-6.859,0.761-9.861,2.319l-0.644,0.334
			l0.166-0.678l0-0.001c0.272-1.396,0.76-2.697,1.39-3.961c0.63-1.259,1.43-2.445,2.373-3.528l0.62,1.474h0
			c-8.295,0.027-16.669,0.888-24.52,3.578c-3.901,1.366-7.669,3.187-10.961,5.69c-1.651,1.239-3.163,2.661-4.494,4.234
			c-1.306,1.574-2.488,3.339-3.174,5.223l-0.569,1.563l-0.058-1.639v-0.001l-0.866-6.522l1.487,0.687l-0.001,0
			c-4.003,3.021-7.588,6.691-9.995,11.102c-1.2,2.197-2.102,4.567-2.582,7.033c-0.475,2.448-0.589,5.045-0.074,7.462l0.145,0.679
			l-0.595-0.304l0,0l-3.552-1.294l1.081-0.575l0,0c-0.367,2.321-0.277,4.713,0.351,7.006c0.612,2.301,1.724,4.465,2.937,6.577
			l0.279,0.487h-0.538h0c-0.899,0.113-1.813,0.011-2.683-0.207c-0.435-0.111-0.864-0.247-1.284-0.408
			c-0.426-0.167-0.818-0.334-1.256-0.574l1.266-0.807c0.563,3.623,0.827,7.289,0.826,10.935c0.023,3.647-0.218,7.269-0.142,10.849
			c0.058,3.575,0.6,7.137,2.041,10.399c0.705,1.631,1.601,3.182,2.625,4.648c0.511,0.733,1.048,1.452,1.623,2.141
			C243.771,373.918,244.266,374.447,244.756,375.117z"/>
	</g>
	<g>

			<ellipse transform="matrix(0.9771 -0.2127 0.2127 0.9771 -65.6406 68.8768)" class="sy4" cx="287.237" cy="339.458" rx="11.588" ry="22.499"/>
	</g>
	<g>
		<path class="sy5" d="M267.095,318.371c-22.356,0.129-22.202,17.981-22.202,17.981s-3.982-1.994-5.71-10.574
			c3.803,5.67,5.955,5.855,7.471,5.91c0.586,0.021,0,0-0.352-0.469c-6.125-8.159-2.341-22.33,3.331-28.198
			c-0.391,7.094,1.477,10.855,4.358,15.094c0.018-1.473-6.285-21.512,34.841-30.466c0,0-4.068,6.695-3.28,11.445
			c5.898-5.468,22.57-6.861,36.717,0.884c0,0-5.991-0.223-7.236,3.133c11.116,3.611,18.865,14.073,19.439,22.512
			c-4.485-3.463-18.438-18.762-22.174-13.032c-8.567-6.004-23.453,6.077-26.707,17.765
			C285.591,330.357,271.587,318.345,267.095,318.371z"/>
	</g>
	<g>
		<g>
			<path class="sy6" d="M277.939,338.953c2.263,11.288,1.995,21.071-6.864,23.664c-6.885,2.015-15.088-5.602-18.41-15.364
				c-3.711-10.904-5.869-20.476,6.386-25.717C271.307,316.294,274.939,323.993,277.939,338.953z"/>
		</g>
		<g>
			<path d="M278.437,338.853c0.946,4.712,1.726,9.574,1.011,14.495c-0.391,2.426-1.257,4.923-3.014,6.839
				c-0.858,0.961-1.915,1.741-3.058,2.313c-1.141,0.559-2.345,1.006-3.669,1.149c-1.305,0.144-2.623-0.017-3.846-0.392
				c-1.232-0.36-2.379-0.923-3.429-1.607c-2.104-1.365-3.888-3.122-5.365-5.078c-1.483-1.954-2.701-4.087-3.655-6.324
				c-0.949-2.251-1.621-4.561-2.294-6.87c-0.655-2.316-1.232-4.667-1.497-7.08c-0.266-2.399-0.161-4.913,0.732-7.224
				c0.877-2.314,2.572-4.267,4.589-5.636c2.026-1.371,4.263-2.354,6.581-3.055c2.301-0.689,4.845-1.034,7.208-0.213
				c2.39,0.794,4.1,2.827,5.273,4.924c1.179,2.137,1.999,4.432,2.684,6.745C277.379,334.153,277.922,336.502,278.437,338.853z
				 M277.441,339.052c-0.442-2.35-0.911-4.695-1.524-6.998c-0.606-2.301-1.342-4.58-2.445-6.67
				c-1.094-2.058-2.667-4.001-4.893-4.794c-2.203-0.839-4.69-0.494-6.922,0.23c-2.25,0.744-4.439,1.756-6.36,3.118
				c-1.891,1.387-3.525,3.168-4.38,5.356c-0.871,2.177-1.011,4.596-0.783,6.949c0.233,2.364,0.826,4.69,1.527,6.971
				c0.754,2.267,1.459,4.57,2.502,6.689c1.034,2.129,2.315,4.134,3.825,5.931c1.515,1.786,3.237,3.406,5.207,4.588
				c1.952,1.179,4.178,1.934,6.357,1.718c1.068-0.096,2.159-0.482,3.175-0.95c1.011-0.481,1.931-1.13,2.689-1.945
				c1.552-1.612,2.389-3.833,2.793-6.105C278.966,348.53,278.305,343.719,277.441,339.052z"/>
		</g>
	</g>
	<g>
		<path d="M281.33,339.621c2.268,11.287,1.727,20.16-7.168,22.623c-6.568,1.819-14.783-4.561-18.106-14.323
			c-3.711-10.905-5.869-20.476,6.386-25.717C274.699,316.963,278.052,323.307,281.33,339.621z"/>
		<path d="M271.811,362.826c-6.236,0-13.037-6.093-16.007-14.819c-3.781-11.106-5.899-20.732,6.533-26.05
			c4.816-2.059,8.311-2.361,10.995-0.95c4.218,2.219,6.288,8.747,8.26,18.562l0,0c1.853,9.216,2.69,20.151-7.358,22.934
			C273.442,362.721,272.631,362.826,271.811,362.826z M269.586,320.673c-1.95,0-4.261,0.589-7.038,1.776
			c-12.011,5.137-9.932,14.535-6.238,25.386c3.271,9.611,11.242,15.961,17.781,14.151c7.509-2.079,9.661-8.96,6.978-22.312
			c-1.941-9.66-3.955-16.073-7.985-18.194C272.062,320.942,270.906,320.673,269.586,320.673z"/>
	</g>
	<g>
		<g>
			<path class="sy6" d="M292.253,336.113c2.465,11.246,6.653,20.093,15.811,18.902c7.118-0.926,11.591-11.202,10.68-21.474
				c-0.973-10.975-2.865-21.107-16.2-20.974S288.69,319.859,292.253,336.113z"/>
		</g>
		<g>
			<path d="M292.707,336.014c1.106,4.628,2.457,9.31,5.032,13.218c1.299,1.913,2.967,3.597,5.038,4.441
				c1.023,0.441,2.13,0.643,3.248,0.69c1.121,0.025,2.276-0.054,3.293-0.408c2.091-0.684,3.809-2.312,5.103-4.186
				c1.302-1.893,2.209-4.078,2.816-6.334c0.609-2.261,0.912-4.609,0.961-6.96c0.045-2.337-0.231-4.733-0.484-7.103
				c-0.283-2.365-0.688-4.715-1.411-6.957c-0.723-2.23-1.801-4.374-3.465-6.003c-1.642-1.649-3.835-2.678-6.139-3.138
				c-2.306-0.47-4.723-0.462-7.083-0.236c-2.335,0.244-4.749,0.853-6.463,2.451c-0.836,0.801-1.453,1.811-1.84,2.912
				c-0.37,1.109-0.538,2.285-0.599,3.465c-0.119,2.368,0.186,4.752,0.559,7.108C291.665,331.332,292.169,333.676,292.707,336.014z
				 M291.798,336.213c-0.485-2.361-0.937-4.732-1.277-7.126c-0.325-2.394-0.568-4.818-0.41-7.259c0.084-1.217,0.279-2.44,0.69-3.608
				c0.41-1.166,1.078-2.261,1.983-3.124c1.867-1.711,4.377-2.357,6.766-2.648c1.211-0.145,2.421-0.206,3.639-0.192
				c1.217,0.009,2.441,0.099,3.646,0.338c2.404,0.45,4.765,1.498,6.578,3.224c1.83,1.712,3.026,3.972,3.833,6.278
				c0.81,2.321,1.276,4.726,1.619,7.124c0.311,2.4,0.647,4.791,0.655,7.267c0.005,2.457-0.304,4.916-0.913,7.307
				c-0.616,2.387-1.546,4.723-2.949,6.814c-1.381,2.073-3.342,3.957-5.866,4.776c-1.265,0.424-2.555,0.501-3.826,0.468
				c-1.281-0.048-2.571-0.333-3.752-0.863c-2.396-1.04-4.211-2.98-5.542-5.055C294.035,345.699,292.811,340.92,291.798,336.213z"/>
		</g>
	</g>
	<g>
		<g>
			<path d="M296.01,336.421c2.465,11.246,7.266,21.653,15.671,17.826c4.966-2.261,11.705-10.124,10.82-20.398
				c-0.989-11.476-2.865-21.107-16.2-20.974S292.447,320.167,296.01,336.421z"/>
		</g>
		<g>
			<path d="M296.506,336.312c1.073,4.569,2.429,9.161,4.831,13.116c1.211,1.927,2.765,3.743,4.778,4.516
				c0.991,0.4,2.071,0.468,3.125,0.304c1.055-0.183,2.089-0.612,3.051-1.168c3.849-2.345,6.823-6.206,8.506-10.48
				c0.838-2.152,1.317-4.453,1.39-6.781c0.049-1.162-0.066-2.33-0.155-3.515c-0.096-1.179-0.205-2.356-0.352-3.528
				c-0.329-2.334-0.757-4.669-1.589-6.864c-0.816-2.187-2.036-4.25-3.807-5.742c-1.764-1.498-3.998-2.347-6.289-2.736
				c-2.3-0.383-4.683-0.362-7.016-0.122c-1.165,0.137-2.316,0.393-3.406,0.801c-1.092,0.401-2.103,1.019-2.888,1.858
				c-1.631,1.667-2.131,4.092-2.219,6.394c-0.089,2.337,0.219,4.685,0.6,7.008C295.465,331.698,295.967,334.008,296.506,336.312z
				 M295.513,336.529c-0.473-2.33-0.909-4.672-1.243-7.034c-0.318-2.363-0.553-4.754-0.417-7.161c0.073-1.2,0.25-2.408,0.634-3.565
				c0.372-1.158,0.999-2.254,1.871-3.118c1.756-1.768,4.225-2.436,6.564-2.778c2.372-0.305,4.778-0.376,7.169-0.03
				c2.381,0.322,4.754,1.239,6.594,2.86c1.855,1.603,3.1,3.777,3.902,6.028c0.799,2.266,1.281,4.615,1.624,6.971
				c0.186,1.177,0.333,2.358,0.468,3.539c0.132,1.175,0.266,2.37,0.289,3.583c0.051,2.416-0.322,4.851-1.084,7.164
				c-0.754,2.318-1.92,4.5-3.39,6.457c-1.479,1.946-3.271,3.693-5.446,4.946c-1.093,0.616-2.292,1.102-3.582,1.294
				c-1.285,0.18-2.656,0.058-3.86-0.458c-2.448-1.024-4.078-3.089-5.336-5.145C297.803,345.855,296.53,341.18,295.513,336.529z"/>
		</g>
	</g>
	<g>
		<g>
			<path class="sy7" d="M239.766,346.173c3.98-8.184,17.678-29.777,38.911-18.461c0.275-16.397-23.784-18.901-34.967-3.004
				c4.625,0.178,5.139,0.705,5.139,0.705S240.484,327.754,239.766,346.173z"/>
		</g>
		<g>
			<g>
				<path d="M239.841,345.875c0.043-0.271-0.046-0.458-0.001-0.583c0.048-0.138,0.205-0.436,0.302-0.646
					c0.218-0.464,0.463-0.915,0.699-1.37c0.488-0.902,0.987-1.799,1.524-2.674c1.057-1.761,2.243-3.447,3.527-5.06
					c2.558-3.225,5.588-6.146,9.167-8.315c1.784-1.082,3.702-1.974,5.721-2.571c2.02-0.585,4.134-0.884,6.236-0.827
					c2.105,0.034,4.181,0.433,6.171,1.037c1.991,0.618,3.856,1.547,5.634,2.575l-0.452,0.266l0-0.002
					c-0.061-3.797-1.665-7.496-4.604-9.741c-2.909-2.261-6.695-3.258-10.41-3.175c-3.73,0.068-7.439,1.078-10.761,2.831
					c-1.671,0.862-3.241,1.93-4.676,3.163c-1.461,1.207-2.756,2.611-3.955,4.102l-0.24-0.484l0,0c0.876-0.027,1.753-0.04,2.64-0.015
					c0.444,0.013,0.889,0.035,1.344,0.083c0.227,0.022,0.458,0.054,0.695,0.096c0.121,0.025,0.241,0.049,0.372,0.086
					c0.064,0.017,0.135,0.042,0.208,0.068l0.124,0.054c0.063,0.04,0.059,0.01,0.232,0.161l0.335,0.292l-0.639,0.844h0
					c-0.729,0.239-1.587,0.784-2.274,1.379c-0.716,0.601-1.348,1.315-1.918,2.078c-1.134,1.535-2.001,3.288-2.657,5.117
					c-0.66,1.831-1.134,3.739-1.463,5.674c-0.166,0.968-0.299,1.942-0.406,2.921l-0.139,1.43
					C240.154,345.038,239.956,345.371,239.841,345.875z M239.691,346.472c-0.062-0.486-0.208-1.142-0.177-1.764
					c0.022-0.579,0.063-1.018,0.094-1.534c0.077-0.995,0.181-1.989,0.319-2.98c0.273-1.982,0.695-3.952,1.319-5.872
					c0.621-1.918,1.467-3.789,2.637-5.483c0.589-0.842,1.254-1.645,2.035-2.346c0.798-0.706,1.6-1.319,2.745-1.739l0,0l-0.304,1.136
					c0.132,0.115,0.08,0.059,0.096,0.073c0,0-0.016-0.011-0.022-0.017c-0.028-0.015-0.056-0.033-0.096-0.049
					c-0.074-0.035-0.164-0.067-0.253-0.099c-0.185-0.061-0.38-0.119-0.582-0.168c-0.402-0.102-0.82-0.184-1.241-0.258
					c-0.844-0.147-1.702-0.258-2.564-0.356h0h-0.543l0.303-0.485c2.079-3.324,5.016-6.145,8.462-8.131
					c3.445-1.977,7.403-3.137,11.417-3.16c2.003-0.011,4.017,0.255,5.946,0.849c1.927,0.587,3.777,1.522,5.315,2.86
					c1.548,1.316,2.786,3.009,3.52,4.892c0.731,1.884,0.999,3.909,0.865,5.875l0,0.003l0.03,0.481l-0.482-0.214
					c-1.848-0.821-3.723-1.537-5.651-2.047c-1.933-0.484-3.907-0.728-5.875-0.731c-3.94,0-7.83,1.174-11.232,3.214
					c-3.411,2.039-6.374,4.809-8.984,7.86c-1.305,1.531-2.491,3.164-3.628,4.832c-0.57,0.834-1.104,1.692-1.627,2.556l-0.761,1.312
					l-0.401,0.709C240.192,346.019,239.875,346.287,239.691,346.472z"/>
			</g>
		</g>
	</g>
	<g>
		<g>
			<path class="sy7" d="M332.722,321.581c-7.658-4.917-30.592-16.226-42.834,4.486c-8.768-13.858,10.472-28.518,28.295-20.763
				c-3.857,2.559-4.021,3.276-4.021,3.276S322.523,306.226,332.722,321.581z"/>
		</g>
		<g>
			<g>
				<path d="M332.941,321.797c-0.253-0.062-0.663-0.126-0.991-0.314l-0.711-0.397l-1.332-0.724c-0.897-0.466-1.799-0.921-2.72-1.336
					c-1.839-0.833-3.701-1.609-5.613-2.238c-3.816-1.247-7.788-2.071-11.762-2.036c-3.966,0.029-7.899,1.05-11.264,3.101
					c-1.679,1.026-3.238,2.262-4.636,3.681c-1.38,1.438-2.609,3.026-3.759,4.689l-0.3,0.434l-0.225-0.426l-0.001-0.002
					c-1.137-1.609-1.962-3.478-2.318-5.467c-0.353-1.99-0.177-4.079,0.46-6.009c0.617-1.943,1.711-3.704,3.05-5.209
					c1.338-1.511,2.92-2.786,4.636-3.819c3.439-2.069,7.422-3.138,11.393-3.243c3.976-0.098,7.953,0.783,11.458,2.539l0.516,0.259
					l-0.469,0.28l0,0c-0.685,0.532-1.36,1.074-2.004,1.638c-0.321,0.282-0.636,0.57-0.926,0.866
					c-0.146,0.147-0.283,0.298-0.409,0.446c-0.059,0.074-0.119,0.148-0.164,0.216c-0.025,0.035-0.041,0.065-0.056,0.092
					c-0.003,0.009-0.01,0.026-0.01,0.026c0.006-0.02-0.009,0.055,0.044-0.112l-0.851-0.812l0,0c1.197-0.237,2.201-0.132,3.249,0.056
					c1.032,0.192,2.017,0.531,2.959,0.944c1.881,0.838,3.577,1.995,5.105,3.309c1.533,1.315,2.918,2.777,4.183,4.327
					c0.633,0.775,1.24,1.569,1.823,2.379c0.295,0.425,0.558,0.778,0.878,1.261C332.524,320.713,332.741,321.349,332.941,321.797z
					 M332.503,321.365c-0.36-0.37-0.703-0.552-0.913-0.855l-0.863-1.149c-0.6-0.78-1.222-1.543-1.867-2.283
					c-1.288-1.481-2.685-2.864-4.202-4.084c-1.512-1.221-3.165-2.266-4.932-2.987c-0.884-0.354-1.795-0.635-2.719-0.776
					c-0.897-0.151-1.913-0.169-2.66,0.006l-0.985-0.388l0.134-0.424c0.069-0.219,0.082-0.191,0.115-0.258l0.078-0.111
					c0.048-0.06,0.096-0.119,0.142-0.166c0.092-0.1,0.182-0.183,0.273-0.267c0.181-0.159,0.361-0.307,0.543-0.444
					c0.363-0.278,0.732-0.528,1.104-0.77c0.744-0.483,1.501-0.928,2.262-1.361l0,0l0.047,0.539c-1.8-0.649-3.636-1.174-5.512-1.444
					c-1.867-0.306-3.763-0.401-5.639-0.268c-3.749,0.232-7.443,1.299-10.663,3.183c-3.216,1.862-5.929,4.684-7.237,8.129
					c-1.341,3.448-0.786,7.441,1.138,10.714l0.001,0.002l-0.525,0.008c0.983-1.803,2.092-3.567,3.47-5.131
					c1.385-1.551,2.95-2.973,4.73-4.097c1.766-1.143,3.727-1.987,5.756-2.539c2.035-0.542,4.137-0.778,6.224-0.782
					c4.185-0.01,8.292,0.907,12.155,2.33c1.935,0.709,3.825,1.532,5.645,2.485c0.914,0.467,1.808,0.974,2.694,1.49
					c0.439,0.266,0.882,0.523,1.31,0.806c0.193,0.129,0.482,0.301,0.595,0.394C332.303,320.949,332.325,321.156,332.503,321.365z"/>
			</g>
		</g>
	</g>
	<g>

			<ellipse transform="matrix(0.9771 -0.2127 0.2127 0.9771 -65.4056 65.6493)" class="sy6" cx="272.357" cy="336.752" rx="3.64" ry="5.314"/>
		<path d="M272.94,342.345c-0.87,0-1.751-0.388-2.533-1.125c-0.936-0.881-1.624-2.167-1.94-3.621
			c-0.663-3.047,0.542-5.905,2.688-6.372c2.145-0.469,4.43,1.631,5.093,4.679l0,0c0.663,3.047-0.542,5.905-2.688,6.372
			C273.354,342.322,273.147,342.345,272.94,342.345z M271.772,331.842c-0.158,0-0.316,0.017-0.474,0.051
			c-1.777,0.387-2.749,2.882-2.166,5.562c0.287,1.32,0.906,2.481,1.742,3.269c0.8,0.755,1.699,1.068,2.54,0.889
			c1.777-0.387,2.749-2.882,2.166-5.562C275.049,333.607,273.405,331.842,271.772,331.842z"/>
	</g>
	<g>

			<ellipse transform="matrix(0.9771 -0.2127 0.2127 0.9771 -67.0387 67.0143)" class="sy6" cx="277.883" cy="345.023" rx="1.82" ry="2.657"/>
		<path d="M278.182,347.818c-0.977,0-1.943-0.991-2.244-2.372c-0.331-1.523,0.272-2.953,1.345-3.187
			c1.068-0.228,2.214,0.815,2.547,2.34l0,0c0.33,1.523-0.272,2.953-1.345,3.187C278.384,347.808,278.283,347.818,278.182,347.818z
			 M277.592,342.568c-0.079,0-0.158,0.008-0.237,0.025c-0.889,0.193-1.374,1.44-1.083,2.78c0.292,1.339,1.247,2.276,2.141,2.078
			c0.889-0.193,1.374-1.44,1.083-2.78l0,0C279.229,343.451,278.407,342.568,277.592,342.568z"/>
	</g>
	<g>

			<ellipse transform="matrix(0.9771 -0.2127 0.2127 0.9771 -62.0706 73.8383)" class="sy6" cx="312.077" cy="325.35" rx="3.64" ry="5.314"/>
		<path d="M312.661,330.942c-0.87,0-1.751-0.388-2.533-1.125c-0.936-0.881-1.624-2.167-1.94-3.621
			c-0.317-1.453-0.225-2.909,0.259-4.099c0.503-1.234,1.365-2.042,2.429-2.273c2.146-0.468,4.43,1.631,5.093,4.679l0,0
			c0.663,3.047-0.542,5.905-2.688,6.372C313.075,330.92,312.868,330.942,312.661,330.942z M311.493,320.439
			c-0.158,0-0.316,0.017-0.474,0.051c-0.837,0.183-1.526,0.845-1.94,1.864c-0.434,1.063-0.513,2.377-0.226,3.697
			s0.906,2.481,1.742,3.269c0.801,0.755,1.699,1.069,2.54,0.889c1.777-0.388,2.749-2.882,2.166-5.562
			C314.77,322.205,313.126,320.439,311.493,320.439z"/>
	</g>
	<g>

			<ellipse transform="matrix(0.9771 -0.2127 0.2127 0.9771 -63.7038 75.2034)" class="sy6" cx="317.604" cy="333.621" rx="1.82" ry="2.657"/>
		<path d="M317.902,336.416c-0.977,0-1.943-0.991-2.244-2.372c-0.158-0.727-0.112-1.454,0.13-2.05
			c0.251-0.617,0.683-1.021,1.214-1.137c0.535-0.111,1.092,0.072,1.576,0.529c0.468,0.441,0.812,1.084,0.971,1.811
			s0.112,1.455-0.13,2.05c-0.251,0.617-0.682,1.021-1.214,1.137C318.104,336.405,318.004,336.416,317.902,336.416z M317.31,331.166
			c-0.079,0-0.158,0.008-0.235,0.025c-0.418,0.091-0.763,0.422-0.97,0.932c-0.217,0.532-0.257,1.188-0.112,1.849
			c0.292,1.339,1.249,2.28,2.141,2.078c0.418-0.091,0.763-0.422,0.97-0.932c0.217-0.531,0.257-1.188,0.112-1.849l0,0
			c-0.144-0.66-0.452-1.24-0.87-1.635C318.019,331.327,317.658,331.166,317.31,331.166z"/>
	</g>
	<g>
		<path class="sy8" d="M316.255,385.221c6.203-4.39,15.806-14.959,15.243-24.464c1.833,0.191,3.294,0.356,3.294,0.356
			s0.787,2.069-1.306,6.123C331.393,371.29,330.217,375.971,316.255,385.221z"/>
	</g>
	<g>
		<path class="sy3" d="M344.959,384.599c-0.889,0.343-1.777,0.69-2.651,1.11c-2.329,1.119-4.797,2.001-7.357,2.397
			c-3.359,0.52-6.504,1.69-9.949,1.958c-1.81,0.141-3.577,0.004-5.367-0.006c-0.982-0.005-3.241,0.301-3.684-0.616
			c-1.816-3.763-3.954-7.369-6.384-10.768c-0.398-0.557-0.812-1.123-1.006-1.779s-0.129-1.435,0.345-1.93
			c0.266-0.278,0.63-0.438,0.983-0.591c1.608-0.697,3.239-1.648,4.961-2.019c1.348-0.29,2.975-0.145,4.191-0.83
			c1.246-0.702,2.392-1.63,3.525-2.476c1.237-0.923,2.641-1.388,3.991-2.142c1.418-0.792,2.768-1.701,4.022-2.733
			c1.356-1.116,2.897-1.957,4.397-2.863c4.075-2.465,8.282-4.979,12.984-5.733c-1.045,2.105-1.447,4.466-1.737,6.799
			c-0.445,3.581-0.648,7.274,0.337,10.746c0.844,2.975,2.552,5.786,2.512,8.878c-0.003,0.208-0.015,0.423-0.108,0.609
			c-0.142,0.286-0.444,0.451-0.729,0.596C347.161,383.753,346.06,384.174,344.959,384.599z"/>
	</g>
	<g>
		<g>
			<path class="sy0" d="M323.835,339.458c1.809,0.89,1.731,4.196,0.505,5.473"/>
		</g>
		<g>
			<path d="M323.835,339.458c0.485,0.188,0.887,0.583,1.153,1.048c0.27,0.467,0.424,0.996,0.495,1.535
				c0.067,0.54,0.051,1.093-0.057,1.643c-0.113,0.548-0.31,1.105-0.714,1.604l-0.744-0.714c0.609-0.537,0.958-1.549,1-2.508
				c0.017-0.487-0.04-0.984-0.213-1.448C324.585,340.156,324.282,339.725,323.835,339.458z"/>
		</g>
	</g>
	<g>
		<path class="sy3" d="M295.479,397.509c-0.296,0.514-0.671,0.919-1.034,1.48c-0.458,0.709-0.847,1.606-1.171,2.385
			c-0.268,0.645-0.538,1.318-1.261,1.58c-0.467,0.169-0.982,0.066-1.478,0.041c-0.492-0.025-0.986,0.029-1.478-0.003
			c-0.713-0.046-1.348-0.423-2.022-0.492c-0.363-0.037-0.771,0.097-1.142,0.097c-0.401,0-0.801-0.039-1.201-0.054
			c-1.545-0.06-3.07,0.204-4.598,0.384c-1.603,0.189-3.161-0.101-4.718,0c-1.439,0.094-3.015,0.848-4.431,1.168
			c-1.699,0.384-3.427,0.663-5.173,0.682c-0.412,0.005-0.857-0.016-1.179-0.272c-0.62-0.492-0.411-1.459-0.207-2.225
			c0.972-3.659,0.266-7.68-1.711-10.887c-1.047-1.699-2.418-2.966-3.983-4.174c-2.075-1.602-3.753-3.796,0.142-4.024
			c4.506-0.264,9.057,0.356,13.579,0.121c1.698-0.088,3.379-0.362,5.057-0.636c2.739-0.446,5.478-0.893,8.217-1.339
			c3.423-0.558,6.86-1.119,10.168-2.158c0.597,2.546,0.539,5.193,0.477,7.807c-0.052,2.203-0.103,4.406-0.155,6.609
			c-0.024,1.01-0.049,2.033-0.32,3.006C295.759,396.958,295.629,397.247,295.479,397.509z"/>
	</g>
	<g>
		<path class="sy9" d="M291.936,380.288c-2.748,0.621-5.495,1.243-8.243,1.864c-1.139,0.258-2.283,0.516-3.447,0.606
			c-1.369,0.106-2.743-0.021-4.114-0.093c-4.167-0.218-8.339,0.085-12.48,0.546c-1.83,0.204-4.135,0.894-5.921,0.583
			c-1.469-0.256-3.423-1.211-4.564-2.159c-0.99-0.822-1.677-1.944-2.334-3.051c-0.099-0.167-0.201-0.347-0.194-0.541
			c0.011-0.279,0.254-0.505,0.521-0.585c0.267-0.08,0.553-0.046,0.829-0.008c1.731,0.241,3.443,0.629,5.108,1.16
			c1.605,0.512,2.751,0.568,4.451,0.588c3.442,0.041,6.882,0.361,10.325,0.182c1.698-0.088,3.379-0.362,5.057-0.636
			c2.739-0.446,5.478-0.893,8.217-1.339c2.159-0.352,5.077-0.532,7.039-1.526c1.652-0.837,3.365-2.361,4.55-3.767
			c0.439-0.521,0.859-1.091,1.463-1.407c1.192-0.625,2.624-0.068,3.92,0.295c2.388,0.668,4.97,0.625,7.335-0.122
			c2.681-0.847,5.499-1.181,8.198-2.127c3.51-1.231,7.02-2.461,10.53-3.692c0.061,0.584-0.46,1.048-0.936,1.393
			c-2.909,2.108-6.062,3.879-9.373,5.273c-1.657,0.698-3.352,1.291-5.074,1.805c-1.095,0.326-2.253,0.598-3.707,1.823
			c-1.186,0.999-0.141,1.448,0.731,2.784c1.792,2.744,3.421,5.588,4.85,8.538c2.895,5.973,5.003,12.328,6.235,18.85
			c0.627,3.318,1.028,6.753,0.337,10.058c-0.052,0.251-0.119,0.515-0.301,0.695c-0.292,0.289-0.763,0.261-1.171,0.205
			c-1.357,0-2.896-0.502-4.196-0.857c-0.645-0.176-1.318-0.488-1.982-0.557c-0.612-0.064-1.162-0.171-1.765-0.331
			c-0.103-0.027-0.212-0.059-0.28-0.141c-0.066-0.08-0.078-0.191-0.086-0.295c-0.065-0.789-0.002-1.604-0.006-2.398
			c-0.005-0.965,0.075-1.932-0.02-2.895c-0.074-0.746-0.269-1.457-0.452-2.18c-0.139-0.55,0.008-1.066-0.015-1.629
			c-0.062-1.485-0.311-2.964-0.734-4.39c-0.444-1.497-1.377-2.859-1.634-4.415c-0.161-0.978-0.376-1.947-0.641-2.901
			c-0.078-0.28-0.227-0.615-0.518-0.626c-0.118,0.715-0.111,1.418-0.16,2.137c-0.033,0.492-0.251,0.963-0.317,1.464
			c-0.171,1.293-0.311,2.611-0.781,3.838c-1.305,3.406-5.156,5.278-6.601,8.627c-0.436,1.012-0.629,2.114-0.703,3.213
			c-0.076,1.136-0.173,2.521-1.199,3.015c-0.459,0.221-0.994,0.189-1.503,0.152c-2.965-0.216-5.931-0.432-8.896-0.648
			c-0.645-1.709-1.297-3.573-0.765-5.32c0.483-1.587,1.841-2.723,3.126-3.772c1.781-1.453,3.587-2.963,4.74-4.951
			c1.19-2.054,1.589-4.457,1.942-6.805c0.513-3.41,0.976-6.913,0.464-10.352c-0.153-1.025-0.158-3.091-1.096-3.772
			C294.706,378.974,293.003,380.047,291.936,380.288z"/>
	</g>
	<g>
		<g>
			<path class="sy0" d="M255.055,356.753c0,1.09-0.5,2.342,0.993,4.685"/>
		</g>
		<g>
			<path d="M255.055,356.753c0.053,0.825,0.007,1.655,0.273,2.393c0.245,0.742,0.671,1.403,1.156,2.014l-0.87,0.555
				c-0.383-0.77-0.697-1.599-0.791-2.464C254.709,358.376,254.941,357.555,255.055,356.753z"/>
		</g>
	</g>
	<g>
		<path d="M256.53,383.3c0.864,1.728,2.37,3.158,3.803,4.678c1.447,1.519,2.905,3.148,4.019,5.112
			c1.124,1.949,1.817,4.257,1.891,6.602c0.063,2.354-0.487,4.608-1.185,6.769l-2.433-2.556l0,0c2.691-0.763,5.102-0.968,7.597-1.215
			c2.473-0.216,4.934-0.339,7.394-0.412c4.917-0.144,9.825-0.061,14.716,0.22l-0.013,1.031c-4.861,0.19-9.71,0.578-14.517,1.185
			c-2.402,0.304-4.796,0.658-7.155,1.096c-2.325,0.445-4.767,0.947-6.713,1.721l0,0l-4.011,0.966l1.578-3.522
			c0.773-1.727,1.434-3.512,1.594-5.349c0.144-1.828-0.167-3.678-0.927-5.443c-0.749-1.772-1.906-3.434-3.157-5.08
			c-1.227-1.656-2.661-3.305-3.444-5.438L256.53,383.3z"/>
	</g>
	<g>
		<path d="M316.144,389.743c2.783,0.406,5.616,0.358,8.406-0.005c2.792-0.355,5.544-1.011,8.232-1.866
			c2.689-0.856,5.315-1.91,7.889-3.078c2.577-1.162,5.073-2.508,7.547-3.881l0.004-0.002l-0.652,1.71
			c-0.69-2.24-1.337-4.495-1.705-6.814c-0.417-2.305-0.625-4.651-0.603-6.991c0.009-2.339,0.243-4.673,0.681-6.952
			c0.207-1.142,0.488-2.264,0.767-3.376c0.275-1.101,0.614-2.221,0.716-3.233l0.001-0.007l0.7,0.493l-6.318,2.42l-0.369-0.963
			l6.318-2.42l0.747-0.286l-0.046,0.779l0,0.008c-0.048,1.267-0.327,2.358-0.525,3.482c-0.204,1.115-0.406,2.222-0.535,3.335
			c-0.28,2.222-0.358,4.454-0.223,6.671c0.122,2.217,0.461,4.417,0.996,6.569c0.486,2.163,1.24,4.258,2.024,6.329l0.44,1.163
			l-1.092,0.547l-0.004,0.002c-2.608,1.279-5.233,2.524-7.943,3.584c-2.706,1.065-5.463,2.01-8.282,2.751
			c-2.817,0.74-5.699,1.274-8.613,1.493c-2.911,0.228-5.861,0.128-8.734-0.443L316.144,389.743z"/>
	</g>
	<g>
		<path d="M293.503,375.112c0.249,0.998,0.292,2.094,0.684,2.637c0.186,0.253,0.433,0.381,0.803,0.481
			c0.372,0.086,0.814,0.103,1.265,0.084c1.835-0.122,3.767-0.622,5.66-1.109c1.91-0.496,3.772-1.038,5.388-1.883
			c0.79-0.426,1.505-0.951,1.832-1.573c0.343-0.596,0.245-1.409-0.174-2.239l0.861-0.569c0.351,0.418,0.653,0.915,0.817,1.511
			c0.177,0.589,0.168,1.29-0.068,1.898c-0.476,1.234-1.449,1.981-2.359,2.545c-1.866,1.123-3.896,1.64-5.838,2.123
			c-1.969,0.459-3.945,0.908-6.103,0.898c-0.543-0.015-1.105-0.059-1.697-0.237c-0.586-0.167-1.244-0.598-1.566-1.217
			c-0.325-0.604-0.379-1.186-0.429-1.7l-0.094-1.478L293.503,375.112z"/>
	</g>
	<g>
		<path d="M296.134,379.815c-1.985,0.822-3.988,1.211-6,1.636c-2.012,0.395-4.026,0.755-6.049,1.044
			c-4.044,0.585-8.098,1.063-12.161,1.467c-4.07,0.353-8.132,0.669-12.253,0.779c-1.044,0.016-2.044,0.046-3.192-0.057
			c-0.232-0.015-0.75-0.099-0.999-0.221c-0.314-0.108-0.592-0.243-0.852-0.389c-0.529-0.288-0.985-0.615-1.422-0.962
			c-0.85-0.704-1.584-1.481-2.224-2.322c-0.643-0.84-1.206-1.719-1.638-2.707l0.832-0.61c1.572,1.287,2.978,2.714,4.441,3.88
			c0.719,0.562,1.505,1.08,2.111,1.114c0.878,0.09,1.917,0.083,2.906,0.075c4.017-0.064,8.077-0.335,12.116-0.644
			c4.046-0.278,8.091-0.623,12.118-1.077c2.012-0.233,4.027-0.45,6.025-0.747c0.998-0.15,1.995-0.308,2.978-0.504
			c0.982-0.19,1.972-0.393,2.873-0.711L296.134,379.815z"/>
	</g>
	<g>
		<path d="M332.66,363.277c-3.217,2.913-6.941,5.163-10.783,7.075c-1.926,0.955-3.89,1.827-5.886,2.621
			c-2.008,0.765-4.034,1.482-6.173,1.906l-0.254-1c1.98-0.669,3.974-1.389,5.936-2.162c1.971-0.758,3.913-1.595,5.814-2.512
			c1.903-0.913,3.758-1.923,5.544-3.036c1.78-1.12,3.523-2.301,5.118-3.663L332.66,363.277z"/>
	</g>
	<g>
		<path d="M308.392,375.664c2.198,2.946,4.101,6.045,5.845,9.254c1.736,3.208,3.263,6.536,4.524,9.974
			c1.258,3.437,2.246,6.989,2.835,10.628c0.594,3.636,0.754,7.364,0.38,11.068l0,0.001l-0.1,1.199l-1.154-0.378
			c-1.517-0.497-3.053-0.935-4.6-1.253c-1.54-0.311-3.121-0.524-4.594-0.379l-0.001,0l-0.88,0.082l0.028-0.858
			c0.103-3.107-0.221-6.305-0.658-9.447c-0.449-3.149-1.066-6.278-1.841-9.366c-1.561-6.166-3.781-12.202-7.025-17.659l0.878-0.541
			c1.702,2.763,3.118,5.686,4.33,8.683c1.209,2.999,2.223,6.075,3.041,9.199c0.824,3.123,1.489,6.287,1.984,9.481
			c0.481,3.2,0.856,6.406,0.788,9.715l-0.851-0.776l0.002,0c1.762-0.254,3.453-0.084,5.105,0.165
			c1.652,0.261,3.268,0.642,4.862,1.083l-1.254,0.821l0,0c0.428-3.497,0.356-7.064-0.143-10.585
			c-0.493-3.523-1.379-6.999-2.538-10.385c-1.161-3.387-2.591-6.689-4.234-9.885c-1.643-3.188-3.477-6.315-5.549-9.218
			L308.392,375.664z"/>
	</g>
	<g>
		<path d="M296.003,378.826c0.305,0.059,0.404,0.213,0.469,0.285c0.067,0.085,0.105,0.156,0.138,0.219
			c0.066,0.13,0.109,0.244,0.149,0.358c0.077,0.224,0.134,0.439,0.186,0.654c0.102,0.428,0.176,0.849,0.242,1.272
			c0.13,0.844,0.216,1.687,0.279,2.531c0.124,1.688,0.151,3.379,0.09,5.071c-0.143,3.377-0.573,6.792-1.825,10.065
			c-0.642,1.621-1.511,3.228-2.843,4.543c-0.33,0.329-0.691,0.633-1.078,0.906c-0.192,0.14-0.393,0.266-0.598,0.388l-0.504,0.325
			c-0.318,0.217-0.663,0.408-0.96,0.642l-0.865,0.723c-1.091,1.017-1.749,2.288-1.836,3.616c-0.03,0.666,0.053,1.347,0.273,2.013
			c0.21,0.644,0.578,1.354,0.93,1.822l0.001,0.001l-0.928-0.497l10.854,0.46l0.001,0l-1.624,1.646
			c-0.037-1.615,0.147-3.022,0.506-4.503c0.364-1.454,0.936-2.894,1.82-4.182c0.875-1.288,2.095-2.386,3.492-3.083l0.877-0.453
			c0.248-0.095,0.437-0.3,0.665-0.442c0.398-0.373,0.783-0.796,1.07-1.318c1.193-2.085,1.455-4.837,1.317-7.464
			c-0.141-2.66-0.649-5.33-1.365-7.945l0.986-0.304c0.892,2.618,1.589,5.324,1.912,8.125c0.152,1.4,0.226,2.825,0.084,4.268
			c-0.135,1.438-0.438,2.908-1.14,4.3c-0.335,0.7-0.826,1.35-1.398,1.939c-0.325,0.258-0.614,0.565-0.992,0.763l-0.917,0.548
			c-1.017,0.592-1.846,1.436-2.45,2.452c-1.2,2.011-1.595,4.714-1.42,7.059l0.128,1.707l-1.752-0.061l-0.001,0l-10.82-0.966
			l-0.611-0.055l-0.317-0.443l-0.004-0.005c-0.612-0.892-0.965-1.708-1.251-2.654c-0.268-0.93-0.365-1.932-0.276-2.925
			c0.196-2.015,1.321-3.825,2.72-5.018l1.085-0.842c0.368-0.266,0.763-0.47,1.143-0.706l0.561-0.331
			c0.156-0.086,0.312-0.173,0.461-0.274c0.301-0.195,0.59-0.418,0.86-0.668c1.093-0.991,1.919-2.344,2.552-3.79
			c1.253-2.923,1.814-6.201,2.072-9.461c0.122-1.636,0.158-3.283,0.1-4.924c-0.031-0.82-0.083-1.64-0.176-2.447
			c-0.047-0.403-0.103-0.805-0.18-1.192c-0.038-0.193-0.083-0.382-0.134-0.554c-0.026-0.084-0.055-0.166-0.081-0.223
			c-0.013-0.03-0.023-0.048-0.023-0.048c0.004-0.013,0.022,0.07,0.225,0.102L296.003,378.826z"/>
	</g>
	<g>
		<g>
			<path class="sy10" d="M313.102,344.299c-12.694,3.172-18.537,9.023-22.645,10.05c-4.108,1.026-12.017-1.389-24.71,1.783
				c-12.694,3.172-12.058,12.728-27.199,19.504c21.925,7.607,29.587-7.644,39.301-4.749c9.714,2.895,24.305-0.75,31.515-7.875
				c1.676-1.656,5.701-4.341,8.512-4.371c3.459-0.037,9.834,0.95,10.151,2.851c7.12,0.06,14.59-1.645,19.914-11.403
				C330.837,352.356,325.796,341.127,313.102,344.299z"/>
		</g>
		<g>
			<path d="M313.252,344.899c-3.33,0.907-6.573,2.105-9.649,3.635c-1.535,0.773-3.045,1.588-4.527,2.466
				c-1.481,0.886-2.941,1.807-4.477,2.699c-0.776,0.442-1.564,0.875-2.446,1.244c-0.426,0.196-0.908,0.344-1.387,0.489
				c-0.487,0.099-0.989,0.202-1.456,0.228c-1.898,0.16-3.637,0.012-5.379-0.053c-3.466-0.172-6.886-0.197-10.294,0.164
				c-1.705,0.155-3.395,0.434-5.079,0.747c-1.682,0.359-3.366,0.681-4.921,1.257c-1.567,0.566-3.079,1.273-4.452,2.222
				c-1.386,0.927-2.645,2.061-3.856,3.276c-2.405,2.441-4.726,5.158-7.522,7.352c-2.772,2.218-5.873,3.988-9.123,5.319l-0.027-0.624
				l0.001,0c1.889,0.571,3.798,1.051,5.728,1.391c1.933,0.315,3.885,0.48,5.829,0.443c3.892-0.071,7.71-0.951,11.299-2.477
				c1.802-0.752,3.557-1.627,5.352-2.503c1.795-0.865,3.638-1.76,5.708-2.257c1.026-0.255,2.117-0.395,3.215-0.336
				c0.546,0.018,1.099,0.092,1.634,0.212l0.788,0.191l0.686,0.183c1.842,0.455,3.757,0.67,5.679,0.705
				c3.852,0.07,7.718-0.57,11.433-1.637c3.707-1.091,7.298-2.693,10.381-4.96c0.763-0.572,1.507-1.172,2.184-1.832
				c0.75-0.731,1.588-1.389,2.435-1.972c1.722-1.145,3.536-2.186,5.734-2.616c1.183-0.198,2.179-0.08,3.201-0.014
				c1.018,0.088,2.029,0.221,3.035,0.409c1.006,0.19,2.009,0.424,3.009,0.78c0.5,0.183,1,0.388,1.5,0.694
				c0.249,0.154,0.501,0.338,0.742,0.585c0.235,0.243,0.483,0.593,0.559,1.057l-0.757-0.646c3.965,0.085,7.972-0.468,11.436-2.349
				c1.726-0.931,3.286-2.175,4.635-3.627c1.348-1.455,2.516-3.086,3.541-4.813l0,0l0.339,0.494
				c-2.995,0.394-6.055,0.445-9.056-0.023c-3.008-0.421-5.921-1.366-8.708-2.497c-2.794-1.114-5.507-2.398-8.356-3.079
				C319.027,344.106,316.066,344.143,313.252,344.899z M312.952,343.699c1.5-0.357,3.047-0.556,4.597-0.543
				c1.55,0.016,3.091,0.25,4.574,0.639c2.979,0.779,5.69,2.137,8.434,3.291c2.737,1.172,5.551,2.15,8.479,2.612
				c2.925,0.468,5.915,0.433,8.86,0.058l0.682-0.087l-0.343,0.581l0,0c-0.959,1.81-2.057,3.567-3.418,5.134
				c-1.351,1.57-2.951,2.955-4.759,4.02c-1.805,1.067-3.797,1.821-5.842,2.255c-2.047,0.439-4.132,0.596-6.196,0.606l-0.907,0.004
				l0.151-0.651c0.014-0.062-0.24-0.35-0.593-0.543c-0.352-0.206-0.778-0.375-1.213-0.522c-0.878-0.291-1.821-0.491-2.768-0.648
				c-0.949-0.155-1.913-0.26-2.875-0.321c-0.954-0.048-1.962-0.108-2.739,0.054c-1.709,0.369-3.435,1.328-4.991,2.387
				c-0.783,0.549-1.51,1.126-2.177,1.787c-0.738,0.733-1.537,1.392-2.356,2.018c-3.303,2.476-7.066,4.189-10.954,5.379
				c-3.892,1.2-7.977,1.752-12.069,1.663c-2.047-0.058-4.101-0.307-6.111-0.824l-0.751-0.209l-0.658-0.165
				c-0.43-0.1-0.87-0.164-1.313-0.182c-0.885-0.057-1.789,0.046-2.689,0.262c-1.802,0.425-3.59,1.211-5.387,2.022
				c-1.796,0.818-3.621,1.67-5.505,2.398c-3.761,1.466-7.838,2.363-11.902,2.224c-2.028-0.049-4.04-0.309-6.011-0.719
				c-1.97-0.422-3.885-1.036-5.762-1.725l-0.001,0l-0.819-0.236l0.792-0.388c3.109-1.522,6.048-3.363,8.619-5.633
				c2.586-2.264,4.76-4.922,7.155-7.53c1.208-1.291,2.512-2.549,3.993-3.61c1.468-1.076,3.106-1.935,4.806-2.575
				c1.712-0.662,3.464-1.019,5.182-1.406c1.739-0.346,3.488-0.656,5.254-0.839c3.525-0.418,7.1-0.433,10.596-0.302
				c1.739,0.048,3.493,0.157,5.071-0.002c0.798-0.074,1.46-0.239,2.199-0.563c0.731-0.295,1.472-0.708,2.22-1.11
				c2.982-1.696,6.114-3.438,9.375-4.802C306.156,345.607,309.518,344.487,312.952,343.699z"/>
		</g>
	</g>
	<g>
		<path class="sy1" d="M317.626,355.647c1.22-1.22,3.279-1.405,4.895-1.129c0.645,0.11,1.547-0.063,2.093,0.281
			c1.067,0.673,1.457,1.96,2.444,2.711c0.03-0.318,0.294-3.015,0.148-3.115c0.617,0.421,0.76,1.089,1.168,1.659
			c1.075,1.502,2.319,3.323,4.204,3.823c0.945,0.251,1.915,0.746,2.892,0.773c-0.323,1.241-2.001,1.679-3.153,2.241
			c-2.207,1.076-4.262,2.207-6.572,3.039c-1.963,0.707-3.731,1.373-5.834,1.869c-2.998,0.708-6.057,1.936-8.911,3.113
			c-2.534,1.045-4.749,1.575-7.582,1.093c-2.759-0.47-3.804-1.784-5.185-4.115c-3.159-5.333-7.402-11.172-8.792-17.281
			c-0.544-2.391-0.957-5.64,1.453-7.088c0.62-0.373,1.464-0.178,2.003,0.305c0.809,0.726,0.981,1.995,1.47,2.926
			c0.52,0.993,0.818,2.012,1.01,3.116c0.368,2.113,1.365,4.395,2.517,6.194c1.77,2.765,3.531,6.139,7.188,6.719
			c0.497,0.079,0.987-0.141,1.442-0.355c1.966-0.924,3.767-1.899,5.593-3.066C313.836,358.263,316.193,357.081,317.626,355.647z"/>
	</g>
	<g>
		<path class="sy1" d="M295.347,363.098c1.177,2.064,2.331,4.114,3.14,6.429c0.13,0.372,0.26,0.785,0.11,1.15
			c-0.101,0.245-0.313,0.424-0.517,0.593c-2.593,2.148-5.326,4.114-8.704,4.786c-2.055,0.409-4.114,0.887-6.176,1.397
			c-5.6,1.384-11.271,1.802-16.973,1.743c-2.966-0.031-6.079,0.147-8.984-0.552c-0.664-0.16-1.314-0.37-1.972-0.552
			c-0.336-0.093-0.68-0.214-1.029-0.234c-0.164-0.009-0.436,0.089-0.588,0.015c-0.814-0.395,0.493-1.006,0.785-1.216
			c0.144-0.104,0.245-0.239,0.398-0.333c0.187-0.115,0.383-0.211,0.567-0.332c0.349-0.228,0.676-0.501,0.907-0.852
			c0.191-0.289,0.308-0.616,0.446-0.931c0.129-0.295,0.314-0.525,0.472-0.802c0.339-0.597,1.4-3.335,0.71-3.941
			c0.714,0.627,1.185,1.525,1.294,2.469c1.01-0.562,0.738-1.682,1.069-2.557c0.257-0.68,0.763-0.967,1.226-1.467
			c0.549-0.594,1.416-0.991,2.188-1.183c1.384-0.344,2.802-0.126,4.189,0.04c1.496,0.178,2.963,0.53,4.443,0.805
			c0.472,0.088,0.945,0.168,1.42,0.233c1.666,0.226,3.369,0.45,5.017,0.121c1.278-0.256,2.717-1.061,3.015-2.431
			c0.415-1.906-1.438-3.274,0.217-5c0.679-0.708,1.608-1.109,2.51-1.492c1.181-0.501,2.361-1.003,3.542-1.504
			c1.051-0.446,2.245-0.896,3.299-0.455c0.945,0.395,1.473,1.386,1.927,2.305C293.941,360.641,294.648,361.872,295.347,363.098z"/>
	</g>
	<g>
		<path d="M335.779,360.9c-0.905,1.056-1.907,1.85-2.983,2.555c-1.1,0.649-2.245,1.189-3.386,1.726
			c-2.29,1.058-4.62,1.999-6.972,2.88c-4.72,1.723-9.502,3.237-14.46,4.284c-1.248,0.246-2.518,0.457-3.857,0.481
			c-0.67,0.002-1.366-0.054-2.054-0.228c-0.689-0.171-1.345-0.473-1.918-0.814c-0.289-0.169-0.562-0.347-0.826-0.522
			c-0.27-0.172-0.603-0.43-0.854-0.69c-0.519-0.54-0.873-1.132-1.189-1.702c-0.622-1.148-1.121-2.281-1.658-3.411
			c-2.062-4.513-4.605-8.848-6.238-13.709c-0.398-1.218-0.753-2.464-0.914-3.798c-0.077-0.667-0.105-1.357-0.009-2.078
			c0.091-0.712,0.34-1.493,0.882-2.139c0.26-0.322,0.605-0.592,0.949-0.783c0.331-0.179,0.693-0.345,1.13-0.425
			c0.434-0.079,0.947-0.049,1.393,0.147c0.452,0.191,0.783,0.504,1.031,0.811c0.943,1.263,1.193,2.534,1.534,3.763
			c0.309,1.232,0.553,2.453,0.887,3.606c0.171,0.588,0.353,1.098,0.625,1.625c0.272,0.545,0.564,1.085,0.866,1.619
			c1.218,2.13,2.571,4.22,4.145,6.064c0.786,0.867,1.681,1.863,2.591,1.949c1.032,0.101,2.228-0.298,3.326-0.763
			c2.227-0.969,4.332-2.311,6.393-3.686c1.031-0.692,2.048-1.408,3.064-2.129c0.519-0.343,0.967-0.758,1.638-1.066
			c0.648-0.28,1.336-0.359,1.986-0.365c0.652-0.003,1.283,0.057,1.903,0.107l0.923,0.066c0.316,0.013,0.742,0.078,1.051,0.269
			c0.658,0.363,1.042,0.947,1.393,1.466c0.339,0.507,0.679,1.095,1.062,1.247l0,0l-0.439,0.336
			c-0.035-0.526-0.039-1.053-0.013-1.579c0.028-0.53,0.075-1.043,0.187-1.584l0.142-0.694l0.41,0.582
			c0.516,0.732,1.046,1.459,1.595,2.166c0.548,0.706,1.099,1.422,1.694,2.062c0.533,0.641,1.362,0.868,2.215,1.082
			c0.426,0.1,0.862,0.179,1.304,0.255l0.674,0.122c0.116,0.024,0.23,0.047,0.361,0.085c0.065,0.019,0.134,0.041,0.224,0.084
			c0.061,0.043,0.093,0.032,0.204,0.165c0.035,0.034,0.098,0.159,0.092,0.293C335.876,360.745,335.833,360.823,335.779,360.9z
			 M335.163,360.402c-0.044,0.052-0.065,0.106-0.072,0.191c-0.01,0.105,0.051,0.202,0.062,0.217c0.079,0.086,0.055,0.052,0.07,0.065
			c-0.012-0.006-0.049-0.022-0.091-0.035c-0.085-0.028-0.191-0.054-0.294-0.078l-0.651-0.138c-0.442-0.09-0.89-0.185-1.337-0.303
			c-0.447-0.118-0.894-0.26-1.332-0.461c-0.435-0.182-0.88-0.527-1.172-0.883c-1.217-1.384-2.24-2.851-3.33-4.297l0.552-0.112
			c-0.092,0.466-0.139,0.979-0.159,1.475c-0.016,0.5-0.002,1.002,0.04,1.501l0.047,0.554l-0.486-0.218l0,0
			c-0.795-0.362-1.038-1.003-1.412-1.486c-0.342-0.503-0.703-0.985-1.158-1.219c-0.233-0.131-0.443-0.159-0.747-0.172l-0.945-0.048
			c-0.625-0.038-1.239-0.082-1.835-0.067c-0.594,0.017-1.168,0.104-1.666,0.333c-0.467,0.215-0.958,0.653-1.467,1.011
			c-1.004,0.744-2.013,1.484-3.04,2.203c-2.059,1.431-4.153,2.834-6.487,3.907c-1.174,0.505-2.408,1.016-3.888,0.922
			c-0.366-0.039-0.766-0.146-1.101-0.326c-0.33-0.174-0.613-0.376-0.874-0.589c-0.522-0.426-0.977-0.89-1.41-1.367
			c-1.706-1.922-3.117-4.017-4.42-6.19c-0.323-0.545-0.635-1.097-0.932-1.663c-0.314-0.575-0.572-1.239-0.759-1.846
			c-0.388-1.237-0.66-2.46-0.985-3.641c-0.321-1.153-0.693-2.384-1.291-3.111c-0.316-0.361-0.519-0.414-0.864-0.359
			c-0.178,0.036-0.391,0.131-0.604,0.255c-0.198,0.116-0.354,0.235-0.486,0.4c-0.553,0.624-0.623,1.81-0.494,2.936
			c0.126,1.148,0.441,2.321,0.808,3.475c1.513,4.64,3.976,9.012,6.058,13.57c0.536,1.123,1.051,2.273,1.622,3.318
			c0.287,0.519,0.591,1.002,0.941,1.361c0.187,0.184,0.347,0.314,0.602,0.479c0.256,0.168,0.508,0.33,0.757,0.475
			c1.889,1.238,4.335,0.814,6.73,0.353c4.808-1.031,9.568-2.539,14.224-4.225c2.33-0.846,4.639-1.753,6.891-2.766
			c1.128-0.502,2.227-1.056,3.313-1.613C333.165,361.654,334.39,361.21,335.163,360.402z"/>
	</g>
	<g>
		<path d="M253.293,377.196c0.933,0.43,2.065,0.389,3.101,0.591c1.045,0.205,2.118,0.338,3.19,0.457
			c2.151,0.215,4.324,0.29,6.494,0.293c4.353-0.002,8.667-0.376,12.976-1.146l6.495-1.077c1.082-0.19,2.181-0.334,3.194-0.569
			c1.031-0.237,2.049-0.552,3.039-0.936c1.953-0.768,3.939-1.781,5.31-3.191c0.158-0.176,0.313-0.356,0.422-0.535
			c0.054-0.089,0.109-0.178,0.142-0.261c0.021-0.042,0.039-0.084,0.048-0.122l0.02-0.058c0.021-0.061-0.035,0.082-0.026,0.209
			c0.022,0.176,0.009,0.071,0.01,0.09c-0.119-0.389-0.344-0.969-0.53-1.453c-0.394-1.013-0.809-2.023-1.233-3.028
			c-0.849-2.009-1.75-4-2.717-5.931c-0.243-0.482-0.495-0.956-0.755-1.419l-0.393-0.684c-0.199-0.318-0.095-0.179-0.222-0.274
			c-0.223-0.122-0.737-0.171-1.208-0.152c-0.489,0.02-1,0.091-1.509,0.188c-1.02,0.2-2.04,0.505-3.024,0.878
			c-0.974,0.377-1.957,0.829-2.725,1.398c-0.191,0.14-0.35,0.293-0.462,0.424c-0.055,0.069-0.077,0.112-0.097,0.149
			c-0.023,0.065-0.05,0.162-0.074,0.274c-0.09,0.461-0.136,0.999-0.167,1.525c-0.029,0.531-0.042,1.068-0.042,1.603l0.016,0.793
			l0.01,0.191l0.007,0.091l0.003,0.046c0.002,0.018,0.005,0.114,0,0.168c-0.067,0.476-0.226,0.59-0.334,0.756
			c-0.47,0.553-0.93,0.862-1.414,1.201c-0.482,0.324-0.977,0.613-1.5,0.874c-0.263,0.129-0.53,0.252-0.822,0.359
			c-0.286,0.096-0.616,0.226-1.071,0.198c-0.559-0.042-1.116-0.091-1.67-0.159c-2.219-0.262-4.393-0.719-6.538-1.225l-3.188-0.772
			c-0.977-0.211-2.001-0.116-2.901,0.314c-0.451,0.21-0.873,0.495-1.257,0.832c-0.405,0.347-0.689,0.682-0.909,1.14
			c-0.225,0.442-0.366,0.95-0.524,1.48c-0.172,0.521-0.298,1.129-0.829,1.65l-0.453,0.444l-0.198-0.609
			c-0.154-0.473-0.335-0.939-0.543-1.392c-0.207-0.447-0.447-0.903-0.71-1.291l0.647-0.207c-0.028,0.893-0.136,1.753-0.309,2.618
			c-0.187,0.858-0.422,1.72-0.859,2.521c-0.421,0.825-1.162,1.461-1.88,1.939c-0.365,0.246-0.736,0.477-1.099,0.707l-0.534,0.34
			c-0.083,0.056-0.167,0.114-0.231,0.167c-0.027,0.022-0.062,0.057-0.051,0.049l0.019-0.027c0.005-0.013,0.022-0.035,0.034-0.117
			c0.004-0.054-0.006-0.157-0.064-0.228C253.36,377.238,253.335,377.217,253.293,377.196z M252.923,377.897
			c-0.062-0.039-0.112-0.073-0.166-0.144c-0.067-0.096-0.095-0.222-0.081-0.304c0.013-0.11,0.041-0.156,0.061-0.191
			c0.027-0.049,0.049-0.075,0.065-0.092c0.079-0.091,0.13-0.122,0.186-0.167c0.107-0.077,0.204-0.135,0.302-0.193l0.571-0.318
			c0.377-0.203,0.744-0.411,1.093-0.641c0.717-0.452,1.313-0.975,1.678-1.696c0.382-0.711,0.614-1.523,0.773-2.34
			c0.15-0.819,0.239-1.67,0.25-2.493l0.015-1.113l0.632,0.906c0.32,0.458,0.571,0.908,0.811,1.385
			c0.235,0.474,0.442,0.962,0.621,1.46l-0.65-0.165c0.269-0.261,0.416-0.779,0.557-1.294c0.144-0.523,0.281-1.086,0.54-1.632
			c0.236-0.547,0.664-1.074,1.09-1.445c0.432-0.397,0.92-0.745,1.458-1.011c1.072-0.546,2.349-0.694,3.52-0.465l3.231,0.702
			c2.138,0.452,4.28,0.849,6.429,1.051c0.537,0.053,1.074,0.088,1.611,0.115c0.098,0.015,0.302-0.046,0.528-0.134
			c0.222-0.087,0.452-0.198,0.679-0.316c0.454-0.24,0.903-0.516,1.325-0.814c0.411-0.291,0.847-0.64,1.078-0.936
			c0.057-0.049,0.068-0.171,0.026,0.028c-0.004,0.02,0.003,0.081,0.003,0.065l-0.005-0.057l-0.011-0.114l-0.016-0.22l-0.035-0.853
			c-0.012-0.563-0.01-1.124,0.009-1.69c0.024-0.569,0.053-1.13,0.16-1.749c0.03-0.158,0.068-0.327,0.136-0.521
			c0.086-0.217,0.204-0.41,0.32-0.557c0.236-0.293,0.483-0.515,0.731-0.705c0.994-0.748,2.03-1.217,3.092-1.649
			c1.063-0.417,2.15-0.757,3.283-0.993c0.568-0.115,1.146-0.205,1.754-0.237c0.615-0.008,1.242-0.044,2.02,0.305
			c0.189,0.088,0.399,0.227,0.577,0.422c0.215,0.247,0.242,0.329,0.33,0.457c0.155,0.244,0.305,0.487,0.444,0.735
			c0.278,0.494,0.54,0.99,0.79,1.489c1.004,1.993,1.867,4.026,2.71,6.069c0.418,1.023,0.824,2.049,1.214,3.087
			c0.197,0.544,0.379,0.987,0.57,1.65c0.008,0.053,0.008-0.02,0.031,0.19c0.013,0.161-0.036,0.339-0.032,0.31l-0.046,0.137
			c-0.03,0.094-0.066,0.178-0.105,0.26c-0.074,0.17-0.164,0.315-0.254,0.459c-0.182,0.287-0.39,0.523-0.6,0.753
			c-0.855,0.889-1.822,1.525-2.811,2.102c-0.991,0.572-2.021,1.052-3.077,1.464c-1.056,0.412-2.139,0.751-3.248,1.009
			c-1.126,0.262-2.208,0.403-3.288,0.596l-6.497,1.094c-4.335,0.793-8.802,1.195-13.231,1.192c-2.22-0.01-4.44-0.13-6.656-0.376
			c-1.108-0.141-2.216-0.282-3.32-0.527C254.99,379.002,253.961,378.45,252.923,377.897z"/>
	</g>
	<g>
		<path d="M256.048,361.437c-1.286-1.232-2.572-2.461-4.135-2.998c-0.764-0.302-1.594-0.33-2.417-0.277
			c-0.832,0.108-1.661,0.298-2.505,0.55c-1.675,0.498-3.446,1.01-5.296,1.102c-1.849,0.116-3.706-0.263-5.415-0.916l0.369-0.963
			c1.62,0.547,3.296,0.84,4.987,0.76c1.697-0.065,3.357-0.553,5.088-0.982c0.86-0.224,1.765-0.404,2.693-0.489
			c0.932-0.029,1.918,0.03,2.789,0.431C253.978,358.41,255.172,359.908,256.048,361.437z"/>
	</g>
	<g>
		<path d="M324.634,345.15l0.342-1.193c0.155-0.384,0.355-0.753,0.533-1.131c0.242-0.339,0.478-0.69,0.749-1.008
			c0.309-0.28,0.579-0.614,0.924-0.848c1.331-1.025,2.89-1.626,4.39-2.224c1.508-0.591,3.001-1.181,4.349-1.996
			c1.35-0.807,2.527-1.851,3.45-3.096l0.824,0.62c-1.056,1.327-2.386,2.416-3.845,3.217c-1.458,0.811-3.015,1.357-4.539,1.893
			c-1.519,0.541-3.044,1.074-4.323,1.989c-0.335,0.209-0.589,0.509-0.891,0.76c-0.262,0.287-0.491,0.605-0.732,0.913
			c-0.177,0.349-0.378,0.688-0.539,1.046l-0.368,1.129L324.634,345.15z"/>
	</g>
	<g>
		<path class="sy11" d="M238.519,366.349c0.527,1.1,0.992,2.231,1.566,3.307c0.575,1.076,1.269,2.106,2.186,2.91"/>
	</g>
	<g class="sy12">
		<path class="sy8" d="M289.862,326.568c2.103-2.159,17.233-18.161,43.12-1.514c-3.112-5.372-3.92-5.776-8.086-7.32
			c-4.166-1.543-9.63-4.495-15.947-3.66c-6.317,0.834-10.609,2.554-13.797,5.451C290.75,323.523,289.862,326.568,289.862,326.568z"
			/>
	</g>
	<g class="sy12">
		<path class="sy8" d="M278.677,327.712c-4.281-2.228-24.019-4.947-37.494,24.269c-0.482-5.639-0.4-8.302,1.72-11.345
			c2.12-3.043,6.147-8.892,12.757-12.977c4.341-2.683,7.459-3.646,12.635-3.107S278.677,327.712,278.677,327.712z"/>
	</g>
	<g class="sy12">
		<path class="sy8" d="M346.991,358.632c-0.642,2.805-8.247,5.761-11.52,5.387c-2.531,3.748-13.679,11.238-23.579,12.496
			c0.046,0.484-0.346,1.019-0.346,1.019c3.846,4.278,9.842,9.566,9.707,13.132l-5.198-0.415l-7.858-13.965l2.655-2.465
			c0,0,18.993-9.151,21.467-10.929c2.474-1.778,7.622-3.19,9.948-5.214l5.375-2.068L346.991,358.632z"/>
	</g>
	<g class="sy12">
		<path class="sy8" d="M352.139,371.225c-0.123,0.096-4.498,1.737-4.069-15.34c0,0-3.401,17.315-0.948,20.272
			c3.612-0.142,5.517-1.778,5.517-1.778L352.139,371.225z"/>
	</g>
	<g class="sy12">
		<path class="sy8" d="M352.915,372.689c9.293,1.69,19.67-1.408,19.67-1.408s0.648,5.298,0.648,6.751
			c-2.482-0.003-15.945,1.692-17.7,1.294C353.398,376.541,352.915,372.689,352.915,372.689z"/>
	</g>
	<g class="sy12">
		<path class="sy8" d="M290.389,403.004c1.831-1.723,6.446-10.635,4.691-20.78c-0.877,0.801-11.118,2.611-19.798,3.471
			c-8.679,0.86-16.36,0.572-17.669,0.382l-1.127-2.423c0,0,6.415-0.279,8.652,0.211c2.238,0.49,23.885-2.867,23.885-2.867
			l7.168-1.481c0.884,4.31,1.061,10.412,0.176,14.07c-0.885,3.658-3.626,8.962-3.626,8.962s-5.33,4.215-6.511,5.383
			c-1.182,1.167,0.343,7.552,0.343,7.552s10.684,0.774,10.684,0.774c0.084,0.006,0.657-2.162,0.702-2.31
			c0.37-1.218,0.586-2.779,1.281-3.845c0.126-0.194,0.303-0.378,0.532-0.41c0.149-0.02,0.298,0.027,0.441,0.075
			c1.109,0.366,2.065,0.862,2.997,1.55c0.164,0.121,0.329,0.243,0.459,0.4c0.129,0.157,0.218,0.342,0.29,0.532
			c0.403,1.065,0.013,1.952,0.027,3.007c0.016,1.176-0.059,2.352-0.01,3.527c0.037,0.913,0.146,1.821,0.209,2.733
			c0,1.166,0.082,2.325,0.043,3.494c-0.038,1.138-0.242,2.29-0.004,3.405c0.024,0.112,0.048,0.227,0.03,0.34
			c-0.053,0.331-0.433,0.211-0.675,0.3c-0.165,0.061-0.255,0.189-0.44,0.224c-0.179,0.034-0.42-0.022-0.606-0.014
			c-1.135,0.046-2.23-0.005-3.363-0.104c-0.366-0.032-0.812-0.093-1.167,0.035c-0.221,0.08-0.354,0.256-0.544,0.362
			c-0.026-0.957,0.19-1.971,0.245-2.933c0.089-1.566,0.122-3.157-0.08-4.715c-0.131-1.01-0.415-2.994-1.747-3.103
			c-2.369-0.195-5.079-0.399-7.155-0.501c-4.245-3.852-3.104-9.581-3.104-9.581s-3.204-0.118-6.324-0.118
			c0.829-0.547,1.32-5.307,1.32-5.307L290.389,403.004z"/>
	</g>
	<g class="sy12">
		<path class="sy8" d="M255.511,378.153c1.474-1.162,3.031-3.868,3.183-4.664c0,1.942,0,1.681,0,1.681s2.318-2.025,2.856-4.199
			c0.538-2.174,2.123-2.58,4.124-2.441c2.001,0.139,10.375,1.224,12.418-0.024c0,0-1.845,0.239-4.44-0.474
			c-2.595-0.713-7.297-2.236-9.648-1.366c-2.352,0.87-3.304,2.738-3.975,4.077c-0.672,1.339-0.672,1.339-0.672,1.339l-1.343-2.764
			c0,0,0.489,1.255-0.159,2.961c-0.648,1.706-1.495,3.296-3.246,4.179s-1.501,1.088-1.501,1.088L255.511,378.153z"/>
	</g>
	<g class="sy12">
		<path class="sy8" d="M291.374,357.756c1.265,2.117,6.036,13.583,4.566,15.803c2.077-1.518,2.619-3.296,2.619-3.296
			s3.08,1.769,4.86,1.743c1.78-0.026,1.438-0.124,1.438-0.124s-6.954-3.849-13.058-17.119c0.191,1.64,0.305,2.41,0.305,2.41
			L291.374,357.756z"/>
	</g>
	<g class="sy12">
		<path class="sy8" d="M312.365,359.645c1.811-1.389,6.324-3.128,8.308-3.051c1.983,0.076,3.395,0.381,4.729,1.716
			c1.335,1.335,2.788,0.985,2.788,0.985l-0.271-2.122c0,0,0.878,3.12,2.365,3.768c1.487,0.648,3.705,1.198,3.705,1.198l1.482-1.489
			c0,0-1.627-0.003-3.182-0.863s-3.025-2.614-3.025-2.614l-2.015-2.41l-0.207,2.822c0,0-0.301-0.887-1.182-1.7
			c-0.881-0.812-2.092-1.397-3.171-1.347s-2.804-0.344-4.004,0.516C317.485,355.915,312.365,359.645,312.365,359.645z"/>
	</g>
	<g class="sy12">
		<path class="sy8" d="M324.03,339.575c0.228,1.228-1.852,3.675-3.166,3.974s0.62,0.632,0.62,0.632l2.775,1.004
			c0,0,1.053-0.683,0.942-2.355c-0.111-1.672-0.045-1.914-0.405-2.419C324.436,339.907,324.03,339.575,324.03,339.575z"/>
	</g>
	<g class="sy12">
		<path class="sy8" d="M255.036,357.173c0.416,1.099,1.053,2.555,3.9,1.922c-1.005,1.236-2.717,2.011-2.888,2.037
			c-0.171,0.026-0.595-0.464-0.807-1.328c-0.212-0.864-0.247-1.456-0.247-1.456L255.036,357.173z"/>
	</g>
	<g>
		<path class="sy8" d="M291.877,291.64"/>
	</g>
	<g class="sy12">
		<path class="sy8" d="M306.339,393.147c-0.032-0.086-0.059-0.173-0.088-0.258c-0.086-0.253-0.153-0.512-0.243-0.765
			c-0.233-0.659-0.506-1.304-0.786-1.944c-0.65-1.484-1.36-2.941-2.087-4.388c-0.504-1.005-1.017-2.006-1.546-2.999
			c0,0-2.998,0.291-4.836,0.691l-0.561-3.968l1.167-0.313c0,0,4.23-0.943,5.741-1.049c1.511-0.106,5.096-1.868,5.096-1.868
			s1.153,0.877,1.851,2.193c0.354,0.668-1.895,1.491-2.251,1.642c-0.699,0.295-1.412,0.559-2.129,0.808
			c-0.339,0.118-1.784,0.392-1.876,0.704c-0.049,0.165,0.011,0.341,0.072,0.503c0.754,1.995,1.771,3.896,2.322,5.956
			c0.215,0.806,0.357,1.629,0.476,2.455c0.158,1.105,0.275,2.216,0.349,3.329c0,0.008-0.473-0.35-0.521-0.422
			C306.425,393.36,306.378,393.254,306.339,393.147z"/>
	</g>
	<g class="sy12">
		<path class="sy8" d="M339.478,350.125c0.973-1.739,2.888-6.136,2.73-10.55c1.194,7.009,0.968,9.738,0.968,9.738l0.017,1.078
			L339.478,350.125z"/>
	</g>
	<g class="sy12">
		<path class="sy8" d="M237.708,364.393c0.218,0.668,3.592,8.105,5.317,9.165c1.936-1.518,3.457-2.639,3.457-2.639
			c-3.695-1.46-7.822-3.743-8.556-5.858"/>
	</g>
	<g class="sy12">
		<path class="sy8" d="M282.119,359.916c-0.027,1.611-1.982,4.647-2.983,5.614c-1.001,0.967-2.942,2.626-5.483,2.502
			c4.44,0.474,7.053-1.103,7.053-1.103l1.132-1.868L282.119,359.916z"/>
	</g>
	<g class="sy12">
		<path class="sy8" d="M297.418,351.22c1.547,3.399,5.197,9.012,7.466,8.87c2.269-0.142,9.61-2.001,11.706-3.518
			c-4.225,3.073-8.429,5.982-10.591,5.982s-2.831-0.046-4.036-1.421c-1.205-1.375-5.823-8.567-5.823-8.567L297.418,351.22z"/>
	</g>
	<g class="sy12">
		<path class="sy8" d="M338.746,332.303c0.494,0.759-2.817,3.706-5.764,5.159s-5.06,2.023-6.426,4.354c0,0,2.815-2.019,4.437-2.557
			c1.622-0.538,5.347-2.093,6.356-2.907c1.01-0.814,2.128-2.001,2.128-2.001L338.746,332.303z"/>
	</g>
	<g class="sy12">
		<path class="sy8" d="M236.679,357.077c0.887,0.384,4.265,1.282,6.14,0.7s9.149-2.777,11.835,1.773
			c-0.944-0.614-5.342-2.383-7.85-1.407s-2.018,0.822-4.708,1.098c-3.73,0.383-5.619-0.683-5.619-0.683L236.679,357.077z"/>
	</g>
</g>
</svg>
