<?xml version="1.0" encoding="utf-8"?>
<!-- Generator: Adobe Illustrator 23.0.4, SVG Export Plug-In . SVG Version: 6.00 Build 0)  -->
<svg version="1.1" id="Layer_1" xmlns="http://www.w3.org/2000/svg" xmlns:xlink="http://www.w3.org/1999/xlink" x="0px" y="0px"
	 viewBox="0 0 134.071 134.071" style="enable-background:new 0 0 134.071 134.071;" xml:space="preserve">
<style type="text/css">
	.st0{fill:#002B54;}
	.st1{fill:#FFFFFF;}
</style>
<g id="XMLID_1433_">
	<path id="XMLID_1439_" class="st0" d="M67.035,127.232L67.035,127.232c-33.654,0-60.936-27.282-60.936-60.936l0,0
		c0-33.654,27.282-60.936,60.936-60.936l0,0c33.654,0,60.936,27.282,60.936,60.936l0,0C127.972,99.95,100.69,127.232,67.035,127.232
		z"/>
	<g id="XMLID_1434_">
		<g id="XMLID_1436_">
			<rect id="XMLID_1438_" x="39.404" y="52.712" class="st1" width="12.612" height="40.742"/>
			<path id="XMLID_1437_" class="st1" d="M45.649,47.377c4.12,0,7.457-3.369,7.457-7.52c0-4.151-3.338-7.517-7.457-7.517
				c-4.12,0-7.457,3.366-7.457,7.517C38.192,44.008,41.529,47.377,45.649,47.377z"/>
		</g>
		<path id="XMLID_1435_" class="st1" d="M72.175,72.067c0-5.727,2.636-9.14,7.684-9.14c4.637,0,6.865,3.275,6.865,9.14
			c0,5.868,0,21.387,0,21.387h12.552c0,0,0-14.883,0-25.796c0-10.913-6.186-16.19-14.824-16.19c-8.642,0-12.278,6.732-12.278,6.732
			v-5.488H60.078v40.742h12.098C72.175,93.454,72.175,78.344,72.175,72.067z"/>
	</g>
</g>
</svg>
