<?xml version="1.0" encoding="utf-8"?>
<!-- Generator: Adobe Illustrator 25.2.1, SVG Export Plug-In . SVG Version: 6.00 Build 0)  -->
<svg version="1.1" id="US" xmlns="http://www.w3.org/2000/svg" xmlns:xlink="http://www.w3.org/1999/xlink" x="0px" y="0px"
	 viewBox="0 0 800 224" style="enable-background:new 0 0 800 224;" xml:space="preserve">
<style type="text/css">
	.st0{fill:#070606;}
	.st1{opacity:0.4;}
	.st2{fill:#1B0428;}
	.st3{fill:#E2B69F;}
	.st4{fill:#8EA29D;}
	.st5{fill:#7B1957;}
	.st6{fill:#F8FC45;}
	.st7{fill:#F12F94;}
	.st8{fill:#FFFFFF;}
	.st9{fill:#B2E2EC;}
	.st10{fill:#1B0C0F;}
	.st11{fill:#D672B7;}
	.st12{fill:#4DAC27;}
	.st13{fill:#C9A27E;}
	.st14{fill:#312521;}
	.st15{fill:#E891A2;}
	.st16{fill:#E4B510;}
	.st17{opacity:0.25;}
	.st18{fill:#236A48;}
</style>
<g>
	<g>
		<path class="st0" d="M350.367,82.032l-0.023-0.022c-1.667-1.471-3.548-2.607-5.588-3.383c-4.083-1.545-8.325-1.545-12.407,0
			c-2.045,0.774-3.895,1.915-5.503,3.392c-1.678,1.55-3.038,3.509-4.04,5.826c-1.002,2.311-1.51,5.004-1.51,8v38.125
			c0,3.132,0.51,5.861,1.514,8.109c1.005,2.25,2.368,4.143,4.026,5.603c1.608,1.551,3.465,2.729,5.514,3.505
			c2.037,0.769,4.126,1.163,6.203,1.163s4.165-0.392,6.205-1.163c2.045-0.774,3.929-1.951,5.6-3.493
			c1.614-1.483,2.941-3.372,3.943-5.616c1.004-2.248,1.514-4.977,1.514-8.109V95.845c0-2.994-0.509-5.687-1.51-8
			C353.3,85.538,351.977,83.582,350.367,82.032z M344.477,95.846v38.125c0,2.271-0.584,3.944-1.736,4.976
			c-1.19,1.067-2.561,1.587-4.191,1.587c-1.63,0-3.001-0.52-4.191-1.588c-1.152-1.028-1.735-2.702-1.735-4.974V95.846
			c0-2.271,0.584-3.944,1.735-4.974c1.192-1.067,2.561-1.587,4.191-1.587c1.63,0,2.999,0.52,4.191,1.585
			C343.894,91.905,344.477,93.578,344.477,95.846z"/>
		<polygon class="st0" points="355.46,89.287 366.86,89.287 366.86,151.747 378.192,151.747 378.192,89.287 389.592,89.287 
			389.592,78.074 355.46,78.074 		"/>
		<rect x="391.272" y="78.074" class="st0" width="11.33" height="73.672"/>
		<path class="st0" d="M432.43,78.954c-2.119-0.987-4.481-1.488-7.027-1.488c-2.998,0-5.63,0.555-7.818,1.65
			c-2.186,1.095-4.011,2.583-5.411,4.405c-1.476,1.826-2.594,4.028-3.324,6.543c-0.725,2.487-1.092,5.15-1.092,7.913
			c0,4.62,0.756,8.533,2.247,11.626c1.52,3.159,4.524,5.719,8.922,7.606l7.045,3.039c1.186,0.524,2.143,1.019,2.848,1.469
			c0.643,0.41,1.164,0.945,1.528,1.542c0.341,0.658,0.577,1.56,0.697,2.678c0.125,1.19,0.19,2.734,0.19,4.587
			c0,1.584-0.048,3.048-0.143,4.356c-0.089,1.206-0.369,2.248-0.831,3.098c-0.447,0.825-1.061,1.442-1.873,1.883
			c-0.827,0.446-2.023,0.671-3.562,0.671c-2.276,0-3.832-0.645-4.755-1.966c-0.984-1.408-1.46-2.944-1.46-4.697v-3.986h-11.33v4.593
			c0,2.524,0.458,4.89,1.362,7.03c0.901,2.136,2.136,4.037,3.67,5.647c1.548,1.625,3.418,2.911,5.56,3.821
			c2.142,0.913,4.482,1.377,6.956,1.377c3.252,0,6.061-0.572,8.347-1.698c2.29-1.132,4.169-2.711,5.588-4.7
			c1.338-1.892,2.319-4.217,2.92-6.906c0.589-2.649,0.888-5.553,0.888-8.627c0-2.634-0.131-5.034-0.393-7.141
			c-0.268-2.126-0.771-4.052-1.52-5.761c-0.813-1.634-1.944-3.093-3.363-4.334c-1.408-1.232-3.266-2.314-5.514-3.218l-7.534-3.143
			c-1.227-0.515-2.2-1.032-2.893-1.539c-0.645-0.469-1.14-1.032-1.47-1.668c-0.342-0.662-0.56-1.423-0.646-2.271
			c-0.092-0.922-0.142-2.091-0.142-3.474c0-1.17,0.092-2.307,0.281-3.374c0.176-1.024,0.503-1.947,0.954-2.72
			c0.461-0.726,1.053-1.315,1.809-1.804c0.709-0.46,1.681-0.692,2.88-0.692c2.259,0,3.807,0.731,4.732,2.234
			c0.985,1.596,1.486,3.53,1.486,5.745v3.072h11.332v-5.81c0-4.359-1.56-8.28-4.649-11.663
			C436.381,81.252,434.534,79.937,432.43,78.954z"/>
		<path class="st0" d="M458.224,102.63c-0.984,1.036-1.474,2.516-1.474,4.445v2.285h-3.119v1.708h3.119v17.156h2.092v-17.157h4.499
			v-1.708h-4.499v-2.344c0-1.317,0.321-2.335,0.959-3.05c0.638-0.717,1.533-1.075,2.685-1.075c0.685,0,1.318,0.069,1.9,0.21
			l0.157-1.729c-0.688-0.194-1.426-0.293-2.214-0.293C460.574,101.078,459.207,101.595,458.224,102.63z"/>
		<path class="st0" d="M473.434,109.012c-1.628,0-3.084,0.404-4.367,1.21c-1.286,0.808-2.277,1.937-2.982,3.392
			c-0.705,1.453-1.055,3.085-1.055,4.9v0.418c0,2.907,0.783,5.24,2.347,7c1.562,1.762,3.594,2.643,6.094,2.643
			c1.639,0,3.096-0.395,4.376-1.186c1.28-0.791,2.27-1.914,2.973-3.374c0.703-1.459,1.053-3.101,1.053-4.925v-0.436
			c0-2.905-0.779-5.24-2.336-7C477.98,109.894,475.945,109.012,473.434,109.012z M479.798,118.916c0,2.37-0.584,4.28-1.752,5.728
			c-1.169,1.448-2.694,2.171-4.578,2.171c-1.897,0-3.426-0.725-4.593-2.171s-1.752-3.298-1.752-5.553v-0.382
			c0-2.359,0.587-4.268,1.761-5.728c1.173-1.46,2.691-2.188,4.55-2.188c1.243,0,2.347,0.328,3.314,0.985
			c0.965,0.657,1.716,1.584,2.25,2.78c0.535,1.197,0.802,2.516,0.802,3.958v0.399H479.798z"/>
		<path class="st0" d="M487.363,112.359l-0.035-2.998h-2.042v18.863h2.075v-12.956c0.382-1.383,1.025-2.438,1.926-3.164
			c0.901-0.726,2.001-1.09,3.304-1.09c0.5,0,0.97,0.042,1.411,0.122l0.052-1.9c-0.336-0.15-0.796-0.225-1.377-0.225
			C490.237,109.012,488.467,110.127,487.363,112.359z"/>
		<path class="st0" d="M511.118,109.012c-1.463,0-2.825,0.415-4.078,1.247c-1.255,0.831-2.234,1.974-2.939,3.426
			s-1.055,3.087-1.055,4.9v0.749c0,1.755,0.359,3.338,1.081,4.751c0.722,1.414,1.73,2.513,3.025,3.304
			c1.297,0.791,2.746,1.186,4.351,1.186c2.917,0,5.142-1.11,6.677-3.331l-1.306-0.995c-0.697,0.894-1.474,1.545-2.33,1.954
			c-0.856,0.406-1.84,0.611-2.953,0.611c-1.861,0-3.403-0.712-4.63-2.136s-1.84-3.206-1.84-5.343v-0.401h13.46v-1.169
			c0-2.708-0.671-4.845-2.014-6.408C515.226,109.794,513.409,109.012,511.118,109.012z M516.506,117.153h-11.315
			c0.233-1.941,0.885-3.488,1.963-4.638c1.075-1.15,2.398-1.727,3.966-1.727c1.582,0,2.86,0.569,3.838,1.708
			c0.976,1.14,1.494,2.615,1.551,4.43v0.227L516.506,117.153z"/>
		<path class="st0" d="M534.027,112.028c-1.337-2.011-3.277-3.016-5.822-3.016c-2.244,0-4.02,0.87-5.327,2.606
			c-1.308,1.739-1.963,4.072-1.963,7v0.245c0,2.978,0.666,5.338,1.997,7.088c1.329,1.75,3.084,2.624,5.257,2.624
			c2.591,0,4.557-0.953,5.893-2.86l0.088,2.51h1.954v-26.781h-2.076v10.584l0,0V112.028z M534.027,123.361
			c-1.081,2.267-2.905,3.4-5.475,3.4c-1.753,0-3.115-0.695-4.078-2.085c-0.964-1.388-1.448-3.286-1.448-5.693
			c0-2.685,0.487-4.717,1.463-6.095c0.976-1.377,2.344-2.066,4.097-2.066c2.547,0,4.359,1.227,5.44,3.679v8.857h0.001V123.361z"/>
		<path class="st0" d="M552.802,123.013c-0.802,2.5-2.714,3.75-5.735,3.75c-2.907,0-4.359-1.796-4.359-5.388v-12.012h-2.076v12.276
			c0.023,2.29,0.558,4.02,1.602,5.186c1.047,1.17,2.573,1.753,4.584,1.753c2.755,0,4.76-0.913,6.014-2.739l0.035,2.389h2.023
			v-18.869h-2.092v13.653h0.003V123.013z"/>
		<path class="st0" d="M561.997,112.83c1.041-1.36,2.501-2.04,4.385-2.04c1.476,0,2.7,0.453,3.671,1.36s1.503,2.099,1.596,3.574
			h2.006c-0.092-2.011-0.811-3.633-2.153-4.863c-1.343-1.232-3.05-1.847-5.118-1.847c-1.627,0-3.048,0.39-4.264,1.169
			c-1.215,0.78-2.146,1.884-2.797,3.314c-0.651,1.429-0.976,3.075-0.976,4.934v0.628c0,2.907,0.723,5.22,2.171,6.939
			c1.448,1.721,3.408,2.581,5.884,2.581c1.255,0,2.432-0.268,3.531-0.803c1.101-0.535,1.978-1.274,2.643-2.222
			c0.663-0.947,1.024-1.997,1.081-3.147h-2.006c-0.08,1.303-0.614,2.364-1.596,3.183s-2.199,1.23-3.653,1.23
			c-1.895,0-3.361-0.674-4.402-2.023c-1.039-1.349-1.56-3.226-1.56-5.631v-0.611C560.436,116.095,560.957,114.19,561.997,112.83z"/>
		<path class="st0" d="M590.491,114.993c-0.036-1.884-0.66-3.351-1.875-4.402c-1.215-1.052-2.873-1.577-4.979-1.577
			c-2.034,0-3.748,0.549-5.142,1.648c-1.394,1.098-2.091,2.398-2.091,3.897l2.091,0.019c0-1.045,0.478-1.941,1.431-2.685
			c0.951-0.745,2.156-1.116,3.61-1.116c1.593,0,2.803,0.387,3.634,1.16c0.83,0.773,1.244,1.833,1.244,3.183v2.145h-3.784
			c-2.729,0-4.862,0.535-6.39,1.605c-1.528,1.07-2.291,2.523-2.291,4.359c0,1.545,0.56,2.825,1.682,3.838
			c1.121,1.008,2.589,1.517,4.402,1.517c1.266,0,2.469-0.261,3.6-0.777c1.135-0.517,2.066-1.254,2.797-2.205
			c0.057,1.163,0.191,2.04,0.402,2.634h2.231v-0.21c-0.382-0.907-0.574-2.271-0.574-4.097v-8.931h0V114.993z M588.415,123.013
			c-0.5,1.127-1.298,2.029-2.398,2.703c-1.098,0.674-2.347,1.01-3.741,1.01c-1.255,0-2.274-0.348-3.061-1.045
			c-0.783-0.697-1.175-1.574-1.175-2.634c0-1.292,0.588-2.304,1.761-3.042s2.8-1.118,4.882-1.141h3.732L588.415,123.013
			L588.415,123.013z"/>
		<path class="st0" d="M600.863,126.761c-0.884,0-1.516-0.258-1.892-0.769c-0.379-0.512-0.568-1.292-0.568-2.339v-12.585h3.907
			v-1.708h-3.907v-4.829h-2.091v4.829h-3.469v1.708h3.469v12.589c0,1.616,0.325,2.839,0.976,3.671
			c0.649,0.831,1.69,1.247,3.119,1.247c0.941,0,1.685-0.1,2.233-0.293l-0.088-1.695
			C601.775,126.703,601.212,126.761,600.863,126.761z"/>
		<path class="st0" d="M612.647,109.012c-1.628,0-3.084,0.404-4.367,1.21c-1.286,0.808-2.277,1.937-2.982,3.392
			c-0.705,1.453-1.055,3.085-1.055,4.9v0.418c0,2.907,0.783,5.24,2.347,7c1.562,1.762,3.594,2.643,6.094,2.643
			c1.639,0,3.096-0.395,4.376-1.186c1.28-0.791,2.27-1.914,2.973-3.374c0.703-1.459,1.053-3.101,1.053-4.925v-0.436
			c0-2.905-0.779-5.24-2.336-7C617.193,109.894,615.156,109.012,612.647,109.012z M619.011,118.916c0,2.37-0.584,4.28-1.752,5.728
			c-1.169,1.448-2.694,2.171-4.578,2.171c-1.897,0-3.426-0.725-4.594-2.171s-1.752-3.298-1.752-5.553v-0.382
			c0-2.359,0.588-4.268,1.761-5.728c1.173-1.46,2.691-2.188,4.55-2.188c1.243,0,2.347,0.328,3.314,0.985
			c0.965,0.657,1.716,1.584,2.25,2.78c0.535,1.197,0.802,2.516,0.802,3.958v0.399H619.011z"/>
		<path class="st0" d="M626.572,112.359l-0.035-2.998h-2.042v18.863h2.076v-12.956c0.382-1.383,1.025-2.438,1.926-3.164
			s2.001-1.09,3.304-1.09c0.5,0,0.97,0.042,1.411,0.122l0.052-1.9c-0.336-0.15-0.796-0.225-1.377-0.225
			C629.45,109.012,627.676,110.127,626.572,112.359z"/>
		<path class="st0" d="M646.316,119.071c-0.913-0.487-2.282-0.947-4.114-1.377c-1.83-0.429-3.093-0.904-3.784-1.42
			c-0.691-0.517-1.038-1.247-1.038-2.188c0-0.976,0.415-1.772,1.247-2.381c0.83-0.611,1.932-0.916,3.304-0.916
			c1.406,0,2.572,0.367,3.496,1.098c0.925,0.734,1.385,1.651,1.385,2.755h2.092c0-1.675-0.635-3.03-1.909-4.072
			c-1.272-1.039-2.961-1.56-5.064-1.56c-1.941,0-3.536,0.484-4.779,1.456c-1.243,0.971-1.866,2.199-1.866,3.687
			c0,0.941,0.224,1.744,0.672,2.405c0.447,0.663,1.132,1.224,2.055,1.682c0.925,0.46,2.224,0.867,3.898,1.221
			c1.675,0.356,2.927,0.847,3.759,1.473c0.83,0.628,1.244,1.459,1.244,2.493c0,0.976-0.447,1.786-1.341,2.422
			c-0.896,0.638-2.069,0.961-3.522,0.961c-1.557,0-2.811-0.339-3.759-1.021c-0.947-0.68-1.462-1.63-1.542-2.85h-2.092
			c0,1.628,0.683,2.973,2.051,4.035c1.366,1.064,3.147,1.597,5.343,1.597c2.068,0,3.745-0.478,5.03-1.431
			c1.284-0.953,1.927-2.225,1.927-3.818c0-0.976-0.221-1.807-0.661-2.493C647.905,120.146,647.228,119.559,646.316,119.071z"/>
		<path class="st0" d="M655.24,125.987c-0.261-0.276-0.614-0.412-1.056-0.412c-0.443,0-0.789,0.137-1.045,0.412
			c-0.258,0.276-0.384,0.612-0.384,1.007c0,0.389,0.126,0.711,0.384,0.975c0.256,0.264,0.603,0.395,1.045,0.395
			c0.443,0,0.794-0.131,1.056-0.395c0.261-0.264,0.393-0.587,0.393-0.975C655.632,126.599,655.501,126.263,655.24,125.987z"/>
		<polygon class="st0" points="655.038,121.145 655.162,102.838 653,102.838 653.105,121.145 		"/>
		<polygon class="st0" points="659.037,101.569 661.589,101.569 661.589,108.401 662.613,108.401 662.613,101.569 665.174,101.569 
			665.174,100.657 659.037,100.657 		"/>
		<path class="st0" d="M670.08,106.045c-0.187,0.546-0.324,0.959-0.412,1.241c-0.079-0.254-0.202-0.635-0.37-1.147l-1.833-5.483
			h-1.542v7.744h0.987v-6.592l2.24,6.592h0.925l2.25-6.481v6.481h0.987v-7.744h-1.377L670.08,106.045z"/>
	</g>
	<g>
		<g class="st1">
			<path class="st2" d="M286.536,173.045c0-3.056-35.195-5.534-78.609-5.534s-78.609,2.478-78.609,5.534
				c0,1.821,12.487,3.435,31.76,4.444c-0.319,0.168-0.492,0.342-0.492,0.521c0,1.383,10.08,2.504,22.514,2.504
				c10.686,0,19.626-0.828,21.931-1.938c0.962,0.003,1.926,0.005,2.896,0.005c2.887,0,5.736-0.011,8.542-0.032
				c2.21,1.124,11.213,1.968,21.99,1.968c12.434,0,22.514-1.121,22.514-2.504c0-0.282-0.426-0.552-1.198-0.805
				C276.18,176.189,286.536,174.702,286.536,173.045z"/>
		</g>
		<g>
			<path class="st3" d="M270.922,71.969c1.326,0.577,2.543,1.559,3.987,1.613c0.16,0.006,0.313,0.006,0.46,0.003
				c3.542-0.088,3.351-2.891,5.258-5.093c0.638-0.737,1.482-1.271,2.359-1.696c6.322-3.061,16.541,0.387,15.935,8.43
				c-0.2,2.663-1.372,5.158-2.745,7.448c-3.633,6.057-9.756,8.573-14.265,13.725c-1.065,1.218-2.271,2.301-3.48,3.374
				c-1.266,1.124-2.032,2.139-2.948,3.559c-2.234,3.471-4.868,6.748-7.145,10.226c-2.099,3.204-4.119,6.459-6.058,9.762
				c-0.777,1.325-2.618,5.79-4.775,5.161c-2.412-0.703-1.511-7.716-2.523-9.565c-1.847-3.375-3.437-5.216-3.039-9.36
				c0.221-2.288,1.28-4.142,2.657-5.892c0.87-1.106,1.576-2.392,2.35-3.565c0.441-0.671,2.116-2.441,2.116-3.21
				c1.096-1.664,2.094-3.497,3.422-4.982c1.602-1.79,2.962-3.823,4.308-5.83c0.661-0.987,1.305-2.031,1.49-3.203
				c0.262-1.673-0.538-2.925-0.931-4.466C266.673,75.744,266.474,70.036,270.922,71.969z"/>
		</g>
		<g>
			<path class="st0" d="M258.372,129.74c0.916-1.497,1.807-3.01,2.688-4.527c0.888-1.513,1.759-3.035,2.626-4.561
				c1.738-3.048,3.445-6.12,5.275-9.13c1.838-3.004,3.784-5.958,5.955-8.761c2.173-2.8,4.563-5.448,7.178-7.862
				c1.305-1.21,2.663-2.362,4.071-3.452c1.371-1.073,2.705-2.168,3.971-3.334c1.264-1.163,2.458-2.393,3.52-3.705
				c0.543-0.648,1.021-1.334,1.479-2.028c0.433-0.705,0.839-1.423,1.153-2.17c0.631-1.493,0.968-3.068,0.882-4.655
				c-0.072-1.588-0.532-3.167-1.156-4.725c-0.313-0.779-0.671-1.554-1.045-2.33c-0.378-0.774-0.771-1.57-1.163-2.335
				c-0.393-0.769-0.794-1.523-1.227-2.22c-0.432-0.694-0.904-1.334-1.423-1.769c-0.521-0.438-1.056-0.652-1.722-0.675
				c-0.663-0.022-1.423,0.14-2.183,0.387c-0.191,0.066-0.382,0.126-0.574,0.204l-0.285,0.109c-0.085,0.037-0.173,0.069-0.254,0.109
				c-0.333,0.153-0.643,0.332-0.925,0.543c-0.563,0.421-1.019,0.981-1.399,1.65c-0.752,1.349-1.215,3.016-1.655,4.68
				c-0.116,0.439-0.199,0.782-0.264,1.186c-0.063,0.395-0.108,0.802-0.142,1.223c-0.079,0.845-0.074,1.718-0.273,2.743
				c-0.109,0.506-0.274,1.109-0.754,1.673c-0.237,0.276-0.55,0.507-0.873,0.655c-0.322,0.146-0.645,0.225-0.941,0.261
				c-0.595,0.069-1.116,0.014-1.607-0.065c-0.245-0.042-0.484-0.089-0.715-0.146l-0.35-0.089c-0.148-0.042-0.29-0.088-0.421-0.142
				c-0.529-0.213-0.953-0.484-1.349-0.759c-0.395-0.276-0.756-0.564-1.104-0.85c-0.695-0.572-1.348-1.149-2.005-1.651
				c-0.646-0.498-1.341-0.947-1.907-1.072c-0.282-0.062-0.48-0.045-0.668,0.042c-0.19,0.083-0.404,0.274-0.6,0.546
				c-0.197,0.27-0.367,0.612-0.495,0.925c-0.119,0.322-0.184,0.651-0.199,0.988c-0.039,0.677,0.173,1.416,0.464,2.19
				c0.295,0.777,0.677,1.588,0.971,2.493c0.145,0.453,0.273,0.927,0.345,1.425c0.071,0.498,0.088,1.013,0.045,1.527
				c-0.106,1.028-0.475,2.005-0.987,2.828c-0.128,0.207-0.254,0.415-0.399,0.604c-0.142,0.197-0.282,0.389-0.409,0.554
				c-0.261,0.347-0.524,0.686-0.782,1.041c-2.071,2.811-4.115,5.67-6.157,8.522l-6.145,8.556c-1.028,1.423-2.065,2.843-3.122,4.248
				c-1.062,1.405-2.109,2.811-3.257,4.173l-0.652-0.538c1.069-1.36,2.072-2.805,3.079-4.236l2.993-4.324l5.93-8.697
				c1.98-2.9,3.934-5.812,5.977-8.689c0.253-0.359,0.521-0.719,0.782-1.078c0.139-0.185,0.253-0.35,0.364-0.512
				c0.12-0.162,0.217-0.332,0.318-0.5c0.402-0.674,0.643-1.388,0.709-2.109c0.052-0.723-0.08-1.462-0.348-2.222
				c-0.259-0.76-0.638-1.536-0.982-2.393c-0.335-0.854-0.666-1.832-0.635-2.92c0.014-0.537,0.113-1.081,0.291-1.585
				c0.194-0.503,0.413-0.954,0.728-1.399c0.313-0.438,0.737-0.893,1.348-1.183c0.301-0.143,0.638-0.233,0.968-0.259
				c0.33-0.026,0.648,0.005,0.938,0.066c0.583,0.126,1.062,0.359,1.497,0.604c0.433,0.25,0.825,0.523,1.195,0.8
				c0.74,0.557,1.409,1.14,2.075,1.675c0.655,0.527,1.34,1.042,1.929,1.272c0.072,0.029,0.139,0.049,0.202,0.066l0.288,0.068
				c0.196,0.045,0.387,0.079,0.575,0.108c0.375,0.057,0.737,0.074,1.015,0.035c0.139-0.019,0.245-0.054,0.322-0.091
				c0.076-0.039,0.12-0.076,0.168-0.134c0.096-0.108,0.205-0.373,0.267-0.722c0.126-0.702,0.14-1.594,0.21-2.495
				c0.034-0.455,0.079-0.921,0.151-1.392c0.068-0.464,0.188-0.976,0.294-1.386c0.219-0.863,0.45-1.732,0.734-2.604
				c0.287-0.873,0.621-1.755,1.101-2.62c0.478-0.86,1.135-1.702,1.978-2.341c0.418-0.319,0.871-0.583,1.334-0.799
				c0.116-0.056,0.233-0.102,0.348-0.153l0.328-0.128c0.216-0.088,0.443-0.163,0.665-0.242c0.901-0.298,1.88-0.546,2.976-0.509
				c0.544,0.019,1.116,0.125,1.651,0.338c0.537,0.21,1.021,0.52,1.431,0.868c0.825,0.703,1.383,1.513,1.88,2.302
				c0.492,0.796,0.911,1.593,1.317,2.387c0.406,0.799,0.789,1.576,1.18,2.379c0.387,0.803,0.765,1.624,1.104,2.473
				c0.683,1.692,1.204,3.537,1.272,5.466c0.085,1.929-0.359,3.866-1.116,5.59c-0.378,0.867-0.847,1.676-1.343,2.458
				c-0.517,0.765-1.053,1.514-1.647,2.205c-1.172,1.399-2.466,2.658-3.807,3.843c-1.343,1.183-2.751,2.284-4.166,3.343
				c-1.388,1.033-2.726,2.131-4.031,3.269c-5.23,4.552-9.535,10.087-13.387,15.919c-1.935,2.916-3.802,5.887-5.679,8.855
				c-0.939,1.483-1.883,2.965-2.843,4.436C260.368,126.849,259.379,128.302,258.372,129.74z"/>
		</g>
		<g>
			<path class="st3" d="M159.946,166.41c-0.689,1.093-1.266,2.259-1.944,3.346c-0.513,0.822-0.598,1.704-1.442,2.307
				c-1.625,1.163-2.557,0.777-4.393,0.379c-1.741-0.378-3.451-0.887-5.132-1.474c-1.738-0.608-3.647-0.017-5.431,0.245
				c-1.664,0.244-3.264,1.177-4.893,1.607c-2.475,0.654-4.997,0.367-7.395-0.456c-1.584-0.543-6.271-4.482-3.011-6.007
				c1.466-0.686,3.104-1.247,4.621-1.855c1.377-0.55,2.829-1.249,4.205-1.926c1.309-0.646,2.765-0.89,3.881-1.88
				c1.079-0.958,2.277-1.542,3.539-2.27c1.661-0.958,3.27-2.001,4.82-3.129c0.82-0.597,1.73-1.084,2.527-1.708
				c0.64-0.501,1.032-1.135,1.567-1.755c1.537-1.784,3.152-3.539,4.672-5.304c1.647-1.914,2.715-4.879,3.633-7.202
				c1.104-2.796,2.24-5.673,2.62-8.672c0.315-2.495,0.345-5.088,1.184-7.485c0.626-1.789,3.207-3.597,5.155-3.158
				c1.579,0.356,3.05,1.77,4.689,2.276c4.031,1.244,5.539,4.519,5.983,8.441c0.503,4.435-1.769,7.699-3.77,11.455
				c-2.597,4.873-3.929,10.35-6.843,15.06c-1.152,1.861-2.594,3.573-4.358,4.882C162.648,163.446,161.164,164.478,159.946,166.41z"
				/>
		</g>
		<g>
			<path class="st0" d="M162.914,117.186c0.268,1.727,0.452,3.472,0.504,5.227c0.046,1.753-0.009,3.514-0.173,5.266
				c-0.322,3.505-1.072,6.99-2.299,10.317c-0.608,1.665-1.321,3.294-2.136,4.871c-0.817,1.577-1.749,3.096-2.763,4.558
				c-2.034,2.919-4.405,5.602-7.073,7.97c-2.678,2.372-5.684,4.37-8.86,5.991c-3.172,1.633-6.546,2.834-9.808,4.004
				c-0.81,0.299-1.613,0.6-2.353,0.939c-0.369,0.17-0.72,0.35-1.025,0.543c-0.296,0.191-0.554,0.406-0.658,0.572
				c-0.114,0.171-0.113,0.231-0.096,0.426c0.04,0.197,0.162,0.486,0.358,0.779c0.188,0.299,0.447,0.594,0.691,0.876
				c0.259,0.268,0.529,0.524,0.825,0.743c0.587,0.441,1.252,0.769,1.975,0.985c0.726,0.211,1.505,0.315,2.305,0.344
				c1.605,0.056,3.284-0.187,4.973-0.483c1.693-0.299,3.406-0.671,5.176-0.947c0.443-0.069,0.888-0.133,1.338-0.185
				c0.228-0.023,0.429-0.059,0.746-0.069c0.284-0.009,0.544,0.006,0.796,0.029c0.998,0.102,1.872,0.319,2.74,0.541
				c1.721,0.447,3.378,0.964,4.999,1.263c0.797,0.145,1.614,0.234,2.234,0.139c0.308-0.046,0.513-0.146,0.6-0.233
				c0.048-0.048,0.08-0.083,0.12-0.177c0.091-0.211,0.184-0.423,0.281-0.629c0.773-1.655,1.688-3.218,2.768-4.691
				c1.084-1.463,2.333-2.846,3.873-3.967c0.771-0.555,1.628-1.032,2.563-1.368c0.942-0.321,1.957-0.495,2.987-0.418
				c0.532,0.037,1.058,0.16,1.539,0.335c0.478,0.17,0.924,0.401,1.266,0.557c0.159,0.077,0.322,0.12,0.276,0.108
				c-0.011,0.002-0.108,0.006-0.165,0.042c-0.066,0.042-0.079,0.054-0.071,0.051c0.023-0.018,0.1-0.159,0.157-0.308
				c0.063-0.151,0.119-0.338,0.173-0.524c0.105-0.372,0.196-0.806,0.271-1.184c0.032-0.154,0.039-0.29,0.034-0.353
				c-0.014-0.069,0.008-0.002,0.048,0.02c0.034,0.017-0.028-0.031-0.165-0.054c-0.134-0.028-0.319-0.042-0.526-0.052
				c-0.208-0.011-0.436-0.015-0.697-0.04c-0.261-0.028-0.558-0.057-0.931-0.224c-0.184-0.085-0.389-0.217-0.557-0.41
				c-0.168-0.191-0.281-0.426-0.336-0.634c-0.108-0.424-0.063-0.746-0.017-1.028c0.052-0.279,0.134-0.535,0.202-0.736l0.211-0.641
				c0.136-0.433,0.298-0.837,0.447-1.255c0.151-0.416,0.305-0.83,0.467-1.237c1.281-3.274,2.651-6.49,4.038-9.704
				c1.391-3.21,2.811-6.405,4.259-9.589c0.72-1.593,1.46-3.18,2.213-4.758c0.76-1.579,1.508-3.155,2.344-4.714l0.749,0.392
				c-1.516,3.115-2.857,6.351-4.243,9.548c-1.371,3.209-2.714,6.432-4.026,9.663c-1.309,3.232-2.601,6.476-3.792,9.737
				c-0.153,0.407-0.299,0.814-0.438,1.221s-0.295,0.816-0.413,1.22l-0.19,0.606c-0.071,0.214-0.111,0.378-0.134,0.529
				c-0.023,0.145-0.009,0.271,0,0.27c0.003,0.002-0.008-0.034-0.031-0.06c-0.023-0.029-0.042-0.039-0.026-0.034
				c0.028,0.012,0.171,0.042,0.344,0.048c0.174,0.009,0.382,0.008,0.612,0.009c0.231,0.003,0.483,0.008,0.78,0.051
				c0.29,0.048,0.661,0.13,1.039,0.423c0.185,0.145,0.347,0.345,0.452,0.552c0.106,0.207,0.163,0.413,0.194,0.598
				c0.054,0.37,0.026,0.675-0.014,0.95c-0.085,0.481-0.171,0.902-0.295,1.374c-0.063,0.234-0.13,0.467-0.228,0.722
				c-0.103,0.254-0.205,0.52-0.458,0.84c-0.137,0.159-0.302,0.335-0.571,0.466c-0.253,0.13-0.571,0.184-0.799,0.165
				c-0.486-0.034-0.732-0.17-0.973-0.262c-0.455-0.202-0.789-0.369-1.136-0.486c-0.342-0.119-0.675-0.188-1.016-0.208
				c-0.715-0.045-1.456,0.088-2.162,0.336c-0.706,0.265-1.389,0.648-2.029,1.121c-1.28,0.951-2.395,2.199-3.369,3.55
				c-0.976,1.352-1.829,2.822-2.524,4.336c-0.086,0.19-0.168,0.379-0.25,0.569c-0.125,0.31-0.342,0.646-0.609,0.899
				c-0.547,0.526-1.206,0.731-1.753,0.823c-1.115,0.167-2.059,0.026-2.976-0.122c-1.82-0.324-3.506-0.842-5.17-1.257
				c-0.825-0.204-1.653-0.402-2.396-0.476c-0.183-0.017-0.359-0.026-0.512-0.022c-0.119,0-0.35,0.032-0.557,0.056
				c-0.416,0.048-0.836,0.108-1.257,0.173c-1.682,0.261-3.385,0.626-5.133,0.934c-1.747,0.302-3.548,0.572-5.44,0.509
				c-0.944-0.034-1.91-0.159-2.862-0.436c-0.95-0.282-1.877-0.737-2.685-1.346c-0.407-0.302-0.773-0.649-1.118-1.01
				c-0.165-0.187-0.324-0.376-0.483-0.567c-0.151-0.196-0.298-0.401-0.439-0.618c-0.278-0.439-0.546-0.95-0.668-1.613
				c-0.052-0.336-0.054-0.712,0.029-1.079c0.08-0.37,0.253-0.706,0.447-0.978c0.396-0.554,0.857-0.873,1.289-1.155
				c0.436-0.27,0.867-0.483,1.292-0.674c0.853-0.381,1.69-0.683,2.521-0.982c1.662-0.589,3.298-1.143,4.907-1.762
				c1.608-0.617,3.181-1.295,4.718-2.046c3.073-1.499,5.964-3.348,8.561-5.563c2.59-2.231,4.971-4.732,7.016-7.485
				c2.045-2.754,3.756-5.761,5.072-8.943c1.306-3.186,2.244-6.538,2.751-9.969C163.112,124.169,163.203,120.669,162.914,117.186z"/>
		</g>
		<g>
			<g>
				<path class="st4" d="M169.734,143.459c0.575,2.936,13.813,25.177,28.764,27.973c-0.887-2.419-1.075-3.463-1.075-3.463
					s11.196,6.387,36.074,0.689c-1.732-0.614-3.361-1.701-3.361-1.701s16.921-4.681,22.704-16.252
					c6.695-13.401-16.985-7.711-16.985-7.711l-54.508-3.995L169.734,143.459z"/>
			</g>
			<g>
				<path class="st0" d="M169.969,143.589c0.048,0,0.066-0.048,0.063-0.043l0.045,0.143c0.034,0.096,0.066,0.193,0.106,0.29
					c0.076,0.194,0.162,0.387,0.25,0.58c0.177,0.385,0.37,0.765,0.571,1.143c0.401,0.756,0.83,1.497,1.274,2.231
					c0.89,1.466,1.843,2.896,2.84,4.293c1.995,2.792,4.171,5.459,6.535,7.94c2.367,2.473,4.928,4.769,7.745,6.68
					c2.811,1.898,5.912,3.423,9.207,4.021l0,0l-0.648,0.765c-0.162-0.592-0.315-1.186-0.452-1.786
					c-0.069-0.299-0.134-0.6-0.193-0.902c-0.059-0.305-0.113-0.6-0.153-0.925v-0.002l-0.099-0.527l0.493,0.248
					c1.317,0.661,2.788,1.124,4.243,1.506c1.466,0.376,2.957,0.663,4.459,0.87c3.005,0.418,6.048,0.534,9.082,0.464
					c3.036-0.074,6.065-0.361,9.073-0.786c3.008-0.429,5.992-1.016,8.95-1.721l0,0l-0.066,1.158
					c-0.606-0.278-1.177-0.595-1.724-0.939c-0.549-0.345-1.072-0.708-1.584-1.107l0,0l-0.461-0.307l0.538-0.173
					c2.105-0.674,4.18-1.51,6.189-2.45c2.011-0.944,3.972-1.991,5.836-3.186c1.861-1.197,3.634-2.527,5.249-4.023
					c1.61-1.499,3.053-3.175,4.196-5.036c0.561-0.933,1.078-1.904,1.446-2.91c0.375-0.998,0.617-2.052,0.506-3.039
					c-0.057-0.49-0.211-0.954-0.463-1.363c-0.253-0.407-0.612-0.751-1.025-1.036c-0.833-0.571-1.873-0.887-2.927-1.084
					c-2.128-0.378-4.356-0.322-6.553-0.137c-2.197,0.2-4.405,0.549-6.552,1.032l-0.079,0.017l-0.072-0.006l-27.246-2.066
					l-27.242-2.149l0,0l0.116-0.017C177.626,140.716,173.813,142.153,169.969,143.589z M169.502,143.33
					c3.897-1.537,7.825-3.075,11.75-4.581l0.056-0.022l0.06,0.005l0,0l27.265,1.846l27.259,1.927l-0.15,0.012
					c2.217-0.504,4.436-0.857,6.692-1.069c2.251-0.194,4.538-0.264,6.825,0.134c1.135,0.213,2.291,0.544,3.317,1.237
					c0.507,0.347,0.976,0.789,1.315,1.332c0.339,0.543,0.543,1.166,0.615,1.784c0.137,1.247-0.154,2.435-0.558,3.52
					c-0.409,1.093-0.954,2.103-1.551,3.081c-1.212,1.946-2.726,3.679-4.398,5.216c-1.67,1.544-3.514,2.877-5.437,4.06
					c-1.926,1.181-3.93,2.224-5.997,3.121c-2.071,0.89-4.173,1.685-6.356,2.281l0.077-0.48l0,0c0.543,0.285,1.115,0.547,1.685,0.777
					c0.572,0.231,1.152,0.429,1.73,0.577l2.108,0.541l-2.176,0.617l0,0c-3.001,0.657-6.029,1.197-9.081,1.573
					c-3.05,0.375-6.122,0.609-9.196,0.628c-3.075,0.014-6.156-0.159-9.199-0.64c-1.522-0.237-3.03-0.557-4.516-0.967
					c-1.486-0.423-2.944-0.902-4.348-1.641l0.395-0.279l0,0c0.08,0.268,0.185,0.557,0.29,0.834c0.106,0.279,0.217,0.557,0.333,0.834
					c0.231,0.554,0.476,1.101,0.731,1.645l0.424,0.908l-1.072-0.143l0,0c-3.505-0.692-6.701-2.339-9.562-4.331
					c-2.865-2.008-5.432-4.384-7.793-6.925c-2.356-2.549-4.512-5.273-6.484-8.121c-0.984-1.425-1.924-2.88-2.802-4.376
					c-0.438-0.748-0.862-1.505-1.257-2.279c-0.197-0.387-0.389-0.779-0.566-1.18c-0.088-0.2-0.176-0.402-0.253-0.612
					c-0.04-0.103-0.076-0.211-0.113-0.319l-0.049-0.167C169.485,143.589,169.478,143.434,169.502,143.33z"/>
			</g>
		</g>
		<g>
			<path class="st5" d="M181.415,135.725c-4.459,7.377,3.548,21.661,12.781,25.074c-0.666-2.222,0.547-5.041,0.547-5.041
				s1.146,11.765,24.363,10c-1.422-0.904-2.692-3.361-2.082-3.161c9.057,2.954,19.106-2.871,18.059-3.559
				c-2.689-1.769,3.301-0.945,9.352-8.109c-7.975-3.161-6.017-15.393-6.017-15.393l-11.646-1.201l-35.598-0.207L181.415,135.725z"/>
		</g>
		<g>
			<g>
				<path class="st4" d="M169.892,141.857c-10.862-17.685-9.242-32.497-6.953-43.639c0,0,1.952,2.17,4.284,2.62
					c-1.306-4.032-2.612-8.718-0.433-14.431l2.894,2.432c0,0-0.688-14.231,18.317-22.94l-1.275,6.469c0,0,9.887-17.358,47.084-8.897
					c-3.909,2.396-5.602,5.849-5.602,5.849s19.971-6.342,32.748,20.402c-3.488-2.046-6.467-1.468-6.467-1.468
					s13.478,13.785,9.431,30.748l-2.487-2.754c0,0,2.461,15.964-6.319,28.169c0,0-8.496-8.41-21.501-8.317
					c-13.005,0.093-45.838-2.034-47.841-1.662C183.768,134.807,169.892,141.857,169.892,141.857z"/>
			</g>
			<g>
				<path class="st0" d="M169.818,142.121c-0.581-0.816-1.189-1.779-1.618-2.569c-0.481-0.82-0.917-1.665-1.365-2.504
					c-0.865-1.695-1.655-3.428-2.361-5.198c-1.417-3.537-2.453-7.233-3.075-11.003c-0.62-3.77-0.817-7.611-0.623-11.429
					c0.184-3.819,0.748-7.608,1.482-11.34l0.258-1.309l0.939,0.984l0,0c0.221,0.287,0.507,0.601,0.789,0.882
					c0.287,0.284,0.592,0.552,0.91,0.802c0.638,0.495,1.346,0.904,2.119,1.135l-0.311,0.352l0,0c-0.82-2.321-1.559-4.728-1.761-7.25
					c-0.105-1.257-0.077-2.532,0.093-3.792c0.168-1.26,0.478-2.501,0.894-3.702l0.29-0.837l0.72,0.575l0,0l2.657,2.712l-0.449,0.222
					l0,0c-0.025-0.682,0.023-1.326,0.099-1.98c0.074-0.652,0.19-1.298,0.33-1.937c0.282-1.28,0.68-2.533,1.186-3.744
					c0.503-1.21,1.106-2.381,1.793-3.5c0.692-1.115,1.471-2.176,2.313-3.184c0.834-1.016,1.769-1.941,2.725-2.842
					c0.493-0.432,0.975-0.88,1.494-1.283l0.768-0.617l0.793-0.583c2.122-1.545,4.399-2.867,6.763-3.995l1.371-0.654l-0.273,1.52l0,0
					l-1.776,6.37l-0.501-0.19l0,0c0.578-0.945,1.274-1.745,2.017-2.521c0.746-0.766,1.553-1.469,2.395-2.126
					c1.695-1.298,3.537-2.401,5.477-3.287c1.937-0.893,3.955-1.601,6.015-2.145c2.062-0.535,4.162-0.908,6.273-1.175
					c4.228-0.478,8.501-0.501,12.732-0.148c4.233,0.35,8.431,1.028,12.576,1.923l1.692,0.365l-1.469,0.981h-0.002
					c-0.567,0.318-1.132,0.651-1.661,1.039c-0.538,0.378-1.045,0.802-1.533,1.251c-0.489,0.447-0.947,0.933-1.377,1.442
					c-0.427,0.507-0.836,1.053-1.17,1.608l-0.327-0.381h0.002c1.733-0.503,3.493-0.694,5.267-0.732
					c1.772-0.031,3.548,0.137,5.29,0.486c3.486,0.697,6.809,2.165,9.739,4.183c2.934,2.018,5.491,4.553,7.667,7.354
					c2.186,2.799,4.014,5.858,5.579,9.03l1.07,2.17l-2.182-1.149l0,0c-0.436-0.293-0.887-0.58-1.363-0.813
					c-0.472-0.25-0.97-0.439-1.479-0.614c-0.51-0.167-1.036-0.29-1.571-0.372c-0.529-0.08-1.09-0.119-1.604-0.082l0.143-0.458l0,0
					c1.951,2.048,3.614,4.313,5.095,6.704c1.471,2.396,2.718,4.939,3.662,7.603c0.942,2.663,1.573,5.452,1.795,8.291
					c0.228,2.837,0.02,5.718-0.601,8.51l0,0l-0.501,1.409l-0.76-1.087l-2.143-3.064l0,0l0.472-0.225
					c0.356,2.469,0.443,4.942,0.379,7.421c-0.077,2.476-0.325,4.953-0.794,7.397c-0.467,2.442-1.139,4.854-2.071,7.175
					c-0.913,2.328-2.117,4.549-3.54,6.621l0,0l-0.455,0.655l-0.594-0.569c-0.618-0.594-1.34-1.183-2.057-1.724
					c-0.725-0.546-1.473-1.062-2.242-1.545c-1.54-0.965-3.155-1.818-4.833-2.52c-1.673-0.712-3.412-1.266-5.181-1.682
					c-1.772-0.401-3.579-0.648-5.395-0.728c-0.455-0.017-0.907-0.02-1.365-0.028l-1.397-0.006l-2.788-0.045
					c-1.858-0.042-3.713-0.103-5.568-0.17c-3.708-0.136-7.415-0.307-11.119-0.487c-7.409-0.356-14.815-0.786-22.218-1.11
					c-0.925-0.039-1.85-0.071-2.772-0.094c-0.46-0.009-0.924-0.018-1.372-0.009c-0.236,0.009-0.421,0.003-0.614,0.059
					c-0.197,0.051-0.413,0.126-0.624,0.202c-1.704,0.649-3.389,1.442-5.067,2.217c-1.676,0.785-3.346,1.588-5.011,2.399l-2.501,1.23
					l-1.246,0.617l-0.621,0.31l-0.311,0.156l-0.156,0.077l-0.077,0.039l-0.043,0.022
					C169.983,142.119,169.889,142.131,169.818,142.121z M169.966,141.595c-0.045-0.025-0.113-0.025-0.154-0.003l0.034-0.017
					l0.077-0.04l0.154-0.079l0.31-0.159l0.62-0.316l1.241-0.629l2.486-1.249c1.661-0.828,3.324-1.648,4.999-2.452
					c1.681-0.796,3.346-1.601,5.101-2.288c0.224-0.083,0.444-0.165,0.695-0.231c0.254-0.076,0.54-0.076,0.765-0.086
					c0.478-0.015,0.941-0.009,1.408-0.005c0.931,0.014,1.86,0.039,2.788,0.068c7.418,0.254,14.824,0.615,22.233,0.9
					c3.704,0.145,7.408,0.281,11.111,0.382c1.852,0.049,3.702,0.094,5.553,0.117l2.774,0.019l1.385-0.008
					c0.469,0.005,0.944,0.003,1.416,0.015c1.889,0.066,3.773,0.305,5.62,0.705c1.844,0.415,3.658,0.975,5.403,1.699
					c1.75,0.712,3.434,1.582,5.045,2.57c0.805,0.495,1.588,1.025,2.35,1.588c0.766,0.569,1.491,1.146,2.217,1.829l-1.047,0.088l0,0
					c1.414-1.941,2.634-4.038,3.579-6.263c0.964-2.217,1.687-4.546,2.211-6.919c0.527-2.375,0.84-4.799,0.985-7.235
					c0.133-2.432,0.114-4.896-0.163-7.306l-0.102-0.877l0.574,0.654l0,0l2.831,2.444l-1.261,0.322l0,0
					c0.661-2.631,0.938-5.364,0.794-8.089c-0.137-2.725-0.669-5.434-1.513-8.047c-0.845-2.615-1.995-5.136-3.374-7.529
					c-1.385-2.384-2.979-4.68-4.817-6.721l0,0l-0.389-0.336l0.532-0.122c0.6-0.137,1.17-0.179,1.762-0.185
					c0.587,0,1.178,0.043,1.761,0.14c0.581,0.103,1.166,0.23,1.73,0.424c0.571,0.179,1.119,0.418,1.664,0.675l0,0l-1.11,1.021
					c-1.449-3.13-3.155-6.148-5.206-8.911c-2.042-2.766-4.449-5.27-7.229-7.286c-2.776-2.014-5.938-3.508-9.295-4.267
					c-1.676-0.378-3.395-0.584-5.118-0.597c-1.715-0.008-3.466,0.145-5.105,0.578h-0.002l-0.609,0.236l0.281-0.615
					c0.299-0.654,0.649-1.247,1.038-1.833c0.389-0.581,0.81-1.144,1.272-1.676c0.461-0.532,0.95-1.044,1.48-1.516
					c0.521-0.483,1.09-0.913,1.671-1.331h0.002l0.222,1.346c-4.075-0.958-8.202-1.701-12.362-2.122
					c-4.159-0.426-8.354-0.476-12.51-0.085c-2.074,0.224-4.137,0.55-6.163,1.038c-2.023,0.497-4.008,1.152-5.915,1.988
					c-1.909,0.831-3.724,1.873-5.397,3.107c-0.831,0.623-1.628,1.292-2.365,2.023c-0.728,0.728-1.434,1.522-1.971,2.367l0,0
					l-0.697,1.442l0.191-1.63l0.773-6.567l0,0l1.096,0.865c-2.324,1.018-4.566,2.22-6.661,3.644l-0.783,0.537l-0.759,0.569
					c-0.513,0.372-0.988,0.788-1.48,1.187c-0.948,0.836-1.878,1.698-2.714,2.649c-0.842,0.944-1.625,1.94-2.328,2.993
					c-0.699,1.056-1.317,2.165-1.841,3.318c-0.527,1.152-0.951,2.351-1.266,3.58c-0.311,1.221-0.53,2.501-0.538,3.736l0,0
					l0.086,0.589l-0.534-0.367l-3.13-2.149l0,0l1.01-0.262c-0.444,1.104-0.791,2.247-1.008,3.417
					c-0.217,1.17-0.304,2.367-0.265,3.567c0.071,2.405,0.665,4.786,1.368,7.135l0,0l0.17,0.412l-0.481-0.06
					c-0.896-0.111-1.752-0.433-2.54-0.856c-0.393-0.214-0.774-0.45-1.14-0.709c-0.37-0.264-0.709-0.524-1.069-0.859l0,0l1.197-0.325
					c-0.796,3.679-1.416,7.388-1.665,11.128c-0.261,3.738-0.136,7.502,0.402,11.212c0.54,3.71,1.49,7.363,2.823,10.879
					c0.665,1.758,1.412,3.486,2.237,5.178c0.427,0.839,0.843,1.684,1.305,2.506c0.224,0.41,0.461,0.843,0.658,1.19
					C169.585,140.818,169.77,141.195,169.966,141.595z"/>
			</g>
		</g>
		<g>
			
				<ellipse transform="matrix(0.0207 -0.9998 0.9998 0.0207 92.7242 325.4035)" class="st6" cx="212.467" cy="115.37" rx="22.639" ry="11.66"/>
		</g>
		<g>
			<path class="st7" d="M197.701,90.019c-21.905-5.113-25.939,12.391-25.939,12.391s-3.429-2.885-3.109-11.685
				c2.393,6.439,4.455,7.125,5.924,7.534c0.569,0.157,0,0-0.234-0.541c-4.08-9.418,2.944-22.4,9.869-26.812
				c-2.045,6.849-1.099,10.968,0.726,15.791c0.362-1.437-1.107-22.523,41.234-21.644c0,0-5.549,5.597-5.892,10.431
				c7.053-3.967,23.694-1.423,35.721,9.472c0,0-5.81-1.624-7.815,1.369c10.03,6.14,15.161,18.192,13.745,26.585
				c-3.577-4.439-15.52-22.926-20.519-18.195c-6.976-7.882-22.497,0.694-28.421,11.367
				C212.991,106.084,202.103,91.046,197.701,90.019z"/>
		</g>
		<g>
			<g>
				<path class="st8" d="M205.955,112.584c0.33,11.505-1.143,21.267-10.343,22.531c-7.152,0.984-14.183-7.815-16.041-18.024
					c-2.074-11.403-2.802-21.25,10.174-24.645C202.72,89.051,205.516,97.239,205.955,112.584z"/>
			</g>
			<g>
				<path class="st0" d="M206.388,112.572c0.085,2.422,0.099,4.853-0.056,7.287c-0.162,2.43-0.48,4.876-1.212,7.249
					c-0.372,1.183-0.847,2.347-1.496,3.431c-0.645,1.084-1.462,2.089-2.458,2.902c-0.991,0.819-2.151,1.428-3.363,1.823
					c-0.608,0.196-1.227,0.344-1.852,0.444c-0.628,0.106-1.292,0.15-1.94,0.114c-1.303-0.06-2.569-0.432-3.719-0.982
					c-1.155-0.547-2.2-1.278-3.138-2.108c-1.873-1.665-3.374-3.676-4.553-5.833c-1.183-2.157-2.077-4.456-2.698-6.817
					c-0.308-1.18-0.546-2.385-0.737-3.579c-0.196-1.193-0.378-2.39-0.532-3.593c-0.311-2.401-0.534-4.826-0.43-7.264
					c0.103-2.424,0.591-4.905,1.836-7.056c0.624-1.067,1.428-2.031,2.355-2.845c0.925-0.822,1.98-1.479,3.079-2.02
					c1.099-0.544,2.256-0.956,3.428-1.286c1.173-0.327,2.362-0.587,3.571-0.754c1.207-0.156,2.433-0.234,3.654-0.12
					c1.217,0.117,2.435,0.424,3.531,1.001c1.098,0.574,2.043,1.422,2.78,2.409c0.742,0.988,1.301,2.094,1.742,3.235
					c0.874,2.291,1.32,4.706,1.636,7.112C206.131,107.73,206.285,110.153,206.388,112.572z M205.522,112.597
					c-0.042-2.407-0.134-4.812-0.378-7.199c-0.251-2.382-0.631-4.766-1.428-7.014c-0.404-1.118-0.91-2.205-1.611-3.158
					c-0.694-0.954-1.579-1.77-2.617-2.331c-1.033-0.571-2.203-0.874-3.386-0.978c-1.184-0.108-2.385-0.034-3.567,0.153
					c-2.359,0.39-4.688,1.079-6.815,2.136c-1.061,0.535-2.057,1.189-2.948,1.961c-0.89,0.774-1.656,1.685-2.257,2.7
					c-1.217,2.031-1.741,4.422-1.864,6.803c-0.071,1.195-0.034,2.396,0.056,3.593c0.093,1.197,0.222,2.393,0.41,3.582
					c0.185,1.189,0.398,2.375,0.626,3.559c0.217,1.186,0.484,2.345,0.84,3.488c0.702,2.282,1.667,4.479,2.893,6.509
					c1.234,2.018,2.702,3.906,4.487,5.401c0.894,0.74,1.857,1.391,2.887,1.875c1.03,0.483,2.129,0.786,3.24,0.857
					c0.558,0.035,1.106,0.008,1.67-0.083c0.567-0.086,1.129-0.207,1.673-0.373c1.087-0.335,2.111-0.85,2.996-1.556
					c1.792-1.405,2.953-3.514,3.674-5.738c0.726-2.239,1.073-4.612,1.266-6.993C205.551,117.406,205.573,115.001,205.522,112.597z"
					/>
			</g>
		</g>
		<g>
			<path class="st0" d="M209.313,112.073c0.581,11.569-1.274,20.318-10.493,21.45c-6.806,0.836-14.035-6.734-15.891-16.943
				c-2.074-11.403-2.802-21.25,10.174-24.645C206.077,88.539,208.473,95.352,209.313,112.073z"/>
			<path class="st0" d="M197.766,133.814c-6.674,0-13.281-7.417-15.06-17.193c-2.109-11.594-2.788-21.47,10.34-24.907
				c5.088-1.331,8.598-1.116,11.048,0.678c3.856,2.825,4.944,9.62,5.449,19.668l0,0c0.332,6.595-0.173,11.276-1.588,14.737
				c-1.69,4.132-4.668,6.407-9.104,6.951C198.487,133.793,198.126,133.814,197.766,133.814z M198.753,91.313
				c-1.599,0-3.449,0.282-5.593,0.842c-12.749,3.337-12.075,13.017-10.007,24.385c1.833,10.074,8.851,17.586,15.64,16.756
				c7.807-0.958,10.982-7.5,10.293-21.213l0,0c-0.498-9.915-1.553-16.605-5.263-19.322
				C202.503,91.794,200.842,91.313,198.753,91.313z"/>
		</g>
		<g>
			<g>
				<path class="st8" d="M219.586,114.88c1.363,11.503,6.654,21.828,15.904,20.952c7.19-0.68,11.728-10.587,11.497-21.217
					c-0.241-11.084-2.136-21.327-15.551-21.663C218.022,92.618,217.498,97.277,219.586,114.88z"/>
			</g>
			<g>
				<path class="st0" d="M219.979,114.833c0.31,2.396,0.788,4.769,1.48,7.075c0.694,2.301,1.597,4.544,2.814,6.589
					c1.214,2.037,2.76,3.895,4.706,5.153c1.937,1.264,4.274,1.796,6.563,1.534c1.118-0.12,2.197-0.504,3.172-1.086
					c0.976-0.58,1.841-1.358,2.607-2.23c1.527-1.759,2.621-3.906,3.414-6.143c0.791-2.245,1.278-4.603,1.523-6.985
					c0.126-1.19,0.191-2.39,0.194-3.588c-0.005-1.201-0.035-2.419-0.093-3.624c-0.123-2.412-0.367-4.819-0.922-7.15
					c-0.557-2.321-1.456-4.584-2.936-6.438c-0.736-0.925-1.618-1.732-2.604-2.385c-0.985-0.658-2.082-1.149-3.218-1.508
					c-1.138-0.361-2.324-0.578-3.519-0.706c-1.193-0.123-2.407-0.143-3.619-0.139c-1.209,0.011-2.418,0.074-3.607,0.25
					c-1.184,0.177-2.362,0.478-3.402,1.041c-1.042,0.554-1.907,1.403-2.453,2.449c-0.555,1.042-0.825,2.225-0.975,3.411
					c-0.287,2.387-0.139,4.822,0.057,7.236C219.372,110.005,219.671,112.419,219.979,114.833z M219.191,114.927
					c-0.261-2.424-0.509-4.851-0.669-7.29c-0.146-2.438-0.245-4.897,0.082-7.352c0.171-1.221,0.48-2.447,1.072-3.562
					c0.581-1.119,1.531-2.049,2.643-2.634c1.11-0.597,2.331-0.902,3.545-1.106c1.218-0.196,2.447-0.273,3.673-0.299
					c1.223-0.02,2.45-0.014,3.681,0.097c1.227,0.117,2.452,0.325,3.641,0.688c1.189,0.356,2.339,0.867,3.397,1.537
					c1.056,0.671,2.011,1.51,2.811,2.475c1.611,1.937,2.597,4.297,3.218,6.684c0.623,2.399,0.916,4.856,1.087,7.303
					c0.082,1.227,0.137,2.442,0.165,3.678c0.02,1.237-0.025,2.473-0.133,3.707c-0.228,2.464-0.711,4.914-1.517,7.273
					c-0.811,2.351-1.937,4.638-3.591,6.584c-0.827,0.968-1.799,1.838-2.92,2.5c-1.116,0.663-2.385,1.112-3.693,1.247
					c-1.28,0.136-2.586,0.071-3.844-0.237c-1.258-0.304-2.45-0.853-3.517-1.56c-2.139-1.432-3.749-3.459-4.976-5.617
					c-1.234-2.17-2.116-4.499-2.782-6.871C219.899,119.793,219.459,117.366,219.191,114.927z"/>
			</g>
		</g>
		<g>
			<g>
				<path class="st0" d="M223.021,113.466c1.594,11.474,7.23,23.873,15.817,20.321c5.073-2.099,11.273-9.759,11.6-20.13
					c0.461-14.633-2.136-21.327-15.551-21.663C221.473,91.659,220.656,96.432,223.021,113.466z"/>
			</g>
			<g>
				<path class="st0" d="M223.452,113.406c0.348,2.368,0.851,4.714,1.528,7.004c0.68,2.288,1.528,4.529,2.637,6.621
					c0.555,1.044,1.18,2.049,1.892,2.973c0.712,0.924,1.523,1.766,2.444,2.43c0.917,0.663,1.955,1.136,3.041,1.291
					c1.084,0.163,2.2-0.002,3.249-0.39c1.053-0.39,2.043-0.999,2.965-1.693c0.928-0.692,1.778-1.5,2.564-2.365
					c0.789-0.865,1.513-1.796,2.163-2.777c0.648-0.984,1.221-2.018,1.735-3.082c1.022-2.133,1.745-4.418,2.142-6.766
					c0.205-1.175,0.31-2.359,0.352-3.562c0.046-1.203,0.076-2.405,0.069-3.608c0-1.203-0.059-2.404-0.163-3.599
					c-0.109-1.193-0.259-2.387-0.53-3.551c-0.265-1.164-0.623-2.308-1.13-3.378c-0.51-1.069-1.169-2.065-1.994-2.9
					c-0.822-0.839-1.792-1.528-2.853-2.042c-1.061-0.517-2.196-0.882-3.354-1.15c-2.325-0.523-4.735-0.669-7.136-0.672
					c-1.2,0.006-2.402,0.056-3.585,0.233c-1.178,0.177-2.353,0.458-3.408,0.991c-1.055,0.526-1.958,1.329-2.552,2.338
					c-0.601,1.007-0.91,2.17-1.078,3.341c-0.167,1.175-0.196,2.373-0.17,3.57c0.028,1.197,0.117,2.393,0.233,3.59
					C222.75,108.639,223.091,111.024,223.452,113.406z M222.593,113.525c-0.299-2.398-0.58-4.802-0.754-7.221
					c-0.085-1.209-0.143-2.422-0.14-3.641c0.005-1.217,0.063-2.439,0.267-3.65c0.205-1.206,0.557-2.415,1.207-3.482
					c0.648-1.069,1.633-1.915,2.746-2.449c1.116-0.534,2.314-0.837,3.517-1.018c1.206-0.176,2.419-0.256,3.631-0.288
					c2.418-0.048,4.866,0.026,7.261,0.547c1.195,0.256,2.375,0.634,3.482,1.186c1.106,0.546,2.136,1.272,2.99,2.171
					c0.857,0.897,1.531,1.954,2.043,3.07c0.512,1.118,0.867,2.296,1.124,3.486c0.517,2.385,0.678,4.816,0.754,7.235
					c0.039,1.21,0.042,2.422,0.026,3.631c-0.017,1.21-0.074,2.438-0.227,3.65c-0.301,2.429-0.939,4.822-1.903,7.09
					c-0.959,2.27-2.277,4.393-3.898,6.277c-1.647,1.847-3.608,3.513-6.043,4.413c-1.214,0.435-2.566,0.614-3.87,0.395
					c-1.308-0.207-2.518-0.796-3.539-1.559c-1.024-0.769-1.889-1.699-2.637-2.694c-0.748-0.996-1.388-2.059-1.951-3.153
					c-1.124-2.191-1.961-4.499-2.624-6.845C223.395,118.33,222.915,115.938,222.593,113.525z"/>
			</g>
		</g>
		<g>
			<g>
				<path class="st9" d="M167.263,114.658c4.461-7.997,19.441-28.916,40.133-16.349c1.203-16.457-22.826-20.332-34.958-4.993
					c4.637,0.439,5.122,0.998,5.122,0.998S169.025,96.195,167.263,114.658z"/>
			</g>
			<g>
				<g>
					<path class="st0" d="M167.341,114.409c-0.003-0.068-0.026-0.134-0.055-0.174c-0.029-0.042-0.052-0.057-0.049-0.077
						c-0.006-0.005,0.045-0.089,0.071-0.139l0.093-0.17l0.375-0.677c0.251-0.45,0.518-0.891,0.785-1.332
						c0.54-0.879,1.101-1.744,1.688-2.592c1.169-1.702,2.456-3.323,3.838-4.865c2.757-3.079,5.954-5.841,9.657-7.815
						c1.85-0.979,3.823-1.755,5.875-2.234c2.052-0.472,4.18-0.655,6.28-0.49c2.103,0.145,4.166,0.638,6.122,1.369
						c1.957,0.734,3.796,1.727,5.514,2.873l0,0l-0.398,0.205c0.054-1.914-0.185-3.833-0.888-5.577
						c-0.347-0.871-0.782-1.702-1.315-2.466s-1.163-1.456-1.855-2.077c-1.388-1.241-3.052-2.16-4.816-2.785
						c-1.769-0.617-3.637-0.964-5.522-1.038c-3.772-0.157-7.577,0.663-11.022,2.256c-3.452,1.59-6.547,3.963-9.073,6.877
						l-0.18-0.424c0.879,0.032,1.759,0.077,2.646,0.162c0.443,0.043,0.887,0.094,1.337,0.171c0.225,0.037,0.452,0.085,0.683,0.142
						c0.117,0.032,0.234,0.063,0.359,0.108c0.062,0.02,0.128,0.049,0.196,0.079c0.039,0.019,0.071,0.032,0.114,0.059
						c0.054,0.039,0.059,0.017,0.199,0.153l0.003,0.003l0.655,0.723l-0.97,0.228c-0.154,0.037-0.398,0.122-0.598,0.208
						c-0.21,0.088-0.418,0.193-0.623,0.301c-0.41,0.222-0.803,0.486-1.18,0.773c-0.759,0.571-1.437,1.26-2.054,1.998
						c-1.229,1.49-2.199,3.21-2.959,5.019c-0.765,1.809-1.345,3.704-1.779,5.633c-0.219,0.965-0.406,1.938-0.566,2.916l-0.221,1.439
						c-0.029,0.2-0.077,0.378-0.15,0.575S167.404,114.168,167.341,114.409z M167.186,114.91c-0.009-0.256-0.037-0.526-0.054-0.825
						c-0.018-0.298-0.012-0.615,0.012-0.911l0.02-0.221l0.023-0.188l0.046-0.373l0.094-0.746c0.136-0.995,0.299-1.984,0.495-2.971
						c0.39-1.972,0.93-3.923,1.667-5.809c0.734-1.886,1.692-3.707,2.959-5.332c0.638-0.806,1.348-1.57,2.166-2.222
						c0.407-0.328,0.837-0.634,1.297-0.899c0.231-0.131,0.466-0.258,0.714-0.369c0.256-0.114,0.48-0.21,0.808-0.298l-0.313,0.951
						l0.002,0.003c0.1,0.097,0.057,0.048,0.066,0.057c-0.003-0.005-0.02-0.014-0.029-0.022c-0.031-0.017-0.062-0.037-0.102-0.057
						c-0.077-0.04-0.168-0.077-0.258-0.114c-0.187-0.071-0.382-0.137-0.584-0.197c-0.402-0.122-0.82-0.224-1.241-0.316
						c-0.843-0.187-1.701-0.336-2.563-0.475l-0.438-0.069l0.256-0.355c2.304-3.184,5.392-5.863,8.97-7.627
						c3.565-1.773,7.585-2.7,11.599-2.51c2.001,0.096,4.006,0.461,5.896,1.172c1.889,0.702,3.679,1.739,5.15,3.147
						c1.483,1.388,2.614,3.156,3.247,5.072c0.634,1.918,0.796,3.957,0.566,5.92l-0.048,0.409l-0.35-0.204l0,0
						c-3.565-1.944-7.448-3.317-11.438-3.517c-3.981-0.227-7.977,0.752-11.517,2.626c-1.776,0.925-3.459,2.046-5.035,3.303
						c-1.579,1.255-3.067,2.634-4.458,4.109c-1.395,1.473-2.681,3.048-3.913,4.666c-0.614,0.811-1.201,1.642-1.77,2.487
						c-0.284,0.422-0.561,0.85-0.836,1.278l-0.407,0.646l-0.221,0.358c-0.06,0.091-0.145,0.188-0.239,0.258
						C167.337,114.82,167.25,114.867,167.186,114.91z"/>
				</g>
			</g>
		</g>
		<g>
			<g>
				<path class="st9" d="M258.732,115.853c-4.125-8.175-18.226-29.697-39.42-17.999c-0.518-16.493,23.649-19.367,35.135-3.539
					c-4.651,0.247-5.159,0.785-5.159,0.785S257.737,97.333,258.732,115.853z"/>
			</g>
			<g>
				<g>
					<path class="st0" d="M258.798,116.108c-0.063-0.046-0.148-0.096-0.237-0.17c-0.089-0.074-0.171-0.174-0.228-0.268l-0.207-0.367
						l-0.379-0.663c-0.256-0.439-0.517-0.877-0.782-1.312c-0.532-0.868-1.086-1.722-1.665-2.558
						c-1.164-1.668-2.384-3.295-3.716-4.825c-1.328-1.531-2.757-2.971-4.284-4.29c-1.522-1.323-3.156-2.51-4.893-3.509
						c-3.459-2.018-7.409-3.161-11.397-3.101c-3.995,0.034-7.932,1.244-11.574,3.039l0,0l-0.358,0.19l-0.031-0.41
						c-0.148-1.971,0.099-4.001,0.811-5.892c0.712-1.887,1.914-3.608,3.454-4.933c1.527-1.346,3.36-2.308,5.275-2.931
						c1.918-0.632,3.935-0.913,5.94-0.925c4.017-0.023,7.995,1.07,11.485,2.99c3.502,1.91,6.475,4.714,8.646,7.992l0.242,0.364
						l-0.439,0.051c-0.867,0.102-1.73,0.217-2.581,0.367c-0.424,0.076-0.847,0.16-1.254,0.265c-0.204,0.051-0.402,0.109-0.592,0.173
						c-0.091,0.034-0.184,0.066-0.262,0.103c-0.042,0.017-0.074,0.037-0.105,0.052c-0.009,0.008-0.028,0.017-0.031,0.02
						c0.009-0.009-0.037,0.04,0.068-0.054l0.003-0.003l-0.274-0.964c0.324,0.102,0.544,0.207,0.794,0.332
						c0.242,0.122,0.472,0.258,0.699,0.398c0.449,0.285,0.867,0.608,1.258,0.953c0.791,0.686,1.469,1.477,2.072,2.31
						c1.2,1.675,2.08,3.536,2.735,5.449c0.66,1.915,1.116,3.887,1.425,5.873c0.156,0.993,0.278,1.991,0.372,2.988l0.063,0.749
						l0.031,0.375l0.015,0.19l0.011,0.221c0.012,0.296,0.006,0.614-0.025,0.911C258.857,115.584,258.818,115.853,258.798,116.108z
						 M258.664,115.601c-0.054-0.242-0.125-0.472-0.19-0.671c-0.065-0.2-0.105-0.379-0.126-0.581l-0.157-1.443
						c-0.12-0.984-0.267-1.964-0.446-2.937c-0.355-1.946-0.856-3.863-1.545-5.702c-0.685-1.838-1.581-3.597-2.748-5.138
						c-0.586-0.765-1.235-1.48-1.969-2.083c-0.364-0.304-0.746-0.583-1.147-0.822c-0.2-0.117-0.404-0.231-0.609-0.327
						c-0.196-0.096-0.435-0.19-0.589-0.233l-0.959-0.268l0.685-0.695l0.003-0.003c0.146-0.13,0.148-0.108,0.205-0.145
						c0.045-0.023,0.077-0.035,0.116-0.054c0.069-0.026,0.137-0.052,0.199-0.069c0.126-0.04,0.245-0.066,0.364-0.093
						c0.234-0.048,0.463-0.085,0.689-0.113c0.453-0.059,0.897-0.091,1.343-0.116c0.888-0.048,1.77-0.057,2.651-0.052l-0.199,0.416
						c-2.402-3.016-5.397-5.516-8.78-7.247c-3.377-1.733-7.144-2.711-10.919-2.711c-1.886-0.003-3.767,0.265-5.56,0.808
						c-1.789,0.55-3.488,1.4-4.927,2.583c-0.717,0.592-1.374,1.258-1.938,1.998c-0.566,0.74-1.035,1.553-1.417,2.409
						c-0.774,1.715-1.093,3.622-1.118,5.536l-0.389-0.222l0,0c1.764-1.073,3.644-1.991,5.628-2.641
						c1.983-0.648,4.066-1.055,6.172-1.113c2.105-0.077,4.223,0.194,6.254,0.751c2.031,0.564,3.969,1.422,5.778,2.476
						c3.619,2.126,6.698,5.016,9.324,8.208c1.315,1.599,2.535,3.272,3.633,5.021c0.552,0.871,1.076,1.761,1.579,2.66
						c0.25,0.452,0.498,0.902,0.729,1.363l0.347,0.691l0.085,0.174c0.023,0.049,0.071,0.137,0.065,0.14
						c0.002,0.02-0.022,0.034-0.052,0.074C258.695,115.468,258.668,115.533,258.664,115.601z"/>
				</g>
			</g>
		</g>
		<g>
			
				<ellipse transform="matrix(0.0207 -0.9998 0.9998 0.0207 92.166 302.3791)" class="st8" cx="200.435" cy="104.143" rx="5.685" ry="3.986"/>
			<path class="st0" d="M200.376,110.145c-0.022,0-0.043,0-0.065,0c-2.37-0.049-4.242-2.78-4.173-6.086
				c0.068-3.306,2.042-5.957,4.422-5.907c2.37,0.049,4.242,2.78,4.173,6.086C204.666,107.513,202.717,110.145,200.376,110.145z
				 M200.495,98.776c-2.001,0-3.67,2.359-3.73,5.295c-0.062,2.962,1.536,5.406,3.56,5.448c0.017,0,0.035,0,0.052,0
				c2.001,0,3.67-2.359,3.73-5.295c0.062-2.962-1.536-5.406-3.56-5.448C200.53,98.776,200.512,98.776,200.495,98.776z"/>
		</g>
		<g>
			
				<ellipse transform="matrix(0.0207 -0.9998 0.9998 0.0207 77.8037 307.6884)" class="st8" cx="195.964" cy="114.129" rx="2.843" ry="1.992"/>
			<path class="st0" d="M195.935,117.132c-0.011,0-0.022,0-0.032,0c-1.184-0.025-2.12-1.389-2.086-3.044
				c0.017-0.791,0.25-1.533,0.655-2.086c0.418-0.571,0.985-0.874,1.556-0.867c1.186,0.025,2.122,1.389,2.086,3.042
				C198.08,115.816,197.106,117.132,195.935,117.132z M195.994,111.446c-0.47,0-0.921,0.262-1.271,0.74
				c-0.369,0.503-0.58,1.181-0.595,1.909c-0.031,1.48,0.768,2.703,1.781,2.725c0.009,0,0.019,0,0.026,0
				c1.001,0,1.835-1.18,1.866-2.648l0,0c0.031-1.48-0.768-2.703-1.781-2.723C196.012,111.446,196.003,111.446,195.994,111.446z"/>
		</g>
		<g>
			
				<ellipse transform="matrix(0.0207 -0.9998 0.9998 0.0207 130.5249 341.5369)" class="st8" cx="239.603" cy="104.141" rx="5.685" ry="3.986"/>
			<path class="st0" d="M239.545,110.145c-0.022,0-0.043,0-0.065,0c-2.37-0.049-4.242-2.78-4.173-6.086
				c0.032-1.582,0.498-3.064,1.311-4.173c0.837-1.143,1.958-1.758,3.112-1.735c2.37,0.049,4.242,2.78,4.173,6.086l0,0
				C243.835,107.513,241.886,110.145,239.545,110.145z M239.664,98.776c-0.941,0-1.841,0.523-2.541,1.479
				c-0.737,1.007-1.16,2.362-1.19,3.816c-0.062,2.962,1.536,5.406,3.56,5.448c0.017,0,0.035,0,0.052,0
				c2.001,0,3.67-2.359,3.73-5.295c0.062-2.962-1.536-5.406-3.56-5.448C239.699,98.776,239.681,98.776,239.664,98.776z"/>
		</g>
		<g>
			
				<ellipse transform="matrix(0.0207 -0.9998 0.9998 0.0207 116.1613 346.8445)" class="st8" cx="235.131" cy="114.127" rx="2.843" ry="1.992"/>
			<path class="st0" d="M235.104,117.132c-0.011,0-0.022,0-0.032,0c-1.184-0.025-2.122-1.389-2.086-3.044
				c0.017-0.791,0.25-1.533,0.655-2.086c0.418-0.572,0.987-0.876,1.556-0.867c1.184,0.025,2.122,1.389,2.086,3.042
				c-0.017,0.791-0.248,1.533-0.655,2.086C236.217,116.825,235.676,117.132,235.104,117.132z M235.163,111.446
				c-0.47,0-0.921,0.262-1.271,0.74c-0.369,0.503-0.58,1.181-0.595,1.909c-0.031,1.48,0.768,2.703,1.781,2.725
				c0.481,0.003,0.941-0.253,1.297-0.739c0.369-0.503,0.58-1.181,0.595-1.909l0,0c0.031-1.48-0.768-2.703-1.781-2.723
				C235.181,111.446,235.172,111.446,235.163,111.446z"/>
		</g>
		<g>
			<path class="st10" d="M213.056,151.325c-0.725,0.02-1.446,0.06-2.149,0.083c-1.816,0.06-2.402,0.631-4.677,1.553
				c-1.116,0.453-2.321,0.931-2.911,1.981c-1.873-0.72-2.883-2.586-4.338-3.898c-2.227-2.009-2.245-4.482-2.746-5.688
				c-0.695-1.668,0.449-0.328,0.695-1.949c0.029-0.196,0.076-0.416,0.245-0.517c0.116-0.069,0.259-0.062,0.393-0.046
				c2.012,0.241,3.432,2.008,5.124,3.124c0.552,0.365,1.388-0.339,2-0.094c0.654,0.261,1.271-0.37,1.83-0.023
				c1.226,0.76,3.053,0.771,4.447,0.817c1.732,0.059,3.465,0.025,5.192-0.1c1.437-0.105,1.991,0.282,3.223-0.426l6.788-3.067
				c0.742-0.426,1.725-0.467,2.368,0.097c0.005,0.003,0.008,0.008,0.012,0.011c0.136,0.13,0.16,0.335,0.17,0.523
				c0.103,2.092-0.638,4.214-2.021,5.787c-0.893,1.015-1.493,2.145-2.092,3.341c-0.369,0.739-1.705,1.923-2.524,1.258
				c-1.451-1.177-3.126-1.878-4.942-2.396C215.834,151.325,214.439,151.288,213.056,151.325z"/>
		</g>
		<g>
			<path class="st11" d="M213.133,157.616c-1.377-0.065-2.749-0.241-4.099-0.526c-1.294-0.273-2.493-0.731-3.753-1.102
				c-0.806-0.237-2.638-0.592-1.383-1.667c0.947-0.811,2.094-1.391,3.247-1.846c1.207-0.476,2.288-0.543,3.528-0.819
				c1.631-0.362,2.965-0.509,4.612-0.228c1.567,0.267,2.887,0.843,4.393,1.352c0.877,0.296,1.818,0.615,2.361,1.42
				c0.415,0.615-4.518,3.122-4.974,3.237c-0.426,0.108-0.865,0.143-1.303,0.168C214.888,157.654,214.009,157.657,213.133,157.616z"
				/>
		</g>
		<g>
			<path class="st0" d="M196.313,143.764c0.497,1.796,1.261,3.491,2.314,4.982c1.039,1.499,2.35,2.788,3.821,3.847
				c1.479,1.049,3.115,1.883,4.84,2.449c1.722,0.574,3.525,0.917,5.338,0.979c1.812,0.079,3.634-0.108,5.375-0.595
				c1.747-0.463,3.397-1.257,4.862-2.313c1.459-1.067,2.715-2.426,3.679-3.994c0.982-1.562,1.658-3.323,2.149-5.155l0.305,0.052
				c-0.193,1.915-0.706,3.823-1.576,5.591c-0.877,1.762-2.128,3.369-3.676,4.64c-1.536,1.289-3.36,2.213-5.266,2.819
				c-1.917,0.586-3.926,0.836-5.92,0.779c-3.983-0.139-7.944-1.466-11.102-3.93c-1.579-1.223-2.936-2.737-3.957-4.445
				c-1.013-1.712-1.687-3.614-1.946-5.554L196.313,143.764z"/>
		</g>
		<g>
			<path class="st0" d="M203.28,154.937c1.081-1.399,2.612-2.446,4.265-3.124c0.418-0.157,0.84-0.31,1.266-0.449l1.303-0.328
				l1.328-0.197c0.446-0.031,0.893-0.066,1.34-0.085c1.787-0.028,3.584,0.225,5.272,0.808c1.684,0.575,3.284,1.473,4.512,2.74
				l-0.156,0.188c-1.449-0.924-3.021-1.556-4.643-1.961c-1.624-0.396-3.294-0.581-4.959-0.538c-0.415,0.032-0.831,0.045-1.246,0.068
				l-1.237,0.159l-1.224,0.236c-0.401,0.106-0.797,0.228-1.203,0.33c-1.587,0.503-3.101,1.254-4.462,2.31L203.28,154.937z"/>
		</g>
		<g>
			<g>
				<path class="st12" d="M236.665,126.086c-13.165,0.128-20.254,4.484-24.514,4.526c-4.26,0.042-11.434-4.176-24.597-4.048
					c-13.164,0.128-14.783,9.628-31.188,12.709c19.671,12.582,30.742-0.544,39.57,4.566c8.828,5.11,23.959,4.962,32.685-0.319
					c8.726-5.281,25.209,13.634,40.777-3.604C252.129,138.127,249.828,125.958,236.665,126.086z"/>
			</g>
			<g>
				<path class="st0" d="M236.669,126.613c-3.477,0.076-6.94,0.49-10.319,1.257c-1.69,0.379-3.363,0.83-5.024,1.335
					c-1.662,0.51-3.309,1.069-5.018,1.577c-0.854,0.254-1.733,0.483-2.661,0.645c-0.467,0.076-0.947,0.136-1.451,0.145
					c-0.503,0.003-0.988-0.043-1.459-0.108c-1.863-0.296-3.536-0.839-5.224-1.311c-3.354-0.982-6.708-1.801-10.135-2.256
					c-1.712-0.231-3.434-0.378-5.161-0.45c-0.863-0.037-1.729-0.049-2.594-0.049l-1.274,0.032c-0.421,0.035-0.847,0.051-1.264,0.103
					c-1.678,0.19-3.335,0.537-4.91,1.15c-1.584,0.591-3.085,1.414-4.556,2.324c-1.471,0.913-2.919,1.907-4.412,2.854
					c-1.491,0.951-3.042,1.832-4.647,2.597c-3.218,1.528-6.657,2.541-10.141,3.099l0,0l0.102-0.523
					c2.111,1.267,4.308,2.384,6.592,3.261c2.284,0.874,4.658,1.49,7.068,1.776c2.409,0.307,4.848,0.285,7.263-0.002
					c2.419-0.278,4.808-0.819,7.232-1.36c2.419-0.52,4.928-1.102,7.597-0.863c1.323,0.12,2.661,0.497,3.852,1.143l0.813,0.438
					c0.258,0.146,0.532,0.267,0.799,0.399c0.265,0.134,0.543,0.248,0.817,0.367c0.273,0.123,0.552,0.231,0.831,0.338
					c2.234,0.867,4.597,1.442,6.991,1.775c2.396,0.342,4.829,0.438,7.25,0.348c2.422-0.097,4.836-0.415,7.186-0.97
					c2.342-0.572,4.638-1.358,6.731-2.503l0.8-0.45c0.304-0.174,0.623-0.324,0.948-0.449c0.652-0.253,1.334-0.404,2.009-0.476
					c1.357-0.143,2.675,0.008,3.932,0.264c2.518,0.523,4.859,1.392,7.204,2.173c2.339,0.791,4.675,1.534,7.061,2.003
					c2.381,0.475,4.812,0.648,7.202,0.364c2.387-0.287,4.714-1.073,6.809-2.296c2.099-1.218,3.986-2.809,5.676-4.589l0,0
					l0.183,0.476c-1.51-0.168-3.013-0.406-4.495-0.751c-1.479-0.359-2.934-0.82-4.345-1.392c-2.836-1.124-5.452-2.737-7.906-4.504
					c-2.461-1.756-4.823-3.642-7.462-4.987c-1.315-0.672-2.695-1.2-4.123-1.527C239.608,126.716,238.139,126.587,236.669,126.613z
					 M236.658,125.56c1.545,0.003,3.098,0.17,4.603,0.544c1.505,0.376,2.95,0.964,4.304,1.69c2.723,1.451,5.048,3.422,7.475,5.183
					c2.412,1.781,4.95,3.391,7.714,4.524c1.38,0.566,2.805,1.021,4.254,1.38c1.454,0.345,2.931,0.583,4.418,0.754l0.569,0.066
					l-0.385,0.412l0,0c-1.638,1.886-3.503,3.611-5.659,4.944c-2.142,1.346-4.578,2.262-7.101,2.648
					c-2.526,0.398-5.104,0.242-7.586-0.199c-2.49-0.438-4.9-1.156-7.269-1.906c-2.367-0.739-4.708-1.548-7.058-1.985
					c-1.17-0.211-2.345-0.328-3.457-0.196c-0.555,0.065-1.09,0.193-1.593,0.392c-0.251,0.099-0.493,0.216-0.726,0.353l-0.813,0.47
					c-2.247,1.257-4.663,2.14-7.128,2.743c-2.47,0.594-4.99,0.936-7.519,1.049c-2.529,0.114-5.067-0.008-7.576-0.375
					c-2.507-0.362-4.993-0.97-7.374-1.914c-0.298-0.117-0.594-0.237-0.885-0.373c-0.293-0.131-0.586-0.258-0.873-0.407
					c-0.287-0.146-0.578-0.281-0.857-0.443l-0.817-0.453c-0.984-0.547-2.074-0.87-3.215-0.99c-1.141-0.123-2.327-0.052-3.519,0.097
					c-1.193,0.148-2.396,0.375-3.607,0.614c-2.421,0.483-4.886,0.985-7.4,1.217c-2.51,0.239-5.062,0.213-7.563-0.173
					c-2.5-0.39-4.933-1.119-7.243-2.103c-2.314-0.976-4.499-2.214-6.566-3.608l-0.591-0.398l0.692-0.125l0,0
					c3.406-0.743,6.724-1.847,9.787-3.46c1.531-0.806,2.998-1.724,4.444-2.691c1.445-0.971,2.862-2.003,4.347-2.981
					c1.483-0.975,3.048-1.892,4.737-2.574c1.679-0.702,3.471-1.149,5.273-1.372c0.45-0.062,0.904-0.085,1.355-0.128l1.355-0.052
					c0.89-0.008,1.778-0.005,2.668,0.023c1.778,0.057,3.556,0.19,5.324,0.41c3.536,0.429,7.027,1.246,10.414,2.2
					c1.69,0.458,3.377,0.971,4.987,1.206c0.808,0.111,1.519,0.1,2.328-0.037c0.8-0.133,1.622-0.35,2.453-0.578
					c3.323-0.964,6.775-1.958,10.277-2.538C229.572,125.827,233.121,125.56,236.658,125.56z"/>
			</g>
		</g>
		<g class="st1">
			<path class="st2" d="M219.032,98.275c2.925-0.797,24.218-6.936,38.15,20.722c0.048-6.246-0.446-7.01-3.269-10.476
				c-2.823-3.466-6.051-8.817-11.952-11.321c-5.901-2.504-10.501-3.207-14.744-2.325C221.358,96.09,219.032,98.275,219.032,98.275z"
				/>
		</g>
		<g class="st1">
			<path class="st2" d="M207.397,98.309c-4.176-2.481-23.849-6.327-39.038,22.264c-0.167-5.691,0.068-8.364,2.368-11.301
				c2.302-2.937,6.678-8.586,13.549-12.316c4.512-2.45,7.699-3.241,12.868-2.407C202.313,95.384,207.397,98.309,207.397,98.309z"/>
		</g>
		<g class="st1">
			<path class="st2" d="M171.136,146.643c0.208,2.106,6.125,0.609,7.665,0.543c2.544-0.108,5.11-0.313,7.606-0.831
				c5.648-1.17,7.411-0.782,10.527,0.652c-0.702-1.651-0.006-3.6-0.006-3.6s-3.304-1.314-7.045-0.771
				c-3.741,0.543-7.599,2.5-11.579,2.259c-1.385-0.083-6.149-0.034-7.805-0.162C170.493,144.827,171.128,146.56,171.136,146.643z"/>
		</g>
		<g class="st1">
			<path class="st2" d="M228.415,146.358c3.432-0.933,5.093-2.091,7.696-0.626c4.984,2.806,15.443,4.919,16.727,4.973
				c1.284,0.056,1.087-2.993,1.087-2.993s-4.449-0.458-9.795-2.18c-5.346-1.722-10.519-3.355-12.471-2.942
				c-1.951,0.412-3.041,0.931-3.041,0.931S228.918,145.308,228.415,146.358z"/>
		</g>
		<g class="st1">
			<path class="st2" d="M206.052,155.102c1.115-1.217,12.362-1.52,14.692-0.202c1.52-0.507,1.52-0.507,1.52-0.507
				s-1.419-2.026-5.978-2.432c-4.56-0.406-8.362-0.245-12.388,2.359C204.634,155.002,206.052,155.102,206.052,155.102z"/>
		</g>
		<g>
			<g>
				<path class="st3" d="M204.39,166.758c3.198,4.106-11.324,14.186-17.979,11.427c-5.608-2.325-20.371-11.397-26.056-19.099
					c-6.993-9.471,21.546-36.271,26.569-24.608C193.272,149.211,196.671,156.846,204.39,166.758z"/>
			</g>
			<g>
				<path class="st0" d="M205.221,166.11c0.33,0.41,0.566,0.936,0.651,1.463c0.089,0.529,0.046,1.041-0.059,1.494
					c-0.216,0.914-0.634,1.651-1.082,2.322c-0.919,1.326-2.02,2.402-3.189,3.377c-1.17,0.973-2.425,1.818-3.744,2.561
					c-1.318,0.743-2.702,1.385-4.168,1.861c-1.465,0.475-3.011,0.81-4.663,0.796c-0.823-0.012-1.676-0.117-2.52-0.393
					c-0.205-0.062-0.433-0.157-0.614-0.231l-0.521-0.23c-0.341-0.159-0.682-0.316-1.013-0.483c-2.657-1.317-5.155-2.814-7.608-4.393
					c-2.452-1.577-4.832-3.26-7.138-5.05c-2.302-1.792-4.536-3.684-6.606-5.778c-1.032-1.05-2.025-2.149-2.925-3.343l-0.336-0.449
					c-0.116-0.16-0.236-0.342-0.341-0.52c-0.211-0.361-0.385-0.743-0.52-1.135c-0.27-0.785-0.378-1.602-0.378-2.395
					c0.005-1.593,0.41-3.09,0.945-4.489c0.544-1.402,1.243-2.715,2.018-3.969c1.55-2.51,3.411-4.788,5.446-6.883
					c2.035-2.096,4.25-4.02,6.677-5.665c1.217-0.819,2.481-1.573,3.824-2.202c1.341-0.62,2.766-1.132,4.297-1.303
					c0.763-0.082,1.56-0.072,2.345,0.12c0.782,0.188,1.545,0.575,2.145,1.138c0.604,0.557,1.041,1.263,1.351,1.969l0.877,1.975
					c1.172,2.632,2.348,5.263,3.56,7.87c1.223,2.603,2.489,5.179,3.846,7.701c1.358,2.52,2.806,4.981,4.384,7.357
					C201.742,161.582,203.44,163.878,205.221,166.11z M203.559,167.406c-1.758-2.318-3.434-4.706-4.984-7.175
					c-1.554-2.467-2.971-5.016-4.271-7.614c-1.303-2.597-2.504-5.233-3.661-7.882c-1.164-2.646-2.287-5.304-3.405-7.964
					l-0.836-1.995c-0.251-0.618-0.595-1.161-1.047-1.59c-0.899-0.871-2.245-1.138-3.579-0.993c-1.342,0.145-2.674,0.615-3.941,1.203
					c-1.271,0.594-2.49,1.318-3.656,2.125c-2.331,1.614-4.479,3.508-6.436,5.571c-1.943,2.074-3.71,4.324-5.147,6.749
					c-0.708,1.217-1.331,2.479-1.795,3.781c-0.458,1.297-0.768,2.648-0.732,3.947c0.017,0.648,0.125,1.277,0.341,1.85
					c0.108,0.287,0.242,0.56,0.402,0.817c0.082,0.13,0.163,0.247,0.262,0.376l0.324,0.407c0.871,1.082,1.844,2.102,2.867,3.073
					c2.051,1.943,4.285,3.715,6.589,5.389c2.308,1.67,4.694,3.243,7.124,4.734c1.217,0.743,2.447,1.462,3.691,2.149
					c1.241,0.689,2.495,1.36,3.759,1.955c0.316,0.151,0.632,0.291,0.947,0.433l0.472,0.199c0.156,0.06,0.259,0.103,0.401,0.143
					c0.53,0.165,1.126,0.236,1.742,0.233c1.238,0.002,2.547-0.279,3.823-0.678c2.557-0.825,5.045-2.134,7.223-3.775
					c1.079-0.823,2.1-1.745,2.854-2.772c0.372-0.507,0.677-1.05,0.808-1.54c0.068-0.245,0.085-0.466,0.06-0.649
					C203.73,167.72,203.673,167.565,203.559,167.406z"/>
			</g>
		</g>
		<g>
			<g>
				<path class="st3" d="M221.045,166.758c-3.198,4.106,11.324,14.186,17.979,11.427c5.608-2.325,20.371-11.397,26.056-19.099
					c6.993-9.471-21.546-36.271-26.569-24.608C232.164,149.211,228.764,156.846,221.045,166.758z"/>
			</g>
			<g>
				<path class="st0" d="M221.876,167.406c-0.113,0.16-0.171,0.315-0.196,0.501c-0.025,0.185-0.008,0.406,0.06,0.649
					c0.13,0.49,0.436,1.033,0.808,1.54c0.754,1.027,1.773,1.951,2.854,2.772c2.177,1.641,4.666,2.95,7.223,3.775
					c1.277,0.401,2.584,0.682,3.823,0.678c0.617,0.003,1.212-0.068,1.742-0.233c0.142-0.04,0.245-0.083,0.401-0.143l0.472-0.199
					c0.316-0.14,0.631-0.281,0.947-0.433c1.264-0.595,2.518-1.266,3.759-1.955c1.244-0.688,2.475-1.406,3.691-2.149
					c2.43-1.491,4.816-3.062,7.124-4.734c2.304-1.675,4.538-3.446,6.589-5.389c1.022-0.971,1.995-1.991,2.866-3.073l0.324-0.407
					c0.099-0.128,0.18-0.245,0.262-0.376c0.16-0.256,0.295-0.529,0.402-0.817c0.216-0.574,0.322-1.203,0.341-1.85
					c0.035-1.298-0.273-2.649-0.732-3.947c-0.464-1.301-1.087-2.564-1.795-3.781c-1.437-2.425-3.204-4.675-5.147-6.749
					c-1.957-2.063-4.105-3.957-6.436-5.571c-1.164-0.806-2.384-1.531-3.656-2.125c-1.267-0.587-2.6-1.058-3.941-1.203
					c-1.334-0.145-2.678,0.122-3.579,0.993c-0.453,0.429-0.796,0.973-1.047,1.59l-0.836,1.995c-1.118,2.66-2.242,5.318-3.405,7.964
					c-1.158,2.649-2.358,5.287-3.661,7.882c-1.3,2.597-2.717,5.147-4.271,7.614C225.31,162.7,223.634,165.088,221.876,167.406z
					 M220.214,166.11c1.783-2.234,3.479-4.529,5.055-6.906c1.577-2.376,3.027-4.837,4.384-7.357c1.357-2.52,2.623-5.098,3.846-7.701
					c1.212-2.607,2.389-5.238,3.56-7.87l0.877-1.975c0.31-0.706,0.746-1.414,1.351-1.969c0.6-0.563,1.363-0.948,2.145-1.138
					c0.785-0.193,1.582-0.202,2.345-0.12c1.533,0.171,2.956,0.682,4.297,1.303c1.342,0.628,2.607,1.383,3.824,2.202
					c2.427,1.645,4.641,3.57,6.677,5.665c2.035,2.096,3.897,4.373,5.446,6.883c0.776,1.254,1.474,2.567,2.018,3.969
					c0.535,1.4,0.941,2.897,0.945,4.489c0,0.793-0.108,1.61-0.378,2.395c-0.134,0.392-0.308,0.774-0.52,1.135
					c-0.105,0.179-0.225,0.359-0.341,0.52l-0.336,0.449c-0.901,1.193-1.894,2.293-2.925,3.343c-2.069,2.094-4.305,3.986-6.606,5.778
					c-2.304,1.79-4.686,3.472-7.138,5.05c-2.453,1.579-4.951,3.076-7.608,4.393c-0.332,0.165-0.672,0.324-1.013,0.483l-0.521,0.23
					c-0.179,0.074-0.409,0.17-0.614,0.231c-0.843,0.276-1.698,0.381-2.52,0.393c-1.651,0.014-3.198-0.321-4.663-0.796
					c-1.466-0.476-2.85-1.118-4.168-1.861c-1.318-0.743-2.574-1.59-3.744-2.561c-1.169-0.975-2.27-2.049-3.189-3.377
					c-0.449-0.671-0.867-1.406-1.082-2.322c-0.105-0.455-0.15-0.967-0.059-1.494C219.649,167.046,219.884,166.521,220.214,166.11z"
					/>
			</g>
		</g>
		<g class="st1">
			<path class="st2" d="M271.11,72.35c0.313,0.313,9.178,11.952,8.623,15.676c-0.783,5.252-14.737,21.868-14.737,21.868
				l-1.079,9.108l-2.37-2.524l0.079,8.074c0,0,7.995-13.952,9.406-15.911c1.411-1.96,18.733-18.891,18.733-18.891L271.11,72.35z"/>
		</g>
		<g class="st1">
			<path class="st2" d="M160.076,157.21c-2.069,3.109-4.143,11.176-6.455,11.71c-3.705,0.854-6.32-3.577-11.316-1.453
				c-4.996,2.125-12.689,4.031-14.115,3.929c2.139,0.979,3.636,0.996,4.197,1.099c0.561,0.105,8.674-1.527,12.895-1.846
				c2.18-0.165,10.766,2.291,10.766,2.291s1.571-3.375,2.702-4.742c1.13-1.366,4.907-5.58,4.907-5.58L160.076,157.21z"/>
		</g>
		<g class="st1">
			<path class="st2" d="M171.409,168.055c2.273,1.332,11.993,5.144,16.146,5.408c4.937,0.313,13.168-2.9,15.833-7.525
				c0,0,1.803,1.881,1.254,3.213c-0.549,1.332-3.371,5.331-6.035,6.663c-2.665,1.332-9.798,4.154-12.385,2.9
				C183.637,177.461,171.409,168.055,171.409,168.055z"/>
		</g>
		<g class="st1">
			<path class="st2" d="M254.416,167.74c-2.273,1.332-11.993,5.144-16.146,5.408c-4.937,0.313-13.168-2.9-15.833-7.525
				c0,0-1.803,1.881-1.254,3.213c0.549,1.332,3.371,5.331,6.035,6.663s9.798,4.154,12.385,2.9
				C242.188,177.146,254.416,167.74,254.416,167.74z"/>
		</g>
		<g>
			<g>
				<path class="st13" d="M256.022,58.607c0,0-0.396-10.724-0.654-15.864c-0.21-4.199-0.284-4.12,3.986-4.33
					c4.27-0.21,15.864-0.654,15.864-0.654l13.225,12.464l-18.911,20.685L256.022,58.607z"/>
			</g>
			<g>
				<path class="st0" d="M255.848,58.687c-0.274-3.224-0.458-6.522-0.615-9.821c-0.088-1.648-0.137-3.304-0.207-4.954l-0.103-2.47
					c-0.012-0.415-0.023-0.831,0.011-1.271c0.012-0.111,0.019-0.221,0.035-0.333l0.076-0.347c0.04-0.119,0.093-0.239,0.143-0.358
					c0.076-0.113,0.151-0.233,0.244-0.33c0.2-0.196,0.435-0.324,0.662-0.406c0.113-0.034,0.225-0.072,0.336-0.1l0.327-0.062
					c0.43-0.068,0.847-0.097,1.26-0.122c0.825-0.049,1.639-0.077,2.459-0.102l4.911-0.163c3.274-0.119,6.549-0.187,9.824-0.281l0,0
					l0.08-0.003l0.059,0.056l13.224,12.464l0.137,0.13l-0.126,0.139l-18.911,20.685l-0.13,0.14l-0.14-0.128L255.848,58.687z
					 M256.195,58.525l13.466,12.242l-0.27,0.012l18.911-20.687l0.009,0.268l-13.225-12.464l0.139,0.052l0,0
					c-3.271,0.176-6.539,0.378-9.81,0.529l-4.905,0.242l-2.447,0.13c-0.402,0.028-0.803,0.06-1.183,0.122
					c-0.381,0.057-0.725,0.17-0.907,0.355c-0.185,0.174-0.259,0.526-0.282,0.905c-0.028,0.376-0.017,0.78-0.003,1.183l0.114,2.438
					c0.066,1.622,0.151,3.238,0.197,4.862C256.113,51.959,256.201,55.207,256.195,58.525z"/>
			</g>
		</g>
		<g>
			<g>
				<g>
					<path class="st14" d="M257.546,44.939c0.581-0.631-0.113-2.786,0.7-3.684c0.873-0.962,3.05-0.299,3.636-0.934
						c0.262-0.284,0.091-1.184-0.099-2.02c-0.936,0.042-1.769,0.079-2.427,0.111c-4.27,0.21-4.197,0.131-3.986,4.33
						c0.035,0.708,0.074,1.525,0.113,2.402C256.339,45.202,257.274,45.235,257.546,44.939z"/>
				</g>
				<g>
					<path class="st0" d="M257.404,44.809c0.182-0.221,0.202-0.654,0.211-1.039c0.006-0.398-0.008-0.808,0.02-1.227
						c0.035-0.413,0.085-0.86,0.347-1.255c0.268-0.396,0.715-0.609,1.132-0.694c0.421-0.093,0.837-0.111,1.243-0.128
						c0.402-0.019,0.813-0.026,1.147-0.136c0.076-0.032,0.154-0.065,0.2-0.113c0.034-0.023,0.045-0.039,0.059-0.062
						c0.014-0.025,0.025-0.059,0.034-0.096c0.034-0.157,0.029-0.352,0.011-0.543c-0.039-0.387-0.125-0.78-0.213-1.173v-0.002
						l0.194,0.15c-1.028,0.079-2.057,0.146-3.087,0.21c-0.512,0.039-1.027,0.06-1.523,0.123c-0.49,0.06-0.996,0.157-1.271,0.426
						c-0.268,0.265-0.322,0.774-0.342,1.264c-0.02,0.498,0.012,1.013,0.023,1.527c0.04,1.03,0.063,2.063,0.082,3.095l-0.177-0.182
						l0,0c0.35,0.023,0.699,0.043,1.039,0.037c0.17-0.003,0.339-0.014,0.498-0.04C257.19,44.926,257.347,44.872,257.404,44.809z
						 M257.686,45.068c-0.197,0.19-0.404,0.221-0.589,0.258c-0.19,0.031-0.373,0.042-0.555,0.046
						c-0.364,0.008-0.72-0.014-1.073-0.037l0,0l-0.165-0.006l-0.014-0.176c-0.082-1.028-0.15-2.057-0.213-3.087
						c-0.032-0.518-0.059-1.033-0.048-1.567c-0.002-0.131,0.008-0.267,0.022-0.404c0.008-0.136,0.026-0.273,0.06-0.415
						c0.045-0.278,0.184-0.583,0.406-0.819c0.122-0.108,0.247-0.213,0.385-0.27c0.136-0.079,0.273-0.116,0.41-0.156
						c0.273-0.076,0.541-0.117,0.803-0.145c0.529-0.06,1.044-0.083,1.562-0.102c1.032-0.04,2.063-0.062,3.096-0.079l0.163-0.003
						l0.031,0.151v0.002c0.089,0.398,0.177,0.8,0.22,1.221c0.019,0.211,0.031,0.427-0.02,0.669c-0.017,0.062-0.035,0.125-0.071,0.19
						c-0.035,0.066-0.091,0.13-0.14,0.165c-0.1,0.094-0.214,0.14-0.324,0.187c-0.443,0.142-0.856,0.136-1.261,0.159
						c-0.404,0.017-0.802,0.037-1.175,0.119c-0.375,0.076-0.706,0.251-0.899,0.534c-0.196,0.285-0.253,0.682-0.282,1.067
						c-0.028,0.392-0.012,0.794-0.02,1.207c-0.006,0.208-0.009,0.415-0.045,0.634C257.914,44.624,257.868,44.86,257.686,45.068z"/>
				</g>
			</g>
		</g>
		<g>
			<g>
				<path class="st15" d="M300.719,99.563l-9.67-8.903c-1.56-1.437-1.662-3.89-0.225-5.452l13.941-15.14
					c1.437-1.56,3.89-1.662,5.452-0.225l9.67,8.903c1.56,1.437,1.662,3.89,0.225,5.452l-13.941,15.14
					C304.734,100.899,302.281,101,300.719,99.563z"/>
			</g>
			<g>
				<path class="st0" d="M300.505,99.795l-8.381-7.816l-1.047-0.978c-0.352-0.319-0.717-0.709-0.958-1.149
					c-0.503-0.88-0.654-1.947-0.427-2.931c0.111-0.492,0.316-0.962,0.6-1.38c0.291-0.426,0.638-0.754,0.956-1.107l1.948-2.102
					l7.782-8.411c1.306-1.402,2.572-2.806,3.912-4.205c0.734-0.674,1.727-1.049,2.718-1.045c0.993-0.005,1.984,0.376,2.718,1.05
					l8.439,7.751l1.055,0.968c0.355,0.316,0.719,0.691,0.964,1.126c0.513,0.865,0.671,1.924,0.472,2.914
					c-0.099,0.497-0.293,0.976-0.569,1.405c-0.066,0.109-0.139,0.214-0.222,0.311c-0.08,0.1-0.16,0.204-0.237,0.288l-0.473,0.538
					l-1.894,2.151c-1.274,1.423-2.553,2.84-3.85,4.242c-1.289,1.409-2.586,2.811-3.887,4.208l-1.952,2.097l-0.978,1.047
					l-0.489,0.524l-0.244,0.262l-0.278,0.271c-0.774,0.703-1.815,1.093-2.851,1.082C302.292,100.909,301.262,100.502,300.505,99.795
					z M300.935,99.33c0.651,0.589,1.522,0.917,2.395,0.907c0.873-0.003,1.736-0.342,2.368-0.934l0.231-0.233l0.241-0.265l0.481-0.53
					l0.962-1.061l1.929-2.119c1.284-1.412,2.575-2.82,3.873-4.222c1.291-1.408,2.598-2.8,3.91-4.188l1.988-2.065
					c0.328-0.35,0.683-0.678,0.933-1.03c0.258-0.361,0.449-0.774,0.557-1.209c0.222-0.871,0.089-1.832-0.352-2.624
					c-0.222-0.404-0.517-0.736-0.873-1.056l-1.053-0.971l-8.421-7.771c-0.674-0.621-1.584-0.975-2.501-0.971
					c-0.917-0.005-1.829,0.35-2.501,0.97c-1.295,1.366-2.583,2.803-3.873,4.202l-7.741,8.448l-1.934,2.114
					c-0.319,0.358-0.665,0.695-0.91,1.062c-0.251,0.373-0.43,0.794-0.527,1.234c-0.196,0.879-0.056,1.83,0.396,2.607
					c0.227,0.398,0.52,0.714,0.877,1.032l1.059,0.964L300.935,99.33z"/>
			</g>
		</g>
		<g>
			<path class="st16" d="M275.406,38.105c-2.183-2.011,3.818,9.014,2.399,10.556c-1.419,1.542-8.774-1.974-10.889,0.358
				c-1.972,2.174,1.786,9.31,0.376,10.84c-1.409,1.531-12.38-2.56-10.854-1.155c1.692,1.557,27.387,25.217,27.387,25.217
				l4.299-4.669l0.23-0.248l10.171-11.047l0.208-0.225l4.062-4.41C302.793,63.322,277.82,40.327,275.406,38.105z"/>
		</g>
		<g class="st17">
			<polygon class="st8" points="302.54,63.501 298.368,67.949 278.103,48.865 275.075,37.742 			"/>
		</g>
		<g>
			
				<rect x="288.047" y="44.167" transform="matrix(0.6774 -0.7356 0.7356 0.6774 50.0365 230.8642)" class="st0" width="0.382" height="28.432"/>
		</g>
		<g>
			
				<rect x="277.63" y="55.409" transform="matrix(0.6775 -0.7355 0.7355 0.6775 38.3693 226.8002)" class="st0" width="0.382" height="28.472"/>
		</g>
		<g>
			<g>
				
					<rect x="285.281" y="71.624" transform="matrix(0.6774 -0.7356 0.7356 0.6774 38.3249 245.8284)" class="st18" width="28.325" height="15.188"/>
			</g>
			<g>
				<path class="st0" d="M295.443,94.961l-11.424-10.214l-0.268-0.239l0.247-0.268l19.216-20.81l0.219-0.237l0.233,0.219
					l11.085,10.384l0.139,0.131l-0.128,0.139L295.443,94.961z M295.427,94.581l19.054-20.776l0.011,0.27l-11.261-10.192l0.452-0.019
					l-19.157,20.864l-0.022-0.507L295.427,94.581z"/>
			</g>
		</g>
		<g>
			<g>
				<g>
					<polygon class="st18" points="284.596,69.885 287.617,72.666 291.079,71.94 291.518,68.43 288.496,65.649 285.034,66.375 					
						"/>
				</g>
				<g>
					<path class="st0" d="M284.749,69.827l2.979,2.718l-0.145-0.04l3.423-0.908l-0.274,0.299l0.623-3.486l0.051,0.14l-3.022-2.782
						l0.145,0.04l-3.419,0.925l0.288-0.313L284.749,69.827z M284.442,69.94l0.228-3.611l0.017-0.273l0.271-0.042l3.503-0.527
						l0.088-0.014l0.057,0.052l3.022,2.782l0.059,0.054l-0.006,0.088l-0.254,3.533l-0.018,0.259l-0.256,0.04l-3.499,0.546
						l-0.088,0.014l-0.057-0.054L284.442,69.94z"/>
				</g>
			</g>
			<g>
				<g>
					<path class="st8" d="M285.617,68.739l1.753-1.904l0.509,0.469l0.332,1.926c0.105,0.497,0.247,0.826,0.426,0.991
						c0.145,0.134,0.279,0.21,0.402,0.228c0.123,0.019,0.23-0.022,0.319-0.119c0.088-0.096,0.109-0.221,0.065-0.373
						c-0.046-0.153-0.145-0.299-0.296-0.438l0.583-0.634c0.207,0.191,0.359,0.409,0.458,0.654c0.099,0.245,0.128,0.487,0.089,0.726
						c-0.039,0.239-0.142,0.452-0.311,0.635c-0.271,0.295-0.564,0.444-0.879,0.449c-0.315,0.005-0.629-0.139-0.945-0.429
						c-0.133-0.122-0.244-0.261-0.333-0.416c-0.089-0.156-0.163-0.339-0.224-0.55s-0.12-0.518-0.179-0.917l-0.177-0.816
						l-0.988,1.073L285.617,68.739z"/>
				</g>
			</g>
		</g>
		<g class="st17">
			
				<rect x="303.499" y="63.957" transform="matrix(0.6834 -0.7301 0.7301 0.6834 44.1456 245.7987)" class="st8" width="3.901" height="16.096"/>
		</g>
		<g>
			
				<rect x="281.533" y="75.225" transform="matrix(0.6774 -0.7356 0.7356 0.6774 39.5868 242.074)" class="st16" width="28.523" height="1.354"/>
			<path class="st0" d="M286.649,86.982l-1.138-1.047l0.065-0.071l19.385-21.052l1.138,1.047l-0.065,0.071L286.649,86.982z
				 M285.782,85.924l0.856,0.788l19.191-20.843l-0.856-0.788L285.782,85.924z"/>
		</g>
		<g>
			
				<rect x="288.811" y="81.929" transform="matrix(0.6774 -0.7356 0.7356 0.6774 37.0037 249.5905)" class="st16" width="28.523" height="1.354"/>
			<path class="st0" d="M293.928,93.685l-1.138-1.047l0.065-0.071l19.386-21.054l1.138,1.047l-0.065,0.071L293.928,93.685z
				 M293.06,92.627l0.856,0.788l19.191-20.843l-0.856-0.788L293.06,92.627z"/>
		</g>
		<g>
			<path class="st0" d="M305.456,68.151c0.476,0.27,0.911,0.583,1.332,0.913c0.424,0.327,0.825,0.678,1.218,1.038
				c0.389,0.365,0.771,0.736,1.132,1.132c0.362,0.393,0.712,0.8,1.022,1.251c-0.473-0.273-0.908-0.587-1.331-0.916
				c-0.424-0.327-0.825-0.677-1.221-1.035c-0.39-0.362-0.773-0.734-1.133-1.129C306.113,69.012,305.764,68.603,305.456,68.151z"/>
		</g>
		<g>
			<path class="st0" d="M288.82,86.22c0.476,0.27,0.911,0.583,1.332,0.913c0.424,0.327,0.825,0.678,1.218,1.038
				c0.389,0.365,0.771,0.736,1.132,1.132c0.362,0.393,0.712,0.8,1.022,1.251c-0.473-0.273-0.908-0.587-1.331-0.916
				c-0.424-0.327-0.825-0.677-1.221-1.035c-0.39-0.362-0.773-0.734-1.133-1.129C289.477,87.08,289.128,86.672,288.82,86.22z"/>
		</g>
		<g>
			<path class="st0" d="M303.376,70.41c0.476,0.27,0.911,0.583,1.332,0.913c0.424,0.327,0.825,0.678,1.218,1.038
				c0.389,0.365,0.771,0.736,1.132,1.132c0.362,0.393,0.712,0.8,1.022,1.251c-0.473-0.273-0.908-0.587-1.331-0.916
				c-0.424-0.327-0.825-0.677-1.221-1.035c-0.39-0.362-0.773-0.734-1.133-1.129C304.033,71.271,303.684,70.862,303.376,70.41z"/>
		</g>
		<g>
			<path class="st0" d="M301.297,72.669c0.476,0.27,0.911,0.583,1.332,0.913c0.424,0.327,0.825,0.678,1.218,1.038
				c0.389,0.365,0.771,0.736,1.132,1.132c0.362,0.393,0.712,0.8,1.022,1.251c-0.473-0.273-0.908-0.587-1.331-0.916
				c-0.424-0.327-0.825-0.677-1.221-1.035c-0.39-0.362-0.773-0.734-1.133-1.129C301.953,73.53,301.606,73.121,301.297,72.669z"/>
		</g>
		<g>
			<path class="st0" d="M299.217,74.927c0.476,0.27,0.911,0.583,1.332,0.913c0.424,0.327,0.825,0.678,1.218,1.038
				c0.389,0.365,0.771,0.736,1.132,1.132c0.362,0.393,0.712,0.8,1.022,1.251c-0.473-0.273-0.908-0.587-1.331-0.916
				c-0.424-0.327-0.825-0.677-1.221-1.035c-0.39-0.362-0.773-0.734-1.133-1.129C299.874,75.787,299.526,75.379,299.217,74.927z"/>
		</g>
		<g>
			<path class="st0" d="M297.137,77.186c0.476,0.27,0.911,0.583,1.332,0.913c0.424,0.327,0.825,0.678,1.218,1.038
				c0.389,0.365,0.771,0.736,1.132,1.132c0.362,0.393,0.712,0.8,1.022,1.251c-0.473-0.273-0.908-0.587-1.331-0.916
				c-0.424-0.327-0.825-0.677-1.221-1.035c-0.39-0.362-0.773-0.734-1.133-1.129C297.794,78.046,297.446,77.637,297.137,77.186z"/>
		</g>
		<g>
			<path class="st0" d="M295.059,79.445c0.476,0.27,0.911,0.583,1.332,0.913c0.424,0.327,0.825,0.678,1.218,1.038
				c0.389,0.365,0.771,0.736,1.132,1.132c0.362,0.393,0.712,0.8,1.022,1.251c-0.473-0.273-0.908-0.587-1.331-0.916
				c-0.424-0.327-0.825-0.677-1.221-1.035c-0.39-0.362-0.773-0.734-1.133-1.129C295.714,80.305,295.367,79.896,295.059,79.445z"/>
		</g>
		<g>
			<path class="st0" d="M292.979,81.702c0.476,0.27,0.911,0.583,1.332,0.913c0.424,0.327,0.825,0.678,1.218,1.038
				c0.389,0.365,0.771,0.736,1.132,1.132c0.362,0.393,0.712,0.8,1.022,1.251c-0.473-0.273-0.908-0.587-1.331-0.916
				c-0.424-0.327-0.825-0.677-1.221-1.035c-0.39-0.362-0.773-0.734-1.133-1.129C293.635,82.562,293.287,82.155,292.979,81.702z"/>
		</g>
		<g>
			<path class="st0" d="M290.898,83.961c0.476,0.27,0.911,0.583,1.332,0.913c0.424,0.327,0.825,0.678,1.218,1.038
				c0.389,0.365,0.771,0.736,1.132,1.132c0.362,0.393,0.712,0.8,1.022,1.251c-0.473-0.273-0.908-0.587-1.331-0.916
				c-0.424-0.327-0.825-0.677-1.221-1.035c-0.39-0.362-0.773-0.734-1.133-1.129C291.555,84.821,291.207,84.413,290.898,83.961z"/>
		</g>
		<g>
			<path class="st0" d="M295.443,94.961l-11.424-10.214l-0.268-0.239l0.247-0.268l19.216-20.81l0.219-0.237l0.233,0.219
				l11.085,10.384l0.134,0.126l-0.123,0.143c-1.553,1.795-3.141,3.574-4.74,5.346c-1.594,1.781-3.221,3.523-4.836,5.286
				c-1.621,1.752-3.252,3.479-4.877,5.203l-2.439,2.555L295.443,94.961z M295.427,94.581l2.368-2.7l2.358-2.654
				c1.573-1.749,3.139-3.494,4.717-5.216c1.584-1.71,3.155-3.442,4.758-5.133c1.599-1.701,3.209-3.394,4.854-5.073l0.011,0.27
				l-11.261-10.192l0.452-0.019l-19.157,20.864l-0.022-0.507L295.427,94.581z"/>
		</g>
		<g>
			<path class="st0" d="M275.231,38.296c-0.072-0.065-0.153-0.13-0.211-0.162c-0.019-0.022-0.068-0.002,0.046-0.014
				c0.065-0.014,0.117-0.082,0.119-0.097c0.008-0.019,0.005-0.014,0.005-0.006c-0.002,0.117,0.059,0.348,0.117,0.538
				c0.12,0.399,0.287,0.797,0.449,1.195c0.322,0.797,0.699,1.581,1.045,2.376c0.352,0.794,0.7,1.594,1.021,2.415
				c0.322,0.822,0.612,1.656,0.782,2.586c0.037,0.236,0.066,0.478,0.068,0.743c-0.003,0.265-0.009,0.555-0.171,0.916
				c-0.197,0.412-0.541,0.614-0.825,0.731c-0.294,0.119-0.564,0.157-0.82,0.18c-0.51,0.043-0.971-0.006-1.422-0.063
				c-0.45-0.057-0.885-0.14-1.314-0.234c-0.857-0.182-1.695-0.381-2.532-0.544c-0.834-0.156-1.675-0.305-2.495-0.278
				c-0.808,0.011-1.638,0.23-2.04,0.819c-0.199,0.291-0.298,0.672-0.339,1.065c-0.035,0.396-0.014,0.81,0.032,1.223
				c0.222,1.662,0.791,3.292,1.212,5.005c0.103,0.432,0.19,0.871,0.25,1.334c0.052,0.466,0.091,0.947-0.048,1.523
				c-0.082,0.288-0.205,0.609-0.544,0.89c-0.332,0.245-0.626,0.302-0.891,0.352c-0.529,0.082-0.993,0.052-1.451,0.006
				c-0.91-0.091-1.767-0.308-2.618-0.517c-0.85-0.216-1.687-0.458-2.52-0.703c-0.834-0.237-1.668-0.47-2.503-0.662
				c-0.208-0.049-0.416-0.093-0.621-0.126c-0.194-0.034-0.433-0.065-0.544-0.052c-0.008,0-0.014,0.005,0.017-0.008
				c0.014-0.006,0.042-0.022,0.072-0.057c0.037-0.037,0.06-0.106,0.063-0.153c0-0.1-0.023-0.109-0.022-0.116
				c-0.002-0.003,0.005,0.008,0.015,0.019c0.037,0.04,0.14,0.131,0.213,0.2l0.478,0.439l3.819,3.519l7.642,7.033l7.676,6.997
				c2.57,2.319,5.133,4.647,7.717,6.951l0.002,0.002l-0.692,0.029l18.937-20.627l0.002-0.002l0.031,0.752
				c-2.231-2.157-4.495-4.279-6.741-6.419l-6.794-6.362c-2.257-2.128-4.552-4.217-6.828-6.325L275.231,38.296z M275.582,37.914
				l6.852,6.297c2.288,2.096,4.56,4.21,6.866,6.283l6.9,6.246c2.318,2.062,4.62,4.143,6.953,6.189l0.392,0.344l-0.361,0.409
				l-0.002,0.002l-18.998,20.571l-0.333,0.361l-0.359-0.332l-0.002-0.002c-2.509-2.387-5.041-4.748-7.563-7.119l-7.605-7.073
				l-7.639-7.038l-3.823-3.516l-0.478-0.439c-0.083-0.08-0.146-0.128-0.258-0.245c-0.026-0.029-0.054-0.062-0.083-0.111
				c-0.026-0.052-0.074-0.113-0.072-0.267c0.002-0.074,0.04-0.168,0.093-0.227c0.049-0.056,0.1-0.086,0.139-0.105
				c0.079-0.037,0.126-0.042,0.173-0.049c0.321-0.028,0.513,0.023,0.745,0.054c0.222,0.039,0.436,0.083,0.652,0.126l2.547,0.55
				c1.69,0.327,3.406,0.652,5.05,0.746c0.404,0.017,0.813,0.019,1.139-0.039c0.159-0.026,0.295-0.086,0.31-0.106
				c-0.006,0.005,0.02-0.023,0.042-0.057c0.023-0.034,0.043-0.091,0.062-0.154c0.079-0.265,0.068-0.666,0.039-1.058
				c-0.031-0.398-0.096-0.811-0.165-1.227c-0.267-1.676-0.706-3.383-0.81-5.175c-0.028-0.449-0.029-0.905,0.032-1.369
				c0.059-0.461,0.179-0.947,0.476-1.371c0.298-0.426,0.732-0.726,1.186-0.893c0.453-0.168,0.917-0.247,1.372-0.285
				c1.821-0.123,3.562,0.207,5.263,0.413c0.84,0.096,1.704,0.219,2.424,0.156c0.174-0.017,0.336-0.049,0.443-0.096
				c0.111-0.043,0.153-0.105,0.142-0.089c0.023-0.034,0.057-0.188,0.057-0.352c0.003-0.168-0.012-0.358-0.039-0.55
				c-0.102-0.782-0.332-1.607-0.555-2.425c-0.233-0.82-0.498-1.641-0.769-2.459c-0.278-0.819-0.546-1.642-0.834-2.464
				c-0.142-0.413-0.276-0.828-0.402-1.257c-0.056-0.227-0.126-0.416-0.122-0.732c0.005-0.046,0.011-0.096,0.039-0.163
				c0.023-0.066,0.114-0.179,0.233-0.205c0.113-0.026,0.182-0.003,0.231,0.012c0.052,0.017,0.086,0.037,0.122,0.057
				C275.409,37.755,275.494,37.833,275.582,37.914z"/>
		</g>
		<g class="st1">
			<path class="st2" d="M315.397,74.623l-0.774-0.691l-14.667,16.016c-9.591-8.877-22.403-20.446-32.528-29.983
				c-0.133-0.123-2.737,0.231-2.737,0.231l-5.209-1.184l-3.477-0.584l45.44,41.826l3.056,0.313l3.526-3.135
				c0,0-2.93-2.72-7.286-6.754L315.397,74.623z"/>
		</g>
		<g class="st17">
			<path class="st8" d="M260.582,40.632l-5.331-1.306c0,0-0.105-0.47,0.783-0.523c0.888-0.052,6.011,0.575,6.011,0.575l-0.105,1.045
				L260.582,40.632z"/>
		</g>
		<g>
			<g>
				<path class="st0" d="M257.404,44.809c0.182-0.221,0.202-0.654,0.211-1.039c0.006-0.398-0.008-0.808,0.02-1.227
					c0.035-0.413,0.085-0.86,0.347-1.255c0.268-0.396,0.715-0.609,1.132-0.694c0.421-0.093,0.837-0.111,1.243-0.128
					c0.402-0.019,0.813-0.026,1.147-0.136c0.076-0.032,0.154-0.065,0.2-0.113c0.034-0.023,0.045-0.039,0.059-0.062
					c0.014-0.025,0.025-0.059,0.034-0.096c0.034-0.157,0.029-0.352,0.011-0.543c-0.039-0.387-0.125-0.78-0.213-1.173v-0.002
					l0.194,0.15c-1.028,0.079-2.057,0.146-3.087,0.21c-0.512,0.039-1.027,0.06-1.523,0.123c-0.49,0.06-0.996,0.157-1.271,0.426
					c-0.268,0.265-0.322,0.774-0.342,1.264c-0.02,0.498,0.012,1.013,0.023,1.527c0.04,1.03,0.063,2.063,0.082,3.095l-0.177-0.182
					l0,0c0.35,0.023,0.699,0.043,1.039,0.037c0.17-0.003,0.339-0.014,0.498-0.04C257.19,44.926,257.347,44.872,257.404,44.809z
					 M257.686,45.068c-0.197,0.19-0.404,0.221-0.589,0.258c-0.19,0.031-0.373,0.042-0.555,0.046
					c-0.364,0.008-0.72-0.014-1.073-0.037l0,0l-0.165-0.006l-0.014-0.176c-0.082-1.028-0.15-2.057-0.213-3.087
					c-0.032-0.518-0.059-1.033-0.048-1.567c-0.002-0.131,0.008-0.267,0.022-0.404c0.008-0.136,0.026-0.273,0.06-0.415
					c0.045-0.278,0.184-0.583,0.406-0.819c0.122-0.108,0.247-0.213,0.385-0.27c0.136-0.079,0.273-0.116,0.41-0.156
					c0.273-0.076,0.541-0.117,0.803-0.145c0.529-0.06,1.044-0.083,1.562-0.102c1.032-0.04,2.063-0.062,3.096-0.079l0.163-0.003
					l0.031,0.151v0.002c0.089,0.398,0.177,0.8,0.22,1.221c0.019,0.211,0.031,0.427-0.02,0.669c-0.017,0.062-0.035,0.125-0.071,0.19
					c-0.035,0.066-0.091,0.13-0.14,0.165c-0.1,0.094-0.214,0.14-0.324,0.187c-0.443,0.142-0.856,0.136-1.261,0.159
					c-0.404,0.017-0.802,0.037-1.175,0.119c-0.375,0.076-0.706,0.251-0.899,0.534c-0.196,0.285-0.253,0.682-0.282,1.067
					c-0.028,0.392-0.012,0.794-0.02,1.207c-0.006,0.208-0.009,0.415-0.045,0.634C257.914,44.624,257.868,44.86,257.686,45.068z"/>
			</g>
		</g>
		<g>
			<path class="st18" d="M279.789,62.227c0.096-0.054,0.247-0.006,0.373-0.009c0.088-0.002,0.176-0.011,0.264-0.017
				c-0.02-0.086-0.019-0.188-0.066-0.254c-0.099-0.134-0.216-0.258-0.339-0.369c-0.273-0.245-0.555-0.48-0.887-0.765
				c-0.02,0.146-0.056,0.225-0.031,0.258c0.139,0.177,0.022,0.284-0.102,0.372c-0.35,0.253-0.987,0.268-1.338-0.02
				c-0.256-0.211-0.258-0.447,0.003-0.658c0.194-0.157,0.407-0.296,0.624-0.421c0.537-0.305,1.09-0.497,1.73-0.324
				c0.694,0.188,0.979,0.874,0.507,1.522c0.171,0.076,0.328,0.213,0.456,0.19c0.307-0.057,0.601-0.187,0.899-0.29
				c0.156-0.054,0.131-0.153,0.028-0.222c-0.06-0.042-0.162-0.054-0.236-0.039c-0.25,0.051-0.347-0.063-0.364-0.293
				c-0.005-0.065-0.006-0.131-0.028-0.191c-0.311-0.908-1.576-1.679-2.541-1.574c-0.635,0.069-1.178,0.296-1.628,0.765
				c-0.381,0.396-0.506,1.143-0.202,1.584c0.332,0.48,0.819,0.773,1.358,0.924C278.776,62.536,279.301,62.5,279.789,62.227z"/>
			<path class="st18" d="M268.835,51.733c0.603-0.21,0.919-0.72,0.854-1.345c-0.017-0.159-0.069-0.353-0.176-0.458
				c-0.443-0.43-0.902-0.834-1.337-1.226c-0.464,0.12-0.879,0.33-1.126,0.691c-0.179,0.261-0.267,0.595-0.316,0.944
				c0.419-0.194,0.839-0.39,1.258-0.586c0.185-0.086,0.365-0.194,0.561-0.234c0.114-0.023,0.259,0.051,0.375,0.113
				c0.086,0.046,0.142,0.145,0.216,0.217c0.137,0.136,0.137,0.253,0.008,0.41c-0.461,0.564-1.072,0.843-1.769,0.971
				c-0.211-0.042-0.439,0.008-0.652-0.028c0.008,0.162-0.006,0.319,0.012,0.483c0.006,0.049,0.02,0.1,0.028,0.15
				c0.205,0.15,0.51,0.256,0.754,0.231C267.968,52.019,268.409,51.881,268.835,51.733z"/>
			<path class="st18" d="M277.874,57.368c-0.435-0.592-1.022-0.91-1.77-0.901c-0.569,0.005-1.341,0.197-1.742,0.51
				c-0.682,0.53-0.848,1.371-0.259,2.014c0.934,1.024,2.85,0.742,3.605-0.031C278.157,58.5,278.254,57.887,277.874,57.368z
				 M277.491,57.842c-0.302,0.461-0.765,0.702-1.258,0.879c-0.321,0.116-0.661,0.176-0.939,0.247
				c-0.228-0.045-0.396-0.062-0.555-0.113c-0.325-0.105-0.409-0.419-0.177-0.694c0.333-0.395,0.776-0.641,1.249-0.823
				c0.241-0.093,0.506-0.114,0.756-0.188c0.313-0.093,0.569,0.031,0.819,0.185C277.625,57.484,277.644,57.607,277.491,57.842z"/>
			<path class="st18" d="M275.187,56.084c0.253-0.128,0.339-0.652,0.139-0.843c-0.513-0.489-1.033-0.97-1.554-1.448
				c-0.088-0.08-0.197-0.136-0.298-0.202c-0.012,0.015-0.026,0.031-0.039,0.046c0.029,0.08,0.059,0.16,0.103,0.285
				c-0.231,0.103-0.449,0.2-0.666,0.299c-0.526,0.237-1.044,0.493-1.579,0.703c-0.276,0.108-0.569,0.335-0.91,0.059
				c0.305,0.495,0.742,0.831,1.119,1.224c0.031-0.009,0.063-0.02,0.094-0.029c-0.008-0.139-0.015-0.279-0.025-0.418
				c-0.017-0.029-0.032-0.057-0.049-0.086c0.376-0.145,0.751-0.291,1.129-0.433c0.211-0.079,0.268,0.025,0.205,0.205
				c-0.076,0.219-0.179,0.43-0.267,0.645c-0.162,0.392-0.321,0.783-0.483,1.181c0.365,0.137,0.682,0.271,1.008,0.372
				c0.106,0.032,0.241-0.023,0.362-0.039c-0.04-0.096-0.056-0.214-0.123-0.285c-0.163-0.171-0.16-0.336-0.065-0.537
				c0.085-0.176,0.139-0.365,0.211-0.547c0.04-0.099,0.089-0.191,0.136-0.287c0.199,0.079,0.365,0.137,0.529,0.208
				C274.523,56.314,274.862,56.247,275.187,56.084z M273.331,55.173c-0.167-0.091-0.117-0.227,0.025-0.299
				c0.222-0.113,0.452-0.208,0.685-0.299c0.327-0.128,0.475,0.12,0.625,0.327c0.057,0.079,0.111,0.261,0.076,0.29
				c-0.17,0.143-0.369,0.253-0.558,0.375C273.861,55.421,273.587,55.313,273.331,55.173z"/>
			<path class="st18" d="M270.768,54.224c-0.33-0.068-0.683,0.2-0.999-0.048c-0.279-0.217-0.557-0.435-0.873-0.68
				c0.134-0.128,0.22-0.241,0.333-0.311c0.197-0.122,0.423-0.199,0.614-0.328c0.197-0.136,0.355-0.096,0.501,0.049
				c0.136,0.136,0.253,0.29,0.392,0.453c-0.08,0.071-0.148,0.12-0.199,0.183c-0.042,0.049-0.063,0.117-0.093,0.176
				c0.065,0.023,0.148,0.085,0.193,0.065c0.338-0.16,0.668-0.338,0.999-0.509c-0.008-0.035-0.014-0.071-0.022-0.106
				c-0.085-0.006-0.179-0.037-0.254-0.014c-0.274,0.089-0.703-0.145-0.757-0.438c-0.009-0.048,0.032-0.136,0.076-0.157
				c0.273-0.14,0.546-0.281,0.831-0.392c0.076-0.029,0.205,0.028,0.287,0.082c0.1,0.065,0.179,0.163,0.264,0.25
				c0.436,0.441,0.435,0.441,0.015,0.894c-0.018,0.02-0.029,0.046-0.071,0.116c0.094,0.046,0.214,0.151,0.267,0.123
				c0.324-0.165,0.632-0.359,0.984-0.567c-0.193-0.069-0.342-0.083-0.436-0.163c-0.444-0.384-0.876-0.785-1.306-1.184
				c-0.264-0.244-0.52-0.497-0.779-0.745c-0.029,0.009-0.06,0.019-0.089,0.028c0.162,0.282,0.035,0.41-0.199,0.524
				c-0.583,0.285-1.166,0.575-1.725,0.902c-0.321,0.187-0.587,0.228-0.884-0.02c-0.049-0.042-0.165-0.006-0.335-0.006
				c0.15,0.183,0.225,0.302,0.324,0.395c0.333,0.313,0.675,0.617,1.015,0.924c0.311,0.282,0.618,0.569,0.936,0.843
				c0.063,0.056,0.18,0.114,0.242,0.091c0.265-0.1,0.52-0.231,0.779-0.35C270.787,54.278,270.777,54.252,270.768,54.224z"/>
			<path class="st18" d="M282.923,62.275c-0.088,0.068-0.177,0.188-0.288,0.214c-0.378,0.091-0.762,0.156-1.146,0.222
				c-0.521,0.089-1.041,0.194-1.565,0.248c-0.273,0.028-0.558,0.204-0.836-0.008c-0.045-0.034-0.12-0.031-0.18-0.045
				c0.011,0.068-0.005,0.162,0.034,0.2c0.304,0.302,0.615,0.597,0.934,0.884c0.051,0.045,0.145,0.042,0.22,0.06
				c-0.006-0.076-0.012-0.15-0.018-0.225c-0.009-0.117-0.065-0.311-0.02-0.339c0.167-0.1,0.395-0.239,0.549-0.193
				c0.248,0.076,0.464,0.276,0.682,0.441c0.234,0.177,0.247,0.279,0.026,0.467c-0.12,0.102-0.293,0.145-0.447,0.196
				c-0.083,0.026-0.179,0.012-0.31,0.019c0.028,0.088,0.028,0.133,0.051,0.154c0.33,0.328,0.658,0.66,1.002,0.976
				c0.056,0.051,0.182,0.025,0.276,0.034c-0.011-0.083,0.008-0.194-0.039-0.247c-0.196-0.217-0.106-0.39,0.062-0.555
				c0.311-0.307,0.638-0.598,0.938-0.916c0.33-0.35,0.638-0.723,0.93-1.058C283.546,62.662,283.227,62.463,282.923,62.275z
				 M282.24,63.347c-0.15,0.139-0.318,0.259-0.487,0.37c-0.034,0.022-0.122-0.009-0.168-0.042c-0.085-0.057-0.165-0.126-0.23-0.205
				c-0.056-0.066-0.136-0.171-0.116-0.225c0.029-0.079,0.131-0.16,0.216-0.182c0.197-0.048,0.406-0.06,0.666-0.096
				c0.043,0.029,0.154,0.066,0.194,0.143C282.342,63.165,282.294,63.296,282.24,63.347z"/>
		</g>
	</g>
</g>
</svg>
