<?xml version="1.0" encoding="utf-8"?>
<!-- Generator: Adobe Illustrator 25.2.1, SVG Export Plug-In . SVG Version: 6.00 Build 0)  -->
<svg version="1.1" id="Layer_1" xmlns="http://www.w3.org/2000/svg" xmlns:xlink="http://www.w3.org/1999/xlink" x="0px" y="0px"
	 viewBox="0 0 100 21" style="enable-background:new 0 0 100 21;" xml:space="preserve">
<style type="text/css">
	.st0{fill:#199EC2;}
</style>
<g>
	<g>
		<path d="M37.543,15.741V4.568h4.035c0.652,0,1.211,0.068,1.676,0.202c0.466,0.135,0.846,0.326,1.141,0.574
			c0.295,0.248,0.509,0.546,0.644,0.892c0.135,0.347,0.202,0.727,0.202,1.141c0,0.394-0.052,0.732-0.155,1.017
			c-0.104,0.284-0.238,0.522-0.404,0.714c-0.165,0.192-0.354,0.341-0.566,0.45c-0.212,0.109-0.432,0.184-0.66,0.225v0.031
			c0.776,0.114,1.352,0.419,1.73,0.915c0.378,0.497,0.566,1.117,0.566,1.862c0,0.58-0.091,1.071-0.272,1.474
			c-0.181,0.403-0.432,0.729-0.752,0.977c-0.321,0.248-0.706,0.427-1.156,0.535c-0.45,0.109-0.939,0.163-1.466,0.163H37.543z
			 M38.598,9.503h2.669c0.548,0,1.009-0.046,1.381-0.14c0.372-0.093,0.672-0.23,0.9-0.411c0.227-0.181,0.39-0.403,0.489-0.667
			c0.098-0.264,0.147-0.566,0.147-0.908c0-0.352-0.057-0.649-0.171-0.892c-0.114-0.243-0.295-0.439-0.543-0.59
			c-0.248-0.15-0.572-0.259-0.97-0.326c-0.398-0.067-0.887-0.101-1.466-0.101h-2.436V9.503z M38.598,14.841h2.684
			c0.579,0,1.084-0.026,1.513-0.078c0.429-0.052,0.784-0.158,1.063-0.318c0.279-0.16,0.489-0.388,0.628-0.683
			c0.14-0.295,0.209-0.685,0.209-1.172c0-0.465-0.078-0.84-0.233-1.125c-0.155-0.284-0.378-0.504-0.667-0.659
			c-0.29-0.156-0.636-0.261-1.04-0.318c-0.403-0.057-0.854-0.086-1.35-0.086h-2.808V14.841z"/>
		<path d="M53.2,7.702h0.931v8.038H53.2v-1.117c-0.124,0.145-0.264,0.295-0.419,0.45c-0.155,0.155-0.333,0.297-0.535,0.427
			c-0.202,0.13-0.437,0.238-0.706,0.326c-0.269,0.088-0.579,0.132-0.931,0.132c-0.538,0-0.988-0.075-1.35-0.225
			c-0.362-0.15-0.654-0.36-0.877-0.628c-0.223-0.269-0.383-0.582-0.481-0.939c-0.099-0.357-0.148-0.747-0.148-1.171V7.702h0.931
			v5.276c0,0.693,0.16,1.223,0.481,1.59c0.32,0.368,0.848,0.551,1.583,0.551c0.383,0,0.727-0.075,1.032-0.225
			c0.305-0.15,0.561-0.36,0.768-0.629c0.207-0.269,0.367-0.59,0.481-0.962c0.114-0.373,0.171-0.781,0.171-1.226V7.702z"/>
		<path d="M56.924,13.227c0.145,0.693,0.406,1.182,0.784,1.466c0.378,0.285,0.918,0.427,1.621,0.427
			c0.341,0,0.636-0.041,0.884-0.124c0.248-0.083,0.452-0.194,0.613-0.334c0.16-0.14,0.282-0.297,0.365-0.473
			c0.082-0.176,0.124-0.362,0.124-0.558c0-0.393-0.127-0.685-0.38-0.877c-0.254-0.191-0.572-0.341-0.954-0.45
			c-0.383-0.108-0.797-0.201-1.241-0.279c-0.445-0.078-0.859-0.194-1.241-0.349c-0.383-0.155-0.701-0.378-0.955-0.667
			c-0.254-0.289-0.38-0.698-0.38-1.226c0-0.673,0.246-1.223,0.737-1.653c0.491-0.429,1.187-0.644,2.087-0.644
			c0.869,0,1.575,0.194,2.118,0.582c0.543,0.388,0.871,1.038,0.985,1.948h-0.947c-0.083-0.621-0.318-1.058-0.706-1.311
			c-0.388-0.254-0.877-0.38-1.466-0.38s-1.04,0.127-1.35,0.38s-0.465,0.587-0.465,1.001c0,0.362,0.127,0.639,0.38,0.83
			c0.253,0.192,0.571,0.347,0.954,0.466c0.382,0.119,0.796,0.225,1.241,0.318c0.445,0.093,0.858,0.225,1.241,0.396
			s0.701,0.401,0.954,0.691c0.254,0.29,0.38,0.693,0.38,1.21c0,0.383-0.083,0.722-0.248,1.017c-0.165,0.295-0.393,0.541-0.682,0.737
			c-0.29,0.197-0.634,0.344-1.032,0.443c-0.398,0.098-0.835,0.147-1.311,0.147c-0.476,0-0.898-0.07-1.264-0.209
			c-0.367-0.14-0.681-0.333-0.939-0.582s-0.46-0.538-0.605-0.869c-0.145-0.331-0.228-0.688-0.248-1.071H56.924z"/>
		<path d="M64.233,5.949V4.568h1.024v1.381H64.233z M64.28,15.741V7.702h0.931v8.038H64.28z"/>
		<path d="M68.516,15.741h-0.931V7.702h0.931V8.82c0.372-0.393,0.758-0.714,1.156-0.962c0.398-0.248,0.877-0.372,1.435-0.372
			c0.497,0,0.957,0.085,1.381,0.256c0.424,0.171,0.781,0.468,1.071,0.892c0.197,0.29,0.313,0.587,0.349,0.892
			c0.036,0.305,0.054,0.624,0.054,0.954v5.261h-0.931v-5.245c0-0.724-0.16-1.267-0.481-1.629c-0.321-0.362-0.854-0.543-1.598-0.543
			c-0.29,0-0.554,0.044-0.792,0.132c-0.238,0.088-0.452,0.204-0.644,0.349c-0.191,0.145-0.354,0.311-0.488,0.497
			c-0.135,0.186-0.238,0.383-0.311,0.59c-0.093,0.259-0.15,0.507-0.171,0.745c-0.021,0.238-0.031,0.497-0.031,0.776V15.741z"/>
		<path d="M76.786,11.939c0,0.435,0.057,0.846,0.171,1.234c0.114,0.388,0.282,0.724,0.504,1.009
			c0.222,0.285,0.505,0.512,0.846,0.683s0.735,0.256,1.179,0.256c0.61,0,1.133-0.16,1.567-0.481c0.435-0.32,0.724-0.776,0.869-1.366
			h1.04c-0.114,0.383-0.264,0.737-0.45,1.063c-0.186,0.326-0.419,0.611-0.698,0.854c-0.279,0.243-0.61,0.432-0.993,0.566
			c-0.383,0.134-0.828,0.201-1.334,0.201c-0.641,0-1.195-0.108-1.66-0.326c-0.466-0.217-0.849-0.514-1.149-0.892
			c-0.3-0.378-0.522-0.822-0.667-1.334c-0.145-0.512-0.217-1.063-0.217-1.653c0-0.59,0.085-1.143,0.256-1.66
			c0.171-0.517,0.414-0.97,0.73-1.358c0.315-0.388,0.701-0.693,1.156-0.916c0.455-0.222,0.973-0.333,1.552-0.333
			c1.107,0,1.976,0.38,2.607,1.141c0.631,0.76,0.941,1.865,0.931,3.313H76.786z M82.032,11.163c0-0.393-0.054-0.763-0.163-1.109
			c-0.109-0.346-0.269-0.646-0.481-0.9c-0.212-0.254-0.479-0.455-0.799-0.605c-0.321-0.15-0.688-0.225-1.102-0.225
			c-0.414,0-0.779,0.078-1.094,0.233c-0.316,0.155-0.584,0.362-0.807,0.621c-0.222,0.259-0.401,0.558-0.535,0.9
			c-0.135,0.341-0.223,0.704-0.264,1.086H82.032z"/>
		<path d="M85.383,13.227c0.145,0.693,0.406,1.182,0.784,1.466c0.378,0.285,0.918,0.427,1.621,0.427
			c0.341,0,0.636-0.041,0.884-0.124c0.248-0.083,0.452-0.194,0.613-0.334c0.16-0.14,0.282-0.297,0.365-0.473
			c0.082-0.176,0.124-0.362,0.124-0.558c0-0.393-0.127-0.685-0.38-0.877c-0.254-0.191-0.572-0.341-0.954-0.45
			c-0.383-0.108-0.797-0.201-1.241-0.279c-0.445-0.078-0.859-0.194-1.241-0.349c-0.383-0.155-0.701-0.378-0.955-0.667
			c-0.254-0.289-0.38-0.698-0.38-1.226c0-0.673,0.246-1.223,0.737-1.653c0.491-0.429,1.187-0.644,2.087-0.644
			c0.869,0,1.575,0.194,2.118,0.582c0.543,0.388,0.871,1.038,0.985,1.948h-0.947c-0.083-0.621-0.318-1.058-0.706-1.311
			c-0.388-0.254-0.877-0.38-1.466-0.38c-0.59,0-1.04,0.127-1.35,0.38c-0.31,0.254-0.465,0.587-0.465,1.001
			c0,0.362,0.127,0.639,0.38,0.83c0.253,0.192,0.571,0.347,0.954,0.466c0.382,0.119,0.796,0.225,1.241,0.318
			c0.445,0.093,0.858,0.225,1.241,0.396s0.701,0.401,0.954,0.691c0.254,0.29,0.38,0.693,0.38,1.21c0,0.383-0.083,0.722-0.248,1.017
			c-0.165,0.295-0.393,0.541-0.682,0.737c-0.29,0.197-0.634,0.344-1.032,0.443c-0.398,0.098-0.835,0.147-1.311,0.147
			c-0.476,0-0.898-0.07-1.264-0.209c-0.367-0.14-0.681-0.333-0.939-0.582s-0.46-0.538-0.605-0.869
			c-0.145-0.331-0.228-0.688-0.248-1.071H85.383z"/>
		<path d="M93.142,13.227c0.145,0.693,0.406,1.182,0.784,1.466c0.378,0.285,0.918,0.427,1.621,0.427
			c0.341,0,0.636-0.041,0.884-0.124c0.248-0.083,0.452-0.194,0.613-0.334c0.16-0.14,0.282-0.297,0.365-0.473
			c0.082-0.176,0.124-0.362,0.124-0.558c0-0.393-0.127-0.685-0.38-0.877c-0.254-0.191-0.572-0.341-0.954-0.45
			c-0.383-0.108-0.797-0.201-1.241-0.279c-0.445-0.078-0.859-0.194-1.241-0.349c-0.383-0.155-0.701-0.378-0.955-0.667
			c-0.254-0.289-0.38-0.698-0.38-1.226c0-0.673,0.246-1.223,0.737-1.653c0.491-0.429,1.187-0.644,2.087-0.644
			c0.869,0,1.575,0.194,2.118,0.582c0.543,0.388,0.871,1.038,0.985,1.948h-0.947c-0.083-0.621-0.318-1.058-0.706-1.311
			c-0.388-0.254-0.877-0.38-1.466-0.38c-0.59,0-1.04,0.127-1.35,0.38c-0.31,0.254-0.465,0.587-0.465,1.001
			c0,0.362,0.127,0.639,0.38,0.83c0.253,0.192,0.571,0.347,0.954,0.466c0.382,0.119,0.796,0.225,1.241,0.318
			c0.445,0.093,0.858,0.225,1.241,0.396s0.701,0.401,0.954,0.691c0.254,0.29,0.38,0.693,0.38,1.21c0,0.383-0.083,0.722-0.248,1.017
			c-0.165,0.295-0.393,0.541-0.682,0.737c-0.29,0.197-0.634,0.344-1.032,0.443c-0.398,0.098-0.835,0.147-1.311,0.147
			c-0.476,0-0.898-0.07-1.264-0.209c-0.367-0.14-0.681-0.333-0.939-0.582s-0.46-0.538-0.605-0.869
			c-0.145-0.331-0.228-0.688-0.248-1.071H93.142z"/>
	</g>
	<polygon class="st0" points="34.098,9.479 34.815,8.781 34.815,6.667 32.682,4.533 25.603,4.533 23.47,6.666 23.47,5.251 
		22.753,4.534 19.921,4.534 19.223,5.251 19.223,6.667 17.788,8.082 16.373,6.667 16.373,5.251 15.674,4.534 12.843,4.534 
		12.126,5.251 12.126,5.251 11.408,4.533 8.577,4.533 7.878,5.251 7.878,8.082 4.33,4.533 1.498,4.533 0.781,5.251 0.781,15.16 
		1.498,15.878 4.33,15.878 5.028,15.16 5.028,12.329 8.577,15.878 11.408,15.878 12.126,15.16 12.126,9.498 15.674,13.047 
		15.674,15.161 16.373,15.878 19.223,15.878 19.921,15.161 19.921,13.047 23.47,9.498 23.47,13.745 25.603,15.878 32.682,15.878 
		34.815,13.745 34.815,11.631 34.098,10.914 30.568,10.914 30.568,11.631 27.717,11.631 27.717,8.781 30.568,8.781 30.568,9.479 	
		"/>
</g>
</svg>
