<?xml version="1.0" encoding="utf-8"?>
<!-- Generator: Adobe Illustrator 25.2.1, SVG Export Plug-In . SVG Version: 6.00 Build 0)  -->
<svg version="1.1" id="Layer_1" xmlns="http://www.w3.org/2000/svg" xmlns:xlink="http://www.w3.org/1999/xlink" x="0px" y="0px"
	 viewBox="0 0 100 21" style="enable-background:new 0 0 100 21;" xml:space="preserve">
<style type="text/css">
	.st0{fill:#00597C;}
	.st1{fill:#0066A8;}
	.st2{fill:#6EA447;}
	.st3{fill:#BCD041;}
	.st4{fill:#0094D4;}
</style>
<g>
	<g>
		<path d="M21.807,6.999h2.52c0.499,0,0.87,0.021,1.115,0.062c0.245,0.042,0.464,0.128,0.658,0.26
			c0.193,0.132,0.355,0.307,0.484,0.526c0.129,0.22,0.194,0.465,0.194,0.738c0,0.295-0.08,0.566-0.239,0.813
			c-0.159,0.246-0.375,0.431-0.647,0.554c0.384,0.112,0.68,0.303,0.886,0.572s0.31,0.586,0.31,0.95c0,0.287-0.067,0.566-0.2,0.836
			c-0.133,0.271-0.315,0.487-0.546,0.649c-0.231,0.162-0.515,0.262-0.854,0.299c-0.212,0.023-0.724,0.037-1.535,0.043h-2.145V6.999z
			 M23.08,8.049v1.458h0.834c0.496,0,0.804-0.007,0.924-0.022c0.218-0.026,0.389-0.101,0.514-0.226
			c0.125-0.125,0.187-0.288,0.187-0.492c0-0.195-0.054-0.353-0.161-0.475c-0.108-0.122-0.267-0.196-0.48-0.222
			c-0.126-0.014-0.488-0.022-1.087-0.022H23.08z M23.08,10.555v1.686h1.178c0.458,0,0.749-0.013,0.873-0.039
			c0.189-0.034,0.343-0.118,0.462-0.252c0.119-0.133,0.178-0.312,0.178-0.535c0-0.189-0.046-0.35-0.138-0.482
			c-0.091-0.132-0.224-0.228-0.398-0.288c-0.173-0.06-0.549-0.09-1.129-0.09H23.08z"/>
		<path d="M27.933,6.999h1.273v3.414c0,0.542,0.016,0.893,0.047,1.054c0.055,0.258,0.184,0.465,0.389,0.621s0.485,0.234,0.841,0.234
			c0.361,0,0.633-0.074,0.817-0.221c0.183-0.148,0.294-0.329,0.331-0.544c0.037-0.215,0.056-0.572,0.056-1.071V6.999h1.273v3.311
			c0,0.757-0.034,1.291-0.103,1.604c-0.069,0.313-0.196,0.576-0.38,0.791c-0.185,0.215-0.432,0.386-0.742,0.514
			c-0.31,0.128-0.714,0.192-1.213,0.192c-0.602,0-1.058-0.07-1.369-0.209c-0.311-0.139-0.557-0.319-0.738-0.542
			c-0.18-0.222-0.299-0.455-0.357-0.699c-0.083-0.361-0.125-0.894-0.125-1.6V6.999z"/>
		<path d="M33.758,11.252l1.238-0.12c0.075,0.415,0.226,0.721,0.454,0.915c0.228,0.195,0.536,0.292,0.922,0.292
			c0.41,0,0.719-0.086,0.927-0.26c0.207-0.173,0.312-0.376,0.312-0.608c0-0.149-0.044-0.276-0.131-0.381
			c-0.087-0.104-0.24-0.196-0.458-0.273c-0.149-0.052-0.488-0.143-1.019-0.275c-0.683-0.169-1.161-0.377-1.436-0.624
			c-0.387-0.347-0.58-0.77-0.58-1.268c0-0.321,0.091-0.621,0.273-0.901c0.182-0.28,0.444-0.492,0.787-0.638
			c0.343-0.146,0.756-0.219,1.24-0.219c0.791,0,1.387,0.173,1.787,0.52c0.4,0.347,0.609,0.81,0.629,1.389L37.43,8.857
			c-0.054-0.324-0.171-0.557-0.35-0.699c-0.179-0.142-0.448-0.213-0.806-0.213c-0.37,0-0.659,0.076-0.869,0.228
			c-0.135,0.097-0.202,0.228-0.202,0.391c0,0.149,0.063,0.277,0.189,0.383c0.161,0.135,0.55,0.275,1.17,0.421
			c0.619,0.146,1.077,0.297,1.374,0.454c0.296,0.156,0.529,0.37,0.696,0.641c0.168,0.271,0.252,0.605,0.252,1.004
			c0,0.361-0.1,0.699-0.301,1.015c-0.2,0.315-0.484,0.549-0.851,0.703c-0.367,0.153-0.824,0.23-1.372,0.23
			c-0.797,0-1.409-0.184-1.836-0.552C34.097,12.494,33.842,11.957,33.758,11.252z"/>
		<path d="M39.696,13.303V6.999h1.273v6.303H39.696z"/>
		<path d="M41.973,13.303V6.999h1.238l2.579,4.209V6.999h1.183v6.303h-1.277l-2.541-4.11v4.11H41.973z"/>
		<path d="M48.1,13.303V6.999h4.673v1.066h-3.401v1.398h3.164v1.062h-3.164v1.716h3.521v1.062H48.1z"/>
		<path d="M53.429,11.252l1.238-0.12c0.075,0.415,0.226,0.721,0.454,0.915c0.228,0.195,0.536,0.292,0.922,0.292
			c0.41,0,0.719-0.086,0.927-0.26c0.207-0.173,0.312-0.376,0.312-0.608c0-0.149-0.044-0.276-0.131-0.381
			c-0.087-0.104-0.24-0.196-0.458-0.273c-0.149-0.052-0.488-0.143-1.019-0.275c-0.683-0.169-1.161-0.377-1.436-0.624
			c-0.387-0.347-0.58-0.77-0.58-1.268c0-0.321,0.091-0.621,0.273-0.901c0.182-0.28,0.444-0.492,0.787-0.638
			c0.343-0.146,0.756-0.219,1.24-0.219c0.791,0,1.387,0.173,1.787,0.52c0.4,0.347,0.609,0.81,0.629,1.389l-1.273,0.056
			c-0.054-0.324-0.171-0.557-0.35-0.699c-0.179-0.142-0.448-0.213-0.806-0.213c-0.37,0-0.659,0.076-0.869,0.228
			c-0.135,0.097-0.202,0.228-0.202,0.391c0,0.149,0.063,0.277,0.189,0.383c0.161,0.135,0.55,0.275,1.17,0.421
			c0.619,0.146,1.077,0.297,1.374,0.454c0.296,0.156,0.529,0.37,0.696,0.641c0.168,0.271,0.252,0.605,0.252,1.004
			c0,0.361-0.1,0.699-0.301,1.015c-0.2,0.315-0.484,0.549-0.851,0.703c-0.367,0.153-0.824,0.23-1.372,0.23
			c-0.797,0-1.409-0.184-1.836-0.552C53.768,12.494,53.513,11.957,53.429,11.252z"/>
		<path d="M59.083,11.252l1.238-0.12c0.075,0.415,0.226,0.721,0.454,0.915c0.228,0.195,0.536,0.292,0.922,0.292
			c0.41,0,0.719-0.086,0.927-0.26c0.207-0.173,0.312-0.376,0.312-0.608c0-0.149-0.044-0.276-0.131-0.381
			c-0.087-0.104-0.24-0.196-0.458-0.273c-0.149-0.052-0.488-0.143-1.019-0.275c-0.683-0.169-1.161-0.377-1.436-0.624
			c-0.387-0.347-0.58-0.77-0.58-1.268c0-0.321,0.091-0.621,0.273-0.901c0.182-0.28,0.444-0.492,0.787-0.638
			c0.343-0.146,0.756-0.219,1.24-0.219c0.791,0,1.387,0.173,1.787,0.52c0.4,0.347,0.609,0.81,0.629,1.389l-1.273,0.056
			C62.7,8.533,62.583,8.3,62.404,8.158c-0.179-0.142-0.448-0.213-0.806-0.213c-0.37,0-0.659,0.076-0.869,0.228
			c-0.135,0.097-0.202,0.228-0.202,0.391c0,0.149,0.063,0.277,0.189,0.383c0.161,0.135,0.55,0.275,1.17,0.421
			c0.619,0.146,1.077,0.297,1.374,0.454c0.296,0.156,0.529,0.37,0.696,0.641c0.168,0.271,0.252,0.605,0.252,1.004
			c0,0.361-0.1,0.699-0.301,1.015c-0.2,0.315-0.484,0.549-0.851,0.703c-0.367,0.153-0.824,0.23-1.372,0.23
			c-0.797,0-1.409-0.184-1.836-0.552C59.421,12.494,59.166,11.957,59.083,11.252z"/>
		<path d="M65.05,13.303v-1.208h1.208v1.208H65.05z"/>
		<path d="M67.298,13.303V6.999h1.238l2.579,4.209V6.999h1.183v6.303h-1.277l-2.541-4.11v4.11H67.298z"/>
		<path d="M75.698,6.999h1.268v3.99c0,0.521-0.046,0.923-0.138,1.204c-0.123,0.367-0.347,0.661-0.671,0.884
			c-0.324,0.222-0.751,0.333-1.281,0.333c-0.622,0-1.101-0.174-1.436-0.522c-0.336-0.348-0.505-0.859-0.508-1.533l1.2-0.138
			c0.014,0.361,0.067,0.616,0.159,0.765c0.138,0.227,0.347,0.34,0.628,0.34c0.284,0,0.485-0.081,0.602-0.243
			c0.117-0.162,0.176-0.498,0.176-1.008V6.999z"/>
		<path d="M78.092,13.303v-1.208H79.3v1.208H78.092z"/>
		<path d="M83.26,10.985V9.923h2.743v2.511c-0.267,0.258-0.653,0.485-1.159,0.681c-0.506,0.197-1.018,0.295-1.537,0.295
			c-0.659,0-1.234-0.139-1.724-0.415c-0.49-0.276-0.859-0.672-1.105-1.186c-0.247-0.515-0.37-1.074-0.37-1.679
			c0-0.657,0.138-1.24,0.413-1.75c0.275-0.51,0.678-0.901,1.208-1.174c0.404-0.209,0.907-0.314,1.509-0.314
			c0.782,0,1.394,0.164,1.834,0.492c0.44,0.328,0.723,0.782,0.849,1.361l-1.264,0.236c-0.089-0.31-0.256-0.554-0.501-0.733
			C83.911,8.07,83.605,7.98,83.238,7.98c-0.556,0-0.998,0.176-1.326,0.529c-0.328,0.353-0.492,0.876-0.492,1.57
			c0,0.748,0.166,1.309,0.499,1.683c0.333,0.374,0.768,0.561,1.307,0.561c0.266,0,0.534-0.052,0.802-0.157
			c0.268-0.105,0.498-0.231,0.69-0.381v-0.8H83.26z"/>
		<path d="M86.698,10.19c0-0.642,0.096-1.181,0.288-1.616c0.143-0.321,0.339-0.609,0.587-0.864c0.248-0.255,0.519-0.444,0.815-0.568
			c0.393-0.166,0.846-0.249,1.359-0.249c0.929,0,1.672,0.288,2.23,0.864c0.557,0.576,0.836,1.377,0.836,2.403
			c0,1.018-0.277,1.814-0.829,2.388c-0.553,0.575-1.293,0.862-2.219,0.862c-0.937,0-1.683-0.286-2.236-0.858
			C86.975,11.981,86.698,11.193,86.698,10.19z M88.009,10.147c0,0.714,0.165,1.255,0.494,1.623c0.33,0.368,0.748,0.552,1.256,0.552
			c0.508,0,0.924-0.183,1.249-0.548c0.325-0.366,0.488-0.914,0.488-1.645c0-0.722-0.158-1.261-0.475-1.617
			c-0.316-0.355-0.737-0.533-1.262-0.533c-0.524,0-0.947,0.18-1.268,0.54C88.17,8.879,88.009,9.422,88.009,10.147z"/>
		<path d="M95.193,13.303L92.94,6.999h1.38l1.595,4.665l1.544-4.665h1.35l-2.257,6.303H95.193z"/>
	</g>
	<g>
		<g>
			<g>
				<path d="M9.515,19.262c-4.972,0-9.017-4.045-9.017-9.017c0-4.972,4.045-9.017,9.017-9.017c4.972,0,9.016,4.045,9.016,9.017
					C18.531,15.217,14.487,19.262,9.515,19.262z M9.515,1.304c-4.93,0-8.941,4.011-8.941,8.941c0,4.93,4.011,8.942,8.941,8.942
					c4.93,0,8.941-4.011,8.941-8.942C18.456,5.315,14.445,1.304,9.515,1.304z"/>
			</g>
		</g>
		<path class="st0" d="M8.214,19.806c-0.089,0-0.177,0-0.288,0c0-0.133,0.022-0.266,0.044-0.399c0.022-0.155,0.066-0.31,0.155-0.443
			c0.155-0.199,0.199-0.421,0.288-0.62c0.066-0.155-0.022-0.399-0.155-0.465c-0.199-0.111-0.376-0.133-0.598-0.111
			c-0.066,0-0.111,0-0.111-0.089c0-0.066-0.022-0.133-0.111-0.066c-0.066,0.044-0.133,0.044-0.199,0.022
			c-0.111-0.022-0.177,0-0.221,0.111c-0.022,0.066-0.089,0.111-0.155,0.066c-0.089-0.089-0.221-0.155-0.155-0.332
			c0.022-0.089-0.022-0.155-0.111-0.155c-0.022,0-0.066,0-0.066-0.044c-0.022-0.066-0.066-0.089-0.133-0.111
			c-0.066-0.022-0.133-0.044-0.155-0.133c0-0.133-0.111-0.177-0.199-0.111c-0.066,0.044-0.089,0.022-0.133,0
			c-0.133-0.066-0.111-0.221-0.177-0.332c-0.044-0.066-0.066-0.133-0.155-0.066c-0.044,0.022-0.066,0.022-0.089,0
			c-0.066-0.066-0.177-0.133-0.177-0.244c0-0.044-0.022-0.111-0.089-0.111c-0.155-0.022-0.221-0.133-0.288-0.244
			c-0.111-0.155-0.221-0.332-0.465-0.288c-0.044,0-0.066-0.022-0.089-0.044c-0.044-0.044-0.066-0.089-0.089-0.133
			c0-0.044,0-0.089,0-0.133c0.022-0.066,0.089-0.066,0.155-0.089c0.044,0,0.066,0,0.066-0.044c0-0.066,0.044-0.155,0-0.221
			c-0.022-0.044,0-0.089,0.022-0.111c0.111-0.155,0.111-0.155-0.044-0.31c-0.022-0.022-0.044-0.044-0.044-0.044
			c-0.155-0.133-0.155-0.266,0-0.399c0.089-0.066,0.177-0.155,0.177-0.266c0.022-0.089,0.044-0.155,0.111-0.221
			c0.044-0.044,0.089-0.089,0.089-0.133c0.044-0.31,0.31-0.443,0.465-0.664c0.089-0.111,0.221-0.177,0.332-0.266
			c0.089-0.066,0.199-0.089,0.31-0.066c0.244,0.022,0.443-0.044,0.62-0.177c0.044-0.044,0.089-0.066,0.155-0.066
			c0.244-0.022,0.288-0.089,0.221-0.31c-0.044-0.199,0-0.31,0.177-0.376c0.288-0.089,0.399-0.399,0.664-0.509l0.022-0.022
			c0.133-0.111,0.288-0.221,0.465-0.266c0.221-0.044,0.421-0.133,0.509-0.376c0.022-0.066,0.089-0.089,0.177-0.044
			c0.044,0.022,0.111,0.044,0.155,0s0.111-0.066,0.177-0.066c0.066-0.022,0.133-0.066,0.155-0.133
			c0.022-0.066-0.022-0.111-0.089-0.155C9.277,9.952,9.233,9.93,9.211,9.841c-0.044-0.155-0.155-0.244-0.288-0.31
			C8.768,9.465,8.679,9.354,8.635,9.199c-0.044-0.133-0.111-0.244-0.266-0.31C8.214,8.823,8.103,8.69,8.081,8.513
			C8.059,8.424,8.037,8.358,8.015,8.291C7.948,8.158,7.86,8.114,7.705,8.158c-0.066,0.022-0.133,0-0.177-0.022
			C7.373,8.048,7.328,7.848,7.373,7.649C7.417,7.406,7.483,7.14,7.24,6.918C7.129,6.808,7.018,6.786,6.886,6.874
			c-0.133,0.066-0.244,0-0.244-0.155c0-0.133-0.066-0.244,0-0.376c0-0.022,0-0.044-0.022-0.066C6.576,6.188,6.598,6.143,6.664,6.077
			C6.686,6.055,6.731,6.01,6.686,5.966C6.553,5.855,6.553,5.811,6.642,5.678c0.044-0.066,0.089-0.111,0.022-0.177
			C6.598,5.435,6.62,5.368,6.686,5.324C6.731,5.302,6.731,5.28,6.753,5.235s0.066-0.089,0.111-0.066
			c0.155,0.066,0.221-0.044,0.288-0.133C7.218,4.948,7.351,4.859,7.24,4.704C7.196,4.66,7.262,4.615,7.328,4.615
			c0.133-0.022,0.177-0.089,0.111-0.199C7.328,4.239,7.24,4.062,7.129,3.885C7.107,3.84,7.085,3.774,7.041,3.73
			c-0.089-0.089-0.089-0.155,0-0.221C7.085,3.464,7.151,3.42,7.218,3.375C7.395,3.287,7.594,3.22,7.683,3.021
			c0.044-0.089,0.111-0.177,0.221-0.199c0.022,0,0.066-0.022,0.066-0.066c-0.089,0.022-0.089,0.022-0.111,0
			c-0.022-0.044,0-0.066,0.022-0.111C7.904,2.623,7.904,2.6,7.948,2.578C8.17,2.468,8.347,2.29,8.458,2.069
			c0.066-0.111,0.155-0.244,0.155-0.376c0-0.066,0-0.133,0.044-0.199c0.111-0.155,0.155-0.376,0.332-0.487
			c0.044-0.044,0.089-0.133,0.177-0.133c0.022,0,0.022-0.022,0.044-0.022c0.155-0.177,0.421-0.221,0.62-0.089
			c1.306,0.664,2.569,1.439,3.853,2.148c0.266,0.155,0.531,0.332,0.819,0.465c0,0.066,0,0.111,0,0.177
			c-0.022,0.066-0.022,0.111-0.044,0.177c-0.111,0.421-0.244,0.841-0.443,1.218c-0.111,0.221-0.221,0.443-0.266,0.686
			c0,0.044-0.022,0.089-0.066,0.133c-0.089,0.066-0.177,0.111-0.221,0.199c-0.022,0.066-0.044,0.133-0.133,0.155v0.022
			c-0.066,0.066-0.155,0.044-0.221,0.022s-0.022-0.089,0-0.133c0.022-0.066,0.089-0.111,0.133-0.199
			c0.022-0.044,0.044-0.066,0-0.111c-0.044-0.022-0.089,0-0.111,0.044c-0.044,0.089-0.111,0.155-0.155,0.244
			c-0.044,0.089-0.089,0.177-0.199,0.199c-0.089,0.022-0.133,0.089-0.133,0.177c0,0.066,0,0.111,0,0.177
			c-0.022,0.133,0,0.31-0.199,0.354c-0.044,0-0.066,0.066-0.066,0.111c0.022,0.111-0.044,0.199-0.066,0.31
			c-0.022,0.089-0.044,0.133-0.133,0.066c-0.066-0.044-0.133-0.089-0.199,0c-0.044,0.044-0.111,0.111-0.155,0.177
			c0.044,0.022,0.089,0,0.111-0.044c0.111-0.155,0.221-0.155,0.31,0.022c0.089,0.177,0.266,0.177,0.399,0.266
			c0.066,0.044,0.066-0.066,0.133-0.089c0,0,0.022-0.022,0.022,0c0.089,0.066,0.199,0,0.288,0.022
			c0.111,0.022,0.221,0.089,0.31,0.155c0.111,0.089,0.244,0.133,0.376,0.155c0.111,0.022,0.199,0.066,0.221,0.177
			c0,0.111,0.044,0.244-0.066,0.354c-0.044,0.044-0.111,0.089-0.133,0.177c0.111-0.022,0.199-0.089,0.221-0.177
			c0.044-0.266,0-0.531-0.177-0.753c-0.044-0.044-0.044-0.111-0.044-0.177c0,0,0.022-0.022,0.044-0.022
			c0.066,0,0.089,0.044,0.133,0.111c0.022,0.022,0.022,0.066,0.044,0.089c0.066,0.177,0.089,0.376,0.089,0.576
			c0,0.221-0.044,0.421-0.066,0.642c-0.022,0.288-0.133,0.531-0.177,0.797c0,0.044-0.044,0.089-0.089,0.066
			c-0.066-0.022-0.133,0.022-0.221-0.022c0.044,0.066,0.089,0.089,0.155,0.089c0.133-0.022,0.133,0.044,0.111,0.133
			c-0.022,0.111-0.066,0.244-0.066,0.354c0,0.044,0,0.089-0.044,0.111c-0.111,0.066-0.266,0.044-0.354-0.066
			c0.022,0.133,0.066,0.177,0.199,0.133c0.155-0.044,0.199,0,0.199,0.155c0,0.044,0,0.089-0.022,0.111
			c-0.066,0.177-0.111,0.376-0.133,0.576c-0.022,0.199-0.089,0.421-0.111,0.62c-0.022,0.31-0.089,0.62-0.089,0.93
			c0,0.044-0.022,0.111-0.044,0.155c-0.022,0.044-0.044,0.044-0.089,0.022c-0.022-0.022-0.044-0.044-0.022-0.066
			c0.066-0.044,0.022-0.111,0.044-0.177c0.089-0.354,0-0.709,0.155-1.041c0-0.022,0.022-0.066-0.022-0.066
			c-0.066,0-0.066,0-0.044-0.066c0.133-0.244,0.177-0.509,0.177-0.775c0-0.022,0-0.044-0.022-0.044
			c-0.022,0-0.044,0.022-0.044,0.044c0,0.022,0.022,0.022,0.022,0.044c0.022,0.089-0.044,0.155-0.089,0.221
			s-0.089-0.022-0.133-0.022c-0.022,0-0.066-0.044-0.111,0.022c0,0,0.022,0,0.022,0.022c0.044,0.022,0.089,0.022,0.089,0.066
			c0,0.066-0.066,0.044-0.089,0.066c-0.022,0.022-0.089-0.022-0.089,0.066c0.133-0.044,0.155,0.066,0.155,0.155
			c0,0.089,0.022,0.177-0.066,0.244c-0.089,0.044-0.177,0.044-0.244,0c-0.044-0.022-0.066-0.044-0.111,0
			c0.111,0.066,0.244,0.111,0.376,0.111c0.022,0,0.066,0,0.066,0.022c0.022,0.044-0.022,0.044-0.044,0.066
			c-0.089,0.066-0.133,0.177-0.133,0.266c0,0.044-0.022,0.089-0.089,0.111c0.089,0.022,0.155,0.022,0.066,0.111
			c-0.022,0.022-0.044,0.044-0.044,0.066c-0.022,0.066-0.066,0.155-0.111,0.199c-0.133,0.155-0.111,0.332-0.155,0.487
			c-0.022,0.044,0.022,0.089,0.066,0.089c0.089,0,0.089,0.066,0.089,0.133c-0.022,0.066,0,0.089,0.044,0.111
			c0.022,0.022,0.066,0.022,0.066,0.066c-0.022,0.022-0.022,0.022-0.044,0.044c-0.133-0.044-0.221,0.022-0.221,0.133
			c0,0.022,0,0.066-0.022,0.066c-0.155,0.044-0.155,0.288-0.332,0.266c-0.022,0-0.022,0.044-0.022,0.066
			c-0.066,0.066-0.022,0.221-0.199,0.244c-0.066,0-0.177,0.044-0.177,0.155c0,0.022-0.022,0.044-0.044,0.044
			c-0.111,0.044-0.066,0.111-0.022,0.177c0.022,0.022,0.044,0.044,0.089,0.066c0.111,0.066,0.111,0.155,0.022,0.244
			c-0.044,0.044-0.089,0.044-0.133,0.044c-0.044,0-0.044-0.066-0.022-0.089c0.022-0.089-0.022-0.133-0.111-0.133
			c-0.133,0-0.288,0.089-0.376-0.133c-0.022,0.199,0,0.376,0.133,0.487c0.022,0.022,0.066,0.066,0.044,0.111
			c-0.022,0.044-0.066-0.022-0.133,0.022c0.089,0.066-0.022,0.155,0.044,0.221c0.022,0.044,0,0.066-0.022,0.089
			c-0.044,0.022-0.066,0-0.089-0.022c-0.022-0.133-0.044-0.177-0.044-0.199c-0.022-0.066-0.044-0.066-0.111-0.022
			c-0.111,0.089-0.066,0.244-0.199,0.31c-0.022,0,0,0.066,0.022,0.089c0.022,0.022,0.066,0,0.066-0.044
			c0.022-0.044,0.044-0.089,0.044-0.155c0.066-0.221,0.111,0.044,0.177,0c0.044-0.022,0.044,0.022,0.044,0.066
			c0,0.022-0.022,0.022-0.022,0.044c-0.155,0.066-0.155,0.066-0.044,0.199c0.022,0.022,0.022,0.044,0.044,0.066
			c0.089,0.111,0.089,0.133-0.022,0.221c-0.199,0.133-0.421,0.177-0.598,0.354c-0.022,0.022-0.044,0.044-0.089,0
			c-0.022-0.022,0-0.044,0-0.066c0.044-0.133,0.155-0.221,0.221-0.354c0.022-0.044,0.044-0.066,0-0.111
			c-0.044-0.022-0.089-0.022-0.133,0.022c-0.022,0.022-0.022,0.066-0.044,0.089c-0.044,0.044-0.022,0.155-0.111,0.155
			c-0.133,0-0.111,0.044-0.111,0.133s-0.044,0.133-0.111,0.133c-0.155-0.022-0.31,0.022-0.465,0c0,0.066,0,0.133,0.089,0.133
			c0.044,0,0.089,0.022,0.089,0.111c0,0.022,0,0.066,0.022,0.066c0.044,0,0.044-0.022,0.044-0.066s0-0.089,0.044-0.066
			c0.089,0.022,0.133-0.022,0.177-0.066c0.044-0.022,0.066-0.022,0.111,0c0.044,0.044,0.022,0.066,0.022,0.111
			c-0.022,0.044-0.066,0.066-0.111,0.089c-0.133,0.044-0.221,0.133-0.266,0.266c-0.044,0.089-0.089,0.155-0.199,0.177
			c-0.044,0.022-0.089,0.044-0.066,0.111c0,0.022,0.022,0.044,0,0.066c-0.111,0.155-0.177,0.354-0.31,0.509
			c-0.044,0.044-0.066,0.066-0.089,0c0-0.022,0-0.044-0.022,0C9.432,18.256,9.388,18.278,9.41,18.3c0,0.022,0.044,0.066,0.089,0.066
			c0.089,0,0.111,0.066,0.066,0.111c-0.111,0.155-0.155,0.332-0.288,0.465c-0.044,0.044-0.066,0.111-0.133,0.089
			s-0.022-0.111,0-0.155c0,0,0,0,0-0.022c0,0.111-0.133,0.155-0.066,0.288c0.044,0.089,0.022,0.133-0.044,0.199
			c-0.111,0.089-0.221,0.199-0.332,0.288C8.591,19.695,8.413,19.739,8.214,19.806z"/>
		<g>
			<path class="st1" d="M16.134,6.951c-0.474-0.92-1.145-1.719-1.96-2.343c-0.048,0.116-0.1,0.23-0.158,0.34
				c-0.111,0.221-0.221,0.443-0.266,0.686c0,0.044-0.022,0.089-0.066,0.133c-0.089,0.066-0.177,0.111-0.221,0.199
				c-0.016,0.048-0.033,0.097-0.074,0.128c1.31,1.11,2.004,2.779,1.841,4.532c-0.256,2.745-2.573,4.811-5.277,4.811
				c-0.164,0-0.33-0.008-0.497-0.023C9,15.372,8.598,15.705,8.556,16.159c-0.042,0.454,0.291,0.857,0.746,0.899
				c0.219,0.02,0.436,0.03,0.652,0.03c3.546,0,6.584-2.71,6.92-6.31C16.997,9.454,16.741,8.13,16.134,6.951z"/>
		</g>
		<g>
			<path class="st2" d="M4.494,14.558c-0.022-0.022-0.044-0.044-0.044-0.044c-0.155-0.133-0.155-0.266,0-0.399
				c0.089-0.066,0.177-0.155,0.177-0.266c0.022-0.089,0.044-0.155,0.111-0.221c0.044-0.044,0.089-0.089,0.089-0.133
				c0.04-0.279,0.259-0.415,0.415-0.6c-0.459-0.725-0.743-1.567-0.807-2.467c-0.209-2.917,1.993-5.46,4.91-5.67
				c0.455-0.033,0.797-0.428,0.765-0.883C10.076,3.42,9.682,3.077,9.226,3.11c-3.825,0.275-6.714,3.61-6.44,7.436
				c0.095,1.328,0.565,2.592,1.357,3.655c0.145,0.195,0.3,0.381,0.463,0.559C4.633,14.699,4.601,14.665,4.494,14.558z"/>
		</g>
		<g>
			<polygon class="st3" points="9.285,3.66 9.368,4.232 9.613,3.905 			"/>
			<polygon class="st3" points="9.107,4.142 9.244,3.958 9.06,3.821 			"/>
		</g>
		<g>
			<polygon class="st4" points="9.393,16.52 9.472,15.947 9.146,16.194 			"/>
			<polygon class="st4" points="9.698,16.106 9.515,16.245 9.654,16.428 			"/>
		</g>
	</g>
</g>
</svg>
