<?xml version="1.0" encoding="utf-8"?>
<!-- Generator: Adobe Illustrator 26.0.3, SVG Export Plug-In . SVG Version: 6.00 Build 0)  -->
<svg version="1.1" id="Layer_1" xmlns="http://www.w3.org/2000/svg" xmlns:xlink="http://www.w3.org/1999/xlink" x="0px" y="0px"
	 viewBox="0 0 149.069 36" style="enable-background:new 0 0 149.069 36;" xml:space="preserve">
<style type="text/css">
	.st0{fill:#93C83D;}
	.st1{fill:#FAEC20;}
	.st2{fill:#26BBED;}
	.st3{fill:#27BAEC;}
	.st4{fill:#FAEC22;}
	.st5{fill:#FAEC24;}
	.st6{fill:#838588;}
	.st7{fill:#161241;}
	.st8{fill:#0AA74B;}
</style>
<g>
	<path class="st0" d="M20.204,6.519c-1.602-0.77-3.207-1.535-4.807-2.31c-0.493-0.239-0.999-0.45-1.473-0.728
		c-0.041,0-0.082,0-0.122,0c-0.029,0.052-0.086,0.063-0.133,0.085c-1.694,0.815-3.388,1.629-5.082,2.443
		C8.19,6.2,7.794,6.39,7.366,6.596c0.266,0.112,0.965,0.407,1.632,0.689v1.228H8.856v0.554H9.34V8.512H9.211V7.375
		c0.545,0.23,1.033,0.437,1.198,0.508c0.105,0.046,0.203,0.054,0.315,0.026c0.422-0.104,0.844-0.203,1.269-0.296
		c0.055-0.012,0.148-0.088,0.179,0.037c0.028,0.115-0.066,0.112-0.136,0.128c-0.344,0.079-0.687,0.162-1.032,0.235
		c-0.128,0.027-0.2,0.065-0.186,0.221c0.018,0.202,0.004,0.408,0.004,0.612c0,0.301,0,0.603,0,0.946
		c0.848-0.902,1.862-1.292,3.04-1.293c1.182-0.001,2.196,0.401,3.04,1.296c0-0.549,0.007-1.044-0.004-1.539
		c-0.003-0.151,0.038-0.229,0.183-0.285c0.405-0.157,0.803-0.332,1.203-0.5c0.679-0.286,1.359-0.573,2.039-0.859
		C20.296,6.55,20.245,6.539,20.204,6.519z"/>
	<path class="st1" d="M52.936,14.662c-0.013,0.014-0.035,0.026-0.038,0.041c-0.171,0.911-0.769,1.414-1.62,1.634
		c-1.096,0.284-2.116,0.123-3.003-0.627c-0.21-0.178-0.364-0.402-0.48-0.651c-0.099-0.211-0.123-0.422,0.045-0.609
		c0.173-0.193,0.395-0.257,0.647-0.194c0.157,0.039,0.297,0.123,0.372,0.266c0.315,0.602,0.863,0.766,1.48,0.795
		c0.281,0.013,0.553-0.04,0.812-0.158c0.319-0.145,0.547-0.364,0.557-0.735c0.011-0.372-0.171-0.65-0.48-0.844
		c-0.283-0.178-0.605-0.231-0.931-0.265c-0.59-0.063-1.142-0.225-1.625-0.589c-1.013-0.762-1.05-2.425,0.287-3.063
		c0.932-0.445,1.898-0.508,2.842-0.011c0.398,0.21,0.693,0.545,0.923,0.931c0.192,0.322,0.127,0.657-0.148,0.823
		c-0.285,0.172-0.654,0.075-0.855-0.224c-0.476-0.711-1.435-0.938-2.192-0.522c-0.242,0.133-0.378,0.331-0.379,0.606
		c-0.001,0.304,0.147,0.534,0.405,0.686c0.293,0.172,0.623,0.226,0.955,0.263c0.434,0.048,0.86,0.12,1.257,0.316
		c0.642,0.318,1.041,0.811,1.134,1.534c0.003,0.023,0.023,0.044,0.036,0.066C52.936,14.308,52.936,14.485,52.936,14.662z"/>
	<path class="st2" d="M7.179,24.164c0.241-0.495,0.465-0.951,0.686-1.408c0.768-1.581,1.535-3.163,2.303-4.744
		c0.145-0.299,0.38-0.424,0.656-0.357c0.274,0.067,0.412,0.266,0.413,0.596c0,2.326,0,4.652,0,6.977
		c0,0.386-0.206,0.617-0.547,0.616c-0.335-0.001-0.553-0.239-0.554-0.62c-0.002-1.598-0.001-3.196-0.001-4.794
		c0-0.072,0-0.144,0-0.217c-0.012-0.003-0.024-0.006-0.037-0.009c-0.259,0.526-0.52,1.051-0.778,1.578
		c-0.559,1.14-1.116,2.28-1.677,3.419c-0.104,0.212-0.27,0.328-0.519,0.325c-0.261-0.003-0.409-0.143-0.518-0.36
		c-0.744-1.495-1.49-2.989-2.236-4.484c-0.067-0.134-0.135-0.266-0.24-0.401c0,0.067,0,0.135,0,0.202
		c0,1.598-0.001,3.196,0.001,4.794c0,0.225-0.087,0.399-0.285,0.503c-0.195,0.102-0.396,0.094-0.58-0.029
		c-0.18-0.12-0.239-0.301-0.239-0.512c0.002-0.966,0.001-1.931,0.001-2.897c0-1.367-0.001-2.734,0.001-4.101
		c0-0.375,0.249-0.625,0.591-0.6c0.244,0.018,0.387,0.165,0.491,0.375c0.658,1.326,1.32,2.649,1.981,3.974
		C6.447,22.702,6.803,23.412,7.179,24.164z"/>
	<path class="st1" d="M36.255,12.371c-0.248,0.503-0.496,1.006-0.743,1.509c-0.302,0.615-0.602,1.232-0.904,1.847
		c-0.12,0.245-0.305,0.399-0.589,0.397c-0.285-0.002-0.457-0.16-0.579-0.407c-0.512-1.034-1.03-2.065-1.546-3.097
		c-0.029-0.059-0.062-0.116-0.129-0.17c0,0.063,0,0.127,0,0.19c0,1.033,0.004,2.067-0.002,3.1c-0.003,0.477-0.43,0.769-0.855,0.59
		c-0.261-0.11-0.373-0.323-0.373-0.6c0-0.428,0-0.857,0-1.285c0-1.462-0.002-2.924,0.001-4.385c0.001-0.506,0.467-0.807,0.897-0.59
		c0.162,0.082,0.246,0.227,0.323,0.38c0.733,1.47,1.467,2.94,2.201,4.41c0.03,0.06,0.062,0.12,0.107,0.205
		c0.258-0.529,0.506-1.037,0.753-1.546c0.504-1.038,1.009-2.075,1.512-3.113c0.115-0.238,0.285-0.395,0.563-0.401
		c0.349-0.008,0.623,0.237,0.624,0.586c0.005,1.931,0.005,3.862,0.001,5.793c-0.001,0.348-0.271,0.596-0.618,0.593
		c-0.348-0.003-0.602-0.253-0.603-0.607c-0.003-1.054-0.001-2.108-0.001-3.162c0-0.075,0-0.149,0-0.224
		C36.28,12.379,36.267,12.375,36.255,12.371z"/>
	<path class="st2" d="M52.904,21.273c0.001,0.299,0.002,0.599,0.003,0.898c-0.1,0.992-0.45,1.87-1.176,2.576
		c-0.754,0.732-1.673,1.069-2.71,1.094c-0.68,0.016-1.36,0.004-2.04,0.003c-0.356-0.001-0.574-0.215-0.574-0.568
		c-0.001-2.353-0.001-4.706,0-7.059c0-0.34,0.201-0.573,0.529-0.57c0.843,0.008,1.686-0.046,2.528,0.035
		c1.709,0.165,3.139,1.528,3.389,3.23C52.87,21.031,52.887,21.152,52.904,21.273z M47.509,21.746c0,0.979,0.004,1.958-0.004,2.937
		c-0.001,0.154,0.04,0.195,0.192,0.191c0.455-0.012,0.912,0.011,1.366-0.014c0.879-0.047,1.613-0.4,2.156-1.107
		c0.494-0.644,0.654-1.385,0.634-2.184c-0.035-1.451-0.965-2.609-2.349-2.888c-0.598-0.12-1.207-0.037-1.81-0.064
		c-0.157-0.007-0.189,0.044-0.188,0.193C47.512,19.788,47.509,20.767,47.509,21.746z"/>
	<path class="st0" d="M7.511,14.05c0-0.073,0-0.145,0-0.218c0-1.272-0.001-2.543,0.001-3.815c0-0.283,0.134-0.481,0.375-0.572
		c0.248-0.094,0.519-0.03,0.691,0.16c0.106,0.118,0.147,0.259,0.147,0.413c0.001,1.918,0.002,3.836-0.001,5.753
		c0,0.289-0.153,0.493-0.402,0.576c-0.268,0.09-0.538,0.003-0.719-0.238c-1.071-1.423-2.14-2.847-3.211-4.269
		c-0.034-0.046-0.054-0.108-0.138-0.136c0,0.075,0,0.14,0,0.204c0,1.272,0.002,2.543-0.001,3.815
		C4.25,16.209,3.845,16.5,3.411,16.337c-0.25-0.093-0.382-0.299-0.382-0.612c-0.001-1.442-0.001-2.883-0.001-4.325
		c0-0.442-0.001-0.884,0-1.326C3.03,9.741,3.165,9.526,3.43,9.434c0.265-0.093,0.532-0.003,0.731,0.262
		c0.969,1.286,1.936,2.575,2.904,3.863c0.13,0.173,0.262,0.344,0.392,0.515C7.475,14.066,7.493,14.058,7.511,14.05z"/>
	<path class="st0" d="M10.327,12.45c0.024-0.936,0.529-2.037,1.762-2.708c1.481-0.806,3.877-0.559,4.894,1.35
		c0.8,1.503,0.567,4.024-1.465,5.013c-1.275,0.62-3.229,0.497-4.33-0.769C10.574,14.631,10.317,13.799,10.327,12.45z M16.209,12.647
		c-0.019-0.667-0.349-1.423-1.165-1.881c-0.779-0.437-1.598-0.439-2.373,0.008c-0.864,0.498-1.185,1.308-1.153,2.274
		c0.048,1.444,1.322,2.483,2.738,2.239C15.435,15.086,16.209,14.136,16.209,12.647z"/>
	<path class="st2" d="M34.654,21.736c0,1.17,0,2.34,0,3.509c0,0.379-0.198,0.598-0.538,0.598c-0.33,0-0.555-0.231-0.556-0.595
		c-0.004-0.959-0.005-1.918,0.002-2.877c0.001-0.155-0.034-0.205-0.199-0.205c-1.483,0.007-2.965,0.007-4.448,0
		c-0.164-0.001-0.218,0.035-0.217,0.209c0.009,0.952,0.005,1.904,0.004,2.856c0,0.391-0.199,0.612-0.547,0.611
		c-0.338-0.001-0.555-0.237-0.555-0.617c-0.001-2.115-0.001-4.23-0.001-6.345c0-0.231-0.007-0.463,0.002-0.694
		c0.01-0.267,0.149-0.447,0.383-0.52c0.229-0.071,0.47-0.002,0.609,0.171c0.091,0.113,0.109,0.243,0.109,0.383
		c-0.002,0.925,0.003,1.85-0.005,2.775c-0.001,0.16,0.041,0.205,0.203,0.204c1.489-0.006,2.979-0.006,4.468,0
		c0.153,0.001,0.193-0.041,0.192-0.193c-0.007-0.918-0.006-1.836-0.002-2.754c0.002-0.438,0.334-0.705,0.72-0.588
		c0.246,0.074,0.374,0.255,0.375,0.54C34.655,19.383,34.654,20.559,34.654,21.736z"/>
	<path class="st3" d="M13.336,21.732c0-1.149,0-2.299,0-3.448c0-0.455,0.188-0.643,0.644-0.643c1.53,0,3.06-0.001,4.59,0
		c0.391,0,0.601,0.195,0.59,0.54c-0.009,0.295-0.21,0.477-0.544,0.479c-0.653,0.004-1.306,0.001-1.959,0.001
		c-0.68,0-1.36,0.005-2.04-0.004c-0.157-0.002-0.193,0.044-0.191,0.194c0.008,0.714,0.01,1.428-0.001,2.142
		c-0.003,0.179,0.06,0.209,0.221,0.208c0.918-0.007,1.836-0.005,2.754-0.003c0.347,0.001,0.56,0.183,0.569,0.478
		c0.01,0.327-0.189,0.534-0.526,0.534c-0.932,0.002-1.863,0.006-2.795-0.004c-0.182-0.002-0.226,0.046-0.224,0.225
		c0.011,0.734,0.009,1.469,0.001,2.203c-0.002,0.153,0.039,0.193,0.193,0.192c1.278-0.007,2.557-0.004,3.835-0.003
		c0.095,0,0.192-0.003,0.285,0.013c0.287,0.049,0.435,0.243,0.418,0.532c-0.017,0.281-0.2,0.471-0.486,0.472
		c-1.605,0.004-3.21,0.004-4.815,0c-0.317-0.001-0.519-0.233-0.52-0.58c-0.002-0.911-0.001-1.823-0.001-2.734
		C13.336,22.263,13.336,21.997,13.336,21.732z"/>
	<path class="st2" d="M44.745,20.41c0.268,0.397,0.312,0.826,0.165,1.272c-0.064,0.192-0.123,0.364-0.026,0.565
		c0.052,0.108,0.001,0.228-0.079,0.322c-0.151,0.178-0.57,0.212-0.724,0.036c-0.146-0.167-0.283-0.308-0.52-0.228
		c-0.028-0.086,0.029-0.107,0.054-0.142c0.057-0.083,0.067-0.162-0.002-0.241c-0.072-0.082-0.155-0.08-0.235-0.017
		c-0.071,0.056-0.134,0.081-0.216,0.016c-0.078-0.061-0.169-0.068-0.238,0.013c-0.072,0.084-0.068,0.196,0.012,0.258
		c0.223,0.171,0.335,0.48,0.675,0.509c0.178,0.015,0.296,0.184,0.458,0.257c0.129,0.058,0.257,0.097,0.393,0.068
		c0.13-0.028,0.13,0.02,0.115,0.125c-0.053,0.353-0.269,0.582-0.57,0.763c-0.028-0.105-0.037-0.224-0.091-0.316
		c-0.061-0.103-0.138-0.249-0.3-0.164c-0.146,0.076-0.096,0.199-0.041,0.318c0.224,0.482,0.042,1.096-0.408,1.382
		c-0.063,0.04-0.127,0.079-0.212,0.085c0.01-0.167,0.021-0.333,0.028-0.499c0.011-0.25-0.038-0.488-0.156-0.708
		c-0.049-0.091-0.071-0.17-0.002-0.26c0.043-0.057,0.037-0.129,0.034-0.197c-0.004-0.092-0.049-0.157-0.14-0.177
		c-0.096-0.021-0.161,0.03-0.188,0.116c-0.046,0.146-0.135,0.21-0.289,0.192c-0.121-0.014-0.198,0.036-0.203,0.167
		c-0.006,0.13,0.082,0.209,0.187,0.192c0.29-0.047,0.32,0.164,0.372,0.347c0.079,0.275,0.057,0.552-0.027,0.823
		c-0.125,0.402-0.434,0.623-0.838,0.603c-0.384-0.019-0.717-0.317-0.797-0.701c-0.048-0.229-0.03-0.461-0.031-0.69
		c-0.006-0.952,0.003-1.904,0.007-2.856c0-0.038-0.014-0.083,0.029-0.114c0.068,0.03,0.081,0.103,0.115,0.157
		c0.345,0.546,0.815,0.923,1.451,1.074c0.085,0.02,0.174,0.027,0.262,0.031c0.092,0.004,0.158-0.038,0.172-0.136
		c0.014-0.099-0.013-0.178-0.118-0.207c-0.078-0.022-0.16-0.03-0.239-0.05c-0.813-0.209-1.263-0.782-1.517-1.538
		c-0.137-0.409-0.175-0.834-0.163-1.266c0.012-0.414,0-0.83,0.006-1.244c0.006-0.446,0.297-0.724,0.716-0.756
		c0.576-0.044,0.873,0.711,0.671,1.147c-0.055,0.12-0.128,0.224-0.227,0.31c-0.164,0.142-0.194,0.136-0.297-0.053
		c-0.039-0.072-0.095-0.115-0.181-0.101c-0.096,0.016-0.155,0.084-0.138,0.171c0.04,0.212-0.03,0.368-0.189,0.504
		c-0.079,0.068-0.066,0.16-0.003,0.238c0.068,0.084,0.17,0.096,0.231,0.019c0.213-0.268,0.582-0.275,0.817-0.502
		c0.022-0.021,0.065-0.04,0.092-0.033c0.168,0.04,0.163-0.069,0.152-0.176c-0.003-0.033-0.01-0.061,0-0.096
		c0.193-0.661,0.193-0.661-0.01-1.3c0.134-0.024,0.2,0.06,0.253,0.157c0.077,0.142,0.198,0.215,0.353,0.25
		c0.412,0.091,0.726,0.472,0.717,0.897c-0.004,0.196,0.039,0.319,0.244,0.378c0.141,0.04,0.241,0.156,0.288,0.298
		c0.11,0.329,0.012,0.618-0.202,0.87c-0.201,0.237-0.466,0.311-0.77,0.262c-0.109-0.017-0.141-0.048-0.114-0.174
		c0.033-0.153,0.07-0.273,0.223-0.347c0.084-0.041,0.141-0.128,0.142-0.233c0.001-0.081-0.035-0.146-0.108-0.183
		c-0.072-0.036-0.137-0.009-0.18,0.05c-0.103,0.141-0.238,0.176-0.395,0.124c-0.103-0.034-0.177-0.008-0.22,0.084
		c-0.047,0.099-0.024,0.205,0.078,0.243c0.207,0.076,0.119,0.195,0.055,0.301c-0.099,0.164-0.259,0.257-0.439,0.312
		c-0.132,0.04-0.234,0.108-0.181,0.261c0.055,0.159,0.194,0.151,0.303,0.081c0.309-0.198,0.621-0.188,0.98-0.145
		c0.484,0.058,0.839-0.228,1.072-0.653c0.023-0.041,0.04-0.086,0.061-0.128C44.711,20.424,44.719,20.423,44.745,20.41z"/>
	<path class="st2" d="M38.353,25.272c-0.092,0.015-0.157-0.041-0.223-0.085c-0.437-0.294-0.603-0.89-0.38-1.369
		c0.061-0.13,0.094-0.266-0.069-0.325c-0.156-0.056-0.23,0.089-0.289,0.199c-0.042,0.079-0.045,0.18-0.069,0.286
		c-0.324-0.168-0.519-0.407-0.581-0.75c-0.016-0.089-0.026-0.161,0.113-0.13c0.143,0.032,0.283-0.005,0.41-0.08
		c0.221-0.13,0.448-0.243,0.688-0.34c0.202-0.082,0.322-0.311,0.472-0.48c0.056-0.063,0.023-0.143-0.038-0.2
		c-0.063-0.059-0.136-0.066-0.206-0.021c-0.072,0.046-0.133,0.091-0.217,0.017c-0.077-0.069-0.166-0.101-0.25-0.007
		c-0.083,0.094-0.063,0.185,0.015,0.272c0.021,0.024,0.04,0.05,0.056,0.07c-0.025,0.053-0.063,0.048-0.093,0.041
		c-0.166-0.037-0.28,0.017-0.38,0.161c-0.146,0.21-0.558,0.248-0.751,0.081c-0.125-0.108-0.175-0.252-0.112-0.404
		c0.069-0.166,0.042-0.309-0.02-0.468c-0.159-0.407-0.137-0.811,0.066-1.201c0.024-0.047,0.041-0.102,0.113-0.129
		c0.087,0.215,0.215,0.401,0.397,0.552c0.333,0.277,0.703,0.32,1.101,0.19c0.112-0.037,0.197-0.047,0.292,0.043
		c0.104,0.1,0.246,0.14,0.383,0.183c0.113,0.035,0.206,0.017,0.244-0.107c0.036-0.117-0.012-0.2-0.127-0.24
		c-0.202-0.07-0.395-0.151-0.505-0.352c-0.06-0.11-0.124-0.216,0.068-0.279c0.086-0.028,0.135-0.119,0.094-0.219
		c-0.041-0.1-0.116-0.149-0.228-0.112c-0.159,0.053-0.293,0.02-0.4-0.115c-0.057-0.072-0.131-0.104-0.212-0.041
		c-0.076,0.06-0.106,0.142-0.069,0.236c0.03,0.078,0.08,0.153,0.155,0.183c0.134,0.053,0.148,0.162,0.189,0.278
		c0.066,0.184-0.015,0.227-0.166,0.237c-0.304,0.019-0.564-0.07-0.75-0.323c-0.182-0.249-0.261-0.523-0.159-0.825
		c0.053-0.156,0.171-0.264,0.328-0.313c0.157-0.049,0.205-0.147,0.201-0.306c-0.013-0.47,0.288-0.851,0.746-0.957
		c0.148-0.034,0.261-0.114,0.33-0.248c0.05-0.096,0.11-0.17,0.251-0.156c-0.054,0.211-0.16,0.402-0.161,0.621
		c-0.001,0.214,0.049,0.412,0.109,0.616c0.056,0.189,0.065,0.352,0.319,0.411c0.172,0.04,0.317,0.204,0.511,0.231
		c0.099,0.014,0.11,0.112,0.173,0.159c0.097,0.073,0.192,0.187,0.315,0.062c0.112-0.113,0.055-0.219-0.05-0.313
		c-0.102-0.09-0.16-0.202-0.132-0.344c0.026-0.127,0.015-0.242-0.138-0.265c-0.142-0.022-0.183,0.087-0.209,0.2
		c-0.006,0.026-0.012,0.051-0.019,0.078c-0.425-0.141-0.636-0.59-0.492-1.041c0.141-0.443,0.495-0.637,0.918-0.501
		c0.293,0.094,0.471,0.318,0.475,0.602c0.009,0.779,0.101,1.566-0.07,2.337c-0.183,0.825-0.593,1.486-1.44,1.78
		c-0.108,0.037-0.225,0.047-0.337,0.074c-0.108,0.027-0.192,0.084-0.175,0.211c0.017,0.127,0.108,0.163,0.223,0.151
		c0.632-0.068,1.121-0.383,1.505-0.875c0.102-0.131,0.188-0.274,0.303-0.443c0.003,0.067,0.006,0.098,0.006,0.128
		c0,1.115,0.003,2.23-0.001,3.345c-0.002,0.545-0.367,0.939-0.862,0.945c-0.34,0.005-0.595-0.151-0.736-0.453
		c-0.175-0.372-0.177-0.76-0.029-1.147c0.046-0.12,0.104-0.197,0.253-0.167c0.08,0.016,0.167-0.012,0.218-0.085
		c0.041-0.058,0.039-0.129,0.011-0.196c-0.031-0.074-0.094-0.095-0.167-0.088c-0.132,0.013-0.242,0-0.291-0.154
		c-0.033-0.101-0.096-0.194-0.225-0.147c-0.125,0.045-0.169,0.175-0.113,0.268c0.121,0.201,0.015,0.354-0.048,0.528
		c-0.096,0.266-0.113,0.544-0.073,0.824C38.356,25.14,38.384,25.205,38.353,25.272z"/>
	<path class="st3" d="M23.653,22.065c0,1.054,0.002,2.108-0.001,3.162c-0.001,0.401-0.231,0.635-0.59,0.616
		c-0.274-0.014-0.485-0.219-0.501-0.495c-0.007-0.115-0.002-0.231-0.002-0.347c0-2.04-0.002-4.08,0.004-6.119
		c0.001-0.176-0.037-0.229-0.222-0.226c-0.686,0.012-1.373,0.009-2.06,0.003c-0.303-0.003-0.495-0.208-0.497-0.505
		c-0.002-0.298,0.189-0.497,0.491-0.513c0.027-0.001,0.054-0.001,0.082-0.001c1.829,0,3.658-0.001,5.487,0
		c0.371,0,0.581,0.202,0.567,0.539c-0.012,0.29-0.211,0.478-0.522,0.48c-0.68,0.003-1.36,0.007-2.04-0.003
		c-0.167-0.003-0.2,0.051-0.2,0.206C23.656,19.931,23.653,20.998,23.653,22.065z"/>
	<path class="st4" d="M43.829,13.279c0-0.837-0.004-1.673,0.003-2.51c0.001-0.156-0.036-0.212-0.202-0.208
		c-0.469,0.011-0.938,0.005-1.408,0.003c-0.403-0.002-0.636-0.215-0.638-0.579c-0.002-0.365,0.233-0.582,0.632-0.582
		c1.476,0,2.952,0,4.428,0c0.395,0,0.641,0.224,0.643,0.58c0.001,0.346-0.255,0.579-0.644,0.581
		c-0.462,0.002-0.925,0.007-1.387-0.003c-0.16-0.004-0.205,0.042-0.204,0.203c0.006,1.646,0.004,3.292,0.003,4.938
		c0,0.404-0.241,0.668-0.605,0.674c-0.362,0.005-0.618-0.242-0.619-0.608C43.828,14.939,43.829,14.109,43.829,13.279z"/>
	<path class="st1" d="M21.653,12.883c0-0.938-0.003-1.877,0.001-2.815c0.002-0.479,0.39-0.774,0.815-0.628
		c0.257,0.088,0.398,0.295,0.398,0.597c0.001,1.625,0.004,3.25-0.005,4.875c-0.001,0.196,0.044,0.248,0.243,0.246
		c0.87-0.012,1.741-0.006,2.611-0.005c0.409,0,0.685,0.256,0.677,0.622c-0.008,0.363-0.276,0.602-0.677,0.602
		c-1.129,0-2.257,0-3.386,0c-0.447,0-0.676-0.226-0.677-0.678C21.651,14.759,21.653,13.821,21.653,12.883z"/>
	<path class="st5" d="M27.528,12.884c0-0.945-0.002-1.889,0.001-2.834c0.001-0.372,0.226-0.624,0.566-0.647
		c0.383-0.026,0.661,0.23,0.665,0.629c0.006,0.516,0.002,1.033,0.002,1.549c0,1.373,0.001,2.745-0.001,4.118
		c0,0.413-0.231,0.672-0.596,0.677c-0.387,0.006-0.635-0.247-0.636-0.659C27.527,14.773,27.528,13.829,27.528,12.884z"/>
	<path class="st1" d="M39.3,12.887c0-0.958,0-1.915,0-2.873c0-0.247,0.104-0.435,0.327-0.543c0.233-0.113,0.462-0.094,0.672,0.06
		c0.153,0.112,0.224,0.272,0.224,0.458c0.001,1.936,0.003,3.872-0.001,5.808c-0.001,0.339-0.265,0.578-0.608,0.579
		c-0.35,0.001-0.611-0.243-0.613-0.595C39.297,14.816,39.3,13.852,39.3,12.887z"/>
	<path class="st0" d="M14.687,12.688c0-0.439-0.356-0.794-0.794-0.794c-0.439,0-0.794,0.356-0.794,0.794
		c0,0.326,0.196,0.605,0.477,0.727l-0.091,0.975h0.817l-0.091-0.975C14.491,13.293,14.687,13.014,14.687,12.688z"/>
	<path class="st6" d="M25.202,28.731c0.031,0.009,0.059,0.025,0.077,0.032c0.238,0.1,0.328,0.381,0.262,0.642
		c-0.065,0.259-0.284,0.456-0.552,0.47c-0.271,0.014-0.543,0.008-0.815,0.003c-0.108-0.002-0.156-0.056-0.17-0.165
		c-0.005-0.04-0.002-0.081-0.002-0.122c0-0.523,0-1.046,0-1.569c0-0.223,0.039-0.265,0.255-0.269
		c0.183-0.003,0.367-0.006,0.55,0.001c0.165,0.006,0.319,0.046,0.448,0.163c0.219,0.199,0.252,0.584,0.018,0.755
		C25.259,28.683,25.232,28.71,25.202,28.731z M24.31,29.594c0.099,0,0.173,0,0.247,0c0.122-0.001,0.244,0.001,0.366-0.003
		c0.13-0.005,0.237-0.054,0.299-0.177c0.115-0.228,0.001-0.457-0.264-0.499c-0.212-0.033-0.408-0.038-0.648-0.028
		C24.31,29.076,24.31,29.594,24.31,29.594z M24.314,28.045c0,0.205,0.005,0.382,0.005,0.567c0.195,0,0.372,0.005,0.554-0.005
		c0.158-0.009,0.267-0.133,0.266-0.28c0-0.145-0.111-0.27-0.271-0.279C24.687,28.037,24.505,28.045,24.314,28.045z"/>
	<path class="st6" d="M11.936,28.833c0.014,0.59-0.411,1.093-1.089,1.082c-0.631-0.01-1.077-0.417-1.074-1.102
		c0.002-0.686,0.491-1.095,1.135-1.079C11.433,27.746,11.957,28.154,11.936,28.833z M10.084,28.822c0,0.02-0.001,0.041,0,0.061
		c0.013,0.303,0.146,0.537,0.422,0.667c0.285,0.134,0.567,0.117,0.825-0.076c0.267-0.2,0.339-0.481,0.3-0.796
		c-0.057-0.462-0.522-0.761-0.975-0.643C10.337,28.118,10.056,28.424,10.084,28.822z"/>
	<path class="st6" d="M37.929,27.741c0.531-0.039,1.089,0.339,1.09,1.077c0.001,0.649-0.442,1.093-1.082,1.098
		c-0.64,0.005-1.083-0.459-1.088-1.089C36.844,28.175,37.347,27.695,37.929,27.741z M37.92,29.629
		c0.463,0.003,0.814-0.345,0.801-0.816c-0.015-0.504-0.348-0.807-0.794-0.804c-0.473,0.002-0.765,0.358-0.779,0.798
		C37.133,29.253,37.497,29.649,37.92,29.629z"/>
	<path class="st6" d="M5.856,29.577c0,0.054,0.001,0.109-0.004,0.163c-0.006,0.074-0.037,0.132-0.121,0.139
		c-0.085,0.008-0.156-0.05-0.171-0.139c-0.006-0.033-0.003-0.068-0.003-0.102c0-0.55,0-1.101,0-1.651c0-0.027,0-0.054,0.001-0.082
		c0.003-0.071,0.044-0.12,0.109-0.129c0.047-0.007,0.111,0.002,0.146,0.03c0.057,0.046,0.097,0.112,0.142,0.172
		c0.306,0.407,0.611,0.815,0.917,1.222c0.028,0.038,0.059,0.073,0.109,0.135c0-0.097,0-0.168,0-0.238c0-0.353,0-0.707,0-1.06
		c0-0.041-0.003-0.082,0.001-0.122c0.008-0.088,0.081-0.16,0.154-0.156c0.069,0.004,0.132,0.068,0.14,0.149
		c0.004,0.04,0.001,0.081,0.001,0.122c0,0.53,0,1.06,0,1.59c0,0.027-0.001,0.054,0,0.082c0.004,0.073-0.01,0.136-0.087,0.166
		c-0.077,0.031-0.143,0.01-0.209-0.077c-0.206-0.27-0.409-0.542-0.613-0.813c-0.159-0.211-0.511-0.684-0.511-0.684
		S5.856,29.169,5.856,29.577z"/>
	<path class="st6" d="M27.219,29.014c0.113,0.184,0.223,0.362,0.332,0.541c0.025,0.04,0.047,0.082,0.068,0.125
		c0.037,0.074,0.005,0.134-0.048,0.18c-0.049,0.043-0.152,0.024-0.2-0.035c-0.039-0.047-0.069-0.1-0.102-0.152
		c-0.097-0.155-0.198-0.308-0.287-0.468c-0.029-0.053-0.079-0.135-0.079-0.135s-0.107-0.003-0.165-0.001
		c-0.075,0.004-0.108,0.001-0.191,0.001c0,0.183,0.004,0.35,0,0.517c-0.002,0.066,0.004,0.135-0.012,0.2
		c-0.014,0.057-0.086,0.092-0.15,0.091c-0.066-0.001-0.131-0.016-0.151-0.085c-0.015-0.051-0.02-0.113-0.02-0.165
		c-0.002-0.543-0.003-1.086,0-1.629c0.001-0.19,0.053-0.242,0.242-0.247c0.149-0.004,0.299-0.008,0.448,0.001
		c0.496,0.031,0.801,0.506,0.605,0.942C27.478,28.762,27.412,28.901,27.219,29.014z M26.543,28.802c0.09,0,0.158,0.003,0.224-0.001
		c0.06-0.004,0.121-0.015,0.181-0.026c0.195-0.035,0.311-0.16,0.315-0.339c0.004-0.197-0.121-0.359-0.319-0.384
		c-0.131-0.017-0.265-0.003-0.4-0.003C26.543,28.307,26.543,28.543,26.543,28.802z"/>
	<path class="st6" d="M21.962,29.054c-0.112,0-0.205,0.003-0.298-0.001c-0.136-0.006-0.211-0.062-0.208-0.147
		c0.003-0.089,0.072-0.136,0.21-0.139c0.129-0.002,0.258-0.005,0.387,0.001c0.16,0.007,0.199,0.05,0.201,0.213
		c0.002,0.177-0.004,0.353,0.002,0.53c0.003,0.099-0.033,0.162-0.115,0.219c-0.556,0.382-1.364,0.167-1.602-0.558
		c-0.166-0.506,0.032-1.054,0.485-1.304c0.363-0.201,0.74-0.195,1.1,0.034c0.034,0.022,0.065,0.049,0.093,0.079
		c0.047,0.05,0.053,0.109,0.017,0.168c-0.037,0.062-0.098,0.073-0.16,0.055c-0.038-0.01-0.074-0.034-0.105-0.058
		c-0.348-0.269-0.862-0.122-1.07,0.247c-0.227,0.403-0.107,0.908,0.283,1.139c0.222,0.131,0.45,0.128,0.681,0.022
		c0.061-0.028,0.101-0.062,0.098-0.136C21.959,29.304,21.962,29.19,21.962,29.054z"/>
	<path class="st6" d="M41.901,28.044c0,0.22,0,0.636,0,0.636s0.357-0.005,0.531,0c0.081,0.002,0.163-0.001,0.244,0.006
		c0.071,0.006,0.107,0.054,0.108,0.124c0.001,0.071-0.034,0.118-0.104,0.129c-0.06,0.009-0.122,0.008-0.183,0.009
		c-0.195,0.001-0.597,0.003-0.597,0.003v0.642c0,0,0.127,0,0.187,0c0.245,0.001,0.489,0,0.734,0c0.041,0,0.082-0.003,0.122,0.001
		c0.097,0.011,0.161,0.077,0.155,0.154c-0.006,0.081-0.064,0.13-0.172,0.13c-0.367,0.002-0.734,0.002-1.101,0
		c-0.195-0.001-0.239-0.044-0.24-0.241c-0.002-0.551-0.001-1.101-0.001-1.652c0-0.014-0.001-0.027,0-0.041
		c0.008-0.13,0.054-0.18,0.186-0.193c0.04-0.004,0.081-0.001,0.122-0.002c0.306,0,0.612,0,0.918,0c0.027,0,0.054-0.001,0.082,0
		c0.131,0.005,0.206,0.058,0.208,0.146c0.001,0.085-0.078,0.144-0.207,0.146c-0.258,0.003-0.517,0.001-0.775,0.001
		C42.052,28.044,41.986,28.044,41.901,28.044z"/>
	<path class="st6" d="M29.355,29.428l-0.938,0.002c0,0-0.098,0.243-0.136,0.322c-0.051,0.111-0.122,0.148-0.206,0.117
		c-0.087-0.032-0.122-0.126-0.075-0.239c0.204-0.495,0.411-0.989,0.618-1.483c0.037-0.088,0.075-0.174,0.112-0.262
		c0.031-0.073,0.075-0.134,0.163-0.128c0.086,0.005,0.126,0.068,0.157,0.141c0.141,0.338,0.282,0.676,0.423,1.013
		c0.089,0.213,0.177,0.426,0.266,0.638c0.013,0.031,0.028,0.062,0.039,0.094c0.036,0.106,0.009,0.183-0.077,0.221
		c-0.084,0.038-0.159,0.013-0.21-0.099C29.444,29.663,29.355,29.428,29.355,29.428z M29.247,29.16l-0.361-0.891l-0.362,0.891H29.247
		z"/>
	<path class="st6" d="M3.023,28.587c0-0.217-0.002-0.435,0.001-0.652c0.001-0.109,0.06-0.176,0.148-0.18
		c0.079-0.004,0.146,0.072,0.147,0.183c0.003,0.38,0.007,0.761-0.001,1.141c-0.005,0.236,0.082,0.415,0.297,0.508
		c0.238,0.104,0.477,0.091,0.69-0.071c0.156-0.119,0.178-0.297,0.18-0.476c0.003-0.333,0.001-0.665,0.001-0.998
		c0-0.048,0.002-0.095,0-0.143c-0.003-0.087,0.055-0.125,0.125-0.133c0.071-0.008,0.135,0.026,0.159,0.099
		c0.014,0.044,0.014,0.093,0.014,0.14c0.001,0.373,0.003,0.747,0,1.12c-0.005,0.469-0.326,0.784-0.797,0.798
		c-0.236,0.007-0.46-0.019-0.659-0.159c-0.196-0.138-0.306-0.321-0.305-0.565C3.024,28.995,3.023,28.791,3.023,28.587z"/>
	<path class="st6" d="M15.412,28.915l-0.174,0.178c0,0-0.001,0.426-0.003,0.562c-0.001,0.04-0.002,0.083-0.017,0.119
		c-0.027,0.069-0.08,0.111-0.158,0.101c-0.069-0.008-0.108-0.054-0.12-0.12c-0.006-0.033-0.007-0.068-0.007-0.101
		c0-0.551-0.001-1.101,0-1.652c0-0.16,0.061-0.247,0.156-0.24c0.097,0.008,0.144,0.087,0.146,0.253
		c0.002,0.197-0.003,0.663-0.003,0.663s0.547-0.548,0.755-0.753c0.048-0.048,0.099-0.094,0.154-0.132
		c0.073-0.051,0.137-0.045,0.18,0.013c0.045,0.059,0.056,0.124,0.003,0.186c-0.036,0.041-0.074,0.079-0.112,0.118
		c-0.191,0.192-0.383,0.383-0.583,0.584c0.119,0.163,0.23,0.316,0.341,0.468c0.092,0.126,0.186,0.251,0.278,0.378
		c0.028,0.038,0.058,0.077,0.077,0.12c0.035,0.078,0.012,0.162-0.048,0.199c-0.065,0.04-0.137,0.03-0.196-0.047
		c-0.177-0.232-0.349-0.468-0.523-0.703C15.513,29.049,15.457,28.974,15.412,28.915z"/>
	<path class="st6" d="M35.309,29.148c0,0.178,0.001,0.32-0.001,0.462c-0.001,0.054-0.001,0.109-0.014,0.161
		c-0.018,0.072-0.062,0.12-0.147,0.108c-0.077-0.011-0.124-0.052-0.132-0.13c-0.004-0.04-0.005-0.081-0.005-0.122
		c0-0.542-0.001-1.085,0-1.627c0-0.213,0.032-0.248,0.25-0.246c0.209,0.002,0.421,0,0.626,0.033
		c0.331,0.053,0.536,0.382,0.512,0.729c-0.026,0.37-0.271,0.609-0.623,0.63C35.628,29.156,35.48,29.148,35.309,29.148z
		 M35.319,28.861c0,0,0.309,0.002,0.417-0.003c0.211-0.01,0.344-0.146,0.361-0.364c0.017-0.216-0.127-0.423-0.328-0.444
		c-0.146-0.015-0.294-0.003-0.451-0.003C35.319,28.318,35.319,28.861,35.319,28.861z"/>
	<path class="st6" d="M13.544,27.743c0.211-0.019,0.408,0.04,0.583,0.173c0.037,0.028,0.074,0.062,0.096,0.101
		c0.053,0.092-0.02,0.206-0.125,0.19c-0.057-0.008-0.113-0.043-0.162-0.076c-0.534-0.356-1.145,0.102-1.161,0.61
		c-0.009,0.297,0.065,0.551,0.311,0.735c0.24,0.181,0.497,0.2,0.766,0.07c0.067-0.032,0.131-0.072,0.197-0.106
		c0.056-0.029,0.109-0.016,0.146,0.032c0.034,0.043,0.056,0.099,0.019,0.149c-0.035,0.048-0.076,0.097-0.125,0.128
		c-0.662,0.414-1.502,0.013-1.604-0.758c-0.048-0.367,0.04-0.684,0.299-0.951C12.99,27.829,13.237,27.722,13.544,27.743z"/>
	<path class="st6" d="M40.328,28.044c0,0.229,0,0.432,0,0.635c0,0.312,0.001,0.625-0.001,0.937c-0.001,0.059-0.01,0.121-0.029,0.177
		c-0.022,0.065-0.081,0.091-0.148,0.081c-0.067-0.01-0.11-0.051-0.116-0.122c-0.004-0.054-0.005-0.108-0.005-0.163
		c0-0.442,0-0.883,0-1.325c0-0.067,0-0.133,0-0.222c-0.17,0-0.324,0.001-0.478,0c-0.162-0.002-0.248-0.059-0.241-0.155
		c0.007-0.088,0.086-0.136,0.239-0.137c0.414-0.002,0.829-0.002,1.243,0c0.153,0.001,0.225,0.049,0.231,0.144
		c0.006,0.093-0.07,0.145-0.224,0.147C40.652,28.046,40.503,28.044,40.328,28.044z"/>
	<path class="st6" d="M46.728,28.044c-0.146,0-0.273,0-0.401,0c-0.041,0-0.082,0.002-0.122-0.001
		c-0.122-0.008-0.186-0.06-0.185-0.147c0.001-0.083,0.067-0.142,0.191-0.143c0.381-0.004,0.761-0.002,1.142-0.002
		c0.061,0,0.123-0.003,0.183,0.001c0.135,0.009,0.204,0.065,0.196,0.156c-0.007,0.086-0.068,0.13-0.195,0.135
		c-0.081,0.003-0.163,0.001-0.245,0.001c-0.081,0-0.267,0-0.267,0s0,0.114,0,0.166c-0.001,0.462,0,0.924-0.001,1.387
		c0,0.048,0,0.095-0.002,0.143c-0.005,0.08-0.055,0.122-0.129,0.135c-0.072,0.013-0.142-0.042-0.159-0.127
		c-0.01-0.053-0.007-0.108-0.007-0.162c0-0.442,0-0.884,0-1.325C46.728,28.194,46.728,28.128,46.728,28.044z"/>
	<path class="st6" d="M8.37,29.581c0,0,0.122,0.003,0.175,0.003c0.224,0.001,0.448,0,0.672,0.001c0.047,0,0.253-0.006,0.253,0.156
		c0,0.162-0.19,0.14-0.23,0.14c-0.312,0.001-0.625,0.002-0.937,0c-0.194-0.001-0.247-0.046-0.249-0.237
		c-0.004-0.55-0.002-1.1-0.001-1.65c0-0.02,0-0.041,0.004-0.061c0.018-0.102,0.095-0.178,0.17-0.171
		c0.072,0.006,0.129,0.074,0.14,0.176c0.005,0.047,0.002,0.095,0.002,0.142c0,0.428,0,0.856,0,1.284
		C8.37,29.43,8.37,29.581,8.37,29.581z"/>
	<path class="st6" d="M17.306,29.057c0-0.077,0-0.154,0-0.232c0-0.002,0-0.004,0-0.006s0-0.004,0-0.006c0-0.077,0-0.154,0-0.232
		c0-0.213,0-0.425,0.001-0.638c0-0.03-0.005-0.055-0.014-0.078c0-0.002,0-0.003-0.001-0.005c-0.001-0.004-0.004-0.006-0.005-0.01
		c-0.003-0.006-0.005-0.012-0.009-0.017c-0.016-0.033-0.04-0.055-0.071-0.065c-0.011-0.004-0.023-0.006-0.036-0.007
		c-0.003,0-0.006-0.001-0.01-0.001c0,0-0.001,0-0.001,0c-0.005,0-0.009,0.001-0.014,0.001c-0.005,0-0.009-0.001-0.014-0.001
		c0,0-0.001,0-0.001,0c-0.003,0-0.006,0.001-0.01,0.001c-0.013,0.001-0.025,0.003-0.036,0.007c-0.03,0.01-0.054,0.032-0.071,0.065
		c-0.003,0.005-0.006,0.011-0.009,0.017c-0.001,0.004-0.004,0.006-0.005,0.01c0,0.002,0,0.003-0.001,0.005
		c-0.008,0.023-0.014,0.049-0.014,0.078c0,0.213,0.001,0.425,0.001,0.638c0,0.077,0,0.154,0,0.232c0,0.002,0,0.004,0,0.006
		s0,0.004,0,0.006c0,0.077,0,0.154,0,0.232c0,0.213,0,0.425-0.001,0.638c0,0.03,0.005,0.055,0.014,0.078
		c0,0.002,0,0.003,0.001,0.005c0.001,0.004,0.004,0.006,0.005,0.01c0.003,0.006,0.005,0.012,0.009,0.017
		c0.016,0.033,0.04,0.055,0.071,0.065c0.011,0.004,0.023,0.006,0.036,0.007c0.003,0,0.006,0.001,0.009,0.001
		c0.001,0,0.001,0,0.001,0c0.005,0,0.009-0.001,0.014-0.001c0.005,0,0.009,0.001,0.014,0.001c0.001,0,0.001,0,0.001,0
		c0.003,0,0.006-0.001,0.009-0.001c0.013-0.001,0.025-0.003,0.036-0.007c0.03-0.01,0.054-0.032,0.071-0.065
		c0.003-0.005,0.006-0.011,0.009-0.017c0.001-0.004,0.004-0.006,0.005-0.01c0-0.002,0-0.003,0.001-0.005
		c0.008-0.023,0.014-0.049,0.014-0.078C17.307,29.483,17.307,29.27,17.306,29.057z"/>
	<path class="st6" d="M18.381,29.577c0,0.054,0.001,0.109-0.004,0.163c-0.006,0.074-0.037,0.132-0.121,0.139
		c-0.085,0.008-0.156-0.05-0.171-0.139c-0.006-0.033-0.003-0.068-0.003-0.102c0-0.55,0-1.101,0-1.651c0-0.027,0-0.054,0.001-0.082
		c0.003-0.071,0.044-0.12,0.109-0.129c0.047-0.007,0.111,0.002,0.146,0.03c0.057,0.046,0.097,0.112,0.142,0.172
		c0.306,0.407,0.611,0.815,0.917,1.222c0.028,0.038,0.059,0.073,0.109,0.135c0-0.097,0-0.168,0-0.238c0-0.353,0-0.707,0-1.06
		c0-0.041-0.003-0.082,0.001-0.122c0.008-0.088,0.081-0.16,0.154-0.156c0.069,0.004,0.132,0.068,0.14,0.149
		c0.004,0.04,0.001,0.081,0.001,0.122c0,0.53,0,1.06,0,1.59c0,0.027-0.001,0.054,0,0.082c0.004,0.073-0.01,0.136-0.087,0.166
		c-0.077,0.031-0.143,0.01-0.209-0.077c-0.206-0.27-0.409-0.542-0.613-0.813c-0.159-0.211-0.511-0.684-0.511-0.684
		S18.381,29.169,18.381,29.577z"/>
	<path class="st6" d="M30.667,29.057c0-0.077,0-0.154,0-0.232c0-0.002,0-0.004,0-0.006s0-0.004,0-0.006c0-0.077,0-0.154,0-0.232
		c0-0.213,0-0.425,0.001-0.638c0-0.03-0.005-0.055-0.014-0.078c0-0.002,0-0.003-0.001-0.005c-0.001-0.004-0.004-0.006-0.005-0.01
		c-0.003-0.006-0.005-0.012-0.009-0.017c-0.016-0.033-0.04-0.055-0.071-0.065c-0.011-0.004-0.023-0.006-0.036-0.007
		c-0.003,0-0.006-0.001-0.01-0.001c0,0-0.001,0-0.001,0c-0.005,0-0.009,0.001-0.014,0.001c-0.005,0-0.009-0.001-0.014-0.001
		c0,0-0.001,0-0.001,0c-0.003,0-0.006,0.001-0.01,0.001c-0.013,0.001-0.025,0.003-0.036,0.007c-0.03,0.01-0.054,0.032-0.071,0.065
		c-0.003,0.005-0.006,0.011-0.009,0.017c-0.001,0.004-0.004,0.006-0.005,0.01c0,0.002,0,0.003-0.001,0.005
		c-0.008,0.023-0.014,0.049-0.014,0.078c0,0.213,0.001,0.425,0.001,0.638c0,0.077,0,0.154,0,0.232c0,0.002,0,0.004,0,0.006
		s0,0.004,0,0.006c0,0.077,0,0.154,0,0.232c0,0.213,0,0.425-0.001,0.638c0,0.03,0.005,0.055,0.014,0.078
		c0,0.002,0,0.003,0.001,0.005c0.001,0.004,0.004,0.006,0.005,0.01c0.003,0.006,0.005,0.012,0.009,0.017
		c0.016,0.033,0.04,0.055,0.071,0.065c0.011,0.004,0.023,0.006,0.036,0.007c0.003,0,0.006,0.001,0.009,0.001
		c0.001,0,0.001,0,0.001,0c0.005,0,0.009-0.001,0.014-0.001c0.005,0,0.009,0.001,0.014,0.001c0.001,0,0.001,0,0.001,0
		c0.003,0,0.006-0.001,0.009-0.001c0.013-0.001,0.025-0.003,0.036-0.007c0.03-0.01,0.054-0.032,0.071-0.065
		c0.003-0.005,0.006-0.011,0.009-0.017c0.001-0.004,0.004-0.006,0.005-0.01c0-0.002,0-0.003,0.001-0.005
		c0.008-0.023,0.014-0.049,0.014-0.078C30.667,29.483,30.667,29.27,30.667,29.057z"/>
	<path class="st6" d="M31.74,29.577c0,0.054,0.001,0.109-0.004,0.163c-0.006,0.074-0.037,0.132-0.121,0.139
		c-0.085,0.008-0.156-0.05-0.171-0.139c-0.006-0.033-0.003-0.068-0.003-0.102c0-0.55,0-1.101,0-1.651c0-0.027,0-0.054,0.001-0.082
		c0.003-0.071,0.044-0.12,0.109-0.129c0.047-0.007,0.111,0.002,0.146,0.03c0.057,0.046,0.097,0.112,0.142,0.172
		c0.306,0.407,0.611,0.815,0.917,1.222c0.028,0.038,0.059,0.073,0.109,0.135c0-0.097,0-0.168,0-0.238c0-0.353,0-0.707,0-1.06
		c0-0.041-0.003-0.082,0.001-0.122c0.008-0.088,0.081-0.16,0.154-0.156c0.069,0.004,0.132,0.068,0.14,0.149
		c0.004,0.04,0.001,0.081,0.001,0.122c0,0.53,0,1.06,0,1.59c0,0.027-0.001,0.054,0,0.082c0.004,0.073-0.01,0.136-0.087,0.166
		c-0.077,0.031-0.143,0.01-0.209-0.077c-0.206-0.27-0.409-0.542-0.613-0.813c-0.159-0.211-0.511-0.684-0.511-0.684
		S31.74,29.169,31.74,29.577z"/>
	<path class="st6" d="M50.546,29.428l-0.938,0.002c0,0-0.098,0.243-0.136,0.322c-0.051,0.111-0.122,0.148-0.206,0.117
		c-0.087-0.032-0.122-0.126-0.075-0.239c0.204-0.495,0.411-0.989,0.618-1.483c0.037-0.088,0.075-0.174,0.112-0.262
		c0.031-0.073,0.075-0.134,0.163-0.128c0.086,0.005,0.126,0.068,0.157,0.141c0.141,0.338,0.282,0.676,0.423,1.013
		c0.089,0.213,0.177,0.426,0.266,0.638c0.013,0.031,0.028,0.062,0.039,0.094c0.036,0.106,0.009,0.183-0.077,0.221
		c-0.084,0.038-0.159,0.013-0.21-0.099C50.635,29.663,50.546,29.428,50.546,29.428z M50.438,29.16l-0.361-0.891l-0.362,0.891H50.438
		z"/>
	<path class="st6" d="M48.605,29.057c0-0.077,0-0.154,0-0.232c0-0.002,0-0.004,0-0.006s0-0.004,0-0.006c0-0.077,0-0.154,0-0.232
		c0-0.213,0-0.425,0.001-0.638c0-0.03-0.005-0.055-0.014-0.078c0-0.002,0-0.003-0.001-0.005c-0.001-0.004-0.004-0.006-0.005-0.01
		c-0.003-0.006-0.005-0.012-0.009-0.017c-0.016-0.033-0.04-0.055-0.071-0.065c-0.011-0.004-0.023-0.006-0.036-0.007
		c-0.003,0-0.006-0.001-0.01-0.001c0,0-0.001,0-0.001,0c-0.005,0-0.009,0.001-0.014,0.001c-0.005,0-0.009-0.001-0.014-0.001
		c0,0-0.001,0-0.001,0c-0.003,0-0.006,0.001-0.01,0.001c-0.013,0.001-0.025,0.003-0.036,0.007c-0.03,0.01-0.054,0.032-0.071,0.065
		c-0.003,0.005-0.006,0.011-0.009,0.017c-0.001,0.004-0.004,0.006-0.005,0.01c0,0.002,0,0.003-0.001,0.005
		c-0.008,0.023-0.014,0.049-0.014,0.078c0,0.213,0.001,0.425,0.001,0.638c0,0.077,0,0.154,0,0.232c0,0.002,0,0.004,0,0.006
		s0,0.004,0,0.006c0,0.077,0,0.154,0,0.232c0,0.213,0,0.425-0.001,0.638c0,0.03,0.005,0.055,0.014,0.078
		c0,0.002,0,0.003,0.001,0.005c0.001,0.004,0.004,0.006,0.005,0.01c0.003,0.006,0.005,0.012,0.009,0.017
		c0.016,0.033,0.04,0.055,0.071,0.065c0.011,0.004,0.023,0.006,0.036,0.007c0.003,0,0.006,0.001,0.009,0.001
		c0.001,0,0.001,0,0.001,0c0.005,0,0.009-0.001,0.014-0.001c0.005,0,0.009,0.001,0.014,0.001c0.001,0,0.001,0,0.001,0
		c0.003,0,0.006-0.001,0.009-0.001c0.013-0.001,0.025-0.003,0.036-0.007c0.03-0.01,0.054-0.032,0.071-0.065
		c0.003-0.005,0.006-0.011,0.009-0.017c0.001-0.004,0.004-0.006,0.005-0.01c0-0.002,0-0.003,0.001-0.005
		c0.008-0.023,0.014-0.049,0.014-0.078C48.605,29.483,48.605,29.27,48.605,29.057z"/>
	<path class="st6" d="M44.046,29.577c0,0.054,0.001,0.109-0.004,0.163c-0.006,0.074-0.037,0.132-0.121,0.139
		c-0.085,0.008-0.156-0.05-0.171-0.139c-0.006-0.033-0.003-0.068-0.003-0.102c0-0.55,0-1.101,0-1.651c0-0.027,0-0.054,0.001-0.082
		c0.003-0.071,0.044-0.12,0.109-0.129c0.047-0.007,0.111,0.002,0.146,0.03c0.057,0.046,0.097,0.112,0.142,0.172
		c0.306,0.407,0.611,0.815,0.917,1.222c0.028,0.038,0.059,0.073,0.109,0.135c0-0.097,0-0.168,0-0.238c0-0.353,0-0.707,0-1.06
		c0-0.041-0.003-0.082,0.001-0.122c0.008-0.088,0.081-0.16,0.154-0.156c0.069,0.004,0.132,0.068,0.14,0.149
		c0.004,0.04,0.001,0.081,0.001,0.122c0,0.53,0,1.06,0,1.59c0,0.027-0.001,0.054,0,0.082c0.004,0.073-0.01,0.136-0.087,0.166
		c-0.077,0.031-0.143,0.01-0.209-0.077c-0.206-0.27-0.409-0.542-0.613-0.813c-0.159-0.211-0.511-0.684-0.511-0.684
		S44.046,29.169,44.046,29.577z"/>
	<path class="st6" d="M51.851,29.581c0,0,0.122,0.003,0.175,0.003c0.224,0.001,0.448,0,0.672,0.001c0.047,0,0.253-0.006,0.253,0.156
		c0,0.162-0.19,0.14-0.23,0.14c-0.312,0.001-0.625,0.002-0.937,0c-0.194-0.001-0.247-0.046-0.249-0.237
		c-0.004-0.55-0.002-1.1-0.001-1.65c0-0.02,0-0.041,0.004-0.061c0.018-0.102,0.095-0.178,0.17-0.171
		c0.072,0.006,0.129,0.074,0.14,0.176c0.005,0.047,0.002,0.095,0.002,0.142c0,0.428,0,0.856,0,1.284
		C51.851,29.43,51.851,29.581,51.851,29.581z"/>
</g>
<g>
	<g transform="translate(-774 -342)">
		<path class="st7" d="M847.13,360.841c0.004-2.025,1.649-3.663,3.673-3.659s3.663,1.649,3.659,3.673
			c-0.004,2.022-1.644,3.659-3.666,3.659C848.771,364.51,847.131,362.867,847.13,360.841z M848.979,360.833
			c0.002,0.999,0.813,1.808,1.813,1.807s1.808-0.813,1.807-1.813c-0.002-0.998-0.811-1.807-1.81-1.807
			C849.789,359.022,848.979,359.833,848.979,360.833L848.979,360.833z M857.726,364.488L857.726,364.488
			c-1.217-0.026-2.328-0.287-2.328-2.36v-3.235l0,0v-3.555h1.789v2.393c0.422-0.225,0.884-0.364,1.36-0.409h0.013
			c0.109-0.009,0.201-0.012,0.287-0.012c1.9-0.036,3.468,1.475,3.504,3.375c0.001,0.072,0,0.144-0.003,0.215
			c0.084,1.898-1.387,3.505-3.285,3.588c-0.072,0.003-0.144,0.004-0.216,0.003L857.726,364.488z M857.24,360.65v0.045
			c0,0.496,0,0.846,0,0.864c-0.037,0.289,0.027,0.582,0.182,0.829l0.004,0.004c0.005,0.006,0.01,0.012,0.015,0.017
			c0.206,0.159,0.462,0.24,0.721,0.227h0.668c0.923,0.03,1.696-0.695,1.725-1.618c0.001-0.043,0.001-0.085-0.001-0.128
			c0.07-0.918-0.618-1.719-1.536-1.789c-0.044-0.003-0.089-0.005-0.133-0.005c-0.802-0.103-1.535,0.464-1.637,1.265
			C857.235,360.457,857.233,360.554,857.24,360.65L857.24,360.65z M845.224,364.367c-0.829,0-1.955,0.004-2.535-0.478
			c-0.522-0.443-0.805-1.106-0.765-1.789v-2.762h-1.449v-1.797h1.45v-2.018h1.836v2.018h2.505v1.81h-2.517v0.965
			c0,0.26,0,0.372,0,0.632c0.011,0.656-0.146,1.684,0.829,1.738c0.115,0.007,1.769,0.005,1.769,0.005v1.678h-0.776
			C845.464,364.367,845.348,364.367,845.224,364.367z M866.557,364.332v-6.906h1.819v6.907L866.557,364.332z M863.303,364.332
			v-6.906h1.82v6.907L863.303,364.332z M863.005,355.651c0-0.014-0.006-0.028-0.01-0.043s-0.009-0.027-0.012-0.042
			c-0.158-0.647,0.237-1.3,0.884-1.459c0.383-0.076,0.782-0.009,1.119,0.188c0.216,0.134,0.473,0.189,0.725,0.156
			c0.236-0.094,0.433-0.267,0.557-0.489c0.2-0.335,0.516-0.585,0.887-0.703c0.641-0.175,1.303,0.202,1.479,0.842
			c0.004,0.014,0.006,0.028,0.009,0.042c0.004,0.015,0.01,0.028,0.012,0.042c0.158,0.646-0.237,1.299-0.883,1.459
			c-0.387,0.083-0.791,0.014-1.128-0.193c-0.211-0.141-0.467-0.196-0.717-0.154c-0.239,0.085-0.436,0.258-0.552,0.484
			c-0.194,0.345-0.513,0.602-0.891,0.719c-0.64,0.177-1.301-0.198-1.478-0.838c0-0.002-0.001-0.003-0.001-0.005L863.005,355.651z"/>
	</g>
	<g>
		<path class="st8" d="M107.923,20.861l-2.165-5.487h-1.145l2.771,6.801l-0.386,1.107c-0.129,0.564-0.667,0.936-1.24,0.856h-0.193
			v0.967l0.276,0.001c0.961,0.06,1.831-0.564,2.082-1.493l2.924-8.239h-1.076L107.923,20.861z"/>
		<path class="st8" d="M136.36,15.266c-1.71,0-3.254,1.009-3.254,3.676c0,2.681,1.545,3.689,3.254,3.689
			c1.709,0,3.241-1.009,3.241-3.689C139.601,16.274,138.07,15.266,136.36,15.266z M136.388,21.733c-1.199,0-2.206-0.676-2.206-2.792
			c0-2.101,1.034-2.765,2.179-2.765c1.2,0,2.166,0.664,2.166,2.765C138.526,21.056,137.533,21.733,136.388,21.733z"/>
		<path class="st8" d="M129.307,21.317l-1.969-5.943h-1.155l2.4,6.784c0.107,0.298,0.402,0.485,0.717,0.456
			c0.314,0.026,0.607-0.161,0.717-0.456l2.401-6.784h-1.077L129.307,21.317z"/>
		<polygon class="st8" points="144.168,18.884 146.609,15.374 145.396,15.374 143.547,18.139 141.671,15.374 140.417,15.374 
			142.871,18.887 140.361,22.507 141.589,22.507 143.519,19.605 145.436,22.507 146.678,22.505 		"/>
		<path class="st8" d="M114.653,15.376h-1.543c-0.06-0.009-0.12-0.011-0.181-0.007c-0.494,0.03-0.87,0.454-0.841,0.948v6.191h1.061
			v-6.122h1.503c1.255,0,2.083,0.416,2.083,1.948v4.173h1.075v-4.174C117.811,16.04,116.432,15.376,114.653,15.376z"/>
		<path class="st8" d="M122.488,15.265c-1.012-0.021-2.009,0.258-2.862,0.802l0.371,0.926c0.744-0.451,1.599-0.686,2.469-0.677
			c1.075,0,1.723,0.318,1.723,1.506v0.998c-0.695-0.427-1.5-0.638-2.315-0.608c-1.349,0-2.48,0.747-2.48,2.115
			c0,1.617,1.188,2.16,2.912,2.16l1.948-0.001c0.063,0.008,0.126,0.009,0.189,0.003c0.458-0.044,0.794-0.452,0.75-0.91v-3.883
			C125.191,16.011,124.185,15.265,122.488,15.265z M124.19,21.539h-1.886c-1.435,0-1.834-0.466-1.834-1.196l0.003,0.001
			c0-0.761,0.564-1.171,1.402-1.171c0.819-0.03,1.628,0.194,2.315,0.64V21.539z"/>
		<path class="st8" d="M102.383,16.301c-0.597-0.609-1.405-0.965-2.257-0.995c-1.49,0-2.866,0.986-2.866,3.501
			c0,2.612,1.519,3.68,3.368,3.68h1.752c0.055,0.007,0.11,0.009,0.165,0.006c0.491-0.029,0.865-0.449,0.837-0.94v-9.388h-0.999
			V16.301z M102.382,21.485h-1.755c-1.241,0-2.304-0.692-2.304-2.682c0-1.891,0.851-2.48,1.789-2.48
			c0.864,0.071,1.672,0.458,2.27,1.085V21.485z"/>
	</g>
</g>
<rect x="60.255" y="3.481" width="0.347" height="28.964"/>
</svg>
