<?xml version="1.0" encoding="utf-8"?>
<!-- Generator: Adobe Illustrator 26.0.3, SVG Export Plug-In . SVG Version: 6.00 Build 0)  -->
<svg version="1.1" id="Layer_1" xmlns="http://www.w3.org/2000/svg" xmlns:xlink="http://www.w3.org/1999/xlink" x="0px" y="0px"
	 viewBox="0 0 339 162" style="enable-background:new 0 0 339 162;" xml:space="preserve">
<style type="text/css">
	.st0{fill:#95C93D;}
	.st1{fill:#FBED22;}
	.st2{fill:#28BCEE;}
	.st3{fill:#29BBED;}
	.st4{fill:#FBED24;}
	.st5{fill:#FBED26;}
	.st6{fill:#848689;}
</style>
<g>
	<path class="st0" d="M147.461,29.083c-7.955-3.822-15.92-7.622-23.864-11.467c-2.447-1.184-4.96-2.236-7.311-3.616
		c-0.203,0-0.405,0-0.608,0c-0.146,0.257-0.427,0.311-0.663,0.424c-8.408,4.045-16.819,8.086-25.229,12.129
		c-1.965,0.944-3.928,1.891-6.052,2.914c1.322,0.558,4.789,2.02,8.1,3.418v6.093H91.13v2.751h2.404v-2.751h-0.641v-5.647
		c2.703,1.142,5.128,2.169,5.945,2.525c0.522,0.226,1.009,0.266,1.565,0.129c2.092-0.517,4.192-1.009,6.297-1.471
		c0.273-0.06,0.737-0.436,0.89,0.185c0.141,0.571-0.326,0.554-0.674,0.635c-1.707,0.393-3.41,0.805-5.123,1.168
		c-0.637,0.135-0.994,0.324-0.923,1.098c0.091,1.004,0.022,2.023,0.022,3.036c0,1.496,0,2.991,0,4.696
		c4.211-4.479,9.244-6.414,15.091-6.419c5.866-0.005,10.899,1.989,15.092,6.433c0-2.723,0.033-5.182-0.019-7.639
		c-0.016-0.752,0.188-1.134,0.908-1.415c2.009-0.782,3.986-1.647,5.973-2.483c3.373-1.42,6.744-2.843,10.12-4.266
		C147.917,29.236,147.667,29.182,147.461,29.083z"/>
	<path class="st1" d="M309.943,69.504c-0.064,0.068-0.173,0.127-0.187,0.204c-0.848,4.522-3.818,7.018-8.043,8.113
		c-5.441,1.409-10.505,0.609-14.909-3.11c-1.043-0.881-1.806-1.994-2.384-3.231c-0.49-1.05-0.613-2.093,0.222-3.022
		c0.86-0.957,1.962-1.278,3.212-0.964c0.777,0.195,1.476,0.609,1.848,1.319c1.565,2.99,4.284,3.802,7.347,3.948
		c1.394,0.067,2.747-0.201,4.032-0.786c1.584-0.722,2.714-1.809,2.768-3.647c0.054-1.848-0.848-3.227-2.382-4.191
		c-1.407-0.885-3.005-1.145-4.624-1.318c-2.928-0.311-5.669-1.119-8.067-2.922c-5.03-3.78-5.213-12.036,1.426-15.205
		c4.629-2.21,9.424-2.521,14.11-0.055c1.978,1.041,3.439,2.707,4.581,4.621c0.955,1.6,0.63,3.262-0.735,4.087
		c-1.415,0.856-3.249,0.375-4.245-1.113c-2.362-3.53-7.122-4.654-10.882-2.59c-1.201,0.66-1.879,1.643-1.884,3.008
		c-0.005,1.51,0.728,2.652,2.01,3.405c1.455,0.854,3.093,1.121,4.739,1.305c2.152,0.241,4.269,0.593,6.239,1.568
		c3.186,1.576,5.168,4.029,5.628,7.615c0.015,0.115,0.116,0.219,0.177,0.328C309.943,67.749,309.943,68.626,309.943,69.504z"/>
	<path class="st2" d="M82.805,116.673c1.199-2.459,2.306-4.722,3.407-6.99c3.812-7.85,7.619-15.703,11.434-23.552
		c0.72-1.482,1.888-2.103,3.255-1.771c1.358,0.331,2.048,1.32,2.048,2.957c0.002,11.546,0.001,23.09,0,34.636
		c0,1.916-1.021,3.061-2.715,3.055c-1.661-0.005-2.747-1.188-2.75-3.076c-0.011-7.933-0.005-15.866-0.005-23.799
		c0-0.359,0-0.717,0-1.075c-0.061-0.015-0.122-0.03-0.181-0.046c-1.287,2.611-2.579,5.22-3.861,7.833
		c-2.776,5.658-5.541,11.32-8.324,16.975c-0.517,1.05-1.339,1.629-2.578,1.614c-1.293-0.016-2.032-0.709-2.569-1.788
		c-3.694-7.422-7.399-14.839-11.101-22.257c-0.331-0.663-0.668-1.323-1.193-1.989c0,0.334,0,0.668,0,1.004
		c0,7.933-0.003,15.866,0.004,23.799c0.001,1.116-0.43,1.979-1.414,2.495c-0.966,0.506-1.964,0.469-2.881-0.144
		c-0.892-0.598-1.187-1.493-1.184-2.54c0.012-4.793,0.005-9.587,0.005-14.381c0-6.785-0.005-13.571,0.003-20.357
		c0.003-1.862,1.237-3.104,2.936-2.977c1.21,0.09,1.919,0.821,2.436,1.863c3.266,6.58,6.551,13.152,9.833,19.724
		C79.169,109.414,80.936,112.939,82.805,116.673z"/>
	<path class="st1" d="M227.137,58.131c-1.23,2.497-2.462,4.992-3.688,7.49c-1.499,3.055-2.99,6.113-4.489,9.169
		c-0.596,1.215-1.514,1.981-2.925,1.972c-1.412-0.008-2.27-0.795-2.877-2.021c-2.54-5.133-5.113-10.25-7.676-15.373
		c-0.146-0.292-0.306-0.578-0.641-0.845c0,0.315,0,0.629,0,0.944c0,5.13,0.018,10.26-0.009,15.39
		c-0.013,2.368-2.135,3.816-4.246,2.927c-1.297-0.546-1.852-1.605-1.854-2.979c-0.003-2.126-0.001-4.252-0.001-6.379
		c0-7.256-0.011-14.513,0.007-21.77c0.006-2.511,2.319-4.005,4.455-2.929c0.805,0.406,1.224,1.126,1.604,1.889
		c3.64,7.297,7.282,14.593,10.924,21.889c0.149,0.3,0.308,0.594,0.529,1.018c1.28-2.627,2.51-5.149,3.737-7.674
		c2.504-5.15,5.009-10.301,7.508-15.454c0.572-1.179,1.415-1.96,2.794-1.991c1.732-0.04,3.094,1.174,3.098,2.908
		c0.024,9.586,0.024,19.171,0.004,28.757c-0.003,1.729-1.346,2.959-3.066,2.945c-1.726-0.014-2.99-1.253-2.996-3.014
		c-0.016-5.231-0.006-10.463-0.006-15.694c0-0.37,0-0.74,0-1.11C227.262,58.172,227.199,58.152,227.137,58.131z"/>
	<path class="st2" d="M309.784,102.321c0.005,1.486,0.01,2.971,0.016,4.457c-0.496,4.923-2.233,9.284-5.837,12.785
		c-3.743,3.634-8.305,5.308-13.452,5.431c-3.374,0.081-6.751,0.021-10.128,0.013c-1.766-0.004-2.848-1.069-2.849-2.822
		c-0.005-11.681-0.005-23.361-0.001-35.042c0.001-1.69,0.997-2.846,2.628-2.832c4.182,0.037,8.37-0.229,12.547,0.176
		c8.485,0.821,15.582,7.585,16.821,16.033C309.617,101.119,309.699,101.72,309.784,102.321z M283.002,104.67
		c0,4.859,0.018,9.718-0.019,14.577c-0.006,0.763,0.197,0.968,0.953,0.948c2.259-0.061,4.526,0.053,6.78-0.068
		c4.364-0.234,8.009-1.985,10.702-5.497c2.45-3.196,3.245-6.876,3.148-10.84c-0.176-7.204-4.791-12.953-11.661-14.334
		c-2.969-0.597-5.991-0.183-8.985-0.319c-0.782-0.035-0.94,0.217-0.935,0.955C283.018,94.952,283.002,99.811,283.002,104.67z"/>
	<path class="st0" d="M84.451,66.467c0-0.36,0-0.721,0-1.081c0-6.313-0.004-12.625,0.003-18.939
		c0.002-1.404,0.666-2.389,1.862-2.842c1.231-0.466,2.577-0.149,3.428,0.796c0.527,0.584,0.729,1.285,0.73,2.048
		c0.004,9.52,0.009,19.04-0.005,28.559c-0.003,1.434-0.759,2.447-1.997,2.86c-1.331,0.445-2.67,0.013-3.569-1.182
		c-5.315-7.063-10.624-14.131-15.941-21.193c-0.17-0.226-0.268-0.535-0.684-0.678c0,0.371,0,0.693,0,1.015
		c0,6.313,0.011,12.625-0.006,18.938c-0.007,2.411-2.016,3.856-4.174,3.05c-1.241-0.463-1.894-1.483-1.896-3.036
		C62.196,67.627,62.2,60.47,62.2,53.314c0-2.195-0.005-4.388,0.002-6.583c0.005-1.657,0.679-2.721,1.993-3.18
		c1.316-0.459,2.641-0.013,3.631,1.301c4.812,6.386,9.609,12.782,14.415,19.174c0.644,0.857,1.298,1.705,1.948,2.557
		C84.275,66.544,84.363,66.505,84.451,66.467z"/>
	<path class="st0" d="M98.432,58.522c0.117-4.646,2.626-10.113,8.746-13.441c7.352-3.998,19.245-2.776,24.292,6.7
		c3.973,7.46,2.813,19.978-7.274,24.882c-6.331,3.079-16.03,2.467-21.494-3.817C99.659,69.347,98.381,65.219,98.432,58.522z
		 M127.63,59.503c-0.096-3.312-1.732-7.065-5.784-9.336c-3.868-2.168-7.934-2.178-11.781,0.04c-4.29,2.474-5.881,6.491-5.721,11.29
		c0.239,7.168,6.562,12.325,13.593,11.117C123.788,71.608,127.63,66.892,127.63,59.503z"/>
	<path class="st2" d="M219.193,104.618c0,5.807,0.002,11.614-0.001,17.42c-0.001,1.882-0.982,2.968-2.671,2.97
		c-1.638,0.003-2.753-1.149-2.761-2.955c-0.021-4.76-0.024-9.521,0.009-14.28c0.006-0.771-0.167-1.02-0.988-1.015
		c-7.36,0.035-14.72,0.033-22.079,0.002c-0.816-0.003-1.083,0.172-1.075,1.039c0.045,4.726,0.023,9.452,0.02,14.179
		c-0.001,1.94-0.986,3.037-2.714,3.032c-1.675-0.005-2.753-1.179-2.754-3.062c-0.007-10.5-0.003-20.999-0.003-31.499
		c0-1.148-0.033-2.297,0.011-3.443c0.051-1.328,0.742-2.221,1.901-2.579c1.138-0.352,2.334-0.01,3.025,0.85
		c0.451,0.56,0.543,1.206,0.541,1.901c-0.01,4.592,0.014,9.183-0.024,13.774c-0.007,0.794,0.203,1.016,1.006,1.013
		c7.394-0.031,14.788-0.03,22.181-0.001c0.761,0.003,0.958-0.201,0.952-0.956c-0.035-4.558-0.03-9.116-0.012-13.673
		c0.008-2.175,1.656-3.498,3.572-2.918c1.22,0.369,1.859,1.268,1.86,2.681C219.196,92.937,219.193,98.777,219.193,104.618z"/>
	<path class="st3" d="M113.368,104.6c0-5.705-0.002-11.41,0.001-17.115c0.001-2.26,0.934-3.192,3.196-3.193
		c7.596-0.002,15.191-0.003,22.787,0.002c1.94,0.002,2.982,0.967,2.93,2.68c-0.044,1.462-1.042,2.368-2.7,2.378
		c-3.24,0.018-6.481,0.005-9.723,0.005c-3.376,0-6.752,0.026-10.127-0.019c-0.777-0.011-0.956,0.219-0.949,0.963
		c0.037,3.544,0.048,7.089-0.005,10.633c-0.014,0.89,0.3,1.036,1.098,1.031c4.557-0.035,9.115-0.023,13.672-0.014
		c1.721,0.003,2.778,0.907,2.824,2.374c0.051,1.626-0.936,2.649-2.61,2.653c-4.625,0.01-9.25,0.031-13.874-0.02
		c-0.903-0.01-1.123,0.227-1.11,1.115c0.053,3.645,0.044,7.292,0.004,10.937c-0.008,0.757,0.193,0.958,0.957,0.955
		c6.346-0.032,12.693-0.019,19.039-0.016c0.472,0,0.951-0.013,1.413,0.065c1.424,0.241,2.161,1.204,2.073,2.643
		c-0.085,1.396-0.993,2.339-2.411,2.342c-7.967,0.02-15.934,0.021-23.901,0.002c-1.573-0.004-2.576-1.155-2.58-2.878
		c-0.012-4.523-0.004-9.047-0.004-13.571C113.368,107.234,113.368,105.917,113.368,104.6z"/>
	<path class="st2" d="M269.285,98.038c1.333,1.972,1.549,4.101,0.817,6.313c-0.316,0.955-0.613,1.805-0.131,2.804
		c0.258,0.535,0.003,1.133-0.39,1.596c-0.75,0.883-2.828,1.053-3.594,0.178c-0.724-0.828-1.404-1.531-2.579-1.13
		c-0.139-0.425,0.144-0.529,0.267-0.706c0.284-0.41,0.333-0.806-0.009-1.199c-0.355-0.408-0.769-0.398-1.165-0.086
		c-0.354,0.279-0.664,0.4-1.074,0.079c-0.385-0.301-0.838-0.336-1.18,0.066c-0.357,0.419-0.338,0.974,0.06,1.28
		c1.105,0.848,1.662,2.384,3.351,2.528c0.882,0.075,1.468,0.914,2.274,1.276c0.64,0.288,1.278,0.483,1.95,0.338
		c0.646-0.138,0.647,0.101,0.569,0.619c-0.262,1.754-1.336,2.891-2.829,3.788c-0.141-0.522-0.184-1.112-0.454-1.567
		c-0.301-0.51-0.686-1.235-1.489-0.814c-0.724,0.38-0.477,0.987-0.202,1.578c1.114,2.39,0.207,5.442-2.025,6.858
		c-0.311,0.198-0.632,0.39-1.05,0.422c0.048-0.831,0.104-1.654,0.141-2.477c0.057-1.239-0.19-2.422-0.774-3.515
		c-0.242-0.453-0.354-0.842-0.009-1.291c0.216-0.28,0.184-0.641,0.17-0.979c-0.019-0.455-0.243-0.778-0.695-0.879
		c-0.477-0.106-0.798,0.151-0.932,0.576c-0.227,0.727-0.671,1.044-1.437,0.955c-0.599-0.071-0.982,0.181-1.009,0.831
		c-0.028,0.647,0.407,1.039,0.927,0.954c1.437-0.235,1.588,0.814,1.848,1.724c0.39,1.366,0.285,2.74-0.133,4.088
		c-0.619,1.994-2.155,3.091-4.158,2.992c-1.904-0.094-3.558-1.576-3.954-3.482c-0.236-1.138-0.149-2.287-0.155-3.424
		c-0.029-4.725,0.014-9.451,0.035-14.176c0.001-0.191-0.068-0.41,0.143-0.567c0.338,0.148,0.402,0.51,0.572,0.78
		c1.713,2.711,4.047,4.581,7.204,5.333c0.422,0.1,0.865,0.134,1.3,0.154c0.457,0.02,0.783-0.187,0.853-0.677
		s-0.067-0.885-0.583-1.029c-0.387-0.108-0.794-0.147-1.184-0.247c-4.035-1.037-6.268-3.88-7.528-7.633
		c-0.681-2.028-0.87-4.139-0.807-6.284c0.061-2.058,0.002-4.118,0.031-6.177c0.032-2.213,1.473-3.593,3.554-3.752
		c2.861-0.219,4.334,3.527,3.331,5.694c-0.274,0.593-0.636,1.112-1.127,1.538c-0.814,0.706-0.965,0.676-1.473-0.261
		c-0.193-0.357-0.471-0.572-0.901-0.501c-0.479,0.079-0.768,0.417-0.685,0.849c0.199,1.051-0.149,1.827-0.937,2.502
		c-0.393,0.337-0.329,0.796-0.016,1.182c0.338,0.416,0.842,0.476,1.145,0.096c1.06-1.332,2.889-1.365,4.057-2.491
		c0.109-0.105,0.322-0.197,0.455-0.165c0.836,0.198,0.808-0.344,0.754-0.873c-0.017-0.165-0.048-0.304,0.003-0.476
		c0.958-3.279,0.956-3.28-0.049-6.451c0.668-0.118,0.992,0.298,1.256,0.781c0.385,0.704,0.982,1.069,1.751,1.239
		c2.046,0.452,3.603,2.344,3.56,4.455c-0.02,0.975,0.193,1.583,1.213,1.874c0.699,0.199,1.195,0.774,1.431,1.479
		c0.545,1.633,0.062,3.066-1,4.32c-0.999,1.178-2.313,1.542-3.823,1.3c-0.539-0.087-0.698-0.24-0.565-0.862
		c0.161-0.758,0.349-1.355,1.107-1.722c0.419-0.203,0.702-0.636,0.706-1.159c0.003-0.403-0.175-0.725-0.537-0.907
		c-0.358-0.18-0.68-0.043-0.895,0.249c-0.511,0.697-1.181,0.874-1.962,0.614c-0.51-0.169-0.879-0.038-1.094,0.418
		c-0.232,0.493-0.118,1.019,0.387,1.204c1.026,0.375,0.592,0.971,0.274,1.496c-0.494,0.814-1.285,1.276-2.18,1.547
		c-0.658,0.198-1.16,0.538-0.899,1.296c0.272,0.792,0.965,0.749,1.504,0.403c1.536-0.985,3.085-0.933,4.863-0.719
		c2.402,0.288,4.167-1.134,5.32-3.24c0.112-0.206,0.201-0.425,0.305-0.636C269.113,98.106,269.155,98.1,269.285,98.038z"/>
	<path class="st2" d="M237.556,122.172c-0.457,0.074-0.78-0.202-1.108-0.422c-2.172-1.461-2.995-4.418-1.887-6.797
		c0.301-0.647,0.467-1.32-0.34-1.611c-0.772-0.278-1.144,0.441-1.434,0.987c-0.21,0.393-0.224,0.892-0.342,1.419
		c-1.606-0.833-2.579-2.018-2.883-3.721c-0.078-0.44-0.127-0.8,0.561-0.644c0.712,0.16,1.406-0.026,2.036-0.396
		c1.099-0.646,2.224-1.204,3.416-1.69c1.004-0.409,1.597-1.544,2.341-2.384c0.276-0.311,0.112-0.71-0.19-0.993
		c-0.311-0.292-0.674-0.326-1.02-0.103c-0.355,0.229-0.662,0.453-1.075,0.086c-0.384-0.342-0.826-0.502-1.242-0.035
		c-0.414,0.465-0.311,0.918,0.074,1.35c0.106,0.118,0.197,0.248,0.276,0.349c-0.124,0.262-0.315,0.236-0.463,0.203
		c-0.826-0.186-1.393,0.087-1.886,0.798c-0.724,1.044-2.768,1.23-3.728,0.402c-0.621-0.536-0.87-1.25-0.555-2.006
		c0.343-0.823,0.21-1.532-0.1-2.325c-0.789-2.02-0.68-4.026,0.327-5.963c0.121-0.232,0.205-0.506,0.56-0.639
		c0.43,1.067,1.069,1.991,1.971,2.742c1.653,1.377,3.492,1.588,5.468,0.942c0.555-0.181,0.977-0.233,1.448,0.215
		c0.518,0.494,1.223,0.696,1.901,0.907c0.56,0.175,1.024,0.085,1.212-0.533c0.176-0.578-0.058-0.994-0.628-1.19
		c-1.004-0.345-1.963-0.752-2.505-1.747c-0.298-0.546-0.615-1.074,0.337-1.383c0.428-0.138,0.67-0.591,0.468-1.086
		c-0.203-0.496-0.573-0.74-1.13-0.555c-0.791,0.262-1.454,0.1-1.984-0.569c-0.284-0.359-0.652-0.516-1.052-0.202
		c-0.377,0.295-0.525,0.707-0.342,1.173c0.151,0.385,0.399,0.759,0.771,0.907c0.663,0.265,0.733,0.804,0.939,1.381
		c0.326,0.916-0.076,1.129-0.825,1.175c-1.507,0.092-2.802-0.346-3.721-1.603c-0.902-1.234-1.297-2.597-0.787-4.096
		c0.263-0.775,0.849-1.31,1.627-1.554c0.78-0.245,1.018-0.732,0.997-1.517c-0.065-2.331,1.432-4.226,3.703-4.752
		c0.736-0.17,1.295-0.565,1.64-1.233c0.246-0.478,0.548-0.842,1.246-0.776c-0.269,1.048-0.793,1.996-0.797,3.083
		c-0.003,1.063,0.244,2.045,0.543,3.059c0.277,0.939,0.323,1.746,1.581,2.04c0.852,0.199,1.574,1.011,2.539,1.145
		c0.491,0.068,0.547,0.555,0.86,0.79c0.479,0.36,0.953,0.928,1.563,0.31c0.555-0.563,0.273-1.09-0.25-1.552
		c-0.505-0.447-0.796-1.005-0.654-1.708c0.127-0.631,0.073-1.2-0.685-1.318c-0.704-0.109-0.907,0.431-1.036,0.99
		c-0.03,0.127-0.062,0.255-0.093,0.385c-2.111-0.7-3.156-2.93-2.444-5.167c0.699-2.198,2.456-3.16,4.557-2.486
		c1.454,0.467,2.341,1.581,2.357,2.99c0.046,3.869,0.499,7.774-0.349,11.601c-0.908,4.096-2.941,7.376-7.15,8.838
		c-0.535,0.186-1.118,0.233-1.672,0.37c-0.538,0.133-0.953,0.419-0.868,1.048c0.085,0.631,0.534,0.81,1.109,0.748
		c3.135-0.338,5.566-1.899,7.47-4.345c0.506-0.65,0.934-1.361,1.502-2.198c0.017,0.333,0.031,0.484,0.031,0.636
		c0.001,5.535,0.016,11.07-0.006,16.605c-0.01,2.705-1.821,4.659-4.277,4.692c-1.69,0.023-2.952-0.752-3.656-2.249
		c-0.869-1.848-0.876-3.771-0.146-5.693c0.227-0.597,0.516-0.978,1.257-0.826c0.396,0.081,0.829-0.058,1.081-0.42
		c0.202-0.29,0.193-0.643,0.056-0.972c-0.153-0.367-0.464-0.471-0.828-0.436c-0.653,0.064-1.199-0.003-1.444-0.762
		c-0.161-0.503-0.479-0.963-1.115-0.732c-0.619,0.225-0.84,0.867-0.56,1.329c0.602,0.996,0.075,1.756-0.238,2.622
		c-0.476,1.319-0.56,2.698-0.361,4.089C237.566,121.516,237.707,121.837,237.556,122.172z"/>
	<path class="st3" d="M164.581,106.255c0,5.231,0.009,10.463-0.005,15.694c-0.005,1.989-1.146,3.152-2.931,3.058
		c-1.361-0.072-2.406-1.089-2.487-2.455c-0.034-0.571-0.008-1.147-0.008-1.721c0-10.125-0.012-20.251,0.02-30.376
		c0.003-0.874-0.186-1.139-1.101-1.123c-3.407,0.061-6.817,0.043-10.226,0.014c-1.502-0.013-2.457-1.031-2.465-2.506
		c-0.008-1.477,0.939-2.467,2.436-2.544c0.135-0.007,0.27-0.003,0.405-0.003c9.079,0,18.158-0.003,27.237,0.002
		c1.843,0.001,2.886,1.004,2.817,2.675c-0.06,1.44-1.049,2.375-2.593,2.383c-3.375,0.016-6.751,0.035-10.125-0.016
		c-0.829-0.013-0.995,0.253-0.991,1.023C164.596,95.657,164.581,100.956,164.581,106.255z"/>
	<path class="st4" d="M264.737,62.639c0-4.153-0.019-8.305,0.016-12.458c0.007-0.777-0.177-1.053-1.002-1.033
		c-2.328,0.056-4.658,0.026-6.988,0.018c-1.999-0.008-3.158-1.068-3.167-2.872c-0.008-1.81,1.158-2.89,3.135-2.891
		c7.326-0.002,14.653-0.003,21.979,0c1.96,0.001,3.184,1.111,3.19,2.88c0.007,1.718-1.267,2.876-3.199,2.883
		c-2.296,0.009-4.592,0.035-6.887-0.016c-0.795-0.018-1.016,0.209-1.014,1.009c0.029,8.17,0.021,16.341,0.015,24.511
		c-0.002,2.004-1.196,3.318-3.004,3.343c-1.797,0.026-3.066-1.2-3.071-3.017C264.729,70.877,264.738,66.758,264.737,62.639z"/>
	<path class="st1" d="M154.653,60.67c0-4.658-0.014-9.316,0.006-13.974c0.01-2.379,1.938-3.841,4.047-3.12
		c1.278,0.437,1.973,1.466,1.974,2.963c0.003,8.067,0.02,16.134-0.023,24.201c-0.005,0.971,0.219,1.233,1.208,1.219
		c4.32-0.06,8.64-0.028,12.961-0.024c2.028,0.002,3.402,1.269,3.362,3.09c-0.04,1.8-1.371,2.986-3.36,2.987
		c-5.603,0.002-11.206,0.002-16.809,0c-2.22-0.001-3.355-1.121-3.362-3.368C154.644,69.986,154.653,65.329,154.653,60.67z"/>
	<path class="st5" d="M183.819,60.68c0-4.689-0.008-9.377,0.004-14.066c0.005-1.849,1.12-3.097,2.812-3.212
		c1.9-0.13,3.279,1.142,3.303,3.121c0.03,2.563,0.008,5.127,0.008,7.691c0,6.814,0.004,13.627-0.003,20.441
		c-0.003,2.053-1.147,3.333-2.96,3.36c-1.92,0.029-3.153-1.226-3.159-3.269C183.81,70.057,183.819,65.368,183.819,60.68z"/>
	<path class="st1" d="M242.254,60.693c0-4.754,0.001-9.508-0.001-14.263c0-1.226,0.517-2.158,1.623-2.694
		c1.155-0.56,2.294-0.465,3.338,0.3c0.759,0.555,1.112,1.349,1.113,2.273c0.008,9.609,0.015,19.219-0.006,28.829
		c-0.003,1.685-1.316,2.871-3.016,2.874c-1.738,0.003-3.033-1.207-3.043-2.956C242.237,70.27,242.254,65.482,242.254,60.693z"/>
	<path class="st0" d="M120.075,59.706c0-2.178-1.765-3.943-3.943-3.943s-3.943,1.765-3.943,3.943c0,1.616,0.975,3.001,2.367,3.61
		l-0.452,4.84h4.056l-0.452-4.84C119.1,62.707,120.075,61.322,120.075,59.706z"/>
	<path class="st6" d="M172.271,139.34c0.152,0.042,0.292,0.123,0.382,0.161c1.179,0.497,1.627,1.89,1.302,3.185
		c-0.322,1.284-1.41,2.262-2.739,2.333c-1.345,0.072-2.697,0.039-4.046,0.016c-0.536-0.009-0.777-0.28-0.846-0.818
		c-0.025-0.199-0.009-0.404-0.009-0.606c0-2.596-0.003-5.193,0.001-7.79c0.002-1.107,0.193-1.316,1.265-1.336
		c0.91-0.017,1.822-0.029,2.731,0.005c0.819,0.03,1.585,0.23,2.226,0.811c1.088,0.987,1.252,2.898,0.089,3.748
		C172.555,139.105,172.423,139.239,172.271,139.34z M167.844,143.627c0.49,0,0.858,0.002,1.226,0
		c0.607-0.003,1.214,0.007,1.819-0.017c0.644-0.025,1.179-0.268,1.485-0.876c0.569-1.132,0.007-2.27-1.311-2.477
		c-1.053-0.165-2.025-0.187-3.219-0.137C167.844,141.054,167.844,143.627,167.844,143.627z M167.862,135.939
		c0,1.02,0.027,1.897,0.027,2.816c0.967,0,1.848,0.024,2.752-0.025c0.784-0.042,1.323-0.661,1.322-1.392
		c-0.001-0.718-0.549-1.339-1.345-1.386C169.717,135.897,168.81,135.939,167.862,135.939z"/>
	<path class="st6" d="M106.42,139.847c0.069,2.929-2.04,5.426-5.406,5.373c-3.131-0.05-5.345-2.069-5.333-5.471
		c0.013-3.407,2.435-5.434,5.632-5.357C103.921,134.455,106.522,136.478,106.42,139.847z M97.224,139.794
		c0,0.101-0.004,0.203,0.001,0.303c0.067,1.504,0.725,2.663,2.097,3.309c1.414,0.666,2.813,0.582,4.094-0.377
		c1.328-0.995,1.686-2.387,1.491-3.949c-0.285-2.296-2.592-3.778-4.839-3.194C98.482,136.299,97.087,137.819,97.224,139.794z"/>
	<path class="st6" d="M235.449,134.43c2.638-0.194,5.406,1.685,5.412,5.344c0.006,3.219-2.196,5.426-5.37,5.451
		c-3.177,0.024-5.375-2.279-5.4-5.405C230.065,136.582,232.559,134.199,235.449,134.43z M235.404,143.799
		c2.299,0.014,4.042-1.711,3.975-4.049c-0.072-2.501-1.726-4.005-3.94-3.993c-2.348,0.013-3.797,1.777-3.869,3.96
		C231.498,141.932,233.303,143.899,235.404,143.799z"/>
	<path class="st6" d="M76.238,143.539c0,0.269,0.005,0.54-0.019,0.809c-0.032,0.366-0.182,0.654-0.599,0.69
		c-0.422,0.037-0.777-0.246-0.851-0.688c-0.028-0.165-0.015-0.337-0.015-0.505c-0.001-2.733-0.001-5.465,0-8.198
		c0-0.135,0-0.27,0.006-0.404c0.015-0.352,0.22-0.593,0.54-0.638c0.235-0.033,0.551,0.01,0.725,0.151
		c0.282,0.227,0.484,0.556,0.706,0.852c1.518,2.021,3.033,4.046,4.55,6.067c0.14,0.187,0.293,0.363,0.541,0.668
		c0-0.483,0-0.832,0-1.183c0-1.754,0-3.509,0-5.263c0-0.203-0.013-0.406,0.006-0.607c0.041-0.437,0.403-0.796,0.765-0.777
		c0.344,0.019,0.657,0.339,0.695,0.739c0.019,0.201,0.007,0.404,0.007,0.607c0,2.632,0,5.263,0,7.894
		c0,0.135-0.007,0.27,0.001,0.405c0.02,0.362-0.051,0.674-0.43,0.825c-0.381,0.152-0.709,0.051-1.039-0.381
		c-1.023-1.339-2.031-2.691-3.045-4.037c-0.787-1.046-2.537-3.396-2.537-3.396S76.239,141.517,76.238,143.539z"/>
	<path class="st6" d="M182.283,140.748c0.561,0.914,1.107,1.799,1.647,2.686c0.122,0.201,0.231,0.409,0.338,0.62
		c0.185,0.365,0.023,0.664-0.239,0.895c-0.244,0.214-0.753,0.122-0.995-0.172c-0.192-0.232-0.344-0.498-0.505-0.755
		c-0.48-0.771-0.985-1.529-1.423-2.324c-0.144-0.261-0.392-0.67-0.392-0.67s-0.532-0.017-0.817-0.003
		c-0.373,0.019-0.534,0.006-0.95,0.006c0,0.911,0.021,1.736,0,2.567c-0.008,0.329,0.018,0.671-0.062,0.992
		c-0.071,0.284-0.426,0.459-0.744,0.452c-0.328-0.008-0.651-0.08-0.75-0.42c-0.074-0.254-0.1-0.56-0.1-0.821
		c-0.01-2.695-0.014-5.391-0.003-8.087c0.004-0.944,0.262-1.2,1.2-1.226c0.741-0.02,1.485-0.041,2.223,0.005
		c2.465,0.152,3.979,2.511,3.004,4.675C183.567,139.497,183.242,140.187,182.283,140.748z M178.928,139.695
		c0.448,0,0.782,0.017,1.113-0.005c0.3-0.019,0.599-0.073,0.896-0.127c0.968-0.172,1.544-0.796,1.563-1.683
		c0.02-0.976-0.601-1.782-1.586-1.908c-0.648-0.083-1.316-0.016-1.987-0.016C178.928,137.239,178.928,138.408,178.928,139.695z"/>
	<path class="st6" d="M156.186,140.946c-0.557,0-1.02,0.017-1.481-0.004c-0.674-0.03-1.045-0.306-1.031-0.728
		c0.015-0.442,0.359-0.677,1.045-0.688c0.641-0.01,1.282-0.024,1.921,0.004c0.793,0.035,0.988,0.25,0.998,1.058
		c0.011,0.876-0.018,1.754,0.01,2.629c0.015,0.492-0.164,0.806-0.571,1.086c-2.759,1.897-6.768,0.831-7.951-2.772
		c-0.825-2.513,0.159-5.231,2.409-6.475c1.803-0.997,3.674-0.967,5.459,0.166c0.169,0.107,0.324,0.244,0.461,0.391
		c0.233,0.25,0.261,0.542,0.086,0.836c-0.183,0.308-0.485,0.36-0.795,0.275c-0.187-0.051-0.366-0.169-0.523-0.29
		c-1.726-1.335-4.277-0.608-5.31,1.225c-1.127,1.998-0.53,4.507,1.406,5.654c1.101,0.652,2.233,0.633,3.382,0.111
		c0.302-0.138,0.501-0.308,0.489-0.675C156.173,142.186,156.186,141.62,156.186,140.946z"/>
	<path class="st6" d="M255.167,135.934c0,1.091,0,3.155,0,3.155s1.771-0.024,2.637-0.001c0.404,0.011,0.81-0.003,1.213,0.032
		c0.354,0.03,0.532,0.266,0.539,0.618c0.006,0.352-0.17,0.588-0.517,0.639c-0.298,0.044-0.604,0.042-0.907,0.043
		c-0.969,0.005-2.963,0.014-2.963,0.014v3.189c0,0,0.632,0,0.927,0.001c1.215,0.005,2.429,0.002,3.644,0.003
		c0.203,0,0.407-0.015,0.607,0.008c0.482,0.054,0.801,0.38,0.771,0.764c-0.032,0.404-0.32,0.644-0.853,0.647
		c-1.821,0.01-3.644,0.011-5.466,0.002c-0.968-0.005-1.187-0.22-1.19-1.197c-0.009-2.733-0.003-5.466-0.003-8.199
		c0-0.068-0.003-0.135,0.001-0.203c0.038-0.647,0.268-0.892,0.922-0.96c0.2-0.021,0.404-0.008,0.607-0.008c1.518,0,3.037,0,4.554,0
		c0.135,0,0.27-0.004,0.405,0.001c0.648,0.024,1.025,0.29,1.031,0.724c0.006,0.422-0.386,0.717-1.027,0.723
		c-1.282,0.013-2.564,0.004-3.846,0.004C255.915,135.934,255.589,135.934,255.167,135.934z"/>
	<path class="st6" d="M192.887,142.804l-4.657,0.009c0,0-0.489,1.204-0.673,1.6c-0.256,0.55-0.608,0.733-1.023,0.579
		c-0.432-0.161-0.603-0.627-0.374-1.185c1.013-2.458,2.042-4.91,3.066-7.363c0.181-0.435,0.372-0.865,0.557-1.299
		c0.154-0.362,0.375-0.663,0.811-0.637c0.425,0.025,0.628,0.338,0.778,0.7c0.698,1.678,1.401,3.353,2.102,5.031
		c0.441,1.056,0.88,2.113,1.319,3.169c0.065,0.155,0.141,0.306,0.195,0.465c0.18,0.528,0.045,0.909-0.381,1.099
		c-0.419,0.187-0.787,0.065-1.043-0.49C193.328,143.967,192.887,142.804,192.887,142.804z M192.35,141.472l-1.791-4.424
		l-1.797,4.424H192.35z"/>
	<path class="st6" d="M62.175,138.63c0-1.079-0.008-2.157,0.003-3.235c0.006-0.542,0.296-0.874,0.733-0.896
		c0.393-0.019,0.726,0.358,0.729,0.91c0.014,1.887,0.033,3.775-0.004,5.662c-0.023,1.172,0.405,2.058,1.475,2.524
		c1.183,0.515,2.367,0.453,3.425-0.354c0.774-0.592,0.885-1.474,0.893-2.365c0.014-1.651,0.004-3.303,0.004-4.955
		c0-0.235,0.01-0.472,0.003-0.707c-0.014-0.431,0.275-0.621,0.62-0.662c0.351-0.041,0.673,0.127,0.789,0.491
		c0.07,0.218,0.068,0.463,0.068,0.696c0.005,1.854,0.017,3.707-0.001,5.561c-0.023,2.328-1.617,3.893-3.957,3.959
		c-1.171,0.033-2.285-0.097-3.272-0.79c-0.972-0.683-1.521-1.591-1.513-2.805C62.18,140.652,62.175,139.641,62.175,138.63z"/>
	<path class="st6" d="M123.671,140.257l-0.862,0.883c0,0-0.007,2.113-0.016,2.789c-0.003,0.199-0.012,0.412-0.082,0.593
		c-0.133,0.343-0.396,0.549-0.786,0.501c-0.344-0.042-0.536-0.266-0.596-0.596c-0.03-0.165-0.035-0.336-0.035-0.504
		c-0.002-2.733-0.006-5.467,0.002-8.2c0.003-0.794,0.303-1.229,0.777-1.191c0.483,0.038,0.716,0.435,0.723,1.256
		c0.008,0.978-0.013,3.293-0.013,3.293s2.714-2.719,3.746-3.74c0.239-0.236,0.49-0.468,0.766-0.658
		c0.365-0.252,0.679-0.221,0.896,0.067c0.221,0.294,0.279,0.616,0.014,0.923c-0.176,0.203-0.368,0.395-0.559,0.586
		c-0.95,0.952-1.9,1.902-2.896,2.898c0.589,0.809,1.14,1.567,1.693,2.324c0.458,0.625,0.923,1.247,1.378,1.875
		c0.138,0.191,0.286,0.382,0.382,0.594c0.174,0.388,0.057,0.806-0.24,0.988c-0.322,0.197-0.682,0.148-0.972-0.231
		c-0.881-1.151-1.732-2.325-2.597-3.488C124.177,140.922,123.898,140.549,123.671,140.257z"/>
	<path class="st6" d="M222.442,141.413c0,0.882,0.006,1.587-0.003,2.292c-0.003,0.267-0.005,0.542-0.07,0.798
		c-0.09,0.355-0.308,0.595-0.729,0.535c-0.382-0.054-0.614-0.257-0.658-0.646c-0.022-0.2-0.024-0.403-0.024-0.604
		c-0.002-2.693-0.004-5.386,0.001-8.078c0.002-1.058,0.158-1.231,1.242-1.22c1.038,0.012,2.09,0.003,3.109,0.166
		c1.643,0.264,2.662,1.896,2.541,3.62c-0.129,1.836-1.344,3.022-3.094,3.129C224.027,141.45,223.292,141.413,222.442,141.413z
		 M222.49,139.987c0,0,1.535,0.012,2.072-0.014c1.048-0.05,1.707-0.725,1.792-1.805c0.085-1.074-0.63-2.102-1.627-2.206
		c-0.723-0.076-1.461-0.015-2.237-0.015C222.49,137.293,222.49,139.987,222.49,139.987z"/>
	<path class="st6" d="M114.4,134.439c1.046-0.095,2.027,0.199,2.894,0.859c0.182,0.139,0.367,0.306,0.479,0.501
		c0.262,0.458-0.098,1.02-0.62,0.944c-0.281-0.041-0.559-0.212-0.804-0.376c-2.652-1.767-5.683,0.507-5.761,3.028
		c-0.046,1.475,0.324,2.734,1.541,3.65c1.193,0.898,2.468,0.992,3.802,0.346c0.333-0.161,0.65-0.355,0.979-0.526
		c0.28-0.145,0.54-0.077,0.723,0.158c0.168,0.215,0.28,0.49,0.093,0.742c-0.176,0.236-0.376,0.482-0.622,0.636
		c-3.288,2.056-7.458,0.064-7.96-3.764c-0.239-1.821,0.2-3.397,1.485-4.722C111.65,134.866,112.878,134.336,114.4,134.439z"/>
	<path class="st6" d="M247.358,135.934c0,1.139,0,2.146,0,3.154c0,1.551,0.008,3.102-0.007,4.653
		c-0.003,0.295-0.049,0.603-0.145,0.88c-0.111,0.323-0.403,0.452-0.734,0.404c-0.334-0.048-0.549-0.253-0.574-0.604
		c-0.02-0.268-0.023-0.538-0.024-0.808c-0.002-2.192-0.001-4.383-0.001-6.575c0-0.331,0-0.661,0-1.104
		c-0.842,0-1.606,0.008-2.371-0.002c-0.805-0.009-1.233-0.292-1.195-0.768c0.035-0.436,0.43-0.677,1.187-0.679
		c2.057-0.008,4.114-0.008,6.171,0c0.757,0.003,1.117,0.245,1.145,0.715c0.028,0.462-0.345,0.718-1.11,0.732
		C248.964,135.944,248.226,135.934,247.358,135.934z"/>
	<path class="st6" d="M279.127,135.934c-0.724,0-1.358,0-1.991,0c-0.203,0-0.406,0.01-0.607-0.003
		c-0.607-0.042-0.925-0.299-0.918-0.728c0.006-0.412,0.334-0.703,0.946-0.71c1.889-0.022,3.779-0.009,5.669-0.01
		c0.304,0,0.609-0.014,0.911,0.005c0.67,0.043,1.014,0.322,0.976,0.772c-0.036,0.426-0.337,0.644-0.97,0.671
		c-0.404,0.017-0.809,0.004-1.215,0.004c-0.4,0-1.326,0-1.326,0s0.003,0.568,0.002,0.825c-0.004,2.294-0.003,4.589-0.003,6.883
		c0,0.236,0.002,0.473-0.013,0.708c-0.024,0.399-0.273,0.606-0.639,0.67c-0.356,0.063-0.706-0.207-0.787-0.628
		c-0.05-0.262-0.033-0.537-0.034-0.807c-0.003-2.194-0.001-4.386-0.001-6.58C279.127,136.677,279.127,136.348,279.127,135.934z"/>
	<path class="st6" d="M88.715,143.56c0,0,0.608,0.013,0.869,0.014c1.112,0.005,2.225,0,3.337,0.004
		c0.235,0.001,1.258-0.03,1.258,0.773c0,0.803-0.942,0.695-1.143,0.696c-1.551,0.003-3.102,0.008-4.652-0.001
		c-0.961-0.005-1.228-0.23-1.236-1.175c-0.022-2.73-0.008-5.462-0.007-8.192c0-0.1,0-0.203,0.018-0.302
		c0.092-0.504,0.472-0.882,0.846-0.85c0.358,0.031,0.639,0.369,0.697,0.874c0.027,0.233,0.012,0.471,0.012,0.707
		c0.001,2.124,0,4.248,0,6.372C88.715,142.811,88.715,143.56,88.715,143.56z"/>
	<path class="st6" d="M133.077,140.963c0-0.383,0.001-0.766,0.001-1.15c0-0.009,0-0.019,0-0.029c0-0.009,0-0.019,0-0.029
		c0-0.383-0.001-0.766-0.001-1.15c0-1.055,0.002-2.11,0.003-3.165c0-0.148-0.026-0.273-0.068-0.389
		c-0.003-0.008-0.002-0.017-0.003-0.024c-0.006-0.019-0.018-0.03-0.024-0.048c-0.014-0.029-0.025-0.057-0.043-0.084
		c-0.081-0.162-0.199-0.273-0.35-0.322c-0.053-0.02-0.114-0.03-0.177-0.034c-0.017-0.001-0.03-0.008-0.048-0.007
		c-0.003,0-0.004-0.001-0.007-0.001c-0.024,0-0.045,0.005-0.068,0.007c-0.023-0.001-0.044-0.007-0.068-0.007
		c-0.003,0-0.004,0.001-0.007,0.001c-0.017,0-0.031,0.006-0.047,0.007c-0.064,0.004-0.124,0.014-0.177,0.034
		c-0.151,0.05-0.269,0.16-0.35,0.322c-0.017,0.026-0.03,0.056-0.043,0.084c-0.007,0.019-0.019,0.029-0.024,0.048
		c-0.003,0.008-0.002,0.017-0.003,0.024c-0.041,0.116-0.068,0.242-0.068,0.389c0.002,1.055,0.003,2.11,0.003,3.165
		c0,0.383-0.001,0.766-0.001,1.15c0,0.009,0,0.019,0,0.029c0,0.009,0,0.019,0,0.029c0,0.383,0.001,0.766,0.001,1.15
		c0,1.055-0.002,2.11-0.003,3.165c0,0.148,0.026,0.273,0.068,0.389c0.003,0.008,0.002,0.017,0.003,0.024
		c0.006,0.019,0.018,0.03,0.024,0.048c0.014,0.029,0.025,0.057,0.043,0.084c0.081,0.162,0.199,0.273,0.35,0.322
		c0.053,0.02,0.115,0.03,0.179,0.035c0.016,0.001,0.03,0.007,0.046,0.007c0.003,0,0.004,0.001,0.007,0.001
		c0.024,0,0.045-0.005,0.068-0.007c0.023,0.001,0.044,0.007,0.068,0.007c0.003,0,0.004-0.001,0.007-0.001
		c0.017,0,0.03-0.006,0.046-0.007c0.064-0.004,0.125-0.014,0.179-0.035c0.151-0.05,0.269-0.16,0.35-0.322
		c0.017-0.026,0.03-0.056,0.043-0.084c0.007-0.019,0.019-0.029,0.024-0.048c0.003-0.008,0.002-0.017,0.003-0.024
		c0.041-0.116,0.068-0.242,0.068-0.389C133.08,143.073,133.078,142.018,133.077,140.963z"/>
	<path class="st6" d="M138.412,143.539c0,0.269,0.005,0.54-0.019,0.809c-0.032,0.366-0.182,0.654-0.599,0.69
		c-0.422,0.037-0.777-0.246-0.851-0.688c-0.028-0.165-0.015-0.337-0.015-0.505c-0.001-2.733-0.001-5.465,0-8.198
		c0-0.135,0-0.27,0.006-0.404c0.015-0.352,0.22-0.593,0.54-0.638c0.235-0.033,0.551,0.01,0.725,0.151
		c0.282,0.227,0.484,0.556,0.706,0.852c1.518,2.021,3.033,4.046,4.55,6.067c0.14,0.187,0.293,0.363,0.541,0.668
		c0-0.483,0-0.832,0-1.183c0-1.754,0-3.509,0-5.263c0-0.203-0.013-0.406,0.006-0.607c0.041-0.437,0.403-0.796,0.765-0.777
		c0.344,0.019,0.657,0.339,0.695,0.739c0.019,0.201,0.007,0.404,0.007,0.607c0,2.632,0,5.263,0,7.894
		c0,0.135-0.007,0.27,0.001,0.405c0.02,0.362-0.051,0.674-0.43,0.825c-0.381,0.152-0.709,0.051-1.039-0.381
		c-1.023-1.339-2.031-2.691-3.045-4.037c-0.787-1.046-2.537-3.396-2.537-3.396S138.414,141.517,138.412,143.539z"/>
	<path class="st6" d="M199.399,140.963c0-0.383,0.001-0.766,0.001-1.15c0-0.009,0-0.019,0-0.029c0-0.009,0-0.019,0-0.029
		c0-0.383-0.001-0.766-0.001-1.15c0-1.055,0.002-2.11,0.003-3.165c0-0.148-0.026-0.273-0.068-0.389
		c-0.003-0.008-0.002-0.017-0.003-0.024c-0.006-0.019-0.018-0.03-0.024-0.048c-0.014-0.029-0.025-0.057-0.043-0.084
		c-0.081-0.162-0.199-0.273-0.35-0.322c-0.053-0.02-0.114-0.03-0.177-0.034c-0.017-0.001-0.03-0.008-0.048-0.007
		c-0.003,0-0.004-0.001-0.007-0.001c-0.024,0-0.045,0.005-0.068,0.007c-0.023-0.001-0.044-0.007-0.068-0.007
		c-0.003,0-0.004,0.001-0.007,0.001c-0.017,0-0.031,0.006-0.047,0.007c-0.064,0.004-0.124,0.014-0.177,0.034
		c-0.151,0.05-0.269,0.16-0.35,0.322c-0.017,0.026-0.03,0.056-0.043,0.084c-0.007,0.019-0.019,0.029-0.024,0.048
		c-0.003,0.008-0.002,0.017-0.003,0.024c-0.041,0.116-0.068,0.242-0.068,0.389c0.002,1.055,0.003,2.11,0.003,3.165
		c0,0.383-0.001,0.766-0.001,1.15c0,0.009,0,0.019,0,0.029c0,0.009,0,0.019,0,0.029c0,0.383,0.001,0.766,0.001,1.15
		c0,1.055-0.002,2.11-0.003,3.165c0,0.148,0.026,0.273,0.068,0.389c0.003,0.008,0.002,0.017,0.003,0.024
		c0.006,0.019,0.018,0.03,0.024,0.048c0.014,0.029,0.025,0.057,0.043,0.084c0.081,0.162,0.199,0.273,0.35,0.322
		c0.053,0.02,0.115,0.03,0.179,0.035c0.016,0.001,0.03,0.007,0.046,0.007c0.003,0,0.004,0.001,0.007,0.001
		c0.024,0,0.045-0.005,0.068-0.007c0.023,0.001,0.044,0.007,0.068,0.007c0.003,0,0.004-0.001,0.007-0.001
		c0.017,0,0.03-0.006,0.046-0.007c0.064-0.004,0.125-0.014,0.179-0.035c0.151-0.05,0.269-0.16,0.35-0.322
		c0.017-0.026,0.03-0.056,0.043-0.084c0.007-0.019,0.019-0.029,0.024-0.048c0.003-0.008,0.002-0.017,0.003-0.024
		c0.041-0.116,0.068-0.242,0.068-0.389C199.401,143.073,199.4,142.018,199.399,140.963z"/>
	<path class="st6" d="M204.726,143.539c0,0.269,0.005,0.54-0.019,0.809c-0.032,0.366-0.182,0.654-0.599,0.69
		c-0.422,0.037-0.777-0.246-0.851-0.688c-0.028-0.165-0.015-0.337-0.015-0.505c-0.001-2.733-0.001-5.465,0-8.198
		c0-0.135,0-0.27,0.006-0.404c0.015-0.352,0.22-0.593,0.54-0.638c0.235-0.033,0.551,0.01,0.725,0.151
		c0.282,0.227,0.484,0.556,0.706,0.852c1.518,2.021,3.033,4.046,4.55,6.067c0.14,0.187,0.293,0.363,0.541,0.668
		c0-0.483,0-0.832,0-1.183c0-1.754,0-3.509,0-5.263c0-0.203-0.013-0.406,0.006-0.607c0.041-0.437,0.403-0.796,0.765-0.777
		c0.344,0.019,0.657,0.339,0.695,0.739c0.019,0.201,0.007,0.404,0.007,0.607c0,2.632,0,5.263,0,7.894
		c0,0.135-0.007,0.27,0.001,0.405c0.02,0.362-0.051,0.674-0.43,0.825c-0.381,0.152-0.709,0.051-1.039-0.381
		c-1.023-1.339-2.031-2.691-3.045-4.037c-0.787-1.046-2.537-3.396-2.537-3.396S204.727,141.517,204.726,143.539z"/>
	<path class="st6" d="M298.08,142.804l-4.657,0.009c0,0-0.489,1.204-0.673,1.6c-0.256,0.55-0.608,0.733-1.023,0.579
		c-0.432-0.161-0.604-0.627-0.374-1.185c1.013-2.458,2.042-4.91,3.066-7.363c0.181-0.435,0.372-0.865,0.557-1.299
		c0.154-0.362,0.375-0.663,0.811-0.637c0.425,0.025,0.628,0.338,0.778,0.7c0.698,1.678,1.401,3.353,2.102,5.031
		c0.441,1.056,0.879,2.113,1.319,3.169c0.065,0.155,0.141,0.306,0.195,0.465c0.18,0.528,0.045,0.909-0.381,1.099
		c-0.419,0.187-0.788,0.065-1.043-0.49C298.521,143.967,298.08,142.804,298.08,142.804z M297.543,141.472l-1.791-4.424l-1.797,4.424
		H297.543z"/>
	<path class="st6" d="M288.444,140.963c0-0.383,0.001-0.766,0.001-1.15c0-0.009,0-0.019,0-0.029c0-0.009,0-0.019,0-0.029
		c0-0.383-0.001-0.766-0.001-1.15c0-1.055,0.002-2.11,0.003-3.165c0-0.148-0.026-0.273-0.068-0.389
		c-0.003-0.008-0.002-0.017-0.003-0.024c-0.006-0.019-0.018-0.03-0.024-0.048c-0.013-0.029-0.025-0.057-0.043-0.084
		c-0.081-0.162-0.199-0.273-0.35-0.322c-0.053-0.02-0.114-0.03-0.177-0.034c-0.017-0.001-0.03-0.008-0.048-0.007
		c-0.003,0-0.004-0.001-0.007-0.001c-0.024,0-0.045,0.005-0.068,0.007c-0.023-0.001-0.044-0.007-0.068-0.007
		c-0.003,0-0.004,0.001-0.007,0.001c-0.017,0-0.031,0.006-0.047,0.007c-0.064,0.004-0.124,0.014-0.177,0.034
		c-0.151,0.05-0.269,0.16-0.35,0.322c-0.017,0.026-0.03,0.056-0.043,0.084c-0.007,0.019-0.019,0.029-0.024,0.048
		c-0.003,0.008-0.002,0.017-0.003,0.024c-0.041,0.116-0.068,0.242-0.068,0.389c0.002,1.055,0.003,2.11,0.003,3.165
		c0,0.383-0.001,0.766-0.001,1.15c0,0.009,0,0.019,0,0.029c0,0.009,0,0.019,0,0.029c0,0.383,0.001,0.766,0.001,1.15
		c0,1.055-0.002,2.11-0.003,3.165c0,0.148,0.026,0.273,0.068,0.389c0.003,0.008,0.002,0.017,0.003,0.024
		c0.006,0.019,0.018,0.03,0.024,0.048c0.013,0.029,0.025,0.057,0.043,0.084c0.081,0.162,0.199,0.273,0.35,0.322
		c0.053,0.02,0.115,0.03,0.179,0.035c0.016,0.001,0.03,0.007,0.046,0.007c0.003,0,0.004,0.001,0.007,0.001
		c0.024,0,0.045-0.005,0.068-0.007c0.023,0.001,0.044,0.007,0.068,0.007c0.003,0,0.004-0.001,0.007-0.001
		c0.017,0,0.03-0.006,0.046-0.007c0.064-0.004,0.125-0.014,0.179-0.035c0.151-0.05,0.269-0.16,0.35-0.322
		c0.017-0.026,0.03-0.056,0.043-0.084c0.007-0.019,0.019-0.029,0.024-0.048c0.003-0.008,0.002-0.017,0.003-0.024
		c0.041-0.116,0.068-0.242,0.068-0.389C288.445,143.073,288.445,142.018,288.444,140.963z"/>
	<path class="st6" d="M265.811,143.539c0,0.269,0.005,0.54-0.019,0.809c-0.032,0.366-0.182,0.654-0.599,0.69
		c-0.422,0.037-0.777-0.246-0.851-0.688c-0.028-0.165-0.015-0.337-0.015-0.505c-0.001-2.733-0.001-5.465,0-8.198
		c0-0.135,0-0.27,0.006-0.404c0.015-0.352,0.22-0.593,0.54-0.638c0.235-0.033,0.551,0.01,0.725,0.151
		c0.282,0.227,0.484,0.556,0.706,0.852c1.518,2.021,3.033,4.046,4.55,6.067c0.14,0.187,0.293,0.363,0.541,0.668
		c0-0.483,0-0.832,0-1.183c0-1.754,0-3.509,0-5.263c0-0.203-0.013-0.406,0.006-0.607c0.04-0.437,0.403-0.796,0.765-0.777
		c0.344,0.019,0.657,0.339,0.695,0.739c0.019,0.201,0.007,0.404,0.007,0.607c0,2.632,0,5.263,0,7.894
		c0,0.135-0.007,0.27,0.001,0.405c0.02,0.362-0.051,0.674-0.43,0.825c-0.381,0.152-0.709,0.051-1.039-0.381
		c-1.023-1.339-2.031-2.691-3.045-4.037c-0.787-1.046-2.537-3.396-2.537-3.396S265.812,141.517,265.811,143.539z"/>
	<path class="st6" d="M304.556,143.56c0,0,0.608,0.013,0.869,0.014c1.112,0.005,2.225,0,3.337,0.004
		c0.235,0.001,1.258-0.03,1.258,0.773c0,0.803-0.942,0.695-1.143,0.696c-1.551,0.003-3.102,0.008-4.652-0.001
		c-0.961-0.005-1.228-0.23-1.236-1.175c-0.022-2.73-0.008-5.462-0.007-8.192c0-0.1,0-0.203,0.018-0.302
		c0.092-0.504,0.472-0.882,0.846-0.85c0.358,0.031,0.639,0.369,0.697,0.874c0.027,0.233,0.012,0.471,0.012,0.707
		c0.001,2.124,0,4.248,0,6.372C304.556,142.811,304.556,143.56,304.556,143.56z"/>
</g>
</svg>
