<?xml version="1.0" encoding="utf-8"?>
<!-- Generator: Adobe Illustrator 23.0.4, SVG Export Plug-In . SVG Version: 6.00 Build 0)  -->
<svg version="1.1" id="Layer_1" xmlns="http://www.w3.org/2000/svg" xmlns:xlink="http://www.w3.org/1999/xlink" x="0px" y="0px"
	 viewBox="0 0 360 96" style="enable-background:new 0 0 360 96;" xml:space="preserve">
<style type="text/css">
	.st0{fill:#CBAD95;}
	.st1{fill:#443E39;}
	.st2{fill:#E4A2AC;}
	.st3{fill:#E7BA2D;}
	.st4{opacity:0.25;}
	.st5{fill:#FFFFFF;}
	.st6{fill:#078366;}
	.st7{opacity:0.4;}
	.st8{fill:#310940;}
</style>
<g>
	<g>
		<g>
			<path class="st0" d="M246.413,67.521c0,0-6.191,6.169-9.12,9.166c-2.394,2.448-2.306,2.449-4.793,0.013
				c-2.487-2.436-9.166-9.12-9.166-9.12l0.134-14.799l22.824-0.139L246.413,67.521z"/>
		</g>
		<g>
			<path d="M246.558,67.58c-1.775,1.948-3.645,3.882-5.53,5.8c-0.937,0.964-1.899,1.91-2.847,2.864l-1.419,1.428
				c-0.241,0.237-0.484,0.474-0.765,0.696c-0.073,0.054-0.142,0.111-0.219,0.163l-0.249,0.147c-0.093,0.042-0.194,0.077-0.293,0.112
				c-0.109,0.017-0.223,0.038-0.332,0.037c-0.228-0.011-0.434-0.081-0.608-0.171c-0.083-0.049-0.168-0.094-0.246-0.145l-0.218-0.161
				c-0.279-0.22-0.526-0.452-0.77-0.686c-0.486-0.466-0.953-0.937-1.421-1.414l-2.814-2.845c-1.882-1.891-3.734-3.811-5.602-5.716
				l0,0l-0.046-0.046l0.001-0.066l0.135-14.798l0.002-0.154l0.153-0.001l22.824-0.139l0.156,0l0.001,0.155L246.558,67.58z
				 M246.269,67.463l-0.132-14.82l0.157,0.154l-22.825,0.14l0.155-0.154l-0.134,14.799l-0.045-0.112l0,0
				c1.914,1.858,3.843,3.7,5.743,5.571l2.858,2.798l1.431,1.391c0.239,0.225,0.48,0.447,0.727,0.639
				c0.245,0.196,0.502,0.339,0.714,0.346c0.206,0.014,0.458-0.136,0.697-0.332c0.24-0.192,0.476-0.421,0.709-0.652l1.394-1.417
				c0.933-0.937,1.852-1.882,2.797-2.807C242.39,71.143,244.282,69.294,246.269,67.463z"/>
		</g>
	</g>
	<g>
		<g>
			<g>
				<path class="st1" d="M237.401,74.171c-0.699,0.001-1.603,1.609-2.589,1.619c-1.058,0.011-1.866-1.658-2.57-1.656
					c-0.315,0-0.758,0.601-1.153,1.176c0.543,0.536,1.025,1.014,1.409,1.389c2.487,2.436,2.4,2.436,4.793-0.013
					c0.403-0.413,0.871-0.888,1.374-1.396C238.227,74.746,237.728,74.169,237.401,74.171z"/>
			</g>
			<g>
				<path d="M237.402,74.327c-0.232,0.013-0.503,0.241-0.738,0.449c-0.241,0.216-0.479,0.452-0.745,0.667
					c-0.267,0.207-0.561,0.425-0.942,0.487c-0.385,0.059-0.76-0.091-1.041-0.293c-0.288-0.2-0.53-0.439-0.764-0.672
					c-0.234-0.23-0.465-0.471-0.716-0.611c-0.061-0.027-0.124-0.056-0.178-0.058c-0.033-0.007-0.048-0.005-0.069-0.001
					c-0.022,0.005-0.049,0.018-0.076,0.033c-0.113,0.067-0.226,0.177-0.33,0.294c-0.21,0.237-0.397,0.506-0.584,0.776l-0.001,0.001
					l-0.018-0.199c0.616,0.571,1.225,1.148,1.833,1.729c0.306,0.285,0.604,0.581,0.916,0.842c0.307,0.26,0.645,0.508,0.957,0.524
					c0.307,0.014,0.641-0.236,0.945-0.495c0.309-0.264,0.599-0.568,0.9-0.858c0.593-0.594,1.198-1.179,1.804-1.761l-0.011,0.207l0,0
					c-0.18-0.222-0.361-0.441-0.553-0.642c-0.096-0.1-0.196-0.195-0.299-0.276C237.591,74.39,237.472,74.326,237.402,74.327z
					 M237.401,74.015c0.223,0.013,0.355,0.119,0.48,0.21c0.123,0.096,0.231,0.2,0.335,0.306c0.206,0.213,0.39,0.438,0.572,0.662l0,0
					l0.088,0.102l-0.097,0.106c-0.57,0.618-1.147,1.227-1.727,1.835c-0.292,0.306-0.585,0.606-0.91,0.895
					c-0.077,0.073-0.164,0.143-0.253,0.211c-0.085,0.07-0.178,0.135-0.281,0.193c-0.191,0.127-0.45,0.213-0.714,0.211
					c-0.132-0.013-0.264-0.03-0.375-0.081c-0.122-0.038-0.22-0.099-0.32-0.159c-0.196-0.121-0.369-0.259-0.531-0.4
					c-0.329-0.283-0.627-0.578-0.925-0.877c-0.595-0.594-1.178-1.199-1.76-1.807l-0.092-0.096l0.073-0.102l0.001-0.001
					c0.188-0.274,0.38-0.549,0.608-0.807c0.116-0.128,0.238-0.255,0.411-0.358c0.046-0.024,0.094-0.048,0.153-0.063
					c0.059-0.015,0.128-0.017,0.176-0.007c0.112,0.008,0.202,0.05,0.291,0.09c0.33,0.186,0.554,0.436,0.793,0.666
					c0.234,0.232,0.466,0.459,0.721,0.637c0.252,0.182,0.541,0.283,0.816,0.242c0.279-0.041,0.547-0.226,0.794-0.422
					c0.249-0.2,0.481-0.432,0.733-0.656c0.128-0.111,0.253-0.224,0.404-0.324C237.01,74.124,237.176,74.021,237.401,74.015z"/>
			</g>
		</g>
	</g>
	<g>
		<g>
			<path class="st2" d="M246.168,18.15l0.027,10.704c0.004,1.728-1.406,3.145-3.134,3.151l-16.761,0.043
				c-1.728,0.004-3.145-1.406-3.151-3.134l-0.027-10.704c-0.004-1.728,1.406-3.145,3.134-3.151l16.761-0.043
				C244.746,15.011,246.163,16.422,246.168,18.15z"/>
		</g>
		<g>
			<path d="M246.426,18.15l-0.036,9.333l-0.005,1.167c0.004,0.387-0.027,0.821-0.157,1.208c-0.248,0.787-0.802,1.468-1.516,1.877
				c-0.355,0.206-0.75,0.343-1.157,0.405c-0.416,0.061-0.804,0.036-1.191,0.041l-2.333-0.001l-9.332,0.001
				c-1.56-0.005-3.1,0.015-4.677-0.012c-0.809-0.066-1.582-0.452-2.129-1.047c-0.552-0.591-0.873-1.394-0.876-2.206l-0.035-9.332
				l-0.005-1.166c-0.007-0.387,0.015-0.812,0.14-1.199c0.233-0.785,0.779-1.465,1.481-1.894c0.351-0.216,0.745-0.365,1.154-0.437
				c0.102-0.021,0.205-0.036,0.309-0.04c0.104-0.008,0.21-0.017,0.304-0.018l0.583-0.015l2.333-0.058
				c1.555-0.026,3.11-0.045,4.665-0.045c1.555-0.009,3.111-0.009,4.665-0.004l2.333,0.007l1.167,0.005l0.584,0.002l0.291,0.001
				l0.316,0.016c0.848,0.074,1.657,0.48,2.224,1.105C246.103,16.466,246.43,17.306,246.426,18.15z M245.91,18.15
				c-0.008-0.715-0.293-1.417-0.783-1.933c-0.485-0.52-1.165-0.848-1.869-0.899l-0.267-0.009l-0.292,0.003l-0.583,0.006
				l-1.166,0.012l-2.333,0.019c-1.555,0.014-3.11,0.021-4.666,0.02c-1.555,0.007-3.111-0.004-4.666-0.021l-2.334-0.046
				c-0.391-0.003-0.783-0.033-1.132,0.012c-0.358,0.046-0.711,0.16-1.03,0.336c-0.644,0.349-1.144,0.96-1.374,1.662
				c-0.119,0.356-0.154,0.716-0.149,1.106l0.002,1.167l0.013,9.332c0.001,0.746,0.294,1.486,0.803,2.032
				c0.505,0.551,1.221,0.899,1.963,0.958c1.533,0.018,3.104-0.007,4.654-0.009l9.331-0.047l2.333-0.014
				c0.39-0.007,0.783,0.013,1.138-0.044c0.362-0.056,0.713-0.182,1.029-0.367c0.634-0.369,1.125-0.979,1.339-1.679
				c0.112-0.356,0.139-0.706,0.131-1.095l-0.01-1.166L245.91,18.15z"/>
		</g>
	</g>
	<g>
		<path class="st3" d="M223.437,67.276c0.006,2.417,3.276-7.268,4.982-7.273c1.706-0.005,3.674,6.336,6.237,6.311
			c2.39-0.024,4.577-6.217,6.271-6.221c1.695-0.005,5.318,8.816,5.314,7.126c-0.005-1.872-0.077-30.318-0.077-30.318l-5.169,0.013
			h-0.275l-12.229,0.031l-0.25,0l-4.883,0.012C223.36,36.957,223.43,64.604,223.437,67.276z"/>
	</g>
	<g class="st4">
		<polygon class="st5" points="223.607,37.01 228.574,37.043 228.376,59.712 223.404,67.674 		"/>
	</g>
	<g>
		<rect x="228.303" y="36.811" transform="matrix(1 -0.0025 0.0025 1 -0.1193 0.5668)" width="0.311" height="23.155"/>
	</g>
	<g>
		<rect x="240.795" y="36.792" transform="matrix(1 -0.0023 0.0023 1 -0.1125 0.5637)" width="0.311" height="23.187"/>
	</g>
	<g>
		<g>
			
				<rect x="223.178" y="23.981" transform="matrix(1 -0.0025 0.0025 1 -0.0741 0.5822)" class="st6" width="23.068" height="12.369"/>
		</g>
		<g>
			<path d="M246.337,23.849l0.215,12.478l0.006,0.293l-0.297,0.001l-23.068,0.026l-0.263,0l0.002-0.26l0.074-12.369l0.002-0.155
				l0.154,0L246.337,23.849z M246.118,24.069l-22.958,0.104l0.155-0.156l0.137,12.369l-0.261-0.26l23.068-0.091l-0.291,0.294
				L246.118,24.069z"/>
		</g>
	</g>
	<g>
		<g>
			<g>
				<polygon class="st6" points="237.348,44.203 237.34,40.859 234.991,39.192 232.65,40.871 232.659,44.216 235.008,45.883 				"/>
			</g>
			<g>
				<path d="M237.23,44.144l-0.023-3.284l0.056,0.109l-2.436-1.544l0.331-0.001l-2.428,1.556l0.056-0.108l0.009,3.345l-0.056-0.109
					l2.444,1.531l-0.347,0.001L237.23,44.144z M237.467,44.265l-2.285,1.861l-0.173,0.141l-0.175-0.139l-2.253-1.802l-0.057-0.045
					l0-0.063l-0.009-3.345l0-0.065l0.056-0.045l2.252-1.802l0.165-0.132l0.166,0.131l2.262,1.789l0.057,0.045l-0.001,0.064
					L237.467,44.265z"/>
			</g>
		</g>
		<g>
			<g>
				<path class="st5" d="M236.099,44.227l-2.108,0.005l-0.001-0.563l0.968-1.263c0.239-0.337,0.358-0.605,0.357-0.803
					c0-0.161-0.029-0.283-0.086-0.367c-0.057-0.084-0.14-0.125-0.248-0.125c-0.106,0-0.192,0.057-0.259,0.168
					c-0.066,0.112-0.099,0.252-0.098,0.419l-0.701,0.002c0-0.229,0.045-0.441,0.137-0.635c0.092-0.195,0.22-0.346,0.385-0.455
					c0.164-0.109,0.349-0.165,0.552-0.165c0.326-0.001,0.578,0.092,0.754,0.277s0.265,0.453,0.267,0.802
					c0.001,0.147-0.021,0.29-0.065,0.429c-0.044,0.14-0.112,0.285-0.205,0.438c-0.093,0.153-0.243,0.358-0.449,0.614l-0.389,0.557
					l1.188-0.003L236.099,44.227z"/>
			</g>
		</g>
	</g>
	<g class="st4">
		
			<rect x="220.532" y="28.98" transform="matrix(0.0057 -1 1 0.0057 195.2338 257.478)" class="st5" width="13.108" height="3.177"/>
	</g>
	<g>
		<rect x="223.135" y="33.631" transform="matrix(1 -0.0025 0.0025 1 -0.0841 0.5823)" class="st3" width="23.229" height="1.103"/>
		<path d="M246.432,33.519l0.004,1.259l-0.078,0.001l-23.306,0.059l-0.004-1.259l0.078-0.001L246.432,33.519z M246.279,34.622
			l-0.002-0.947l-23.073,0.059l0.002,0.947L246.279,34.622z"/>
	</g>
	<g>
		<rect x="223.115" y="25.572" transform="matrix(1 -0.0025 0.0025 1 -0.0641 0.5823)" class="st3" width="23.229" height="1.103"/>
		<path d="M246.412,25.461l0.004,1.259l-0.078,0.001L223.03,26.78l-0.004-1.259l0.078-0.001L246.412,25.461z M246.26,26.565
			l-0.002-0.947l-23.073,0.059l0.002,0.947L246.26,26.565z"/>
	</g>
	<g>
		<path d="M224.774,32.694c-0.102-0.434-0.156-0.867-0.191-1.301c-0.039-0.434-0.051-0.868-0.054-1.302
			c0.003-0.434,0.013-0.868,0.05-1.303c0.035-0.434,0.084-0.868,0.182-1.303c0.099,0.434,0.151,0.868,0.189,1.302
			c0.039,0.434,0.052,0.868,0.057,1.302c-0.001,0.434-0.011,0.868-0.048,1.302C224.925,31.826,224.873,32.26,224.774,32.694z"/>
	</g>
	<g>
		<path d="M244.776,32.643c-0.102-0.434-0.156-0.867-0.191-1.301c-0.039-0.434-0.051-0.868-0.054-1.302
			c0.003-0.434,0.013-0.868,0.05-1.303c0.035-0.434,0.084-0.868,0.182-1.303c0.099,0.434,0.151,0.868,0.189,1.302
			c0.039,0.434,0.052,0.868,0.057,1.302c-0.001,0.434-0.011,0.868-0.048,1.302C244.927,31.775,244.875,32.209,244.776,32.643z"/>
	</g>
	<g>
		<path d="M227.275,32.688c-0.102-0.434-0.156-0.867-0.191-1.301c-0.039-0.434-0.051-0.868-0.054-1.302
			c0.003-0.434,0.013-0.868,0.05-1.303c0.035-0.434,0.084-0.868,0.182-1.303c0.099,0.434,0.151,0.868,0.189,1.302
			c0.039,0.434,0.052,0.868,0.057,1.302c-0.001,0.434-0.011,0.868-0.048,1.302C227.425,31.82,227.374,32.254,227.275,32.688z"/>
	</g>
	<g>
		<path d="M229.775,32.681c-0.102-0.434-0.156-0.867-0.191-1.301c-0.039-0.434-0.051-0.868-0.054-1.302
			c0.003-0.434,0.013-0.868,0.05-1.303c0.035-0.434,0.084-0.868,0.182-1.303c0.099,0.434,0.151,0.868,0.189,1.302
			c0.039,0.434,0.052,0.868,0.057,1.302c-0.001,0.434-0.011,0.868-0.048,1.302C229.926,31.813,229.874,32.247,229.775,32.681z"/>
	</g>
	<g>
		<path d="M232.274,32.675c-0.102-0.434-0.156-0.867-0.191-1.301c-0.039-0.434-0.051-0.868-0.054-1.302
			c0.003-0.434,0.013-0.868,0.05-1.303c0.035-0.434,0.084-0.868,0.182-1.303c0.099,0.434,0.151,0.868,0.189,1.302
			c0.039,0.434,0.052,0.868,0.057,1.302c-0.001,0.434-0.011,0.868-0.048,1.302C232.425,31.807,232.374,32.241,232.274,32.675z"/>
	</g>
	<g>
		<path d="M234.775,32.669c-0.102-0.434-0.156-0.867-0.191-1.301c-0.039-0.434-0.051-0.868-0.054-1.302
			c0.003-0.434,0.013-0.868,0.05-1.303c0.035-0.434,0.084-0.868,0.182-1.303c0.099,0.434,0.151,0.868,0.189,1.302
			c0.039,0.434,0.052,0.868,0.057,1.302c-0.001,0.434-0.011,0.868-0.048,1.302C234.926,31.801,234.875,32.235,234.775,32.669z"/>
	</g>
	<g>
		<path d="M237.275,32.662c-0.102-0.434-0.156-0.867-0.191-1.301c-0.039-0.434-0.051-0.868-0.054-1.302
			c0.003-0.434,0.013-0.868,0.05-1.303c0.035-0.434,0.084-0.868,0.182-1.303c0.099,0.434,0.151,0.868,0.189,1.302
			c0.039,0.434,0.052,0.868,0.057,1.302c-0.001,0.434-0.011,0.868-0.048,1.302C237.427,31.794,237.375,32.228,237.275,32.662z"/>
	</g>
	<g>
		<path d="M239.775,32.657c-0.102-0.434-0.156-0.867-0.191-1.301c-0.039-0.434-0.051-0.868-0.054-1.302
			c0.003-0.434,0.013-0.868,0.05-1.303c0.035-0.434,0.084-0.868,0.182-1.303c0.099,0.434,0.151,0.868,0.189,1.302
			c0.039,0.434,0.052,0.868,0.057,1.302c-0.001,0.434-0.011,0.868-0.048,1.302C239.926,31.788,239.875,32.221,239.775,32.657z"/>
	</g>
	<g>
		<path d="M242.276,32.65c-0.102-0.434-0.156-0.867-0.191-1.301c-0.039-0.434-0.051-0.868-0.054-1.302
			c0.003-0.434,0.013-0.868,0.05-1.303c0.035-0.434,0.084-0.868,0.182-1.303c0.099,0.434,0.151,0.868,0.189,1.302
			c0.039,0.434,0.052,0.868,0.057,1.302c-0.001,0.434-0.011,0.868-0.048,1.302C242.427,31.782,242.375,32.216,242.276,32.65z"/>
	</g>
	<g>
		<path d="M246.337,23.849l0.215,12.478l0.006,0.293l-0.297,0.001l-23.068,0.026l-0.263,0l0.002-0.26l0.074-12.369l0.001-0.15
			l0.154-0.006c1.932-0.065,3.874-0.1,5.817-0.124c1.946-0.032,3.888-0.024,5.834-0.034c1.943,0,3.878,0.019,5.807,0.037
			l2.876,0.045L246.337,23.849z M246.118,24.069l-2.924,0.078l-2.89,0.059c-1.915,0.027-3.825,0.056-5.727,0.066
			c-1.898-0.001-3.802,0.018-5.7-0.005c-1.901-0.015-3.803-0.041-5.717-0.095l0.155-0.156l0.137,12.369l-0.261-0.26l23.068-0.091
			l-0.291,0.294L246.118,24.069z"/>
	</g>
	<g>
		<path d="M223.649,67.275c0.001,0.079,0.007,0.163,0.02,0.216c-0.003,0.023,0.037,0.041-0.034-0.02
			c-0.044-0.031-0.114-0.025-0.124-0.017c-0.015,0.006-0.011,0.005-0.006,0.001c0.071-0.064,0.176-0.228,0.257-0.368
			c0.172-0.293,0.318-0.612,0.466-0.929c0.298-0.634,0.558-1.292,0.842-1.939c0.28-0.649,0.566-1.3,0.879-1.946
			c0.313-0.647,0.651-1.282,1.113-1.898c0.121-0.153,0.249-0.304,0.407-0.452c0.16-0.145,0.337-0.302,0.642-0.404
			c0.355-0.11,0.666-0.016,0.893,0.089c0.234,0.11,0.406,0.25,0.562,0.391c0.308,0.281,0.534,0.584,0.749,0.885
			c0.215,0.301,0.406,0.607,0.587,0.915c0.365,0.613,0.71,1.224,1.075,1.814c0.368,0.585,0.744,1.17,1.214,1.645
			c0.453,0.477,1.043,0.852,1.618,0.766c0.284-0.042,0.566-0.194,0.824-0.387c0.256-0.198,0.492-0.439,0.713-0.696
			c0.871-1.052,1.53-2.294,2.321-3.493c0.201-0.301,0.416-0.595,0.659-0.887c0.249-0.289,0.516-0.578,0.937-0.814
			c0.218-0.111,0.477-0.214,0.833-0.167c0.33,0.063,0.527,0.207,0.703,0.338c0.341,0.271,0.581,0.565,0.806,0.864
			c0.449,0.594,0.793,1.227,1.14,1.851c0.341,0.627,0.659,1.262,0.973,1.895c0.32,0.63,0.642,1.257,0.989,1.862
			c0.086,0.152,0.175,0.3,0.268,0.441c0.087,0.135,0.201,0.295,0.27,0.354c0.004,0.005,0.01,0.006-0.014-0.006
			c-0.011-0.005-0.036-0.013-0.074-0.012c-0.043-0.002-0.097,0.023-0.126,0.047c-0.06,0.055-0.053,0.074-0.057,0.077
			c-0.001,0.003,0.002-0.007,0.003-0.019c0.003-0.044,0.001-0.156,0.002-0.238l-0.002-0.529l-0.01-4.229l-0.024-8.458l-0.064-8.459
			c-0.036-2.819-0.062-5.639-0.114-8.458l0-0.002l0.4,0.398l-22.804,0.091l-0.002,0l0.433-0.435
			c-0.055,2.527-0.071,5.053-0.108,7.58l-0.045,7.58c-0.023,2.526-0.003,5.053-0.004,7.58L223.649,67.275z M223.226,67.276
			l-0.027-7.579c-0.013-2.527-0.006-5.054-0.043-7.58l-0.083-7.58c-0.05-2.526-0.079-5.053-0.147-7.579l-0.011-0.424l0.444-0.01
			l0.002,0l22.805-0.024l0.4-0.001l0.001,0.398l0,0.002c-0.039,2.82-0.049,5.639-0.071,8.459l-0.021,8.458l0.019,8.459l0.013,4.229
			l0.002,0.529c-0.002,0.094,0.005,0.158-0.004,0.29c-0.003,0.032-0.007,0.066-0.02,0.111c-0.017,0.045-0.026,0.106-0.119,0.191
			c-0.045,0.04-0.123,0.069-0.187,0.07c-0.06,0.001-0.107-0.012-0.139-0.025c-0.066-0.027-0.095-0.053-0.125-0.076
			c-0.194-0.176-0.27-0.32-0.38-0.475c-0.1-0.154-0.192-0.307-0.285-0.46l-1.08-1.827c-0.739-1.191-1.494-2.397-2.347-3.431
			c-0.213-0.251-0.438-0.496-0.653-0.66c-0.104-0.08-0.215-0.128-0.235-0.126c0.006,0.001-0.025,0.001-0.057,0.007
			c-0.033,0.005-0.078,0.025-0.126,0.048c-0.202,0.1-0.436,0.328-0.654,0.562c-0.221,0.238-0.432,0.506-0.642,0.778
			c-0.854,1.087-1.631,2.293-2.645,3.346c-0.253,0.265-0.525,0.518-0.836,0.738c-0.308,0.22-0.665,0.417-1.083,0.473
			c-0.419,0.058-0.839-0.036-1.19-0.215c-0.351-0.178-0.655-0.412-0.93-0.662c-1.081-1.02-1.847-2.243-2.664-3.374
			c-0.408-0.555-0.812-1.14-1.248-1.535c-0.107-0.095-0.215-0.174-0.302-0.212c-0.087-0.042-0.147-0.033-0.132-0.035
			c-0.033,0.005-0.144,0.07-0.242,0.16c-0.102,0.091-0.207,0.205-0.308,0.328c-0.411,0.493-0.777,1.087-1.143,1.673
			c-0.362,0.593-0.705,1.205-1.044,1.82c-0.336,0.619-0.68,1.235-1.011,1.862c-0.169,0.313-0.342,0.623-0.529,0.936
			c-0.105,0.159-0.179,0.306-0.37,0.478c-0.03,0.023-0.063,0.046-0.119,0.067c-0.052,0.023-0.17,0.031-0.251-0.026
			c-0.078-0.053-0.102-0.107-0.121-0.145c-0.019-0.041-0.026-0.072-0.033-0.104C223.226,67.467,223.226,67.373,223.226,67.276z"/>
	</g>
	<g class="st7">
		<path class="st8" d="M223.143,23.173l0.015,0.845l17.686-0.093c-0.001,10.643,0.172,24.7,0.072,36.027
			c0,0.147,1.652,1.508,1.652,1.508l2.173,3.768l1.574,2.402l-0.136-50.296l-1.503-2l-3.824-0.374c0,0-0.005,3.256-0.007,8.091
			L223.143,23.173z"/>
	</g>
	<g class="st4">
		<path class="st5" d="M233.148,74.738l2.168,3.909c0,0-0.223,0.323-0.746-0.179c-0.523-0.502-2.981-3.911-2.981-3.911l0.683-0.516
			L233.148,74.738z"/>
	</g>
	<g>
		<g>
			<path d="M237.402,74.327c-0.232,0.013-0.503,0.241-0.738,0.449c-0.241,0.216-0.479,0.452-0.745,0.667
				c-0.267,0.207-0.561,0.425-0.942,0.487c-0.385,0.059-0.76-0.091-1.041-0.293c-0.288-0.2-0.53-0.439-0.764-0.672
				c-0.234-0.23-0.465-0.471-0.716-0.611c-0.061-0.027-0.124-0.056-0.178-0.058c-0.033-0.007-0.048-0.005-0.069-0.001
				c-0.022,0.005-0.049,0.018-0.076,0.033c-0.113,0.067-0.226,0.177-0.33,0.294c-0.21,0.237-0.397,0.506-0.584,0.776l-0.001,0.001
				l-0.018-0.199c0.616,0.571,1.225,1.148,1.833,1.729c0.306,0.285,0.604,0.581,0.916,0.842c0.307,0.26,0.645,0.508,0.957,0.524
				c0.307,0.014,0.641-0.236,0.945-0.495c0.309-0.264,0.599-0.568,0.9-0.858c0.593-0.594,1.198-1.179,1.804-1.761l-0.011,0.207l0,0
				c-0.18-0.222-0.361-0.441-0.553-0.642c-0.096-0.1-0.196-0.195-0.299-0.276C237.591,74.39,237.472,74.326,237.402,74.327z
				 M237.401,74.015c0.223,0.013,0.355,0.119,0.48,0.21c0.123,0.096,0.231,0.2,0.335,0.306c0.206,0.213,0.39,0.438,0.572,0.662l0,0
				l0.088,0.102l-0.097,0.106c-0.57,0.618-1.147,1.227-1.727,1.835c-0.292,0.306-0.585,0.606-0.91,0.895
				c-0.077,0.073-0.164,0.143-0.253,0.211c-0.085,0.07-0.178,0.135-0.281,0.193c-0.191,0.127-0.45,0.213-0.714,0.211
				c-0.132-0.013-0.264-0.03-0.375-0.081c-0.122-0.038-0.22-0.099-0.32-0.159c-0.196-0.121-0.369-0.259-0.531-0.4
				c-0.329-0.283-0.627-0.578-0.925-0.877c-0.595-0.594-1.178-1.199-1.76-1.807l-0.092-0.096l0.073-0.102l0.001-0.001
				c0.188-0.274,0.38-0.549,0.608-0.807c0.116-0.128,0.238-0.255,0.411-0.358c0.046-0.024,0.094-0.048,0.153-0.063
				c0.059-0.015,0.128-0.017,0.176-0.007c0.112,0.008,0.202,0.05,0.291,0.09c0.33,0.186,0.554,0.436,0.793,0.666
				c0.234,0.232,0.466,0.459,0.721,0.637c0.252,0.182,0.541,0.283,0.816,0.242c0.279-0.041,0.547-0.226,0.794-0.422
				c0.249-0.2,0.481-0.432,0.733-0.656c0.128-0.111,0.253-0.224,0.404-0.324C237.01,74.124,237.176,74.021,237.401,74.015z"/>
		</g>
	</g>
	<g>
		<path class="st6" d="M235.431,51.313c-0.085-0.027-0.14-0.144-0.212-0.218c-0.05-0.052-0.104-0.099-0.156-0.148
			c-0.041,0.06-0.102,0.115-0.115,0.18c-0.026,0.133-0.035,0.271-0.033,0.407c0.004,0.299,0.02,0.597,0.033,0.953
			c0.099-0.069,0.165-0.091,0.171-0.124c0.029-0.181,0.158-0.17,0.278-0.145c0.345,0.069,0.706,0.441,0.728,0.811
			c0.015,0.27-0.125,0.401-0.395,0.362c-0.201-0.029-0.402-0.08-0.597-0.14c-0.479-0.152-0.9-0.377-1.151-0.855
			c-0.271-0.519-0.019-1.069,0.629-1.145c-0.05-0.144-0.054-0.314-0.139-0.378c-0.204-0.152-0.444-0.256-0.671-0.377
			c-0.118-0.063-0.164,0.006-0.148,0.106c0.008,0.059,0.057,0.127,0.107,0.162c0.169,0.121,0.154,0.242,0.026,0.38
			c-0.036,0.039-0.075,0.076-0.099,0.122c-0.371,0.689-0.132,1.871,0.465,2.39c0.393,0.341,0.829,0.54,1.358,0.55
			c0.448,0.008,0.963-0.33,1.058-0.755c0.103-0.463,0.009-0.917-0.199-1.323C236.176,51.748,235.864,51.453,235.431,51.313z"/>
		<path class="st6" d="M235.218,63.665c-0.459-0.244-0.939-0.151-1.276,0.233c-0.086,0.098-0.173,0.237-0.176,0.358
			c-0.012,0.502,0,1.001,0.007,1.477c0.329,0.211,0.683,0.343,1.036,0.291c0.255-0.037,0.503-0.17,0.739-0.333
			c-0.348-0.143-0.697-0.286-1.046-0.428c-0.154-0.063-0.318-0.111-0.451-0.206c-0.077-0.055-0.113-0.183-0.14-0.286
			c-0.02-0.077,0.008-0.165,0.011-0.249c0.005-0.157,0.075-0.222,0.241-0.231c0.592-0.037,1.097,0.174,1.559,0.52
			c0.092,0.149,0.248,0.258,0.344,0.405c0.093-0.094,0.194-0.173,0.282-0.274c0.026-0.031,0.049-0.067,0.074-0.099
			c-0.024-0.205-0.129-0.447-0.279-0.579C235.868,64.025,235.542,63.838,235.218,63.665z"/>
		<path class="st6" d="M233.586,55.145c-0.113,0.587,0.022,1.114,0.441,1.556c0.318,0.338,0.86,0.693,1.269,0.759
			c0.694,0.114,1.288-0.251,1.347-0.959c0.095-1.125-1.133-2.113-2.013-2.138C234.106,54.349,233.685,54.631,233.586,55.145z
			 M234.081,55.112c0.443-0.074,0.842,0.069,1.221,0.266c0.247,0.128,0.471,0.298,0.667,0.425c0.1,0.161,0.182,0.271,0.24,0.394
			c0.117,0.252-0.025,0.476-0.317,0.49c-0.42,0.019-0.812-0.109-1.183-0.291c-0.188-0.093-0.348-0.239-0.53-0.348
			c-0.228-0.136-0.296-0.357-0.342-0.592C233.793,55.23,233.856,55.15,234.081,55.112z"/>
		<path class="st6" d="M234.304,57.461c-0.216-0.08-0.577,0.158-0.581,0.384c-0.008,0.577-0.008,1.154-0.006,1.73
			c0.001,0.097,0.028,0.193,0.044,0.29c0.016-0.001,0.033-0.001,0.049-0.003c0.032-0.062,0.063-0.124,0.113-0.22
			c0.19,0.081,0.368,0.157,0.547,0.233c0.433,0.183,0.872,0.351,1.294,0.555c0.217,0.105,0.515,0.155,0.538,0.511
			c0.127-0.456,0.087-0.903,0.113-1.346c-0.023-0.013-0.047-0.027-0.07-0.04c-0.079,0.081-0.158,0.164-0.236,0.246
			c-0.008,0.026-0.016,0.051-0.024,0.077c-0.295-0.145-0.59-0.288-0.883-0.435c-0.164-0.083-0.134-0.174,0.009-0.236
			c0.173-0.076,0.356-0.131,0.533-0.197c0.324-0.12,0.646-0.242,0.973-0.365c-0.12-0.294-0.215-0.557-0.336-0.808
			c-0.04-0.082-0.147-0.131-0.223-0.195c-0.035,0.077-0.097,0.152-0.102,0.232c-0.012,0.192-0.112,0.282-0.285,0.336
			c-0.152,0.047-0.295,0.119-0.444,0.177c-0.081,0.031-0.164,0.052-0.246,0.078c-0.063-0.162-0.12-0.294-0.168-0.431
			C234.809,57.731,234.582,57.565,234.304,57.461z M234.787,59.075c0.038,0.15-0.071,0.195-0.192,0.151
			c-0.19-0.07-0.374-0.155-0.558-0.244c-0.257-0.125-0.191-0.35-0.15-0.554c0.015-0.078,0.094-0.211,0.131-0.206
			c0.18,0.022,0.355,0.08,0.533,0.126C234.642,58.62,234.729,58.844,234.787,59.075z"/>
		<path class="st6" d="M235.637,61.131c0.142,0.235,0.498,0.297,0.524,0.624c0.024,0.287,0.048,0.573,0.076,0.898
			c-0.151-0.009-0.266,0.001-0.37-0.027c-0.182-0.051-0.353-0.142-0.536-0.185c-0.19-0.043-0.253-0.159-0.248-0.327
			c0.006-0.156,0.033-0.312,0.054-0.485c0.087,0.009,0.154,0.022,0.22,0.017c0.053-0.002,0.105-0.027,0.156-0.042
			c-0.022-0.052-0.031-0.135-0.068-0.151c-0.283-0.113-0.571-0.212-0.857-0.316c-0.017,0.024-0.035,0.048-0.052,0.072
			c0.043,0.054,0.077,0.127,0.132,0.16c0.205,0.115,0.302,0.5,0.157,0.695c-0.023,0.032-0.099,0.056-0.136,0.042
			c-0.235-0.086-0.47-0.171-0.694-0.28c-0.059-0.029-0.097-0.138-0.11-0.217c-0.017-0.096-0.001-0.197,0.003-0.296
			c0.022-0.505,0.023-0.504,0.526-0.504c0.022,0,0.044-0.008,0.108-0.022c-0.024-0.082-0.028-0.212-0.074-0.228
			c-0.278-0.102-0.564-0.179-0.883-0.274c0.065,0.154,0.14,0.251,0.144,0.351c0.016,0.478,0.015,0.958,0.015,1.436
			c0,0.292-0.009,0.585-0.014,0.877c0.022,0.012,0.044,0.026,0.066,0.038c0.079-0.253,0.226-0.248,0.423-0.171
			c0.493,0.191,0.989,0.379,1.494,0.532c0.289,0.088,0.461,0.225,0.477,0.539c0.002,0.053,0.088,0.102,0.181,0.203
			c0.027-0.191,0.056-0.302,0.057-0.412c0.003-0.372-0.005-0.745-0.009-1.117c-0.004-0.342-0.002-0.684-0.014-1.026
			c-0.002-0.068-0.032-0.171-0.08-0.195c-0.207-0.103-0.426-0.183-0.64-0.272C235.659,61.09,235.649,61.11,235.637,61.131z"/>
		<path class="st6" d="M233.725,49.413c0.089,0.015,0.211,0.002,0.288,0.054c0.263,0.175,0.514,0.369,0.766,0.562
			c0.342,0.262,0.692,0.515,1.014,0.798c0.168,0.148,0.43,0.221,0.458,0.504c0.004,0.045,0.048,0.089,0.073,0.133
			c0.035-0.044,0.099-0.087,0.101-0.131c0.013-0.349,0.016-0.698,0.011-1.047c-0.001-0.055-0.055-0.11-0.086-0.165
			c-0.042,0.045-0.083,0.09-0.124,0.136c-0.065,0.07-0.15,0.211-0.192,0.2c-0.152-0.044-0.361-0.104-0.419-0.221
			c-0.092-0.19-0.092-0.43-0.113-0.651c-0.024-0.238,0.03-0.302,0.265-0.274c0.127,0.016,0.249,0.095,0.364,0.159
			c0.062,0.035,0.106,0.1,0.182,0.175c0.037-0.065,0.064-0.09,0.064-0.116c0.014-0.379,0.03-0.759,0.029-1.139
			c0-0.061-0.086-0.122-0.132-0.184c-0.044,0.053-0.12,0.103-0.126,0.16c-0.022,0.237-0.174,0.279-0.366,0.27
			c-0.356-0.016-0.711-0.051-1.066-0.054c-0.392-0.004-0.785,0.018-1.147,0.029C233.612,48.826,233.67,49.127,233.725,49.413z
			 M234.744,49.228c0.166,0.013,0.331,0.047,0.491,0.087c0.032,0.008,0.062,0.078,0.068,0.123c0.013,0.082,0.016,0.169,0.005,0.251
			c-0.009,0.07-0.027,0.176-0.071,0.194c-0.063,0.026-0.168,0.01-0.228-0.028c-0.138-0.092-0.26-0.209-0.426-0.345
			c-0.006-0.042-0.046-0.129-0.022-0.195C234.579,49.268,234.684,49.224,234.744,49.228z"/>
	</g>
</g>
<g>
	<polygon points="35.544,18.565 27.35,18.565 27.35,69.781 49.791,69.781 49.791,61.587 35.544,61.587 	"/>
	<polygon points="51.682,69.781 74.123,69.781 74.123,61.587 59.876,61.587 59.876,47.847 72.289,47.847 72.289,40.076 
		59.876,40.076 59.876,26.336 74.123,26.336 74.123,18.565 51.682,18.565 	"/>
	<path d="M92.904,19.172c-1.54-0.684-3.258-1.03-5.105-1.03c-2.181,0-4.092,0.384-5.681,1.142c-1.589,0.758-2.917,1.789-3.94,3.055
		c-1.074,1.27-1.89,2.8-2.424,4.549c-0.529,1.73-0.797,3.583-0.797,5.506c0,3.216,0.552,5.938,1.641,8.089
		c1.108,2.193,3.295,3.97,6.498,5.28l5.144,2.114c0.87,0.368,1.572,0.713,2.085,1.024c0.472,0.288,0.857,0.662,1.126,1.082
		c0.249,0.457,0.419,1.083,0.506,1.86c0.092,0.828,0.138,1.9,0.138,3.189c0,1.112-0.035,2.132-0.104,3.03
		c-0.064,0.838-0.268,1.562-0.605,2.152c-0.331,0.578-0.783,1.01-1.382,1.32c-0.608,0.314-1.492,0.474-2.627,0.474
		c-1.68,0-2.828-0.452-3.511-1.383c-0.708-0.965-1.067-2.063-1.067-3.266v-2.757h-8.194v3.18c0,1.756,0.335,3.401,0.995,4.893
		c0.656,1.484,1.557,2.805,2.678,3.925c1.123,1.124,2.484,2.015,4.044,2.647c1.557,0.633,3.258,0.954,5.055,0.954
		c2.365,0,4.406-0.396,6.067-1.176c1.667-0.784,3.035-1.88,4.068-3.258c0.977-1.32,1.694-2.936,2.13-4.803
		c0.43-1.838,0.648-3.858,0.648-6.004c0-1.841-0.096-3.512-0.287-4.967c-0.194-1.477-0.564-2.818-1.11-4.01
		c-0.593-1.135-1.417-2.147-2.451-3.009c-1.024-0.853-2.377-1.605-4.014-2.232l-5.5-2.186c-0.902-0.36-1.616-0.721-2.122-1.075
		c-0.474-0.329-0.837-0.722-1.08-1.169c-0.249-0.456-0.408-0.986-0.471-1.577c-0.068-0.637-0.103-1.45-0.103-2.415
		c0-0.813,0.068-1.602,0.203-2.344c0.13-0.711,0.369-1.354,0.7-1.893c0.333-0.5,0.779-0.924,1.327-1.262
		c0.528-0.325,1.247-0.49,2.136-0.49c1.668,0,2.811,0.514,3.495,1.57c0.719,1.112,1.083,2.456,1.083,3.996v2.122h8.194v-4.026
		c0-3.034-1.138-5.761-3.391-8.112C95.777,20.766,94.433,19.854,92.904,19.172z"/>
	<path d="M119.774,19.172c-1.54-0.684-3.258-1.03-5.105-1.03c-2.181,0-4.092,0.384-5.681,1.142c-1.589,0.758-2.917,1.789-3.94,3.055
		c-1.074,1.27-1.89,2.8-2.424,4.549c-0.529,1.73-0.797,3.583-0.797,5.506c0,3.216,0.552,5.938,1.641,8.089
		c1.108,2.193,3.295,3.97,6.498,5.28l5.144,2.114c0.87,0.368,1.572,0.713,2.085,1.024c0.472,0.288,0.857,0.662,1.126,1.082
		c0.249,0.457,0.419,1.083,0.506,1.86c0.092,0.828,0.138,1.9,0.138,3.189c0,1.112-0.035,2.132-0.104,3.03
		c-0.064,0.838-0.268,1.562-0.605,2.152c-0.331,0.578-0.783,1.01-1.382,1.32c-0.608,0.314-1.492,0.474-2.627,0.474
		c-1.68,0-2.829-0.452-3.511-1.383c-0.708-0.965-1.067-2.063-1.067-3.266v-2.757h-8.194v3.18c0,1.756,0.335,3.401,0.995,4.893
		c0.656,1.484,1.557,2.805,2.678,3.925c1.123,1.124,2.484,2.015,4.044,2.647c1.557,0.633,3.258,0.954,5.055,0.954
		c2.365,0,4.406-0.396,6.067-1.176c1.667-0.784,3.035-1.88,4.068-3.258c0.977-1.32,1.694-2.936,2.13-4.803
		c0.43-1.838,0.648-3.858,0.648-6.004c0-1.841-0.096-3.512-0.287-4.967c-0.194-1.477-0.564-2.818-1.11-4.01
		c-0.593-1.135-1.417-2.147-2.451-3.009c-1.024-0.853-2.377-1.605-4.014-2.232l-5.5-2.186c-0.902-0.36-1.616-0.721-2.122-1.075
		c-0.474-0.329-0.837-0.722-1.08-1.169c-0.249-0.456-0.408-0.986-0.471-1.577c-0.068-0.637-0.103-1.45-0.103-2.415
		c0-0.813,0.068-1.602,0.203-2.344c0.13-0.711,0.369-1.354,0.7-1.893c0.333-0.5,0.779-0.924,1.327-1.262
		c0.528-0.325,1.247-0.49,2.136-0.49c1.668,0,2.811,0.514,3.495,1.57c0.719,1.112,1.083,2.456,1.083,3.996v2.122h8.194v-4.026
		c0-3.034-1.138-5.761-3.391-8.112C122.648,20.766,121.304,19.854,119.774,19.172z"/>
	<path d="M150.482,21.306l-0.017-0.014c-1.214-1.02-2.583-1.809-4.066-2.344c-2.967-1.07-6.051-1.069-9.014,0
		c-1.486,0.536-2.833,1.327-4.004,2.352c-1.224,1.077-2.215,2.438-2.946,4.047c-0.731,1.61-1.103,3.483-1.103,5.567v26.519
		c0,2.181,0.372,4.079,1.105,5.643c0.733,1.565,1.727,2.88,2.936,3.895c1.174,1.076,2.524,1.894,4.012,2.43
		c1.482,0.534,2.999,0.805,4.507,0.805c1.507,0,3.023-0.271,4.507-0.805c1.485-0.535,2.857-1.351,4.074-2.422
		c1.176-1.028,2.143-2.342,2.874-3.902c0.733-1.564,1.105-3.463,1.105-5.643V30.914c0-2.083-0.371-3.957-1.103-5.567
		C152.621,23.742,151.656,22.382,150.482,21.306z M141.892,26.336c1.204,0,2.217,0.365,3.096,1.114
		c0.843,0.721,1.271,1.886,1.271,3.464v26.519c0,1.578-0.427,2.743-1.271,3.464c-0.878,0.75-1.891,1.114-3.096,1.114
		c-1.206,0-2.218-0.364-3.096-1.115c-0.843-0.719-1.27-1.884-1.27-3.463V30.914c0-1.579,0.427-2.744,1.271-3.463
		C139.675,26.701,140.688,26.336,141.892,26.336z"/>
	<polygon points="175.669,46.842 165.518,18.565 157.755,18.565 157.755,69.781 165.949,69.781 165.949,41.54 176.242,69.781 
		183.863,69.781 183.863,18.565 175.669,18.565 	"/>
	<path d="M211.861,34.023v-4.026c0-3.034-1.138-5.761-3.391-8.112c-1.12-1.119-2.464-2.032-3.994-2.713
		c-1.539-0.684-3.256-1.03-5.104-1.03c-2.181,0-4.092,0.384-5.681,1.142c-1.59,0.759-2.918,1.79-3.94,3.055
		c-1.074,1.27-1.89,2.8-2.423,4.549c-0.53,1.729-0.798,3.582-0.798,5.507c0,3.215,0.552,5.937,1.641,8.089
		c1.109,2.193,3.296,3.97,6.499,5.28l5.144,2.114c0.871,0.368,1.573,0.713,2.085,1.024c0.471,0.287,0.855,0.661,1.126,1.082
		c0.248,0.454,0.418,1.081,0.506,1.86c0.091,0.833,0.138,1.906,0.138,3.189c0,1.11-0.035,2.13-0.104,3.029
		c-0.065,0.839-0.269,1.563-0.605,2.153c-0.331,0.578-0.783,1.01-1.382,1.32c-0.608,0.314-1.492,0.474-2.627,0.474
		c-1.68,0-2.829-0.452-3.512-1.383c-0.708-0.965-1.066-2.063-1.066-3.266v-2.757h-8.194v3.18c0,1.756,0.335,3.401,0.995,4.893
		c0.656,1.484,1.557,2.805,2.678,3.925c1.123,1.124,2.484,2.015,4.044,2.647c1.558,0.633,3.259,0.954,5.055,0.954
		c2.365,0,4.406-0.396,6.066-1.176c1.667-0.784,3.035-1.88,4.068-3.258c0.977-1.318,1.693-2.935,2.131-4.803
		c0.429-1.838,0.647-3.857,0.647-6.004c0-1.839-0.096-3.509-0.286-4.967c-0.194-1.478-0.564-2.819-1.111-4.009
		c-0.591-1.134-1.416-2.146-2.451-3.01c-1.024-0.853-2.377-1.605-4.014-2.232l-5.5-2.186c-0.901-0.359-1.615-0.721-2.122-1.075
		c-0.474-0.329-0.837-0.722-1.081-1.169c-0.25-0.457-0.408-0.987-0.471-1.577c-0.068-0.637-0.103-1.45-0.103-2.415
		c0-0.812,0.068-1.602,0.203-2.344c0.13-0.712,0.369-1.354,0.701-1.893c0.334-0.501,0.78-0.925,1.328-1.262
		c0.528-0.325,1.247-0.49,2.135-0.49c1.668,0,2.811,0.514,3.494,1.57c0.719,1.111,1.084,2.455,1.084,3.996v2.122H211.861z"/>
</g>
</svg>
