<?xml version="1.0" encoding="utf-8"?>
<!-- Generator: Adobe Illustrator 25.2.1, SVG Export Plug-In . SVG Version: 6.00 Build 0)  -->
<svg version="1.1" xmlns="http://www.w3.org/2000/svg" xmlns:xlink="http://www.w3.org/1999/xlink" x="0px" y="0px"
	 viewBox="0 0 402 99" style="enable-background:new 0 0 402 99;" xml:space="preserve">
<style type="text/css">
	.st0{display:none;}
	.st1{display:inline;fill:#F47DBD;}
	.st2{fill:#FA1306;}
</style>
<g id="Layer_2" class="st0">
	
		<image style="display:inline;overflow:visible;" width="402" height="99" xlink:href="pblock_back_2021.jpg"  transform="matrix(1 0 0 1 0 0.4187)">
	</image>
</g>
<g id="Layer_3" class="st0">
	<rect x="-14.006" y="-8.103" class="st1" width="425.653" height="117.351"/>
</g>
<g id="Layer_1">
	<g>
		<g>
			<g>
				<path class="st2" d="M24.569,29.287h19.354L24.569,76.423V29.287z M57.108,29.287h19.596v46.53L57.108,29.287z M50.737,47.311
					l10.685,28.266H54.81l-4.556-8.951h-7.258L50.737,47.311z"/>
			</g>
			<g>
				<path d="M171.535,50.386c0.623-0.133,1.198-0.287,1.783-0.376c2.149-0.326,4.255-0.171,6.243,0.762
					c2.306,1.082,3.883,2.862,4.617,5.295c0.977,3.236,0.66,6.369-1.093,9.293c-1.093,1.823-2.69,3.103-4.614,3.977
					c-2.065,0.939-4.244,1.243-6.495,1.138c-1.665-0.077-3.297-0.336-4.893-0.815c-0.364-0.109-0.434-0.199-0.434-0.567
					c0-9.08,0-18.16,0-27.24c0-0.349,0.042-0.393,0.39-0.393c1.333-0.001,2.666-0.001,3.999,0c0.44,0,0.464,0.021,0.466,0.471
					c0.011,2.716,0.021,5.433,0.031,8.149C171.535,50.179,171.535,50.278,171.535,50.386z M171.537,60.305
					c0,1.86,0.005,3.721-0.006,5.581c-0.001,0.244,0.062,0.353,0.311,0.397c0.976,0.174,1.953,0.177,2.923-0.01
					c1.992-0.383,3.511-1.427,4.361-3.303c0.813-1.793,0.839-3.658,0.275-5.52c-0.43-1.42-1.328-2.474-2.731-3.024
					c-1.637-0.642-3.295-0.538-4.952-0.056c-0.191,0.056-0.181,0.183-0.181,0.328C171.538,56.567,171.537,58.436,171.537,60.305z"/>
				<path d="M134.809,49.969c0-0.102,0-0.2,0-0.299c0-2.599,0-5.197,0-7.796c0-0.393,0.022-0.415,0.411-0.415
					c1.35,0,2.699,0,4.049,0c0.357,0,0.358,0.001,0.358,0.369c0,8.005-0.004,16.011,0.006,24.016
					c0.001,0.853,0.084,1.706,0.14,2.558c0.023,0.351,0,0.42-0.297,0.548c-2.524,1.083-5.162,1.586-7.904,1.535
					c-1.755-0.032-3.447-0.371-5.018-1.181c-2.207-1.137-3.678-2.907-4.379-5.283c-0.72-2.438-0.78-4.893,0.086-7.311
					c0.989-2.762,2.892-4.686,5.573-5.842c2.019-0.871,4.14-1.125,6.32-0.956C134.363,49.931,134.571,49.949,134.809,49.969z
					 M134.809,60.104c0-1.886-0.003-3.773,0.005-5.659c0.001-0.195-0.059-0.277-0.245-0.326c-1.12-0.297-2.246-0.267-3.36-0.009
					c-1.905,0.441-3.322,1.516-4.089,3.348c-0.657,1.569-0.622,3.192-0.234,4.812c0.326,1.364,1.036,2.493,2.272,3.213
					c1.732,1.008,3.584,1.018,5.479,0.582c0.188-0.043,0.173-0.165,0.173-0.301C134.809,63.877,134.809,61.991,134.809,60.104z"/>
				<path d="M107.885,63.122c-1.509,0-3.018,0.005-4.527-0.005c-0.216-0.001-0.299,0.072-0.365,0.271
					c-0.692,2.098-1.394,4.192-2.094,6.287c-0.121,0.362-0.198,0.419-0.582,0.42c-1.249,0.002-2.498,0.001-3.748,0.001
					c-0.445,0-0.532-0.124-0.38-0.555c0.505-1.437,1.011-2.873,1.516-4.31c2.248-6.394,4.494-12.789,6.745-19.182
					c0.223-0.633,0.283-1.29,0.324-1.951c0.024-0.39,0.052-0.424,0.448-0.424c1.744,0,3.488,0.005,5.232-0.005
					c0.265-0.002,0.388,0.074,0.482,0.339c3.045,8.49,6.102,16.977,9.156,25.464c0.203,0.565,0.163,0.624-0.428,0.624
					c-1.358,0-2.716,0-4.075,0c-0.393,0-0.479-0.061-0.606-0.426c-0.73-2.102-1.463-4.204-2.185-6.309
					c-0.063-0.184-0.146-0.243-0.336-0.242C110.937,63.125,109.411,63.122,107.885,63.122z M111.406,58.754
					c-1.19-3.701-2.37-7.37-3.564-11.08c-0.978,3.766-2.284,7.391-3.471,11.08C106.74,58.754,109.06,58.754,111.406,58.754z"/>
				<path d="M162.841,60.44c-0.009,1.577-0.338,3.362-1.197,5.016c-1.433,2.758-3.69,4.407-6.767,4.898
					c-1.951,0.311-3.863,0.139-5.699-0.609c-2.091-0.852-3.613-2.341-4.538-4.378c-1.485-3.266-1.6-6.608-0.16-9.913
					c1.302-2.989,3.618-4.817,6.834-5.41c2.301-0.424,4.546-0.199,6.64,0.923c1.985,1.064,3.31,2.711,4.114,4.795
					C162.615,57.178,162.836,58.653,162.841,60.44z M148.4,60.27c0.012,0.234,0.018,0.469,0.038,0.703
					c0.1,1.164,0.362,2.281,0.99,3.286c0.896,1.432,2.199,2.164,3.88,2.14c1.744-0.025,2.991-0.899,3.794-2.425
					c0.578-1.099,0.783-2.289,0.801-3.517c0.019-1.336-0.14-2.643-0.712-3.869c-0.598-1.282-1.53-2.193-2.94-2.524
					c-2.231-0.524-4.139,0.4-5.127,2.47C148.559,57.714,148.37,58.972,148.4,60.27z"/>
				<path d="M192.484,61.28c0.008,2.119,1.253,3.889,3.186,4.609c1.18,0.44,2.4,0.518,3.637,0.459
					c1.451-0.069,2.854-0.364,4.196-0.93c0.214-0.09,0.274-0.009,0.274,0.191c-0.001,1.098-0.002,2.196,0,3.294
					c0,0.231-0.11,0.367-0.315,0.463c-1.228,0.573-2.521,0.9-3.865,1.022c-1.228,0.112-2.456,0.157-3.689,0.018
					c-3.756-0.423-6.611-2.474-7.767-6.234c-0.897-2.919-0.768-5.819,0.394-8.655c0.945-2.307,2.536-3.998,4.848-4.972
					c1.222-0.515,2.509-0.699,3.83-0.682c1.485,0.019,2.896,0.332,4.181,1.089c1.787,1.053,2.872,2.652,3.456,4.61
					c0.499,1.676,0.51,3.386,0.287,5.105c-0.047,0.366-0.135,0.446-0.502,0.469c-0.802,0.05-1.605,0.113-2.409,0.118
					c-3.143,0.02-6.286,0.019-9.43,0.026C192.699,61.281,192.6,61.28,192.484,61.28z M192.417,57.808
					c0.127,0.012,0.176,0.021,0.224,0.021c2.522,0.001,5.045,0.006,7.567-0.004c0.505-0.002,0.529,0.102,0.466-0.553
					c-0.241-2.49-2.144-3.898-4.659-3.485c-1.523,0.25-2.521,1.175-3.118,2.555C192.698,56.804,192.58,57.301,192.417,57.808z"/>
			</g>
		</g>
		<g>
			<path d="M232.159,66.307c0-0.969-0.34-1.736-1.021-2.3c-0.68-0.565-1.925-1.101-3.734-1.609
				c-1.809-0.508-3.131-1.063-3.963-1.663c-1.185-0.849-1.777-1.961-1.777-3.338c0-1.337,0.55-2.424,1.651-3.26
				s2.508-1.255,4.221-1.255c1.161,0,2.2,0.224,3.116,0.672c0.917,0.449,1.627,1.073,2.132,1.873c0.504,0.8,0.756,1.693,0.756,2.678
				h-1.489c0-1.196-0.408-2.158-1.225-2.885c-0.816-0.727-1.913-1.09-3.29-1.09c-1.337,0-2.401,0.299-3.194,0.896
				c-0.793,0.597-1.189,1.377-1.189,2.339c0,0.89,0.356,1.616,1.069,2.177c0.713,0.561,1.853,1.057,3.422,1.485
				c1.568,0.429,2.757,0.874,3.566,1.334c0.808,0.46,1.417,1.01,1.825,1.651c0.409,0.641,0.613,1.397,0.613,2.269
				c0,1.377-0.551,2.482-1.652,3.315c-1.101,0.833-2.551,1.249-4.352,1.249c-1.233,0-2.364-0.221-3.392-0.66
				c-1.029-0.44-1.809-1.057-2.342-1.849c-0.532-0.793-0.798-1.701-0.798-2.726h1.477c0,1.233,0.461,2.206,1.381,2.918
				c0.921,0.713,2.145,1.069,3.675,1.069c1.361,0,2.453-0.301,3.278-0.901C231.747,68.096,232.159,67.299,232.159,66.307z"/>
			<path d="M239.581,64.062l-1.645,1.585v4.96h-1.442V52.162h1.442v11.803l1.357-1.464l4.971-4.888h1.813l-5.512,5.476l5.992,7.516
				h-1.717L239.581,64.062z"/>
			<path d="M248.454,53.861c0-0.27,0.088-0.499,0.265-0.686c0.176-0.187,0.416-0.28,0.72-0.28c0.304,0,0.547,0.094,0.726,0.28
				c0.181,0.187,0.27,0.416,0.27,0.686s-0.09,0.497-0.27,0.68c-0.18,0.183-0.422,0.275-0.726,0.275c-0.304,0-0.544-0.092-0.72-0.275
				C248.542,54.358,248.454,54.132,248.454,53.861z M250.147,70.606h-1.441V57.613h1.441V70.606z"/>
			<path d="M255.658,70.606h-1.441V52.162h1.441V70.606z"/>
			<path d="M261.17,70.606h-1.441V52.162h1.441V70.606z"/>
			<path d="M272.853,67.304c0-0.713-0.286-1.285-0.859-1.717c-0.572-0.432-1.435-0.771-2.587-1.015
				c-1.153-0.244-2.048-0.524-2.684-0.84c-0.637-0.316-1.109-0.703-1.417-1.159c-0.308-0.457-0.463-1.009-0.463-1.657
				c0-1.025,0.428-1.871,1.285-2.54c0.856-0.668,1.953-1.003,3.29-1.003c1.449,0,2.612,0.359,3.489,1.075
				c0.877,0.717,1.315,1.652,1.315,2.804h-1.441c0-0.76-0.319-1.392-0.954-1.897c-0.637-0.504-1.439-0.757-2.408-0.757
				c-0.945,0-1.703,0.21-2.275,0.631c-0.573,0.42-0.859,0.966-0.859,1.638c0,0.649,0.239,1.151,0.715,1.507
				c0.476,0.356,1.344,0.683,2.605,0.979c1.261,0.296,2.206,0.612,2.834,0.949c0.628,0.336,1.094,0.74,1.399,1.213
				c0.304,0.472,0.456,1.044,0.456,1.717c0,1.097-0.442,1.974-1.326,2.63c-0.885,0.656-2.04,0.985-3.465,0.985
				c-1.513,0-2.739-0.366-3.68-1.099c-0.941-0.732-1.411-1.659-1.411-2.779h1.441c0.056,0.84,0.41,1.495,1.063,1.963
				c0.652,0.468,1.514,0.703,2.587,0.703c1.001,0,1.809-0.221,2.425-0.66C272.545,68.533,272.853,67.976,272.853,67.304z"/>
		</g>
	</g>
</g>
</svg>
