<?xml version="1.0" encoding="utf-8"?>
<!-- Generator: Adobe Illustrator 25.2.1, SVG Export Plug-In . SVG Version: 6.00 Build 0)  -->
<svg version="1.1" xmlns="http://www.w3.org/2000/svg" xmlns:xlink="http://www.w3.org/1999/xlink" x="0px" y="0px"
	 viewBox="0 0 402 99" style="enable-background:new 0 0 402 99;" xml:space="preserve">
<style type="text/css">
	.st0{display:none;}
	.st1{display:inline;fill:#F47DBD;}
</style>
<g id="Layer_2" class="st0">
	
		<image style="display:inline;overflow:visible;" width="402" height="99" xlink:href="pblock_back_2021.jpg"  transform="matrix(1 0 0 1 0 0.4187)">
	</image>
</g>
<g id="Layer_3" class="st0">
	<rect x="-14.006" y="-8.103" class="st1" width="425.653" height="117.351"/>
</g>
<g id="Layer_1">
	<g>
		<g>
			<path d="M67.277,57.244c-0.764-1.526-1.176-3.158-1.302-4.864c-0.141-1.896-0.011-3.76,0.568-5.58
				c0.668-2.099,1.853-3.87,3.487-5.33c0.765-0.684,1.605-1.285,2.447-1.953c-0.173-0.238-0.365-0.526-0.581-0.795
				c-1.211-1.509-2.676-2.711-4.4-3.59c-1.373-0.7-2.833-1.147-4.35-1.391c-0.738-0.119-1.484-0.206-2.23-0.246
				c-1.753-0.095-3.443,0.274-5.093,0.817c-1.646,0.541-3.278,1.128-4.905,1.723c-0.897,0.328-1.773,0.351-2.668,0.027
				c-1.292-0.468-2.587-0.926-3.881-1.387c-1.256-0.448-2.533-0.821-3.861-0.977c-1.142-0.134-2.277-0.022-3.402,0.176
				c-2.323,0.407-4.387,1.401-6.249,2.823c-1.594,1.217-2.86,2.727-3.886,4.447c-0.747,1.252-1.325,2.577-1.74,3.971
				c-0.483,1.627-0.815,3.285-0.889,4.987c-0.006,0.138-0.036,0.275-0.055,0.413c0,0.923,0,1.845,0,2.768
				c0.038,0.397,0.061,0.796,0.115,1.19c0.155,1.124,0.307,2.249,0.489,3.37c0.355,2.184,0.983,4.296,1.752,6.365
				c1.032,2.778,2.319,5.432,4.016,7.872c1.079,1.551,2.16,3.102,3.464,4.48c0.815,0.862,1.681,1.668,2.695,2.29
				c1.133,0.695,2.351,1.123,3.708,1.029c1.042-0.072,2.036-0.349,3.013-0.7c1.146-0.411,2.278-0.866,3.44-1.226
				c1.301-0.403,2.644-0.641,4.014-0.537c1.196,0.091,2.365,0.358,3.496,0.76c0.958,0.341,1.896,0.741,2.861,1.062
				c0.964,0.321,1.952,0.566,2.979,0.579c1.78,0.024,3.309-0.644,4.683-1.724c1.351-1.062,2.419-2.385,3.449-3.745
				c1.556-2.054,2.941-4.216,4.008-6.564c0.58-1.278,1.054-2.603,1.578-3.907c0.017-0.044,0.046-0.083,0.069-0.124
				c0-0.04,0-0.08,0-0.12c-1.251-0.487-2.343-1.233-3.37-2.081C69.294,60.356,68.119,58.926,67.277,57.244z"/>
			<path d="M53.634,32.126c1.599-0.698,2.942-1.749,4.103-3.036c0.975-1.08,1.785-2.279,2.417-3.59
				c0.59-1.222,0.98-2.505,1.148-3.859c0.119-0.967,0.148-1.93,0.055-2.898c-0.14,0-0.281,0-0.421,0
				c-0.164,0.03-0.328,0.066-0.493,0.09c-1.317,0.189-2.528,0.695-3.717,1.255c-2.702,1.272-4.686,3.306-6.144,5.878
				c-0.763,1.346-1.232,2.799-1.415,4.335c-0.099,0.832-0.135,1.67,0,2.53C50.723,32.954,52.211,32.747,53.634,32.126z"/>
			<path d="M138.61,44.532c-3.916-0.085-6.707,1.708-8.576,5.065c-0.102,0.182-0.201,0.366-0.301,0.548
				c-0.055-0.014-0.11-0.029-0.165-0.043c0-1.709,0-3.418,0-5.136c-1.029,0-1.966,0-2.92,0c0,11.095,0,22.156,0,33.204
				c1.065,0,2.08,0,3.142,0c0-4.46,0-8.866,0-13.272c0.222,0.19,0.346,0.412,0.465,0.637c1.033,1.942,2.538,3.401,4.605,4.164
				c5.001,1.846,10.56-0.122,12.882-5.717c1.792-4.319,1.825-8.77-0.008-13.067C146.058,46.989,143.082,44.629,138.61,44.532z
				 M143.841,64.482c-2.918,4.23-9.928,4.285-12.591-0.849c-2.078-4.006-2.096-8.15-0.096-12.192
				c1.364-2.756,3.72-4.183,6.829-4.123c3.093,0.06,5.264,1.642,6.631,4.364c0.905,1.802,1.16,3.749,1.179,6.072
				C145.756,59.941,145.32,62.339,143.841,64.482z"/>
			<path d="M164.679,44.516c-3.812,0.032-6.526,1.782-8.354,5.043c-0.111,0.198-0.225,0.395-0.338,0.593
				c-0.052-0.017-0.104-0.035-0.156-0.052c0-1.71,0-3.421,0-5.149c-0.998,0-1.921,0-2.899,0c0,11.112,0,22.175,0,33.222
				c1.047,0,2.044,0,3.106,0c0-4.458,0-8.867,0-13.275c0.24,0.172,0.346,0.378,0.453,0.585c0.975,1.871,2.405,3.291,4.354,4.1
				c4.795,1.99,10.741,0.266,13.164-5.607c1.777-4.306,1.777-8.709,0.021-13.018C172.496,47.193,169.144,44.479,164.679,44.516z
				 M170.137,64.44c-2.915,4.283-9.956,4.34-12.624-0.817c-2.06-3.981-2.083-8.111-0.112-12.138c1.351-2.76,3.692-4.213,6.803-4.167
				c3.146,0.046,5.346,1.652,6.71,4.433c0.877,1.788,1.152,3.709,1.139,5.683C172.037,59.939,171.587,62.309,170.137,64.44z"/>
			<path d="M118.645,56.493c-2.588-6.916-5.184-13.83-7.762-20.751c-0.145-0.388-0.314-0.558-0.745-0.533
				c-0.677,0.038-1.361,0.048-2.037-0.002c-0.526-0.039-0.744,0.166-0.922,0.643c-3.855,10.319-7.727,20.632-11.594,30.947
				c-0.387,1.031-0.765,2.065-1.16,3.136c1.185,0,2.295,0,3.424,0c0.087-0.212,0.179-0.415,0.255-0.624
				c1.127-3.104,2.268-6.204,3.361-9.32c0.193-0.551,0.454-0.694,1.013-0.691c4.365,0.024,8.731,0.033,13.096-0.007
				c0.671-0.006,0.91,0.235,1.114,0.811c1.1,3.114,2.232,6.217,3.377,9.315c0.079,0.214,0.343,0.499,0.534,0.509
				c0.984,0.051,1.973,0.024,3.049,0.024c-0.069-0.215-0.107-0.351-0.156-0.483C121.876,65.141,120.263,60.816,118.645,56.493z
				 M102.712,56.487c2.094-5.768,4.169-11.482,6.244-17.197c0.063-0.009,0.125-0.018,0.188-0.027
				c2.075,5.713,4.15,11.426,6.257,17.224C111.111,56.487,106.958,56.487,102.712,56.487z"/>
			<path d="M204.951,63.428c-0.433,0.799-0.879,1.662-1.54,2.254c-2.385,2.141-5.235,2.355-8.161,1.491
				c-3.755-1.109-5.612-5.006-5.381-9.002c6.254,0,12.476,0,18.83,0c-0.124-1.519-0.163-2.959-0.374-4.373
				c-0.343-2.299-1.245-4.382-2.843-6.105c-2.031-2.191-4.587-3.141-7.557-3.172c-4.708-0.049-8.479,2.398-10.193,6.754
				c-1.491,3.789-1.533,7.657-0.382,11.528c0.737,2.478,2.173,4.509,4.392,5.904c2.664,1.674,5.591,1.922,8.618,1.419
				c2.736-0.454,4.982-1.756,6.603-4.034c0.664-0.934,1.123-1.968,1.27-3.19c-0.876,0-1.676,0.023-2.475-0.009
				C205.323,62.874,205.159,63.045,204.951,63.428z M197.302,47.276c5.377-0.219,8.054,4.052,8.04,8.378c-5.172,0-10.301,0-15.427,0
				C189.45,51.623,193.154,47.444,197.302,47.276z"/>
			<path d="M179.391,69.908c1.053,0,2.069,0,3.085,0c0-11.572,0-23.104,0-34.651c-1.044,0-2.042,0-3.085,0
				C179.391,46.855,179.391,58.372,179.391,69.908z"/>
		</g>
		<g>
			<path d="M236.159,65.768c0-0.969-0.34-1.736-1.021-2.3c-0.68-0.565-1.925-1.101-3.734-1.609
				c-1.809-0.508-3.131-1.063-3.963-1.663c-1.185-0.849-1.777-1.961-1.777-3.338c0-1.337,0.55-2.424,1.651-3.26
				c1.101-0.836,2.508-1.255,4.221-1.255c1.161,0,2.2,0.224,3.116,0.672c0.917,0.449,1.627,1.073,2.132,1.873
				c0.504,0.8,0.756,1.693,0.756,2.678h-1.489c0-1.196-0.408-2.158-1.225-2.885c-0.816-0.727-1.913-1.09-3.29-1.09
				c-1.337,0-2.401,0.299-3.194,0.896c-0.793,0.597-1.189,1.377-1.189,2.339c0,0.89,0.356,1.616,1.069,2.177
				c0.713,0.561,1.853,1.057,3.422,1.485c1.568,0.429,2.757,0.874,3.566,1.334c0.808,0.46,1.417,1.01,1.825,1.651
				c0.409,0.641,0.613,1.397,0.613,2.269c0,1.377-0.551,2.482-1.652,3.315c-1.101,0.833-2.551,1.249-4.352,1.249
				c-1.233,0-2.364-0.221-3.392-0.66c-1.029-0.44-1.809-1.057-2.342-1.849c-0.532-0.793-0.798-1.701-0.798-2.726h1.477
				c0,1.233,0.461,2.206,1.381,2.918c0.921,0.713,2.145,1.069,3.675,1.069c1.361,0,2.453-0.301,3.278-0.901
				C235.747,67.557,236.159,66.76,236.159,65.768z"/>
			<path d="M243.581,63.523l-1.645,1.585v4.96h-1.442V51.623h1.442v11.803l1.357-1.464l4.971-4.888h1.813l-5.512,5.476l5.992,7.516
				h-1.717L243.581,63.523z"/>
			<path d="M252.454,53.322c0-0.27,0.088-0.499,0.265-0.686c0.176-0.187,0.416-0.28,0.72-0.28c0.304,0,0.547,0.094,0.726,0.28
				c0.181,0.187,0.27,0.416,0.27,0.686s-0.09,0.497-0.27,0.68c-0.18,0.183-0.422,0.275-0.726,0.275c-0.304,0-0.544-0.092-0.72-0.275
				C252.542,53.819,252.454,53.593,252.454,53.322z M254.147,70.067h-1.441V57.074h1.441V70.067z"/>
			<path d="M259.658,70.067h-1.441V51.623h1.441V70.067z"/>
			<path d="M265.17,70.067h-1.441V51.623h1.441V70.067z"/>
			<path d="M276.853,66.764c0-0.713-0.286-1.285-0.859-1.717c-0.572-0.432-1.435-0.771-2.587-1.015
				c-1.153-0.244-2.048-0.524-2.684-0.84c-0.637-0.316-1.109-0.703-1.417-1.159c-0.308-0.457-0.463-1.009-0.463-1.657
				c0-1.025,0.428-1.871,1.285-2.54c0.856-0.668,1.953-1.003,3.29-1.003c1.449,0,2.612,0.359,3.489,1.075
				c0.877,0.717,1.315,1.652,1.315,2.804h-1.441c0-0.76-0.319-1.392-0.954-1.897c-0.637-0.504-1.439-0.757-2.408-0.757
				c-0.945,0-1.703,0.21-2.275,0.631c-0.573,0.42-0.859,0.966-0.859,1.638c0,0.649,0.239,1.151,0.715,1.507
				c0.476,0.356,1.344,0.683,2.605,0.979c1.261,0.296,2.206,0.612,2.834,0.949c0.628,0.336,1.094,0.74,1.399,1.213
				c0.304,0.472,0.456,1.044,0.456,1.717c0,1.097-0.442,1.974-1.326,2.63c-0.885,0.656-2.04,0.985-3.465,0.985
				c-1.513,0-2.739-0.366-3.68-1.099c-0.941-0.732-1.411-1.659-1.411-2.779h1.441c0.056,0.84,0.41,1.495,1.063,1.963
				c0.652,0.468,1.514,0.703,2.587,0.703c1.001,0,1.809-0.221,2.425-0.66C276.545,67.994,276.853,67.437,276.853,66.764z"/>
		</g>
	</g>
</g>
</svg>
