<?xml version="1.0" encoding="utf-8"?>
<!-- Generator: Adobe Illustrator 25.2.1, SVG Export Plug-In . SVG Version: 6.00 Build 0)  -->
<svg version="1.1" xmlns="http://www.w3.org/2000/svg" xmlns:xlink="http://www.w3.org/1999/xlink" x="0px" y="0px"
	 viewBox="0 0 402 99" style="enable-background:new 0 0 402 99;" xml:space="preserve">
<style type="text/css">
	.st0{display:none;}
	.st1{display:inline;fill:#F47DBD;}
	.st2{fill:#FF2D00;}
	.st3{fill:#77BF1E;}
	.st4{fill:#51A1CA;}
	.st5{fill:#FBB802;}
</style>
<g id="Layer_2" class="st0">
	
		<image style="display:inline;overflow:visible;" width="402" height="99" xlink:href="pblock_back_2021.jpg"  transform="matrix(1 0 0 1 0 0.4187)">
	</image>
</g>
<g id="Layer_3" class="st0">
	<rect x="-14.006" y="-8.103" class="st1" width="425.653" height="117.351"/>
</g>
<g id="Layer_1">
	<g>
		<g>
			<path d="M243.21,54.044l-0.003-3.816l-4.738,0.004l-0.005-5.932l-0.159,0.049l-4.449,1.365l-0.088,0.027l0.004,4.495
				l-7.024,0.006l-0.002-2.504c-0.001-1.166,0.259-2.058,0.772-2.654c0.51-0.588,1.239-0.888,2.17-0.889
				c0.669-0.001,1.362,0.156,2.06,0.467l0.175,0.078l-0.003-4.018l-0.082-0.03c-0.651-0.233-1.535-0.35-2.632-0.349
				c-1.382,0.001-2.638,0.303-3.732,0.9c-1.095,0.598-1.957,1.451-2.559,2.535c-0.601,1.083-0.905,2.333-0.904,3.716l0.002,2.753
				l-3.299,0.003l0.003,3.816l3.299-0.003l0.013,16.075l4.736-0.004l-0.013-16.075l7.024-0.006l0.008,10.215
				c0.003,4.207,1.99,6.337,5.903,6.334c0.643-0.001,1.32-0.076,2.011-0.225c0.703-0.152,1.182-0.304,1.464-0.466l0.062-0.037
				l-0.003-3.851l-0.193,0.128c-0.257,0.171-0.577,0.312-0.952,0.416c-0.377,0.106-0.692,0.16-0.936,0.16
				c-0.917,0.001-1.595-0.246-2.016-0.733c-0.426-0.492-0.643-1.352-0.644-2.555l-0.008-9.39L243.21,54.044L243.21,54.044z
				 M208.147,66.755c-1.719,0.001-3.075-0.567-4.031-1.69c-0.962-1.128-1.45-2.736-1.452-4.781c-0.002-2.109,0.484-3.76,1.444-4.909
				c0.955-1.142,2.297-1.722,3.989-1.723c1.642-0.001,2.95,0.551,3.887,1.641c0.942,1.096,1.421,2.734,1.423,4.867
				c0.002,2.16-0.446,3.819-1.331,4.93C211.199,66.193,209.876,66.753,208.147,66.755 M208.344,49.778
				c-3.28,0.003-5.884,0.966-7.74,2.863c-1.855,1.897-2.794,4.521-2.791,7.8c0.003,3.114,0.923,5.618,2.737,7.442
				c1.814,1.824,4.28,2.747,7.332,2.744c3.179-0.003,5.732-0.979,7.587-2.902c1.855-1.921,2.793-4.52,2.79-7.723
				c-0.003-3.163-0.887-5.686-2.63-7.497C213.885,50.693,211.433,49.776,208.344,49.778 M190.168,49.793
				c-2.231,0.002-4.076,0.574-5.485,1.7c-1.417,1.133-2.136,2.618-2.134,4.415c0.001,0.934,0.157,1.763,0.463,2.466
				c0.308,0.706,0.784,1.327,1.417,1.848c0.628,0.517,1.597,1.058,2.88,1.608c1.079,0.443,1.884,0.818,2.395,1.113
				c0.5,0.29,0.854,0.581,1.055,0.865c0.195,0.278,0.294,0.658,0.294,1.127c0.001,1.336-0.999,1.987-3.058,1.989
				c-0.764,0.001-1.635-0.158-2.59-0.472c-0.948-0.309-1.842-0.762-2.653-1.342l-0.197-0.141l0.004,4.56l0.072,0.034
				c0.67,0.309,1.516,0.569,2.512,0.773c0.994,0.205,1.897,0.308,2.682,0.308c2.421-0.002,4.37-0.577,5.792-1.71
				c1.431-1.141,2.155-2.661,2.153-4.519c-0.001-1.341-0.393-2.49-1.163-3.417c-0.765-0.919-2.093-1.762-3.945-2.507
				c-1.475-0.591-2.42-1.081-2.81-1.458c-0.376-0.364-0.567-0.879-0.568-1.532c0-0.578,0.235-1.042,0.718-1.418
				c0.487-0.378,1.165-0.57,2.015-0.571c0.789-0.001,1.597,0.123,2.4,0.367c0.803,0.244,1.508,0.57,2.096,0.97l0.194,0.132
				l-0.004-4.326l-0.074-0.032c-0.543-0.232-1.259-0.431-2.128-0.592C191.635,49.873,190.85,49.793,190.168,49.793 M170.21,66.786
				c-1.719,0.001-3.075-0.567-4.031-1.69c-0.962-1.128-1.45-2.736-1.451-4.781c-0.002-2.109,0.484-3.76,1.444-4.909
				c0.954-1.142,2.296-1.722,3.989-1.723c1.642-0.001,2.949,0.551,3.887,1.641c0.942,1.096,1.421,2.734,1.423,4.867
				c0.002,2.16-0.446,3.819-1.331,4.93C173.261,66.224,171.94,66.785,170.21,66.786 M170.407,49.81
				c-3.281,0.003-5.885,0.966-7.74,2.863c-1.855,1.897-2.794,4.521-2.791,7.8c0.003,3.115,0.924,5.618,2.738,7.442
				c1.814,1.824,4.28,2.747,7.331,2.744c3.179-0.003,5.732-0.979,7.587-2.902c1.854-1.921,2.793-4.52,2.79-7.723
				c-0.003-3.163-0.887-5.686-2.631-7.497C175.947,50.724,173.496,49.807,170.407,49.81 M152.681,53.748l-0.003-3.445l-4.679,0.004
				l0.016,19.89l4.679-0.004l-0.008-10.174c-0.001-1.73,0.39-3.152,1.163-4.226c0.763-1.061,1.781-1.6,3.025-1.601
				c0.421,0,0.895,0.069,1.407,0.206c0.507,0.136,0.875,0.284,1.091,0.44l0.197,0.142l-0.004-4.717l-0.076-0.032
				c-0.436-0.185-1.052-0.278-1.832-0.277c-1.176,0.001-2.228,0.38-3.128,1.124c-0.79,0.654-1.361,1.551-1.798,2.669L152.681,53.748
				z M139.62,49.835c-2.146,0.002-4.061,0.464-5.688,1.372c-1.631,0.911-2.892,2.21-3.749,3.862
				c-0.853,1.648-1.286,3.572-1.284,5.717c0.002,1.879,0.424,3.604,1.257,5.123c0.833,1.522,2.012,2.712,3.504,3.537
				c1.49,0.824,3.211,1.241,5.116,1.239c2.223-0.002,4.121-0.448,5.643-1.326l0.061-0.035l-0.004-4.286l-0.197,0.144
				c-0.689,0.503-1.459,0.904-2.288,1.194c-0.827,0.289-1.58,0.436-2.242,0.436c-1.836,0.002-3.31-0.572-4.381-1.703
				c-1.073-1.133-1.618-2.725-1.62-4.729c-0.002-2.016,0.564-3.65,1.68-4.856c1.113-1.202,2.589-1.813,4.387-1.815
				c1.538-0.001,3.037,0.518,4.455,1.545l0.196,0.142l-0.004-4.516l-0.063-0.036c-0.534-0.298-1.262-0.544-2.165-0.73
				C141.336,49.928,140.456,49.834,139.62,49.835 M125.667,50.326l-4.679,0.004l0.016,19.89l4.679-0.004L125.667,50.326
				L125.667,50.326z M123.369,41.855c-0.77,0.001-1.441,0.263-1.993,0.783c-0.554,0.521-0.834,1.177-0.834,1.952
				c0.001,0.762,0.279,1.406,0.828,1.912c0.546,0.505,1.22,0.761,2.003,0.76c0.783-0.001,1.459-0.257,2.01-0.763
				c0.555-0.508,0.836-1.152,0.835-1.914c-0.001-0.747-0.275-1.396-0.816-1.929C124.864,42.123,124.179,41.854,123.369,41.855
				 M111.701,48.87l0.018,21.357l4.775-0.004l-0.023-27.754l-6.609,0.005l-8.383,20.622l-8.169-20.608l-6.878,0.006l0.023,27.754
				l4.487-0.004l-0.018-21.359l0.154,0l8.625,21.352l3.386-0.003l8.456-21.364L111.701,48.87L111.701,48.87z"/>
			<path class="st2" d="M48.258,55.261l-22.01,0.018l-0.018-22.01l22.01-0.018L48.258,55.261z"/>
			<path class="st3" d="M72.559,55.241l-22.009,0.018l-0.018-22.01l22.009-0.018L72.559,55.241L72.559,55.241z"/>
			<path class="st4" d="M48.277,79.571l-22.009,0.018l-0.018-22.01l22.009-0.018L48.277,79.571z"/>
			<path class="st5" d="M72.579,79.551L50.57,79.569l-0.018-22.01l22.009-0.018L72.579,79.551L72.579,79.551z"/>
		</g>
		<g>
			<path d="M270.786,66.086c0-0.969-0.34-1.736-1.021-2.3c-0.68-0.565-1.925-1.101-3.734-1.609
				c-1.809-0.508-3.131-1.063-3.963-1.663c-1.185-0.849-1.777-1.961-1.777-3.338c0-1.337,0.55-2.424,1.651-3.26
				c1.101-0.836,2.508-1.255,4.221-1.255c1.161,0,2.2,0.224,3.116,0.672c0.917,0.449,1.627,1.073,2.132,1.873
				c0.504,0.8,0.756,1.693,0.756,2.678h-1.489c0-1.196-0.408-2.158-1.225-2.885c-0.816-0.727-1.913-1.09-3.29-1.09
				c-1.337,0-2.401,0.299-3.194,0.896c-0.793,0.597-1.189,1.377-1.189,2.339c0,0.89,0.356,1.616,1.069,2.177
				s1.853,1.057,3.422,1.485c1.568,0.429,2.757,0.874,3.566,1.334c0.808,0.46,1.417,1.01,1.825,1.651
				c0.409,0.641,0.613,1.397,0.613,2.269c0,1.377-0.551,2.482-1.652,3.315c-1.101,0.833-2.551,1.249-4.352,1.249
				c-1.233,0-2.364-0.221-3.392-0.66c-1.029-0.44-1.809-1.057-2.342-1.849c-0.532-0.793-0.798-1.701-0.798-2.726h1.477
				c0,1.233,0.461,2.206,1.381,2.918c0.921,0.713,2.145,1.069,3.675,1.069c1.361,0,2.453-0.301,3.278-0.901
				C270.374,67.875,270.786,67.078,270.786,66.086z"/>
			<path d="M278.208,63.84l-1.645,1.585v4.96h-1.441V51.94h1.441v11.803l1.357-1.464l4.971-4.888h1.813l-5.512,5.476l5.992,7.516
				h-1.717L278.208,63.84z"/>
			<path d="M287.081,53.64c0-0.27,0.088-0.499,0.265-0.686c0.176-0.187,0.416-0.28,0.72-0.28c0.304,0,0.547,0.094,0.727,0.28
				c0.181,0.187,0.27,0.416,0.27,0.686s-0.09,0.497-0.27,0.68c-0.18,0.183-0.422,0.275-0.727,0.275c-0.304,0-0.544-0.092-0.72-0.275
				C287.169,54.137,287.081,53.91,287.081,53.64z M288.774,70.384h-1.441V57.392h1.441V70.384z"/>
			<path d="M294.285,70.384h-1.441V51.94h1.441V70.384z"/>
			<path d="M299.797,70.384h-1.441V51.94h1.441V70.384z"/>
			<path d="M311.48,67.082c0-0.713-0.286-1.285-0.859-1.717c-0.572-0.432-1.435-0.771-2.587-1.015
				c-1.153-0.244-2.048-0.524-2.684-0.84c-0.637-0.316-1.109-0.703-1.417-1.159c-0.308-0.457-0.463-1.009-0.463-1.657
				c0-1.025,0.428-1.871,1.285-2.54c0.856-0.668,1.953-1.003,3.29-1.003c1.449,0,2.612,0.359,3.489,1.075
				c0.877,0.717,1.315,1.652,1.315,2.804h-1.441c0-0.76-0.319-1.392-0.954-1.897c-0.637-0.504-1.439-0.757-2.408-0.757
				c-0.945,0-1.703,0.21-2.275,0.631c-0.573,0.42-0.859,0.966-0.859,1.638c0,0.649,0.239,1.151,0.715,1.507
				c0.476,0.356,1.344,0.683,2.605,0.979c1.261,0.296,2.206,0.612,2.834,0.949c0.628,0.336,1.094,0.74,1.399,1.213
				c0.304,0.472,0.456,1.044,0.456,1.717c0,1.097-0.442,1.974-1.326,2.63c-0.885,0.656-2.04,0.985-3.465,0.985
				c-1.513,0-2.739-0.366-3.68-1.099c-0.941-0.732-1.411-1.659-1.411-2.779h1.441c0.056,0.84,0.41,1.495,1.063,1.963
				c0.652,0.468,1.514,0.703,2.587,0.703c1.001,0,1.809-0.221,2.425-0.66C311.172,68.311,311.48,67.754,311.48,67.082z"/>
		</g>
	</g>
</g>
</svg>
