<?xml version="1.0" encoding="utf-8"?>
<!-- Generator: Adobe Illustrator 23.0.4, SVG Export Plug-In . SVG Version: 6.00 Build 0)  -->
<svg version="1.1" id="Layer_1" xmlns="http://www.w3.org/2000/svg" xmlns:xlink="http://www.w3.org/1999/xlink" x="0px" y="0px"
	 viewBox="0 0 360 96" style="enable-background:new 0 0 360 96;" xml:space="preserve">
<style type="text/css">
	.st0{opacity:0.4;}
	.st1{fill:#310940;}
	.st2{fill:#E2BEAE;}
	.st3{fill:#92ACB2;}
	.st4{fill:#8B3D6E;}
	.st5{fill:#FFF360;}
	.st6{fill:#EC509C;}
	.st7{fill:#FFFFFF;}
	.st8{fill:#A9E0F7;}
	.st9{fill:#301118;}
	.st10{fill:#D48BBC;}
	.st11{fill:#50B848;}
	.st12{fill:#CBAD95;}
	.st13{fill:#443E39;}
	.st14{fill:#E4A2AC;}
	.st15{fill:#E7BA2D;}
	.st16{opacity:0.25;}
	.st17{fill:#078366;}
</style>
<g>
	<g class="st0">
		<path class="st1" d="M106.183,90.03c0-1.982-22.825-3.589-50.98-3.589s-50.98,1.607-50.98,3.589c0,1.181,8.098,2.228,20.597,2.882
			c-0.207,0.109-0.319,0.222-0.319,0.338c0,0.897,6.537,1.624,14.601,1.624c6.93,0,12.728-0.537,14.223-1.257
			c0.624,0.002,1.249,0.003,1.878,0.003c1.872,0,3.72-0.007,5.54-0.021c1.433,0.729,7.272,1.276,14.261,1.276
			c8.064,0,14.601-0.727,14.601-1.624c0-0.183-0.276-0.358-0.777-0.522C99.467,92.069,106.183,91.105,106.183,90.03z"/>
	</g>
	<g>
		<path class="st2" d="M96.057,24.48c0.86,0.374,1.649,1.011,2.586,1.046c0.104,0.004,0.203,0.004,0.298,0.002
			c2.297-0.057,2.173-1.875,3.41-3.303c0.414-0.478,0.961-0.824,1.53-1.1c4.1-1.985,10.727,0.251,10.334,5.467
			c-0.13,1.727-0.89,3.345-1.78,4.83c-2.356,3.928-6.327,5.56-9.251,8.901c-0.691,0.79-1.473,1.492-2.257,2.188
			c-0.821,0.729-1.318,1.387-1.912,2.308c-1.449,2.251-3.157,4.376-4.634,6.632c-1.361,2.078-2.671,4.189-3.929,6.331
			c-0.504,0.859-1.698,3.755-3.097,3.347c-1.564-0.456-0.98-5.004-1.636-6.203c-1.198-2.189-2.229-3.383-1.971-6.07
			c0.143-1.484,0.83-2.686,1.723-3.821c0.564-0.717,1.022-1.551,1.524-2.312c0.286-0.435,1.372-1.583,1.372-2.082
			c0.711-1.079,1.358-2.268,2.219-3.231c1.039-1.161,1.921-2.479,2.794-3.781c0.429-0.64,0.846-1.317,0.966-2.077
			c0.17-1.085-0.349-1.897-0.604-2.896C93.301,26.928,93.172,23.226,96.057,24.48z"/>
	</g>
	<g>
		<path d="M87.918,61.946c0.594-0.971,1.172-1.952,1.743-2.936c0.576-0.981,1.141-1.968,1.703-2.958
			c1.127-1.977,2.234-3.969,3.421-5.921c1.192-1.948,2.454-3.864,3.862-5.682c1.409-1.816,2.959-3.533,4.655-5.099
			c0.846-0.785,1.727-1.532,2.64-2.239c0.889-0.696,1.754-1.406,2.575-2.162c0.82-0.754,1.594-1.552,2.283-2.403
			c0.352-0.42,0.662-0.865,0.959-1.315c0.281-0.457,0.544-0.923,0.748-1.407c0.409-0.968,0.628-1.99,0.572-3.019
			c-0.047-1.03-0.345-2.054-0.75-3.064c-0.203-0.505-0.435-1.008-0.678-1.511c-0.245-0.502-0.5-1.018-0.754-1.514
			c-0.255-0.499-0.515-0.988-0.796-1.44c-0.28-0.45-0.586-0.865-0.923-1.147c-0.338-0.284-0.685-0.423-1.117-0.438
			c-0.43-0.014-0.923,0.091-1.416,0.251c-0.124,0.043-0.248,0.082-0.372,0.132l-0.185,0.071c-0.055,0.024-0.112,0.045-0.165,0.071
			c-0.216,0.099-0.417,0.215-0.6,0.352c-0.365,0.273-0.661,0.636-0.907,1.07c-0.488,0.875-0.788,1.956-1.073,3.035
			c-0.075,0.285-0.129,0.507-0.171,0.769c-0.041,0.256-0.07,0.52-0.092,0.793c-0.051,0.548-0.048,1.114-0.177,1.779
			c-0.071,0.328-0.178,0.719-0.489,1.085c-0.154,0.179-0.357,0.329-0.566,0.425c-0.209,0.095-0.418,0.146-0.61,0.169
			c-0.386,0.045-0.724,0.009-1.042-0.042c-0.159-0.027-0.314-0.058-0.464-0.095l-0.227-0.058c-0.096-0.027-0.188-0.057-0.273-0.092
			c-0.343-0.138-0.618-0.314-0.875-0.492c-0.256-0.179-0.49-0.366-0.716-0.551c-0.451-0.371-0.874-0.745-1.3-1.071
			c-0.419-0.323-0.87-0.614-1.237-0.695c-0.183-0.04-0.311-0.029-0.433,0.027c-0.123,0.054-0.262,0.178-0.389,0.354
			c-0.128,0.175-0.238,0.397-0.321,0.6c-0.077,0.209-0.119,0.422-0.129,0.641c-0.025,0.439,0.112,0.918,0.301,1.42
			c0.191,0.504,0.439,1.03,0.63,1.617c0.094,0.294,0.177,0.601,0.224,0.924c0.046,0.323,0.057,0.657,0.029,0.99
			c-0.069,0.667-0.308,1.3-0.64,1.834c-0.083,0.134-0.165,0.269-0.259,0.392c-0.092,0.128-0.183,0.252-0.265,0.359
			c-0.169,0.225-0.34,0.445-0.507,0.675c-1.343,1.823-2.669,3.677-3.993,5.527l-3.985,5.549c-0.667,0.923-1.339,1.844-2.025,2.755
			c-0.689,0.911-1.368,1.823-2.112,2.706l-0.423-0.349c0.693-0.882,1.344-1.819,1.997-2.747l1.941-2.804l3.846-5.64
			c1.284-1.881,2.551-3.769,3.876-5.635c0.164-0.233,0.338-0.466,0.507-0.699c0.09-0.12,0.164-0.227,0.236-0.332
			c0.078-0.105,0.141-0.215,0.206-0.324c0.261-0.437,0.417-0.9,0.46-1.368c0.034-0.469-0.052-0.948-0.226-1.441
			c-0.168-0.493-0.414-0.996-0.637-1.552c-0.217-0.554-0.432-1.188-0.412-1.894c0.009-0.348,0.073-0.701,0.189-1.028
			c0.126-0.326,0.268-0.619,0.472-0.907c0.203-0.284,0.478-0.579,0.874-0.767c0.195-0.093,0.414-0.151,0.628-0.168
			c0.214-0.017,0.42,0.003,0.608,0.043c0.378,0.082,0.689,0.233,0.971,0.392c0.281,0.162,0.535,0.339,0.775,0.519
			c0.48,0.361,0.914,0.739,1.346,1.086c0.425,0.342,0.869,0.676,1.251,0.825c0.047,0.019,0.09,0.032,0.131,0.043l0.187,0.044
			c0.127,0.029,0.251,0.051,0.373,0.07c0.243,0.037,0.478,0.048,0.658,0.023c0.09-0.012,0.159-0.035,0.209-0.059
			c0.049-0.025,0.078-0.049,0.109-0.087c0.062-0.07,0.133-0.242,0.173-0.468c0.082-0.455,0.091-1.034,0.136-1.618
			c0.022-0.295,0.051-0.597,0.098-0.903c0.044-0.301,0.122-0.633,0.191-0.899c0.142-0.56,0.292-1.123,0.476-1.689
			c0.186-0.566,0.403-1.138,0.714-1.699c0.31-0.558,0.736-1.104,1.283-1.518c0.271-0.207,0.565-0.378,0.865-0.518
			c0.075-0.036,0.151-0.066,0.226-0.099l0.213-0.083c0.14-0.057,0.287-0.106,0.431-0.157c0.584-0.193,1.219-0.354,1.93-0.33
			c0.353,0.012,0.724,0.081,1.071,0.219c0.348,0.136,0.662,0.337,0.928,0.563c0.535,0.456,0.897,0.981,1.219,1.493
			c0.319,0.516,0.591,1.033,0.854,1.548c0.263,0.518,0.512,1.022,0.765,1.543c0.251,0.521,0.496,1.053,0.716,1.604
			c0.443,1.097,0.781,2.294,0.825,3.545c0.055,1.251-0.233,2.507-0.724,3.625c-0.245,0.562-0.549,1.087-0.871,1.594
			c-0.335,0.496-0.683,0.982-1.068,1.43c-0.76,0.907-1.599,1.724-2.469,2.492c-0.871,0.767-1.784,1.481-2.702,2.168
			c-0.9,0.67-1.768,1.382-2.614,2.12c-3.392,2.952-6.184,6.542-8.682,10.324c-1.255,1.891-2.466,3.818-3.683,5.743
			c-0.609,0.962-1.221,1.923-1.844,2.877C89.212,60.071,88.571,61.013,87.918,61.946z"/>
	</g>
	<g>
		<path class="st2" d="M24.086,85.727c-0.447,0.709-0.821,1.465-1.261,2.17c-0.333,0.533-0.388,1.105-0.935,1.496
			c-1.054,0.754-1.658,0.504-2.849,0.246c-1.129-0.245-2.238-0.575-3.328-0.956c-1.127-0.394-2.365-0.011-3.522,0.159
			c-1.079,0.158-2.117,0.763-3.173,1.042c-1.605,0.424-3.241,0.238-4.796-0.296c-1.027-0.352-4.067-2.907-1.953-3.896
			c0.951-0.445,2.013-0.809,2.997-1.203c0.893-0.357,1.835-0.81,2.727-1.249c0.849-0.419,1.793-0.577,2.517-1.219
			c0.7-0.621,1.477-1,2.295-1.472c1.077-0.621,2.121-1.298,3.126-2.029c0.532-0.387,1.122-0.703,1.639-1.108
			c0.415-0.325,0.669-0.736,1.016-1.138c0.997-1.157,2.044-2.295,3.03-3.44c1.068-1.241,1.761-3.164,2.356-4.671
			c0.716-1.813,1.453-3.679,1.699-5.624c0.204-1.618,0.224-3.3,0.768-4.854c0.406-1.16,2.08-2.333,3.343-2.048
			c1.024,0.231,1.978,1.148,3.041,1.476c2.614,0.807,3.592,2.931,3.88,5.474c0.326,2.876-1.147,4.993-2.445,7.429
			c-1.684,3.16-2.548,6.712-4.438,9.767c-0.747,1.207-1.682,2.317-2.826,3.166C25.838,83.805,24.876,84.474,24.086,85.727z"/>
	</g>
	<g>
		<path d="M26.011,53.804c0.174,1.12,0.293,2.252,0.327,3.39c0.03,1.137-0.006,2.279-0.112,3.415
			c-0.209,2.273-0.695,4.533-1.491,6.691c-0.394,1.08-0.857,2.136-1.385,3.159c-0.53,1.023-1.134,2.008-1.792,2.956
			c-1.319,1.893-2.857,3.633-4.587,5.169c-1.737,1.538-3.686,2.834-5.746,3.885c-2.057,1.059-4.245,1.838-6.361,2.597
			c-0.525,0.194-1.046,0.389-1.526,0.609c-0.239,0.11-0.467,0.227-0.665,0.352c-0.192,0.124-0.359,0.263-0.427,0.371
			c-0.074,0.111-0.073,0.15-0.062,0.276c0.026,0.128,0.105,0.315,0.232,0.505c0.122,0.194,0.29,0.385,0.448,0.568
			c0.168,0.174,0.343,0.34,0.535,0.482c0.381,0.286,0.812,0.499,1.281,0.639c0.471,0.137,0.976,0.204,1.495,0.223
			c1.041,0.036,2.13-0.121,3.225-0.313c1.098-0.194,2.209-0.435,3.357-0.614c0.287-0.045,0.576-0.086,0.868-0.12
			c0.148-0.015,0.278-0.038,0.484-0.045c0.184-0.006,0.353,0.004,0.516,0.019c0.647,0.066,1.214,0.207,1.777,0.351
			c1.116,0.29,2.191,0.625,3.242,0.819c0.517,0.094,1.047,0.152,1.449,0.09c0.2-0.03,0.333-0.095,0.389-0.151
			c0.031-0.031,0.052-0.054,0.078-0.115c0.059-0.137,0.119-0.274,0.182-0.408c0.501-1.073,1.095-2.087,1.795-3.042
			c0.703-0.949,1.513-1.846,2.512-2.573c0.5-0.36,1.056-0.669,1.662-0.887c0.611-0.208,1.269-0.321,1.937-0.271
			c0.345,0.024,0.686,0.104,0.998,0.217c0.31,0.11,0.599,0.26,0.821,0.361c0.103,0.05,0.209,0.078,0.179,0.07
			c-0.007,0.001-0.07,0.004-0.107,0.027c-0.043,0.027-0.051,0.035-0.046,0.033c0.015-0.012,0.065-0.103,0.102-0.2
			c0.041-0.098,0.077-0.219,0.112-0.34c0.068-0.241,0.127-0.523,0.176-0.768c0.021-0.1,0.025-0.188,0.022-0.229
			c-0.009-0.045,0.005-0.001,0.031,0.013c0.022,0.011-0.018-0.02-0.107-0.035c-0.087-0.018-0.207-0.027-0.341-0.034
			c-0.135-0.007-0.283-0.01-0.452-0.026c-0.169-0.018-0.362-0.037-0.604-0.145c-0.119-0.055-0.252-0.141-0.361-0.266
			c-0.109-0.124-0.182-0.276-0.218-0.411c-0.07-0.275-0.041-0.484-0.011-0.667c0.034-0.181,0.087-0.347,0.131-0.477l0.137-0.416
			c0.088-0.281,0.193-0.543,0.29-0.814c0.098-0.27,0.198-0.538,0.303-0.802c0.831-2.123,1.719-4.209,2.619-6.293
			c0.902-2.082,1.823-4.154,2.762-6.219c0.467-1.033,0.947-2.062,1.435-3.086c0.493-1.024,0.978-2.046,1.52-3.057l0.486,0.254
			c-0.983,2.02-1.853,4.119-2.752,6.192c-0.889,2.081-1.76,4.171-2.611,6.267c-0.849,2.096-1.687,4.2-2.459,6.315
			c-0.099,0.264-0.194,0.528-0.284,0.792c-0.09,0.264-0.191,0.529-0.268,0.791l-0.123,0.393c-0.046,0.139-0.072,0.245-0.087,0.343
			c-0.015,0.094-0.006,0.176,0,0.175c0.002,0.001-0.005-0.022-0.02-0.039c-0.015-0.019-0.027-0.025-0.017-0.022
			c0.018,0.008,0.111,0.027,0.223,0.031c0.113,0.006,0.248,0.005,0.397,0.006c0.15,0.002,0.313,0.005,0.506,0.033
			c0.188,0.031,0.429,0.084,0.674,0.274c0.12,0.094,0.225,0.224,0.293,0.358c0.069,0.134,0.106,0.268,0.126,0.388
			c0.035,0.24,0.017,0.438-0.009,0.616c-0.055,0.312-0.111,0.585-0.191,0.891c-0.041,0.152-0.084,0.303-0.148,0.468
			c-0.067,0.165-0.133,0.337-0.297,0.545c-0.089,0.103-0.196,0.217-0.37,0.302c-0.164,0.084-0.37,0.119-0.518,0.107
			c-0.315-0.022-0.475-0.11-0.631-0.17c-0.295-0.131-0.512-0.239-0.737-0.315c-0.222-0.077-0.438-0.122-0.659-0.135
			c-0.464-0.029-0.944,0.057-1.402,0.218c-0.458,0.172-0.901,0.42-1.316,0.727c-0.83,0.617-1.553,1.426-2.185,2.302
			c-0.633,0.877-1.186,1.83-1.637,2.812c-0.056,0.123-0.109,0.246-0.162,0.369c-0.081,0.201-0.222,0.419-0.395,0.583
			c-0.355,0.341-0.782,0.474-1.137,0.534c-0.723,0.108-1.335,0.017-1.93-0.079c-1.18-0.21-2.274-0.546-3.353-0.815
			c-0.535-0.132-1.072-0.261-1.554-0.309c-0.119-0.011-0.233-0.017-0.332-0.014c-0.077,0-0.227,0.021-0.361,0.036
			c-0.27,0.031-0.542,0.07-0.815,0.112c-1.091,0.169-2.195,0.406-3.329,0.606c-1.133,0.196-2.301,0.371-3.528,0.33
			c-0.612-0.022-1.239-0.103-1.856-0.283c-0.616-0.183-1.217-0.478-1.741-0.873c-0.264-0.196-0.501-0.421-0.725-0.655
			c-0.107-0.121-0.21-0.244-0.313-0.368c-0.098-0.127-0.193-0.26-0.285-0.401c-0.18-0.285-0.354-0.616-0.433-1.046
			c-0.034-0.218-0.035-0.462,0.019-0.7c0.052-0.24,0.164-0.458,0.29-0.634c0.257-0.359,0.556-0.566,0.836-0.749
			c0.283-0.175,0.562-0.313,0.838-0.437c0.553-0.247,1.096-0.443,1.635-0.637c1.078-0.382,2.139-0.741,3.182-1.143
			c1.043-0.4,2.063-0.84,3.06-1.327c1.993-0.972,3.868-2.171,5.552-3.608c1.68-1.447,3.224-3.069,4.55-4.854
			c1.326-1.786,2.436-3.736,3.289-5.8c0.847-2.066,1.455-4.24,1.784-6.465C26.139,58.333,26.198,56.063,26.011,53.804z"/>
	</g>
	<g>
		<g>
			<path class="st3" d="M30.434,70.843c0.373,1.904,8.958,16.328,18.654,18.141c-0.575-1.569-0.697-2.246-0.697-2.246
				s7.261,4.142,23.395,0.447c-1.123-0.398-2.18-1.103-2.18-1.103s10.974-3.036,14.724-10.54c4.342-8.691-11.015-5.001-11.015-5.001
				L37.965,67.95L30.434,70.843z"/>
		</g>
		<g>
			<path d="M30.586,70.927c0.031,0,0.043-0.031,0.041-0.028l0.029,0.093c0.022,0.062,0.043,0.125,0.069,0.188
				c0.049,0.126,0.105,0.251,0.162,0.376c0.115,0.25,0.24,0.496,0.37,0.741c0.26,0.49,0.538,0.971,0.826,1.447
				c0.577,0.951,1.195,1.878,1.842,2.784c1.294,1.811,2.705,3.54,4.238,5.149c1.535,1.604,3.196,3.093,5.023,4.332
				c1.823,1.231,3.834,2.22,5.971,2.608l0,0l-0.42,0.496c-0.105-0.384-0.204-0.769-0.293-1.158
				c-0.045-0.194-0.087-0.389-0.125-0.585c-0.038-0.198-0.073-0.389-0.099-0.6l0-0.001l-0.064-0.342l0.32,0.161
				c0.854,0.429,1.808,0.729,2.752,0.977c0.951,0.244,1.918,0.43,2.892,0.564c1.949,0.271,3.922,0.346,5.89,0.301
				c1.969-0.048,3.933-0.234,5.884-0.51c1.951-0.278,3.886-0.659,5.804-1.116l0,0l-0.043,0.751c-0.393-0.18-0.763-0.386-1.118-0.609
				c-0.356-0.224-0.695-0.459-1.027-0.718l0,0l-0.299-0.199l0.349-0.112c1.365-0.437,2.711-0.979,4.014-1.589
				c1.304-0.612,2.576-1.291,3.785-2.066c1.207-0.776,2.357-1.639,3.404-2.609c1.044-0.972,1.98-2.059,2.721-3.266
				c0.364-0.605,0.699-1.235,0.938-1.887c0.243-0.647,0.4-1.331,0.328-1.971c-0.037-0.318-0.137-0.619-0.3-0.884
				c-0.164-0.264-0.397-0.487-0.665-0.672c-0.54-0.37-1.215-0.575-1.898-0.703c-1.38-0.245-2.825-0.209-4.25-0.089
				c-1.425,0.13-2.857,0.356-4.249,0.669l-0.051,0.011l-0.047-0.004L55.62,69.517l-17.667-1.394l0,0l0.075-0.011
				C35.552,69.064,33.079,69.996,30.586,70.927z M30.283,70.759c2.527-0.997,5.075-1.994,7.62-2.971l0.036-0.014l0.039,0.003l0,0
				l17.682,1.197l17.678,1.25l-0.097,0.008c1.438-0.327,2.877-0.556,4.34-0.693c1.46-0.126,2.943-0.171,4.426,0.087
				c0.736,0.138,1.486,0.353,2.151,0.802c0.329,0.225,0.633,0.512,0.853,0.864c0.22,0.352,0.352,0.756,0.399,1.157
				c0.089,0.809-0.1,1.579-0.362,2.283c-0.265,0.709-0.619,1.364-1.006,1.998c-0.786,1.262-1.768,2.386-2.852,3.383
				c-1.083,1.001-2.279,1.866-3.526,2.633c-1.249,0.766-2.549,1.442-3.889,2.024c-1.343,0.577-2.706,1.093-4.122,1.479l0.05-0.311
				l0,0c0.352,0.185,0.723,0.355,1.093,0.504c0.371,0.15,0.747,0.278,1.122,0.374l1.367,0.351l-1.411,0.4l0,0
				c-1.946,0.426-3.91,0.776-5.889,1.02c-1.978,0.243-3.97,0.395-5.964,0.407c-1.994,0.009-3.992-0.103-5.966-0.415
				c-0.987-0.154-1.965-0.361-2.929-0.627c-0.964-0.274-1.909-0.585-2.82-1.064l0.256-0.181l0,0c0.052,0.174,0.12,0.361,0.188,0.541
				c0.069,0.181,0.141,0.361,0.216,0.541c0.15,0.359,0.309,0.714,0.474,1.067l0.275,0.589l-0.695-0.093l0,0
				c-2.273-0.449-4.346-1.517-6.201-2.809c-1.858-1.302-3.523-2.843-5.054-4.491c-1.528-1.653-2.926-3.42-4.205-5.267
				c-0.638-0.924-1.248-1.868-1.817-2.838c-0.284-0.485-0.559-0.976-0.815-1.478c-0.128-0.251-0.252-0.505-0.367-0.765
				c-0.057-0.13-0.114-0.261-0.164-0.397c-0.026-0.067-0.049-0.137-0.073-0.207l-0.032-0.108
				C30.272,70.927,30.268,70.827,30.283,70.759z"/>
		</g>
	</g>
	<g>
		<path class="st4" d="M38.009,65.827c-2.892,4.784,2.301,14.048,8.289,16.261c-0.432-1.441,0.355-3.269,0.355-3.269
			s0.743,7.63,15.8,6.485c-0.922-0.586-1.746-2.18-1.35-2.05c5.874,1.916,12.391-1.862,11.712-2.308
			c-1.744-1.147,2.141-0.613,6.065-5.259c-5.172-2.05-3.902-9.983-3.902-9.983l-7.553-0.779l-23.086-0.134L38.009,65.827z"/>
	</g>
	<g>
		<g>
			<path class="st3" d="M30.536,69.804c-7.044-11.469-5.994-21.075-4.509-28.301c0,0,1.266,1.407,2.778,1.699
				c-0.847-2.615-1.694-5.654-0.281-9.359l1.877,1.577c0,0-0.446-9.229,11.879-14.877l-0.827,4.195c0,0,6.412-11.257,30.535-5.77
				c-2.535,1.554-3.633,3.793-3.633,3.793s12.952-4.113,21.238,13.231c-2.262-1.327-4.194-0.952-4.194-0.952
				s8.741,8.94,6.116,19.941l-1.613-1.786c0,0,1.596,10.353-4.098,18.268c0,0-5.51-5.454-13.944-5.394s-29.727-1.319-31.026-1.078
				S30.536,69.804,30.536,69.804z"/>
		</g>
		<g>
			<path d="M30.488,69.975c-0.377-0.529-0.771-1.154-1.049-1.666c-0.312-0.532-0.595-1.08-0.885-1.624
				c-0.561-1.099-1.073-2.223-1.531-3.371c-0.919-2.294-1.591-4.691-1.994-7.136c-0.402-2.445-0.53-4.936-0.404-7.412
				c0.119-2.477,0.485-4.934,0.961-7.354l0.167-0.849l0.609,0.638l0,0c0.143,0.186,0.329,0.39,0.512,0.572
				c0.186,0.184,0.384,0.358,0.59,0.52c0.414,0.321,0.873,0.586,1.374,0.736l-0.202,0.228l0,0c-0.532-1.505-1.011-3.066-1.142-4.702
				c-0.068-0.815-0.05-1.642,0.06-2.459c0.109-0.817,0.31-1.622,0.58-2.401l0.188-0.543l0.467,0.373l0,0l1.723,1.759l-0.291,0.144
				l0,0c-0.016-0.442,0.015-0.86,0.064-1.284c0.048-0.423,0.123-0.842,0.214-1.256c0.183-0.83,0.441-1.643,0.769-2.428
				c0.326-0.785,0.717-1.544,1.163-2.27c0.449-0.723,0.954-1.411,1.5-2.065c0.541-0.659,1.147-1.259,1.767-1.843
				c0.32-0.28,0.632-0.571,0.969-0.832l0.498-0.4l0.514-0.378c1.376-1.002,2.853-1.859,4.386-2.591l0.889-0.424l-0.177,0.986l0,0
				l-1.152,4.131L41.3,24.651l0,0c0.375-0.613,0.826-1.132,1.308-1.635c0.484-0.497,1.007-0.953,1.553-1.379
				c1.099-0.842,2.294-1.557,3.552-2.132c1.256-0.579,2.565-1.038,3.901-1.391c1.337-0.347,2.699-0.589,4.068-0.762
				c2.742-0.31,5.513-0.325,8.257-0.096c2.745,0.227,5.468,0.667,8.156,1.247l1.097,0.237l-0.953,0.636l-0.001,0
				c-0.368,0.206-0.734,0.422-1.077,0.674c-0.349,0.245-0.678,0.52-0.994,0.811c-0.317,0.29-0.614,0.605-0.893,0.935
				c-0.277,0.329-0.542,0.683-0.759,1.043l-0.212-0.247l0.001,0c1.124-0.326,2.265-0.45,3.416-0.475
				c1.149-0.02,2.301,0.089,3.431,0.315c2.261,0.452,4.416,1.404,6.316,2.713c1.903,1.309,3.561,2.953,4.972,4.769
				c1.418,1.815,2.603,3.799,3.618,5.856l0.694,1.407l-1.415-0.745l0,0c-0.283-0.19-0.575-0.376-0.884-0.527
				c-0.306-0.162-0.629-0.285-0.959-0.398c-0.331-0.108-0.672-0.188-1.019-0.241c-0.343-0.052-0.707-0.077-1.04-0.053l0.093-0.297
				l0,0c1.265,1.328,2.344,2.797,3.304,4.348c0.954,1.554,1.763,3.203,2.375,4.931c0.611,1.727,1.02,3.536,1.164,5.377
				c0.148,1.84,0.013,3.708-0.39,5.519l0,0l-0.325,0.914l-0.493-0.705l-1.39-1.987l0,0l0.306-0.146
				c0.231,1.601,0.287,3.205,0.246,4.813c-0.05,1.606-0.211,3.212-0.515,4.797c-0.303,1.584-0.739,3.148-1.343,4.653
				c-0.592,1.51-1.373,2.95-2.296,4.294l0,0l-0.295,0.425l-0.385-0.369c-0.401-0.385-0.869-0.767-1.334-1.118
				c-0.47-0.354-0.955-0.689-1.454-1.002c-0.999-0.626-2.046-1.179-3.134-1.634c-1.085-0.462-2.213-0.821-3.36-1.091
				c-1.149-0.26-2.321-0.42-3.499-0.472c-0.295-0.011-0.588-0.013-0.885-0.018l-0.906-0.004l-1.808-0.029
				c-1.205-0.027-2.408-0.067-3.611-0.11c-2.405-0.088-4.809-0.199-7.211-0.316c-4.805-0.231-9.608-0.51-14.409-0.72
				c-0.6-0.025-1.2-0.046-1.798-0.061c-0.298-0.006-0.599-0.012-0.89-0.006c-0.153,0.006-0.273,0.002-0.398,0.038
				c-0.128,0.033-0.268,0.082-0.405,0.131c-1.105,0.421-2.198,0.935-3.286,1.438c-1.087,0.509-2.17,1.03-3.25,1.556L32.23,69.16
				l-0.808,0.4l-0.403,0.201l-0.202,0.101l-0.101,0.05l-0.05,0.025l-0.028,0.014C30.595,69.974,30.534,69.982,30.488,69.975z
				 M30.584,69.634c-0.029-0.016-0.073-0.016-0.1-0.002l0.022-0.011l0.05-0.026l0.1-0.051l0.201-0.103l0.402-0.205l0.805-0.408
				l1.612-0.81c1.077-0.537,2.156-1.069,3.242-1.59c1.09-0.516,2.17-1.038,3.308-1.484c0.145-0.054,0.288-0.107,0.451-0.15
				c0.165-0.049,0.35-0.049,0.496-0.056c0.31-0.01,0.61-0.006,0.913-0.003c0.604,0.009,1.206,0.025,1.808,0.044
				c4.811,0.165,9.614,0.399,14.419,0.584c2.402,0.094,4.804,0.182,7.206,0.248c1.201,0.032,2.401,0.061,3.601,0.076l1.799,0.012
				l0.898-0.005c0.304,0.003,0.612,0.002,0.918,0.01c1.225,0.043,2.447,0.198,3.645,0.457c1.196,0.269,2.372,0.632,3.504,1.102
				c1.135,0.462,2.227,1.026,3.272,1.667c0.522,0.321,1.03,0.665,1.524,1.03c0.497,0.369,0.967,0.743,1.438,1.186l-0.679,0.057l0,0
				c0.917-1.259,1.708-2.619,2.321-4.062c0.625-1.438,1.094-2.948,1.434-4.487c0.342-1.54,0.545-3.112,0.639-4.692
				c0.086-1.577,0.074-3.175-0.106-4.738l-0.066-0.569l0.372,0.424l0,0l1.836,1.585l-0.818,0.209l0,0
				c0.429-1.706,0.608-3.479,0.515-5.246c-0.089-1.767-0.434-3.524-0.981-5.219c-0.548-1.696-1.294-3.331-2.188-4.883
				c-0.898-1.546-1.932-3.035-3.124-4.359l0,0l-0.252-0.218l0.345-0.079c0.389-0.089,0.759-0.116,1.143-0.12
				c0.381,0,0.764,0.028,1.142,0.091c0.377,0.067,0.756,0.149,1.122,0.275c0.37,0.116,0.726,0.271,1.079,0.438l0,0l-0.72,0.662
				c-0.94-2.03-2.046-3.987-3.376-5.779c-1.324-1.794-2.885-3.418-4.688-4.725c-1.8-1.306-3.851-2.275-6.028-2.767
				c-1.087-0.245-2.202-0.379-3.319-0.387c-1.112-0.005-2.248,0.094-3.311,0.375l-0.001,0l-0.395,0.153l0.182-0.399
				c0.194-0.424,0.421-0.809,0.673-1.189c0.252-0.377,0.525-0.742,0.825-1.087c0.299-0.345,0.616-0.677,0.96-0.983
				c0.338-0.313,0.707-0.592,1.084-0.863l0.001,0l0.144,0.873c-2.643-0.621-5.319-1.103-8.017-1.376
				c-2.697-0.276-5.418-0.309-8.113-0.055c-1.345,0.145-2.683,0.357-3.997,0.673c-1.312,0.322-2.599,0.747-3.836,1.289
				c-1.238,0.539-2.415,1.215-3.5,2.015c-0.539,0.404-1.056,0.838-1.534,1.312c-0.472,0.472-0.93,0.987-1.278,1.535l0,0
				l-0.452,0.935l0.124-1.057l0.501-4.259l0,0l0.711,0.561c-1.507,0.66-2.961,1.44-4.32,2.363l-0.508,0.348l-0.492,0.369
				c-0.333,0.241-0.641,0.511-0.96,0.77c-0.615,0.542-1.218,1.101-1.76,1.718c-0.546,0.612-1.054,1.258-1.51,1.941
				c-0.453,0.685-0.854,1.404-1.194,2.152c-0.342,0.747-0.617,1.525-0.821,2.322c-0.202,0.792-0.344,1.622-0.349,2.423l0,0
				l0.056,0.382l-0.346-0.238l-2.03-1.394l0,0l0.655-0.17c-0.288,0.716-0.513,1.457-0.654,2.216
				c-0.141,0.759-0.197,1.535-0.172,2.313c0.046,1.56,0.431,3.104,0.887,4.627l0,0l0.11,0.267l-0.312-0.039
				c-0.581-0.072-1.136-0.281-1.647-0.555c-0.255-0.139-0.502-0.292-0.739-0.46c-0.24-0.171-0.46-0.34-0.693-0.557l0,0l0.776-0.211
				c-0.516,2.386-0.918,4.791-1.08,7.217c-0.169,2.424-0.088,4.865,0.261,7.271c0.35,2.406,0.966,4.775,1.831,7.055
				c0.431,1.14,0.916,2.261,1.451,3.358c0.277,0.544,0.547,1.092,0.846,1.625c0.145,0.266,0.299,0.547,0.427,0.772
				C30.337,69.13,30.457,69.375,30.584,69.634z"/>
		</g>
	</g>
	<g>
		
			<ellipse transform="matrix(0.0207 -0.9998 0.9998 0.0207 4.3233 109.6737)" class="st5" cx="58.148" cy="52.63" rx="14.682" ry="7.562"/>
	</g>
	<g>
		<path class="st6" d="M48.571,36.186c-14.206-3.316-16.822,8.036-16.822,8.036s-2.224-1.871-2.016-7.578
			c1.552,4.176,2.889,4.621,3.842,4.886c0.369,0.102,0,0-0.152-0.351c-2.646-6.108,1.909-14.527,6.4-17.388
			c-1.326,4.442-0.713,7.113,0.471,10.241c0.235-0.932-0.718-14.607,26.741-14.037c0,0-3.599,3.63-3.821,6.765
			c4.574-2.573,15.366-0.923,23.166,6.143c0,0-3.768-1.053-5.068,0.888c6.505,3.982,9.832,11.798,8.914,17.241
			c-2.32-2.879-10.065-14.868-13.307-11.8c-4.524-5.112-14.59,0.45-18.432,7.372C58.487,46.604,51.426,36.852,48.571,36.186z"/>
	</g>
	<g>
		<g>
			<path class="st7" d="M53.924,50.82c0.214,7.461-0.741,13.792-6.708,14.612c-4.638,0.638-9.198-5.068-10.403-11.689
				c-1.345-7.395-1.817-13.781,6.598-15.983S53.639,40.868,53.924,50.82z"/>
		</g>
		<g>
			<path d="M54.205,50.812c0.055,1.571,0.064,3.147-0.036,4.726c-0.105,1.576-0.311,3.162-0.786,4.701
				c-0.241,0.767-0.549,1.522-0.97,2.225c-0.418,0.703-0.948,1.355-1.594,1.882c-0.643,0.531-1.395,0.926-2.181,1.182
				c-0.394,0.127-0.796,0.223-1.201,0.288c-0.407,0.069-0.838,0.097-1.258,0.074c-0.845-0.039-1.666-0.28-2.412-0.637
				c-0.749-0.355-1.427-0.829-2.035-1.367c-1.215-1.08-2.188-2.384-2.953-3.783c-0.767-1.399-1.347-2.89-1.75-4.421
				c-0.2-0.765-0.354-1.547-0.478-2.321c-0.127-0.774-0.245-1.55-0.345-2.33c-0.202-1.557-0.346-3.13-0.279-4.711
				c0.067-1.572,0.383-3.181,1.191-4.576c0.405-0.692,0.926-1.317,1.527-1.845c0.6-0.533,1.284-0.959,1.997-1.31
				c0.713-0.353,1.463-0.62,2.223-0.834c0.761-0.212,1.532-0.381,2.316-0.489c0.783-0.101,1.578-0.152,2.37-0.078
				c0.789,0.076,1.579,0.275,2.29,0.649c0.712,0.372,1.325,0.922,1.803,1.562c0.481,0.641,0.844,1.358,1.13,2.098
				c0.567,1.486,0.856,3.052,1.061,4.612C54.038,47.672,54.138,49.243,54.205,50.812z M53.643,50.828
				c-0.027-1.561-0.087-3.121-0.245-4.669c-0.163-1.545-0.409-3.091-0.926-4.549c-0.262-0.725-0.59-1.43-1.045-2.048
				c-0.45-0.619-1.024-1.148-1.697-1.512c-0.67-0.37-1.429-0.567-2.196-0.634c-0.768-0.07-1.547-0.022-2.313,0.099
				c-1.53,0.253-3.04,0.7-4.42,1.385c-0.688,0.347-1.334,0.771-1.912,1.272c-0.577,0.502-1.074,1.093-1.464,1.751
				c-0.789,1.317-1.129,2.868-1.209,4.412c-0.046,0.775-0.022,1.554,0.036,2.33c0.06,0.776,0.144,1.552,0.266,2.323
				c0.12,0.771,0.258,1.54,0.406,2.308c0.141,0.769,0.314,1.521,0.545,2.262c0.455,1.48,1.081,2.905,1.876,4.221
				c0.8,1.309,1.752,2.533,2.91,3.503c0.58,0.48,1.204,0.902,1.872,1.216c0.668,0.313,1.381,0.51,2.101,0.556
				c0.362,0.023,0.717,0.005,1.083-0.054c0.368-0.056,0.732-0.134,1.085-0.242c0.705-0.217,1.369-0.551,1.943-1.009
				c1.162-0.911,1.915-2.279,2.383-3.721c0.471-1.452,0.696-2.991,0.821-4.535C53.662,53.947,53.676,52.387,53.643,50.828z"/>
		</g>
	</g>
	<g>
		<path d="M56.102,50.488c0.377,7.503-0.826,13.177-6.805,13.911c-4.414,0.542-9.102-4.367-10.306-10.988
			c-1.345-7.395-1.817-13.781,6.598-15.983C54.003,35.226,55.557,39.644,56.102,50.488z"/>
		<path d="M48.613,64.588c-4.328,0-8.613-4.81-9.767-11.15c-1.368-7.519-1.808-13.924,6.706-16.153
			c3.3-0.863,5.576-0.724,7.165,0.44c2.501,1.832,3.206,6.239,3.534,12.755l0,0c0.215,4.277-0.112,7.313-1.03,9.557
			c-1.096,2.68-3.027,4.155-5.904,4.508C49.081,64.574,48.847,64.588,48.613,64.588z M49.253,37.025
			c-1.037,0-2.237,0.183-3.627,0.546c-8.268,2.164-7.831,8.442-6.49,15.814c1.189,6.533,5.74,11.405,10.143,10.867
			c5.063-0.621,7.122-4.864,6.675-13.757l0,0c-0.323-6.43-1.007-10.769-3.413-12.531C51.685,37.337,50.608,37.025,49.253,37.025z"/>
	</g>
	<g>
		<g>
			<path class="st7" d="M62.764,52.309c0.884,7.46,4.315,14.156,10.314,13.588c4.663-0.441,7.606-6.866,7.456-13.76
				c-0.156-7.188-1.385-13.831-10.085-14.049C61.75,37.871,61.41,40.893,62.764,52.309z"/>
		</g>
		<g>
			<path d="M63.019,52.278c0.201,1.554,0.511,3.093,0.96,4.588c0.45,1.492,1.036,2.947,1.825,4.273
				c0.787,1.321,1.79,2.526,3.052,3.342c1.256,0.82,2.772,1.165,4.256,0.995c0.725-0.078,1.425-0.327,2.057-0.704
				c0.633-0.376,1.194-0.881,1.691-1.446c0.99-1.141,1.7-2.533,2.214-3.984c0.513-1.456,0.829-2.985,0.988-4.53
				c0.082-0.772,0.124-1.55,0.126-2.327c-0.003-0.779-0.023-1.569-0.06-2.35c-0.08-1.564-0.238-3.125-0.598-4.637
				c-0.361-1.505-0.944-2.973-1.904-4.175c-0.477-0.6-1.049-1.123-1.689-1.547c-0.639-0.427-1.35-0.745-2.087-0.978
				c-0.738-0.234-1.507-0.375-2.282-0.458c-0.774-0.08-1.561-0.093-2.347-0.09c-0.784,0.007-1.568,0.048-2.339,0.162
				c-0.768,0.115-1.532,0.31-2.206,0.675c-0.676,0.359-1.237,0.91-1.591,1.588c-0.36,0.676-0.535,1.443-0.632,2.212
				c-0.186,1.548-0.09,3.127,0.037,4.693C62.625,49.147,62.819,50.713,63.019,52.278z M62.508,52.339
				c-0.169-1.572-0.33-3.146-0.434-4.728c-0.095-1.581-0.159-3.176,0.053-4.768c0.111-0.792,0.311-1.587,0.695-2.31
				c0.377-0.726,0.993-1.329,1.714-1.708c0.72-0.387,1.512-0.585,2.299-0.717c0.79-0.127,1.587-0.177,2.382-0.194
				c0.793-0.013,1.589-0.009,2.387,0.063c0.796,0.076,1.59,0.211,2.361,0.446c0.771,0.231,1.517,0.562,2.203,0.997
				c0.685,0.435,1.304,0.979,1.823,1.605c1.045,1.256,1.684,2.787,2.087,4.335c0.404,1.556,0.594,3.149,0.705,4.736
				c0.053,0.796,0.089,1.584,0.107,2.385c0.013,0.802-0.016,1.604-0.086,2.404c-0.148,1.598-0.461,3.187-0.984,4.717
				c-0.526,1.525-1.256,3.008-2.329,4.27c-0.536,0.628-1.167,1.192-1.894,1.621c-0.724,0.43-1.547,0.721-2.395,0.809
				c-0.83,0.088-1.677,0.046-2.493-0.154c-0.816-0.197-1.589-0.553-2.281-1.012c-1.387-0.929-2.431-2.243-3.227-3.643
				c-0.8-1.407-1.372-2.918-1.804-4.456C62.967,55.495,62.682,53.921,62.508,52.339z"/>
		</g>
	</g>
	<g>
		<g>
			<path d="M64.992,51.392c1.034,7.441,4.689,15.482,10.258,13.179c3.29-1.361,7.311-6.329,7.523-13.055
				c0.299-9.49-1.385-13.831-10.085-14.049S63.458,40.345,64.992,51.392z"/>
		</g>
		<g>
			<path d="M65.271,51.353c0.226,1.536,0.552,3.057,0.991,4.542c0.441,1.484,0.991,2.937,1.71,4.294
				c0.36,0.677,0.765,1.329,1.227,1.928c0.462,0.599,0.988,1.145,1.585,1.576c0.595,0.43,1.268,0.737,1.972,0.837
				c0.703,0.106,1.427-0.001,2.107-0.253c0.683-0.253,1.325-0.648,1.923-1.098c0.602-0.449,1.153-0.973,1.663-1.534
				c0.512-0.561,0.981-1.165,1.403-1.801c0.42-0.638,0.792-1.309,1.125-1.999c0.663-1.383,1.132-2.865,1.389-4.388
				c0.133-0.762,0.201-1.53,0.228-2.31c0.03-0.78,0.049-1.56,0.045-2.34c0-0.78-0.038-1.559-0.106-2.334
				c-0.071-0.774-0.168-1.548-0.344-2.303c-0.172-0.755-0.404-1.497-0.733-2.191c-0.331-0.693-0.758-1.339-1.293-1.881
				c-0.533-0.544-1.162-0.991-1.85-1.324c-0.688-0.335-1.424-0.572-2.175-0.746c-1.508-0.339-3.071-0.434-4.628-0.436
				c-0.778,0.004-1.558,0.036-2.325,0.151c-0.764,0.115-1.526,0.297-2.21,0.643c-0.684,0.341-1.27,0.862-1.655,1.516
				c-0.39,0.653-0.59,1.407-0.699,2.167c-0.108,0.762-0.127,1.539-0.11,2.315c0.018,0.776,0.076,1.552,0.151,2.328
				C64.816,48.261,65.037,49.808,65.271,51.353z M64.714,51.43c-0.194-1.555-0.376-3.114-0.489-4.683
				c-0.055-0.784-0.093-1.571-0.091-2.361c0.003-0.789,0.041-1.582,0.173-2.367c0.133-0.782,0.361-1.566,0.783-2.258
				c0.42-0.693,1.059-1.242,1.781-1.588c0.724-0.346,1.501-0.543,2.281-0.66c0.782-0.114,1.569-0.166,2.355-0.187
				c1.568-0.031,3.156,0.017,4.709,0.355c0.775,0.166,1.54,0.411,2.258,0.769c0.717,0.354,1.385,0.825,1.939,1.408
				c0.556,0.582,0.993,1.267,1.325,1.991c0.332,0.725,0.562,1.489,0.729,2.261c0.335,1.547,0.44,3.123,0.489,4.692
				c0.025,0.785,0.027,1.571,0.017,2.355c-0.011,0.785-0.048,1.581-0.147,2.367c-0.195,1.575-0.609,3.127-1.234,4.598
				c-0.622,1.472-1.477,2.849-2.528,4.071c-1.068,1.198-2.34,2.278-3.919,2.862c-0.787,0.282-1.664,0.398-2.51,0.256
				c-0.848-0.134-1.633-0.516-2.295-1.011c-0.664-0.499-1.225-1.102-1.71-1.747c-0.485-0.646-0.9-1.335-1.265-2.045
				c-0.729-1.421-1.272-2.918-1.702-4.439C65.234,54.546,64.923,52.995,64.714,51.43z"/>
		</g>
	</g>
	<g>
		<g>
			<path class="st8" d="M28.831,52.165c2.893-5.186,12.608-18.753,26.027-10.603c0.78-10.673-14.803-13.186-22.671-3.238
				c3.007,0.285,3.322,0.647,3.322,0.647S29.974,40.191,28.831,52.165z"/>
		</g>
		<g>
			<g>
				<path d="M28.882,52.003c-0.002-0.044-0.017-0.087-0.036-0.113c-0.019-0.027-0.034-0.037-0.032-0.05
					c-0.004-0.003,0.029-0.058,0.046-0.09l0.06-0.11l0.243-0.439c0.163-0.292,0.336-0.578,0.509-0.864
					c0.35-0.57,0.714-1.131,1.095-1.681c0.758-1.104,1.593-2.155,2.489-3.155c1.788-1.997,3.861-3.788,6.263-5.068
					c1.2-0.635,2.479-1.138,3.81-1.449c1.331-0.306,2.711-0.425,4.073-0.318c1.364,0.094,2.702,0.414,3.97,0.888
					c1.269,0.476,2.462,1.12,3.576,1.863l0,0l-0.258,0.133c0.035-1.241-0.12-2.486-0.576-3.617
					c-0.225-0.565-0.507-1.104-0.853-1.599c-0.346-0.495-0.754-0.944-1.203-1.347c-0.9-0.805-1.979-1.401-3.123-1.806
					c-1.147-0.4-2.359-0.625-3.581-0.673c-2.446-0.102-4.914,0.43-7.148,1.463c-2.239,1.031-4.246,2.57-5.884,4.46l-0.117-0.275
					c0.57,0.021,1.141,0.05,1.716,0.105c0.287,0.028,0.575,0.061,0.867,0.111c0.146,0.024,0.293,0.055,0.443,0.092
					c0.076,0.021,0.152,0.041,0.233,0.07c0.04,0.013,0.083,0.032,0.127,0.051c0.025,0.012,0.046,0.021,0.074,0.038
					c0.035,0.025,0.038,0.011,0.129,0.099l0.002,0.002l0.425,0.469l-0.629,0.148c-0.1,0.024-0.258,0.079-0.388,0.135
					c-0.136,0.057-0.271,0.125-0.404,0.195c-0.266,0.144-0.521,0.315-0.765,0.501c-0.492,0.37-0.932,0.817-1.332,1.296
					c-0.797,0.966-1.426,2.082-1.919,3.255c-0.496,1.173-0.872,2.402-1.154,3.653c-0.142,0.626-0.263,1.257-0.367,1.891L29.12,51.2
					c-0.019,0.13-0.05,0.245-0.097,0.373C28.976,51.701,28.923,51.847,28.882,52.003z M28.781,52.328
					c-0.006-0.166-0.024-0.341-0.035-0.535c-0.012-0.193-0.008-0.399,0.008-0.591l0.013-0.143l0.015-0.122l0.03-0.242l0.061-0.484
					c0.088-0.645,0.194-1.287,0.321-1.927c0.253-1.279,0.603-2.544,1.081-3.767c0.476-1.223,1.097-2.404,1.919-3.458
					c0.414-0.523,0.874-1.018,1.405-1.441c0.264-0.213,0.543-0.411,0.841-0.583c0.15-0.085,0.302-0.167,0.463-0.239
					c0.166-0.074,0.311-0.136,0.524-0.193l-0.203,0.617l0.001,0.002c0.065,0.063,0.037,0.031,0.043,0.037
					c-0.002-0.003-0.013-0.009-0.019-0.014c-0.02-0.011-0.04-0.024-0.066-0.037c-0.05-0.026-0.109-0.05-0.167-0.074
					c-0.121-0.046-0.248-0.089-0.379-0.128c-0.261-0.079-0.532-0.145-0.805-0.205c-0.547-0.121-1.103-0.218-1.662-0.308
					l-0.284-0.045l0.166-0.23c1.494-2.065,3.497-3.802,5.817-4.946c2.312-1.15,4.919-1.751,7.522-1.628
					c1.298,0.062,2.598,0.299,3.824,0.76c1.225,0.455,2.386,1.128,3.34,2.041c0.962,0.9,1.695,2.047,2.106,3.289
					c0.411,1.244,0.516,2.566,0.367,3.839l-0.031,0.265l-0.227-0.132l0,0c-2.312-1.261-4.83-2.151-7.418-2.281
					c-2.582-0.147-5.173,0.488-7.469,1.703c-1.152,0.6-2.243,1.327-3.265,2.142c-1.024,0.814-1.989,1.708-2.891,2.665
					c-0.905,0.955-1.739,1.977-2.538,3.026c-0.398,0.526-0.779,1.065-1.148,1.613c-0.184,0.274-0.364,0.551-0.542,0.829
					l-0.264,0.419l-0.143,0.232c-0.039,0.059-0.094,0.122-0.155,0.167C28.879,52.27,28.823,52.3,28.781,52.328z"/>
			</g>
		</g>
	</g>
	<g>
		<g>
			<path class="st8" d="M88.151,52.94c-2.675-5.302-11.82-19.259-25.565-11.673c-0.336-10.696,15.337-12.56,22.786-2.295
				c-3.016,0.16-3.346,0.509-3.346,0.509S87.506,40.929,88.151,52.94z"/>
		</g>
		<g>
			<g>
				<path d="M88.194,53.105c-0.041-0.03-0.096-0.062-0.154-0.11c-0.058-0.048-0.111-0.113-0.148-0.174l-0.134-0.238l-0.246-0.43
					c-0.166-0.285-0.335-0.569-0.507-0.851c-0.345-0.563-0.704-1.117-1.08-1.659c-0.755-1.082-1.546-2.137-2.41-3.129
					c-0.861-0.993-1.788-1.927-2.778-2.782c-0.987-0.858-2.047-1.628-3.173-2.276c-2.243-1.309-4.805-2.05-7.391-2.011
					c-2.591,0.022-5.144,0.807-7.506,1.971l0,0l-0.232,0.123l-0.02-0.266c-0.096-1.278,0.064-2.595,0.526-3.821
					c0.462-1.224,1.241-2.34,2.24-3.199c0.99-0.873,2.179-1.497,3.421-1.901c1.244-0.41,2.552-0.592,3.852-0.6
					c2.605-0.015,5.185,0.694,7.448,1.939c2.271,1.239,4.199,3.057,5.607,5.183l0.157,0.236l-0.285,0.033
					c-0.562,0.066-1.122,0.141-1.674,0.238c-0.275,0.049-0.549,0.104-0.813,0.172c-0.132,0.033-0.261,0.071-0.384,0.112
					c-0.059,0.022-0.119,0.043-0.17,0.067c-0.027,0.011-0.048,0.024-0.068,0.034c-0.006,0.005-0.018,0.011-0.02,0.013
					c0.006-0.006-0.024,0.026,0.044-0.035l0.002-0.002l-0.178-0.625c0.21,0.066,0.353,0.134,0.515,0.215
					c0.157,0.079,0.306,0.167,0.453,0.258c0.291,0.185,0.562,0.394,0.816,0.618c0.513,0.445,0.953,0.958,1.344,1.498
					c0.778,1.086,1.349,2.293,1.774,3.534c0.428,1.242,0.724,2.521,0.924,3.809c0.101,0.644,0.18,1.291,0.241,1.938l0.041,0.486
					l0.02,0.243l0.01,0.123l0.007,0.143c0.008,0.192,0.004,0.398-0.016,0.591C88.232,52.765,88.207,52.94,88.194,53.105z
					 M88.107,52.776c-0.035-0.157-0.081-0.306-0.123-0.435c-0.042-0.13-0.068-0.246-0.082-0.377L87.8,51.028
					c-0.078-0.638-0.173-1.274-0.289-1.905c-0.23-1.262-0.555-2.505-1.002-3.698c-0.444-1.192-1.025-2.333-1.782-3.332
					c-0.38-0.496-0.801-0.96-1.277-1.351c-0.236-0.197-0.484-0.378-0.744-0.533c-0.13-0.076-0.262-0.15-0.395-0.212
					c-0.127-0.062-0.282-0.123-0.382-0.151l-0.622-0.174l0.444-0.451l0.002-0.002c0.095-0.084,0.096-0.07,0.133-0.094
					c0.029-0.015,0.05-0.023,0.075-0.035c0.045-0.017,0.089-0.034,0.129-0.045c0.082-0.026,0.159-0.043,0.236-0.06
					c0.152-0.031,0.3-0.055,0.447-0.073c0.294-0.038,0.582-0.059,0.871-0.075c0.576-0.031,1.148-0.037,1.719-0.034l-0.129,0.27
					c-1.558-1.956-3.5-3.577-5.694-4.7c-2.19-1.124-4.633-1.758-7.081-1.758c-1.223-0.002-2.443,0.172-3.606,0.524
					c-1.16,0.357-2.262,0.908-3.195,1.675c-0.465,0.384-0.891,0.816-1.257,1.296c-0.367,0.48-0.671,1.007-0.919,1.562
					c-0.502,1.112-0.709,2.349-0.725,3.59l-0.252-0.144l0,0c1.144-0.696,2.363-1.291,3.65-1.713c1.286-0.42,2.637-0.684,4.003-0.722
					c1.365-0.05,2.739,0.126,4.056,0.487c1.317,0.366,2.574,0.922,3.747,1.606c2.347,1.379,4.344,3.253,6.047,5.323
					c0.853,1.037,1.644,2.122,2.356,3.256c0.358,0.565,0.698,1.142,1.024,1.725c0.162,0.293,0.323,0.585,0.473,0.884l0.225,0.448
					l0.055,0.113c0.015,0.032,0.046,0.089,0.042,0.091c0.001,0.013-0.014,0.022-0.034,0.048
					C88.127,52.69,88.11,52.732,88.107,52.776z"/>
			</g>
		</g>
	</g>
	<g>
		
			<ellipse transform="matrix(0.0207 -0.9998 0.9998 0.0207 3.9617 94.7424)" class="st7" cx="50.345" cy="45.349" rx="3.687" ry="2.585"/>
		<path d="M50.306,49.238c-0.014,0-0.028,0-0.042,0c-1.537-0.032-2.751-1.803-2.706-3.947c0.044-2.144,1.324-3.863,2.868-3.831
			c1.537,0.032,2.751,1.803,2.706,3.947C53.088,47.531,51.824,49.238,50.306,49.238z M50.383,41.865c-1.298,0-2.38,1.53-2.419,3.434
			c-0.04,1.921,0.996,3.506,2.309,3.533c0.011,0,0.023,0,0.034,0c1.298,0,2.38-1.53,2.419-3.434c0.04-1.921-0.996-3.506-2.309-3.533
			C50.406,41.865,50.394,41.865,50.383,41.865z"/>
	</g>
	<g>
		
			<ellipse transform="matrix(0.0207 -0.9998 0.9998 0.0207 -5.3517 98.1848)" class="st7" cx="47.445" cy="51.824" rx="1.844" ry="1.292"/>
		<path d="M47.426,53.769c-0.007,0-0.014,0-0.021,0c-0.768-0.016-1.375-0.901-1.353-1.974c0.011-0.513,0.162-0.994,0.425-1.353
			c0.271-0.37,0.639-0.567,1.009-0.562c0.769,0.016,1.376,0.901,1.353,1.973C48.817,52.916,48.185,53.769,47.426,53.769z
			 M47.464,50.082c-0.305,0-0.597,0.17-0.824,0.48c-0.239,0.326-0.376,0.766-0.386,1.238c-0.02,0.96,0.498,1.753,1.155,1.767
			c0.006,0,0.012,0,0.017,0c0.649,0,1.19-0.765,1.21-1.717l0,0c0.02-0.96-0.498-1.753-1.155-1.766
			C47.476,50.082,47.47,50.082,47.464,50.082z"/>
	</g>
	<g>
		
			<ellipse transform="matrix(0.0207 -0.9998 0.9998 0.0207 28.8367 120.1387)" class="st7" cx="75.747" cy="45.349" rx="3.687" ry="2.585"/>
		<path d="M75.708,49.238c-0.014,0-0.028,0-0.042,0c-1.537-0.032-2.751-1.803-2.706-3.947c0.021-1.026,0.323-1.987,0.85-2.706
			c0.543-0.741,1.27-1.14,2.018-1.125c1.537,0.032,2.751,1.803,2.706,3.947v0C78.49,47.531,77.226,49.238,75.708,49.238z
			 M75.785,41.865c-0.61,0-1.194,0.339-1.648,0.959c-0.478,0.653-0.752,1.532-0.772,2.475c-0.04,1.921,0.996,3.506,2.309,3.533
			c0.011,0,0.023,0,0.034,0c1.298,0,2.38-1.53,2.419-3.434c0.04-1.921-0.996-3.506-2.309-3.533
			C75.808,41.865,75.796,41.865,75.785,41.865z"/>
	</g>
	<g>
		
			<ellipse transform="matrix(0.0207 -0.9998 0.9998 0.0207 19.5232 123.5811)" class="st7" cx="72.847" cy="51.824" rx="1.844" ry="1.292"/>
		<path d="M72.828,53.769c-0.007,0-0.014,0-0.021,0c-0.768-0.016-1.376-0.901-1.353-1.974c0.011-0.513,0.162-0.994,0.425-1.353
			c0.271-0.371,0.64-0.568,1.009-0.562c0.768,0.016,1.376,0.901,1.353,1.973c-0.011,0.513-0.161,0.994-0.425,1.353
			C73.55,53.57,73.199,53.769,72.828,53.769z M72.866,50.082c-0.305,0-0.597,0.17-0.824,0.48c-0.239,0.326-0.376,0.766-0.386,1.238
			c-0.02,0.96,0.498,1.753,1.155,1.767c0.312,0.002,0.61-0.164,0.841-0.479c0.239-0.326,0.376-0.766,0.386-1.238l0,0
			c0.02-0.96-0.498-1.753-1.155-1.766C72.878,50.082,72.872,50.082,72.866,50.082z"/>
	</g>
	<g>
		<path class="st9" d="M58.529,75.944c-0.47,0.013-0.938,0.039-1.394,0.054c-1.178,0.039-1.558,0.409-3.033,1.007
			c-0.724,0.294-1.505,0.604-1.888,1.285c-1.215-0.467-1.87-1.677-2.813-2.528c-1.444-1.303-1.456-2.907-1.781-3.689
			c-0.451-1.082,0.291-0.213,0.451-1.264c0.019-0.127,0.049-0.27,0.159-0.335c0.075-0.045,0.168-0.04,0.255-0.03
			c1.305,0.156,2.226,1.302,3.323,2.026c0.358,0.237,0.9-0.22,1.297-0.061c0.424,0.169,0.824-0.24,1.187-0.015
			c0.795,0.493,1.98,0.5,2.884,0.53c1.123,0.038,2.247,0.016,3.367-0.065c0.932-0.068,1.291,0.183,2.09-0.276l4.402-1.989
			c0.481-0.276,1.119-0.303,1.536,0.063c0.003,0.002,0.005,0.005,0.008,0.007c0.088,0.084,0.104,0.217,0.11,0.339
			c0.067,1.357-0.414,2.733-1.311,3.753c-0.579,0.658-0.968,1.391-1.357,2.167c-0.239,0.479-1.106,1.247-1.637,0.816
			c-0.941-0.763-2.027-1.218-3.205-1.554C60.331,75.944,59.426,75.92,58.529,75.944z"/>
	</g>
	<g>
		<path class="st10" d="M58.579,80.024c-0.893-0.042-1.783-0.156-2.658-0.341c-0.839-0.177-1.617-0.474-2.434-0.715
			c-0.523-0.154-1.711-0.384-0.897-1.081c0.614-0.526,1.358-0.902,2.106-1.197c0.783-0.309,1.484-0.352,2.288-0.531
			c1.058-0.235,1.923-0.33,2.991-0.148c1.016,0.173,1.872,0.547,2.849,0.877c0.569,0.192,1.179,0.399,1.531,0.921
			c0.269,0.399-2.93,2.025-3.226,2.099c-0.276,0.07-0.561,0.093-0.845,0.109C59.717,80.049,59.147,80.051,58.579,80.024z"/>
	</g>
	<g>
		<path d="M47.671,71.041c0.322,1.165,0.818,2.264,1.501,3.231c0.674,0.972,1.524,1.808,2.478,2.495
			c0.959,0.68,2.02,1.221,3.139,1.588c1.117,0.372,2.286,0.595,3.462,0.635c1.175,0.051,2.357-0.07,3.486-0.386
			c1.133-0.3,2.203-0.815,3.153-1.5c0.946-0.692,1.761-1.573,2.386-2.59c0.637-1.013,1.075-2.155,1.394-3.343l0.198,0.034
			c-0.125,1.242-0.458,2.479-1.022,3.626c-0.569,1.143-1.38,2.185-2.384,3.009c-0.996,0.836-2.179,1.435-3.415,1.828
			c-1.243,0.38-2.546,0.542-3.839,0.505c-2.583-0.09-5.152-0.951-7.2-2.549c-1.024-0.793-1.904-1.775-2.566-2.883
			c-0.657-1.11-1.094-2.344-1.262-3.602L47.671,71.041z"/>
	</g>
	<g>
		<path d="M52.189,78.287c0.701-0.907,1.694-1.586,2.766-2.026c0.271-0.102,0.545-0.201,0.821-0.291l0.845-0.213l0.861-0.128
			c0.289-0.02,0.579-0.043,0.869-0.055c1.159-0.018,2.324,0.146,3.419,0.524c1.092,0.373,2.13,0.955,2.926,1.777l-0.101,0.122
			c-0.94-0.599-1.959-1.009-3.011-1.272c-1.053-0.257-2.136-0.377-3.216-0.349c-0.269,0.021-0.539,0.029-0.808,0.044l-0.802,0.103
			l-0.794,0.153c-0.26,0.069-0.517,0.148-0.78,0.214c-1.029,0.326-2.011,0.813-2.894,1.498L52.189,78.287z"/>
	</g>
	<g>
		<g>
			<path class="st11" d="M73.84,59.576c-8.538,0.083-13.135,2.908-15.898,2.935c-2.763,0.027-7.415-2.708-15.952-2.625
				s-9.587,6.244-20.226,8.242c12.757,8.16,19.937-0.353,25.662,2.961c5.725,3.314,15.538,3.218,21.197-0.207
				c5.659-3.425,16.349,8.842,26.445-2.337C83.869,67.385,82.377,59.493,73.84,59.576z"/>
		</g>
		<g>
			<path d="M73.843,59.918c-2.255,0.049-4.501,0.318-6.692,0.815c-1.096,0.246-2.181,0.538-3.258,0.866
				c-1.078,0.331-2.146,0.693-3.254,1.023c-0.554,0.165-1.124,0.313-1.726,0.418c-0.303,0.049-0.614,0.088-0.941,0.094
				c-0.326,0.002-0.641-0.028-0.946-0.07c-1.208-0.192-2.293-0.544-3.388-0.85c-2.175-0.637-4.35-1.168-6.573-1.463
				c-1.11-0.15-2.227-0.245-3.347-0.292c-0.56-0.024-1.121-0.032-1.682-0.032l-0.826,0.021c-0.273,0.023-0.549,0.033-0.82,0.067
				c-1.088,0.123-2.163,0.348-3.184,0.746c-1.027,0.383-2.001,0.917-2.955,1.507c-0.954,0.592-1.893,1.237-2.861,1.851
				c-0.967,0.617-1.973,1.188-3.014,1.684c-2.087,0.991-4.317,1.648-6.577,2.01l0,0l0.066-0.339
				c1.369,0.822,2.794,1.546,4.275,2.115c1.481,0.567,3.021,0.966,4.584,1.152c1.562,0.199,3.144,0.185,4.71-0.001
				c1.569-0.18,3.118-0.531,4.69-0.882c1.569-0.337,3.196-0.715,4.927-0.56c0.858,0.078,1.726,0.322,2.498,0.741l0.527,0.284
				c0.167,0.095,0.345,0.173,0.518,0.259c0.172,0.087,0.352,0.161,0.53,0.238c0.177,0.08,0.358,0.15,0.539,0.219
				c1.449,0.562,2.981,0.935,4.534,1.151c1.554,0.222,3.132,0.284,4.702,0.226c1.571-0.063,3.136-0.269,4.66-0.629
				c1.519-0.371,3.008-0.881,4.365-1.623l0.519-0.292c0.197-0.113,0.404-0.21,0.615-0.291c0.423-0.164,0.865-0.262,1.303-0.309
				c0.88-0.093,1.735,0.005,2.55,0.171c1.633,0.339,3.151,0.903,4.672,1.409c1.517,0.513,3.032,0.995,4.579,1.299
				c1.544,0.308,3.121,0.42,4.671,0.236c1.548-0.186,3.057-0.696,4.416-1.489c1.361-0.79,2.585-1.822,3.681-2.976l0,0l0.119,0.309
				c-0.979-0.109-1.954-0.263-2.915-0.487c-0.959-0.233-1.903-0.532-2.818-0.903c-1.839-0.729-3.536-1.775-5.127-2.921
				c-1.596-1.139-3.128-2.362-4.839-3.234c-0.853-0.436-1.748-0.778-2.674-0.99C75.749,59.985,74.796,59.901,73.843,59.918z
				 M73.836,59.235c1.002,0.002,2.009,0.11,2.985,0.353c0.976,0.244,1.913,0.625,2.791,1.096c1.766,0.941,3.274,2.219,4.848,3.361
				c1.564,1.155,3.21,2.199,5.003,2.934c0.895,0.367,1.819,0.662,2.759,0.895c0.943,0.224,1.901,0.378,2.865,0.489l0.369,0.043
				l-0.25,0.267l0,0c-1.062,1.223-2.272,2.342-3.67,3.206c-1.389,0.873-2.969,1.467-4.605,1.717c-1.638,0.258-3.31,0.157-4.92-0.129
				c-1.615-0.284-3.178-0.75-4.714-1.236c-1.535-0.479-3.053-1.004-4.577-1.287c-0.759-0.137-1.521-0.213-2.242-0.127
				c-0.36,0.042-0.707,0.125-1.033,0.254c-0.163,0.064-0.32,0.14-0.471,0.229l-0.527,0.305c-1.457,0.815-3.024,1.388-4.623,1.779
				c-1.602,0.385-3.236,0.607-4.876,0.68c-1.64,0.074-3.286-0.005-4.913-0.243c-1.626-0.235-3.238-0.629-4.782-1.241
				c-0.193-0.076-0.385-0.154-0.574-0.242c-0.19-0.085-0.38-0.167-0.566-0.264c-0.186-0.095-0.375-0.182-0.556-0.287l-0.53-0.294
				c-0.638-0.355-1.345-0.564-2.085-0.642c-0.74-0.08-1.509-0.034-2.282,0.063c-0.774,0.096-1.554,0.243-2.339,0.398
				c-1.57,0.313-3.169,0.639-4.799,0.789c-1.628,0.155-3.283,0.138-4.905-0.112c-1.621-0.253-3.199-0.726-4.697-1.364
				c-1.501-0.633-2.918-1.436-4.258-2.34l-0.383-0.258l0.449-0.081l0,0c2.209-0.482,4.361-1.198,6.347-2.244
				c0.993-0.523,1.944-1.118,2.882-1.745c0.937-0.63,1.856-1.299,2.819-1.933c0.962-0.632,1.977-1.227,3.072-1.669
				c1.089-0.455,2.251-0.745,3.42-0.89c0.292-0.04,0.586-0.055,0.879-0.083l0.879-0.034c0.577-0.005,1.153-0.003,1.73,0.015
				c1.153,0.037,2.306,0.123,3.453,0.266c2.293,0.278,4.557,0.808,6.754,1.427c1.096,0.297,2.19,0.63,3.234,0.782
				c0.524,0.072,0.985,0.065,1.51-0.024c0.519-0.086,1.052-0.227,1.591-0.375c2.155-0.625,4.394-1.27,6.665-1.646
				C69.24,59.408,71.542,59.235,73.836,59.235z"/>
		</g>
	</g>
	<g class="st0">
		<path class="st1" d="M62.405,41.54c1.897-0.517,15.706-4.498,24.741,13.439c0.031-4.051-0.289-4.546-2.12-6.794
			s-3.924-5.718-7.751-7.342c-3.827-1.624-6.81-2.08-9.562-1.508C63.913,40.123,62.405,41.54,62.405,41.54z"/>
	</g>
	<g class="st0">
		<path class="st1" d="M54.859,41.562c-2.708-1.609-15.467-4.103-25.317,14.439c-0.108-3.691,0.044-5.424,1.536-7.329
			c1.493-1.905,4.331-5.568,8.787-7.987c2.926-1.589,4.993-2.102,8.345-1.561S54.859,41.562,54.859,41.562z"/>
	</g>
	<g class="st0">
		<path class="st1" d="M31.343,72.908c0.135,1.366,3.972,0.395,4.971,0.352c1.65-0.07,3.314-0.203,4.933-0.539
			c3.663-0.759,4.806-0.507,6.827,0.423c-0.455-1.071-0.004-2.335-0.004-2.335s-2.143-0.852-4.569-0.5
			c-2.426,0.352-4.928,1.621-7.509,1.465c-0.898-0.054-3.988-0.022-5.062-0.105C30.926,71.73,31.338,72.854,31.343,72.908z"/>
	</g>
	<g class="st0">
		<path class="st1" d="M68.49,72.723c2.226-0.605,3.303-1.356,4.991-0.406c3.232,1.82,10.015,3.19,10.848,3.225
			c0.833,0.036,0.705-1.941,0.705-1.941s-2.885-0.297-6.352-1.414s-6.822-2.176-8.088-1.908c-1.265,0.267-1.972,0.604-1.972,0.604
			S68.816,72.042,68.49,72.723z"/>
	</g>
	<g class="st0">
		<path class="st1" d="M53.987,78.394c0.723-0.789,8.017-0.986,9.528-0.131c0.986-0.329,0.986-0.329,0.986-0.329
			s-0.92-1.314-3.877-1.577c-2.957-0.263-5.423-0.159-8.034,1.53C53.067,78.329,53.987,78.394,53.987,78.394z"/>
	</g>
	<g>
		<g>
			<path class="st2" d="M52.909,85.953c2.074,2.663-7.344,9.2-11.66,7.411c-3.637-1.508-13.211-7.391-16.898-12.386
				c-4.535-6.142,13.973-23.523,17.231-15.959C45.699,74.573,47.903,79.525,52.909,85.953z"/>
		</g>
		<g>
			<path d="M53.448,85.533c0.214,0.266,0.367,0.607,0.422,0.949c0.058,0.343,0.03,0.675-0.038,0.969
				c-0.14,0.593-0.411,1.071-0.702,1.506c-0.596,0.86-1.31,1.558-2.068,2.19c-0.759,0.631-1.573,1.179-2.428,1.661
				c-0.855,0.482-1.752,0.898-2.703,1.207c-0.95,0.308-1.953,0.525-3.024,0.516c-0.534-0.008-1.087-0.076-1.634-0.255
				c-0.133-0.04-0.281-0.102-0.398-0.15l-0.338-0.149c-0.221-0.103-0.442-0.205-0.657-0.313c-1.723-0.854-3.343-1.825-4.934-2.849
				c-1.59-1.023-3.134-2.114-4.629-3.275c-1.493-1.162-2.942-2.389-4.284-3.747c-0.669-0.681-1.313-1.394-1.897-2.168l-0.218-0.291
				c-0.075-0.104-0.153-0.222-0.221-0.337c-0.137-0.234-0.25-0.482-0.337-0.736c-0.175-0.509-0.245-1.039-0.245-1.553
				c0.003-1.033,0.266-2.004,0.613-2.911c0.353-0.909,0.806-1.761,1.309-2.574c1.005-1.628,2.212-3.105,3.532-4.464
				c1.32-1.359,2.756-2.607,4.33-3.674c0.789-0.531,1.609-1.02,2.48-1.428c0.87-0.402,1.794-0.734,2.787-0.845
				c0.495-0.053,1.012-0.047,1.521,0.078c0.507,0.122,1.002,0.373,1.391,0.738c0.392,0.361,0.675,0.819,0.876,1.277l0.569,1.281
				c0.76,1.707,1.523,3.413,2.309,5.104c0.793,1.688,1.614,3.359,2.494,4.994c0.881,1.634,1.82,3.23,2.843,4.771
				C51.192,82.596,52.293,84.085,53.448,85.533z M52.37,86.373c-1.14-1.503-2.227-3.052-3.232-4.653
				c-1.008-1.6-1.927-3.253-2.77-4.938c-0.845-1.684-1.624-3.394-2.374-5.112c-0.755-1.716-1.483-3.44-2.208-5.165l-0.542-1.294
				c-0.163-0.401-0.386-0.753-0.679-1.031c-0.583-0.565-1.456-0.738-2.321-0.644c-0.87,0.094-1.734,0.399-2.556,0.78
				c-0.824,0.385-1.615,0.855-2.371,1.378c-1.512,1.047-2.905,2.275-4.174,3.613c-1.26,1.345-2.406,2.804-3.338,4.377
				c-0.459,0.789-0.863,1.608-1.164,2.452c-0.297,0.841-0.498,1.717-0.475,2.56c0.011,0.42,0.081,0.828,0.221,1.2
				c0.07,0.186,0.157,0.363,0.261,0.53c0.053,0.084,0.106,0.16,0.17,0.244l0.21,0.264c0.565,0.702,1.196,1.363,1.859,1.993
				c1.33,1.26,2.779,2.409,4.273,3.495c1.497,1.083,3.044,2.103,4.62,3.07c0.789,0.482,1.587,0.948,2.394,1.394
				c0.805,0.447,1.618,0.882,2.438,1.268c0.205,0.098,0.41,0.189,0.614,0.281l0.306,0.129c0.101,0.039,0.168,0.067,0.26,0.093
				c0.344,0.107,0.73,0.153,1.13,0.151c0.803,0.001,1.652-0.181,2.479-0.44c1.658-0.535,3.272-1.384,4.684-2.448
				c0.7-0.534,1.362-1.132,1.851-1.798c0.241-0.329,0.439-0.681,0.524-0.999c0.044-0.159,0.055-0.302,0.039-0.421
				C52.481,86.577,52.444,86.476,52.37,86.373z"/>
		</g>
	</g>
	<g>
		<g>
			<path class="st2" d="M63.71,85.953c-2.074,2.663,7.344,9.2,11.66,7.411c3.637-1.508,13.211-7.391,16.898-12.386
				c4.535-6.142-13.973-23.523-17.231-15.959C70.921,74.573,68.716,79.525,63.71,85.953z"/>
		</g>
		<g>
			<path d="M64.249,86.373c-0.073,0.104-0.111,0.204-0.127,0.325c-0.016,0.12-0.005,0.263,0.039,0.421
				c0.084,0.318,0.283,0.67,0.524,0.999c0.489,0.666,1.15,1.265,1.851,1.798c1.412,1.064,3.026,1.913,4.684,2.448
				c0.828,0.26,1.676,0.442,2.479,0.44c0.4,0.002,0.786-0.044,1.13-0.151c0.092-0.026,0.159-0.054,0.26-0.093l0.306-0.129
				c0.205-0.091,0.409-0.182,0.614-0.281c0.82-0.386,1.633-0.821,2.438-1.268c0.807-0.446,1.605-0.912,2.394-1.394
				c1.576-0.967,3.123-1.986,4.62-3.07c1.494-1.086,2.943-2.235,4.273-3.495c0.663-0.63,1.294-1.291,1.859-1.993l0.21-0.264
				c0.064-0.083,0.117-0.159,0.17-0.244c0.104-0.166,0.191-0.343,0.261-0.53c0.14-0.372,0.209-0.78,0.221-1.2
				c0.023-0.842-0.177-1.718-0.475-2.56c-0.301-0.844-0.705-1.663-1.164-2.452c-0.932-1.573-2.078-3.032-3.338-4.377
				c-1.269-1.338-2.662-2.566-4.174-3.613c-0.755-0.523-1.546-0.993-2.371-1.378c-0.822-0.381-1.686-0.686-2.556-0.78
				c-0.865-0.094-1.737,0.079-2.321,0.644c-0.294,0.278-0.516,0.631-0.679,1.031l-0.542,1.294c-0.725,1.725-1.454,3.449-2.208,5.165
				c-0.751,1.718-1.529,3.429-2.374,5.112c-0.843,1.684-1.762,3.338-2.77,4.938C66.476,83.321,65.389,84.87,64.249,86.373z
				 M63.171,85.533c1.156-1.449,2.256-2.937,3.278-4.479c1.023-1.541,1.963-3.137,2.843-4.771c0.88-1.634,1.701-3.306,2.494-4.994
				c0.786-1.691,1.549-3.397,2.309-5.104l0.569-1.281c0.201-0.458,0.484-0.917,0.876-1.277c0.389-0.365,0.884-0.615,1.391-0.738
				c0.509-0.125,1.026-0.131,1.521-0.078c0.994,0.111,1.917,0.442,2.787,0.845c0.87,0.407,1.691,0.897,2.48,1.428
				c1.574,1.067,3.01,2.315,4.33,3.674c1.32,1.359,2.527,2.836,3.532,4.464c0.503,0.813,0.956,1.665,1.309,2.574
				c0.347,0.908,0.61,1.879,0.613,2.911c0,0.514-0.07,1.044-0.245,1.553c-0.087,0.254-0.2,0.502-0.337,0.736
				c-0.068,0.116-0.146,0.233-0.221,0.337l-0.218,0.291c-0.584,0.774-1.228,1.487-1.897,2.168c-1.342,1.358-2.792,2.585-4.284,3.747
				c-1.494,1.161-3.039,2.252-4.629,3.275c-1.591,1.024-3.211,1.995-4.934,2.849c-0.215,0.107-0.436,0.21-0.657,0.313l-0.338,0.149
				c-0.116,0.048-0.265,0.11-0.398,0.15c-0.547,0.179-1.101,0.247-1.634,0.255c-1.071,0.009-2.074-0.208-3.024-0.516
				c-0.951-0.309-1.848-0.725-2.703-1.207c-0.855-0.482-1.669-1.031-2.428-1.661c-0.758-0.632-1.472-1.329-2.068-2.19
				c-0.291-0.435-0.562-0.912-0.702-1.506c-0.068-0.295-0.097-0.627-0.038-0.969C62.805,86.14,62.957,85.799,63.171,85.533z"/>
		</g>
	</g>
	<g class="st0">
		<path class="st1" d="M96.179,24.727c0.203,0.203,5.952,7.751,5.592,10.166c-0.508,3.406-9.557,14.182-9.557,14.182l-0.7,5.907
			l-1.537-1.637l0.051,5.236c0,0,5.185-9.048,6.1-10.319c0.915-1.271,12.149-12.251,12.149-12.251L96.179,24.727z"/>
	</g>
	<g class="st0">
		<path class="st1" d="M24.17,79.761c-1.342,2.016-2.687,7.248-4.186,7.594c-2.403,0.554-4.099-2.32-7.339-0.942
			s-8.229,2.614-9.154,2.548c1.387,0.635,2.358,0.646,2.722,0.713c0.364,0.068,5.625-0.99,8.363-1.197
			c1.414-0.107,6.982,1.486,6.982,1.486s1.019-2.189,1.752-3.075s3.182-3.619,3.182-3.619L24.17,79.761z"/>
	</g>
	<g class="st0">
		<path class="st1" d="M31.52,86.794c1.474,0.864,7.778,3.336,10.471,3.507c3.202,0.203,8.54-1.881,10.268-4.88
			c0,0,1.169,1.22,0.813,2.084s-2.186,3.457-3.914,4.321c-1.728,0.864-6.354,2.694-8.032,1.881
			C39.45,92.894,31.52,86.794,31.52,86.794z"/>
	</g>
	<g class="st0">
		<path class="st1" d="M85.352,86.59c-1.474,0.864-7.778,3.336-10.471,3.507c-3.202,0.203-8.54-1.881-10.268-4.88
			c0,0-1.169,1.22-0.813,2.084c0.356,0.864,2.186,3.457,3.914,4.321s6.354,2.694,8.032,1.881
			C77.422,92.69,85.352,86.59,85.352,86.59z"/>
	</g>
	<g>
		<g>
			<path class="st12" d="M86.394,15.814c0,0-0.257-6.955-0.424-10.288c-0.136-2.723-0.184-2.672,2.585-2.808
				c2.769-0.136,10.288-0.424,10.288-0.424l8.577,8.083L95.156,23.792L86.394,15.814z"/>
		</g>
		<g>
			<path d="M86.281,15.866c-0.178-2.091-0.297-4.23-0.399-6.369c-0.057-1.069-0.089-2.143-0.134-3.213l-0.067-1.602
				c-0.008-0.269-0.015-0.539,0.007-0.824c0.008-0.072,0.012-0.143,0.023-0.216l0.049-0.225c0.026-0.077,0.06-0.155,0.093-0.232
				c0.049-0.073,0.098-0.151,0.158-0.214c0.13-0.127,0.282-0.21,0.429-0.263c0.073-0.022,0.146-0.047,0.218-0.065l0.212-0.04
				c0.279-0.044,0.549-0.063,0.817-0.079c0.535-0.032,1.063-0.05,1.595-0.066l3.185-0.106c2.123-0.077,4.247-0.121,6.371-0.182l0,0
				l0.052-0.002l0.038,0.036l8.576,8.083l0.089,0.084l-0.082,0.09L95.247,23.876l-0.084,0.091l-0.091-0.083L86.281,15.866z
				 M86.506,15.761l8.733,7.939l-0.175,0.008l12.264-13.416l0.006,0.174l-8.577-8.083l0.09,0.034l0,0
				c-2.121,0.114-4.241,0.245-6.362,0.343l-3.181,0.157l-1.587,0.084C87.456,3.019,87.196,3.04,86.95,3.08
				c-0.247,0.037-0.47,0.11-0.588,0.23c-0.12,0.113-0.168,0.341-0.183,0.587c-0.018,0.244-0.011,0.506-0.002,0.767l0.074,1.581
				c0.043,1.052,0.098,2.1,0.128,3.153C86.453,11.503,86.51,13.609,86.506,15.761z"/>
		</g>
	</g>
	<g>
		<g>
			<g>
				<path class="st13" d="M87.382,6.95c0.377-0.409-0.073-1.807,0.454-2.389c0.566-0.624,1.978-0.194,2.358-0.606
					c0.17-0.184,0.059-0.768-0.064-1.31c-0.607,0.027-1.147,0.051-1.574,0.072c-2.769,0.136-2.722,0.085-2.585,2.808
					c0.023,0.459,0.048,0.989,0.073,1.558C86.599,7.121,87.206,7.142,87.382,6.95z"/>
			</g>
			<g>
				<path d="M87.29,6.866c0.118-0.143,0.131-0.424,0.137-0.674c0.004-0.258-0.005-0.524,0.013-0.796
					c0.023-0.268,0.055-0.558,0.225-0.814c0.174-0.257,0.464-0.395,0.734-0.45c0.273-0.06,0.543-0.072,0.806-0.083
					c0.261-0.012,0.527-0.017,0.744-0.088c0.049-0.021,0.1-0.042,0.13-0.073c0.022-0.015,0.029-0.025,0.038-0.04
					c0.009-0.016,0.016-0.038,0.022-0.062c0.022-0.102,0.019-0.228,0.007-0.352c-0.025-0.251-0.081-0.506-0.138-0.761l0-0.001
					l0.126,0.097c-0.667,0.051-1.334,0.095-2.002,0.136c-0.332,0.025-0.666,0.039-0.988,0.08c-0.318,0.039-0.646,0.102-0.824,0.276
					c-0.174,0.172-0.209,0.502-0.222,0.82c-0.013,0.323,0.008,0.657,0.015,0.99c0.026,0.668,0.041,1.338,0.053,2.007L86.051,6.96
					l0,0c0.227,0.015,0.453,0.028,0.674,0.024c0.11-0.002,0.22-0.009,0.323-0.026C87.151,6.942,87.253,6.907,87.29,6.866z
					 M87.473,7.034c-0.128,0.123-0.262,0.143-0.382,0.167c-0.123,0.02-0.242,0.027-0.36,0.03c-0.236,0.005-0.467-0.009-0.696-0.024
					l0,0l-0.107-0.004l-0.009-0.114c-0.053-0.667-0.097-1.334-0.138-2.002c-0.021-0.336-0.038-0.67-0.031-1.016
					c-0.001-0.085,0.005-0.173,0.014-0.262c0.005-0.088,0.017-0.177,0.039-0.269c0.029-0.18,0.119-0.378,0.263-0.531
					c0.079-0.07,0.16-0.138,0.25-0.175c0.088-0.051,0.177-0.075,0.266-0.101c0.177-0.049,0.351-0.076,0.521-0.094
					c0.343-0.039,0.677-0.054,1.013-0.066c0.669-0.026,1.338-0.04,2.008-0.051L90.23,2.52l0.02,0.098l0,0.001
					c0.058,0.258,0.115,0.519,0.143,0.792c0.012,0.137,0.02,0.277-0.013,0.434c-0.011,0.04-0.023,0.081-0.046,0.123
					c-0.023,0.043-0.059,0.084-0.091,0.107c-0.065,0.061-0.139,0.091-0.21,0.121c-0.287,0.092-0.555,0.088-0.818,0.103
					c-0.262,0.011-0.52,0.024-0.762,0.077c-0.243,0.049-0.458,0.163-0.583,0.346c-0.127,0.185-0.164,0.442-0.183,0.692
					c-0.018,0.254-0.008,0.515-0.013,0.783c-0.004,0.135-0.006,0.269-0.029,0.411C87.621,6.746,87.591,6.899,87.473,7.034z"/>
			</g>
		</g>
	</g>
	<g>
		<g>
			<path class="st14" d="M115.381,42.375l-6.271-5.774c-1.012-0.932-1.078-2.523-0.146-3.536l9.041-9.819
				c0.932-1.012,2.523-1.078,3.536-0.146l6.271,5.774c1.012,0.932,1.078,2.523,0.146,3.536l-9.041,9.819
				C117.985,43.242,116.394,43.307,115.381,42.375z"/>
		</g>
		<g>
			<path d="M115.242,42.526l-5.435-5.069l-0.679-0.634c-0.228-0.207-0.465-0.46-0.621-0.745c-0.326-0.571-0.424-1.263-0.277-1.901
				c0.072-0.319,0.205-0.624,0.389-0.895c0.189-0.276,0.414-0.489,0.62-0.718l1.263-1.363l5.047-5.455
				c0.847-0.909,1.668-1.82,2.537-2.727c0.476-0.437,1.12-0.68,1.763-0.678c0.644-0.003,1.287,0.244,1.763,0.681l5.473,5.027
				l0.684,0.628c0.23,0.205,0.466,0.448,0.625,0.73c0.333,0.561,0.435,1.248,0.306,1.89c-0.064,0.322-0.19,0.633-0.369,0.911
				c-0.043,0.071-0.09,0.139-0.144,0.202c-0.052,0.065-0.104,0.132-0.154,0.187l-0.307,0.349l-1.228,1.395
				c-0.826,0.923-1.656,1.842-2.497,2.751c-0.836,0.914-1.677,1.823-2.521,2.729l-1.266,1.36l-0.634,0.679l-0.317,0.34l-0.158,0.17
				l-0.18,0.176c-0.502,0.456-1.177,0.709-1.849,0.702C116.401,43.248,115.733,42.984,115.242,42.526z M115.521,42.224
				c0.422,0.382,0.987,0.595,1.553,0.588c0.566-0.002,1.126-0.222,1.536-0.606l0.15-0.151l0.156-0.172l0.312-0.344l0.624-0.688
				l1.251-1.374c0.833-0.916,1.67-1.829,2.512-2.738c0.837-0.913,1.685-1.816,2.536-2.716l1.289-1.339
				c0.213-0.227,0.443-0.44,0.605-0.668c0.167-0.234,0.291-0.502,0.361-0.784c0.144-0.565,0.058-1.188-0.228-1.702
				c-0.144-0.262-0.335-0.477-0.566-0.685l-0.683-0.63l-5.461-5.04c-0.437-0.403-1.027-0.632-1.622-0.63
				c-0.595-0.003-1.186,0.227-1.622,0.629c-0.84,0.886-1.675,1.818-2.512,2.725l-5.02,5.479l-1.254,1.371
				c-0.207,0.232-0.431,0.451-0.59,0.689c-0.163,0.242-0.279,0.515-0.342,0.8c-0.127,0.57-0.036,1.187,0.257,1.691
				c0.147,0.258,0.337,0.463,0.569,0.669l0.687,0.625L115.521,42.224z"/>
		</g>
	</g>
	<g>
		<path class="st15" d="M98.965,2.518c-1.416-1.304,2.476,5.846,1.556,6.846s-5.69-1.28-7.062,0.232
			c-1.279,1.41,1.158,6.038,0.244,7.03c-0.914,0.993-8.029-1.66-7.039-0.749c1.097,1.01,17.761,16.354,17.761,16.354l2.788-3.028
			l0.149-0.161l6.596-7.164l0.135-0.146l2.634-2.86C116.726,18.872,100.53,3.959,98.965,2.518z"/>
	</g>
	<g class="st16">
		<polygon class="st7" points="116.562,18.988 113.856,21.873 100.714,9.496 98.75,2.283 		"/>
	</g>
	<g>
		<rect x="107.161" y="6.444" transform="matrix(0.6774 -0.7356 0.7356 0.6774 23.0906 83.9771)" width="0.248" height="18.439"/>
	</g>
	<g>
		<rect x="100.412" y="13.741" transform="matrix(0.6775 -0.7355 0.7355 0.6775 15.5221 81.351)" width="0.248" height="18.465"/>
	</g>
	<g>
		<g>
			
				<rect x="105.368" y="24.249" transform="matrix(0.6774 -0.7356 0.7356 0.6774 15.4968 93.683)" class="st17" width="18.37" height="9.85"/>
		</g>
		<g>
			<path d="M111.959,39.391l-7.409-6.624l-0.174-0.155l0.16-0.174l12.462-13.496l0.142-0.154l0.151,0.142l7.189,6.734l0.09,0.085
				l-0.083,0.09L111.959,39.391z M111.949,39.144l12.357-13.474l0.007,0.175l-7.303-6.61l0.293-0.012l-12.424,13.531l-0.014-0.329
				L111.949,39.144z"/>
		</g>
	</g>
	<g>
		<g>
			<g>
				<polygon class="st17" points="104.925,23.128 106.884,24.932 109.129,24.461 109.414,22.185 107.454,20.381 105.209,20.852 				
					"/>
			</g>
			<g>
				<path d="M105.024,23.091l1.932,1.763l-0.094-0.026l2.22-0.589l-0.178,0.194l0.404-2.261l0.033,0.091l-1.96-1.804l0.094,0.026
					l-2.217,0.6l0.187-0.203L105.024,23.091z M104.825,23.164l0.148-2.342l0.011-0.177l0.176-0.027l2.272-0.342l0.057-0.009
					l0.037,0.034l1.96,1.804l0.038,0.035l-0.004,0.057l-0.165,2.291l-0.012,0.168l-0.166,0.026l-2.269,0.354l-0.057,0.009
					l-0.037-0.035L104.825,23.164z"/>
			</g>
		</g>
		<g>
			<g>
				<path class="st7" d="M105.587,22.385l1.137-1.235l0.33,0.304l0.215,1.249c0.068,0.322,0.16,0.536,0.276,0.643
					c0.094,0.087,0.181,0.136,0.261,0.148c0.08,0.012,0.149-0.014,0.207-0.077c0.057-0.062,0.071-0.143,0.042-0.242
					c-0.03-0.099-0.094-0.194-0.192-0.284l0.378-0.411c0.134,0.124,0.233,0.265,0.297,0.424s0.083,0.316,0.058,0.471
					c-0.025,0.155-0.092,0.293-0.202,0.412c-0.176,0.191-0.366,0.288-0.57,0.291s-0.408-0.09-0.613-0.278
					c-0.086-0.079-0.158-0.169-0.216-0.27c-0.058-0.101-0.106-0.22-0.145-0.357s-0.078-0.336-0.116-0.595l-0.115-0.529l-0.641,0.696
					L105.587,22.385z"/>
			</g>
		</g>
	</g>
	<g class="st16">
		
			<rect x="113.225" y="23.235" transform="matrix(0.7301 0.6834 -0.6834 0.7301 48.7121 -74.3263)" class="st7" width="10.438" height="2.53"/>
	</g>
	<g>
		
			<rect x="111.755" y="17.778" transform="matrix(0.7356 0.6774 -0.6774 0.7356 47.966 -68.8515)" class="st15" width="0.878" height="18.498"/>
		<path d="M106.256,34.216l-0.738-0.679l0.042-0.046l12.572-13.653l0.738,0.679l-0.042,0.046L106.256,34.216z M105.694,33.53
			l0.555,0.511l12.446-13.517l-0.555-0.511L105.694,33.53z"/>
	</g>
	<g>
		
			<rect x="116.476" y="22.125" transform="matrix(0.7356 0.6774 -0.6774 0.7356 52.1584 -70.9002)" class="st15" width="0.878" height="18.498"/>
		<path d="M110.977,38.563l-0.738-0.679l0.042-0.046l12.572-13.654l0.738,0.679l-0.042,0.046L110.977,38.563z M110.414,37.877
			l0.555,0.511l12.446-13.517l-0.555-0.511L110.414,37.877z"/>
	</g>
	<g>
		<path d="M118.453,22.004c0.309,0.175,0.591,0.378,0.864,0.592c0.275,0.212,0.535,0.44,0.79,0.673
			c0.252,0.237,0.5,0.477,0.734,0.734c0.235,0.255,0.462,0.519,0.663,0.811c-0.307-0.177-0.589-0.381-0.863-0.594
			c-0.275-0.212-0.535-0.439-0.792-0.671c-0.253-0.235-0.501-0.476-0.735-0.732C118.879,22.562,118.653,22.297,118.453,22.004z"/>
	</g>
	<g>
		<path d="M107.664,33.722c0.309,0.175,0.591,0.378,0.864,0.592c0.275,0.212,0.535,0.44,0.79,0.673
			c0.252,0.237,0.5,0.477,0.734,0.734c0.235,0.255,0.462,0.519,0.663,0.811c-0.307-0.177-0.589-0.381-0.863-0.594
			c-0.275-0.212-0.535-0.439-0.792-0.671c-0.253-0.235-0.501-0.476-0.735-0.732C108.09,34.28,107.864,34.015,107.664,33.722z"/>
	</g>
	<g>
		<path d="M117.104,23.469c0.309,0.175,0.591,0.378,0.864,0.592c0.275,0.212,0.535,0.44,0.79,0.673
			c0.252,0.237,0.5,0.477,0.734,0.734c0.235,0.255,0.462,0.519,0.663,0.811c-0.307-0.177-0.589-0.381-0.863-0.594
			c-0.275-0.212-0.535-0.439-0.792-0.671c-0.253-0.235-0.501-0.476-0.735-0.732C117.53,24.027,117.304,23.762,117.104,23.469z"/>
	</g>
	<g>
		<path d="M115.756,24.934c0.309,0.175,0.591,0.378,0.864,0.592c0.275,0.212,0.535,0.44,0.79,0.673
			c0.252,0.237,0.5,0.477,0.734,0.734c0.235,0.255,0.462,0.519,0.663,0.811c-0.307-0.177-0.589-0.381-0.863-0.594
			c-0.275-0.212-0.535-0.439-0.792-0.671c-0.253-0.235-0.501-0.476-0.735-0.732C116.181,25.492,115.956,25.227,115.756,24.934z"/>
	</g>
	<g>
		<path d="M114.407,26.398c0.309,0.175,0.591,0.378,0.864,0.592c0.275,0.212,0.535,0.44,0.79,0.673
			c0.252,0.237,0.5,0.477,0.734,0.734c0.235,0.255,0.462,0.519,0.663,0.811c-0.307-0.177-0.589-0.381-0.863-0.594
			c-0.275-0.212-0.535-0.439-0.792-0.671c-0.253-0.235-0.501-0.476-0.735-0.732C114.833,26.956,114.607,26.691,114.407,26.398z"/>
	</g>
	<g>
		<path d="M113.058,27.863c0.309,0.175,0.591,0.378,0.864,0.592c0.275,0.212,0.535,0.44,0.79,0.673
			c0.252,0.237,0.5,0.477,0.734,0.734c0.235,0.255,0.462,0.519,0.663,0.811c-0.307-0.177-0.589-0.381-0.863-0.594
			c-0.275-0.212-0.535-0.439-0.792-0.671c-0.253-0.235-0.501-0.476-0.735-0.732C113.484,28.421,113.258,28.156,113.058,27.863z"/>
	</g>
	<g>
		<path d="M111.71,29.328c0.309,0.175,0.591,0.378,0.864,0.592c0.275,0.212,0.535,0.44,0.79,0.673
			c0.252,0.237,0.5,0.477,0.734,0.734c0.235,0.255,0.462,0.519,0.663,0.811c-0.307-0.177-0.589-0.381-0.863-0.594
			c-0.275-0.212-0.535-0.439-0.792-0.671c-0.253-0.235-0.501-0.476-0.735-0.732C112.135,29.886,111.91,29.621,111.71,29.328z"/>
	</g>
	<g>
		<path d="M110.361,30.792c0.309,0.175,0.591,0.378,0.864,0.592c0.275,0.212,0.535,0.44,0.79,0.673
			c0.252,0.237,0.5,0.477,0.734,0.734c0.235,0.255,0.462,0.519,0.663,0.811c-0.307-0.177-0.589-0.381-0.863-0.594
			c-0.275-0.212-0.535-0.439-0.792-0.671c-0.253-0.235-0.501-0.476-0.735-0.732C110.787,31.35,110.561,31.086,110.361,30.792z"/>
	</g>
	<g>
		<path d="M109.012,32.257c0.309,0.175,0.591,0.378,0.864,0.592c0.275,0.212,0.535,0.44,0.79,0.673
			c0.252,0.237,0.5,0.477,0.734,0.734c0.235,0.255,0.462,0.519,0.663,0.811c-0.307-0.177-0.589-0.381-0.863-0.594
			c-0.275-0.212-0.535-0.439-0.792-0.671c-0.253-0.235-0.501-0.476-0.735-0.732C109.438,32.815,109.212,32.55,109.012,32.257z"/>
	</g>
	<g>
		<path d="M111.959,39.391l-7.409-6.624l-0.174-0.155l0.16-0.174l12.462-13.496l0.142-0.154l0.151,0.142l7.189,6.734l0.087,0.082
			l-0.08,0.093c-1.007,1.164-2.037,2.318-3.074,3.467c-1.034,1.155-2.089,2.285-3.136,3.428c-1.051,1.136-2.109,2.256-3.163,3.374
			l-1.582,1.657L111.959,39.391z M111.949,39.144l1.536-1.751l1.529-1.721c1.02-1.134,2.036-2.266,3.059-3.383
			c1.027-1.109,2.046-2.232,3.086-3.329c1.037-1.103,2.081-2.201,3.148-3.29l0.007,0.175l-7.303-6.61l0.293-0.012l-12.424,13.531
			l-0.014-0.329L111.949,39.144z"/>
	</g>
	<g>
		<path d="M98.851,2.642c-0.047-0.042-0.099-0.084-0.137-0.105c-0.012-0.014-0.044-0.001,0.03-0.009
			c0.042-0.009,0.076-0.053,0.077-0.063c0.005-0.012,0.003-0.009,0.003-0.004C98.823,2.537,98.862,2.687,98.9,2.81
			c0.078,0.259,0.186,0.517,0.291,0.775c0.209,0.517,0.453,1.025,0.678,1.541c0.228,0.515,0.454,1.034,0.662,1.566
			c0.209,0.533,0.397,1.074,0.507,1.677c0.024,0.153,0.043,0.31,0.044,0.482c-0.002,0.172-0.006,0.36-0.111,0.594
			c-0.128,0.267-0.351,0.398-0.535,0.474c-0.191,0.077-0.366,0.102-0.532,0.117c-0.331,0.028-0.63-0.004-0.922-0.041
			c-0.292-0.037-0.574-0.091-0.852-0.152c-0.556-0.118-1.099-0.247-1.642-0.353c-0.541-0.101-1.086-0.198-1.618-0.18
			c-0.524,0.007-1.062,0.149-1.323,0.531c-0.129,0.189-0.193,0.436-0.22,0.691c-0.023,0.257-0.009,0.525,0.021,0.793
			c0.144,1.078,0.513,2.135,0.786,3.246c0.067,0.28,0.123,0.565,0.162,0.865c0.034,0.302,0.059,0.614-0.031,0.988
			c-0.053,0.187-0.133,0.395-0.353,0.577c-0.215,0.159-0.406,0.196-0.578,0.228c-0.343,0.053-0.644,0.034-0.941,0.004
			c-0.59-0.059-1.146-0.2-1.698-0.335c-0.551-0.14-1.094-0.297-1.634-0.456c-0.541-0.154-1.082-0.305-1.623-0.429
			c-0.135-0.032-0.27-0.06-0.403-0.082c-0.126-0.022-0.281-0.042-0.353-0.034c-0.005,0-0.009,0.003,0.011-0.005
			c0.009-0.004,0.027-0.014,0.047-0.037c0.024-0.024,0.039-0.069,0.041-0.099c0-0.065-0.015-0.071-0.014-0.075
			c-0.001-0.002,0.003,0.005,0.01,0.012c0.024,0.026,0.091,0.085,0.138,0.13l0.31,0.285l2.477,2.282l4.956,4.561l4.978,4.538
			c1.667,1.504,3.329,3.014,5.005,4.508l0.001,0.001l-0.449,0.019l12.281-13.377l0.001-0.001l0.02,0.488
			c-1.447-1.399-2.915-2.775-4.372-4.163l-4.406-4.126c-1.464-1.38-2.952-2.735-4.428-4.102L98.851,2.642z M99.079,2.394
			l4.444,4.084c1.484,1.359,2.957,2.73,4.453,4.075l4.475,4.051c1.503,1.337,2.996,2.687,4.509,4.014l0.254,0.223l-0.234,0.265
			l-0.001,0.001l-12.321,13.341l-0.216,0.234l-0.233-0.215l-0.001-0.001c-1.627-1.548-3.269-3.079-4.905-4.617l-4.932-4.587
			l-4.954-4.564l-2.479-2.28l-0.31-0.285c-0.054-0.052-0.095-0.083-0.167-0.159c-0.017-0.019-0.035-0.04-0.054-0.072
			c-0.017-0.034-0.048-0.073-0.047-0.173c0.001-0.048,0.026-0.109,0.06-0.147c0.032-0.036,0.065-0.056,0.09-0.068
			c0.051-0.024,0.082-0.027,0.112-0.032c0.208-0.018,0.333,0.015,0.483,0.035c0.144,0.025,0.283,0.054,0.423,0.082l1.652,0.357
			c1.096,0.212,2.209,0.423,3.275,0.484c0.262,0.011,0.527,0.012,0.739-0.025c0.103-0.017,0.191-0.056,0.201-0.069
			c-0.004,0.003,0.013-0.015,0.027-0.037c0.015-0.022,0.028-0.059,0.04-0.1c0.051-0.172,0.044-0.432,0.025-0.686
			c-0.02-0.258-0.062-0.526-0.107-0.796c-0.173-1.087-0.458-2.194-0.525-3.356c-0.018-0.291-0.019-0.587,0.021-0.888
			c0.038-0.299,0.116-0.614,0.309-0.889c0.193-0.276,0.475-0.471,0.769-0.579c0.294-0.109,0.595-0.16,0.89-0.185
			c1.181-0.08,2.31,0.134,3.413,0.268c0.545,0.062,1.105,0.142,1.572,0.101c0.113-0.011,0.218-0.032,0.287-0.062
			c0.072-0.028,0.099-0.068,0.092-0.058c0.015-0.022,0.037-0.122,0.037-0.228c0.002-0.109-0.008-0.232-0.025-0.357
			c-0.066-0.507-0.215-1.042-0.36-1.573c-0.151-0.532-0.323-1.064-0.499-1.595c-0.18-0.531-0.354-1.065-0.541-1.598
			c-0.092-0.268-0.179-0.537-0.261-0.815c-0.036-0.147-0.082-0.27-0.079-0.475c0.003-0.03,0.007-0.062,0.025-0.106
			c0.015-0.043,0.074-0.116,0.151-0.133c0.073-0.017,0.118-0.002,0.15,0.008c0.034,0.011,0.056,0.024,0.079,0.037
			C98.967,2.291,99.022,2.342,99.079,2.394z"/>
	</g>
	<g class="st0">
		<path class="st1" d="M124.9,26.201l-0.502-0.448l-9.512,10.387c-6.22-5.757-14.529-13.26-21.095-19.445
			c-0.086-0.08-1.775,0.15-1.775,0.15l-3.378-0.768l-2.255-0.379l29.469,27.125l1.982,0.203l2.287-2.033c0,0-1.9-1.764-4.725-4.38
			L124.9,26.201z"/>
	</g>
	<g class="st16">
		<path class="st7" d="M89.351,4.157L85.894,3.31c0,0-0.068-0.305,0.508-0.339S90.3,3.344,90.3,3.344l-0.068,0.678L89.351,4.157z"/>
	</g>
	<g>
		<g>
			<path d="M87.29,6.866c0.118-0.143,0.131-0.424,0.137-0.674c0.004-0.258-0.005-0.524,0.013-0.796
				c0.023-0.268,0.055-0.558,0.225-0.814c0.174-0.257,0.464-0.395,0.734-0.45c0.273-0.06,0.543-0.072,0.806-0.083
				c0.261-0.012,0.527-0.017,0.744-0.088c0.049-0.021,0.1-0.042,0.13-0.073c0.022-0.015,0.029-0.025,0.038-0.04
				c0.009-0.016,0.016-0.038,0.022-0.062c0.022-0.102,0.019-0.228,0.007-0.352c-0.025-0.251-0.081-0.506-0.138-0.761l0-0.001
				l0.126,0.097c-0.667,0.051-1.334,0.095-2.002,0.136c-0.332,0.025-0.666,0.039-0.988,0.08c-0.318,0.039-0.646,0.102-0.824,0.276
				c-0.174,0.172-0.209,0.502-0.222,0.82c-0.013,0.323,0.008,0.657,0.015,0.99c0.026,0.668,0.041,1.338,0.053,2.007L86.051,6.96l0,0
				c0.227,0.015,0.453,0.028,0.674,0.024c0.11-0.002,0.22-0.009,0.323-0.026C87.151,6.942,87.253,6.907,87.29,6.866z M87.473,7.034
				c-0.128,0.123-0.262,0.143-0.382,0.167c-0.123,0.02-0.242,0.027-0.36,0.03c-0.236,0.005-0.467-0.009-0.696-0.024l0,0
				l-0.107-0.004l-0.009-0.114c-0.053-0.667-0.097-1.334-0.138-2.002c-0.021-0.336-0.038-0.67-0.031-1.016
				c-0.001-0.085,0.005-0.173,0.014-0.262c0.005-0.088,0.017-0.177,0.039-0.269c0.029-0.18,0.119-0.378,0.263-0.531
				c0.079-0.07,0.16-0.138,0.25-0.175c0.088-0.051,0.177-0.075,0.266-0.101c0.177-0.049,0.351-0.076,0.521-0.094
				c0.343-0.039,0.677-0.054,1.013-0.066c0.669-0.026,1.338-0.04,2.008-0.051L90.23,2.52l0.02,0.098l0,0.001
				c0.058,0.258,0.115,0.519,0.143,0.792c0.012,0.137,0.02,0.277-0.013,0.434c-0.011,0.04-0.023,0.081-0.046,0.123
				c-0.023,0.043-0.059,0.084-0.091,0.107c-0.065,0.061-0.139,0.091-0.21,0.121c-0.287,0.092-0.555,0.088-0.818,0.103
				c-0.262,0.011-0.52,0.024-0.762,0.077c-0.243,0.049-0.458,0.163-0.583,0.346c-0.127,0.185-0.164,0.442-0.183,0.692
				c-0.018,0.254-0.008,0.515-0.013,0.783c-0.004,0.135-0.006,0.269-0.029,0.411C87.621,6.746,87.591,6.899,87.473,7.034z"/>
		</g>
	</g>
	<g>
		<path class="st17" d="M101.807,18.162c0.062-0.035,0.16-0.004,0.242-0.006c0.057-0.001,0.114-0.007,0.171-0.011
			c-0.013-0.056-0.012-0.122-0.043-0.165c-0.064-0.087-0.14-0.167-0.22-0.239c-0.177-0.159-0.36-0.311-0.575-0.496
			c-0.013,0.095-0.036,0.146-0.02,0.167c0.09,0.115,0.014,0.184-0.066,0.241c-0.227,0.164-0.64,0.174-0.868-0.013
			c-0.166-0.137-0.167-0.29,0.002-0.427c0.126-0.102,0.264-0.192,0.405-0.273c0.348-0.198,0.707-0.322,1.122-0.21
			c0.45,0.122,0.635,0.567,0.329,0.987c0.111,0.049,0.213,0.138,0.296,0.123c0.199-0.037,0.39-0.121,0.583-0.188
			c0.101-0.035,0.085-0.099,0.018-0.144c-0.039-0.027-0.105-0.035-0.153-0.025c-0.162,0.033-0.225-0.041-0.236-0.19
			c-0.003-0.042-0.004-0.085-0.018-0.124c-0.202-0.589-1.022-1.089-1.648-1.021c-0.412,0.045-0.764,0.192-1.056,0.496
			c-0.247,0.257-0.328,0.741-0.131,1.027c0.215,0.311,0.531,0.501,0.881,0.599C101.15,18.362,101.491,18.339,101.807,18.162z"/>
		<path class="st17" d="M94.703,11.356c0.391-0.136,0.596-0.467,0.554-0.872c-0.011-0.103-0.045-0.229-0.114-0.297
			c-0.287-0.279-0.585-0.541-0.867-0.795c-0.301,0.078-0.57,0.214-0.73,0.448c-0.116,0.169-0.173,0.386-0.205,0.612
			c0.272-0.126,0.544-0.253,0.816-0.38c0.12-0.056,0.237-0.126,0.364-0.152c0.074-0.015,0.168,0.033,0.243,0.073
			c0.056,0.03,0.092,0.094,0.14,0.141c0.089,0.088,0.089,0.164,0.005,0.266c-0.299,0.366-0.695,0.547-1.147,0.63
			c-0.137-0.027-0.285,0.005-0.423-0.018c0.005,0.105-0.004,0.207,0.008,0.313c0.004,0.032,0.013,0.065,0.018,0.097
			c0.133,0.097,0.331,0.166,0.489,0.15C94.141,11.542,94.427,11.452,94.703,11.356z"/>
		<path class="st17" d="M100.565,15.011c-0.282-0.384-0.663-0.59-1.148-0.584c-0.369,0.003-0.87,0.128-1.13,0.331
			c-0.442,0.344-0.55,0.889-0.168,1.306c0.606,0.664,1.848,0.481,2.338-0.02C100.749,15.745,100.812,15.347,100.565,15.011z
			 M100.317,15.318c-0.196,0.299-0.496,0.455-0.816,0.57c-0.208,0.075-0.429,0.114-0.609,0.16c-0.148-0.029-0.257-0.04-0.36-0.073
			c-0.211-0.068-0.265-0.272-0.115-0.45c0.216-0.256,0.503-0.416,0.81-0.534c0.156-0.06,0.328-0.074,0.49-0.122
			c0.203-0.06,0.369,0.02,0.531,0.12C100.404,15.086,100.416,15.166,100.317,15.318z"/>
		<path class="st17" d="M98.823,14.178c0.164-0.083,0.22-0.423,0.09-0.547c-0.333-0.317-0.67-0.629-1.008-0.939
			c-0.057-0.052-0.128-0.088-0.193-0.131c-0.008,0.01-0.017,0.02-0.025,0.03c0.019,0.052,0.038,0.104,0.067,0.185
			c-0.15,0.067-0.291,0.13-0.432,0.194c-0.341,0.154-0.677,0.32-1.024,0.456c-0.179,0.07-0.369,0.217-0.59,0.038
			c0.198,0.321,0.481,0.539,0.726,0.794c0.02-0.006,0.041-0.013,0.061-0.019c-0.005-0.09-0.01-0.181-0.016-0.271
			c-0.011-0.019-0.021-0.037-0.032-0.056c0.244-0.094,0.487-0.189,0.732-0.281c0.137-0.051,0.174,0.016,0.133,0.133
			c-0.049,0.142-0.116,0.279-0.173,0.418c-0.105,0.254-0.208,0.508-0.313,0.766c0.237,0.089,0.442,0.176,0.654,0.241
			c0.069,0.021,0.156-0.015,0.235-0.025c-0.026-0.062-0.036-0.139-0.08-0.185c-0.106-0.111-0.104-0.218-0.042-0.348
			c0.055-0.114,0.09-0.237,0.137-0.355c0.026-0.064,0.058-0.124,0.088-0.186c0.129,0.051,0.237,0.089,0.343,0.135
			C98.392,14.327,98.612,14.284,98.823,14.178z M97.619,13.587c-0.108-0.059-0.076-0.147,0.016-0.194
			c0.144-0.073,0.293-0.135,0.444-0.194c0.212-0.083,0.308,0.078,0.405,0.212c0.037,0.051,0.072,0.169,0.049,0.188
			c-0.11,0.093-0.239,0.164-0.362,0.243C97.963,13.748,97.785,13.678,97.619,13.587z"/>
		<path class="st17" d="M95.957,12.972c-0.214-0.044-0.443,0.13-0.648-0.031c-0.181-0.141-0.361-0.282-0.566-0.441
			c0.087-0.083,0.143-0.156,0.216-0.202c0.128-0.079,0.274-0.129,0.398-0.213c0.128-0.088,0.23-0.062,0.325,0.032
			c0.088,0.088,0.164,0.188,0.254,0.294c-0.052,0.046-0.096,0.078-0.129,0.119c-0.027,0.032-0.041,0.076-0.06,0.114
			c0.042,0.015,0.096,0.055,0.125,0.042c0.219-0.104,0.433-0.219,0.648-0.33c-0.005-0.023-0.009-0.046-0.014-0.069
			c-0.055-0.004-0.116-0.024-0.165-0.009c-0.178,0.058-0.456-0.094-0.491-0.284c-0.006-0.031,0.021-0.088,0.049-0.102
			c0.177-0.091,0.354-0.182,0.539-0.254c0.049-0.019,0.133,0.018,0.186,0.053c0.065,0.042,0.116,0.106,0.171,0.162
			c0.283,0.286,0.282,0.286,0.01,0.58c-0.012,0.013-0.019,0.03-0.046,0.075c0.061,0.03,0.139,0.098,0.173,0.08
			c0.21-0.107,0.41-0.233,0.638-0.368c-0.125-0.045-0.222-0.054-0.283-0.106c-0.288-0.249-0.568-0.509-0.847-0.768
			c-0.171-0.158-0.337-0.322-0.505-0.483c-0.019,0.006-0.039,0.012-0.058,0.018c0.105,0.183,0.023,0.266-0.129,0.34
			c-0.378,0.185-0.756,0.373-1.119,0.585c-0.208,0.121-0.381,0.148-0.573-0.013c-0.032-0.027-0.107-0.004-0.217-0.004
			c0.097,0.119,0.146,0.196,0.21,0.256c0.216,0.203,0.438,0.4,0.658,0.599c0.202,0.183,0.401,0.369,0.607,0.547
			c0.041,0.036,0.117,0.074,0.157,0.059c0.172-0.065,0.337-0.15,0.505-0.227C95.969,13.007,95.963,12.99,95.957,12.972z"/>
		<path class="st17" d="M103.84,18.193c-0.057,0.044-0.115,0.122-0.187,0.139c-0.245,0.059-0.494,0.101-0.743,0.144
			c-0.338,0.058-0.675,0.126-1.015,0.161c-0.177,0.018-0.362,0.132-0.542-0.005c-0.029-0.022-0.078-0.02-0.117-0.029
			c0.007,0.044-0.003,0.105,0.022,0.13c0.197,0.196,0.399,0.387,0.606,0.573c0.033,0.029,0.094,0.027,0.143,0.039
			c-0.004-0.049-0.008-0.097-0.012-0.146c-0.006-0.076-0.042-0.202-0.013-0.22c0.108-0.065,0.256-0.155,0.356-0.125
			c0.161,0.049,0.301,0.179,0.442,0.286c0.152,0.115,0.16,0.181,0.017,0.303c-0.078,0.066-0.19,0.094-0.29,0.127
			c-0.054,0.017-0.116,0.008-0.201,0.012c0.018,0.057,0.018,0.086,0.033,0.1c0.214,0.213,0.427,0.428,0.65,0.633
			c0.036,0.033,0.118,0.016,0.179,0.022c-0.007-0.054,0.005-0.126-0.025-0.16c-0.127-0.141-0.069-0.253,0.04-0.36
			c0.202-0.199,0.414-0.388,0.608-0.594c0.214-0.227,0.414-0.469,0.603-0.686C104.244,18.444,104.037,18.315,103.84,18.193z
			 M103.397,18.888c-0.097,0.09-0.206,0.168-0.316,0.24c-0.022,0.014-0.079-0.006-0.109-0.027c-0.055-0.037-0.107-0.082-0.149-0.133
			c-0.036-0.043-0.088-0.111-0.075-0.146c0.019-0.051,0.085-0.104,0.14-0.118c0.128-0.031,0.263-0.039,0.432-0.062
			c0.028,0.019,0.1,0.043,0.126,0.093C103.463,18.77,103.432,18.855,103.397,18.888z"/>
	</g>
	<g>
		<path d="M149.575,21.811l-0.016-0.015c-1.128-0.995-2.4-1.764-3.78-2.288c-2.762-1.045-5.632-1.045-8.393,0
			c-1.383,0.524-2.635,1.296-3.723,2.295c-1.135,1.048-2.055,2.374-2.733,3.941c-0.678,1.564-1.021,3.385-1.021,5.411v25.79
			c0,2.119,0.345,3.965,1.024,5.486c0.68,1.522,1.602,2.803,2.724,3.791c1.088,1.049,2.344,1.846,3.73,2.371
			c1.378,0.521,2.791,0.786,4.196,0.786c1.405,0,2.817-0.265,4.197-0.786c1.383-0.524,2.658-1.319,3.788-2.363
			c1.092-1.003,1.989-2.281,2.667-3.799c0.679-1.521,1.024-3.367,1.024-5.486v-25.79c0-2.026-0.344-3.847-1.021-5.411
			C151.559,24.183,150.664,22.859,149.575,21.811z M145.591,56.946c0,1.536-0.395,2.668-1.174,3.366
			c-0.805,0.722-1.733,1.073-2.835,1.073c-1.103,0-2.03-0.351-2.835-1.074c-0.779-0.696-1.173-1.828-1.173-3.365v-25.79
			c0-1.536,0.395-2.668,1.173-3.365c0.806-0.722,1.733-1.073,2.835-1.073c1.102,0,2.029,0.351,2.835,1.072
			c0.779,0.698,1.174,1.831,1.174,3.366V56.946z"/>
		<polygon points="153.021,26.718 160.732,26.718 160.732,68.97 168.398,68.97 168.398,26.718 176.109,26.718 176.109,19.133 
			153.021,19.133 		"/>
		<rect x="177.246" y="19.133" width="7.665" height="49.836"/>
		<path d="M205.088,19.729c-1.433-0.668-3.031-1.007-4.753-1.007c-2.028,0-3.808,0.375-5.288,1.116
			c-1.479,0.741-2.713,1.747-3.66,2.98c-0.998,1.235-1.754,2.725-2.249,4.426c-0.49,1.683-0.738,3.484-0.738,5.353
			c0,3.125,0.511,5.772,1.52,7.865c1.029,2.137,3.06,3.869,6.035,5.146l4.766,2.056c0.802,0.355,1.45,0.69,1.927,0.994
			c0.435,0.277,0.788,0.639,1.034,1.043c0.231,0.445,0.39,1.056,0.471,1.812c0.085,0.805,0.128,1.849,0.128,3.103
			c0,1.071-0.032,2.062-0.097,2.947c-0.06,0.816-0.249,1.521-0.562,2.096c-0.303,0.558-0.718,0.975-1.267,1.274
			c-0.559,0.301-1.369,0.454-2.41,0.454c-1.54,0-2.592-0.436-3.217-1.33c-0.665-0.952-0.988-1.991-0.988-3.177v-2.696h-7.665v3.107
			c0,1.708,0.31,3.308,0.921,4.755c0.609,1.445,1.445,2.731,2.483,3.82c1.047,1.099,2.312,1.969,3.761,2.585
			c1.449,0.617,3.032,0.931,4.705,0.931c2.2,0,4.1-0.387,5.646-1.148c1.549-0.766,2.82-1.834,3.78-3.179
			c0.905-1.28,1.569-2.853,1.976-4.672c0.398-1.792,0.601-3.756,0.601-5.836c0-1.782-0.089-3.406-0.266-4.83
			c-0.181-1.438-0.522-2.741-1.029-3.897c-0.55-1.106-1.315-2.092-2.275-2.932c-0.952-0.833-2.209-1.566-3.73-2.177l-5.097-2.126
			c-0.83-0.348-1.488-0.698-1.957-1.041c-0.436-0.317-0.771-0.698-0.994-1.129c-0.232-0.447-0.379-0.963-0.437-1.536
			c-0.063-0.624-0.096-1.414-0.096-2.35c0-0.792,0.063-1.56,0.19-2.282c0.119-0.693,0.34-1.317,0.646-1.84
			c0.312-0.491,0.712-0.89,1.223-1.22c0.48-0.311,1.137-0.468,1.949-0.468c1.528,0,2.575,0.494,3.201,1.511
			c0.667,1.08,1.005,2.388,1.005,3.887v2.078h7.666v-3.93c0-2.949-1.056-5.601-3.145-7.89
			C207.76,21.283,206.511,20.393,205.088,19.729z"/>
		<polygon points="213.073,20.386 214.499,20.386 214.499,24.205 215.072,24.205 215.072,20.386 216.503,20.386 216.503,19.876 
			213.073,19.876 		"/>
		<path d="M219.246,22.888c-0.104,0.305-0.181,0.536-0.23,0.694c-0.044-0.142-0.113-0.355-0.207-0.641l-1.025-3.065h-0.862v4.329
			h0.552v-3.685l1.252,3.685h0.517l1.258-3.623v3.623h0.552v-4.329h-0.77L219.246,22.888z"/>
		<polygon points="246.358,33.896 237.471,33.896 237.471,27.153 245.2,27.153 245.2,25.973 237.471,25.973 237.471,19.729 
			246.302,19.729 246.302,18.549 236.074,18.549 236.074,35.077 246.358,35.077 		"/>
		<path d="M252.361,35.304c1.688,0,2.967-0.621,3.837-1.862l0.057,1.635h1.271V17.641h-1.351v6.891
			c-0.871-1.309-2.135-1.964-3.792-1.964c-1.46,0-2.616,0.566-3.468,1.697c-0.852,1.132-1.277,2.651-1.277,4.558v0.159
			c0,1.938,0.434,3.476,1.3,4.614C249.806,34.734,250.946,35.304,252.361,35.304z M249.966,25.093
			c0.636-0.897,1.525-1.345,2.668-1.345c1.657,0,2.838,0.798,3.542,2.395v5.767c-0.704,1.476-1.893,2.213-3.564,2.213
			c-1.144,0-2.028-0.452-2.656-1.356c-0.629-0.904-0.942-2.14-0.942-3.706C249.013,27.312,249.33,25.99,249.966,25.093z"/>
		<path d="M264.505,35.304c1.794,0,3.1-0.594,3.917-1.782l0.022,1.555h1.316V22.794h-1.362v8.888
			c-0.521,1.627-1.767,2.44-3.734,2.44c-1.892,0-2.838-1.169-2.838-3.507v-7.821h-1.351v7.991c0.015,1.491,0.363,2.617,1.044,3.377
			C262.201,34.923,263.196,35.304,264.505,35.304z"/>
		<path d="M277.251,35.304c0.817,0,1.583-0.174,2.299-0.522c0.715-0.348,1.288-0.831,1.72-1.448
			c0.431-0.617,0.666-1.299,0.703-2.049h-1.305c-0.054,0.848-0.399,1.538-1.039,2.072s-1.432,0.8-2.378,0.8
			c-1.233,0-2.189-0.439-2.866-1.317c-0.678-0.878-1.016-2.1-1.016-3.667v-0.397c0-1.597,0.338-2.838,1.016-3.723
			c0.677-0.885,1.629-1.328,2.854-1.328c0.961,0,1.758,0.295,2.39,0.885c0.632,0.59,0.979,1.366,1.039,2.327h1.305
			c-0.061-1.309-0.527-2.365-1.401-3.167c-0.874-0.802-1.984-1.203-3.332-1.203c-1.06,0-1.984,0.253-2.775,0.76
			c-0.791,0.507-1.398,1.226-1.821,2.157c-0.424,0.931-0.636,2.001-0.636,3.212v0.409c0,1.892,0.471,3.398,1.413,4.518
			C274.362,34.744,275.639,35.304,277.251,35.304z"/>
		<path d="M289.122,27.937c-1.778,0-3.165,0.348-4.16,1.044s-1.493,1.642-1.493,2.838c0,1.006,0.365,1.839,1.096,2.497
			c0.73,0.659,1.686,0.988,2.866,0.988c0.825,0,1.606-0.168,2.344-0.505c0.738-0.336,1.346-0.815,1.822-1.436
			c0.038,0.757,0.125,1.328,0.261,1.714h1.453V34.94c-0.249-0.59-0.374-1.479-0.374-2.667v-5.812
			c-0.023-1.226-0.43-2.181-1.221-2.866s-1.871-1.027-3.24-1.027c-1.325,0-2.441,0.357-3.35,1.073
			c-0.907,0.715-1.361,1.561-1.361,2.537l1.361,0.011c0-0.681,0.311-1.264,0.932-1.748c0.62-0.484,1.403-0.727,2.35-0.727
			c1.036,0,1.825,0.251,2.366,0.755s0.812,1.194,0.812,2.072v1.396H289.122z M291.585,31.683c-0.325,0.734-0.845,1.321-1.561,1.759
			c-0.715,0.439-1.526,0.659-2.435,0.659c-0.817,0-1.481-0.227-1.992-0.681s-0.767-1.025-0.767-1.714c0-0.84,0.382-1.5,1.146-1.98
			s1.824-0.729,3.179-0.744h2.429V31.683z"/>
		<path d="M296.726,32.103c0,1.052,0.211,1.849,0.635,2.39s1.102,0.812,2.032,0.812c0.613,0,1.098-0.064,1.453-0.191l-0.057-1.103
			c-0.507,0.076-0.874,0.113-1.102,0.113c-0.575,0-0.985-0.167-1.231-0.5c-0.246-0.333-0.369-0.841-0.369-1.523v-8.193h2.543v-1.112
			h-2.543V19.65h-1.361v3.145h-2.26v1.112h2.26V32.103z"/>
		<path d="M307.382,35.304c1.067,0,2.017-0.257,2.85-0.772c0.832-0.515,1.478-1.247,1.936-2.196c0.457-0.95,0.687-2.019,0.687-3.207
			v-0.284c0-1.892-0.507-3.411-1.521-4.558c-1.014-1.146-2.338-1.72-3.973-1.72c-1.06,0-2.008,0.263-2.844,0.789
			s-1.483,1.262-1.941,2.208c-0.458,0.946-0.687,2.009-0.687,3.19v0.272c0,1.892,0.509,3.411,1.527,4.558
			C304.433,34.73,305.755,35.304,307.382,35.304z M303.25,28.879c0-1.536,0.382-2.779,1.146-3.729s1.752-1.425,2.963-1.425
			c0.81,0,1.528,0.214,2.156,0.642c0.629,0.427,1.116,1.031,1.465,1.811c0.348,0.779,0.522,1.638,0.522,2.577v0.261
			c0,1.543-0.381,2.787-1.142,3.729c-0.76,0.942-1.753,1.413-2.979,1.413c-1.233,0-2.23-0.471-2.991-1.413
			c-0.761-0.942-1.141-2.147-1.141-3.616V28.879z"/>
		<path d="M317.681,24.582c0.586-0.473,1.304-0.709,2.151-0.709c0.325,0,0.632,0.027,0.919,0.08l0.034-1.237
			c-0.22-0.098-0.519-0.147-0.896-0.147c-1.589,0-2.743,0.727-3.462,2.179l-0.023-1.952h-1.328v12.282h1.352v-8.434
			C316.676,25.742,317.094,25.055,317.681,24.582z"/>
		<path d="M238.866,50.497h2.713l3.1,6.051h3.655v-0.159l-3.576-6.754c0.991-0.446,1.731-1.046,2.22-1.799
			c0.487-0.753,0.731-1.693,0.731-2.821c0-1.589-0.529-2.819-1.589-3.689s-2.565-1.306-4.518-1.306h-6.142v16.528h3.405V50.497z
			 M238.866,42.778h2.736c0.915,0,1.595,0.224,2.037,0.67c0.442,0.447,0.664,1.06,0.664,1.839c0,0.765-0.234,1.364-0.704,1.799
			c-0.469,0.435-1.131,0.653-1.986,0.653h-2.747V42.778z"/>
		<path d="M255.153,56.774c1.021,0,1.952-0.194,2.792-0.584c0.841-0.39,1.506-0.933,1.998-1.629l-1.611-1.805
			c-0.712,0.915-1.699,1.373-2.963,1.373c-0.817,0-1.493-0.242-2.026-0.727s-0.854-1.127-0.959-1.93h7.821v-1.34
			c0-1.944-0.482-3.446-1.447-4.506s-2.288-1.589-3.968-1.589c-1.12,0-2.117,0.263-2.991,0.789s-1.55,1.275-2.026,2.248
			c-0.477,0.972-0.715,2.075-0.715,3.309v0.318c0,1.839,0.565,3.311,1.697,4.415C251.886,56.223,253.353,56.774,255.153,56.774z
			 M253.195,47.345c0.404-0.441,0.933-0.661,1.583-0.661c0.696,0,1.233,0.199,1.612,0.599c0.378,0.399,0.575,0.963,0.59,1.693v0.262
			h-4.562C252.531,48.417,252.79,47.786,253.195,47.345z"/>
		<path d="M263.421,56.225c0.799,0.366,1.712,0.55,2.741,0.55c1.521,0,2.763-0.346,3.724-1.038s1.441-1.599,1.441-2.719
			c0-1.566-0.866-2.668-2.6-3.304c-0.56-0.204-1.248-0.388-2.065-0.55c-0.817-0.163-1.398-0.356-1.743-0.579
			c-0.344-0.223-0.516-0.517-0.516-0.88c0-0.386,0.151-0.704,0.454-0.954c0.302-0.25,0.729-0.375,1.282-0.375
			c0.644,0,1.116,0.153,1.419,0.459c0.303,0.307,0.454,0.695,0.454,1.164h3.28c0-1.173-0.467-2.126-1.401-2.86
			s-2.182-1.101-3.74-1.101c-1.461,0-2.644,0.365-3.548,1.095c-0.904,0.73-1.356,1.641-1.356,2.73c0,1.87,1.461,3.111,4.382,3.723
			c0.878,0.182,1.516,0.389,1.913,0.619c0.396,0.23,0.596,0.547,0.596,0.947c0,0.387-0.161,0.698-0.482,0.937
			c-0.322,0.239-0.797,0.358-1.425,0.358c-0.674,0-1.211-0.155-1.612-0.466c-0.4-0.311-0.616-0.757-0.646-1.34h-3.11
			c0,0.742,0.227,1.433,0.681,2.072S262.622,55.857,263.421,56.225z"/>
		<path d="M275.077,44.822c-0.882,0.522-1.558,1.26-2.026,2.213c-0.47,0.954-0.704,2.039-0.704,3.258v0.147
			c0,1.953,0.528,3.496,1.584,4.632c1.056,1.135,2.469,1.702,4.239,1.702c1.771,0,3.183-0.569,4.234-1.708s1.578-2.65,1.578-4.535
			l-0.023-0.84c-0.121-1.74-0.705-3.118-1.753-4.132c-1.049-1.014-2.401-1.521-4.059-1.521
			C276.982,44.039,275.958,44.3,275.077,44.822z M280.032,47.627c0.446,0.629,0.669,1.516,0.669,2.66
			c0,1.342-0.223,2.317-0.669,2.928c-0.447,0.61-1.067,0.915-1.862,0.915c-0.817,0-1.445-0.309-1.884-0.927
			c-0.439-0.617-0.659-1.51-0.659-2.677c0-1.312,0.22-2.28,0.659-2.905c0.438-0.625,1.06-0.938,1.861-0.938
			C278.957,46.684,279.585,46.998,280.032,47.627z"/>
		<path d="M295.955,44.266h-3.292v8.705c-0.416,0.773-1.181,1.159-2.293,1.159c-1.165,0-1.748-0.64-1.748-1.921v-7.943h-3.28v8.048
			c0.015,1.461,0.369,2.569,1.062,3.326s1.697,1.135,3.014,1.135c1.43,0,2.55-0.491,3.36-1.476l0.091,1.249h3.087V44.266z"/>
		<path d="M301.039,45.73l-0.091-1.464h-3.1v12.282h3.281v-8.037c0.386-0.84,1.199-1.26,2.44-1.26c0.34,0,0.733,0.03,1.181,0.091
			l0.045-3.156c-0.317-0.098-0.658-0.147-1.021-0.147C302.608,44.039,301.697,44.603,301.039,45.73z"/>
		<path d="M308.886,47.519c0.39-0.557,0.967-0.835,1.731-0.835c0.62,0,1.12,0.2,1.498,0.599c0.379,0.399,0.575,0.918,0.591,1.558
			h3.076c-0.016-1.453-0.486-2.617-1.414-3.491c-0.927-0.874-2.158-1.311-3.694-1.311c-1.756,0-3.137,0.564-4.144,1.691
			s-1.51,2.637-1.51,4.529v0.216c0,1.968,0.507,3.51,1.521,4.626c1.014,1.116,2.398,1.674,4.154,1.674
			c0.938,0,1.796-0.19,2.571-0.573c0.775-0.382,1.387-0.919,1.833-1.611s0.674-1.455,0.682-2.287h-3.076
			c-0.016,0.552-0.212,0.995-0.591,1.328c-0.378,0.333-0.87,0.499-1.476,0.499c-0.787,0-1.373-0.276-1.76-0.83
			c-0.386-0.553-0.579-1.463-0.579-2.729V50.23C308.301,48.98,308.496,48.076,308.886,47.519z"/>
		<path d="M327.778,50.134c0-1.944-0.482-3.446-1.447-4.506s-2.288-1.589-3.968-1.589c-1.12,0-2.117,0.263-2.991,0.789
			s-1.55,1.275-2.026,2.248c-0.477,0.972-0.715,2.075-0.715,3.309v0.318c0,1.839,0.565,3.311,1.697,4.415
			c1.131,1.105,2.598,1.657,4.398,1.657c1.021,0,1.952-0.194,2.792-0.584c0.841-0.39,1.506-0.933,1.998-1.629l-1.611-1.805
			c-0.712,0.915-1.699,1.373-2.963,1.373c-0.817,0-1.493-0.242-2.026-0.727s-0.854-1.127-0.959-1.93h7.821V50.134z M324.554,49.237
			h-4.562c0.113-0.821,0.372-1.452,0.777-1.893c0.404-0.441,0.933-0.661,1.583-0.661c0.696,0,1.233,0.199,1.612,0.599
			c0.378,0.399,0.575,0.963,0.59,1.693V49.237z"/>
		<path d="M239.281,65.276c0.563-0.813,1.413-1.22,2.548-1.22c1.045,0,1.822,0.24,2.333,0.721s0.808,1.254,0.891,2.321h3.406
			c-0.182-1.847-0.855-3.281-2.021-4.303c-1.165-1.021-2.701-1.532-4.608-1.532c-1.377,0-2.586,0.323-3.627,0.971
			c-1.04,0.646-1.841,1.576-2.4,2.787c-0.561,1.211-0.84,2.61-0.84,4.199v1.011c0,2.49,0.607,4.448,1.821,5.874
			c1.215,1.427,2.882,2.14,5.001,2.14c1.937,0,3.498-0.511,4.683-1.532c1.184-1.021,1.84-2.421,1.969-4.2h-3.405
			c-0.075,1.007-0.373,1.75-0.891,2.23c-0.519,0.481-1.304,0.722-2.355,0.722c-1.166,0-2.02-0.413-2.561-1.237
			c-0.541-0.825-0.812-2.131-0.812-3.917v-1.248C238.428,67.353,238.717,66.09,239.281,65.276z"/>
		<path d="M255.165,65.509c-1.12,0-2.117,0.264-2.991,0.789c-0.874,0.526-1.55,1.275-2.026,2.248s-0.715,2.075-0.715,3.309v0.318
			c0,1.839,0.565,3.311,1.697,4.415c1.131,1.105,2.598,1.657,4.398,1.657c1.021,0,1.952-0.194,2.792-0.584
			c0.841-0.39,1.506-0.933,1.998-1.629l-1.611-1.805c-0.712,0.915-1.699,1.373-2.963,1.373c-0.817,0-1.493-0.242-2.026-0.727
			s-0.854-1.127-0.959-1.93h7.821v-1.34c0-1.944-0.482-3.446-1.447-4.506S256.845,65.509,255.165,65.509z M257.355,70.708h-4.562
			c0.113-0.82,0.372-1.451,0.777-1.893c0.404-0.44,0.933-0.661,1.583-0.661c0.696,0,1.233,0.199,1.612,0.599
			c0.378,0.398,0.575,0.963,0.59,1.693V70.708z"/>
		<path d="M268.512,65.509c-1.476,0-2.652,0.549-3.53,1.646l-0.103-1.419h-3.087v12.282h3.28v-8.682
			c0.461-0.788,1.153-1.183,2.077-1.183c0.704,0,1.207,0.157,1.51,0.472c0.303,0.315,0.454,0.821,0.454,1.52v7.873h3.28v-7.935
			c-0.015-1.521-0.34-2.664-0.976-3.429C270.782,65.892,269.813,65.509,268.512,65.509z"/>
		<path d="M278.487,75.249c-0.174-0.197-0.261-0.522-0.261-0.977v-6.13h2.101v-2.406h-2.101v-3.02h-3.28v3.02h-1.794v2.406h1.794
			v6.618c0.045,2.323,1.218,3.484,3.519,3.484c0.682,0,1.344-0.098,1.986-0.295v-2.485c-0.279,0.053-0.602,0.079-0.965,0.079
			C278.995,75.544,278.662,75.445,278.487,75.249z"/>
		<path d="M286.863,65.509c-1.12,0-2.117,0.264-2.991,0.789c-0.874,0.526-1.55,1.275-2.026,2.248s-0.715,2.075-0.715,3.309v0.318
			c0,1.839,0.565,3.311,1.697,4.415c1.131,1.105,2.598,1.657,4.398,1.657c1.021,0,1.952-0.194,2.792-0.584
			c0.841-0.39,1.506-0.933,1.998-1.629l-1.611-1.805c-0.712,0.915-1.699,1.373-2.963,1.373c-0.817,0-1.493-0.242-2.026-0.727
			s-0.854-1.127-0.959-1.93h7.821v-1.34c0-1.944-0.482-3.446-1.447-4.506S288.543,65.509,286.863,65.509z M289.054,70.708h-4.562
			c0.113-0.82,0.372-1.451,0.777-1.893c0.404-0.44,0.933-0.661,1.583-0.661c0.696,0,1.233,0.199,1.612,0.599
			c0.378,0.398,0.575,0.963,0.59,1.693V70.708z"/>
		<path d="M296.748,67.2l-0.091-1.464h-3.1v12.282h3.281v-8.037c0.386-0.84,1.199-1.26,2.44-1.26c0.34,0,0.733,0.03,1.181,0.091
			l0.045-3.155c-0.317-0.099-0.658-0.148-1.021-0.148C298.317,65.509,297.406,66.073,296.748,67.2z"/>
	</g>
</g>
</svg>
