<?xml version="1.0" encoding="utf-8"?>
<!-- Generator: Adobe Illustrator 25.2.1, SVG Export Plug-In . SVG Version: 6.00 Build 0)  -->
<svg version="1.1" xmlns="http://www.w3.org/2000/svg" xmlns:xlink="http://www.w3.org/1999/xlink" x="0px" y="0px"
	 viewBox="0 0 402 99" style="enable-background:new 0 0 402 99;" xml:space="preserve">
<style type="text/css">
	.st0{display:none;}
	.st1{display:inline;fill:#F47DBD;}
	.st2{fill:#FFFFFF;}
	.st3{fill:#5068AE;}
	.st4{fill:#B0C8E0;}
	.st5{fill:#2D3A97;}
	.st6{fill-rule:evenodd;clip-rule:evenodd;fill:#E21E10;}
	.st7{fill-rule:evenodd;clip-rule:evenodd;fill:#EAEBE8;}
	.st8{fill-rule:evenodd;clip-rule:evenodd;fill:#A58D8B;}
	.st9{fill-rule:evenodd;clip-rule:evenodd;fill:#C1C3BD;}
	.st10{fill-rule:evenodd;clip-rule:evenodd;fill:#D8DBD7;}
	.st11{fill-rule:evenodd;clip-rule:evenodd;fill:#DDDDD8;}
	.st12{fill-rule:evenodd;clip-rule:evenodd;fill:#EFEFED;}
	.st13{fill-rule:evenodd;clip-rule:evenodd;fill:#F02E23;}
	.st14{fill-rule:evenodd;clip-rule:evenodd;fill:#B91D0E;}
	.st15{fill:#36A050;}
	.st16{fill:#FECB44;}
	.st17{fill:#4D64AC;}
	.st18{fill:#1D7A3A;}
	.st19{fill:#415491;}
	.st20{fill:#319F4F;}
	.st21{fill:#3E81BA;}
	.st22{fill:#198038;}
	.st23{fill:#F5BC0F;}
	.st24{fill:#1F64AB;}
	.st25{fill:#E84335;}
	.st26{fill:#C7C3BA;}
	.st27{fill:#5062AC;}
	.st28{fill:#3A429B;}
	.st29{fill:url(#SVGID_1_);}
	.st30{fill:#106B59;}
	.st31{fill-rule:evenodd;clip-rule:evenodd;fill:#F9F9F8;}
	.st32{fill:#E5E3DE;}
</style>
<g id="Layer_2" class="st0">
	
		<image style="display:inline;overflow:visible;" width="402" height="99" xlink:href="pblock_back_2021.jpg"  transform="matrix(1 0 0 1 0 0.4187)">
	</image>
</g>
<g id="Layer_3" class="st0">
	<rect x="-14.006" y="-8.103" class="st1" width="425.653" height="117.351"/>
</g>
<g id="Layer_1">
	<g>
		<g>
			<g>
				<path d="M163.375,51.031h-15.636v4.64h11.09c-0.548,6.507-5.961,9.281-11.071,9.281c-6.537,0-12.242-5.144-12.242-12.353
					c0-7.023,5.438-12.432,12.256-12.432c5.261,0,8.36,3.354,8.36,3.354l3.249-3.364c0,0-4.17-4.642-11.775-4.642
					c-9.684,0-17.176,8.173-17.176,17.002c0,8.651,7.048,17.087,17.423,17.087c9.126,0,15.806-6.251,15.806-15.496
					c0-1.95-0.283-3.077-0.283-3.077L163.375,51.031z"/>
				<path d="M176.183,47.671c-6.416,0-11.014,5.016-11.014,10.866c0,5.937,4.46,11.046,11.09,11.046
					c6.002,0,10.918-4.587,10.918-10.919C187.177,51.408,181.458,47.671,176.183,47.671z M176.233,65.283
					c-3.497,0-6.255-2.801-6.255-6.679c0-3.795,2.724-6.629,6.27-6.629c3.155,0,6.145,2.551,6.145,6.661
					C182.392,62.659,179.415,65.283,176.233,65.283z"/>
				<path d="M200.138,47.671c-6.416,0-11.014,5.016-11.014,10.866c0,5.937,4.46,11.046,11.09,11.046
					c6.002,0,10.918-4.587,10.918-10.919C211.132,51.408,205.412,47.671,200.138,47.671z M200.187,65.283
					c-3.497,0-6.255-2.801-6.255-6.679c0-3.795,2.724-6.629,6.27-6.629c3.155,0,6.145,2.551,6.145,6.661
					C206.347,62.659,203.37,65.283,200.187,65.283z"/>
				<path d="M229.541,50.197c-1.412-1.522-3.344-2.514-5.907-2.514v0c-5.889,0-10.518,5.158-10.518,10.947
					c0,6.595,5.367,10.968,10.417,10.968c3.123,0,4.783-1.239,6.009-2.662v2.16c0,3.78-2.295,6.044-5.759,6.044
					c-3.347,0-5.025-2.488-5.609-3.9l-4.211,1.76c1.494,3.159,4.501,6.452,9.854,6.452c5.855,0,10.318-3.688,10.318-11.423V48.341
					h-4.594V50.197z M223.996,65.291c-3.14,0-6.061-2.549-6.061-6.598c0-4.206,3.034-6.716,6.125-6.716h0
					c2.887,0,5.852,2.466,5.852,6.676C229.912,62.933,226.954,65.291,223.996,65.291z"/>
				<path d="M255.116,65.279c-3.08,0-4.496-1.687-5.374-3.32l14.691-6.096l-0.763-1.786c-1.419-3.498-4.73-6.42-9.111-6.42
					l-0.001-0.001c-5.555,0-10.22,4.42-10.22,10.942c0,6.901,5.199,10.994,10.753,10.994c4.636,0,7.481-2.536,9.178-4.808
					l-3.787-2.52C259.501,63.789,257.858,65.279,255.116,65.279z M254.751,51.87L254.751,51.87c2.002,0,3.442,1.064,4.054,2.34
					l-9.811,4.101C248.571,55.136,251.579,51.87,254.751,51.87z"/>
				<rect x="237.336" y="36.648" width="4.826" height="32.294"/>
			</g>
			<g>
				<path class="st2" d="M108.536,52.549c0.21-0.994,0.322-2.025,0.322-3.082c0-8.207-6.653-14.86-14.86-14.86
					c-3.429,0-6.584,1.164-9.098,3.115c-3.763-8.036-11.918-13.604-21.377-13.604c-13.032,0-23.597,10.565-23.597,23.597
					c0,0.243,0.011,0.484,0.018,0.725c-8.896,0.658-15.911,8.079-15.911,17.143c0,9.497,7.699,17.196,17.196,17.196h63.904
					c8.454,0,15.308-6.853,15.308-15.308C120.441,60.188,115.352,54.097,108.536,52.549z"/>
				<g>
					<g>
						<g>
							<path class="st3" d="M73.021,60.499c0,0.105,0,0.173,0,0.241c0,1.449,0.001,2.898,0,4.347
								c-0.003,3.068-0.008,6.135-0.013,9.203c-0.001,0.325-0.12,0.614-0.309,0.87c-0.325,0.442-0.756,0.664-1.318,0.664
								c-4.422,0.001-8.845,0.012-13.267,0.017c-0.219,0-0.44-0.006-0.657-0.03c-0.476-0.054-0.816-0.33-1.084-0.706
								c-0.176-0.247-0.253-0.529-0.252-0.833c0.001-0.132,0-0.263,0-0.395c0-5.866,0-11.731,0-17.597c0-0.1,0.002-0.201,0-0.301
								c-0.01-0.694,0.35-1.154,0.938-1.462c0.208-0.109,0.436-0.156,0.671-0.156c2.974,0,5.947,0,8.921,0
								c0.038,0,0.075,0.001,0.113,0.003c0.067,0.003,0.105,0.039,0.109,0.105c0.004,0.075,0.005,0.15,0.005,0.226
								c0,1.826,0,3.651,0,5.477c0,0.253,0,0.302,0.16,0.312c0.039,0.002,0.087,0.002,0.147,0.002c1.832,0,3.664,0,5.495,0
								C72.784,60.487,72.889,60.494,73.021,60.499z"/>
						</g>
						<path class="st4" d="M66.873,54.468c0.004,0.075,0.005,0.15,0.005,0.226c0,1.826,0,3.651,0,5.477c0,0.314,0,0.314,0.307,0.314
							c1.832,0,3.664,0,5.495,0c0.104,0,0.209,0.007,0.341,0.012L66.873,54.468z"/>
						<path class="st5" d="M67.037,60.498c0.039,0.002,0.087,0.002,0.147,0.002c1.832,0,3.664,0,5.495,0
							c0.104,0,0.209,0.007,0.341,0.012c0,0.105,0,0.173,0,0.241c0,1.449,0.001,2.898,0,4.347L67.037,60.498z"/>
					</g>
					<g>
						<rect x="59.087" y="63.601" class="st2" width="10.86" height="0.822"/>
						<rect x="59.087" y="65.959" class="st2" width="10.86" height="0.822"/>
						<rect x="59.087" y="68.139" class="st2" width="10.86" height="0.822"/>
						<rect x="59.087" y="70.64" class="st2" width="6.205" height="0.822"/>
					</g>
				</g>
				<g>
					<path class="st6" d="M54.235,37.793v12.932h-1.016c-0.789,0-1.434-0.645-1.434-1.434V35.944L54.235,37.793z"/>
					<path class="st6" d="M71.468,37.793v12.932h1.016c0.789,0,1.434-0.645,1.434-1.434V35.944L71.468,37.793z"/>
					<polygon class="st7" points="64.988,50.725 54.28,50.725 54.235,50.725 60.653,46.049 54.235,50.725 60.653,46.049 					"/>
					<polygon class="st8" points="54.235,38.17 62.851,44.133 71.467,38.17 71.468,38.248 62.851,44.447 54.235,38.248 					"/>
					<polygon class="st9" points="62.851,44.447 54.262,38.267 54.235,38.248 54.235,39.127 54.268,39.163 60.653,46.049 					"/>
					<polygon class="st10" points="54.235,50.725 60.653,46.049 54.235,39.127 					"/>
					<polygon class="st11" points="64.988,50.725 71.468,50.725 71.468,38.248 62.851,44.447 60.653,46.049 					"/>
					<polygon class="st12" points="52.977,34.607 72.78,34.61 62.851,41.154 					"/>
					<path class="st13" d="M53.706,34.823l9.145,6.33l9.145-6.33c0.554-0.383,1.321-0.244,1.704,0.31l0,0
						c0.156,0.225,0.225,0.485,0.216,0.74v0l0.001,0.61c-0.173,0.128-0.354,0.234-0.527,0.353l-10.54,7.295l-10.54-7.295
						c-0.173-0.119-0.354-0.225-0.527-0.353l0.001-0.61v0c-0.01-0.255,0.06-0.515,0.216-0.74l0,0
						C52.385,34.58,53.152,34.44,53.706,34.823z"/>
					<polygon class="st14" points="54.235,38.17 51.785,36.485 54.235,39.127 					"/>
					<polygon class="st14" points="71.468,38.169 73.918,36.485 71.468,39.127 					"/>
				</g>
				<g>
					<g>
						<polygon class="st15" points="101.629,66.182 96.076,75.776 93.268,70.922 98.823,61.316 						"/>
					</g>
					<g>
						<polygon class="st16" points="109.983,70.92 104.365,70.928 98.824,61.316 104.45,61.316 						"/>
					</g>
					<g>
						<polygon class="st17" points="109.983,70.921 107.177,75.782 96.076,75.776 98.876,70.917 						"/>
					</g>
					<polygon class="st18" points="98.822,61.319 101.629,66.182 100.478,68.171 					"/>
					<polygon class="st19" points="96.076,75.776 98.878,70.924 101.68,75.776 					"/>
				</g>
				<g>
					<g>
						<path class="st2" d="M48.206,62.718h-7.21v7.21h7.21V62.718z"/>
						<path class="st20" d="M48.206,69.928h-7.21v3.245h7.21V69.928z"/>
						<path class="st21" d="M48.206,59.474h-9.373c-0.598,0-1.082,0.484-1.082,1.082v9.373h3.245v-7.21h7.21V59.474z"/>
						<path class="st22" d="M37.752,69.928v2.163c0,0.598,0.484,1.082,1.082,1.082h2.163v-3.245H37.752z"/>
						<path class="st23" d="M51.451,62.718h-3.245v7.21h3.245V62.718z"/>
						<path class="st24" d="M51.451,62.718v-2.163c0-0.598-0.484-1.082-1.082-1.082h-2.163v3.245H51.451z"/>
						<path class="st25" d="M48.206,73.173l3.245-3.245h-3.245V73.173z"/>
					</g>
				</g>
				<g id="XMLID_49_">
					<path id="XMLID_47_" class="st2" d="M83.34,42.711c0.124-0.02,0.258-0.022,0.374,0.033c0.172,0.069,0.293,0.234,0.335,0.411
						c0.014,0.126,0.01,0.26-0.05,0.375c-0.108,0.238-0.396,0.375-0.649,0.309c-0.26-0.058-0.453-0.308-0.45-0.573
						C82.894,43.008,83.092,42.772,83.34,42.711z"/>
					<path id="XMLID_46_" class="st2" d="M90.762,42.71c0.125-0.02,0.261-0.02,0.377,0.038c0.193,0.085,0.324,0.286,0.337,0.495
						c0,0.161-0.054,0.328-0.173,0.441c-0.101,0.107-0.247,0.166-0.393,0.172c-0.225,0.003-0.452-0.131-0.541-0.342
						c-0.057-0.112-0.05-0.242-0.043-0.363C90.371,42.937,90.551,42.76,90.762,42.71z"/>
					<path id="XMLID_45_" class="st2" d="M90.018,51.485c0.294-0.001,0.587-0.002,0.881,0c-0.004,1.167-0.001,2.334-0.001,3.501
						c-0.292,0-0.585,0-0.878,0C90.018,53.819,90.022,52.652,90.018,51.485z"/>
					<g id="XMLID_56_">
						<g id="XMLID_59_">
							<path id="XMLID_60_" class="st26" d="M80.499,42.201c0.185-0.081,0.39-0.093,0.589-0.088c4.113,0,8.226,0,12.339,0
								c0.449-0.008,0.886,0.27,1.067,0.681c0.077,0.162,0.109,0.342,0.106,0.52c-0.002,0.4,0.004,0.8-0.002,1.199
								c-0.133-0.05-0.276-0.064-0.417-0.065c-4.654,0.001-9.308,0-13.962,0.001c-0.147,0.004-0.298,0.01-0.437,0.064
								c-0.006-0.415-0.003-0.831-0.004-1.246C79.776,42.809,80.074,42.37,80.499,42.201z M83.34,42.711
								c-0.247,0.061-0.445,0.297-0.44,0.555c-0.003,0.265,0.191,0.515,0.45,0.573c0.253,0.066,0.541-0.071,0.649-0.309
								c0.06-0.115,0.064-0.249,0.05-0.375c-0.042-0.177-0.163-0.342-0.335-0.411C83.597,42.689,83.463,42.691,83.34,42.711z
								 M90.762,42.71c-0.212,0.05-0.391,0.227-0.434,0.441c-0.007,0.122-0.014,0.251,0.043,0.363
								c0.088,0.21,0.315,0.345,0.541,0.342c0.146-0.007,0.291-0.066,0.393-0.172c0.119-0.112,0.173-0.28,0.173-0.441
								c-0.014-0.209-0.145-0.41-0.337-0.495C91.023,42.69,90.888,42.691,90.762,42.71z"/>
						</g>
						<path id="XMLID_41_" class="st26" d="M90.693,47.983c0.066-0.027,0.138-0.026,0.207-0.02c-0.004,1.171,0,2.342-0.002,3.513
							l0,0.011c-0.293-0.002-0.587-0.001-0.881,0v-0.01c0-0.81-0.001-1.619,0-2.428c-0.585,0.195-1.17,0.393-1.755,0.586
							c-0.002-0.264,0.001-0.529-0.002-0.793C89.071,48.551,89.883,48.27,90.693,47.983z"/>
						<path id="XMLID_38_" class="st26" d="M83.53,48.403c0.367-0.279,0.826-0.424,1.284-0.441c0.455-0.016,0.925,0.058,1.323,0.289
							c0.315,0.18,0.564,0.469,0.699,0.805c0.135,0.335,0.178,0.706,0.137,1.065c-0.088,0.574-0.531,1.038-1.05,1.267
							c0.074,0.022,0.146,0.05,0.215,0.085c-0.045,0.009-0.091,0.014-0.138,0.012c-0.611-0.004-1.223,0.004-1.834-0.004
							c-0.002-0.133-0.005-0.266,0.003-0.398c0.441-0.011,0.906,0.043,1.318-0.15c0.339-0.143,0.591-0.467,0.639-0.833
							c0.041-0.348,0.006-0.73-0.201-1.025c-0.162-0.234-0.438-0.363-0.713-0.404c-0.372-0.052-0.779-0.015-1.091,0.211
							c-0.307,0.216-0.47,0.597-0.462,0.967c-0.283,0.008-0.566,0.002-0.849,0.003c0.005-0.155,0.017-0.312,0.058-0.462
							C82.968,48.998,83.208,48.645,83.53,48.403z"/>
					</g>
					<g id="XMLID_53_">
						<path id="XMLID_36_" class="st27" d="M79.783,44.513c0.139-0.054,0.29-0.061,0.437-0.064c4.654,0,9.308,0,13.962-0.001
							c0.141,0.001,0.284,0.014,0.417,0.065c0.402,0.145,0.728,0.518,0.77,0.949c-0.082-0.296-0.259-0.571-0.523-0.734
							c-0.191-0.119-0.415-0.188-0.641-0.186c-4.669,0.003-9.338,0.003-14.007,0.003c-0.352-0.006-0.706,0.145-0.93,0.419
							c-0.109,0.116-0.166,0.266-0.242,0.403C79.101,44.974,79.409,44.646,79.783,44.513z"/>
						<path id="XMLID_35_" class="st27" d="M90.001,51.476l0.016-0.001v0.01c0.004,1.167,0.001,2.334,0.002,3.501
							c0.293,0,0.585,0,0.878,0c0.001-1.167-0.002-2.334,0.001-3.501l0-0.011l0.014,0.001c0.129,0.016,0.259,0.006,0.389,0.008
							c1.1-0.001,2.2-0.002,3.299,0c0.127,1.839,0.247,3.679,0.372,5.518c0.012,0.21,0.039,0.426-0.019,0.632l-0.005,0.007
							c-0.054,0.061-0.085,0.136-0.124,0.206c-0.206,0.337-0.59,0.563-0.987,0.56c-4.387-0.003-8.774,0.002-13.161,0
							c-0.138,0-0.278,0.007-0.412-0.029c-0.303-0.083-0.578-0.281-0.731-0.559c-0.032-0.061-0.062-0.123-0.104-0.177l-0.005-0.008
							c-0.073-0.276-0.014-0.561-0.005-0.84c0.121-1.769,0.236-3.539,0.358-5.308c1.462-0.004,2.924-0.002,4.387-0.001
							c0.001,0.084,0.002,0.168,0.001,0.252c0.463,0.009,0.948-0.047,1.387,0.137c0.296,0.116,0.54,0.363,0.633,0.669
							c0.103,0.339,0.091,0.713-0.03,1.046c-0.113,0.312-0.384,0.552-0.701,0.645c-0.384,0.114-0.812,0.104-1.182-0.055
							c-0.288-0.123-0.523-0.371-0.612-0.674c-0.042-0.133-0.059-0.273-0.061-0.412c-0.28,0.002-0.56,0.001-0.84,0
							c0.005,0.354,0.091,0.714,0.289,1.012c0.211,0.325,0.538,0.563,0.897,0.702c0.454,0.177,0.957,0.217,1.437,0.143
							c0.467-0.074,0.925-0.283,1.242-0.641c0.292-0.324,0.442-0.756,0.462-1.188c0.027-0.412-0.068-0.845-0.33-1.172
							c-0.147-0.194-0.349-0.334-0.556-0.457c0.101-0.013,0.202-0.01,0.303-0.009c1.036-0.001,2.072,0,3.108,0
							C89.741,51.481,89.872,51.492,90.001,51.476z"/>
					</g>
					<g id="XMLID_50_">
						<path id="XMLID_33_" class="st28" d="M79.268,44.964c0.224-0.274,0.579-0.425,0.93-0.419c4.669,0,9.338,0,14.007-0.003
							c0.226-0.002,0.45,0.067,0.641,0.186c0.264,0.163,0.441,0.438,0.523,0.734c0.023,0.104,0.016,0.213,0.005,0.318
							c-0.254,1.9-0.517,3.799-0.767,5.699c-1.055-0.002-2.111,0.001-3.166,0c-0.176-0.001-0.352,0.007-0.528-0.003l-0.014-0.001
							c0.003-1.171-0.002-2.342,0.002-3.513c-0.07-0.005-0.141-0.007-0.207,0.02c-0.81,0.287-1.623,0.568-2.432,0.857
							c0.003,0.264,0,0.529,0.002,0.793c0.586-0.194,1.17-0.391,1.755-0.586c-0.001,0.81-0.001,1.619,0,2.428l-0.016,0.001
							c-1.226,0.009-2.453,0-3.679,0.005c-0.061-0.001-0.125,0.017-0.182-0.008c-0.069-0.035-0.141-0.063-0.215-0.085
							c0.518-0.229,0.962-0.693,1.05-1.267c0.041-0.358-0.002-0.729-0.137-1.065c-0.136-0.336-0.385-0.624-0.699-0.805
							c-0.398-0.231-0.868-0.305-1.323-0.289c-0.458,0.017-0.917,0.162-1.284,0.441c-0.322,0.242-0.563,0.595-0.66,0.987
							c-0.04,0.151-0.052,0.307-0.058,0.462c0.283-0.001,0.566,0.005,0.849-0.003c-0.008-0.37,0.155-0.751,0.462-0.967
							c0.312-0.226,0.719-0.263,1.091-0.211c0.275,0.041,0.551,0.17,0.713,0.404c0.207,0.295,0.242,0.676,0.201,1.025
							c-0.048,0.366-0.3,0.69-0.639,0.833c-0.412,0.193-0.877,0.139-1.318,0.15l-0.011,0c0.005,0.133-0.001,0.266,0.003,0.399
							c-1.463-0.002-2.926-0.003-4.389,0c-0.25-1.861-0.503-3.723-0.754-5.584c-0.029-0.175-0.039-0.358,0.005-0.531
							C79.102,45.23,79.159,45.08,79.268,44.964z"/>
						<path id="XMLID_32_" class="st28" d="M79.43,57.641c0.043,0.054,0.072,0.116,0.104,0.177c0.153,0.278,0.427,0.476,0.731,0.559
							c0.134,0.036,0.274,0.029,0.412,0.029c4.387,0.002,8.774-0.003,13.161,0c0.398,0.004,0.781-0.223,0.987-0.56
							c0.039-0.07,0.07-0.146,0.124-0.206c-0.097,0.375-0.398,0.686-0.767,0.802c-0.206,0.072-0.426,0.054-0.64,0.056
							c-4.273,0-8.546,0-12.819,0c-0.17,0.001-0.345,0.003-0.509-0.05C79.838,58.336,79.529,58.022,79.43,57.641z"/>
					</g>
				</g>
				<g>
					
						<linearGradient id="SVGID_1_" gradientUnits="userSpaceOnUse" x1="162.6767" y1="86.2975" x2="162.6971" y2="86.3178" gradientTransform="matrix(255.9542 0 0 -296.1383 -41557.5312 25627.4609)">
						<stop  offset="0" style="stop-color:#2A7560"/>
						<stop  offset="0" style="stop-color:#2B7762"/>
						<stop  offset="1" style="stop-color:#2B7761"/>
					</linearGradient>
					<path class="st29" d="M82.8,63.062c-2.939,0-5.322,2.326-5.322,5.194c0,2.869,2.383,5.194,5.322,5.194l0.011,1.956
						c2.735-1.554,5.336-3.627,5.336-7.15C88.147,65.388,85.74,63.062,82.8,63.062z"/>
					<path class="st30" d="M84.208,74.547c2.151-1.45,3.922-3.36,3.938-6.25l-2.035-1.83l-0.931,1.595l-5.285,2.025L84.208,74.547z"
						/>
					<g>
						<g>
							<path id="path-9_1_" class="st31" d="M79.795,68.402v1.427c0,0.377,0.308,0.685,0.685,0.685h3.544
								c0.377,0,0.685-0.308,0.685-0.685v-0.901l1.403,1.403v-1.929H79.795z"/>
						</g>
					</g>
					<path class="st32" d="M86.112,68.402v-1.934l-1.403,1.4v-0.893c0-0.377-0.308-0.685-0.685-0.685H80.48
						c-0.377,0-0.685,0.308-0.685,0.685v1.427H86.112z"/>
				</g>
			</g>
		</g>
		<g>
			<path d="M291.521,65.808c0-0.969-0.34-1.736-1.021-2.3c-0.68-0.565-1.925-1.101-3.734-1.609
				c-1.809-0.508-3.131-1.063-3.963-1.663c-1.185-0.849-1.777-1.961-1.777-3.338c0-1.337,0.55-2.424,1.651-3.26
				c1.101-0.836,2.508-1.255,4.221-1.255c1.161,0,2.2,0.224,3.116,0.672c0.917,0.449,1.627,1.073,2.132,1.873
				c0.504,0.8,0.756,1.693,0.756,2.678h-1.489c0-1.196-0.408-2.158-1.225-2.885c-0.816-0.727-1.913-1.09-3.29-1.09
				c-1.337,0-2.401,0.299-3.194,0.896s-1.189,1.377-1.189,2.339c0,0.89,0.356,1.616,1.069,2.177
				c0.713,0.561,1.853,1.057,3.422,1.485c1.568,0.429,2.757,0.874,3.566,1.334c0.808,0.46,1.417,1.01,1.825,1.651
				c0.409,0.641,0.613,1.397,0.613,2.269c0,1.377-0.551,2.482-1.652,3.315c-1.101,0.833-2.551,1.249-4.352,1.249
				c-1.233,0-2.364-0.221-3.392-0.66c-1.029-0.44-1.809-1.057-2.342-1.849c-0.532-0.793-0.798-1.701-0.798-2.726h1.477
				c0,1.233,0.461,2.206,1.381,2.918c0.921,0.713,2.145,1.069,3.675,1.069c1.361,0,2.453-0.301,3.278-0.901
				C291.109,67.596,291.521,66.8,291.521,65.808z"/>
			<path d="M298.942,63.562l-1.645,1.585v4.96h-1.441V51.662h1.441v11.803l1.357-1.464l4.971-4.888h1.813l-5.512,5.476l5.992,7.516
				h-1.717L298.942,63.562z"/>
			<path d="M307.815,53.361c0-0.27,0.088-0.499,0.265-0.686c0.176-0.187,0.416-0.28,0.72-0.28c0.304,0,0.547,0.094,0.727,0.28
				c0.181,0.187,0.27,0.416,0.27,0.686s-0.09,0.497-0.27,0.68c-0.18,0.183-0.422,0.275-0.727,0.275c-0.304,0-0.544-0.092-0.72-0.275
				C307.903,53.859,307.815,53.632,307.815,53.361z M309.508,70.106h-1.441V57.114h1.441V70.106z"/>
			<path d="M315.02,70.106h-1.441V51.662h1.441V70.106z"/>
			<path d="M320.531,70.106h-1.441V51.662h1.441V70.106z"/>
			<path d="M332.215,66.804c0-0.713-0.286-1.285-0.859-1.717c-0.572-0.432-1.435-0.771-2.587-1.015
				c-1.153-0.244-2.048-0.524-2.684-0.84c-0.637-0.316-1.109-0.703-1.417-1.159c-0.308-0.457-0.463-1.009-0.463-1.657
				c0-1.025,0.428-1.871,1.285-2.54c0.856-0.668,1.953-1.003,3.29-1.003c1.449,0,2.612,0.359,3.489,1.075
				c0.877,0.717,1.315,1.652,1.315,2.804h-1.441c0-0.76-0.319-1.392-0.954-1.897c-0.637-0.504-1.439-0.757-2.408-0.757
				c-0.945,0-1.703,0.21-2.275,0.631c-0.573,0.42-0.859,0.966-0.859,1.638c0,0.649,0.239,1.151,0.715,1.507
				c0.476,0.356,1.344,0.683,2.605,0.979c1.261,0.296,2.206,0.612,2.834,0.949c0.628,0.336,1.094,0.74,1.399,1.213
				c0.304,0.472,0.456,1.044,0.456,1.717c0,1.097-0.442,1.974-1.326,2.63c-0.885,0.656-2.04,0.985-3.465,0.985
				c-1.513,0-2.739-0.366-3.68-1.099c-0.941-0.732-1.411-1.659-1.411-2.779h1.441c0.056,0.84,0.41,1.495,1.063,1.963
				c0.652,0.468,1.514,0.703,2.587,0.703c1.001,0,1.809-0.221,2.425-0.66C331.907,68.033,332.215,67.476,332.215,66.804z"/>
		</g>
	</g>
</g>
</svg>
