<?xml version="1.0" encoding="utf-8"?>
<!-- Generator: Adobe Illustrator 25.2.1, SVG Export Plug-In . SVG Version: 6.00 Build 0)  -->
<svg version="1.1" xmlns="http://www.w3.org/2000/svg" xmlns:xlink="http://www.w3.org/1999/xlink" x="0px" y="0px"
	 viewBox="0 0 402 99" style="enable-background:new 0 0 402 99;" xml:space="preserve">
<style type="text/css">
	.st0{display:none;}
	.st1{display:inline;fill:#F47DBD;}
	.st2{fill:#FFFFFF;}
	.st3{fill:#25ACC6;}
</style>
<g id="Layer_2" class="st0">
	
		<image style="display:inline;overflow:visible;" width="402" height="99" xlink:href="pblock_back_2021.jpg"  transform="matrix(1 0 0 1 0 0.4187)">
	</image>
</g>
<g id="Layer_3" class="st0">
	<rect x="-14.006" y="-8.103" class="st1" width="425.653" height="117.351"/>
</g>
<g id="Layer_1">
	<g>
		<g>
			<path class="st2" d="M47.543,77.614c-13.872,0-24.621-13.771-19.28-28.345c1.966-5.364,6.247-9.646,11.611-11.611
				c14.574-5.341,28.345,5.408,28.345,19.28C68.219,68.354,58.934,77.614,47.543,77.614z"/>
			<g>
				<path class="st3" d="M47.543,77.614c-11.391,0-20.676-9.285-20.676-20.676s9.285-20.676,20.676-20.676
					s20.676,9.285,20.676,20.676C68.219,68.354,58.934,77.614,47.543,77.614z M47.543,39.712c-9.513,0-17.251,7.738-17.251,17.251
					s7.738,17.251,17.251,17.251s17.251-7.738,17.251-17.251C64.794,47.424,57.057,39.712,47.543,39.712z"/>
				<path d="M46.681,58.155c-3.399-0.812-7.585-1.75-7.585-6.139c0-3.856,3.273-6.292,8.169-6.292c4.034,0,8.346,1.928,9.057,6.9
					l-3.856,0.507c-0.051-1.294-0.127-2.334-1.522-3.425c-1.395-1.066-2.994-1.243-4.084-1.243c-2.791,0-4.161,1.649-4.161,3.095
					c0,2.03,2.283,2.638,5.074,3.323l2.03,0.482c2.512,0.583,7.053,1.674,7.053,6.114c0,3.45-3.044,6.672-8.879,6.672
					c-2.385,0-4.846-0.482-6.545-1.7c-0.685-0.507-2.74-2.207-3.146-5.733l4.034-0.634c-0.051,0.939-0.051,2.74,1.573,4.135
					c1.243,1.066,2.841,1.218,4.262,1.218c3.146,0,4.972-1.218,4.972-3.501c0-2.41-1.827-2.867-4.389-3.374L46.681,58.155z"/>
				<g>
					<path d="M233.601,61.25h-5.835v-2.309h9.666v10.96h-2.41v-2.537c0,0,0.381-0.457,0,0.025c-1.75,2.055-4.262,2.968-7.332,2.968
						c-7.535,0-10.224-5.607-10.224-10.655c0-5.835,3.095-11.086,9.919-11.086c3.298,0,8.144,1.167,9.488,6.875l-3.831,0.355
						c-0.127-0.837-0.863-4.693-5.531-4.693c-5.962,0-6.215,6.469-6.215,8.296c0,2.232,0.431,4.135,1.345,5.531
						c1.167,1.877,2.943,2.74,5.099,2.74c4.998,0,5.556-4.084,5.784-5.708L233.601,61.25L233.601,61.25z M88.058,60.768
						c-3.298-0.786-7.357-1.7-7.357-5.962c0-3.755,3.171-6.089,7.915-6.089c3.907,0,8.093,1.877,8.778,6.697l-3.729,0.482
						c-0.051-1.268-0.127-2.258-1.471-3.323c-1.345-1.04-2.917-1.218-3.958-1.218c-2.715,0-4.059,1.598-4.059,2.994
						c0,1.953,2.207,2.562,4.922,3.222l1.953,0.482c2.435,0.558,6.824,1.624,6.824,5.911c0,3.349-2.968,6.469-8.6,6.469
						c-2.309,0-4.693-0.482-6.342-1.649c-0.66-0.482-2.664-2.131-3.044-5.581l3.907-0.609c-0.051,0.913-0.051,2.664,1.522,4.008
						c1.218,1.04,2.74,1.167,4.135,1.167c3.044,0,4.82-1.167,4.82-3.399c0-2.334-1.776-2.791-4.262-3.273L88.058,60.768
						L88.058,60.768z M119.719,62.443c-0.127,0.837-0.355,1.953-1.167,3.476c-1.7,3.12-4.617,4.516-8.397,4.516
						c-7.535,0-10.224-5.607-10.224-10.655c0-5.835,3.095-11.112,9.919-11.112c3.298,0,8.144,1.167,9.488,6.875l-3.831,0.355
						c-0.127-0.837-0.863-4.693-5.53-4.693c-5.962,0-6.215,6.495-6.215,8.321c0,2.207,0.431,4.135,1.345,5.531
						c1.167,1.877,2.968,2.74,5.099,2.74c4.998,0,5.556-4.084,5.784-5.708L119.719,62.443z M121.825,39.078h3.526v12.304
						c2.182-2.309,4.262-2.689,6.215-2.689c4.516,0,6.317,2.537,6.926,4.541c0.406,1.294,0.406,2.664,0.406,4.693v11.924h-3.552
						V59.018c0-2.689,0-4.262-0.837-5.53c-0.863-1.268-2.258-1.75-3.602-1.75c-2.232,0-4.617,1.218-5.302,4.389
						c-0.254,1.142-0.254,2.232-0.254,3.729v9.97h-3.526L121.825,39.078L121.825,39.078z M152.369,70.434
						c-7.103,0-10.097-5.302-10.097-10.706c0-4.566,2.258-11.061,10.224-11.061c6.799,0,9.919,5.277,9.869,10.883
						C162.314,65.792,158.61,70.434,152.369,70.434L152.369,70.434z M158.356,56.684c-0.786-4.034-3.425-5.226-5.784-5.226
						c-4.668,0-6.52,3.602-6.52,8.321c0,4.313,1.776,7.864,6.266,7.864c5.784,0,6.215-6.013,6.266-8.093
						C158.61,58.257,158.483,57.293,158.356,56.684z M174.846,70.434c-7.103,0-10.097-5.302-10.097-10.706
						c0-4.566,2.258-11.061,10.224-11.061c6.799,0,9.919,5.277,9.894,10.883C184.816,65.792,181.112,70.434,174.846,70.434
						L174.846,70.434z M180.859,56.684c-0.786-4.034-3.425-5.226-5.784-5.226c-4.668,0-6.52,3.602-6.52,8.321
						c0,4.313,1.776,7.864,6.266,7.864c5.784,0,6.215-6.013,6.266-8.093C181.112,58.257,180.986,57.293,180.859,56.684z
						 M188.393,39.103h3.349v30.722h-3.349V39.103z M205.315,70.434c-7.078,0-10.097-5.302-10.097-10.706
						c0-4.566,2.258-11.061,10.224-11.061c6.799,0,9.919,5.277,9.869,10.883C215.285,65.792,211.581,70.434,205.315,70.434
						L205.315,70.434z M211.327,56.684c-0.786-4.034-3.45-5.226-5.784-5.226c-4.668,0-6.52,3.602-6.52,8.321
						c0,4.313,1.776,7.864,6.266,7.864c5.784,0,6.215-6.013,6.266-8.093C211.581,58.257,211.454,57.293,211.327,56.684z
						 M255.368,49.048h-3.298l-5.277,8.372l-5.175-8.372h-3.831l7.306,11.264v9.513h3.349v-9.513l7.459-11.264H255.368
						L255.368,49.048z M262.091,51.052c0,1.268-1.015,2.258-2.309,2.258s-2.309-0.989-2.309-2.258s1.04-2.232,2.334-2.232
						C261.076,48.794,262.091,49.784,262.091,51.052L262.091,51.052z M258.032,51.052c0,0.989,0.761,1.801,1.75,1.801
						c0.964,0.025,1.7-0.786,1.7-1.776s-0.736-1.801-1.75-1.801C258.793,49.251,258.032,50.063,258.032,51.052z M259.427,52.219
						h-0.507v-2.258c0.203-0.025,0.482-0.076,0.863-0.076c0.431,0,0.609,0.076,0.761,0.178c0.127,0.101,0.228,0.254,0.228,0.482
						c0,0.279-0.203,0.457-0.457,0.533v0.025c0.228,0.076,0.33,0.254,0.406,0.558c0.076,0.33,0.127,0.457,0.152,0.558h-0.558
						c-0.076-0.076-0.102-0.279-0.178-0.558c-0.051-0.228-0.178-0.355-0.457-0.355h-0.254V52.219z M259.427,50.951h0.254
						c0.279,0,0.507-0.101,0.507-0.33c0-0.203-0.152-0.355-0.482-0.355c-0.127,0-0.228,0.025-0.279,0.025V50.951z"/>
				</g>
			</g>
		</g>
		<g>
			<path d="M283.533,65.872c0-0.969-0.34-1.736-1.021-2.3c-0.68-0.565-1.925-1.101-3.734-1.609
				c-1.809-0.508-3.131-1.063-3.963-1.663c-1.185-0.849-1.777-1.961-1.777-3.338c0-1.337,0.55-2.424,1.651-3.26
				c1.101-0.836,2.508-1.255,4.221-1.255c1.161,0,2.2,0.224,3.116,0.672c0.917,0.449,1.627,1.073,2.132,1.873
				c0.504,0.8,0.756,1.693,0.756,2.678h-1.489c0-1.196-0.408-2.158-1.225-2.885c-0.816-0.727-1.913-1.09-3.29-1.09
				c-1.337,0-2.401,0.299-3.194,0.896c-0.793,0.597-1.189,1.377-1.189,2.339c0,0.89,0.356,1.616,1.069,2.177
				s1.853,1.057,3.422,1.485c1.568,0.429,2.757,0.874,3.566,1.334c0.808,0.46,1.417,1.01,1.825,1.651
				c0.409,0.641,0.613,1.397,0.613,2.269c0,1.377-0.551,2.482-1.652,3.315c-1.101,0.833-2.551,1.249-4.352,1.249
				c-1.233,0-2.364-0.221-3.392-0.66c-1.029-0.44-1.809-1.057-2.342-1.849c-0.532-0.793-0.798-1.701-0.798-2.726h1.477
				c0,1.233,0.461,2.206,1.381,2.918c0.921,0.713,2.145,1.069,3.675,1.069c1.361,0,2.453-0.301,3.278-0.901
				C283.121,67.661,283.533,66.864,283.533,65.872z"/>
			<path d="M290.954,63.626l-1.645,1.585v4.96h-1.442V51.726h1.442V63.53l1.357-1.464l4.971-4.888h1.813l-5.512,5.476l5.992,7.516
				h-1.717L290.954,63.626z"/>
			<path d="M299.827,53.426c0-0.27,0.088-0.499,0.265-0.686c0.176-0.187,0.416-0.28,0.72-0.28s0.547,0.094,0.726,0.28
				c0.181,0.187,0.271,0.416,0.271,0.686s-0.09,0.497-0.271,0.68c-0.18,0.183-0.422,0.275-0.726,0.275s-0.544-0.092-0.72-0.275
				C299.916,53.923,299.827,53.696,299.827,53.426z M301.521,70.17h-1.441V57.178h1.441V70.17z"/>
			<path d="M307.032,70.17h-1.441V51.726h1.441V70.17z"/>
			<path d="M312.544,70.17h-1.441V51.726h1.441V70.17z"/>
			<path d="M324.227,66.868c0-0.713-0.286-1.285-0.859-1.717c-0.572-0.432-1.435-0.771-2.587-1.015
				c-1.153-0.244-2.048-0.524-2.684-0.84c-0.637-0.316-1.109-0.703-1.417-1.159c-0.308-0.457-0.463-1.009-0.463-1.657
				c0-1.025,0.428-1.871,1.285-2.54c0.856-0.668,1.953-1.003,3.29-1.003c1.449,0,2.612,0.359,3.489,1.075
				c0.877,0.717,1.315,1.652,1.315,2.804h-1.441c0-0.76-0.319-1.392-0.954-1.897c-0.637-0.504-1.439-0.757-2.408-0.757
				c-0.945,0-1.703,0.21-2.275,0.631c-0.573,0.42-0.859,0.966-0.859,1.638c0,0.649,0.239,1.151,0.715,1.507
				c0.476,0.356,1.344,0.683,2.605,0.979c1.261,0.296,2.206,0.612,2.834,0.949c0.628,0.336,1.094,0.74,1.399,1.213
				c0.304,0.472,0.456,1.044,0.456,1.717c0,1.097-0.442,1.974-1.326,2.63c-0.885,0.656-2.04,0.985-3.465,0.985
				c-1.513,0-2.739-0.366-3.68-1.099c-0.941-0.732-1.411-1.659-1.411-2.779h1.441c0.056,0.84,0.41,1.495,1.063,1.963
				c0.652,0.468,1.514,0.703,2.587,0.703c1.001,0,1.809-0.221,2.425-0.66C323.919,68.097,324.227,67.541,324.227,66.868z"/>
		</g>
	</g>
</g>
</svg>
