<?xml version="1.0" encoding="utf-8"?>
<!-- Generator: Adobe Illustrator 25.2.1, SVG Export Plug-In . SVG Version: 6.00 Build 0)  -->
<svg version="1.1" id="Layer_1" xmlns="http://www.w3.org/2000/svg" xmlns:xlink="http://www.w3.org/1999/xlink" x="0px" y="0px"
	 viewBox="0 0 402 106" style="enable-background:new 0 0 402 106;" xml:space="preserve">
<style type="text/css">
	.st0{fill:#FFFFFF;}
</style>
<g>
	<path d="M102.501,70.644h8.692v3.289H98.407V54.065h4.094V70.644z"/>
	<path d="M120.076,74.205c-2.165,0-3.928-0.664-5.287-1.992c-1.36-1.328-2.04-3.098-2.04-5.308v-0.382
		c0-1.483,0.286-2.809,0.859-3.978s1.386-2.07,2.436-2.702c1.051-0.632,2.25-0.948,3.596-0.948c2.02,0,3.609,0.637,4.77,1.91
		c1.159,1.273,1.739,3.079,1.739,5.417v1.61h-9.401c0.127,0.964,0.512,1.737,1.153,2.319c0.641,0.583,1.453,0.874,2.436,0.874
		c1.519,0,2.706-0.551,3.562-1.651l1.938,2.17c-0.592,0.837-1.392,1.489-2.401,1.958C122.424,73.971,121.305,74.205,120.076,74.205z
		 M119.626,62.074c-0.782,0-1.417,0.266-1.903,0.796c-0.486,0.529-0.798,1.288-0.935,2.274h5.485v-0.315
		c-0.019-0.877-0.255-1.555-0.71-2.035C121.108,62.314,120.463,62.074,119.626,62.074z"/>
	<path d="M136.382,69.853c0-0.482-0.239-0.862-0.717-1.14s-1.244-0.525-2.299-0.743c-3.512-0.737-5.267-2.229-5.267-4.476
		c0-1.311,0.543-2.404,1.63-3.282s2.509-1.316,4.265-1.316c1.874,0,3.372,0.441,4.496,1.323c1.123,0.883,1.685,2.029,1.685,3.438
		h-3.943c0-0.563-0.182-1.03-0.546-1.398c-0.363-0.368-0.933-0.553-1.705-0.553c-0.664,0-1.179,0.15-1.542,0.45
		c-0.364,0.301-0.546,0.683-0.546,1.146c0,0.437,0.207,0.789,0.621,1.058c0.413,0.269,1.111,0.5,2.095,0.696
		c0.982,0.195,1.81,0.416,2.483,0.661c2.083,0.765,3.124,2.088,3.124,3.971c0,1.347-0.577,2.436-1.732,3.269
		c-1.155,0.832-2.647,1.248-4.476,1.248c-1.237,0-2.336-0.221-3.296-0.661c-0.96-0.441-1.712-1.047-2.258-1.815
		s-0.819-1.599-0.819-2.49h3.739c0.036,0.701,0.296,1.237,0.777,1.61c0.482,0.373,1.128,0.56,1.938,0.56
		c0.755,0,1.325-0.144,1.712-0.43C136.188,70.691,136.382,70.316,136.382,69.853z"/>
	<path d="M150.751,69.853c0-0.482-0.239-0.862-0.717-1.14s-1.244-0.525-2.299-0.743c-3.512-0.737-5.267-2.229-5.267-4.476
		c0-1.311,0.543-2.404,1.63-3.282s2.509-1.316,4.265-1.316c1.874,0,3.372,0.441,4.496,1.323c1.123,0.883,1.685,2.029,1.685,3.438
		h-3.943c0-0.563-0.182-1.03-0.546-1.398c-0.363-0.368-0.933-0.553-1.705-0.553c-0.664,0-1.179,0.15-1.542,0.45
		c-0.364,0.301-0.546,0.683-0.546,1.146c0,0.437,0.207,0.789,0.621,1.058c0.413,0.269,1.111,0.5,2.095,0.696
		c0.982,0.195,1.81,0.416,2.483,0.661c2.083,0.765,3.124,2.088,3.124,3.971c0,1.347-0.577,2.436-1.732,3.269
		c-1.155,0.832-2.647,1.248-4.476,1.248c-1.237,0-2.336-0.221-3.296-0.661c-0.96-0.441-1.712-1.047-2.258-1.815
		s-0.819-1.599-0.819-2.49h3.739c0.036,0.701,0.296,1.237,0.777,1.61c0.482,0.373,1.128,0.56,1.938,0.56
		c0.755,0,1.325-0.144,1.712-0.43C150.558,70.691,150.751,70.316,150.751,69.853z"/>
	<path d="M156.509,66.414c0-1.465,0.282-2.771,0.847-3.916c0.563-1.146,1.375-2.033,2.436-2.661c1.06-0.628,2.29-0.941,3.69-0.941
		c1.992,0,3.618,0.609,4.878,1.828c1.261,1.22,1.963,2.875,2.108,4.967l0.027,1.01c0,2.266-0.632,4.082-1.896,5.451
		s-2.961,2.054-5.09,2.054s-3.827-0.682-5.097-2.047c-1.269-1.364-1.903-3.22-1.903-5.567V66.414z M160.452,66.693
		c0,1.403,0.264,2.477,0.792,3.219c0.527,0.742,1.282,1.114,2.265,1.114c0.955,0,1.701-0.367,2.238-1.101
		c0.536-0.733,0.805-1.906,0.805-3.519c0-1.376-0.269-2.442-0.805-3.198c-0.537-0.756-1.292-1.135-2.266-1.135
		c-0.964,0-1.71,0.376-2.237,1.128C160.716,63.954,160.452,65.118,160.452,66.693z"/>
	<path d="M176.554,59.168l0.122,1.706c1.056-1.319,2.471-1.979,4.244-1.979c1.564,0,2.729,0.459,3.493,1.378
		s1.155,2.293,1.174,4.121v9.538h-3.943V64.49c0-0.837-0.183-1.444-0.546-1.822c-0.364-0.377-0.969-0.566-1.815-0.566
		c-1.109,0-1.942,0.474-2.497,1.42v10.411h-3.943V59.168H176.554z"/>
	<path d="M196.571,69.853c0-0.482-0.239-0.862-0.717-1.14s-1.244-0.525-2.299-0.743c-3.512-0.737-5.267-2.229-5.267-4.476
		c0-1.311,0.543-2.404,1.63-3.282s2.509-1.316,4.265-1.316c1.874,0,3.372,0.441,4.496,1.323c1.123,0.883,1.685,2.029,1.685,3.438
		h-3.943c0-0.563-0.182-1.03-0.546-1.398c-0.363-0.368-0.933-0.553-1.705-0.553c-0.664,0-1.179,0.15-1.542,0.45
		c-0.364,0.301-0.546,0.683-0.546,1.146c0,0.437,0.207,0.789,0.621,1.058c0.413,0.269,1.111,0.5,2.095,0.696
		c0.982,0.195,1.81,0.416,2.483,0.661c2.083,0.765,3.124,2.088,3.124,3.971c0,1.347-0.577,2.436-1.732,3.269
		c-1.155,0.832-2.647,1.248-4.476,1.248c-1.237,0-2.336-0.221-3.296-0.661c-0.96-0.441-1.712-1.047-2.258-1.815
		s-0.819-1.599-0.819-2.49h3.739c0.036,0.701,0.296,1.237,0.777,1.61c0.482,0.373,1.128,0.56,1.938,0.56
		c0.755,0,1.325-0.144,1.712-0.43C196.378,70.691,196.571,70.316,196.571,69.853z"/>
	<path class="st0" d="M202.397,68.583c0-0.918,0.257-1.769,0.771-2.551c0.514-0.782,1.457-1.651,2.831-2.606
		c-0.592-0.792-1.056-1.535-1.392-2.231c-0.337-0.695-0.505-1.421-0.505-2.176c0-1.547,0.488-2.805,1.467-3.773
		c0.978-0.969,2.294-1.453,3.95-1.453c1.482,0,2.699,0.441,3.649,1.323c0.951,0.883,1.427,1.983,1.427,3.303
		c0,1.583-0.801,2.979-2.402,4.188l-1.527,1.105l3.425,3.984c0.536-1.055,0.805-2.22,0.805-3.493h3.356
		c0,2.584-0.596,4.676-1.787,6.277l2.975,3.452h-4.476l-1.023-1.174c-1.465,0.965-3.147,1.446-5.049,1.446
		c-1.965,0-3.539-0.516-4.721-1.549C202.988,71.624,202.397,70.267,202.397,68.583z M209.084,71.026c0.945,0,1.842-0.264,2.688-0.79
		l-3.916-4.519l-0.286,0.204c-0.81,0.689-1.215,1.502-1.215,2.437c0,0.789,0.253,1.432,0.758,1.926
		C207.617,70.779,208.273,71.026,209.084,71.026z M207.638,58.964c0,0.682,0.399,1.542,1.2,2.579l1.051-0.696
		c0.537-0.346,0.907-0.683,1.112-1.01c0.204-0.327,0.307-0.719,0.307-1.174c0-0.454-0.168-0.851-0.505-1.187
		c-0.336-0.337-0.769-0.505-1.296-0.505c-0.564,0-1.017,0.182-1.357,0.546C207.808,57.881,207.638,58.363,207.638,58.964z"/>
	<path d="M221.541,73.933V54.065h6.113c1.747,0,3.31,0.394,4.688,1.18c1.378,0.787,2.454,1.906,3.227,3.356
		c0.773,1.451,1.16,3.101,1.16,4.947v0.914c0,1.847-0.38,3.488-1.14,4.926s-1.83,2.552-3.213,3.343
		c-1.383,0.792-2.943,1.192-4.681,1.201H221.541z M225.635,57.381v13.263h1.979c1.602,0,2.825-0.522,3.671-1.569
		c0.846-1.046,1.278-2.542,1.296-4.489v-1.05c0-2.02-0.418-3.551-1.255-4.592c-0.837-1.042-2.061-1.562-3.671-1.562H225.635z"/>
	<path d="M238.83,66.414c0-1.465,0.282-2.771,0.847-3.916c0.563-1.146,1.375-2.033,2.436-2.661c1.06-0.628,2.29-0.941,3.69-0.941
		c1.992,0,3.618,0.609,4.878,1.828c1.261,1.22,1.963,2.875,2.108,4.967l0.027,1.01c0,2.266-0.632,4.082-1.896,5.451
		s-2.961,2.054-5.09,2.054s-3.827-0.682-5.097-2.047c-1.269-1.364-1.903-3.22-1.903-5.567V66.414z M242.773,66.693
		c0,1.403,0.264,2.477,0.792,3.219c0.527,0.742,1.282,1.114,2.265,1.114c0.955,0,1.701-0.367,2.238-1.101
		c0.536-0.733,0.805-1.906,0.805-3.519c0-1.376-0.269-2.442-0.805-3.198c-0.537-0.756-1.292-1.135-2.266-1.135
		c-0.964,0-1.71,0.376-2.237,1.128C243.037,63.954,242.773,65.118,242.773,66.693z"/>
	<path d="M268.085,68.569l1.938-9.401h3.808l-3.767,14.765h-3.302l-2.797-9.293l-2.798,9.293h-3.288l-3.767-14.765h3.808
		l1.924,9.389l2.701-9.389h2.853L268.085,68.569z"/>
	<path d="M279.411,59.168l0.122,1.706c1.056-1.319,2.471-1.979,4.244-1.979c1.564,0,2.729,0.459,3.493,1.378
		s1.155,2.293,1.174,4.121v9.538h-3.943V64.49c0-0.837-0.183-1.444-0.546-1.822c-0.364-0.377-0.969-0.566-1.815-0.566
		c-1.109,0-1.942,0.474-2.497,1.42v10.411h-3.943V59.168H279.411z"/>
	<path d="M295.595,73.933h-3.957V52.974h3.957V73.933z"/>
	<path d="M298.228,66.414c0-1.465,0.282-2.771,0.847-3.916c0.563-1.146,1.375-2.033,2.436-2.661c1.06-0.628,2.29-0.941,3.69-0.941
		c1.992,0,3.618,0.609,4.878,1.828c1.261,1.22,1.963,2.875,2.108,4.967l0.027,1.01c0,2.266-0.632,4.082-1.896,5.451
		s-2.961,2.054-5.09,2.054s-3.827-0.682-5.097-2.047c-1.269-1.364-1.903-3.22-1.903-5.567V66.414z M302.171,66.693
		c0,1.403,0.264,2.477,0.792,3.219c0.527,0.742,1.282,1.114,2.265,1.114c0.955,0,1.701-0.367,2.238-1.101
		c0.536-0.733,0.805-1.906,0.805-3.519c0-1.376-0.269-2.442-0.805-3.198c-0.537-0.756-1.292-1.135-2.266-1.135
		c-0.964,0-1.71,0.376-2.237,1.128C302.435,63.954,302.171,65.118,302.171,66.693z"/>
	<path d="M323.199,73.933c-0.183-0.355-0.314-0.796-0.396-1.324c-0.955,1.064-2.197,1.597-3.726,1.597
		c-1.446,0-2.645-0.418-3.596-1.255c-0.95-0.837-1.426-1.893-1.426-3.166c0-1.564,0.58-2.766,1.74-3.603
		c1.159-0.837,2.836-1.26,5.028-1.269h1.814v-0.847c0-0.682-0.175-1.228-0.525-1.637s-0.903-0.614-1.658-0.614
		c-0.664,0-1.185,0.159-1.562,0.478c-0.377,0.318-0.565,0.755-0.565,1.31h-3.944c0-0.854,0.265-1.646,0.792-2.374
		c0.527-0.728,1.273-1.298,2.237-1.712c0.965-0.414,2.047-0.621,3.248-0.621c1.819,0,3.264,0.457,4.332,1.371
		c1.069,0.914,1.604,2.199,1.604,3.854v6.4c0.009,1.4,0.205,2.46,0.587,3.179v0.232H323.199z M319.938,71.189
		c0.582,0,1.119-0.13,1.61-0.389s0.855-0.607,1.092-1.044v-2.538h-1.474c-1.975,0-3.024,0.683-3.152,2.047L318,69.498
		c0,0.491,0.173,0.896,0.519,1.214S319.338,71.189,319.938,71.189z"/>
	<path d="M329.012,66.441c0-2.302,0.517-4.135,1.549-5.499c1.032-1.365,2.444-2.047,4.237-2.047c1.437,0,2.624,0.537,3.561,1.61
		v-7.532h3.958v20.959h-3.562l-0.191-1.569c-0.982,1.228-2.247,1.842-3.793,1.842c-1.738,0-3.132-0.685-4.183-2.054
		S329.012,68.879,329.012,66.441z M332.955,66.734c0,1.386,0.241,2.446,0.724,3.185c0.481,0.738,1.183,1.107,2.102,1.107
		c1.219,0,2.078-0.515,2.578-1.545v-5.835c-0.491-1.029-1.342-1.545-2.551-1.545C333.906,62.102,332.955,63.646,332.955,66.734z"/>
	<path d="M353.368,69.853c0-0.482-0.239-0.862-0.717-1.14s-1.244-0.525-2.299-0.743c-3.512-0.737-5.267-2.229-5.267-4.476
		c0-1.311,0.543-2.404,1.63-3.282s2.509-1.316,4.265-1.316c1.874,0,3.372,0.441,4.496,1.323c1.123,0.883,1.685,2.029,1.685,3.438
		h-3.943c0-0.563-0.182-1.03-0.546-1.398c-0.363-0.368-0.933-0.553-1.705-0.553c-0.664,0-1.179,0.15-1.542,0.45
		c-0.364,0.301-0.546,0.683-0.546,1.146c0,0.437,0.207,0.789,0.621,1.058c0.413,0.269,1.111,0.5,2.095,0.696
		c0.982,0.195,1.81,0.416,2.483,0.661c2.083,0.765,3.124,2.088,3.124,3.971c0,1.347-0.577,2.436-1.732,3.269
		c-1.155,0.832-2.647,1.248-4.476,1.248c-1.237,0-2.336-0.221-3.296-0.661c-0.96-0.441-1.712-1.047-2.258-1.815
		s-0.819-1.599-0.819-2.49h3.739c0.036,0.701,0.296,1.237,0.777,1.61c0.482,0.373,1.128,0.56,1.938,0.56
		c0.755,0,1.325-0.144,1.712-0.43C353.175,70.691,353.368,70.316,353.368,69.853z"/>
</g>
<g>
	<path d="M79.078,26.878c-2.46,0-4.462,2.001-4.462,4.461v46.544c0,0.137,0.03,0.273,0.089,0.398l3.529,7.472
		c0.154,0.327,0.483,0.534,0.843,0.534s0.689-0.208,0.843-0.534l3.529-7.472c0.059-0.125,0.089-0.261,0.089-0.398V31.339
		C83.54,28.879,81.538,26.878,79.078,26.878z M81.675,35.921c-0.941-0.366-2.006-0.369-2.597-0.369s-1.655,0.003-2.597,0.369v-0.416
		c0-0.767,0.191-1.354,2.597-1.354s2.597,0.586,2.597,1.354V35.921z M76.481,38.77c0-0.766,0.191-1.353,2.597-1.353
		s2.597,0.586,2.597,1.353v35.87c-0.941-0.366-2.006-0.369-2.597-0.369s-1.655,0.003-2.597,0.369V38.77z M79.078,28.743
		c1.432,0,2.597,1.164,2.597,2.596v1.316c-0.941-0.366-2.006-0.369-2.597-0.369s-1.655,0.003-2.597,0.369v-1.316
		C76.481,29.907,77.646,28.743,79.078,28.743z M81.675,77.674l-1.587,3.361l-0.735-0.777l-0.517,0.827c0,0-0.586-1.068-0.689-1.137
		c-0.016-0.011-0.11,0.262-0.254,0.716l-1.412-2.989V77.49c0-0.767,0.191-1.354,2.597-1.354s2.597,0.586,2.597,1.354V77.674z"/>
	<path d="M30.636,77.394c-0.515,0-0.933,0.418-0.933,0.933c0,0.515,0.418,0.933,0.933,0.933h6.512c0.515,0,0.933-0.418,0.933-0.933
		c0-0.515-0.418-0.933-0.933-0.933H30.636z"/>
	<path d="M71.397,77.394H52.033c-0.515,0-0.933,0.418-0.933,0.933c0,0.515,0.418,0.933,0.933,0.933h19.364
		c0.515,0,0.933-0.418,0.933-0.933C72.33,77.811,71.912,77.394,71.397,77.394z"/>
	<path d="M71.397,81.719H49.072v-2.414c0-1.908-3.852-2.056-5.033-2.056c-1.181,0-5.034,0.148-5.034,2.056v2.414h-9.402
		c-1.747,0-3.169-1.422-3.169-3.169c0-1.747,1.421-3.168,3.169-3.168h41.175c0.515,0,0.933-0.418,0.933-0.933V27.81
		c0-0.515-0.418-0.933-0.933-0.933H29.603c-2.776,0-5.034,2.257-5.034,5.033V78.55c0,2.776,2.258,5.034,5.034,5.034h9.402v1.806
		c0,0.287,0.131,0.556,0.356,0.733c0.166,0.13,0.369,0.199,0.576,0.199c0.073,0,0.148-0.008,0.221-0.027l3.88-0.946l3.879,0.946
		c0.279,0.069,0.572,0.004,0.797-0.172c0.225-0.177,0.356-0.447,0.356-0.733v-1.806h22.326c0.515,0,0.933-0.418,0.933-0.933
		C72.33,82.137,71.912,81.719,71.397,81.719z M69.845,73.517H34.824V28.743h35.021V73.517z M26.434,31.911
		c0-1.747,1.421-3.168,3.169-3.168h3.357v44.774h-3.357c-0.326,0-0.643,0.037-0.952,0.096c-0.101,0.019-0.195,0.053-0.293,0.078
		c-0.205,0.053-0.407,0.11-0.601,0.187c-0.108,0.043-0.21,0.095-0.315,0.145c-0.174,0.083-0.342,0.172-0.504,0.274
		c-0.101,0.063-0.197,0.13-0.293,0.2c-0.069,0.05-0.145,0.09-0.211,0.144V31.911z M47.207,84.202l-2.947-0.718
		c-0.146-0.036-0.296-0.036-0.442,0l-2.948,0.718v-4.613c0.407-0.199,1.527-0.475,3.169-0.475c1.642,0,2.761,0.276,3.168,0.475
		V84.202z"/>
	<path class="st0" d="M38.479,52.666c1.261,3.385,10.643,13.275,13.145,13.286c2.494-0.011,11.874-9.901,13.135-13.286
		c0.596-1.6,2.37-7.129,0.157-11.068c-1.092-1.943-2.955-3.181-5.539-3.68c-2.346-0.457-4.291-0.063-5.78,1.158
		c-0.917,0.752-1.547,1.729-1.979,2.737c-0.432-1.008-1.061-1.986-1.979-2.738c-1.489-1.222-3.434-1.613-5.778-1.157
		c-2.585,0.499-4.448,1.736-5.539,3.679C36.11,45.536,37.883,51.065,38.479,52.666z M39.948,42.511
		c0.822-1.463,2.218-2.367,4.267-2.762c0.507-0.098,0.986-0.147,1.435-0.147c1.124,0,2.064,0.306,2.807,0.916
		c2.096,1.718,2.225,5.357,2.229,6.069c0.003,0.512,0.42,0.926,0.933,0.926c0.513,0,0.93-0.414,0.933-0.926
		c0.004-0.712,0.131-4.348,2.228-6.069c1.039-0.854,2.467-1.115,4.244-0.769c2.049,0.396,3.445,1.299,4.266,2.762
		c1.446,2.574,0.804,6.597-0.278,9.504c-1.212,3.251-9.869,11.75-11.339,12.076c-1.58-0.325-10.236-8.826-11.447-12.076
		C39.145,49.108,38.503,45.085,39.948,42.511z"/>
	<path class="st0" d="M42.177,47.691c0.035,0,0.069-0.001,0.104-0.006c0.512-0.057,0.88-0.517,0.824-1.03
		c-0.313-2.817,2.025-3.606,2.297-3.689c0.492-0.143,0.777-0.658,0.636-1.151c-0.142-0.495-0.661-0.789-1.153-0.64
		c-1.43,0.408-4.03,2.122-3.634,5.686C41.305,47.339,41.709,47.691,42.177,47.691z"/>
</g>
</svg>
