<?xml version="1.0" encoding="utf-8"?>
<!-- Generator: Adobe Illustrator 25.2.1, SVG Export Plug-In . SVG Version: 6.00 Build 0)  -->
<svg version="1.1" xmlns="http://www.w3.org/2000/svg" xmlns:xlink="http://www.w3.org/1999/xlink" x="0px" y="0px"
	 viewBox="0 0 402 99" style="enable-background:new 0 0 402 99;" xml:space="preserve">
<style type="text/css">
	.st0{display:none;}
	.st1{display:inline;fill:#F47DBD;}
	.st2{fill:#FFFFFF;}
	.st3{fill:#B9E4E9;}
	.st4{fill:#C0E46C;}
	.st5{fill:#DABDDB;}
	.st6{fill:#74B71D;}
	.st7{fill:#BF99C8;}
	.st8{fill:#3C0570;}
	.st9{fill:#52BCC5;}
	.st10{fill:#80CED1;}
	.st11{fill:#2B698D;}
	.st12{fill-rule:evenodd;clip-rule:evenodd;fill:#74B71D;}
	.st13{fill:#3B016B;}
	.st14{fill:#28638B;}
	.st15{fill:#4FBBC4;}
	.st16{fill:#FF2D00;}
	.st17{fill:#77BF1E;}
	.st18{fill:#51A1CA;}
	.st19{fill:#FBB802;}
	.st20{fill:#309A2C;}
	.st21{fill:#33429B;}
	.st22{fill:#FF0001;}
	.st23{fill:#FBB502;}
	.st24{fill:#4EA1B5;}
	.st25{fill:#FF1206;}
	.st26{clip-path:url(#SVGID_2_);}
	.st27{fill:#4F4F4F;}
	.st28{fill:#090841;}
	.st29{fill:#9E3400;}
	.st30{fill:#969696;}
	.st31{fill:#1F1987;}
	.st32{fill:#FE5F0D;}
	.st33{clip-path:url(#SVGID_4_);}
	.st34{opacity:0.71;fill:url(#SVGID_5_);enable-background:new    ;}
	.st35{opacity:0.61;fill:url(#SVGID_6_);enable-background:new    ;}
	.st36{fill:#9B9B9B;}
</style>
<g id="Layer_2" class="st0">
	
		<image style="display:inline;overflow:visible;" width="402" height="99" xlink:href="pblock_back_2021.jpg"  transform="matrix(1 0 0 1 0 0.4187)">
	</image>
</g>
<g id="Layer_3" class="st0">
	<rect x="-14.006" y="-8.103" class="st1" width="425.653" height="117.351"/>
</g>
<g id="Layer_1">
	<g>
		<g>
			<path class="st2" d="M111.199,61.178c-0.169-0.978-1.018-1.692-2.01-1.692h-3.136l1.851-1.84
				c0.385-0.382,0.602-0.902,0.602-1.445s-0.215-1.063-0.599-1.446c-2.115-2.109-4.952-3.271-7.991-3.271
				c-3.433,0-6.592,1.437-8.806,3.89c0.657-1.769,1-3.66,1-5.665c0-0.056-0.007-0.11-0.008-0.166c0.025,0,0.049,0.002,0.074,0.002
				c4.656,0,8.443-3.787,8.443-8.443c0-3.859-2.603-7.122-6.146-8.126c0.154-0.592,0.239-1.196,0.292-1.803
				c0.249,0.35,0.568,0.66,0.959,0.91c0.686,1.147,2.348,2.746,5.08,2.797c0.058,0.003,0.133,0.005,0.225,0.005
				c1.039,0,4.167-0.309,7.006-3.719c0.464-0.558,0.597-1.321,0.349-2.003c-0.16-0.44-0.463-0.804-0.85-1.041
				c0.552-0.902,0.989-2.089,0.633-3.32c-0.259-0.895-1.004-2.056-3.082-2.507c-0.407-0.09-0.82-0.049-1.191,0.1
				c-0.3-0.306-0.697-0.518-1.143-0.587l-1.753-0.272c-0.421-0.066-0.849,0.002-1.228,0.193c-1.202,0.603-2.229,1.633-2.464,1.877
				c-0.265,0.26-1.276,1.314-1.901,2.857c-0.285,0.309-0.621,0.762-0.873,1.298c-1.133-4.887-5.513-8.543-10.739-8.543
				c-3.974,0-7.454,2.119-9.397,5.28c-0.142-2.934-2.566-5.279-5.535-5.279c-3.059,0-5.548,2.489-5.548,5.549
				s2.489,5.548,5.548,5.548c1.594,0,3.029-0.679,4.042-1.759c-0.086,0.554-0.144,1.117-0.144,1.694
				c0,1.199,0.203,2.372,0.583,3.501c-0.949,0.16-1.888,0.401-2.817,0.734c-0.099,0.021-0.197,0.05-0.293,0.086
				c-0.11,0.042-0.218,0.088-0.325,0.135l-0.367,0.156c-0.421,0.182-0.831,0.379-1.211,0.583c-0.021,0.011-0.081,0.042-0.103,0.054
				c-0.877,0.478-1.723,1.048-2.506,1.689l-0.111,0.093c-0.368,0.307-0.722,0.629-1.106,1.008c-0.328,0.328-0.636,0.675-0.934,1.03
				c-1.451-1.29-3.387-1.935-5.323-1.775c-0.652,0.055-1.28,0.201-1.871,0.424c0.062-0.091,0.132-0.174,0.192-0.267
				c0.322-0.503,0.395-0.975,0.376-1.357c0.3-0.279,0.595-0.703,0.719-1.357c0.116-0.61,0.245-1.418,0.222-2.29
				c0.021-0.825-0.108-1.596-0.203-2.164c-0.118-0.707-0.436-1.163-0.758-1.452c0.017-0.4-0.063-0.886-0.408-1.413
				c-0.856-1.306-1.953-2.41-3.26-3.282c-0.555-0.37-1.066-0.457-1.478-0.438c-0.27-0.296-0.682-0.59-1.307-0.71
				c-0.844-0.164-1.601-0.247-2.348-0.253c-0.685,0.005-1.404,0.081-2.259,0.24c-0.653,0.12-1.078,0.416-1.357,0.718
				c-0.392-0.019-0.872,0.058-1.387,0.39c-1.377,0.889-2.516,2.031-3.387,3.393c-0.326,0.51-0.401,0.983-0.384,1.37
				c-0.273,0.255-0.564,0.642-0.691,1.243c-0.336,1.588-0.337,3.185-0.003,4.746c0.129,0.602,0.412,0.997,0.7,1.263
				c-0.02,0.409,0.063,0.91,0.422,1.454c0.863,1.305,1.962,2.405,3.267,3.27c0.498,0.33,0.965,0.432,1.354,0.432
				c0.025,0,0.041-0.007,0.066-0.008c0.272,0.309,0.697,0.62,1.354,0.747c0.784,0.153,1.561,0.234,2.352,0.243
				c0.772-0.007,1.56-0.094,2.344-0.258c0.609-0.128,1.01-0.417,1.273-0.707c0.023,0.001,0.046,0.009,0.069,0.009
				c0.226,0,0.452-0.04,0.673-0.11c-0.421,0.822-0.691,1.73-0.759,2.691c0,0.001,0,0.002,0,0.003
				c-2.049,0.644-3.78,1.942-4.979,3.64c-0.341-1.389-1.128-2.691-2.337-3.7c-0.021-0.021-0.042-0.042-0.064-0.062
				c-0.013-0.012-0.026-0.023-0.039-0.035c-0.045-0.043-0.094-0.088-0.125-0.113l-0.078-0.064c-0.01-0.009-0.019-0.021-0.03-0.03
				c-0.198-0.166-0.362-0.287-0.523-0.397c-0.001,0-0.001-0.001-0.002-0.001c-0.008-0.006-0.021-0.015-0.036-0.026
				c-0.013-0.009-0.024-0.016-0.037-0.025c-0.001-0.001-0.002-0.002-0.004-0.003c-0.004-0.002-0.011-0.007-0.018-0.012
				c-0.003-0.002-0.006-0.004-0.008-0.006l0,0c-0.002-0.001-0.009-0.006-0.011-0.007c0,0-0.001-0.001-0.001-0.001c0,0,0,0,0,0
				c-0.028-0.018-0.101-0.064-0.117-0.074v0c-0.005-0.004-0.009-0.006-0.012-0.008c-0.005-0.003-0.009-0.005-0.014-0.008
				c-0.081-0.052-0.17-0.106-0.268-0.162l0,0l-0.011-0.006c-0.01-0.006-0.02-0.012-0.03-0.018l-0.117-0.068
				c-0.02-0.012-0.043-0.025-0.066-0.037c-0.023-0.012-0.046-0.024-0.069-0.036c-0.005-0.002-0.009-0.003-0.014-0.005
				c-0.015-0.008-0.033-0.018-0.036-0.02c-0.036-0.019-0.073-0.038-0.11-0.055l-0.082-0.038c-0.01-0.005-0.02-0.01-0.03-0.014
				c-0.012-0.006-0.024-0.011-0.036-0.016c-0.007-0.003-0.012-0.008-0.019-0.011l0,0c0,0-0.001,0-0.001,0
				c-0.157-0.072-0.247-0.11-0.375-0.159c-0.005-0.002-0.01-0.004-0.015-0.006c-0.01-0.004-0.022-0.008-0.032-0.012c0,0,0,0,0,0
				c-0.085-0.033-0.179-0.069-0.314-0.116c-0.016-0.006-0.039-0.013-0.059-0.02l-0.011-0.004c-0.008-0.003-0.015-0.005-0.022-0.007
				c-0.265-0.083-0.335-0.104-0.466-0.137c-0.035-0.009-0.071-0.019-0.107-0.027c-0.002,0-0.004-0.001-0.007-0.002
				c-0.005-0.001-0.085-0.02-0.09-0.021l0,0c-0.015-0.003-0.03-0.006-0.045-0.01l0-0.001c-0.173-0.039-0.205-0.045-0.367-0.075
				c-0.2-0.034-0.234-0.039-0.312-0.05c-0.014-0.002-0.028-0.004-0.042-0.005c-0.018-0.002-0.034-0.004-0.05-0.006
				c-0.004-0.001-0.007-0.002-0.01-0.003v0c-0.002,0-0.004,0-0.006,0c-0.011-0.002-0.021-0.003-0.031-0.004l-0.351-0.034
				c-0.011-0.001-0.022,0.001-0.033,0c-0.018-0.002-0.036-0.005-0.055-0.007c-0.1-0.007-0.201-0.008-0.3-0.002
				c-0.063-0.008-0.126-0.014-0.19-0.016c-0.023-0.001-0.045-0.001-0.067-0.001c-0.001,0-0.001,0-0.002,0c0,0-0.002,0-0.003,0
				s-0.002,0-0.003,0c-0.154,0-0.202,0.001-0.255,0.004l-0.128,0.005c-0.004,0-0.008,0-0.012,0l-0.009,0
				c-0.025,0.001-0.05,0.003-0.075,0.005l-0.29,0.023v0c-0.006,0.001-0.017,0.002-0.03,0.003l-0.041,0.004
				c-0.208,0.023-0.214,0.024-0.402,0.052c-0.155,0.025-0.207,0.033-0.323,0.057l-0.012,0.002c-0.016,0.003-0.088,0.018-0.105,0.022
				c0,0-0.001,0-0.001,0l-0.092,0.02c-0.001,0-0.002,0-0.003,0.001c0,0,0,0,0,0l-0.018,0.004c-0.024,0.005-0.05,0.011-0.068,0.016
				c-0.001,0-0.002,0.001-0.003,0.001c-0.104,0.024-0.179,0.043-0.309,0.079c-0.004,0.001-0.008,0.003-0.012,0.004
				c-0.003,0.001-0.006,0.001-0.009,0.002c-0.186,0.054-0.293,0.088-0.412,0.129c-0.001,0-0.001,0-0.002,0
				c-0.003,0.001-0.005,0.002-0.008,0.003c-0.004,0.001-0.008,0.003-0.013,0.004c-0.001,0-0.002,0.001-0.002,0.001
				c-0.108,0.037-0.212,0.075-0.377,0.14c-0.007,0.003-0.013,0.008-0.021,0.011c-0.007,0.003-0.015,0.004-0.022,0.007l-0.116,0.049
				c-0.039,0.016-0.104,0.047-0.141,0.065c-0.005,0.003-0.01,0.007-0.015,0.009c-0.066,0.03-0.144,0.068-0.229,0.11
				c-0.023,0.011-0.044,0.019-0.065,0.029c-0.011,0.006-0.022,0.011-0.033,0.017c-0.002,0.001-0.003,0.002-0.005,0.003l0,0
				l-0.126,0.066l0.001,0.002c-0.005,0.003-0.01,0.003-0.015,0.006c0,0,0,0,0,0l0,0c-0.004,0.002-0.007,0.004-0.011,0.006
				c-0.032,0.016-0.093,0.05-0.117,0.063c0,0-0.029,0.018-0.034,0.021l-0.003,0.002l-0.001,0l0,0l-0.172,0.103
				c0,0-0.001,0-0.002,0.001c-0.002,0.001-0.009,0.005-0.012,0.008l-0.004,0.002l-0.009,0.005c0,0-0.001,0.001-0.001,0.001
				c-0.012,0.007-0.022,0.013-0.034,0.021c-0.002,0.001-0.003,0.003-0.005,0.004c-0.001,0-0.001,0.001-0.002,0.001v0l-0.009,0.006
				c-0.006,0.004-0.012,0.008-0.019,0.011l-0.162,0.102c-0.021,0.014-0.054,0.038-0.082,0.058c-0.001,0-0.001,0.001-0.002,0.001
				l-0.008,0.006c-0.005,0.004-0.013,0.009-0.017,0.012c-0.001,0.001-0.003,0.003-0.004,0.004l-0.003,0.003l0,0
				c-0.019,0.014-0.038,0.028-0.056,0.042l-0.255,0.187c-0.025,0.018-0.045,0.045-0.069,0.065c-0.007,0.005-0.014,0.008-0.021,0.014
				c-0.038,0.03-0.078,0.067-0.115,0.099c-0.014,0.011-0.03,0.017-0.044,0.028c-0.05,0.039-0.1,0.083-0.149,0.13l0,0l-0.176,0.169
				c-0.007,0.007-0.015,0.014-0.022,0.021c0,0-0.001,0-0.001,0.001l-0.004,0.004c0,0,0,0-0.001,0.001c0,0,0,0,0,0l-0.148,0.149l0,0
				c0,0-0.001,0.001-0.001,0.001c-0.002,0.002-0.005,0.005-0.007,0.008l-0.016,0.016c-0.004,0.005-0.007,0.01-0.012,0.015
				c-0.098,0.103-0.189,0.203-0.294,0.332c-0.028,0.035-0.057,0.071-0.086,0.108c-0.002,0.003-0.004,0.007-0.006,0.01
				c-0.002,0.002-0.004,0.004-0.006,0.006c-0.003,0.004-0.021,0.026-0.024,0.03c-0.004,0.006-0.007,0.012-0.011,0.017
				c-0.002,0.003-0.005,0.005-0.008,0.008v0c-0.002,0.003-0.004,0.005-0.006,0.008c-0.008,0.011-0.017,0.022-0.026,0.033
				l-0.072,0.093c-0.001,0.001-0.002,0.002-0.003,0.003c-0.054,0.07-0.111,0.158-0.163,0.249c-0.012,0.018-0.027,0.04-0.04,0.06
				c-0.012,0.018-0.028,0.032-0.039,0.05c-0.011,0.016-0.022,0.035-0.033,0.053l-0.021,0.034c-0.002,0.003-0.005,0.007-0.006,0.009
				c-0.01,0.016-0.025,0.042-0.04,0.068c-0.003,0.004-0.008,0.014-0.014,0.025c-0.017,0.031-0.032,0.059-0.044,0.081c0,0,0,0,0,0
				c0,0-0.001,0.001-0.001,0.002c-0.001,0.002-0.004,0.007-0.005,0.009c0,0.001-0.001,0.002-0.001,0.002
				c-0.096,0.177-0.2,0.388-0.279,0.556c-0.004,0.009-0.008,0.018-0.012,0.027c-0.031,0.068-0.047,0.139-0.07,0.208
				c-0.041,0.104-0.084,0.206-0.12,0.315c-0.005,0.014-0.013,0.026-0.018,0.04c-0.003,0.009-0.005,0.02-0.008,0.029
				c-0.001,0.004-0.003,0.008-0.004,0.012c-0.01,0.031-0.018,0.061-0.026,0.092c-0.001,0.003-0.002,0.008-0.003,0.011
				c0,0.002-0.001,0.004-0.002,0.006c-0.001,0.003-0.001,0.006-0.002,0.009c-0.01,0.038-0.021,0.089-0.032,0.132
				c-0.01,0.032-0.025,0.06-0.033,0.093c-0.026,0.104-0.046,0.209-0.073,0.359h0c-0.001,0.003-0.001,0.005-0.001,0.008
				c0,0,0,0,0,0.001c-0.011,0.052-0.035,0.185-0.042,0.237c-0.02,0.155-0.035,0.353-0.051,0.617
				c-0.003,0.05-0.005,0.101-0.004,0.152l0.001,0.145c0,0.041,0.006,0.088,0.009,0.132c0.003,0.081,0.008,0.158,0.013,0.231
				c-0.001,0.013-0.001,0.027-0.002,0.041c-0.097,2.51,1.255,4.904,3.528,6.247c1.165,0.689,2.467,1.03,3.77,1.074
				c-0.776,0.697-1.275,1.697-1.275,2.82c0,2.098,1.707,3.805,3.805,3.805s3.805-1.707,3.805-3.805c0-1.659-1.075-3.06-2.561-3.578
				c0.826-0.388,1.581-0.917,2.218-1.578c0.187,2.555,1.388,4.935,3.293,6.601c-1.779,2.453-2.738,5.392-2.738,8.482
				c0,0.064,0.008,0.126,0.01,0.19c-2.192-2.226-5.238-3.608-8.609-3.608c-6.675,0-12.086,5.411-12.086,12.086
				c0,6.675,5.411,12.086,12.086,12.086c6.444,0,11.695-5.048,12.052-11.403c2.66,3.149,6.622,5.161,11.059,5.161
				c2.711,0,5.284-0.745,7.504-2.093c-0.294,0.574-0.475,1.215-0.475,1.903c0,2.324,1.891,4.215,4.215,4.215
				s4.215-1.891,4.215-4.215c0-1.09-0.427-2.075-1.108-2.824c1.107,0.368,2.279,0.568,3.487,0.568
				c6.084,0,11.033-4.949,11.033-11.034c0-2.867-1.146-5.635-3.14-7.685c1.023-0.796,1.948-1.716,2.759-2.74
				c-0.377,1.169-0.582,2.385-0.582,3.639c0,1.885,0.429,3.689,1.276,5.361c2.036,4.025,6.102,6.525,10.61,6.525
				c2.918,0,5.673-1.081,7.757-3.044c2.36-2.221,3.714-5.444,3.714-8.842C111.387,62.634,111.323,61.896,111.199,61.178z"/>
			<g>
				<g>
					<g>
						<path class="st3" d="M41.592,60.963c-0.973,0-1.765-0.792-1.765-1.765c0-0.973,0.792-1.765,1.765-1.765
							s1.765,0.792,1.765,1.765C43.357,60.171,42.565,60.963,41.592,60.963z M41.592,58.047c-0.635,0-1.151,0.516-1.151,1.151
							c0,0.635,0.516,1.151,1.151,1.151c0.635,0,1.151-0.516,1.151-1.151C42.743,58.563,42.227,58.047,41.592,58.047z"/>
					</g>
					<g>
						<path class="st4" d="M68.861,28.279c-1.935,0-3.508-1.574-3.508-3.508s1.574-3.508,3.508-3.508s3.508,1.574,3.508,3.508
							S70.796,28.279,68.861,28.279z M68.861,22.336c-1.342,0-2.434,1.092-2.434,2.434s1.092,2.434,2.434,2.434
							s2.434-1.092,2.434-2.434S70.203,22.336,68.861,22.336z"/>
					</g>
					<g>
						<path class="st5" d="M71.366,85.622c-1.199,0-2.175-0.976-2.175-2.175c0-1.199,0.976-2.175,2.175-2.175
							c1.199,0,2.175,0.976,2.175,2.175C73.541,84.646,72.566,85.622,71.366,85.622z M71.366,82.039
							c-0.776,0-1.408,0.632-1.408,1.408c0,0.776,0.632,1.408,1.408,1.408c0.776,0,1.408-0.632,1.408-1.408
							C72.774,82.67,72.143,82.039,71.366,82.039z"/>
					</g>
					<g>
						<path class="st6" d="M79.46,33.934c0.015,0,0.029-0.001,0.044-0.001c2.932,0.641,5.526,2.09,7.783,4.348
							c0.06,0.06,0.119,0.121,0.178,0.181c3.135-1.405,5.32-4.551,5.32-8.209c0-4.967-4.026-8.993-8.993-8.993
							c-4.967,0-8.993,4.026-8.993,8.993c0,1.157,0.221,2.262,0.619,3.278c0.15-0.004,0.299-0.01,0.45-0.01
							C77.104,33.521,78.305,33.666,79.46,33.934z"/>
					</g>
					<g>
						<path class="st7" d="M92.177,34.699c-2.301,0-4.321,1.22-5.45,3.047c0.189,0.174,0.376,0.351,0.561,0.535
							c0.274,0.273,0.535,0.551,0.785,0.834c0.74-1.522,2.302-2.574,4.105-2.574c2.515,0,4.562,2.046,4.562,4.562
							c0,2.515-2.046,4.562-4.562,4.562c-0.217,0-0.43-0.016-0.639-0.046c0.153,0.612,0.269,1.238,0.349,1.88
							c0.096,0.004,0.192,0.007,0.289,0.007c3.531,0,6.403-2.872,6.403-6.403C98.58,37.572,95.708,34.699,92.177,34.699z"/>
					</g>
					<g>
						<path class="st8" d="M87.465,38.462c1.739-0.779,3.185-2.093,4.128-3.735c-2.056,0.187-3.833,1.349-4.865,3.019
							c0.189,0.173,0.376,0.35,0.56,0.534C87.348,38.341,87.406,38.401,87.465,38.462z"/>
					</g>
					<g>
						<path class="st3" d="M58.853,47.846c-1.838,0-3.322-1.548-3.216-3.408c0.093-1.636,1.441-2.963,3.078-3.032
							c1.043-0.044,1.983,0.412,2.602,1.147c0.284-0.576,0.599-1.133,0.947-1.668c-0.999-0.912-2.364-1.431-3.847-1.306
							c-2.463,0.207-4.439,2.213-4.614,4.678c-0.21,2.957,2.137,5.43,5.05,5.43c0.275,0,0.545-0.023,0.809-0.065
							c0.003-0.648,0.043-1.286,0.12-1.914C59.487,47.797,59.176,47.846,58.853,47.846z"/>
					</g>
					<g>
						<path class="st9" d="M59.808,47.669c-1.354-1.219-3.145-1.961-5.11-1.961c-4.22,0-7.641,3.421-7.641,7.641
							s3.421,7.641,7.641,7.641c2.901,0,5.424-1.617,6.718-3.998c-1.11-2.193-1.736-4.672-1.736-7.297
							C59.68,49.009,59.725,48.333,59.808,47.669z"/>
					</g>
					<g>
						<path class="st10" d="M58.873,47.854c-1.365,0-2.531-0.855-3-2.056c-0.383-0.059-0.775-0.09-1.175-0.09
							c-0.258,0-0.512,0.013-0.763,0.038c0.509,2.258,2.529,3.95,4.938,3.95c0.275,0,0.545-0.024,0.809-0.066
							c0.003-0.648,0.043-1.286,0.12-1.914C59.507,47.804,59.196,47.854,58.873,47.854z"/>
					</g>
					<g>
						<path class="st11" d="M61.274,56.707c-0.38-0.035-0.764-0.055-1.153-0.055c-6.888,0-12.472,5.584-12.472,12.472
							s5.584,12.472,12.472,12.472s12.472-5.584,12.472-12.472c0-1.29-0.196-2.535-0.56-3.705
							C67.283,64.266,63.351,61.018,61.274,56.707z"/>
					</g>
					<path class="st8" d="M82.222,64.574c-1.953,0.836-4.103,1.3-6.362,1.3c-1.843,0-3.614-0.309-5.264-0.877
						c-1.025,1.461-1.629,3.239-1.629,5.159c0,4.967,4.026,8.993,8.993,8.993c4.967,0,8.993-4.026,8.993-8.993
						c0-2.586-1.093-4.915-2.84-6.555c-0.609,0.363-1.243,0.688-1.901,0.97C82.216,64.573,82.219,64.574,82.222,64.574z"/>
					<g>
						<path class="st12" d="M67.22,51.957l-0.155-0.452c-0.674-2.592-0.479-5.188,0.583-7.787c1.316-3.186,3.562-5.445,6.741-6.777
							c1.582-0.661,3.163-0.996,4.744-1.005c2.561,0.56,4.828,1.826,6.8,3.799c2.758,2.75,4.137,6.075,4.137,9.975
							c0,3.066-0.866,5.796-2.597,8.191c-0.991,0.856-2.138,1.557-3.442,2.104c-3.178,1.324-6.364,1.335-9.558,0.036
							c-0.373-0.159-0.729-0.321-1.07-0.488c-0.674-0.349-1.296-0.749-1.867-1.201c-0.262-0.19-0.515-0.392-0.761-0.606
							c-0.278-0.246-0.543-0.503-0.797-0.773c-0.586-0.658-1.109-1.383-1.57-2.175l-0.178-0.381
							c0.008,0.014,0.016,0.028,0.024,0.042c0.001,0.006,0.004,0.013,0.006,0.018c0.367,0.649,0.792,1.24,1.278,1.772
							c0.016,0.016,0.04,0.036,0.071,0.059c0.174,0.198,0.369,0.396,0.583,0.594c0.056,0.047,0.107,0.087,0.155,0.119
							c0.198,0.182,0.4,0.348,0.606,0.499c0.674,0.476,1.411,0.88,2.211,1.213c0.365,0.151,0.725,0.278,1.082,0.381
							c2.211,0.642,4.418,0.503,6.622-0.416c1.07-0.444,2.005-1.014,2.806-1.712c0.872-0.761,1.589-1.672,2.152-2.734
							c0.182-0.325,0.341-0.67,0.475-1.034c0.103-0.23,0.195-0.464,0.274-0.701c0.206-0.587,0.353-1.169,0.44-1.748
							c-0.008-0.039-0.008-0.075,0-0.107c0.039-0.293,0.067-0.587,0.083-0.88c0.055-1.427-0.214-2.854-0.808-4.28
							c-1.07-2.568-2.897-4.379-5.481-5.433c-2.576-1.046-5.143-1.035-7.703,0.036c-2.576,1.07-4.391,2.893-5.445,5.469
							C66.78,47.712,66.634,49.84,67.22,51.957z"/>
						<path class="st13" d="M76.949,38.073c-6.189,0-11.207,5.018-11.207,11.207s5.018,11.207,11.207,11.207
							c6.189,0,11.207-5.018,11.207-11.207S83.138,38.073,76.949,38.073z M76.978,52.285c-1.817,0-3.29-1.473-3.29-3.29
							s1.473-3.29,3.29-3.29c1.817,0,3.29,1.473,3.29,3.29S78.795,52.285,76.978,52.285z"/>
						<path class="st14" d="M80.289,59.576c-6.377,0-11.547-5.17-11.547-11.547s5.17-11.547,11.547-11.547
							c0.238,0,0.47,0.021,0.705,0.036c-1.567-0.599-3.261-0.941-5.038-0.941c-7.805,0-14.132,6.327-14.132,14.132
							S68.151,63.84,75.955,63.84c5.509,0,10.27-3.159,12.601-7.758C86.459,58.235,83.532,59.576,80.289,59.576z"/>
						<path class="st15" d="M68.72,45.251c0-3.177,0.81-6.164,2.234-8.768c-5.341,2.019-9.141,7.177-9.141,13.225
							c0,7.807,6.329,14.136,14.136,14.136c1.974,0,3.852-0.406,5.558-1.136C74.094,60.367,68.72,53.437,68.72,45.251z"/>
						<path class="st2" d="M76.313,44.335c-2.767,0-5.018,2.251-5.018,5.018c0,2.767,2.251,5.018,5.018,5.018
							c2.767,0,5.018-2.251,5.018-5.018C81.331,46.585,79.08,44.335,76.313,44.335L76.313,44.335z"/>
						<path class="st6" d="M76.997,45.718c1.809,0,3.276,1.467,3.276,3.276c0,1.809-1.467,3.276-3.276,3.276
							s-3.276-1.467-3.276-3.276C73.721,47.185,75.188,45.718,76.997,45.718 M76.313,44.335c-2.767,0-5.018,2.251-5.018,5.018
							c0,2.767,2.251,5.018,5.018,5.018c2.767,0,5.018-2.251,5.018-5.018C81.331,46.585,79.08,44.335,76.313,44.335L76.313,44.335z"
							/>
					</g>
					<g>
						<path class="st2" d="M86.374,29.33c0-0.474-0.158-0.939-0.456-1.344c-0.063-0.085-0.183-0.103-0.268-0.041
							c-0.085,0.063-0.104,0.183-0.041,0.268c0.25,0.339,0.382,0.725,0.382,1.117c0,1.245-1.223,2.184-2.846,2.184
							c-0.659,0-1.281-0.166-1.799-0.48c-0.116-0.07-0.238-0.018-0.459,0.077c-0.171,0.073-0.395,0.17-0.622,0.216
							c0.374-0.37,0.608-0.623,0.403-0.874c-0.293-0.36-0.448-0.776-0.448-1.202c0-1.248,1.312-2.264,2.925-2.264
							c0.317,0,0.628,0.039,0.925,0.116c0.103,0.026,0.207-0.035,0.234-0.138c0.027-0.103-0.035-0.207-0.138-0.234
							c-0.329-0.085-0.672-0.128-1.022-0.128c-1.824,0-3.309,1.188-3.309,2.647c0,0.504,0.176,0.993,0.511,1.415
							c-0.047,0.087-0.238,0.276-0.409,0.445c-0.085,0.083-0.178,0.176-0.279,0.278c-0.049,0.05-0.067,0.122-0.047,0.189
							s0.074,0.118,0.142,0.133c0.467,0.104,0.978-0.116,1.284-0.248c0.056-0.024,0.122-0.053,0.165-0.068
							c0.567,0.329,1.237,0.503,1.942,0.503C84.986,31.898,86.374,30.794,86.374,29.33z"/>
						<path class="st2" d="M88.043,32.776c-0.101-0.102-0.194-0.193-0.278-0.275c-0.28-0.274-0.501-0.491-0.441-0.564
							c0.333-0.405,0.508-0.876,0.508-1.361c0-0.69-0.35-1.333-0.985-1.812c-0.026-0.02-0.062-0.021-0.09-0.002
							c-0.027,0.019-0.039,0.053-0.03,0.084c0.059,0.208,0.089,0.419,0.089,0.629c0,1.596-1.672,2.894-3.727,2.894
							c-0.145,0-0.297-0.008-0.477-0.026c-0.035-0.002-0.068,0.017-0.08,0.051c-0.012,0.033,0,0.07,0.029,0.09
							c0.579,0.39,1.316,0.604,2.075,0.604c0.703,0,1.368-0.176,1.927-0.508c0.037,0.005,0.137,0.048,0.226,0.086
							c0.293,0.125,0.784,0.334,1.213,0.239c0.027-0.006,0.049-0.026,0.057-0.053S88.063,32.796,88.043,32.776z"/>
						<path class="st2" d="M82.937,29.391c0,0,0.881-0.034,1-0.153l2.189-2.163l-0.787-0.843l-2.217,2.191
							C83.002,28.542,82.937,29.391,82.937,29.391z"/>
						<path class="st2" d="M86.597,26.608c0.119-0.119,0.119-0.315,0-0.434l-0.381-0.381c-0.119-0.119-0.315-0.119-0.434,0
							l-0.209,0.206l0.787,0.843L86.597,26.608z"/>
					</g>
					<g>
						<g>
							<path class="st2" d="M61.14,71.102c1.055-1.59,2.395-3.957,3.922-6.186h0.325v0.15v8.886v1.676H54.684v-1.259h1.946v-0.973
								h-1.946v-1.45h1.946v-0.972h-1.946v-1.452h1.946v-0.974h-1.946v-1.449h1.946v-0.974h-1.946v-1.209h2.935h5.15
								c-1.236,2.025-2.678,3.689-3.506,4.945c-0.14,0.212-0.42,2.225-0.42,2.225c-0.077,0.116-0.044,0.272,0.07,0.347
								c0.114,0.075,0.27,0.044,0.347-0.071c0,0,0.75-0.463,1.105-0.703C60.721,71.42,61.14,71.102,61.14,71.102"/>
						</g>
					</g>
					<g>
						<g>
							<path class="st9" d="M76.536,70.152h1.161v1.116h-1.161V70.152z M80.018,71.267h-1.161v-1.116h1.161V71.267z M81.178,71.267
								v-1.116v-1.116v-1.116h-1.161v1.116h-3.481v-1.116h-1.161v1.116v1.116v1.116h-1.161v1.116h1.161v1.116h1.161v1.116h1.16
								v-1.116h1.161v1.116h1.16v-1.116h1.161v-1.116h1.16v-1.116H81.178z"/>
						</g>
					</g>
					<g>
						<g>
							<path class="st2" d="M55.653,55.412c-0.118,0.135-0.289,0.216-0.469,0.22l-0.017,0c-0.174,0-0.342-0.071-0.463-0.196
								l-1.865-1.919c-0.248-0.256-0.242-0.665,0.013-0.913c0.256-0.248,0.665-0.242,0.913,0.013l1.377,1.417l2.72-3.109v-0.71
								h-5.085c-0.778,0-1.408,0.63-1.408,1.408v5.084h6.493v-3.821L55.653,55.412z"/>
						</g>
					</g>
				</g>
				<g>
					<path class="st16" d="M36.647,77.427l-6.985,0.006l-0.006-6.985l6.985-0.006L36.647,77.427z"/>
					<path class="st17" d="M44.359,77.421l-6.985,0.006l-0.006-6.985l6.985-0.006L44.359,77.421L44.359,77.421z"/>
					<path class="st18" d="M36.653,85.142l-6.985,0.006l-0.006-6.985l6.985-0.006L36.653,85.142z"/>
					<path class="st19" d="M44.365,85.135l-6.985,0.006l-0.006-6.985l6.985-0.006L44.365,85.135L44.365,85.135z"/>
				</g>
				<g>
					<path class="st20" d="M109.347,63.371c0-0.63-0.054-1.247-0.158-1.844h-9.29v3.862l5.416,0.008
						c-0.354,1.252-1.076,2.292-2.075,2.991l3.035,2.34C108.19,68.924,109.347,66.297,109.347,63.371z"/>
					<path class="st21" d="M100.023,57.457c1.484,0,2.748,0.56,3.693,1.476l2.751-2.733c-1.663-1.658-3.94-2.675-6.551-2.675
						c-3.891,0-7.255,2.257-8.853,5.534l3.261,2.43C95.111,59.12,97.364,57.457,100.023,57.457z"/>
					<path class="st22" d="M91.126,67.811l3.194-2.591c-0.192-0.588-0.298-1.215-0.298-1.866c0-0.655,0.106-1.28,0.3-1.864
						l-3.261-2.43c-0.635,1.302-0.992,2.765-0.992,4.312C90.07,64.968,90.451,66.477,91.126,67.811z"/>
					<path class="st23" d="M94.321,65.219l-3.194,2.591c1.623,3.207,4.95,5.406,8.79,5.406c2.512,0,4.715-0.941,6.359-2.489
						l-3.035-2.34c-0.878,0.614-1.971,0.965-3.217,0.965C97.361,69.353,95.106,67.619,94.321,65.219z"/>
				</g>
				<g>
					<g>
						<path class="st24" d="M106.015,29.781c0,0-0.16,0.231-0.46,0.55c-1.14-0.549-1.736-1.161-1.795-1.224
							c0.405-0.274,0.809-0.596,1.174-0.971c0,0,3.151-3.101-0.282-3.845l-0.676,0.798c0,0,2.245-0.343,0.629,1.917
							c0,0-0.425,0.586-1.321,1.254c-0.151-0.593-0.088-1.495,0.811-2.689l-0.444,0.02c-0.915,1.261-1.741,1.879-2.643,2.051
							c-0.828,0.159-1.561-0.005-1.561-0.005l-0.142,0.197c1.479,0.241,1.841,0.652,1.841,0.652s0.3,0.165,0.324,0.823
							c-0.717,0.313-1.562,0.578-2.543,0.728c0,0-0.216,0.032-0.512,0.054c-0.119-0.367-0.18-0.797-0.155-1.3
							c0,0,0.204-3.347,4.177-4.963l-1.752-0.272c-1.006,0.505-1.931,1.491-1.931,1.491s-1.101,1.036-1.591,2.55c0,0,0,0,0,0
							c0,0-0.84,0.73-0.939,1.48c-0.098,0.74,0.32,1.238,1.027,1.501c0.042,0.101,0.089,0.203,0.14,0.305
							c0,0,0.914,1.932,3.489,1.961c0,0,2.904,0.243,5.587-2.98L106.015,29.781z M96.959,29.956c0,0-0.876-0.477,0.004-1.48
							c0.001,0,0.002,0,0.003,0c-0.06,0.481-0.043,0.993,0.092,1.523C97.023,29.985,96.99,29.971,96.959,29.956z M100.978,32.18
							c0,0-1.434-0.21-2.221-1.383c0.749-0.009,1.59-0.157,2.419-0.44c0,0,0.06-0.017,0.165-0.053
							c-0.103,0.406-0.275,0.898-0.547,1.494l0.416,0.005c0,0,0.805-1.56,1.494-2.027c0,0,0.941-0.148,2.636,0.773
							C104.521,31.349,102.992,32.45,100.978,32.18z"/>
						<path class="st24" d="M100.655,26.339c-0.018,0.418,0.32,0.763,0.738,0.755c0.379-0.008,0.691-0.313,0.707-0.691
							c0.018-0.418-0.319-0.764-0.738-0.755C100.983,25.655,100.671,25.96,100.655,26.339z"/>
					</g>
				</g>
				<g>
					<path class="st25" d="M48.157,38.21c-1.017-0.012-1.916,0.676-2.179,1.645c-0.064,0.235-0.033,0.337,0.228,0.388
						c0.644,0.125,1.29,0.198,1.945,0.205c0.655-0.006,1.302-0.08,1.943-0.215c0.2-0.042,0.263-0.113,0.208-0.333
						C50.06,38.931,49.174,38.222,48.157,38.21z"/>
					<path class="st25" d="M48.13,27.272c1.018,0.001,1.909-0.696,2.164-1.666c0.06-0.228,0.014-0.32-0.213-0.364
						c-0.643-0.125-1.288-0.209-1.944-0.215c-0.642,0.005-1.274,0.089-1.904,0.206c-0.259,0.048-0.332,0.135-0.255,0.406
						C46.247,26.586,47.132,27.272,48.13,27.272z"/>
					<path class="st25" d="M42.67,32.715c-0.003-0.993-0.665-1.882-1.599-2.133c-0.175-0.047-0.352-0.134-0.419,0.182
						c-0.276,1.301-0.282,2.595-0.003,3.896c0.06,0.279,0.181,0.271,0.4,0.211C42.008,34.606,42.673,33.731,42.67,32.715z"/>
					<path class="st25" d="M55.669,30.871c-0.051-0.307-0.165-0.38-0.461-0.291c-0.941,0.283-1.615,1.194-1.595,2.188
						c0.02,0.98,0.708,1.847,1.644,2.11c0.279,0.078,0.354-0.02,0.401-0.27c0.12-0.632,0.208-1.265,0.185-1.909
						C55.865,32.083,55.77,31.478,55.669,30.871z"/>
					<path class="st25" d="M41.548,29.202c0.364,0.205,0.75,0.316,1.17,0.313c0.837-0.034,1.494-0.392,1.908-1.126
						c0.412-0.731,0.4-1.477-0.004-2.218c-0.102-0.187-0.184-0.261-0.399-0.122c-1.126,0.728-2.052,1.648-2.775,2.778
						C41.325,29.022,41.373,29.103,41.548,29.202z"/>
					<path class="st25" d="M42.629,35.942c-0.332-0.006-0.69,0.101-1.038,0.277c-0.237,0.12-0.264,0.233-0.114,0.46
						c0.716,1.082,1.61,1.978,2.693,2.695c0.272,0.18,0.362,0.078,0.484-0.149C45.454,37.73,44.384,35.939,42.629,35.942z"/>
					<path class="st25" d="M53.598,29.507c0.39,0.001,0.748-0.113,1.092-0.292c0.203-0.105,0.271-0.194,0.118-0.427
						c-0.712-1.087-1.605-1.983-2.686-2.704c-0.271-0.18-0.374-0.114-0.513,0.146C50.814,27.718,51.899,29.514,53.598,29.507z"/>
					<path class="st25" d="M54.775,36.284c-0.372-0.221-0.768-0.344-1.203-0.338c-0.841,0.023-1.498,0.386-1.916,1.115
						c-0.419,0.728-0.397,1.482-0.004,2.221c0.071,0.134,0.127,0.303,0.362,0.154c1.159-0.732,2.098-1.679,2.835-2.832
						C54.947,36.45,54.927,36.374,54.775,36.284z"/>
					<path class="st25" d="M51.794,35.697c0.011-0.381-0.297-0.703-0.685-0.715c-0.386-0.012-0.705,0.294-0.712,0.682
						c-0.007,0.392,0.292,0.706,0.68,0.715C51.465,36.388,51.783,36.085,51.794,35.697z"/>
					<path class="st25" d="M51.628,32.727c0,0.389,0.309,0.698,0.698,0.696c0.384-0.002,0.706-0.324,0.701-0.701
						c-0.005-0.385-0.321-0.696-0.706-0.695C51.93,32.027,51.628,32.333,51.628,32.727z"/>
					<path class="st25" d="M43.987,32.028c-0.391-0.007-0.705,0.292-0.712,0.68c-0.007,0.386,0.298,0.707,0.682,0.716
						c0.379,0.009,0.712-0.308,0.718-0.684C44.681,32.356,44.37,32.035,43.987,32.028z"/>
					<path class="st25" d="M48.154,27.865c-0.383-0.013-0.707,0.294-0.716,0.68c-0.01,0.393,0.287,0.707,0.676,0.717
						c0.387,0.009,0.708-0.293,0.72-0.677C48.846,28.2,48.542,27.878,48.154,27.865z"/>
					<path class="st25" d="M51.105,30.473c0.379-0.012,0.698-0.346,0.686-0.718c-0.013-0.387-0.33-0.686-0.72-0.677
						c-0.395,0.009-0.687,0.314-0.678,0.711C50.403,30.175,50.724,30.485,51.105,30.473z"/>
					<path class="st25" d="M45.193,34.978c-0.399-0.004-0.701,0.291-0.705,0.685c-0.004,0.394,0.296,0.705,0.685,0.71
						c0.379,0.005,0.709-0.315,0.714-0.691C45.891,35.298,45.579,34.981,45.193,34.978z"/>
					<path class="st25" d="M44.493,29.789c0.006,0.394,0.314,0.695,0.705,0.689c0.384-0.006,0.696-0.329,0.689-0.711
						c-0.008-0.388-0.323-0.693-0.711-0.687C44.783,29.087,44.486,29.394,44.493,29.789z"/>
					<path class="st25" d="M47.439,36.932c0.007,0.393,0.318,0.692,0.71,0.683c0.389-0.009,0.695-0.328,0.683-0.714
						c-0.011-0.39-0.326-0.69-0.715-0.683C47.726,36.227,47.432,36.536,47.439,36.932z"/>
				</g>
				<g>
					<g>
						<defs>
							<path id="SVGID_1_" d="M43.109,50.997c1.449-2.012,0.823-4.705-1.398-6.019s-5.197-0.745-6.646,1.266
								c-1.449,2.011-0.823,4.706,1.399,6.019C38.684,53.576,41.66,53.009,43.109,50.997z"/>
						</defs>
						<clipPath id="SVGID_2_">
							<use xlink:href="#SVGID_1_"  style="overflow:visible;"/>
						</clipPath>
						<g transform="matrix(1, 0, 0, 1, 0, 0)" class="st26">
							<path class="st27" d="M34.424,48.313c0.002-0.015,0.004-0.031,0.006-0.046c0.012-0.094,0.028-0.189,0.047-0.286
								c0.026-0.122,0.055-0.245,0.093-0.367c0.222-0.707,0.626-1.322,1.151-1.819c0.021-0.02,0.043-0.04,0.066-0.061
								c0.059-0.053,0.121-0.103,0.182-0.154c0.251-0.203,0.593-0.314,0.864-0.568c0.955-0.895,2.101-0.769,2.933-0.772
								c-2.126,0-3.639,1.99-3.711,3.328c-0.046,0.863,0.379,1.463,0.379,1.463l0.804-0.897L39,51.093c0,0-0.944,0.641-2.283,0.378
								c-1.026-0.202-2.219-1.096-2.31-2.437C34.39,48.793,34.396,48.552,34.424,48.313z"/>
							<path class="st28" d="M41.083,44.946c-1.328-0.603-2.779-0.118-3.487,0.584c-0.924,0.917-0.786,1.978-0.786,1.978l3.803,0.13
								l0.092-0.212l-0.64-0.893c0,0,0.786-0.03,1.588,0.438c1.158,0.676,2.134,2.21,1.425,4.116
								c0.415-0.652,0.614-1.489,0.625-2.222c-0.001-0.323-0.037-0.646-0.108-0.961c-0.017-0.074-0.034-0.147-0.055-0.22
								c-0.008-0.028-0.017-0.055-0.025-0.082c-0.21-0.661-0.595-1.286-1.158-1.815c-0.098-0.091-0.2-0.175-0.304-0.258
								c-0.082-0.064-0.166-0.124-0.249-0.18c-0.014-0.009-0.027-0.019-0.041-0.028C41.545,45.178,41.318,45.053,41.083,44.946z"/>
							<path class="st29" d="M41.326,52.4c1.256-0.717,1.547-2.094,1.249-3.006c-0.279-0.855-1.178-1.721-1.178-1.721l-0.285,0.09
								l-2.016,2.819l1.255,0.207c0,0-0.378,0.625-1.235,1.005c-1.237,0.548-3.081,0.554-4.515-0.981
								c0.402,0.66,0.978,1.203,1.666,1.59c0.308,0.168,0.631,0.307,0.965,0.415c0.078,0.024,0.156,0.05,0.236,0.071
								c0.03,0.008,0.061,0.015,0.091,0.023c0.759,0.185,1.549,0.199,2.314,0.04c0.137-0.028,0.269-0.064,0.401-0.102
								c0.102-0.031,0.203-0.064,0.299-0.099c0.016-0.006,0.032-0.011,0.048-0.018C40.864,52.64,41.1,52.529,41.326,52.4z"/>
						</g>
					</g>
					<path class="st30" d="M34.32,48.133c0.002-0.016,0.004-0.031,0.006-0.047c0.012-0.094,0.028-0.189,0.047-0.285
						c0.026-0.123,0.055-0.245,0.093-0.367c0.221-0.707,0.626-1.322,1.151-1.819c0.021-0.02,0.043-0.041,0.066-0.061
						c0.059-0.053,0.121-0.103,0.182-0.154c0.269-0.216,0.558-0.407,0.864-0.568c0.726-0.367,1.528-0.558,2.342-0.559
						c-2.175,0.402-3.055,1.869-3.119,3.115c-0.044,0.863,0.379,1.463,0.379,1.463l0.804-0.897l1.762,2.956
						c0,0-0.945,0.64-2.284,0.377c-1.026-0.202-2.219-1.095-2.31-2.437C34.287,48.613,34.293,48.372,34.32,48.133z"/>
					<path class="st31" d="M41.27,44.758c-1.328-0.603-2.78-0.117-3.487,0.585c-0.924,0.916-0.787,1.977-0.787,1.977l3.707,0.107
						l-0.451-1.08c0,0,0.786-0.03,1.588,0.438c1.157,0.676,2.117,2.101,1.408,4.007c0.406-0.631,0.629-1.363,0.642-2.114
						c0-0.323-0.036-0.646-0.107-0.961c-0.017-0.073-0.034-0.147-0.055-0.22c-0.008-0.028-0.017-0.055-0.025-0.082
						c-0.21-0.661-0.594-1.286-1.158-1.815c-0.098-0.092-0.2-0.175-0.303-0.258c-0.082-0.064-0.166-0.124-0.249-0.18
						c-0.014-0.009-0.027-0.019-0.041-0.028C41.734,44.991,41.506,44.865,41.27,44.758z"/>
					<path class="st32" d="M41.611,52.31c1.256-0.717,1.547-2.094,1.25-3.006c-0.388-1.19-1.463-1.631-1.463-1.631l-2.016,2.819
						l1.255,0.207c0,0-0.378,0.625-1.235,1.004c-1.237,0.548-3.081,0.555-4.516-0.98c0.402,0.66,0.979,1.203,1.666,1.59
						c0.308,0.167,0.631,0.306,0.965,0.413c0.079,0.024,0.156,0.05,0.236,0.071c0.03,0.009,0.061,0.015,0.091,0.023
						c0.759,0.185,1.549,0.199,2.314,0.041c0.137-0.028,0.269-0.064,0.4-0.102c0.102-0.031,0.203-0.064,0.299-0.099
						c0.016-0.006,0.032-0.012,0.048-0.018C41.149,52.549,41.385,52.439,41.611,52.31z"/>
					<g>
						<defs>
							<path id="SVGID_3_" d="M34.32,48.133c0.002-0.016,0.004-0.031,0.006-0.047c0.012-0.094,0.028-0.189,0.047-0.285
								c0.026-0.123,0.055-0.245,0.093-0.367c0.221-0.707,0.626-1.322,1.151-1.819c0.021-0.02,0.043-0.041,0.066-0.061
								c0.059-0.053,0.121-0.103,0.182-0.154c0.269-0.216,0.558-0.407,0.864-0.568c0.726-0.367,1.528-0.558,2.342-0.559
								c-2.175,0.402-3.055,1.869-3.119,3.115c-0.044,0.863,0.379,1.463,0.379,1.463l0.804-0.897l1.762,2.956
								c0,0-0.945,0.64-2.284,0.377c-1.026-0.202-2.219-1.095-2.31-2.437C34.287,48.613,34.293,48.372,34.32,48.133z M41.27,44.758
								c-1.328-0.603-2.78-0.117-3.487,0.585c-0.924,0.916-0.787,1.977-0.787,1.977l3.707,0.107l-0.451-1.08
								c0,0,0.786-0.03,1.588,0.438c1.157,0.676,2.117,2.101,1.408,4.007c0.406-0.631,0.629-1.363,0.642-2.114
								c0-0.323-0.036-0.646-0.107-0.961c-0.017-0.073-0.034-0.147-0.055-0.22c-0.008-0.028-0.017-0.055-0.025-0.082
								c-0.21-0.661-0.594-1.286-1.158-1.815c-0.098-0.092-0.2-0.175-0.303-0.258c-0.082-0.064-0.166-0.124-0.249-0.18
								c-0.014-0.009-0.027-0.019-0.041-0.028C41.734,44.991,41.506,44.865,41.27,44.758z M41.611,52.31
								c1.256-0.717,1.547-2.094,1.25-3.006c-0.388-1.19-1.463-1.631-1.463-1.631l-2.016,2.819l1.255,0.207
								c0,0-0.378,0.625-1.235,1.004c-1.237,0.548-3.081,0.555-4.516-0.98c0.402,0.66,0.979,1.203,1.666,1.59
								c0.308,0.167,0.631,0.306,0.965,0.413c0.079,0.024,0.156,0.05,0.236,0.071c0.03,0.009,0.061,0.015,0.091,0.023
								c0.759,0.185,1.549,0.199,2.314,0.041c0.137-0.028,0.269-0.064,0.4-0.102c0.102-0.031,0.203-0.064,0.299-0.099
								c0.016-0.006,0.032-0.012,0.048-0.018C41.149,52.549,41.385,52.439,41.611,52.31L41.611,52.31z"/>
						</defs>
						<clipPath id="SVGID_4_">
							<use xlink:href="#SVGID_3_"  style="overflow:visible;"/>
						</clipPath>
						<g transform="matrix(1, 0, 0, 1, 0, 0)" class="st33">
							<g>
								
									<radialGradient id="SVGID_5_" cx="39.3976" cy="50.6831" r="4.9361" gradientTransform="matrix(1 0 0 -1 0 99)" gradientUnits="userSpaceOnUse">
									<stop  offset="0.39" style="stop-color:#FFFFFF"/>
									<stop  offset="0.95" style="stop-color:#FFFFFF"/>
									<stop  offset="1" style="stop-color:#FFFFFF"/>
								</radialGradient>
								<path class="st34" d="M37.933,52.98c-0.091-0.019-0.211-0.045-0.301-0.064c-0.101-0.027-0.235-0.063-0.335-0.093
									c-0.017-0.005-0.032-0.01-0.049-0.015c0.107,0.031,0.215,0.057,0.324,0.077C37.691,52.926,37.811,52.958,37.933,52.98
									 M38.432,53.054c-0.053-0.006-0.122-0.014-0.175-0.021c-0.067-0.01-0.156-0.023-0.223-0.034
									c-0.13-0.022-0.258-0.055-0.382-0.099c0.129,0.023,0.271,0.043,0.424,0.058C38.189,53.008,38.309,53.041,38.432,53.054
									 M38.821,53.083c-0.038-0.001-0.088-0.004-0.125-0.006c-0.056-0.004-0.133-0.01-0.19-0.015
									c-0.115-0.011-0.228-0.043-0.332-0.093c0.156,0.015,0.322,0.026,0.496,0.034c0.047,0.052,0.098,0.081,0.15,0.083
									 M39.188,53.09h-0.106c-0.064,0-0.129-0.003-0.193-0.003h-0.005c-0.036-0.001-0.072-0.029-0.104-0.081
									c0.116,0.004,0.234,0.006,0.353,0.006c0.063,0,0.125,0,0.186-0.002C39.275,53.061,39.232,53.088,39.188,53.09 M39.577,53.07
									l-0.095,0.007c-0.122,0.006-0.145,0.008-0.204,0.01h-0.026c0.067-0.004,0.13-0.033,0.178-0.08
									c0.174-0.005,0.341-0.014,0.496-0.026C39.816,53.03,39.698,53.06,39.577,53.07 M40.069,53.011l-0.1,0.015
									c-0.172,0.023-0.172,0.023-0.262,0.032l-0.055,0.005c0.128-0.012,0.253-0.042,0.373-0.09
									c0.15-0.014,0.289-0.031,0.415-0.051C40.319,52.961,40.195,52.99,40.069,53.011 M40.727,52.867
									c-0.264,0.069-0.274,0.071-0.434,0.104l-0.117,0.021c0.115-0.021,0.229-0.049,0.341-0.084
									c0.103-0.017,0.205-0.04,0.306-0.068L40.727,52.867 M36.981,52.715c-0.017-0.006-0.032-0.011-0.048-0.017
									c-0.155-0.064-0.36-0.153-0.511-0.224c-0.171-0.092-0.395-0.22-0.559-0.321c0.094,0.055,0.193,0.1,0.297,0.133
									C36.416,52.46,36.691,52.604,36.981,52.715 M37.405,52.821c-0.122-0.023-0.242-0.051-0.361-0.086
									c-0.281-0.109-0.548-0.25-0.795-0.422c0.167,0.05,0.336,0.09,0.507,0.121C36.953,52.593,37.172,52.723,37.405,52.821
									 M37.967,52.902c-0.171-0.018-0.329-0.04-0.473-0.064c-0.221-0.097-0.427-0.225-0.613-0.38
									c0.202,0.035,0.425,0.064,0.664,0.091C37.665,52.69,37.808,52.809,37.967,52.902 M38.63,52.951
									c-0.193-0.008-0.38-0.021-0.554-0.037c-0.145-0.094-0.273-0.212-0.377-0.35c0.246,0.023,0.506,0.041,0.777,0.052
									C38.523,52.759,38.574,52.872,38.63,52.951 M39.355,52.961c-0.068,0.001-0.137,0.001-0.207,0.001
									c-0.134,0-0.266-0.002-0.395-0.006c-0.046-0.107-0.081-0.218-0.103-0.333c0.181,0.006,0.367,0.009,0.554,0.009
									c0.098,0,0.195,0,0.291-0.002C39.463,52.746,39.416,52.857,39.355,52.961 M40.034,52.929
									c-0.174,0.014-0.359,0.023-0.555,0.029c0.067-0.078,0.131-0.189,0.19-0.331c0.274-0.007,0.535-0.021,0.779-0.041
									C40.331,52.723,40.191,52.839,40.034,52.929 M40.606,52.863c-0.14,0.023-0.296,0.043-0.463,0.057
									c0.171-0.09,0.325-0.207,0.458-0.347c0.236-0.021,0.454-0.049,0.651-0.08C41.055,52.646,40.837,52.77,40.606,52.863
									 M41.045,52.767c-0.116,0.034-0.233,0.061-0.352,0.081c0.243-0.094,0.472-0.22,0.681-0.376
									c0.167-0.028,0.332-0.066,0.494-0.114C41.61,52.526,41.334,52.663,41.045,52.767 M41.363,52.65l-0.245,0.093l-0.013,0.005
									c0.297-0.106,0.582-0.246,0.847-0.416c0.09-0.029,0.177-0.067,0.259-0.115C41.856,52.422,41.71,52.507,41.363,52.65
									 M35.339,51.758l-0.084-0.073c-0.131-0.127-0.304-0.299-0.426-0.432c0.014,0.014,0.028,0.028,0.043,0.041
									C35.015,51.46,35.171,51.615,35.339,51.758 M35.985,52.158c-0.143-0.049-0.258-0.101-0.337-0.155
									c-0.265-0.194-0.506-0.418-0.721-0.666c0.097,0.066,0.236,0.129,0.408,0.188C35.526,51.761,35.743,51.974,35.985,52.158
									 M36.616,52.317c-0.182-0.033-0.361-0.077-0.539-0.129c-0.234-0.183-0.445-0.393-0.628-0.627
									c0.216,0.063,0.435,0.115,0.656,0.156c0.145,0.22,0.317,0.421,0.512,0.599 M37.455,52.437
									c-0.254-0.027-0.49-0.059-0.705-0.096c-0.185-0.177-0.348-0.377-0.483-0.594c0.261,0.045,0.548,0.085,0.857,0.117
									C37.212,52.067,37.323,52.259,37.455,52.437 M38.443,52.509c-0.288-0.012-0.565-0.031-0.826-0.056
									c-0.119-0.178-0.218-0.369-0.295-0.57c0.317,0.03,0.654,0.053,1.004,0.068C38.353,52.139,38.393,52.326,38.443,52.509
									 M39.524,52.523c-0.102,0.001-0.205,0.002-0.309,0.002c-0.2,0-0.397-0.003-0.588-0.009c-0.03-0.157-0.056-0.344-0.078-0.556
									c0.234,0.007,0.473,0.012,0.715,0.012c0.128,0,0.253,0,0.376-0.003C39.611,52.155,39.572,52.341,39.524,52.523
									 M40.537,52.477c-0.26,0.02-0.537,0.035-0.827,0.043c0.064-0.182,0.116-0.367,0.156-0.556
									c0.353-0.009,0.69-0.027,1.006-0.052C40.781,52.112,40.669,52.301,40.537,52.477 M41.39,52.378
									c-0.209,0.034-0.441,0.062-0.691,0.086c0.145-0.175,0.269-0.366,0.369-0.57c0.304-0.027,0.586-0.062,0.84-0.103
									C41.76,52.007,41.586,52.204,41.39,52.378 M42.044,52.234c-0.173,0.05-0.348,0.091-0.525,0.121
									c0.206-0.174,0.389-0.372,0.546-0.591c0.215-0.037,0.428-0.086,0.638-0.147C42.509,51.849,42.288,52.056,42.044,52.234
									 M42.549,51.986l-0.109,0.078c-0.095,0.061-0.198,0.109-0.306,0.142c0.25-0.18,0.477-0.39,0.678-0.623
									c0.165-0.057,0.295-0.117,0.383-0.181C43,51.617,42.783,51.813,42.549,51.986 M43.084,51.529
									c0.056-0.055,0.11-0.111,0.162-0.168l0.016-0.015L43.084,51.529 M34.725,51.114c-0.02-0.017-0.039-0.036-0.057-0.056
									c-0.311-0.436-0.316-0.444-0.543-0.905c0.026,0.049,0.061,0.092,0.104,0.126c0.13,0.297,0.296,0.578,0.494,0.835
									 M35.205,51.352c-0.18-0.061-0.322-0.127-0.424-0.195c-0.196-0.255-0.36-0.534-0.488-0.829
									c0.113,0.076,0.273,0.149,0.473,0.217C34.879,50.831,35.026,51.102,35.205,51.352 M36.002,51.552
									c-0.229-0.042-0.456-0.096-0.679-0.162c-0.173-0.249-0.315-0.519-0.424-0.802c0.249,0.074,0.502,0.134,0.758,0.181
									C35.742,51.042,35.858,51.305,36.002,51.552 M37.057,51.704c-0.32-0.034-0.617-0.075-0.888-0.121
									c-0.136-0.248-0.245-0.509-0.325-0.78c0.302,0.052,0.635,0.098,0.992,0.136C36.888,51.2,36.962,51.456,37.057,51.704
									 M38.301,51.796c-0.362-0.016-0.711-0.039-1.039-0.071c-0.085-0.249-0.152-0.503-0.198-0.762
									c0.367,0.035,0.757,0.061,1.162,0.078C38.244,51.316,38.27,51.569,38.301,51.796 M39.662,51.813
									c-0.129,0.003-0.258,0.003-0.389,0.003c-0.252,0-0.5-0.004-0.741-0.012c-0.021-0.226-0.037-0.478-0.048-0.754
									c0.271,0.009,0.547,0.014,0.828,0.014c0.147,0,0.291-0.001,0.435-0.003C39.724,51.336,39.696,51.587,39.662,51.813
									 M40.939,51.754c-0.327,0.026-0.675,0.045-1.042,0.054c0.043-0.226,0.082-0.478,0.112-0.752
									c0.408-0.011,0.799-0.031,1.164-0.06C41.116,51.254,41.038,51.508,40.939,51.754 M42.013,51.629
									c-0.263,0.043-0.555,0.079-0.87,0.107c0.108-0.246,0.194-0.501,0.258-0.762c0.352-0.032,0.678-0.073,0.972-0.119
									C42.281,51.125,42.161,51.384,42.013,51.629 M42.837,51.449c-0.217,0.063-0.438,0.114-0.66,0.152
									c0.155-0.244,0.283-0.505,0.38-0.777c0.249-0.043,0.495-0.1,0.738-0.17C43.174,50.936,43.02,51.203,42.837,51.449
									 M43.347,51.225c-0.092,0.066-0.226,0.129-0.397,0.187c0.189-0.246,0.346-0.515,0.47-0.799
									c0.191-0.064,0.341-0.134,0.444-0.209C43.726,50.698,43.553,50.974,43.347,51.225 M43.826,50.587
									c-0.112,0.172-0.269,0.399-0.396,0.565c-0.01,0.011-0.02,0.022-0.031,0.032c0.207-0.253,0.383-0.53,0.523-0.826
									c0.033-0.029,0.06-0.064,0.08-0.103C43.95,50.354,43.886,50.491,43.826,50.587 M34.144,50.068
									c-0.049-0.038-0.088-0.087-0.113-0.144c-0.036-0.111-0.087-0.258-0.118-0.37c-0.043-0.193-0.089-0.453-0.114-0.649
									c0.001,0.012,0.003,0.023,0.006,0.034c0.015,0.06,0.059,0.119,0.127,0.176C33.961,49.441,34.032,49.761,34.144,50.068
									 M34.693,50.339c-0.205-0.07-0.367-0.144-0.482-0.222c-0.111-0.306-0.181-0.625-0.209-0.949
									c0.119,0.081,0.29,0.159,0.504,0.231C34.53,49.719,34.592,50.034,34.693,50.339 M35.599,50.566
									c-0.26-0.048-0.518-0.109-0.772-0.184c-0.097-0.304-0.157-0.619-0.181-0.938c0.266,0.078,0.535,0.142,0.808,0.192
									C35.471,49.951,35.52,50.262,35.599,50.566 M36.799,50.738c-0.364-0.038-0.702-0.086-1.01-0.138
									c-0.074-0.304-0.12-0.615-0.136-0.928c0.322,0.056,0.676,0.104,1.056,0.145C36.719,50.126,36.75,50.433,36.799,50.738
									 M38.216,50.841c-0.413-0.018-0.81-0.045-1.183-0.08c-0.045-0.305-0.072-0.612-0.08-0.921
									c0.391,0.037,0.806,0.064,1.238,0.084C38.191,50.249,38.2,50.556,38.216,50.841 M39.765,50.863
									c-0.146,0.002-0.293,0.003-0.443,0.003c-0.286,0-0.568-0.005-0.843-0.014c-0.009-0.284-0.014-0.591-0.013-0.916
									c0.288,0.009,0.583,0.014,0.882,0.014c0.157,0,0.311-0.001,0.463-0.003C39.801,50.271,39.786,50.578,39.765,50.863
									 M41.215,50.795c-0.372,0.03-0.768,0.05-1.185,0.061c0.027-0.284,0.047-0.59,0.059-0.916
									c0.435-0.012,0.851-0.033,1.239-0.064C41.31,50.185,41.272,50.492,41.215,50.795 M42.437,50.653
									c-0.301,0.048-0.632,0.09-0.99,0.122c0.063-0.303,0.105-0.611,0.124-0.92c0.375-0.034,0.722-0.078,1.036-0.127
									C42.58,50.041,42.523,50.351,42.437,50.653 M43.374,50.449c-0.247,0.072-0.498,0.129-0.752,0.172
									c0.091-0.302,0.15-0.612,0.178-0.926c0.265-0.046,0.528-0.106,0.786-0.182C43.553,49.832,43.482,50.146,43.374,50.449
									 M43.954,50.194c-0.105,0.075-0.258,0.147-0.451,0.213c0.111-0.302,0.184-0.616,0.218-0.936
									c0.204-0.069,0.363-0.144,0.473-0.223C44.155,49.572,44.075,49.89,43.954,50.194 M44.101,50.029
									c-0.02,0.045-0.05,0.085-0.087,0.117c0.122-0.304,0.203-0.623,0.242-0.949c0.062-0.057,0.098-0.116,0.106-0.177
									C44.285,49.477,44.261,49.614,44.101,50.029 M33.918,48.877c-0.068-0.058-0.111-0.117-0.127-0.177
									c-0.004-0.015-0.006-0.031-0.006-0.047l-0.001-0.162c0.01-0.146,0.019-0.342,0.038-0.487
									c0.018-0.127,0.042-0.254,0.073-0.378c-0.004,0.026-0.002,0.053,0.005,0.079c0.016,0.059,0.058,0.118,0.126,0.174
									c-0.067,0.277-0.103,0.56-0.107,0.845c0,0.051,0,0.103,0,0.154 M34.494,49.161c-0.215-0.073-0.385-0.15-0.506-0.232
									c0-0.051-0.001-0.102,0-0.153c0.005-0.285,0.04-0.569,0.105-0.846c0.119,0.081,0.287,0.157,0.497,0.229
									c-0.06,0.28-0.092,0.564-0.096,0.85C34.494,49.059,34.494,49.111,34.494,49.161 M35.446,49.402
									c-0.273-0.05-0.544-0.115-0.81-0.193c0-0.051,0-0.102,0-0.153c0.005-0.286,0.036-0.571,0.094-0.851
									c0.262,0.077,0.528,0.14,0.796,0.188c-0.048,0.282-0.074,0.568-0.079,0.854c-0.001,0.051-0.001,0.102,0,0.154
									 M36.706,49.581c-0.382-0.04-0.738-0.09-1.06-0.145c0-0.051,0-0.102,0-0.153c0.005-0.286,0.029-0.572,0.074-0.855
									c0.318,0.055,0.667,0.103,1.042,0.143c-0.033,0.285-0.052,0.572-0.056,0.858C36.707,49.48,36.707,49.531,36.706,49.581
									 M38.193,49.69c-0.433-0.018-0.849-0.047-1.242-0.084c0-0.051,0.001-0.102,0.001-0.153c0.004-0.288,0.021-0.575,0.051-0.859
									c0.385,0.037,0.795,0.064,1.22,0.083c-0.015,0.284-0.025,0.572-0.029,0.859C38.194,49.588,38.194,49.639,38.193,49.69
									 M39.819,49.711c-0.153,0.002-0.308,0.003-0.465,0.003c-0.301,0-0.596-0.005-0.885-0.015c0-0.05,0.002-0.102,0.002-0.152
									c0.005-0.288,0.013-0.576,0.024-0.859c0.284,0.009,0.574,0.014,0.869,0.014c0.154,0,0.306-0.001,0.456-0.003
									c0.005,0.284,0.005,0.572,0,0.859C39.821,49.61,39.819,49.661,39.819,49.711 M41.341,49.641
									c-0.391,0.031-0.807,0.053-1.244,0.064c0.002-0.051,0.002-0.102,0.003-0.153c0.004-0.288,0.002-0.576-0.006-0.86
									c0.43-0.011,0.838-0.033,1.222-0.063c0.023,0.283,0.033,0.57,0.029,0.859C41.344,49.54,41.341,49.591,41.341,49.641
									 M42.622,49.492c-0.314,0.051-0.662,0.093-1.039,0.129c0.002-0.051,0.003-0.102,0.004-0.153
									c0.004-0.287-0.007-0.574-0.033-0.859c0.37-0.034,0.712-0.076,1.02-0.125c0.039,0.284,0.056,0.57,0.052,0.856
									C42.627,49.392,42.624,49.442,42.622,49.492 M43.606,49.278c-0.259,0.076-0.522,0.136-0.788,0.182
									c0.002-0.051,0.004-0.102,0.004-0.154c0.004-0.286-0.015-0.573-0.056-0.856c0.261-0.045,0.52-0.105,0.775-0.178
									c0.05,0.281,0.074,0.567,0.07,0.852c0,0.051-0.003,0.103-0.006,0.153 M44.214,49.011c-0.109,0.079-0.27,0.154-0.473,0.223
									c0.003-0.051,0.004-0.102,0.005-0.153c0.004-0.286-0.02-0.571-0.072-0.852c0.2-0.069,0.358-0.142,0.466-0.22
									c0.058,0.279,0.085,0.563,0.081,0.848C44.22,48.909,44.218,48.961,44.214,49.011 M44.39,48.608l-0.006,0.162
									c-0.004,0.064-0.04,0.129-0.107,0.19c0.003-0.051,0.005-0.102,0.005-0.154c0.004-0.284-0.024-0.568-0.082-0.846
									c0.084-0.077,0.119-0.158,0.101-0.24C44.37,48.124,44.395,48.275,44.39,48.608 M34.092,47.024
									c0.072-0.155,0.172-0.361,0.258-0.512l0.056-0.093c-0.007,0.011-0.013,0.023-0.018,0.035
									C34.273,46.635,34.175,46.826,34.092,47.024 M34.086,47.65c-0.066-0.056-0.107-0.113-0.124-0.172
									c-0.007-0.026-0.008-0.052-0.005-0.078c0.1-0.316,0.24-0.617,0.415-0.898c-0.004,0.024-0.002,0.049,0.004,0.072
									c0.015,0.053,0.053,0.107,0.114,0.158C34.32,47.02,34.184,47.328,34.086,47.65 M34.645,47.926
									c-0.208-0.071-0.374-0.147-0.491-0.225c0.096-0.322,0.23-0.632,0.399-0.922c0.107,0.073,0.261,0.143,0.452,0.208
									C34.853,47.286,34.732,47.601,34.645,47.926 M35.568,48.158c-0.265-0.049-0.528-0.111-0.786-0.188
									c0.084-0.325,0.201-0.642,0.35-0.943c0.238,0.07,0.481,0.128,0.725,0.173C35.734,47.511,35.638,47.831,35.568,48.158
									 M36.791,48.334c-0.37-0.039-0.715-0.086-1.029-0.141c0.065-0.327,0.157-0.648,0.274-0.961
									c0.288,0.05,0.607,0.093,0.949,0.129c-0.082,0.32-0.147,0.644-0.193,0.971 M38.235,48.438
									c-0.421-0.018-0.825-0.046-1.206-0.081c0.043-0.332,0.102-0.659,0.175-0.973c0.351,0.033,0.724,0.058,1.112,0.075
									C38.283,47.777,38.255,48.104,38.235,48.438 M39.814,48.459c-0.148,0.002-0.299,0.004-0.451,0.004
									c-0.291,0-0.578-0.005-0.859-0.014c0.016-0.334,0.036-0.663,0.061-0.981c0.258,0.009,0.523,0.013,0.791,0.013
									c0.141,0,0.28-0.001,0.417-0.003C39.792,47.796,39.806,48.125,39.814,48.459 M41.292,48.392
									c-0.379,0.03-0.784,0.051-1.208,0.062c-0.014-0.334-0.035-0.663-0.063-0.981c0.391-0.01,0.764-0.03,1.114-0.058
									C41.205,47.738,41.258,48.064,41.292,48.392 M42.537,48.247c-0.305,0.049-0.643,0.09-1.01,0.124
									c-0.039-0.328-0.098-0.653-0.175-0.975c0.337-0.031,0.649-0.069,0.93-0.115C42.393,47.596,42.478,47.919,42.537,48.247
									 M43.492,48.038c-0.252,0.073-0.507,0.132-0.766,0.176c-0.061-0.327-0.151-0.649-0.268-0.961
									c0.238-0.041,0.474-0.095,0.706-0.163C43.306,47.394,43.416,47.712,43.492,48.038 M44.084,47.781
									c-0.107,0.077-0.262,0.149-0.46,0.217c-0.079-0.326-0.192-0.643-0.338-0.945c0.183-0.062,0.326-0.129,0.424-0.2
									C43.871,47.146,43.996,47.458,44.084,47.781 M44.243,47.486c0.021,0.086-0.013,0.167-0.098,0.246
									c-0.089-0.322-0.216-0.632-0.38-0.924c0.079-0.072,0.111-0.148,0.091-0.226c0.166,0.284,0.296,0.588,0.387,0.905
									 M43.969,46.779c-0.041-0.084-0.085-0.166-0.133-0.248c-0.003-0.006-0.007-0.012-0.011-0.017L43.969,46.779 M34.516,46.257
									c0.008-0.018,0.018-0.035,0.03-0.05c0.331-0.43,0.331-0.43,0.723-0.805c-0.035,0.028-0.063,0.063-0.082,0.103
									C34.935,45.73,34.71,45.982,34.516,46.257 M34.617,46.528c-0.059-0.05-0.097-0.101-0.111-0.154
									c-0.006-0.023-0.008-0.047-0.004-0.07c0.195-0.277,0.42-0.531,0.672-0.758c-0.003,0.02-0.001,0.04,0.004,0.06
									c0.017,0.053,0.05,0.099,0.095,0.132C35.027,45.977,34.807,46.242,34.617,46.528 M35.119,46.776
									c-0.187-0.063-0.336-0.131-0.441-0.202c0.187-0.287,0.404-0.554,0.646-0.797c0.09,0.061,0.218,0.119,0.378,0.173
									C35.482,46.206,35.286,46.482,35.119,46.776 M35.948,46.984c-0.238-0.044-0.474-0.1-0.706-0.168
									c0.162-0.295,0.352-0.573,0.566-0.832c0.199,0.059,0.401,0.107,0.605,0.145C36.234,46.401,36.079,46.687,35.948,46.984
									 M37.045,47.142c-0.332-0.035-0.642-0.078-0.924-0.127c0.124-0.298,0.271-0.585,0.44-0.859
									c0.241,0.043,0.506,0.078,0.792,0.107C37.233,46.55,37.13,46.844,37.045,47.142 M38.34,47.236
									c-0.377-0.016-0.74-0.041-1.081-0.073c0.076-0.298,0.169-0.592,0.277-0.881c0.293,0.028,0.604,0.049,0.927,0.063
									C38.417,46.627,38.375,46.925,38.34,47.236 M39.756,47.255c-0.133,0.002-0.268,0.004-0.405,0.003
									c-0.262,0-0.519-0.004-0.771-0.012c0.026-0.311,0.055-0.611,0.089-0.893c0.215,0.007,0.436,0.01,0.66,0.011
									c0.117,0,0.233,0,0.347-0.002C39.708,46.644,39.734,46.944,39.756,47.255 M41.083,47.195
									C40.743,47.222,40.38,47.24,40,47.25c-0.032-0.312-0.07-0.611-0.115-0.894c0.326-0.008,0.637-0.025,0.929-0.048
									C40.92,46.599,41.01,46.894,41.083,47.195 M42.2,47.065c-0.274,0.043-0.577,0.081-0.905,0.111
									c-0.082-0.3-0.182-0.595-0.301-0.883c0.281-0.026,0.541-0.058,0.776-0.096C41.937,46.475,42.08,46.764,42.2,47.065
									 M43.057,46.877c-0.226,0.066-0.456,0.118-0.687,0.158c-0.127-0.3-0.279-0.588-0.454-0.863
									c0.199-0.034,0.395-0.08,0.589-0.136C42.715,46.299,42.9,46.58,43.057,46.877 M43.587,46.646
									c-0.096,0.069-0.235,0.134-0.413,0.193c-0.162-0.296-0.353-0.576-0.569-0.835c0.152-0.051,0.272-0.107,0.354-0.167
									C43.197,46.084,43.407,46.354,43.587,46.646 M43.732,46.381c0.02,0.076-0.011,0.15-0.088,0.221
									c-0.182-0.289-0.396-0.558-0.635-0.801c0.066-0.06,0.092-0.124,0.076-0.188C43.329,45.843,43.546,46.101,43.732,46.381
									 M43.694,46.302c0.007,0.01,0.014,0.02,0.02,0.031c-0.186-0.278-0.403-0.534-0.647-0.763
									c-0.016-0.029-0.037-0.055-0.062-0.077c0.379,0.383,0.387,0.391,0.687,0.808 M35.372,45.346
									c0.022-0.044,0.055-0.083,0.095-0.111c0.101-0.074,0.232-0.176,0.335-0.247c0.11-0.07,0.256-0.163,0.37-0.227
									c0.075-0.043,0.151-0.083,0.228-0.121c-0.077,0.041-0.127,0.086-0.146,0.131C35.941,44.933,35.645,45.126,35.372,45.346
									 M35.455,45.568c-0.043-0.031-0.075-0.075-0.091-0.126c-0.005-0.019-0.006-0.038-0.003-0.057
									c0.274-0.225,0.571-0.421,0.884-0.586c-0.003,0.014-0.002,0.029,0.003,0.043c0.013,0.039,0.037,0.073,0.07,0.097
									c-0.307,0.18-0.596,0.39-0.863,0.627 M35.864,45.769c-0.152-0.051-0.274-0.106-0.36-0.164
									c0.263-0.239,0.548-0.452,0.852-0.636c0.086,0.054,0.179,0.096,0.276,0.127c-0.276,0.2-0.533,0.426-0.768,0.675
									 M36.542,45.941c-0.195-0.036-0.387-0.082-0.577-0.137c0.227-0.25,0.476-0.478,0.744-0.682
									c0.146,0.043,0.294,0.079,0.443,0.106C36.928,45.447,36.724,45.686,36.542,45.941 M37.439,46.07
									c-0.272-0.029-0.525-0.064-0.755-0.103c0.171-0.256,0.365-0.497,0.577-0.72c0.177,0.031,0.371,0.057,0.58,0.079
									C37.69,45.564,37.555,45.813,37.439,46.07 M38.497,46.147c-0.308-0.013-0.605-0.032-0.884-0.059
									c0.104-0.257,0.225-0.507,0.362-0.748c0.215,0.02,0.442,0.036,0.679,0.046C38.597,45.618,38.545,45.873,38.497,46.147
									 M39.655,46.163c-0.109,0-0.22,0.003-0.331,0.002c-0.215,0-0.424-0.003-0.63-0.01c0.034-0.274,0.072-0.53,0.111-0.763
									c0.158,0.005,0.319,0.008,0.484,0.008c0.086,0,0.17,0,0.254-0.002C39.583,45.631,39.621,45.887,39.655,46.163
									 M40.738,46.112c-0.278,0.021-0.574,0.038-0.885,0.046c-0.047-0.275-0.1-0.531-0.159-0.764
									c0.239-0.006,0.467-0.018,0.68-0.035C40.513,45.601,40.635,45.853,40.738,46.112 M41.651,46.007
									c-0.224,0.036-0.473,0.067-0.74,0.091c-0.116-0.26-0.251-0.51-0.404-0.75c0.206-0.019,0.396-0.043,0.568-0.07
									C41.289,45.504,41.481,45.748,41.651,46.007 M42.352,45.854c-0.185,0.053-0.372,0.096-0.562,0.129
									c-0.181-0.259-0.384-0.501-0.608-0.723c0.145-0.025,0.289-0.058,0.431-0.1c0.268,0.207,0.515,0.439,0.739,0.693
									 M42.785,45.663c-0.078,0.056-0.192,0.11-0.338,0.159c-0.231-0.253-0.486-0.482-0.76-0.686
									c0.091-0.029,0.178-0.07,0.258-0.122C42.246,45.203,42.527,45.42,42.785,45.663 M42.902,45.449
									c0.017,0.062-0.009,0.122-0.072,0.18c-0.261-0.241-0.546-0.456-0.849-0.641c0.048-0.045,0.068-0.091,0.055-0.139
									C42.344,45.019,42.634,45.22,42.902,45.449 M41.892,44.699c0.367,0.212,0.569,0.328,0.916,0.619
									c0.032,0.025,0.058,0.056,0.079,0.09c-0.266-0.226-0.555-0.424-0.862-0.59c-0.026-0.047-0.081-0.092-0.164-0.136
									c0.011,0.006,0.021,0.011,0.032,0.017 M37.709,44.167l0.172-0.037l0.145-0.028c-0.051,0.009-0.097,0.018-0.141,0.028
									C37.826,44.141,37.767,44.152,37.709,44.167 M36.666,44.512l0.029-0.013l0.116-0.049c0.322-0.123,0.365-0.139,0.634-0.217
									l0.121-0.031c0.089-0.023,0.179-0.043,0.27-0.059c-0.064,0.015-0.127,0.036-0.188,0.063
									c-0.337,0.067-0.666,0.17-0.981,0.307 M36.486,44.659c0.018-0.043,0.064-0.083,0.134-0.121
									c0.321-0.14,0.655-0.247,0.998-0.317c-0.043,0.023-0.07,0.048-0.081,0.074c-0.362,0.087-0.714,0.209-1.053,0.364
									 M36.542,44.815c-0.03-0.023-0.052-0.053-0.064-0.089c-0.003-0.013-0.004-0.027-0.002-0.041
									c0.339-0.159,0.693-0.284,1.057-0.375c-0.001,0.008-0.001,0.016,0,0.024c0.007,0.022,0.021,0.04,0.04,0.054
									C37.216,44.498,36.871,44.64,36.542,44.815 M36.832,44.957c-0.089-0.028-0.174-0.067-0.254-0.117
									c0.324-0.177,0.664-0.323,1.016-0.436c0.048,0.03,0.1,0.054,0.155,0.072C37.428,44.606,37.121,44.768,36.832,44.957
									 M37.312,45.078c-0.138-0.025-0.274-0.058-0.408-0.098c0.279-0.192,0.577-0.357,0.888-0.491
									c0.081,0.024,0.164,0.044,0.247,0.059C37.779,44.7,37.536,44.877,37.312,45.078 M37.946,45.169
									c-0.192-0.021-0.371-0.045-0.534-0.073c0.21-0.202,0.44-0.382,0.687-0.537c0.098,0.017,0.207,0.032,0.324,0.044
									C38.246,44.776,38.086,44.965,37.946,45.169 M38.694,45.224c-0.218-0.009-0.428-0.023-0.625-0.043
									c0.125-0.203,0.269-0.394,0.43-0.57c0.119,0.012,0.246,0.02,0.379,0.026C38.806,44.829,38.745,45.024,38.694,45.224
									 M39.513,45.234c-0.076,0.002-0.155,0.002-0.234,0.002c-0.15,0-0.301-0.003-0.446-0.008c0.041-0.223,0.084-0.42,0.129-0.589
									c0.088,0.003,0.178,0.004,0.27,0.004c0.047,0,0.095,0,0.142,0C39.423,44.813,39.47,45.011,39.513,45.234 M40.279,45.199
									c-0.196,0.016-0.406,0.026-0.626,0.032c-0.053-0.2-0.118-0.397-0.195-0.59c0.133-0.003,0.261-0.01,0.38-0.02
									C40.004,44.8,40.152,44.993,40.279,45.199 M40.924,45.124c-0.158,0.026-0.333,0.047-0.522,0.064
									c-0.144-0.207-0.308-0.399-0.489-0.573c0.115-0.01,0.221-0.024,0.317-0.039C40.479,44.734,40.712,44.918,40.924,45.124
									 M41.419,45.017c-0.13,0.038-0.263,0.068-0.397,0.091c-0.226-0.205-0.471-0.386-0.734-0.54
									c0.081-0.014,0.162-0.032,0.241-0.056C40.842,44.651,41.14,44.82,41.419,45.017 M41.726,44.883
									c-0.074,0.049-0.154,0.087-0.238,0.112c-0.289-0.195-0.596-0.361-0.917-0.497c0.051-0.016,0.1-0.039,0.145-0.068
									C41.066,44.549,41.404,44.701,41.726,44.883 M41.807,44.731c0.011,0.043-0.006,0.086-0.051,0.127
									c-0.326-0.18-0.669-0.328-1.023-0.442c0.027-0.025,0.038-0.05,0.031-0.077C41.124,44.435,41.474,44.567,41.807,44.731
									 M41.645,44.578c0.076,0.04,0.128,0.082,0.15,0.125c-0.332-0.161-0.68-0.289-1.037-0.382
									c-0.023-0.033-0.054-0.059-0.091-0.075C41.005,44.321,41.333,44.432,41.645,44.578 M40.65,44.213
									c0.112,0.033,0.263,0.076,0.373,0.112c0.362,0.132,0.376,0.138,0.572,0.227c-0.307-0.141-0.629-0.249-0.959-0.322
									c-0.063-0.027-0.129-0.049-0.196-0.066C40.511,44.177,40.581,44.194,40.65,44.213 M40.506,44.176
									c-0.038-0.009-0.077-0.018-0.116-0.026c-0.034-0.008-0.07-0.016-0.107-0.023C40.349,44.142,40.439,44.16,40.506,44.176
									 M38.769,44.018c0.038-0.002,0.088-0.004,0.127-0.005c0.055,0,0.129-0.002,0.184-0.003c0.021,0,0.041,0.026,0.062,0.082
									c-0.015,0-0.03,0-0.045,0.002C38.997,44.04,38.884,44.014,38.769,44.018 M38.378,44.052
									c0.032-0.004,0.064-0.007,0.098-0.011c0.064-0.005,0.15-0.013,0.215-0.017h0.01c0.133-0.008,0.265,0.017,0.386,0.071
									c-0.014,0-0.027,0.002-0.039,0.003C38.829,44.046,38.602,44.03,38.378,44.052 M38.092,44.099
									c0.067-0.015,0.144-0.029,0.229-0.041c0.24-0.024,0.483-0.01,0.719,0.04c-0.011,0.002-0.021,0.003-0.031,0.006
									C38.705,44.066,38.397,44.064,38.092,44.099 M37.894,44.162c0.051-0.022,0.103-0.04,0.157-0.053
									c0.317-0.038,0.636-0.04,0.953-0.003c-0.007,0.002-0.015,0.004-0.021,0.007C38.619,44.092,38.254,44.109,37.894,44.162
									 M37.801,44.236c0.016-0.027,0.04-0.049,0.069-0.062c0.367-0.057,0.739-0.077,1.11-0.06
									c-0.004,0.002-0.007,0.004-0.009,0.008C38.578,44.124,38.186,44.162,37.801,44.236 M37.83,44.316
									c-0.015-0.011-0.026-0.027-0.032-0.045c-0.002-0.007-0.002-0.014,0-0.021c0.386-0.078,0.779-0.12,1.173-0.125
									c0,0.001,0,0.002,0,0.002c0.001,0.003,0.002,0.005,0.005,0.006c-0.386,0.024-0.769,0.085-1.144,0.182 M37.978,44.387
									c-0.045-0.014-0.089-0.034-0.129-0.059c0.369-0.101,0.747-0.166,1.128-0.193c0.005,0.003,0.011,0.006,0.017,0.008
									C38.649,44.189,38.308,44.271,37.978,44.387 M38.221,44.449c-0.07-0.013-0.139-0.029-0.207-0.049
									c0.318-0.119,0.649-0.204,0.985-0.254c0.008,0.002,0.017,0.005,0.028,0.007C38.747,44.218,38.477,44.318,38.221,44.449
									 M38.543,44.496c-0.098-0.011-0.188-0.023-0.271-0.037c0.24-0.133,0.496-0.236,0.762-0.305
									c0.011,0.002,0.023,0.003,0.037,0.005C38.879,44.244,38.701,44.358,38.543,44.496 M38.922,44.524
									c-0.111-0.005-0.217-0.012-0.317-0.021c0.139-0.138,0.299-0.253,0.474-0.342c0.014,0,0.028,0.002,0.043,0.003
									C39.054,44.249,38.987,44.371,38.922,44.524 M39.338,44.529c-0.039,0-0.079,0-0.119,0c-0.077,0-0.153,0-0.226-0.004
									c0.034-0.126,0.08-0.248,0.139-0.364c0.009,0,0.019,0,0.03,0h0.015c0.067,0.115,0.121,0.238,0.16,0.365 M39.726,44.509
									c-0.099,0.008-0.206,0.014-0.318,0.016c-0.07-0.151-0.144-0.276-0.22-0.363c0.014,0,0.029,0,0.043-0.002
									c0.182,0.091,0.35,0.209,0.496,0.351 M40.055,44.473c-0.08,0.013-0.17,0.024-0.266,0.033
									c-0.166-0.141-0.351-0.258-0.55-0.346c0.012-0.001,0.024-0.002,0.035-0.004C39.546,44.229,39.808,44.336,40.055,44.473
									 M40.305,44.417c-0.066,0.019-0.133,0.035-0.201,0.046c-0.261-0.136-0.537-0.24-0.823-0.31
									c0.009-0.002,0.018-0.004,0.027-0.006C39.649,44.202,39.983,44.293,40.305,44.417 M40.46,44.35
									c-0.038,0.024-0.078,0.043-0.121,0.057c-0.332-0.122-0.676-0.209-1.026-0.26c0.006-0.002,0.011-0.004,0.016-0.008
									C39.712,44.173,40.091,44.243,40.46,44.35 M40.503,44.273c0.004,0.025-0.006,0.05-0.026,0.064
									c-0.375-0.103-0.758-0.17-1.145-0.201c0.003-0.002,0.004-0.006,0.003-0.009C39.728,44.139,40.119,44.187,40.503,44.273
									 M40.422,44.194c0.031,0.014,0.057,0.036,0.076,0.064c-0.383-0.081-0.772-0.125-1.163-0.132c0-0.003-0.005-0.006-0.01-0.008
									C39.692,44.106,40.059,44.132,40.422,44.194 M40.23,44.127c0.056,0.014,0.111,0.032,0.163,0.055
									c-0.355-0.059-0.715-0.081-1.074-0.066c-0.007-0.003-0.014-0.005-0.021-0.008C39.609,44.077,39.922,44.084,40.23,44.127
									 M39.951,44.071c0.086,0.013,0.166,0.028,0.236,0.045c-0.297-0.04-0.598-0.043-0.895-0.009
									c-0.01-0.002-0.021-0.004-0.032-0.006C39.487,44.054,39.721,44.044,39.951,44.071 M39.568,44.029l0.116,0.01
									c0.042,0.005,0.097,0.01,0.139,0.015c0.024,0.003,0.048,0.006,0.07,0.009c-0.214-0.025-0.431-0.013-0.641,0.037
									c-0.012-0.002-0.025-0.003-0.04-0.004C39.324,44.044,39.446,44.021,39.568,44.029 M39.501,44.024
									c-0.111-0.008-0.228,0.024-0.348,0.101c-0.021-0.078-0.041-0.115-0.062-0.115c-0.117,0-0.145,0-0.196,0.003
									c-0.125,0.005-0.125,0.005-0.204,0.01c-0.142,0.011-0.142,0.011-0.225,0.018c-0.17,0.019-0.172,0.02-0.262,0.032
									c-0.199,0.032-0.211,0.033-0.324,0.056c-0.254,0.055-0.274,0.06-0.434,0.104c-0.314,0.096-0.371,0.113-0.634,0.217
									c-0.357,0.158-0.592,0.263-1.01,0.537c-0.639,0.466-0.983,0.781-1.453,1.523c-0.312,0.586-0.52,1.039-0.565,1.98
									c0.014,0.435,0.018,0.551,0.13,1.062c0.132,0.42,0.406,1.294,1.341,2.132c0.453,0.377,0.592,0.478,1.167,0.788
									c0.334,0.156,0.394,0.183,0.729,0.302c0.281,0.088,0.298,0.094,0.482,0.14c0.227,0.053,0.227,0.053,0.35,0.074
									c0.182,0.031,0.182,0.031,0.276,0.043c0.154,0.02,0.154,0.02,0.231,0.027c0.137,0.012,0.137,0.012,0.206,0.017
									c0.105,0.005,0.105,0.005,0.193,0.009c0.129,0.003,0.129,0.003,0.193,0.003c0.118,0,0.145-0.001,0.197-0.003
									c0.123-0.005,0.123-0.005,0.204-0.01c0.143-0.011,0.143-0.011,0.225-0.019c0.166-0.019,0.172-0.02,0.262-0.032
									c0.199-0.032,0.211-0.034,0.324-0.056c0.253-0.055,0.274-0.059,0.434-0.104c0.315-0.096,0.371-0.113,0.635-0.217
									c0.357-0.158,0.592-0.263,1.01-0.537c0.64-0.466,0.983-0.781,1.454-1.523c0.312-0.585,0.52-1.038,0.564-1.98
									c-0.014-0.434-0.017-0.55-0.129-1.061c-0.133-0.421-0.408-1.298-1.341-2.132c-0.453-0.378-0.592-0.478-1.167-0.789
									c-0.333-0.155-0.394-0.183-0.729-0.302c-0.283-0.088-0.3-0.094-0.483-0.14c-0.227-0.052-0.227-0.052-0.35-0.075
									c-0.182-0.031-0.182-0.031-0.276-0.043c-0.154-0.02-0.154-0.02-0.231-0.027C39.629,44.035,39.556,44.029,39.501,44.024"/>
							</g>
						</g>
					</g>
					<g transform="matrix(1, 0, 0, 1, 0, 0)">
						
							<linearGradient id="SVGID_6_" gradientUnits="userSpaceOnUse" x1="38.4166" y1="50.3412" x2="34.7179" y2="54.9426" gradientTransform="matrix(1 0 0 -1 0 99)">
							<stop  offset="0" style="stop-color:#FFFFFF"/>
							<stop  offset="1" style="stop-color:#FFFFFF"/>
						</linearGradient>
						<path class="st35" d="M37.135,47.956l0.479,0.805c-0.945,0.567-1.96,0.615-2.472,0.049c-0.631-0.696-0.263-2.057,0.822-3.041
							c0.434-0.394,0.918-0.666,1.382-0.807c-0.934,0.646-1.351,1.587-1.395,2.428c-0.044,0.863,0.379,1.463,0.379,1.463
							L37.135,47.956z M39.07,45.247c-0.17-0.188-0.397-0.306-0.657-0.362c-0.231,0.122-0.443,0.276-0.63,0.458
							c-0.924,0.916-0.787,1.977-0.787,1.977l1.998,0.057C39.46,46.581,39.521,45.744,39.07,45.247z"/>
					</g>
					<path class="st36" d="M42.789,45.324c1.757,1.566,2.114,4.086,0.715,6.028c-1.596,2.216-4.874,2.841-7.321,1.395
						c-1.42-0.838-2.247-2.191-2.38-3.611c-0.066,1.71,0.829,3.409,2.527,4.413c2.58,1.525,6.035,0.866,7.719-1.47
						C45.65,49.855,45.07,46.917,42.789,45.324z"/>
					<g>
						<defs>
							<path id="SVGID_7_" d="M39.096,44.052c-1.685,0-3.336,0.746-4.326,2.119c-1.556,2.161-0.883,5.056,1.503,6.465
								c0.853,0.5,1.825,0.763,2.814,0.759c1.685,0,3.336-0.746,4.326-2.12c1.556-2.161,0.884-5.054-1.502-6.465
								C41.057,44.311,40.085,44.049,39.096,44.052"/>
						</defs>
						<clipPath id="SVGID_8_">
							<use xlink:href="#SVGID_7_"  style="overflow:visible;"/>
						</clipPath>
					</g>
				</g>
			</g>
		</g>
		<g id="XMLID_1_">
			<g id="XMLID_16_">
				<path id="XMLID_17_" d="M257.005,65.611c0,1.92-1.544,3.441-3.503,3.441c-1.961,0-3.525-1.522-3.525-3.441
					c0-1.918,1.564-3.419,3.546-3.419C255.461,62.192,257.005,63.693,257.005,65.611z M250.853,65.611
					c0,1.523,1.148,2.733,2.67,2.733c1.479,0.02,2.606-1.209,2.606-2.712c0-1.52-1.127-2.752-2.647-2.752
					C252.001,62.88,250.853,64.112,250.853,65.611z M252.959,67.384h-0.792v-3.419c0.314-0.043,0.752-0.104,1.315-0.104
					c0.646,0,0.938,0.104,1.167,0.27c0.21,0.147,0.353,0.398,0.353,0.731c0,0.417-0.313,0.687-0.709,0.813v0.041
					c0.335,0.106,0.501,0.376,0.605,0.835c0.104,0.521,0.188,0.709,0.253,0.833h-0.837c-0.104-0.125-0.166-0.417-0.27-0.833
					c-0.062-0.355-0.272-0.523-0.709-0.523h-0.376V67.384z M252.979,65.464h0.377c0.437,0,0.791-0.145,0.791-0.499
					c0-0.313-0.229-0.521-0.729-0.521c-0.208,0-0.353,0.019-0.439,0.041V65.464z"/>
			</g>
			<g id="XMLID_3_">
				<g id="XMLID_7_">
					<g>
						<path d="M231.542,37.1c-6.478-2.251-13.864-1.564-19.748,0.253l3.214,21.048l-13.833-22.544l-13.744,27.285
							c-3.711-13.02-5.686-27.025-5.686-27.025L169.96,55.773l-13.072-20.788l-2.201,21.203c-0.084-0.225-0.144-0.349-0.144-0.349
							l-0.005-0.063c-0.127-0.27-0.317-0.625-0.421-0.791c-1.89-3.423-8.257-5.445-12.754-6.982
							c-11.403-3.905-7.922-7.918-1.741-8.875c4.315-0.673,9.209,0.102,12.283,2.022l1.578-4.605
							c-8.621-4.536-27.776-3.269-24.673,8.649c1.793,6.89,16.319,7.874,19.754,11.901c0.285,0.338,0.681,0.818,0.869,1.254
							c0.256,0.594,0.341,1.276,0.07,2.133c-0.04,0.128-0.102,0.545-0.186,0.712c-0.122,0.246-0.26,0.49-0.36,0.618
							c-2.197,2.781-6.613,2.888-10.659,2.395c-4.637-0.565-8.78-2.851-9.02-3.387l-1.947,4.898
							c7.328,3.957,21.236,6.297,26.425-0.994c0.021-0.029,0.034-0.049,0.053-0.079l-0.486,4.685l5.506-0.094l1.701-19.203
							l9.682,15.293l9.037-15.293c0,0,0.96,3.962,2.707,11.237c1.476,6.144,2.401,8.475,2.401,8.475l4.74-0.371l4.688-9.437h16.742
							l6.26,9.433l5.179-0.009l-2.786-16.46c3.443,4.786,12.955,11.107,20.436,13.736l-0.5,2.851l5.414,0.125l4.758-28.103
							l11.454,0.126l1.783-4.601L231.542,37.1z M196.069,55.341l5.513-11.095l5.894,11.095H196.069z M218.21,46.771l-0.972-6.227
							c3.288-1.971,13.896-0.782,12.709,2.504C228.756,46.333,218.428,47.741,218.21,46.771z M240.46,62.199
							c-6.54-2.316-16.586-9.857-16.96-11.421c3.693-0.28,11.578-2.378,10.733-9.138l9.421,0.062L240.46,62.199z"/>
					</g>
				</g>
				<path id="XMLID_6_" d="M166.922,48.865"/>
				<path id="XMLID_5_" d="M166.922,48.865"/>
				<path id="XMLID_4_" d="M171.073,55.773"/>
			</g>
		</g>
		<g>
			<path d="M288.481,65.779c0-0.969-0.34-1.736-1.021-2.3c-0.68-0.565-1.925-1.101-3.734-1.609
				c-1.809-0.508-3.131-1.063-3.963-1.663c-1.185-0.849-1.777-1.961-1.777-3.338c0-1.337,0.55-2.424,1.651-3.26
				c1.101-0.836,2.508-1.255,4.221-1.255c1.161,0,2.2,0.224,3.116,0.672c0.917,0.449,1.627,1.073,2.132,1.873
				c0.504,0.8,0.756,1.693,0.756,2.678h-1.489c0-1.196-0.408-2.158-1.225-2.885c-0.816-0.727-1.913-1.09-3.29-1.09
				c-1.337,0-2.401,0.299-3.194,0.896c-0.793,0.597-1.189,1.377-1.189,2.339c0,0.89,0.356,1.616,1.069,2.177
				c0.713,0.561,1.853,1.057,3.422,1.485c1.568,0.429,2.757,0.874,3.566,1.334c0.808,0.46,1.417,1.01,1.825,1.651
				c0.409,0.641,0.613,1.397,0.613,2.269c0,1.377-0.551,2.482-1.652,3.315c-1.101,0.833-2.551,1.249-4.352,1.249
				c-1.233,0-2.364-0.221-3.392-0.66c-1.029-0.44-1.809-1.057-2.342-1.849c-0.532-0.793-0.798-1.701-0.798-2.726h1.477
				c0,1.233,0.461,2.206,1.381,2.918c0.921,0.713,2.145,1.069,3.675,1.069c1.361,0,2.453-0.301,3.278-0.901
				C288.069,67.568,288.481,66.771,288.481,65.779z"/>
			<path d="M295.902,63.533l-1.645,1.585v4.96h-1.442V51.633h1.442v11.803l1.357-1.464l4.971-4.888h1.813l-5.512,5.476l5.992,7.516
				h-1.717L295.902,63.533z"/>
			<path d="M304.775,53.333c0-0.27,0.088-0.499,0.265-0.686c0.176-0.187,0.416-0.28,0.72-0.28s0.547,0.094,0.726,0.28
				c0.181,0.187,0.271,0.416,0.271,0.686s-0.09,0.497-0.271,0.68c-0.18,0.183-0.422,0.275-0.726,0.275s-0.544-0.092-0.72-0.275
				C304.864,53.83,304.775,53.603,304.775,53.333z M306.468,70.077h-1.441V57.085h1.441V70.077z"/>
			<path d="M311.98,70.077h-1.441V51.633h1.441V70.077z"/>
			<path d="M317.492,70.077h-1.441V51.633h1.441V70.077z"/>
			<path d="M329.175,66.775c0-0.713-0.286-1.285-0.859-1.717c-0.572-0.432-1.435-0.771-2.587-1.015
				c-1.153-0.244-2.048-0.524-2.684-0.84c-0.637-0.316-1.109-0.703-1.417-1.159c-0.308-0.457-0.463-1.009-0.463-1.657
				c0-1.025,0.428-1.871,1.285-2.54c0.856-0.668,1.953-1.003,3.29-1.003c1.449,0,2.612,0.359,3.489,1.075
				c0.877,0.717,1.315,1.652,1.315,2.804h-1.441c0-0.76-0.319-1.392-0.954-1.897c-0.637-0.504-1.439-0.757-2.408-0.757
				c-0.945,0-1.703,0.21-2.275,0.631c-0.573,0.42-0.859,0.966-0.859,1.638c0,0.649,0.239,1.151,0.715,1.507
				c0.476,0.356,1.344,0.683,2.605,0.979s2.206,0.612,2.834,0.949c0.628,0.336,1.094,0.74,1.399,1.213
				c0.304,0.472,0.456,1.044,0.456,1.717c0,1.097-0.442,1.974-1.326,2.63c-0.885,0.656-2.04,0.985-3.465,0.985
				c-1.513,0-2.739-0.366-3.68-1.099c-0.941-0.732-1.411-1.659-1.411-2.779h1.441c0.056,0.84,0.41,1.495,1.063,1.963
				c0.652,0.468,1.514,0.703,2.587,0.703c1.001,0,1.809-0.221,2.425-0.66C328.867,68.004,329.175,67.447,329.175,66.775z"/>
		</g>
	</g>
</g>
</svg>
