<?xml version="1.0" encoding="utf-8"?>
<!-- Generator: Adobe Illustrator 25.2.1, SVG Export Plug-In . SVG Version: 6.00 Build 0)  -->
<svg version="1.1" id="Layer_1" xmlns="http://www.w3.org/2000/svg" xmlns:xlink="http://www.w3.org/1999/xlink" x="0px" y="0px"
	 viewBox="0 0 402 99" style="enable-background:new 0 0 402 99;" xml:space="preserve">
<style type="text/css">
	.st0{fill:#F5190E;}
</style>
<g>
	<g>
		<path class="st0" d="M48.252,72.688c-3.178,0.268-5.894,2.72-6.442,5.869c-0.053,0.306,0.021,0.43,0.343,0.507
			c2.216,0.53,4.462,0.787,6.557,0.798c2.396-0.005,4.582-0.255,6.739-0.758c0.602-0.141,0.592-0.146,0.469-0.744
			C55.227,74.995,52.074,72.365,48.252,72.688z"/>
		<path class="st0" d="M49.009,37.337c4.163-0.063,6.821-3.523,6.954-6.317c-4.744-1.171-9.451-1.179-14.159,0.008
			C41.993,33.979,44.784,37.401,49.009,37.337z"/>
		<path class="st0" d="M36.164,67.178c-2.986-2.719-7.272-2.118-9.206-0.311c1.86,3.554,6.233,7.93,10.021,10.016
			C39.11,74.333,39.163,69.909,36.164,67.178z"/>
		<path class="st0" d="M61.788,42.845c2.995,2.563,7.231,1.903,9.053,0.141c-2.492-4.173-5.827-7.502-10.024-10.006
			C58.416,35.796,58.907,40.38,61.788,42.845z"/>
		<path class="st0" d="M31.252,55.386c0.191-3.847-2.568-7.18-6.289-7.542c-1.192,4.749-1.195,9.466-0.002,14.186
			C27.853,61.822,31.061,59.24,31.252,55.386z"/>
		<path class="st0" d="M66.605,55.267c0.191,4.263,3.787,6.657,6.308,6.75c1.187-4.71,1.184-9.42-0.003-14.16
			C69.806,48.093,66.414,50.998,66.605,55.267z"/>
		<path class="st0" d="M36.415,42.492c2.719-2.712,2.654-6.965,0.565-9.487c-4.207,2.516-7.547,5.854-10.043,10.04
			C29.51,45.167,33.744,45.156,36.415,42.492z"/>
		<path class="st0" d="M61.324,67.512c-2.838,2.899-2.401,7.296-0.459,9.392c4.161-2.487,7.488-5.809,10.002-10.003
			C68.728,64.982,64.301,64.471,61.324,67.512z"/>
		<path class="st0" d="M58.413,47.661c1.258,0.003,2.249-0.979,2.254-2.236c0.005-1.245-0.993-2.258-2.236-2.271
			c-1.234-0.012-2.249,1.002-2.253,2.252C56.174,46.667,57.156,47.658,58.413,47.661z"/>
		<path class="st0" d="M48.908,43.771c1.256-0.006,2.218-0.991,2.215-2.267c-0.004-1.264-0.984-2.233-2.253-2.226
			c-1.255,0.007-2.234,1.003-2.227,2.263C46.65,42.791,47.652,43.777,48.908,43.771z"/>
		<path class="st0" d="M39.403,43.195c-1.257-0.013-2.263,0.97-2.273,2.22c-0.01,1.255,0.976,2.261,2.223,2.27
			c1.266,0.009,2.255-0.96,2.267-2.22C41.633,44.2,40.663,43.208,39.403,43.195z"/>
		<path class="st0" d="M60.162,54.944c-0.001,1.245,1.005,2.255,2.245,2.255c1.241,0,2.252-1.011,2.252-2.252
			c0-1.262-0.976-2.234-2.248-2.236C61.143,52.708,60.163,53.68,60.162,54.944z"/>
		<path class="st0" d="M48.887,70.731c1.247,0.002,2.235-0.993,2.236-2.253c0.001-1.278-0.957-2.237-2.234-2.236
			c-1.274,0.002-2.246,0.968-2.246,2.234C46.643,69.726,47.641,70.729,48.887,70.731z"/>
		<path class="st0" d="M60.669,64.5c0.003-1.284-0.949-2.247-2.222-2.248c-1.266-0.001-2.264,0.977-2.269,2.226
			c-0.005,1.244,0.996,2.247,2.246,2.252C59.698,66.735,60.666,65.773,60.669,64.5z"/>
		<path class="st0" d="M33.209,54.895c-0.024,1.245,0.959,2.275,2.2,2.304c1.25,0.029,2.267-0.949,2.29-2.204
			c0.023-1.277-0.924-2.266-2.189-2.285C34.238,52.691,33.233,53.645,33.209,54.895z"/>
		<path class="st0" d="M39.379,62.229c-1.277-0.003-2.255,0.959-2.259,2.221c-0.004,1.245,0.995,2.259,2.235,2.268
			c1.245,0.009,2.243-0.988,2.245-2.243C41.601,63.189,40.655,62.232,39.379,62.229z"/>
	</g>
	<g>
		<path d="M144.311,58.159c-0.037,0.01-0.075,0.02-0.112,0.03c-0.124-0.333-0.257-0.664-0.372-1
			c-1.927-5.666-3.856-11.332-5.768-17.003c-0.119-0.354-0.272-0.478-0.644-0.469c-1.006,0.025-2.014,0.009-3.02,0.009
			c-0.504,0-1.008,0-1.489,0c0,10.234,0,20.368,0,30.503c1.522,0,2.993,0,4.552,0c0-6.474,0-12.916,0-19.358
			c0.049-0.007,0.099-0.013,0.148-0.02c2.179,6.472,4.358,12.944,6.519,19.362c1.647,0,3.198,0,4.738,0c0-10.181,0-20.314,0-30.436
			c-1.54,0-3.025,0-4.552,0C144.311,45.939,144.311,52.049,144.311,58.159z"/>
		<path d="M113.773,39.757c-1.888,10.163-3.771,20.298-5.661,30.472c1.664,0,3.257,0,4.847,0c0.038-0.151,0.078-0.269,0.098-0.39
			c0.268-1.66,0.543-3.32,0.794-4.983c0.211-1.397,0.199-1.399,1.604-1.399c1.393,0,2.786,0,4.217,0
			c0.37,2.286,0.729,4.51,1.094,6.764c1.747,0,3.42,0,5.141,0c-1.924-10.194-3.838-20.339-5.749-30.464
			C117.976,39.757,115.885,39.757,113.773,39.757z M114.743,59.224c0.695-4.413,1.383-8.774,2.07-13.135c0.043,0,0.087,0,0.13,0
			c0.687,4.357,1.374,8.715,2.07,13.135C117.569,59.224,116.194,59.224,114.743,59.224z"/>
		<path d="M182.194,39.761c-1.889,10.167-3.773,20.304-5.661,30.463c1.645,0,3.258,0,4.881,0c0.338-2.1,0.662-4.167,1.018-6.228
			c0.034-0.197,0.267-0.511,0.414-0.514c1.723-0.036,3.447-0.023,5.247-0.023c0.375,2.307,0.738,4.544,1.101,6.777
			c1.733,0,3.392,0,5.137,0c-1.921-10.183-3.835-20.326-5.749-30.475C186.432,39.761,184.326,39.761,182.194,39.761z
			 M183.162,59.236c0.692-4.392,1.379-8.747,2.065-13.103c0.05,0.005,0.099,0.009,0.149,0.014c0.683,4.345,1.366,8.689,2.058,13.089
			C185.976,59.236,184.611,59.236,183.162,59.236z"/>
		<path d="M215.282,58.898c-0.061-1.555-0.891-2.802-2.13-3.733c-0.687-0.516-1.416-0.985-2.157-1.421
			c-1.397-0.822-2.821-1.599-4.226-2.408c-0.858-0.493-1.533-1.173-1.579-2.207c-0.054-1.184-0.052-2.38,0.047-3.56
			c0.083-0.987,0.753-1.562,1.713-1.771c2.051-0.447,3.348,0.597,3.353,2.689c0.001,0.513-0.003,1.027,0.002,1.54
			c0.002,0.197,0.024,0.394,0.037,0.603c1.649,0,3.243,0,4.893,0c0-1.198,0.036-2.362-0.007-3.524
			c-0.098-2.62-1.545-4.49-4.067-5.256c-2.195-0.666-4.422-0.678-6.627-0.082c-2.65,0.715-4.247,2.634-4.329,5.182
			c-0.054,1.682-0.014,3.366-0.016,5.05c-0.002,1.843,0.803,3.292,2.247,4.374c0.835,0.626,1.734,1.172,2.631,1.708
			c1.18,0.704,2.388,1.364,3.584,2.041c1.013,0.573,1.685,1.382,1.713,2.591c0.025,1.066,0.076,2.14-0.013,3.199
			c-0.138,1.64-1.113,2.407-2.792,2.336c-1.487-0.063-2.371-0.976-2.432-2.546c-0.027-0.697-0.003-1.397-0.008-2.095
			c-0.001-0.177-0.026-0.354-0.039-0.521c-1.66,0-3.27,0-4.859,0c0,1.488-0.105,2.933,0.023,4.357
			c0.229,2.545,1.661,4.176,4.101,4.79c2.142,0.539,4.316,0.568,6.47,0.073c2.718-0.624,4.151-2.063,4.419-4.827
			C215.446,63.304,215.369,61.09,215.282,58.898z"/>
		<path d="M101.706,59.935c0-0.029-0.051-0.059-0.078-0.089c-1.638,0-3.276,0-4.988,0c0,0.248,0.001,0.468,0,0.688
			c-0.006,1.129,0.023,2.26-0.029,3.387c-0.053,1.162-0.628,1.943-1.613,2.135c-2.175,0.424-3.708-0.191-3.703-2.798
			c0-0.062,0-0.123,0-0.185c0-5.381-0.003-10.762,0.005-16.143c0.001-0.449,0.04-0.905,0.125-1.345
			c0.187-0.962,0.809-1.556,1.788-1.694c0.441-0.062,0.903-0.078,1.344-0.025c1.309,0.157,1.969,0.86,2.054,2.188
			c0.047,0.737,0.023,1.478,0.028,2.217c0.003,0.365,0,0.729,0,1.126c1.719,0,3.372,0,5.025,0c0-1.478,0.062-2.932-0.014-4.379
			c-0.137-2.599-1.604-4.423-4.105-5.167c-2.192-0.652-4.415-0.66-6.634-0.137c-2.917,0.688-4.624,2.727-4.644,5.717
			c-0.041,6.387-0.041,12.775,0,19.162c0.019,2.939,1.506,4.872,4.26,5.609c2.364,0.633,4.76,0.623,7.118-0.065
			c2.299-0.671,3.707-2.232,3.946-4.605C101.779,63.681,101.682,61.801,101.706,59.935z"/>
		<path d="M168.421,39.747c-0.139,0.003-0.362,0.276-0.393,0.451c-0.21,1.171-0.378,2.349-0.562,3.524
			c-0.765,4.904-1.53,9.808-2.297,14.712c-0.179,1.145-0.364,2.288-0.547,3.432c-0.054-0.003-0.107-0.005-0.161-0.008
			c-1.151-7.368-2.303-14.737-3.454-22.105c-1.725,0-3.384,0-5.143,0c1.922,10.187,3.835,20.33,5.748,30.474
			c1.893,0,3.735,0,5.603,0c1.918-10.166,3.83-20.304,5.753-30.501C171.376,39.726,169.898,39.714,168.421,39.747z"/>
	</g>
	<g>
		<path d="M239.238,66.492c0-0.969-0.34-1.736-1.021-2.3c-0.68-0.565-1.925-1.101-3.734-1.609c-1.809-0.508-3.131-1.063-3.963-1.663
			c-1.185-0.849-1.777-1.961-1.777-3.338c0-1.337,0.55-2.424,1.651-3.26c1.101-0.836,2.508-1.255,4.221-1.255
			c1.161,0,2.2,0.224,3.116,0.672c0.917,0.449,1.627,1.073,2.132,1.873c0.504,0.8,0.756,1.693,0.756,2.678h-1.489
			c0-1.196-0.408-2.158-1.225-2.885c-0.816-0.727-1.913-1.09-3.29-1.09c-1.337,0-2.401,0.299-3.194,0.896
			c-0.793,0.597-1.189,1.377-1.189,2.339c0,0.89,0.356,1.616,1.069,2.177c0.713,0.561,1.853,1.057,3.422,1.485
			c1.568,0.429,2.757,0.874,3.566,1.334c0.808,0.46,1.417,1.01,1.825,1.651c0.409,0.641,0.613,1.397,0.613,2.269
			c0,1.377-0.551,2.482-1.652,3.315c-1.101,0.833-2.551,1.249-4.352,1.249c-1.233,0-2.364-0.221-3.392-0.66
			c-1.029-0.44-1.809-1.057-2.342-1.849c-0.532-0.793-0.798-1.701-0.798-2.726h1.477c0,1.233,0.461,2.206,1.381,2.918
			c0.921,0.713,2.145,1.069,3.675,1.069c1.361,0,2.453-0.301,3.278-0.901C238.827,68.281,239.238,67.484,239.238,66.492z"/>
		<path d="M246.66,64.246l-1.645,1.585v4.96h-1.442V52.346h1.442V64.15l1.357-1.464l4.971-4.888h1.813l-5.512,5.476l5.992,7.516
			h-1.717L246.66,64.246z"/>
		<path d="M255.533,54.046c0-0.27,0.088-0.499,0.265-0.686c0.176-0.187,0.416-0.28,0.72-0.28s0.547,0.094,0.726,0.28
			c0.181,0.187,0.271,0.416,0.271,0.686s-0.09,0.497-0.271,0.68c-0.18,0.183-0.422,0.275-0.726,0.275s-0.544-0.092-0.72-0.275
			C255.621,54.543,255.533,54.316,255.533,54.046z M257.226,70.79h-1.441V57.798h1.441V70.79z"/>
		<path d="M262.737,70.79h-1.441V52.346h1.441V70.79z"/>
		<path d="M268.249,70.79h-1.441V52.346h1.441V70.79z"/>
		<path d="M279.933,67.488c0-0.713-0.286-1.285-0.859-1.717c-0.572-0.432-1.435-0.771-2.587-1.015
			c-1.153-0.244-2.048-0.524-2.684-0.84c-0.637-0.316-1.109-0.703-1.417-1.159c-0.308-0.457-0.463-1.009-0.463-1.657
			c0-1.025,0.428-1.871,1.285-2.54c0.856-0.668,1.953-1.003,3.29-1.003c1.449,0,2.612,0.359,3.489,1.075
			c0.877,0.717,1.315,1.652,1.315,2.804h-1.441c0-0.76-0.319-1.392-0.954-1.897c-0.637-0.504-1.439-0.757-2.408-0.757
			c-0.945,0-1.703,0.21-2.275,0.631c-0.573,0.42-0.859,0.966-0.859,1.638c0,0.649,0.239,1.151,0.715,1.507
			c0.476,0.356,1.344,0.683,2.605,0.979s2.206,0.612,2.834,0.949c0.628,0.336,1.094,0.74,1.399,1.213
			c0.304,0.472,0.456,1.044,0.456,1.717c0,1.097-0.442,1.974-1.326,2.63c-0.885,0.656-2.04,0.985-3.465,0.985
			c-1.513,0-2.739-0.366-3.68-1.099c-0.941-0.732-1.411-1.659-1.411-2.779h1.441c0.056,0.84,0.41,1.495,1.063,1.963
			c0.652,0.468,1.514,0.703,2.587,0.703c1.001,0,1.809-0.221,2.425-0.66C279.625,68.717,279.933,68.16,279.933,67.488z"/>
	</g>
</g>
</svg>
