<?xml version="1.0" encoding="utf-8"?>
<!-- Generator: Adobe Illustrator 23.0.4, SVG Export Plug-In . SVG Version: 6.00 Build 0)  -->
<svg version="1.1" id="Layer_1" xmlns="http://www.w3.org/2000/svg" xmlns:xlink="http://www.w3.org/1999/xlink" x="0px" y="0px"
	 viewBox="0 0 100 27.903" style="enable-background:new 0 0 100 27.903;" xml:space="preserve">
<style type="text/css">
	.st0{fill:#577FBF;}
	.st1{fill:#DA3335;}
	.st2{fill:#F2C117;}
	.st3{fill:#43B553;}
	.st4{fill:#706D6E;}
	.st5{fill:#EF5323;}
	.st6{fill:#82C341;}
	.st7{fill:#2CA9E1;}
	.st8{fill:#F8BB15;}
</style>
<g>
	<path class="st0" d="M19.435,7.183c0-0.312-0.029-0.616-0.081-0.912h-4.812v1.911l2.806,0.005
		c-0.184,0.619-0.558,1.133-1.075,1.479l1.572,1.157C18.835,9.929,19.435,8.63,19.435,7.183z"/>
	<path class="st1" d="M14.605,4.259c0.768,0,1.423,0.278,1.913,0.729l1.424-1.352c-0.862-0.82-2.04-1.323-3.393-1.323
		c-2.015,0-3.757,1.117-4.586,2.737l1.689,1.201C12.062,5.081,13.229,4.259,14.605,4.259z"/>
	<path class="st2" d="M9.998,9.379l1.654-1.281c-0.1-0.29-0.154-0.601-0.154-0.924s0.055-0.633,0.156-0.921L9.965,5.051
		C9.637,5.696,9.452,6.418,9.452,7.183C9.452,7.974,9.648,8.72,9.998,9.379z"/>
	<path class="st3" d="M11.652,8.098L9.998,9.379c0.84,1.585,2.564,2.673,4.553,2.673c1.302,0,2.442-0.465,3.293-1.231l-1.572-1.157
		c-0.455,0.304-1.02,0.477-1.666,0.477C13.228,10.142,12.058,9.283,11.652,8.098z"/>
</g>
<g id="ousxde_1_">
	<g>
		<path d="M25.884,6.43c0-0.134,0-0.269,0-0.404c0.003-0.02,0.008-0.04,0.008-0.06c0.012-0.249,0.063-0.49,0.136-0.727
			c0.063-0.203,0.152-0.396,0.266-0.58c0.157-0.251,0.349-0.471,0.594-0.648c0.284-0.208,0.6-0.352,0.955-0.412
			c0.172-0.028,0.345-0.045,0.52-0.026c0.203,0.023,0.398,0.077,0.59,0.143c0.198,0.068,0.395,0.134,0.593,0.203
			c0.137,0.047,0.27,0.044,0.408-0.003c0.249-0.087,0.498-0.173,0.749-0.251c0.252-0.079,0.51-0.133,0.778-0.119
			c0.114,0.006,0.228,0.018,0.341,0.036c0.232,0.036,0.454,0.101,0.665,0.203c0.264,0.128,0.487,0.304,0.672,0.524
			c0.033,0.039,0.063,0.082,0.088,0.116c-0.128,0.098-0.257,0.185-0.374,0.285c-0.25,0.213-0.43,0.471-0.532,0.777
			c-0.088,0.265-0.108,0.538-0.087,0.814c0.019,0.249,0.082,0.487,0.199,0.71c0.128,0.245,0.308,0.454,0.53,0.629
			c0.157,0.123,0.324,0.233,0.515,0.304c0,0.006,0,0.012,0,0.018c-0.004,0.006-0.008,0.012-0.01,0.018
			c-0.08,0.19-0.153,0.384-0.241,0.57c-0.163,0.343-0.374,0.657-0.612,0.957c-0.157,0.198-0.32,0.391-0.526,0.546
			c-0.209,0.158-0.444,0.255-0.715,0.251c-0.157-0.002-0.308-0.038-0.454-0.084c-0.148-0.047-0.291-0.105-0.437-0.155
			c-0.173-0.058-0.351-0.098-0.535-0.111c-0.209-0.015-0.414,0.019-0.613,0.078c-0.178,0.053-0.35,0.118-0.525,0.178
			c-0.149,0.052-0.301,0.092-0.46,0.102c-0.208,0.013-0.394-0.049-0.566-0.15c-0.155-0.091-0.287-0.208-0.412-0.334
			c-0.2-0.203-0.366-0.43-0.53-0.656c-0.259-0.356-0.455-0.743-0.613-1.148c-0.118-0.302-0.213-0.61-0.268-0.928
			c-0.028-0.163-0.051-0.327-0.075-0.491C25.894,6.546,25.89,6.488,25.884,6.43z"/>
		<path d="M31.546,1.393c0.014,0.141,0.01,0.282-0.008,0.423c-0.026,0.198-0.085,0.384-0.175,0.563
			c-0.097,0.192-0.22,0.366-0.369,0.524c-0.178,0.188-0.383,0.341-0.626,0.443c-0.217,0.091-0.444,0.12-0.682,0.103
			c-0.021-0.125-0.015-0.248,0-0.369c0.028-0.223,0.099-0.436,0.216-0.632c0.223-0.375,0.526-0.671,0.938-0.857
			c0.182-0.082,0.366-0.155,0.568-0.183c0.025-0.003,0.05-0.008,0.076-0.013C31.503,1.393,31.524,1.393,31.546,1.393z"/>
	</g>
</g>
<g>
	<path class="st4" d="M90.503,5.978V5.482h-0.646l-0.002-0.773l-0.022,0.006l-0.606,0.178l-0.013,0.003v0.585l-0.956,0.002V5.157
		c0-0.152,0.035-0.267,0.106-0.345c0.07-0.077,0.168-0.115,0.296-0.117c0.091,0,0.186,0.019,0.28,0.061l0.024,0.011V4.244
		l-0.011-0.003c-0.088-0.03-0.21-0.046-0.358-0.046c-0.189,0-0.36,0.04-0.509,0.117c-0.15,0.077-0.267,0.189-0.349,0.329
		c-0.082,0.141-0.123,0.304-0.123,0.483v0.358h-0.449v0.496h0.449l0.002,2.092h0.645l-0.002-2.092l0.956-0.002l0.002,1.329
		c0,0.549,0.272,0.825,0.805,0.825c0.088,0,0.179-0.01,0.274-0.029c0.096-0.019,0.162-0.04,0.198-0.061L90.5,8.036V7.536
		l-0.026,0.016c-0.035,0.022-0.078,0.042-0.13,0.054c-0.051,0.014-0.094,0.021-0.128,0.021c-0.125,0-0.218-0.032-0.275-0.094
		c-0.058-0.064-0.088-0.176-0.088-0.333l-0.002-1.222L90.503,5.978L90.503,5.978z M85.724,7.632c-0.235,0-0.419-0.074-0.549-0.219
		c-0.131-0.147-0.198-0.357-0.198-0.622c0-0.275,0.066-0.489,0.197-0.64c0.13-0.149,0.313-0.224,0.544-0.224
		c0.224,0,0.401,0.072,0.529,0.213c0.13,0.142,0.194,0.355,0.194,0.633c0,0.282-0.061,0.497-0.182,0.641
		C86.14,7.558,85.959,7.632,85.724,7.632 M85.75,5.423c-0.448,0-0.803,0.125-1.056,0.373c-0.253,0.246-0.381,0.589-0.381,1.014
		c0,0.405,0.125,0.731,0.374,0.969c0.246,0.237,0.584,0.358,1,0.357c0.433,0,0.782-0.128,1.035-0.377
		c0.253-0.25,0.381-0.587,0.381-1.006c0-0.411-0.12-0.741-0.358-0.976C86.506,5.541,86.172,5.423,85.75,5.423 M83.274,5.424
		c-0.305,0-0.555,0.075-0.747,0.222c-0.194,0.147-0.291,0.341-0.291,0.574c0,0.122,0.021,0.23,0.062,0.321
		c0.042,0.091,0.107,0.173,0.194,0.24s0.218,0.138,0.393,0.21c0.147,0.058,0.258,0.107,0.326,0.146
		c0.067,0.037,0.117,0.075,0.144,0.112c0.027,0.037,0.04,0.086,0.04,0.147c0,0.174-0.136,0.258-0.416,0.259
		c-0.104,0-0.222-0.021-0.352-0.061c-0.13-0.04-0.251-0.099-0.361-0.174l-0.027-0.019v0.593l0.01,0.005
		c0.091,0.04,0.206,0.074,0.342,0.101c0.134,0.027,0.258,0.04,0.366,0.04c0.331,0,0.597-0.075,0.79-0.222
		c0.195-0.149,0.294-0.345,0.294-0.587c0-0.174-0.054-0.323-0.158-0.445c-0.104-0.12-0.285-0.23-0.537-0.326
		c-0.202-0.077-0.329-0.141-0.384-0.19c-0.051-0.046-0.077-0.115-0.077-0.2c0-0.075,0.032-0.136,0.098-0.184
		c0.066-0.05,0.158-0.074,0.275-0.074c0.109,0,0.218,0.016,0.326,0.048c0.109,0.032,0.205,0.074,0.286,0.126l0.026,0.018V5.541
		l-0.01-0.005c-0.074-0.03-0.173-0.056-0.29-0.077C83.474,5.435,83.367,5.424,83.274,5.424 M80.553,7.636
		c-0.235,0-0.419-0.074-0.549-0.219c-0.131-0.147-0.198-0.357-0.198-0.622c0-0.275,0.066-0.489,0.197-0.64
		c0.13-0.149,0.313-0.224,0.544-0.224c0.224,0,0.401,0.072,0.529,0.213c0.13,0.142,0.194,0.355,0.194,0.633
		c0,0.282-0.061,0.497-0.182,0.641C80.969,7.563,80.79,7.636,80.553,7.636 M80.58,5.427c-0.448,0-0.803,0.125-1.056,0.373
		c-0.253,0.246-0.381,0.589-0.381,1.014c0,0.406,0.125,0.731,0.374,0.969c0.246,0.237,0.584,0.358,1,0.357
		c0.433,0,0.782-0.128,1.035-0.377c0.253-0.25,0.381-0.587,0.381-1.006c0-0.411-0.12-0.741-0.358-0.976
		C81.335,5.546,81.001,5.427,80.58,5.427 M78.163,5.939V5.491h-0.638l0.003,2.59h0.638l-0.002-1.324c0-0.226,0.053-0.411,0.158-0.55
		c0.104-0.139,0.243-0.208,0.413-0.21c0.058,0,0.122,0.01,0.192,0.027c0.069,0.018,0.12,0.037,0.149,0.058l0.027,0.019V5.487
		l-0.01-0.005c-0.059-0.024-0.144-0.037-0.25-0.037c-0.16,0-0.304,0.05-0.427,0.147c-0.109,0.086-0.186,0.202-0.245,0.347
		L78.163,5.939z M76.383,5.431c-0.293,0-0.553,0.059-0.776,0.178s-0.395,0.288-0.512,0.502s-0.176,0.464-0.174,0.744
		c0,0.245,0.058,0.469,0.171,0.667s0.274,0.353,0.478,0.461c0.203,0.107,0.437,0.162,0.697,0.16c0.304,0,0.561-0.059,0.769-0.173
		l0.008-0.005V7.406l-0.027,0.019c-0.093,0.066-0.198,0.117-0.312,0.155c-0.114,0.037-0.214,0.056-0.306,0.056
		c-0.251,0-0.451-0.074-0.597-0.222c-0.146-0.149-0.219-0.353-0.221-0.616c0-0.262,0.077-0.475,0.229-0.632
		c0.15-0.157,0.352-0.235,0.598-0.235c0.21,0,0.414,0.067,0.606,0.2l0.027,0.019V5.563l-0.008-0.005
		c-0.072-0.038-0.173-0.07-0.294-0.094C76.618,5.442,76.498,5.431,76.383,5.431 M74.481,5.493h-0.638l0.003,2.59h0.638L74.481,5.493
		L74.481,5.493z M74.168,4.391c-0.104,0-0.197,0.034-0.272,0.102c-0.075,0.069-0.114,0.154-0.114,0.253
		c0,0.099,0.038,0.182,0.114,0.248c0.075,0.066,0.166,0.099,0.274,0.099c0.107,0,0.198-0.034,0.274-0.099
		c0.077-0.066,0.114-0.15,0.114-0.248s-0.038-0.182-0.11-0.251C74.373,4.426,74.278,4.391,74.168,4.391 M72.578,5.304l0.003,2.78
		h0.651l-0.003-3.612l-0.901,0.002l-1.142,2.684l-1.113-2.682h-0.937l0.003,3.612h0.613l-0.003-2.78h0.021l1.176,2.78h0.462
		l1.153-2.78L72.578,5.304L72.578,5.304z"/>
	<path class="st5" d="M63.931,6.136l-3.001,0.002l-0.003-2.865l3.001-0.002L63.931,6.136z"/>
	<path class="st6" d="M67.244,6.133l-3.001,0.002L64.24,3.271l3.001-0.002L67.244,6.133L67.244,6.133z"/>
	<path class="st7" d="M63.933,9.3l-2.999,0.003l-0.003-2.865l3.001-0.002L63.933,9.3z"/>
	<path class="st8" d="M67.245,9.297l-3.001,0.002l-0.003-2.865l3.001-0.002L67.245,9.297L67.245,9.297z"/>
</g>
<g>
	<path d="M50.712,20.086c0,0.733,0.623,1.329,1.391,1.329s1.391-0.594,1.391-1.329c0-0.733-0.623-1.329-1.391-1.329
		C51.335,18.757,50.712,19.352,50.712,20.086z M52.102,19.345c0.428,0,0.777,0.332,0.777,0.741s-0.349,0.741-0.777,0.741
		c-0.428,0-0.777-0.332-0.777-0.741S51.675,19.345,52.102,19.345z"/>
	<ellipse cx="52.102" cy="20.086" rx="0.574" ry="0.549"/>
	<path d="M49.148,17.405c0-0.361-0.305-0.651-0.683-0.651c-0.377,0-0.683,0.293-0.683,0.651c0,0.148,0.053,0.283,0.141,0.392H47.91
		l-0.864,2.393h-0.013l-0.871-2.393h-0.652v4.518h0.678v-2.749h0.014l0.665,1.942h0.34l0.672-1.942h0.014v2.749h0.678v-4.269
		C48.896,17.999,49.148,17.732,49.148,17.405z M48.465,17.042c0.21,0,0.381,0.163,0.381,0.364s-0.17,0.364-0.381,0.364
		c-0.21,0-0.381-0.163-0.381-0.364S48.256,17.042,48.465,17.042z"/>
	<path d="M52.102,15.423c0.377,0,0.683-0.293,0.683-0.651c0-0.361-0.305-0.651-0.683-0.651s-0.683,0.293-0.683,0.651
		C51.421,15.132,51.726,15.423,52.102,15.423z M52.102,14.408c0.21,0,0.381,0.163,0.381,0.364c0,0.201-0.17,0.364-0.381,0.364
		c-0.21,0-0.381-0.163-0.381-0.364C51.723,14.571,51.893,14.408,52.102,14.408z"/>
	<path d="M54.163,17.001c-0.007,0.027-0.011,0.056-0.011,0.086c0,0.199,0.169,0.361,0.378,0.361c0.208,0,0.378-0.161,0.378-0.361
		c0-0.199-0.169-0.361-0.378-0.361c-0.033,0-0.065,0.005-0.094,0.012l-1.449-1.571c-0.096,0.196-0.262,0.356-0.468,0.448
		L54.163,17.001z"/>
	<path d="M51.449,18.562l-1.813-1.115l2.024-1.845c-0.263-0.128-0.457-0.367-0.516-0.652c-0.368,0.196-2.118,1.205-2.646,1.51
		c0.531,0.018,0.956,0.434,0.956,0.946c0,0.464-0.351,0.851-0.813,0.93l1.751,1.539C50.473,19.279,50.886,18.783,51.449,18.562z"/>
	<path d="M56.79,15.835c-0.119-0.195-0.383-0.289-0.74-0.289l0,0c-0.193,0-0.412,0.028-0.649,0.082
		c-0.196-0.633-0.519-1.046-0.882-1.046c-0.343,0-0.649,0.367-0.848,0.941c0.296,0.331,0.657,0.733,0.672,0.741
		c0.006,0.005,0.067,0.038,0.154,0.083c0.007-0.004,0.015-0.008,0.022-0.012c0.115,0.054,0.231,0.113,0.345,0.176
		c0.115,0.063,0.226,0.129,0.332,0.199c0.009,0.123,0.014,0.248,0.014,0.374c0,0.126-0.005,0.25-0.014,0.374
		c-0.001,0.001-0.002,0.001-0.002,0.001v0.023l-0.664,0.367l-0.694-0.375v-0.105c-0.006-0.094-0.008-0.189-0.008-0.285
		c0-0.002,0-0.005,0-0.007l-0.543-0.448c-0.083,0.063-0.166,0.128-0.243,0.193c-0.072-0.073-0.139-0.147-0.196-0.219
		c-0.221-0.275-0.276-0.47-0.263-0.555l-0.31-0.25c-0.009,0.012-0.016,0.023-0.025,0.036c-0.181,0.301,0.032,0.773,0.506,1.252
		c-0.476,0.479-0.688,0.952-0.506,1.252c0.119,0.195,0.383,0.289,0.74,0.289c0.193,0,0.412-0.028,0.649-0.082
		c0.196,0.633,0.519,1.046,0.882,1.046c0.364,0,0.685-0.412,0.882-1.046c0.236,0.054,0.456,0.082,0.649,0.082
		c0.356,0,0.621-0.094,0.74-0.289c0.181-0.301-0.032-0.773-0.506-1.252C56.758,16.607,56.972,16.136,56.79,15.835z M54.52,15.923
		c-0.172-0.074-0.341-0.137-0.504-0.19c0.029-0.096,0.063-0.189,0.1-0.273c0.157-0.365,0.331-0.502,0.403-0.502
		c0.072,0,0.246,0.136,0.403,0.502c0.036,0.085,0.069,0.176,0.1,0.273C54.858,15.785,54.69,15.848,54.52,15.923z M52.988,18.251
		c-0.231,0-0.369-0.053-0.399-0.101c-0.036-0.06,0.001-0.27,0.253-0.584c0.058-0.073,0.125-0.146,0.196-0.219
		c0.129,0.108,0.271,0.216,0.424,0.322c0.018,0.18,0.045,0.351,0.08,0.512C53.342,18.226,53.154,18.251,52.988,18.251z
		 M54.923,18.713c-0.157,0.365-0.331,0.502-0.403,0.502c-0.072,0-0.246-0.136-0.403-0.502c-0.036-0.085-0.069-0.176-0.1-0.273
		c0.163-0.053,0.332-0.116,0.504-0.19c0.172,0.074,0.341,0.137,0.504,0.19C54.992,18.537,54.959,18.629,54.923,18.713z
		 M56.05,15.922L56.05,15.922c0.231,0,0.369,0.052,0.399,0.101c0.036,0.06-0.001,0.27-0.253,0.584
		c-0.058,0.073-0.125,0.146-0.196,0.219c-0.129-0.108-0.271-0.216-0.424-0.322c-0.018-0.18-0.045-0.351-0.08-0.512
		C55.696,15.947,55.884,15.922,56.05,15.922z M56.449,18.15c-0.029,0.048-0.167,0.101-0.399,0.101c-0.166,0-0.354-0.025-0.555-0.07
		c0.034-0.162,0.06-0.334,0.08-0.512c0.153-0.105,0.295-0.211,0.424-0.322c0.072,0.073,0.139,0.147,0.196,0.219
		C56.448,17.88,56.486,18.091,56.449,18.15z"/>
	<path d="M53.687,20.69c-0.247,0.623-0.862,1.063-1.584,1.063s-1.337-0.442-1.584-1.063h-0.572l-0.835,1.133v0.532h5.976v-0.516
		l-0.851-1.149H53.687z"/>
	<path d="M39.671,17.849c-0.14-0.06-0.294-0.089-0.462-0.089c-0.2,0-0.371,0.033-0.516,0.099c-0.145,0.066-0.263,0.154-0.356,0.263
		c-0.098,0.11-0.17,0.241-0.22,0.394c-0.048,0.153-0.073,0.314-0.073,0.483c0,0.283,0.049,0.519,0.15,0.707
		c0.099,0.189,0.296,0.34,0.589,0.455l0.485,0.19c0.083,0.034,0.152,0.066,0.203,0.095c0.052,0.029,0.092,0.068,0.122,0.115
		c0.027,0.047,0.045,0.108,0.053,0.184c0.009,0.076,0.014,0.173,0.014,0.293c0,0.102-0.004,0.194-0.009,0.276
		c-0.006,0.082-0.028,0.154-0.063,0.213c-0.035,0.06-0.085,0.105-0.15,0.136c-0.065,0.032-0.154,0.047-0.269,0.047
		c-0.173,0-0.296-0.047-0.369-0.143c-0.073-0.095-0.11-0.202-0.11-0.321v-0.203h-0.679v0.241c0,0.153,0.029,0.293,0.09,0.422
		c0.06,0.129,0.141,0.242,0.243,0.34c0.102,0.098,0.223,0.173,0.365,0.228c0.142,0.055,0.294,0.082,0.458,0.082
		c0.217,0,0.401-0.034,0.551-0.102c0.15-0.067,0.273-0.161,0.365-0.28c0.088-0.115,0.153-0.253,0.193-0.416
		c0.04-0.163,0.06-0.34,0.06-0.53c0-0.166-0.009-0.313-0.027-0.442c-0.018-0.129-0.052-0.244-0.099-0.345
		c-0.053-0.098-0.127-0.182-0.22-0.257c-0.093-0.074-0.215-0.139-0.365-0.194l-0.518-0.196c-0.088-0.034-0.159-0.067-0.209-0.102
		c-0.052-0.034-0.09-0.074-0.116-0.121c-0.027-0.047-0.043-0.099-0.049-0.159c-0.006-0.06-0.009-0.134-0.009-0.222
		c0-0.076,0.006-0.149,0.02-0.219c0.014-0.069,0.038-0.133,0.073-0.187c0.035-0.051,0.082-0.093,0.14-0.127
		c0.058-0.034,0.133-0.051,0.226-0.051c0.173,0,0.296,0.054,0.369,0.162c0.073,0.108,0.11,0.236,0.11,0.384v0.146h0.678v-0.32
		c0-0.263-0.102-0.496-0.305-0.698C39.931,17.985,39.811,17.908,39.671,17.849z"/>
	<polygon points="40.505,18.407 41.29,18.407 41.29,22.317 41.967,22.317 41.967,18.407 42.753,18.407 42.753,17.797 40.505,17.797 
			"/>
	<polygon points="43.051,22.317 45.072,22.317 45.072,21.67 43.729,21.67 43.729,20.342 44.899,20.342 44.899,19.733 43.729,19.733 
		43.729,18.407 45.072,18.407 45.072,17.797 43.051,17.797 	"/>
</g>
<g>
	<path d="M66.239,19.943c0.04,0.023,0.077,0.053,0.11,0.087c0.144,0.134,0.254,0.291,0.371,0.447c0.1,0.134,0.19,0.277,0.314,0.397
		c0.03,0.03,0.067,0.077,0.117,0.05c0.043-0.023,0.02-0.077,0.007-0.114c-0.037-0.114-0.093-0.224-0.154-0.327
		c-0.15-0.257-0.301-0.518-0.481-0.758c-0.104-0.134-0.237-0.224-0.417-0.237c-0.08-0.007-0.16,0-0.237,0
		c-0.311,0.01-0.598-0.053-0.865-0.21c-0.284-0.167-0.478-0.391-0.548-0.708c-0.047-0.207-0.04-0.417-0.013-0.624
		c0.013-0.097,0.027-0.19,0.04-0.291c0.003-0.03,0.013-0.07-0.027-0.083c-0.04-0.01-0.06,0.027-0.077,0.05
		c-0.027,0.04-0.047,0.087-0.06,0.13c-0.12,0.374-0.167,0.758-0.154,1.149c0.007,0.127,0.047,0.24,0.137,0.344
		c0.204,0.23,0.381,0.478,0.498,0.761c0.127,0.307,0.134,0.614-0.017,0.918c-0.07,0.14-0.144,0.277-0.217,0.414
		c-0.254,0.464-0.501,0.932-0.681,1.429c-0.07,0.187-0.127,0.377-0.144,0.574c-0.007,0.094-0.007,0.184,0.04,0.267
		c0.027,0.05,0.073,0.083,0.13,0.077c0.06-0.007,0.067-0.06,0.073-0.107c0.017-0.094,0.027-0.187,0.037-0.284
		c0.03-0.314,0.093-0.621,0.23-0.908c0.093-0.197,0.207-0.387,0.381-0.534c0.23-0.197,0.508-0.264,0.808-0.281
		c0.337-0.017,0.638,0.07,0.895,0.284c0.16,0.134,0.304,0.277,0.447,0.427c0.097,0.097,0.19,0.2,0.284,0.297
		c0.02,0.023,0.043,0.057,0.077,0.04c0.033-0.013,0.023-0.053,0.017-0.083c-0.01-0.07-0.053-0.124-0.1-0.18
		c-0.137-0.164-0.301-0.311-0.454-0.461c-0.224-0.217-0.417-0.457-0.564-0.731c-0.147-0.27-0.194-0.561-0.194-0.858
		c0-0.087,0.01-0.18,0.047-0.26C65.962,19.896,66.099,19.856,66.239,19.943z"/>
	<path d="M69.892,19.041c-0.224-0.114-0.468-0.16-0.718-0.167c-0.357-0.007-0.715-0.003-1.069-0.003c-0.05,0-0.06,0.013-0.06,0.06
		c0.003,0.478,0,0.955,0,1.433c0,0.481,0,0.962-0.003,1.439c0,0.05,0.017,0.063,0.067,0.06c0.2-0.003,0.397-0.003,0.598,0
		c0.05,0,0.06-0.013,0.06-0.06c0-0.307,0.007-0.611,0.003-0.918c0-0.05,0.017-0.057,0.06-0.047c0.237,0.05,0.474,0.06,0.715,0.017
		c0.244-0.043,0.461-0.144,0.628-0.324c0.14-0.154,0.21-0.337,0.227-0.541C70.437,19.609,70.283,19.245,69.892,19.041z
		 M69.548,20.11c-0.05,0.107-0.147,0.16-0.257,0.187c-0.15,0.037-0.307,0.033-0.461,0.02c-0.037-0.003-0.05-0.013-0.05-0.05
		c0.007-0.083,0.003-0.167,0.003-0.25c0.007,0,0.01,0,0.017,0c0-0.16,0-0.317,0-0.478c0-0.043,0.017-0.06,0.063-0.057
		c0.13,0.003,0.26,0.003,0.391,0.033C69.535,19.579,69.672,19.853,69.548,20.11z"/>
	<path d="M76.908,20.761c0-0.06-0.007-0.117-0.013-0.177c-0.043-0.287-0.227-0.491-0.511-0.541c-0.264-0.05-0.504,0.017-0.708,0.18
		c-0.033,0.027-0.05,0.033-0.08,0c-0.087-0.08-0.184-0.144-0.304-0.17c-0.297-0.063-0.571-0.01-0.811,0.17
		c-0.017,0.013-0.03,0.033-0.06,0.04c-0.013-0.043-0.027-0.087-0.037-0.134c-0.007-0.03-0.02-0.04-0.053-0.04
		c-0.117,0.003-0.237,0.003-0.354,0c-0.037,0-0.043,0.007-0.033,0.04c0.033,0.117,0.05,0.237,0.05,0.361
		c0.003,0.431,0.003,0.865,0,1.296c0,0.053,0.013,0.073,0.073,0.07c0.177-0.003,0.354-0.003,0.534,0c0.053,0,0.07-0.013,0.07-0.067
		c-0.003-0.364-0.003-0.728,0-1.089c0-0.023-0.007-0.053,0.027-0.07c0.097-0.053,0.197-0.087,0.304-0.037
		c0.1,0.05,0.12,0.14,0.124,0.237c0,0.017,0,0.033,0,0.05c0,0.307,0,0.611,0,0.918c0,0.04,0.013,0.057,0.057,0.057
		c0.187-0.003,0.374-0.003,0.561,0c0.04,0,0.05-0.007,0.05-0.047c-0.003-0.364,0.003-0.728-0.003-1.089c0-0.07,0.023-0.1,0.083-0.12
		c0.007-0.003,0.017-0.003,0.023-0.007c0.184-0.063,0.327,0.023,0.341,0.207c0.007,0.033,0.007,0.06,0.007,0.09
		c0,0.304,0,0.604,0,0.908c0,0.05,0.01,0.067,0.063,0.067c0.184-0.003,0.361-0.003,0.544,0c0.047,0,0.06-0.013,0.06-0.057
		C76.908,21.459,76.908,21.109,76.908,20.761z"/>
	<path d="M82.361,20.661c-0.017-0.294-0.207-0.518-0.504-0.601c-0.207-0.057-0.414-0.04-0.618,0.023
		c-0.053,0.017-0.063,0.003-0.06-0.043c0.007-0.197,0.013-0.394,0.017-0.591c0.007-0.214,0.017-0.427,0.037-0.638
		c0.003-0.043-0.013-0.043-0.043-0.043c-0.2,0.003-0.404,0.013-0.604,0.013c-0.053,0-0.07,0.013-0.07,0.067
		c0.003,0.491,0.003,0.982,0.003,1.476s0,0.988,0,1.479c0,0.05,0.017,0.06,0.063,0.06c0.184-0.003,0.361-0.003,0.544,0
		c0.047,0,0.06-0.01,0.06-0.057c0-0.354,0.003-0.708,0.007-1.062c0-0.107,0.003-0.11,0.11-0.144c0.033-0.01,0.07-0.02,0.104-0.023
		c0.137-0.013,0.254,0.063,0.284,0.19c0.007,0.033,0.013,0.07,0.013,0.107c0,0.311,0,0.621,0,0.932c0,0.033,0,0.057,0.05,0.057
		c0.194-0.003,0.381-0.003,0.574,0c0.033,0,0.047-0.01,0.047-0.04C82.368,21.432,82.381,21.048,82.361,20.661z"/>
	<path d="M73.445,20.164c-0.24-0.134-0.501-0.167-0.771-0.124c-0.801,0.13-1.052,0.942-0.691,1.479
		c0.2,0.297,0.508,0.407,0.865,0.414c0.023,0,0.05,0,0.073,0c0.027-0.003,0.05-0.003,0.077-0.007
		c0.284-0.033,0.528-0.144,0.711-0.354c0.18-0.21,0.234-0.454,0.197-0.718C73.863,20.551,73.719,20.317,73.445,20.164z
		 M73.185,21.202c-0.04,0.134-0.13,0.21-0.26,0.22c-0.167,0.013-0.291-0.043-0.347-0.177c-0.077-0.177-0.077-0.357,0.007-0.531
		c0.104-0.214,0.401-0.227,0.538-0.033c0.06,0.083,0.09,0.194,0.09,0.334C73.212,21.075,73.202,21.139,73.185,21.202z"/>
	<path d="M87.915,20.681c-0.007-0.167-0.06-0.317-0.187-0.441c-0.207-0.204-0.468-0.237-0.745-0.197
		c-0.184,0.03-0.347,0.104-0.498,0.234c-0.007-0.06-0.017-0.1-0.03-0.144c-0.007-0.03-0.023-0.04-0.053-0.04
		c-0.117,0.003-0.23,0.003-0.347,0c-0.033,0-0.05,0.007-0.04,0.04c0.05,0.187,0.057,0.381,0.057,0.571c0,0.367,0,0.735,0,1.102
		c0,0.043,0.013,0.053,0.057,0.053c0.184-0.003,0.371-0.003,0.558,0c0.05,0,0.06-0.017,0.06-0.06c-0.003-0.351,0-0.701,0-1.052
		c0-0.12,0-0.12,0.12-0.157c0.007-0.003,0.01-0.003,0.017-0.003c0.174-0.047,0.317,0.023,0.361,0.17
		c0.013,0.05,0.017,0.1,0.017,0.15c0,0.297,0,0.598,0,0.895c0,0.033,0.003,0.05,0.047,0.05c0.194-0.003,0.381-0.003,0.574,0
		c0.037,0,0.05-0.013,0.05-0.047C87.918,21.439,87.935,21.058,87.915,20.681z"/>
	<path d="M85.858,21.342c0.007-0.25,0.017-0.501,0.01-0.755c-0.007-0.25-0.144-0.434-0.381-0.511c-0.083-0.03-0.17-0.043-0.26-0.05
		c-0.257-0.017-0.511,0.01-0.761,0.057c-0.04,0.007-0.05,0.023-0.05,0.06c0.003,0.157,0.003,0.311,0,0.468
		c0,0.047,0.007,0.063,0.057,0.037c0.013-0.007,0.027-0.01,0.04-0.013c0.18-0.07,0.367-0.1,0.561-0.09
		c0.097,0.003,0.147,0.04,0.157,0.11c0.007,0.04-0.003,0.06-0.053,0.063c-0.17,0.013-0.334,0.047-0.491,0.114
		c-0.281,0.117-0.481,0.324-0.451,0.691c0.017,0.197,0.137,0.341,0.337,0.384c0.14,0.033,0.281,0.033,0.421,0
		c0.154-0.04,0.281-0.11,0.371-0.24c0.013-0.02,0.023-0.04,0.04-0.07c0.01,0.083,0.017,0.157,0.027,0.227
		c0.003,0.023,0.007,0.043,0.04,0.043c0.154,0,0.311,0,0.471,0C85.871,21.69,85.854,21.516,85.858,21.342z M85.003,21.436
		c-0.017,0.003-0.04,0.007-0.047,0.01c-0.104,0-0.15-0.06-0.127-0.15c0.013-0.053,0.05-0.09,0.094-0.12
		c0.08-0.05,0.17-0.073,0.26-0.097c0.02-0.003,0.037-0.007,0.04,0.023C85.237,21.235,85.133,21.396,85.003,21.436z"/>
	<path d="M84.118,21.476c0-0.05-0.003-0.104,0-0.154c0.003-0.05-0.013-0.05-0.057-0.033c-0.194,0.087-0.391,0.127-0.604,0.097
		c-0.2-0.027-0.331-0.147-0.347-0.321c-0.007-0.073-0.003-0.073,0.073-0.07c0.281,0.013,0.564,0.023,0.845,0.037
		c0.027,0,0.053,0.003,0.077-0.02c0.237-0.26,0.214-0.731-0.144-0.905c-0.174-0.083-0.361-0.097-0.548-0.077
		c-0.207,0.02-0.394,0.087-0.558,0.214c-0.237,0.187-0.354,0.434-0.374,0.721c-0.017,0.26,0.04,0.501,0.237,0.695
		c0.337,0.334,0.915,0.371,1.312,0.087c0.06-0.04,0.097-0.087,0.083-0.16C84.114,21.549,84.118,21.513,84.118,21.476z
		 M83.233,20.578c0.09-0.104,0.244-0.147,0.371-0.107c0.06,0.02,0.107,0.057,0.127,0.117c0.013,0.033,0.007,0.05-0.037,0.05
		c-0.127,0-0.25,0-0.374,0c0,0.003,0,0.01,0,0.013c-0.017,0-0.037,0-0.053,0c-0.027,0-0.06,0.013-0.073-0.007
		S83.213,20.598,83.233,20.578z"/>
	<path d="M78.364,20.057c-0.307-0.077-0.608-0.047-0.878,0.12c-0.371,0.23-0.504,0.574-0.468,0.985c0.017,0.2,0.1,0.381,0.257,0.521
		c0.347,0.314,0.915,0.334,1.299,0.053c0.053-0.04,0.083-0.08,0.073-0.147c-0.007-0.037,0-0.077,0-0.114c0-0.05-0.003-0.097,0-0.15
		c0.003-0.047-0.003-0.06-0.057-0.037c-0.19,0.087-0.391,0.13-0.604,0.097c-0.194-0.03-0.334-0.134-0.347-0.331
		c-0.007-0.053,0.007-0.067,0.06-0.06c0.257,0.013,0.514,0.023,0.768,0.033c0.164,0.007,0.184,0,0.257-0.144
		c0.003-0.003,0.007-0.01,0.007-0.013C78.875,20.571,78.785,20.164,78.364,20.057z M78.224,20.641c-0.06,0-0.124,0.003-0.184,0.003
		c-0.06,0.003-0.124,0.007-0.184,0.01l0,0c-0.03,0-0.06,0-0.09,0c-0.017,0-0.033,0.01-0.043-0.01
		c-0.007-0.013,0.007-0.023,0.013-0.037c0.08-0.127,0.26-0.187,0.404-0.137c0.057,0.02,0.1,0.053,0.117,0.114
		C78.274,20.624,78.267,20.641,78.224,20.641z"/>
	<path d="M79.897,20.571c0.144,0.007,0.287,0.007,0.431,0.013c0.043,0.003,0.06-0.01,0.06-0.053c-0.003-0.13-0.003-0.26,0-0.391
		c0-0.04-0.013-0.05-0.053-0.05c-0.14,0.003-0.281-0.003-0.427,0.003c-0.06,0.003-0.073-0.02-0.07-0.07
		c0.01-0.144,0.013-0.291,0.023-0.434c0.003-0.037-0.007-0.05-0.047-0.043c-0.204,0.023-0.407,0.043-0.611,0.063
		c-0.04,0.003-0.047,0.023-0.047,0.053c0.003,0.13,0,0.26,0.003,0.391c0,0.033-0.01,0.053-0.033,0.073
		c-0.06,0.057-0.134,0.097-0.217,0.12c-0.027,0.007-0.04,0.017-0.04,0.047c0.003,0.073,0.003,0.15,0,0.224
		c0,0.027,0.01,0.037,0.04,0.037c0.057-0.003,0.114,0,0.167,0c0.093,0,0.08-0.01,0.083,0.073c0.007,0.27-0.013,0.538,0.01,0.805
		c0.023,0.244,0.164,0.414,0.401,0.471c0.05,0.013,0.097,0.02,0.147,0.023c0.234,0.013,0.454-0.01,0.638-0.167
		c0.013-0.013,0.03-0.02,0.03-0.04c0-0.144,0-0.287,0-0.441c-0.11,0.073-0.227,0.107-0.347,0.104
		c-0.124-0.003-0.187-0.053-0.214-0.167c-0.007-0.03-0.007-0.057-0.007-0.087c-0.007-0.167,0.01-0.331,0.01-0.498
		C79.823,20.584,79.84,20.568,79.897,20.571z"/>
	<path d="M71.752,20.07c-0.244-0.07-0.457-0.013-0.655,0.134c-0.063,0.05-0.117,0.107-0.17,0.174
		c-0.013-0.087-0.03-0.164-0.057-0.237c-0.01-0.033-0.027-0.043-0.063-0.043c-0.107,0.003-0.217,0.003-0.324,0
		c-0.047,0-0.06,0.01-0.043,0.057c0.053,0.17,0.077,0.344,0.077,0.524c0.003,0.374,0.003,0.748,0,1.125
		c0,0.057,0.017,0.07,0.073,0.07c0.177-0.003,0.354-0.003,0.531,0c0.057,0.003,0.067-0.017,0.067-0.067
		c-0.003-0.331,0-0.661-0.003-0.995c0-0.033,0.01-0.057,0.04-0.077c0.073-0.043,0.15-0.07,0.234-0.077
		c0.117-0.01,0.227,0.013,0.337,0.083c0-0.217,0-0.424,0-0.628C71.796,20.08,71.772,20.077,71.752,20.07z"/>
	<path d="M65.658,19.365c0.314-0.017,0.634-0.341,0.638-0.641c0-0.22-0.17-0.361-0.401-0.314c-0.304,0.063-0.498,0.247-0.578,0.531
		C65.247,19.192,65.404,19.375,65.658,19.365z"/>
	<path d="M64.245,17.365c0.027,0.03,0.057,0.06,0.083,0.087c0.017,0.013,0.027,0.013,0.04,0.003c0.017-0.013,0-0.023-0.007-0.033
		c-0.007-0.007-0.013-0.013-0.017-0.023c-0.267-0.327-0.381-0.688-0.27-1.099c0.02-0.07,0.01-0.134-0.02-0.197
		c-0.053-0.117-0.11-0.234-0.14-0.364c-0.027-0.114-0.04-0.23-0.04-0.351c-0.02,0.01-0.02,0.023-0.027,0.04
		c-0.083,0.234-0.15,0.468-0.21,0.708c-0.06,0.227-0.017,0.434,0.114,0.628C63.895,16.981,64.065,17.178,64.245,17.365z"/>
	<path d="M64.175,15.789L64.175,15.789L64.175,15.789z"/>
	<path d="M64.219,15.842c0.077,0.077,0.167,0.144,0.25,0.214c0.073,0.06,0.14,0.124,0.187,0.207c0.05,0.09,0.047,0.124-0.033,0.19
		c-0.013,0.013-0.027,0.023-0.04,0.033c-0.127,0.114-0.234,0.24-0.234,0.414c-0.003,0.174,0.05,0.337,0.114,0.501
		c0.007,0.013,0.007,0.023,0.023,0.017c0.013-0.003,0.027-0.01,0.027-0.027c0-0.023,0-0.04-0.003-0.063
		c-0.007-0.187,0.067-0.341,0.217-0.461c0.073-0.06,0.16-0.107,0.25-0.144c0.05-0.023,0.067-0.047,0.06-0.1
		c-0.023-0.164-0.104-0.301-0.21-0.427c-0.17-0.197-0.414-0.287-0.641-0.404c0,0-0.003,0-0.007,0.003
		C64.182,15.809,64.202,15.826,64.219,15.842z"/>
	<path d="M64.212,16.146c0.037,0.07,0.047,0.134,0.027,0.207c-0.037,0.14-0.073,0.281-0.083,0.427
		c-0.01,0.244,0.104,0.444,0.24,0.638c0.007,0.013,0.017,0.027,0.033,0.013c0.017-0.01,0.003-0.023-0.003-0.033
		c-0.037-0.087-0.08-0.17-0.11-0.257c-0.06-0.16-0.093-0.324-0.02-0.491c0.043-0.097,0.117-0.177,0.184-0.257
		c0.06-0.07,0.06-0.097,0.017-0.174c-0.043-0.07-0.1-0.127-0.157-0.187c-0.147-0.15-0.304-0.291-0.394-0.481
		c0,0.067,0.023,0.124,0.05,0.184C64.055,15.876,64.139,16.009,64.212,16.146z"/>
	<polygon points="64.162,15.776 64.159,15.776 64.162,15.779 	"/>
	<path d="M64.165,15.779c0.003,0.003,0.007,0.007,0.01,0.01C64.175,15.779,64.169,15.779,64.165,15.779z"/>
	<polygon points="64.162,15.776 64.162,15.779 64.165,15.779 	"/>
	<path d="M64.175,15.789L64.175,15.789L64.175,15.789L64.175,15.789z"/>
</g>
<g id="XMLID_128_">
	<g id="XMLID_241_">
		<path id="XMLID_242_" d="M55.815,8.089c0,0.253-0.213,0.453-0.483,0.453s-0.486-0.2-0.486-0.453c0-0.253,0.216-0.451,0.489-0.451
			C55.602,7.64,55.815,7.838,55.815,8.089z M54.967,8.089c0,0.2,0.158,0.36,0.368,0.36c0.205,0.002,0.358-0.16,0.358-0.357
			c0-0.2-0.155-0.363-0.365-0.363C55.126,7.729,54.967,7.892,54.967,8.089z M55.257,8.323h-0.109V7.873
			c0.043-0.006,0.104-0.014,0.182-0.014c0.088,0,0.13,0.014,0.162,0.035c0.029,0.019,0.05,0.053,0.05,0.096
			c0,0.054-0.043,0.09-0.098,0.107v0.006c0.046,0.014,0.069,0.05,0.083,0.11c0.014,0.069,0.026,0.094,0.035,0.11h-0.115
			c-0.014-0.016-0.024-0.054-0.037-0.11c-0.008-0.046-0.037-0.069-0.098-0.069h-0.051C55.257,8.143,55.257,8.323,55.257,8.323z
			 M55.258,8.07h0.051c0.061,0,0.109-0.019,0.109-0.066c0-0.042-0.032-0.069-0.101-0.069c-0.029,0-0.05,0.002-0.061,0.006V8.07
			H55.258z"/>
	</g>
	<g id="XMLID_129_">
		<g id="XMLID_133_">
			<g>
				<path d="M52.304,4.335c-0.893-0.298-1.911-0.206-2.722,0.034l0.443,2.77L48.118,4.17l-1.894,3.592
					c-0.512-1.715-0.784-3.559-0.784-3.559l-1.625,2.588l-1.803-2.737l-0.304,2.791C41.698,6.817,41.69,6.8,41.69,6.8l-0.002-0.008
					c-0.018-0.035-0.045-0.082-0.058-0.104c-0.261-0.451-1.139-0.717-1.758-0.92c-1.572-0.513-1.092-1.043-0.24-1.169
					c0.595-0.09,1.268,0.013,1.694,0.266l0.218-0.606c-1.188-0.597-3.829-0.43-3.402,1.139c0.246,0.907,2.249,1.036,2.724,1.567
					c0.04,0.045,0.093,0.107,0.12,0.165c0.035,0.078,0.046,0.168,0.01,0.28c-0.006,0.016-0.014,0.072-0.026,0.094
					c-0.018,0.034-0.035,0.064-0.05,0.082c-0.304,0.366-0.912,0.381-1.47,0.315c-0.638-0.074-1.211-0.376-1.243-0.446l-0.269,0.645
					c1.009,0.521,2.927,0.83,3.644-0.131c0.003-0.003,0.005-0.006,0.008-0.011l-0.067,0.617l0.76-0.011l0.235-2.529l1.334,2.014
					l1.246-2.014c0,0,0.133,0.521,0.374,1.48c0.205,0.808,0.331,1.115,0.331,1.115l0.654-0.05l0.646-1.243h2.308l0.862,1.243
					l0.713-0.002L50.604,6.41c0.475,0.63,1.787,1.462,2.817,1.807l-0.069,0.376l0.747,0.016l0.656-3.7l1.579,0.016l0.24-0.6
					L52.304,4.335z M47.413,6.737l0.76-1.46l0.813,1.46H47.413z M50.466,5.61l-0.134-0.821c0.453-0.259,1.916-0.104,1.751,0.329
					C51.92,5.552,50.495,5.738,50.466,5.61z M53.533,7.64c-0.902-0.306-2.287-1.297-2.338-1.504c0.509-0.037,1.596-0.313,1.48-1.203
					l1.299,0.008L53.533,7.64z"/>
			</g>
		</g>
		<path id="XMLID_132_" d="M43.394,5.885"/>
		<path id="XMLID_131_" d="M43.394,5.885"/>
		<path id="XMLID_130_" d="M43.966,6.795"/>
	</g>
</g>
<g>
	<path d="M31.379,20.473c-0.126-0.464-0.431-0.768-0.905-0.916c-0.054-0.017-0.113-0.03-0.172-0.041
		c-0.026-0.004-0.033-0.015-0.033-0.039c0.004-0.168,0.009-0.335-0.017-0.5c-0.111-0.688-0.468-1.232-1.073-1.619
		c-0.44-0.283-0.931-0.405-1.46-0.379c-0.875,0.041-1.726,0.54-2.115,1.384c-0.118,0.255-0.185,0.524-0.205,0.803
		c0,0.009-0.004,0.022-0.004,0.03c0,0.081,0,0.161,0,0.242c0.009,0.067,0.015,0.133,0.024,0.2c0.054,0.394,0.213,0.751,0.461,1.068
		c0.35,0.442,0.805,0.733,1.369,0.866c0.572,0.135,1.123,0.072,1.656-0.165c0.061-0.03,0.059-0.03,0.098,0.022
		c0.054,0.07,0.113,0.139,0.17,0.211c0.011,0.015,0.017,0.033,0.017,0.05c-0.004,0.135-0.044,0.265-0.074,0.398
		c-0.004,0.022-0.009,0.041-0.013,0.063c-0.022,0.087,0.015,0.148,0.085,0.198c0.054,0.039,0.1,0.05,0.168,0.013
		c0.187-0.104,0.379-0.202,0.588-0.265c0.152-0.048,0.307-0.087,0.466-0.118c0.444-0.089,0.727-0.357,0.905-0.742
		c0.054-0.118,0.083-0.242,0.098-0.37c0.002-0.009,0.004-0.017,0.007-0.026c0-0.057,0-0.115,0-0.172
		C31.4,20.6,31.394,20.536,31.379,20.473z M27.177,17.908c0.085-0.183,0.189-0.353,0.339-0.494c0.054-0.052,0.12-0.083,0.2-0.081
		c0.091,0.002,0.185,0,0.279,0.007c0.033,0.002,0.07,0.015,0.098,0.033c0.098,0.063,0.176,0.146,0.239,0.242
		c0.067,0.102,0.124,0.213,0.183,0.32c0.024,0.044,0.017,0.048-0.03,0.057c-0.226,0.037-0.453,0.059-0.709,0.052
		c-0.165,0-0.357-0.017-0.546-0.046C27.142,17.984,27.14,17.984,27.177,17.908z M27.02,18.354c0.004-0.02,0.017-0.024,0.037-0.022
		c0.165,0.022,0.331,0.046,0.496,0.063c0.176,0.017,0.353,0.017,0.529,0.002c0.178-0.015,0.357-0.039,0.535-0.059
		c0.033-0.002,0.046,0.009,0.05,0.035c0.026,0.159,0.057,0.313,0.081,0.472c0.013,0.091,0.017,0.183,0.026,0.281
		c-0.625,0-1.245,0-1.867,0c0.004-0.063,0.007-0.124,0.013-0.185c0.017-0.187,0.048-0.372,0.094-0.555
		C27.013,18.376,27.016,18.365,27.02,18.354z M26.946,17.531c-0.004,0.011-0.011,0.022-0.015,0.033
		c-0.048,0.096-0.094,0.189-0.141,0.285c-0.022,0.046-0.024,0.046-0.07,0.03c-0.061-0.02-0.12-0.039-0.181-0.059
		c-0.011-0.002-0.022-0.009-0.037-0.017C26.639,17.69,26.785,17.601,26.946,17.531z M25.784,19.065
		c0.02-0.1,0.039-0.202,0.067-0.302c0.063-0.231,0.174-0.44,0.324-0.629c0.054-0.07,0.039-0.057,0.113-0.028
		c0.104,0.039,0.209,0.078,0.313,0.118c0.011,0.004,0.024,0.009,0.033,0.013c0.017,0.007,0.022,0.015,0.017,0.035
		c-0.048,0.202-0.089,0.407-0.107,0.614c-0.007,0.07-0.011,0.137-0.017,0.207c0,0.011-0.002,0.022-0.004,0.033
		c-0.011,0.002-0.017,0.002-0.026,0.002c-0.22-0.002-0.44-0.002-0.659-0.002c-0.004,0-0.009,0-0.013,0
		C25.777,19.12,25.771,19.115,25.784,19.065z M26.245,20.519c-0.024,0.011-0.035,0.004-0.048-0.015
		c-0.22-0.296-0.368-0.62-0.416-0.981c-0.002-0.011-0.002-0.022-0.004-0.037c0.25,0,0.501,0,0.755,0c0,0.039-0.002,0.076,0,0.113
		c0.017,0.244,0.054,0.483,0.118,0.722c0.009,0.033-0.011,0.039-0.033,0.048c-0.1,0.039-0.2,0.078-0.298,0.118
		C26.293,20.499,26.267,20.508,26.245,20.519z M26.506,20.813c0.007-0.007,0.011-0.011,0.013-0.013
		c0.076-0.028,0.148-0.057,0.224-0.085c0.02-0.009,0.03,0,0.039,0.017c0.022,0.046,0.041,0.091,0.065,0.135
		c0.037,0.07,0.074,0.141,0.111,0.211C26.794,21.011,26.648,20.922,26.506,20.813z M28.513,20.658
		c-0.096,0.2-0.205,0.39-0.372,0.544c-0.048,0.046-0.1,0.07-0.17,0.07c-0.102-0.002-0.202,0.002-0.305,0
		c-0.017,0-0.035-0.007-0.048-0.015c-0.131-0.076-0.22-0.189-0.298-0.311c-0.054-0.087-0.102-0.183-0.15-0.274
		c-0.007-0.011-0.011-0.024-0.017-0.044c0.457-0.078,0.912-0.081,1.367,0C28.517,20.643,28.517,20.652,28.513,20.658z
		 M28.667,20.204c-0.017,0.07-0.022,0.074-0.098,0.063c-0.081-0.011-0.161-0.03-0.242-0.033c-0.187-0.009-0.376-0.015-0.566-0.017
		c-0.183-0.002-0.368,0.002-0.551,0.028c-0.05,0.009-0.098,0.015-0.148,0.026c-0.03,0.007-0.044-0.002-0.05-0.03
		c-0.026-0.128-0.054-0.259-0.076-0.39c-0.017-0.107-0.022-0.215-0.033-0.324c-0.002-0.011,0-0.022,0-0.037c0.625,0,1.24,0,1.863,0
		c-0.007,0.072-0.009,0.141-0.017,0.211c-0.026,0.163-0.052,0.324-0.078,0.485C28.672,20.19,28.669,20.197,28.667,20.204z
		 M28.713,21.083c0.002-0.007,0.004-0.011,0.007-0.015c0.024-0.041,0.048-0.081,0.074-0.128
		C28.828,21.026,28.807,21.065,28.713,21.083z M28.935,17.886c-0.017,0.007-0.033,0.002-0.041-0.015
		c-0.052-0.107-0.104-0.213-0.154-0.32c-0.002-0.002-0.002-0.007-0.004-0.015c0.154,0.074,0.296,0.157,0.431,0.265
		c-0.039,0.017-0.072,0.033-0.104,0.046C29.022,17.86,28.978,17.873,28.935,17.886z M29.055,18.228
		c0.126-0.048,0.252-0.096,0.379-0.146c0.02-0.009,0.03-0.007,0.044,0.011c0.22,0.281,0.35,0.596,0.405,0.942
		c0.004,0.024,0.004,0.048,0.009,0.074c0,0.004-0.002,0.009-0.002,0.015c-0.246,0-0.492,0-0.74,0
		c-0.017-0.298-0.052-0.59-0.128-0.883C29.031,18.236,29.042,18.232,29.055,18.228z M29.109,19.918
		c0.013-0.141,0.026-0.285,0.039-0.429c0.246,0,0.49,0,0.736,0c0.002,0.004,0.002,0.009,0.004,0.013
		c-0.017,0.009-0.039,0.015-0.057,0.022c-0.065,0.02-0.133,0.033-0.198,0.057c-0.165,0.061-0.311,0.152-0.44,0.268
		c-0.026,0.022-0.052,0.046-0.076,0.067C29.116,19.918,29.111,19.918,29.109,19.918z M30.837,21.287
		c-0.046,0.057-0.098,0.111-0.152,0.161c-0.098,0.089-0.213,0.148-0.344,0.172c-0.246,0.046-0.474,0.139-0.701,0.239
		c-0.028,0.013-0.057,0.024-0.087,0.037c0.004-0.078,0.007-0.155,0.011-0.231c0.007-0.102-0.033-0.183-0.109-0.255
		c-0.109-0.1-0.198-0.218-0.246-0.357c-0.172-0.496,0.091-1.001,0.594-1.153c0.557-0.17,1.132,0.159,1.223,0.725
		C31.065,20.874,30.989,21.091,30.837,21.287z"/>
	<polygon points="11.143,20.974 12.273,20.974 12.273,20.471 11.143,20.471 11.143,19.67 12.469,19.67 12.469,19.17 10.486,19.17 
		10.486,22.382 12.473,22.382 12.473,21.881 11.143,21.881 	"/>
	<polygon points="14.516,21.218 14.501,21.222 13.474,19.17 12.815,19.17 12.815,22.382 13.474,22.382 13.474,20.334 13.487,20.328 
		14.516,22.382 15.169,22.382 15.169,19.17 14.516,19.17 	"/>
	<polygon points="16.34,19.17 15.683,19.17 15.683,22.382 17.569,22.382 17.569,21.881 16.34,21.881 	"/>
	<polygon points="17.615,22.658 18.087,22.658 19.09,19.17 18.614,19.17 	"/>
	<polygon points="20.048,20.974 21.177,20.974 21.177,20.471 20.048,20.471 20.048,19.67 21.371,19.67 21.371,19.17 19.388,19.17 
		19.388,22.382 21.377,22.382 21.377,21.881 20.048,21.881 	"/>
	<polygon points="22.376,19.17 21.717,19.17 21.717,22.382 23.606,22.382 23.606,21.881 22.376,21.881 	"/>
	<polygon points="24.594,19.17 23.934,19.17 23.934,22.382 25.821,22.382 25.821,21.881 24.594,21.881 	"/>
</g>
</svg>
