<?xml version="1.0" encoding="utf-8"?>
<!-- Generator: Adobe Illustrator 23.0.4, SVG Export Plug-In . SVG Version: 6.00 Build 0)  -->
<svg version="1.1" id="Capa_1" xmlns="http://www.w3.org/2000/svg" xmlns:xlink="http://www.w3.org/1999/xlink" x="0px" y="0px"
	 viewBox="0 0 50 50" style="enable-background:new 0 0 50 50;" xml:space="preserve">
<g>
	<path d="M27.529,32.382V14.27c0-0.534-0.437-0.971-0.971-0.971H1.952c-0.534,0-0.971,0.437-0.971,0.971v18.112
		c0,0.534,0.437,0.971,0.971,0.971h24.606C27.092,33.353,27.529,32.916,27.529,32.382z M25.529,31.353H2.981V15.299h22.548V31.353z"
		/>
	<path d="M30.499,34.017V15.904c0-0.552-0.447-1-1-1s-1,0.448-1,1l0.029,18.083H3.922c-0.552,0-1,0.447-1,1s0.448,1,1,1h24.606
		C29.615,35.987,30.499,35.104,30.499,34.017z"/>
	<path d="M32.188,16.147c-0.553,0-1,0.448-1,1V36.31c0,0.148-0.06,0.231-0.021,0.237H5.55c-0.552,0-1,0.447-1,1s0.448,1,1,1h25.625
		c1.109,0,2.012-1.004,2.012-2.237V17.147C33.188,16.595,32.74,16.147,32.188,16.147z"/>
	<path d="M11.712,28.669c0.222,0.119,0.465,0.178,0.708,0.178c0.291,0,0.581-0.085,0.832-0.252l6.031-4.021
		c0.417-0.278,0.668-0.747,0.668-1.248s-0.25-0.97-0.668-1.248l-6.031-4.021c-0.46-0.307-1.051-0.336-1.54-0.075
		c-0.487,0.261-0.792,0.77-0.792,1.323v8.041C10.92,27.899,11.225,28.408,11.712,28.669z M13.92,22.108l1.827,1.218l-1.827,1.218
		V22.108z"/>
</g>
</svg>
