<?xml version="1.0" encoding="utf-8"?>
<!-- Generator: Adobe Illusarator 24.1.2, SVG Export Plug-In . SVG Version: 6.00 Build 0)  -->
<svg version="1.1" xmlns="http://www.w3.org/2000/svg" xmlns:xlink="http://www.w3.org/1999/xlink" x="0px"
	 y="0px" viewBox="0 0 504 432" style="enable-background:new 0 0 504 432;" xml:space="preserve">
<style type="text/css">
	.sa0{fill:#F5A41C;}
	.sa1{fill:#FFE400;}
	.sa2{fill:#7BC47D;}
	.sa3{fill:#2AC4F3;}
	.sa4{fill:#F072AB;}
	.sa5{fill:#FFFFFF;}
	.sa6{fill:#231F20;}
	.sa7{fill:#C8CACB;}
	.sa8{fill:#E8C7AB;}
	.sa9{fill:#8B8CC4;}
	.sa10{fill:#002E64;}
	.sa11{fill:#5C321F;}
	.sa12{fill:#E0D94E;}
	.sa13{opacity:0.4;}
	.sa14{fill:#300940;}
	.sa15{fill:#008388;}
	.sa16{fill:#D6EFFB;}
	.sa17{fill:#B48979;}
	.sa18{fill:#5C0000;}
	.sa19{fill:#543F46;}
	.sa20{fill:#38414F;}
	.sa21{fill:none;}
	.sa22{opacity:0.4;fill:#300940;enable-background:new    ;}
</style>
<g>
	<g id="smartboardcontent1">
		<g>
			<rect x="-97.29" y="194.653" class="sa0" width="51.281" height="51.281"/>
		</g>
		<g>
			<rect x="-401.823" y="43.24" class="sa1" width="51.281" height="51.281"/>
		</g>
		<g>
			<rect x="-410.088" y="132.895" class="sa1" width="185.909" height="14.203"/>
		</g>
		<g>
			<rect x="-410.088" y="157.634" class="sa1" width="185.909" height="14.203"/>
		</g>
		<g>
			<rect x="-410.088" y="201.032" class="sa2" width="185.909" height="14.203"/>
		</g>
		<g>
			<rect x="-410.088" y="225.77" class="sa2" width="185.909" height="14.203"/>
		</g>
		<g>
			<rect x="-208.32" y="132.208" class="sa3" width="51.281" height="51.281"/>
		</g>
		<g>
			<rect x="-208.32" y="193.527" class="sa4" width="51.281" height="51.281"/>
		</g>
		<g>
			<rect x="-78.441" y="149.225" class="sa3" width="31.704" height="31.704"/>
		</g>
		<g>
			<rect x="-207.586" y="86.29" class="sa0" width="31.704" height="31.704"/>
		</g>
	</g>
	<g id="smartboardcontent2">
		<g>
			<rect x="228.506" y="90.411" class="sa2" width="31.704" height="31.704"/>
		</g>
		<g>
			<g>
				<rect x="275.034" y="129.161" class="sa0" width="51.281" height="51.281"/>
			</g>
			<g>
				<rect x="207.894" y="192.964" class="sa0" width="51.281" height="51.281"/>
			</g>
			<g>
				<rect x="275.034" y="69.146" class="sa1" width="51.281" height="51.281"/>
			</g>
			<g>
				<rect x="388.84" y="203.664" class="sa1" width="51.281" height="51.281"/>
			</g>
			<g>
				<rect x="207.894" y="129.161" class="sa3" width="51.281" height="51.281"/>
			</g>
			<g>
				<rect x="60.013" y="104.238" class="sa3" width="51.281" height="51.281"/>
			</g>
			<g>
				<rect x="60.013" y="203.664" class="sa4" width="51.281" height="51.281"/>
			</g>
			<g>
				<rect x="60.013" y="43.505" class="sa2" width="51.281" height="51.281"/>
			</g>
			<g>
				<rect x="408.416" y="43.505" class="sa3" width="31.704" height="31.704"/>
			</g>
			<g>
				<rect x="228.506" y="51.662" class="sa4" width="31.704" height="31.704"/>
			</g>
		</g>
	</g>
</g>
<g>
	<g>
		<polygon class="sa5" points="504,0 0,0 0,273.905 42.449,273.905 42.449,23.798 462.874,23.798 462.874,273.905 504,273.905 		"/>
	</g>
	<g>
		<g>
			<g>
				<circle class="sa6" cx="441.086" cy="388.426" r="4.549"/>
			</g>
			<g>
				<circle class="sa6" cx="476.717" cy="388.426" r="4.549"/>
			</g>
			<g>
				<g>
					<rect x="455.638" y="184.472" class="sa7" width="6.469" height="200.359"/>
				</g>
				<g>
					<path class="sa6" d="M462.461,385.184c-2.236,0.087-4.548,0.152-6.822,0.146l-0.498-0.001l-0.002-0.499l-0.177-50.09
						l-0.079-50.09l-0.04-25.045l0.063-25.045c0.044-16.697,0.066-33.393,0.233-50.09l0.005-0.5h0.495h6.469h0.498l0.002,0.5
						l0.19,50.221l0.025,50.254l-0.017,50.268l-0.022,25.132l-0.014,12.565l-0.008,6.282l-0.004,3.141
						C462.711,383.337,462.905,384.58,462.461,385.184z M461.754,384.477c-0.444-1.483-0.25-2.327-0.296-3.412l-0.004-3.12
						l-0.008-6.24l-0.014-12.48l-0.022-24.957l-0.017-49.912l0.025-49.925l0.19-49.958l0.5,0.5h-6.469l0.5-0.5
						c0.166,16.697,0.189,33.393,0.233,50.09l0.063,25.045l-0.04,25.045l-0.079,50.09l-0.177,50.09l-0.5-0.5
						C457.676,384.325,459.677,384.39,461.754,384.477z"/>
				</g>
			</g>
			<g>
				<g>
					<rect x="432.614" y="379.131" class="sa7" width="52.517" height="5.699"/>
				</g>
				<g>
					<path class="sa6" d="M485.875,385.574c-17.813,0.057-35.646-0.05-53.26-0.244l-0.48-0.005l-0.02-0.495l-0.23-5.699l-0.03-0.734
						l0.76,0.003l52.517,0.231l0.452,0.002l0.048,0.498C485.824,381.14,485.932,383.367,485.875,385.574z M484.388,384.087
						c-0.057-1.592,0.05-3.165,0.244-4.955l0.5,0.5l-52.517,0.23l0.73-0.73l-0.23,5.699l-0.5-0.5
						C450.011,384.137,467.189,384.03,484.388,384.087z"/>
				</g>
			</g>
		</g>
		<g>
			<g>
				<circle class="sa6" cx="29.342" cy="388.426" r="4.549"/>
			</g>
			<g>

					<ellipse transform="matrix(0.9939 -0.1104 0.1104 0.9939 -42.4976 9.5508)" class="sa6" cx="64.975" cy="388.438" rx="4.549" ry="4.549"/>
			</g>
			<g>
				<g>
					<rect x="43.894" y="184.472" class="sa7" width="6.469" height="200.359"/>
				</g>
				<g>
					<path class="sa6" d="M50.717,385.184c-2.236,0.087-4.548,0.152-6.822,0.146l-0.498-0.001l-0.002-0.499l-0.177-50.09
						l-0.079-50.09l-0.04-25.045l0.063-25.045c0.044-16.697,0.066-33.393,0.233-50.09l0.005-0.5h0.495h6.469h0.498l0.002,0.5
						l0.19,50.221l0.025,50.254l-0.017,50.268l-0.022,25.132l-0.014,12.565l-0.008,6.282l-0.004,3.141
						C50.967,383.337,51.161,384.58,50.717,385.184z M50.01,384.477c-0.444-1.483-0.25-2.327-0.296-3.412l-0.004-3.12l-0.008-6.24
						l-0.014-12.48l-0.022-24.957l-0.017-49.912l0.025-49.925l0.19-49.958l0.5,0.5h-6.469l0.5-0.5
						c0.166,16.697,0.189,33.393,0.233,50.09l0.063,25.045l-0.04,25.045l-0.079,50.09l-0.177,50.09l-0.5-0.5
						C45.932,384.325,47.933,384.39,50.01,384.477z"/>
				</g>
			</g>
			<g>
				<g>
					<rect x="20.87" y="379.131" class="sa7" width="52.517" height="5.699"/>
				</g>
				<g>
					<path class="sa6" d="M74.131,385.574c-17.813,0.057-35.646-0.05-53.26-0.244l-0.48-0.005l-0.02-0.495l-0.23-5.699l-0.03-0.734
						l0.76,0.003l52.517,0.231l0.452,0.002l0.048,0.498C74.08,381.14,74.187,383.367,74.131,385.574z M72.644,384.087
						c-0.057-1.592,0.05-3.165,0.244-4.955l0.5,0.5l-52.517,0.23l0.73-0.73l-0.23,5.699l-0.5-0.5
						C38.267,384.137,55.445,384.03,72.644,384.087z"/>
				</g>
			</g>
		</g>
		<path class="sa6" d="M42.449,23.798v250.107h420.425V23.798H42.449z M455.065,265.974H50.621V31.73h404.444V265.974z"/>
	</g>
	<g>
		<g>
			<g>
				<path class="sa8" d="M156.24,101.592c-0.266,0.036-0.533,0.061-0.807,0.056c-1.729-0.033-3.312,0.313-5.016,0.558
					c-1.172,0.168-2.322,0.45-3.463,0.76c-0.974,0.265-1.842,0.273-2.832,0.421c-2.626,0.392-5.593,1.015-7.89,2.4
					c-4.189,2.527-9.005,3.791-13.156,6.436c-3.967,2.527-7.022,6.369-9.022,10.594c-2.696,5.695-3.635,12.062-4.012,18.351
					c-0.126,2.089-0.191,4.205,0.229,6.255c0.505,2.463,1.688,4.727,2.858,6.953c1.749,3.33,3.499,6.659,5.248,9.989
					c0.916,1.743,1.852,3.514,3.236,4.914c1.476,1.493,3.374,2.478,5.173,3.562c3.933,2.371,7.518,5.318,10.604,8.719
					c0.701,0.773,1.521,1.504,2.174,2.312c0.487,0.602,0.79,1.14,1.587,1.416c0.562,0.195,1.172,0.188,1.767,0.184
					c1.993-0.013,3.986,0.042,5.975,0.162c1.8,0.109,3.639,0.48,5.426,0.307c0.392-0.038,0.362,0.025,0.654,0.153
					c1.151,0.5,2.508,0.501,3.66,0.004c-0.711-1.479-1.384-2.966-1.528-4.62c-0.151-1.724,0.916-1.44,2.258-1.69
					c2.274-0.425,4.385-0.761,6.69-1.101c2.569-0.38,5.166-1.034,7.303-2.578c0.822-0.594,1.554-1.303,2.282-2.01
					c1.653-1.604,2.939-3.456,4.542-5.058c2.841-4.068,4.308-8.921,5.529-13.676c0.569-2.217,1.207-4.469,1.549-6.74
					c0.079-0.526,0.146-1.058,0.313-1.563c0.469-1.413,1.743-2.782,3.105-3.329c1.538-0.618,2.1-2.171,1.357-3.691
					c-0.388-0.793-1.216-1.62-2.188-1.424c0.776-4.88-2.012-9.673-1.93-14.614c0.014-0.86,0.12-1.733,0.468-2.52
					c0.822-1.86,1.862-2.958,1.654-5.113c-0.19-1.962-1.019-4.034-2.096-5.675c-0.792-1.208-1.996-1.617-3.281-2.158
					c-2.497-1.05-4.982-2.131-7.471-3.203c-2.439-1.043-5.143-2.414-7.843-2.203c-1.404,0.11-2.897-0.371-4.279-0.62
					c-1.546-0.278-3.093-0.548-4.641-0.81c-0.888-0.15-1.788-0.301-2.692-0.287C157.214,101.425,156.729,101.526,156.24,101.592z"/>
			</g>
			<g>
				<path class="sa8" d="M245.383,171.151c1.241-1.282,2.177-2.658,3.068-4.203c0.157-0.272,0.315-0.548,0.392-0.852
					c0.883-3.5-1.995-6.695-3.253-9.771c-0.594-1.451-0.587-3.34-0.498-4.879c0.092-1.603,1.212-2.969,1.541-4.541
					c0.154-0.735-0.024-1.544-0.34-2.219c-0.205-0.436-0.484-0.832-0.763-1.226c-0.232-0.328-0.473-0.664-0.813-0.877
					c-0.722-0.452-1.658-0.231-2.477,0.005c-1.9,0.546-3.342,1.301-4.816,2.666c-0.707,0.655-1.322,1.401-1.935,2.144
					c-1.353,1.642-2.723,3.271-4.061,4.926c-1.114,1.378-2.034,2.935-3.174,4.328c-1.064,1.3-2.23,2.517-3.283,3.83
					c-0.079,0.098-0.161,0.209-0.153,0.335c0.026,0.404,0.804,0.86,1.075,1.083c2.036,1.678,4.03,3.638,5.527,5.823
					c0.76,1.109,1.86,2.704,1.98,4.082c0.11,1.264-0.288,2.097,0.794,3.131c0.373,0.356,0.789,0.699,1.29,0.819
					c0.54,0.129,1.107-0.019,1.627-0.212c1.796-0.665,3.76-1.541,5.351-2.615C243.423,172.277,244.549,172.012,245.383,171.151z"/>
			</g>
			<g>
				<path class="sa9" d="M156.2,292.173c2.957-0.158,6.022-0.307,8.834-1.321c2.833-1.022,5.555-2.218,8.315-3.41
					c0.843-0.364,2.172-0.774,2.487-1.755c0.31-0.963-0.414-2.292-0.739-3.142c-1.541-4.037-2.46-8.317-3.368-12.533
					c-0.243-1.128-0.41-2.295-0.547-3.598c-0.671-6.393-0.895-12.833-0.673-19.258c0.254-7.333,0.45-15.833,2.917-22.81
					c2.04-5.771,6.614-7.524,11.986-8.941c4.804-1.267,8.926-4.872,13.142-7.527c3.261-2.053,6.694-3.818,9.967-5.851
					c1.622-1.008,3.195-2.084,4.686-3.278c1.546-1.237,3.497-2.07,5.138-3.226c1.614-1.137,3.151-2.379,4.686-3.62
					c1.133-0.916,2.266-1.832,3.354-2.801c1.179-1.05,2.188-2.221,3.265-3.346c1.011-1.056,2.226-1.895,3.214-2.996
					c1.866-2.08,3.716-4.757,3.835-7.648c0.132-3.19-3.96-9.918-6.566-11.679c-0.715-0.483-8.679-3.304-8.88-1.888
					c-0.247,1.742-3.133,3.569-4.309,5.047c-8.288,10.418-18.952,18.038-32.065,20.334c-10.545,1.846-21.375,0.005-31.866-1.321
					c-2.182-0.276-4.644,0.155-6.859,0.25c-0.959,0.041-1.931,0.082-2.869-0.124c-1.335-0.293-2.099,0.093-3.405,0.195
					c-1.414,0.11-2.843,0.083-4.227-0.255c-3.944-0.966-5.91-5.045-10.161-4.617c-7.541,0.76-14.857,7.425-18.172,13.871
					c-2.377,4.623-3.346,9.818-4.396,14.909c-0.569,2.761-1.904,5.832-1.885,8.546c0.008,1.19-0.819,1.778-1.36,2.706
					c-0.393,0.673-0.617,1.499-0.964,2.212c-0.938,1.93-1.966,3.815-2.931,5.732c-1.877,3.73-3.631,7.71-3.699,11.957
					c-0.009,0.586,0.009,1.209,0.329,1.7c0.812,1.246,4.874,3.293,6.324,3.637c4.254,1.009,7.489,1.038,11.743,2.047
					c0.529,0.126,2.074,0.238,2.513,0.559c1.259,0.923,1.088,3.825,0.764,5.353c-1.331,6.282-1.715,12.526-3.349,18.694
					c-1.61,6.076-1.975,11.587-5.467,17.114c6.422,2.148,12.201,2.724,18.933,2.738c5.354,0.011,10.89,1.882,16.232,1.072
					C145.465,293.09,150.676,292.468,156.2,292.173z"/>
			</g>
			<g>
				<path class="sa10" d="M124.898,402.675c2.661-0.032,5.387-0.322,7.769-1.509c0.474-0.236,1.146-0.465,1.449-0.03
					c0.117,0.168,0.127,0.384,0.163,0.585c0.168,0.938,0.96,1.668,1.843,2.025c4.178,1.692,8.587,0.365,12.701,1.896
					c4.141,1.54,8.727,1.064,13.04,0.827c2.137-0.117,4.272,0.112,6.408,0.045c1.89-0.059,3.785,0.03,5.624-0.518
					c0.13-0.039,0.263-0.082,0.362-0.175c0.129-0.121,0.176-0.304,0.21-0.477c0.352-1.795,0.239-3.937,0.137-5.757
					c-0.096-1.714,0.612-3.33,1.421-4.831c1.209-2.242,2.862-3.913,4.481-5.841c0.238-0.283,0.481-0.576,0.594-0.928
					c0.162-0.507,0.032-1.056-0.101-1.571c-0.708-2.75-1.465-5.487-2.27-8.21c-0.294-0.996-0.653-2-1.004-3.01
					c-0.538-1.549-1.059-3.11-1.301-4.671c-0.437-2.817-0.996-5.614-1.585-8.402c-0.575-2.725-1.207-5.437-1.781-8.162
					c-0.287-1.364-0.557-2.731-0.805-4.103c-0.185-1.027-0.58-1.932-0.753-2.965c-0.903-5.379-1.681-10.779-2.333-16.194
					c-0.67-5.563-1.547-11.082-1.458-16.699c0.04-2.54,0.529-5.27,0.074-7.752c-0.495-2.698-0.358-5.708-0.376-8.444
					c-0.017-2.72,0.079-5.444,0.353-8.151c-0.104,1.022-9.573,2.487-10.919,2.616c-4.355,0.418-8.738,0.634-13.111,0.736
					c-5.096,0.119-10.2,0.089-15.288-0.236c-2.527-0.162-5.067-0.365-7.574-0.724c-1.043-0.149-2.008,0.174-3.073,0.18
					c-1.104,0.006-2.21-0.186-3.244-0.574c-0.314-0.118-0.682-0.249-0.967-0.072c-0.341,0.212-0.324,0.704-0.268,1.101
					c0.617,4.366,1.024,8.761,1.22,13.166c0.037,0.825,0.201,1.599,0.269,2.404c0.087,1.021-0.167,2.166-0.26,3.186
					c-0.188,2.054-0.377,4.111-0.411,6.174c-0.063,3.779-0.353,7.55-0.71,11.311c-0.314,3.309,0.02,6.586-0.594,9.88
					c-1.235,6.635-2.386,13.29-3.143,19.999c-0.465,4.117-0.782,8.255-1.495,12.337c-0.911,5.213-2.461,10.28-3.686,15.421
					c-0.497,2.086-0.698,4.313-1.351,6.353c-0.54,1.689-1.091,3.322-1.355,5.094c-0.097,0.653-0.157,1.361,0.17,1.934
					c0.378,0.663,1.164,0.961,1.898,1.17c2.289,0.654,4.373,0.799,6.723,0.812c2.071,0.011,4.049,0.518,6.085,0.744
					C119.381,402.964,122.181,402.708,124.898,402.675z"/>
			</g>
			<g>
				<path class="sa11" d="M185.624,389.566c-0.029-0.018-0.059-0.035-0.088-0.053c-1.04-0.615-2.317-1.244-3.522-1.401
					c-0.108-0.014-0.219-0.025-0.323,0.007c-0.125,0.038-0.223,0.133-0.316,0.224c-0.763,0.749-1.636,1.416-2.356,2.197
					c-1.091,1.182-1.766,2.681-2.357,4.178c-0.635,1.61-1.193,3.251-1.671,4.915c-0.52,1.811-0.615,3.381-0.639,5.26
					c-0.003,0.202,0.001,0.423,0.131,0.577c0.082,0.097,0.202,0.153,0.32,0.2c1.112,0.437,2.353,0.316,3.541,0.188
					c1.654-0.178,3.416-0.171,4.993-0.683c1.601-0.52,3.381-0.582,5.064-0.579c0.018,0,0.829-3.717,0.909-4.032
					c0.569-2.236,1.023-4.138,0.159-6.322C188.716,392.339,187.384,390.635,185.624,389.566z"/>
			</g>
			<g>
				<path class="sa6" d="M147.767,185.157c5.229-0.411,10.464-0.358,15.675-0.083c5.208,0.28,10.394,0.855,15.498,0.954
					c0.638,0.011,1.276,0.019,1.911,0.009l0.985-0.006l0.935-0.013c1.22-0.033,2.44-0.171,3.652-0.399
					c2.428-0.438,4.807-1.236,7.097-2.24c4.593-2.025,8.765-4.968,12.658-8.296c3.902-3.32,7.521-6.989,11.043-10.787l2.666-2.865
					l0.69-0.721l0.175-0.181c0.114-0.105,0.229-0.215,0.354-0.304c0.249-0.18,0.519-0.324,0.781-0.416
					c1.069-0.363,1.947-0.226,2.717-0.07c1.536,0.361,2.794,1.025,3.992,1.76c1.186,0.747,2.279,1.601,3.294,2.54
					c2.013,1.885,3.78,4.102,4.871,6.789c0.534,1.34,0.875,2.818,0.842,4.347c-0.026,1.526-0.478,3.071-1.254,4.374
					c-0.185,0.322-0.416,0.654-0.614,0.926l-0.597,0.801c-0.401,0.531-0.814,1.053-1.23,1.571c-0.837,1.033-1.705,2.038-2.597,3.019
					c-1.786,1.96-3.684,3.809-5.65,5.571c-7.89,7.036-16.796,12.724-26.004,17.694c-4.612,2.48-9.322,4.766-14.089,6.906
					c-2.379,1.073-4.791,2.099-7.162,3.129l-0.871,0.39l-0.403,0.194l-0.163,0.087c-0.005,0.005-0.009,0.007-0.016,0.009
					c-0.032,0.022,0.098-0.072,0.127-0.12c0.062-0.08,0.082-0.129,0.056-0.082c-0.314,0.517-0.616,1.049-0.879,1.61
					c-0.54,1.114-0.984,2.296-1.374,3.501c-1.54,4.841-2.326,9.979-2.839,15.109c-0.497,5.142-0.673,10.324-0.588,15.5
					c0.092,5.175,0.438,10.354,1.185,15.469c0.378,2.555,0.854,5.098,1.524,7.581c0.686,2.463,1.511,4.943,2.905,7.017v0.001
					l0.287,0.427l-0.423,0.281c-2.602,1.726-5.473,2.956-8.392,3.949c-2.926,0.99-5.924,1.725-8.942,2.32
					c-6.041,1.178-12.168,1.797-18.299,2.097c-6.134,0.29-12.282,0.264-18.424-0.116c-3.072-0.194-6.142-0.474-9.214-0.917
					c-1.537-0.225-3.073-0.492-4.619-0.853c-0.773-0.181-1.549-0.392-2.34-0.663c-0.799-0.305-1.577-0.529-2.545-1.351l-0.002-0.002
					l-0.917-0.821l0.714-1.065c1.425-2.127,2.493-4.732,3.402-7.338c0.906-2.626,1.653-5.328,2.309-8.055
					c1.295-5.461,2.214-11.034,2.775-16.64c0.275-2.815,0.529-5.609,0.395-8.401c-0.115-2.803-0.433-5.612-0.831-8.409
					c-0.812-5.595-1.949-11.153-3.297-16.658c1.584,5.443,2.963,10.952,4.022,16.538c0.521,2.794,0.965,5.609,1.206,8.463
					c0.261,2.869,0.125,5.749-0.028,8.581c-0.321,5.693-1.003,11.369-2.08,16.992c-0.548,2.81-1.191,5.609-2.014,8.381
					c-0.846,2.77-1.79,5.52-3.408,8.189l-0.204-1.886h0.001c0.185,0.192,0.86,0.541,1.483,0.762
					c0.646,0.241,1.338,0.453,2.046,0.637c1.416,0.371,2.882,0.668,4.358,0.924c2.957,0.507,5.962,0.864,8.974,1.135
					c6.029,0.534,12.105,0.723,18.169,0.598c6.063-0.135,12.128-0.586,18.101-1.586c2.983-0.506,5.945-1.149,8.827-2.04
					c2.876-0.893,5.694-2.017,8.229-3.603l-0.136,0.707v-0.001c-1.554-2.24-2.424-4.771-3.176-7.289
					c-0.728-2.532-1.254-5.106-1.681-7.691c-0.843-5.173-1.279-10.396-1.46-15.624c-0.173-5.229-0.083-10.469,0.334-15.696
					c0.443-5.222,1.123-10.457,2.68-15.566c0.4-1.274,0.859-2.539,1.443-3.773c0.284-0.619,0.617-1.225,0.974-1.823
					c-0.008,0.01,0.039-0.07,0.132-0.176c0.059-0.074,0.218-0.2,0.218-0.2l0.189-0.125l0.266-0.146l0.473-0.234l0.906-0.417
					c2.392-1.067,4.759-2.103,7.114-3.193c4.707-2.17,9.344-4.479,13.876-6.974c9.044-4.997,17.749-10.693,25.343-17.605
					c1.895-1.728,3.701-3.544,5.419-5.431c0.855-0.948,1.685-1.915,2.483-2.907c0.397-0.497,0.79-0.998,1.171-1.506l0.567-0.765
					c0.183-0.254,0.324-0.458,0.463-0.7c1.132-1.864,1.096-4.165,0.208-6.309c-0.873-2.149-2.414-4.117-4.198-5.767
					c-0.897-0.825-1.867-1.576-2.885-2.212c-1.012-0.626-2.107-1.162-3.114-1.388c-0.49-0.118-0.966-0.105-1.134-0.032
					c-0.046,0.013-0.062,0.031-0.078,0.038c-0.008,0.004-0.007,0.013-0.017,0.012l-0.164,0.171l-0.657,0.691l-2.642,2.858
					c-3.541,3.843-7.231,7.613-11.248,11.055c-3.997,3.438-8.403,6.59-13.345,8.788c-2.468,1.091-5.054,1.972-7.749,2.468
					c-1.344,0.257-2.718,0.417-4.099,0.46l-1.016,0.018l-0.967,0.009c-0.666,0.012-1.329,0.005-1.992-0.004
					c-5.306-0.113-10.486-0.594-15.661-1.028c-5.17-0.493-10.329-1.018-15.501-1.837L147.767,185.157z"/>
			</g>
			<g>
				<path class="sa6" d="M103.116,218.023c-2.213,3.555-4.178,7.267-6,11.006c-0.883,1.883-1.736,3.773-2.47,5.682
					c-0.696,1.896-1.397,3.879-1.521,5.645l-0.027,0.632c0.006,0.196,0.057,0.339,0.069,0.512c0.011,0.211,0.054,0.237,0.075,0.327
					c0.063,0.092,0.114,0.198,0.234,0.318c0.415,0.492,1.264,0.985,2.109,1.384c1.744,0.814,3.719,1.438,5.707,1.988
					c1.993,0.561,4.029,1.056,6.074,1.558l3.079,0.777c1.044,0.294,2.024,0.511,3.146,1.009l-0.384,0.923
					c-0.887-0.16-2.016-0.22-3.045-0.317l-3.166-0.307c-2.115-0.234-4.232-0.534-6.348-0.957c-2.115-0.439-4.232-0.956-6.348-1.871
					c-1.05-0.499-2.129-1-3.149-2.077c-0.254-0.258-0.488-0.595-0.699-0.957c-0.194-0.391-0.365-0.855-0.383-1.177
					c-0.046-0.351-0.115-0.728-0.118-1.059l0.049-0.95c0.249-2.456,1.023-4.502,1.882-6.518c0.863-2.004,1.847-3.924,2.922-5.785
					c2.175-3.7,4.573-7.264,7.526-10.404L103.116,218.023z"/>
			</g>
			<g>
				<path class="sa12" d="M149.361,76.213c-0.266,0.036-0.533,0.061-0.807,0.056c-1.729-0.033-3.312,0.313-5.016,0.558
					c-1.172,0.168-2.322,0.45-3.463,0.76c-0.974,0.265-1.842,0.273-2.832,0.421c-2.626,0.392-5.593,1.015-7.89,2.4
					c-2.3,1.388-4.971,2.119-7.403,3.268c-2.392,1.13-4.712,2.408-6.956,3.808c-2.13,1.329-4.656,2.732-6.425,4.532
					c-1.558,1.586-3.299,2.997-4.788,4.676c-1.627,1.834-3.083,3.812-4.724,5.633c-1.132,1.256-2.104,2.445-2.961,3.901
					c-0.813,1.38-1.281,2.869-1.819,4.387c-1.245,3.511-2.473,7.028-3.683,10.55c-0.891,2.593-0.819,4.968-0.563,7.678
					c0.297,3.146-0.242,5.855-0.432,9.037c-0.596,9.979,6.295,17.447,8.675,26.75c1.37,5.357,1.129,11.316-1.731,16.153
					c-2.958,4.999-9.439,11.608-15.309,6.486c-0.774-0.675-1.411-1.491-2.026-2.313c-0.591-0.79-1.287-0.461-1.741,0.263
					c-1.602,2.554-1.612,5.791-1.191,8.777c0.506,3.586,1.559,7.095,3.114,10.366c0.307,0.646,0.635,1.285,1.042,1.874
					c0.546,0.79,1.227,1.477,1.917,2.147c2.642,2.566,5.322,5.247,8.594,6.98c3.158,1.672,6.604,2.732,10.048,3.633
					c5.581,1.459,12.457,2.855,18.235,2.629c3.211-0.125,6.367-0.882,9.436-1.837c5.271-1.64,9.94-4.123,14.873-6.512
					c3.231-1.564,6.054-3.701,8.895-5.879c0.584-0.448,1.2-0.952,1.385-1.665c0.128-0.492,0.029-1.011-0.071-1.51
					c-0.449-2.247-0.788-4.349-1.58-6.512c-1.052-2.872-2.239-5.718-3.917-8.275c-0.857-1.307-1.381-2.778-1.957-4.22
					c-0.565-1.416-1.484-2.592-2.258-3.911c-2.686-4.579-4.827-9.477-6.367-14.557c-0.801-2.644-1.222-4.992-1.095-7.765
					c0.127-2.782,0.584-5.54,1.16-8.261c0.214-1.01,0.439-2.047,1.011-2.906c-1.333-2.911-1.711-6.25-1.062-9.385
					c0.07-0.336,0.152-0.673,0.308-0.978c0.211-0.413,0.547-0.748,0.906-1.041c1.624-1.323,3.852-1.823,5.899-1.436
					c2.346,0.442,3.248,1.549,4.149,3.659c0.552,1.292,1.06,2.623,1.31,4.01c0.22,1.221,0.192,2.563,0.338,3.806
					c0.143,1.224,0.269,2.452,0.209,3.686c-0.027,0.563-0.055,1.126-0.065,1.69c-0.035,1.889,0.123,3.782,0.471,5.639
					c0.755-2.313,1.422-4.655,1.999-7.018c0.51-2.088,1.292-4.107,1.705-6.223c0.713-3.653-0.217-7.808-2.12-10.979
					c-1.333-2.219-3.031-4.197-4.438-6.37c-1.342-2.074-2.444-4.565-1.834-6.959c1.107-4.347,6.12-4.954,9.761-5.82
					c2.051-0.488,3.978-0.117,5.318-2.077c0.195-0.285,0.367-0.595,0.427-0.935c0.103-0.581-0.288-1.067-0.476-1.591
					c-0.344-0.959-0.164-2.114-1.476-2.393c1.584-0.173,3.175-0.29,4.767-0.352c0.592-0.023,1.206-0.035,1.752,0.197
					c1.054,0.448,1.543,1.642,2.336,2.469c0.976,1.019,2.41,1.462,3.807,1.658c1.397,0.197,2.823,0.188,4.201,0.492
					c1.905,0.421,3.859,0.568,5.803,0.794c0.954,0.111,1.765,0.785,2.678,1.19c0.747,0.332,1.524,0.681,2.128,1.245
					c0.452,0.422,1.163,0.995,1.523,1.483c0.16,0.218,0.901,2.754,0.725,2.93c3.305-3.324,5.575-7.497,6.631-12.035
					c0.316-1.355,0.374-2.757,0.426-4.143c0.109-2.876-0.967-5.707-2.774-7.94c-0.652-0.806-1.398-1.44-2.19-2.093
					c-0.695-0.573-1.056-1.432-1.772-2.013c-2.041-1.653-4.253-3.086-6.223-4.828c-1.769-1.564-4.696-2.372-6.849-3.299
					c-2.242-0.966-4.485-1.931-6.727-2.897c-2.439-1.043-5.143-2.414-7.843-2.203c-1.404,0.11-2.897-0.371-4.279-0.62
					c-1.546-0.278-3.093-0.548-4.641-0.81c-0.888-0.15-1.788-0.301-2.692-0.287C150.335,76.046,149.85,76.147,149.361,76.213z"/>
			</g>
			<g>
				<g>
					<path class="sa6" d="M180.949,125.149c-0.459-0.44-0.957-0.817-1.4-1.275c-0.381-0.394-0.855-0.745-1.347-0.918
						c-0.43-0.151-0.788-0.521-1.263-0.497c-0.165,0.008-0.326,0.059-0.483,0.116c-0.478,0.172-0.913,0.457-1.352,0.723
						c-0.157,0.095-0.302,0.221-0.467,0.292c-0.229,0.1-0.474,0.139-0.7,0.254c-0.572,0.291-0.811,0.811-1.237,1.287
						c-2.587,2.893-4.024,6.873-4.243,11.037c-0.384,7.292,2.986,13.567,7.527,14.016c4.541,0.449,8.534-5.098,8.918-12.39
						c0.15-2.845-0.252-5.798-1.36-8.409C182.883,127.834,182.12,126.272,180.949,125.149z"/>
				</g>
				<g>
					<path class="sa5" d="M171.315,127.086c0.032-0.053,0.063-0.106,0.093-0.159c0.249-0.435,0.467-0.897,0.762-1.291
						c0.532-0.711,1.274-1.146,1.997-1.559c0.369-0.21,0.741-0.417,1.095-0.657c0.313-0.212,0.77-0.453,0.834-0.892
						c0.007-0.048,0.013-0.102-0.011-0.143c-0.019-0.033-0.053-0.05-0.085-0.065c-0.499-0.222-1.036-0.157-1.552-0.128
						c-0.249,0.014-0.498,0.011-0.747,0.009c-0.211-0.002-0.416-0.078-0.626-0.068c-0.165,0.008-0.326,0.059-0.483,0.116
						c-0.478,0.172-0.913,0.457-1.352,0.723c-0.157,0.095-0.302,0.221-0.467,0.292c-0.229,0.1-0.474,0.139-0.7,0.254
						c-0.572,0.291-0.811,0.811-1.237,1.287c-2.004,2.241-3.286,5.103-3.766,8.279c-0.202,1.337-0.433,2.765-0.369,4.129
						c0.065,1.393,0.272,2.783,0.615,4.131c0.11,0.433,0.234,0.862,0.392,1.276c0.173,0.453,0.386,0.886,0.598,1.318
						c0.333,0.678,0.666,1.356,0.999,2.035c0.357,0.727,1.017,1.234,1.584,1.732c0.602,0.528,1.205,1.056,1.844,1.522
						c0.82,0.598,1.833,0.811,2.755,1.117c0.304,0.101,0.706,0.268,0.987,0.036c0.146-0.121,0.22-0.365,0.129-0.549
						c-0.044-0.088-0.117-0.152-0.188-0.214c-0.283-0.248-0.553-0.516-0.823-0.783c-0.896-0.888-1.879-1.726-2.656-2.753
						c-0.626-0.828-1.056-1.799-1.442-2.787c-0.135-0.345-0.209-0.715-0.276-1.083c-0.49-2.683-0.666-5.431-0.523-8.147
						c0.022-0.406,0.05-0.813,0.12-1.211c0.201-1.156,0.775-2.131,1.109-3.222C170.22,128.675,170.822,127.91,171.315,127.086z"/>
				</g>
				<g>
					<path class="sa6" d="M165.401,135.346c-0.065,3.106,0.55,6.244,1.989,8.933c1.401,2.668,3.823,4.88,6.616,5.192
						c1.381,0.184,2.77-0.165,3.978-0.869c1.223-0.685,2.278-1.721,3.114-2.922c1.664-2.429,2.54-5.42,2.75-8.434
						c0.142-3.018-0.331-6.105-1.625-8.823c-1.275-2.681-3.544-5.031-6.423-5.502c-1.419-0.259-2.91,0.028-4.211,0.728
						c-1.31,0.69-2.443,1.75-3.348,2.983C166.412,129.108,165.501,132.244,165.401,135.346z M164.293,135.288
						c0.29-3.263,1.158-6.528,3.025-9.31c0.939-1.375,2.151-2.609,3.646-3.467c1.483-0.86,3.281-1.309,5.038-1.074
						c1.758,0.203,3.41,1.003,4.739,2.111c1.34,1.109,2.381,2.511,3.179,4.01c1.598,3.014,2.225,6.439,2.086,9.801
						c-0.18,3.352-1.084,6.761-3.114,9.591c-1.007,1.405-2.296,2.664-3.88,3.527c-1.577,0.855-3.476,1.243-5.271,0.933
						c-1.799-0.278-3.44-1.157-4.722-2.322c-1.294-1.167-2.274-2.595-3.003-4.108C164.563,141.937,164.078,138.562,164.293,135.288z
						"/>
				</g>
				<g>
					<path class="sa6" d="M177.516,123.039c-2.597,0.619-4.659,2.583-5.956,4.904c-1.368,2.316-1.998,5.021-2.205,7.721
						c-0.168,2.715,0.248,5.46,1.216,7.986c0.992,2.497,2.644,4.813,5.01,6.085l-0.416,0.909c-2.822-1.178-4.831-3.701-6.017-6.396
						c-1.228-2.72-1.648-5.732-1.529-8.681c0.138-2.956,0.979-5.902,2.528-8.474c0.806-1.265,1.81-2.424,3.026-3.34
						c1.218-0.901,2.669-1.548,4.187-1.703L177.516,123.039z"/>
				</g>
				<g>

						<ellipse transform="matrix(0.0067 -1 1 0.0067 47.1138 309.8268)" class="sa5" cx="179.512" cy="131.198" rx="3.974" ry="2.392"/>
					<path class="sa6" d="M179.494,135.515c-0.041,0-0.082-0.001-0.123-0.004c-1.518-0.104-2.652-2.068-2.582-4.473
						c0.043-1.492,0.553-2.822,1.364-3.558c0.449-0.408,0.958-0.601,1.493-0.569c1.518,0.104,2.652,2.069,2.582,4.473
						c-0.043,1.493-0.553,2.823-1.364,3.559C180.45,135.319,179.978,135.515,179.494,135.515z M179.523,127.568
						c-0.32,0-0.631,0.135-0.925,0.402c-0.67,0.608-1.11,1.791-1.147,3.088l0,0c-0.058,1.98,0.842,3.717,1.966,3.793
						c0.355,0.029,0.687-0.11,1.004-0.398c0.67-0.608,1.11-1.792,1.147-3.088c0.058-1.979-0.842-3.717-1.966-3.793
						C179.575,127.569,179.549,127.568,179.523,127.568z"/>
				</g>
				<g>

						<ellipse transform="matrix(0.0067 -1 1 0.0067 39.3726 312.3199)" class="sa5" cx="176.896" cy="136.341" rx="1.805" ry="1.087"/>
					<path class="sa6" d="M176.885,138.325c-0.019,0-0.037-0.001-0.056-0.002c-0.697-0.048-1.219-0.947-1.187-2.047l0.165,0.005
						l-0.165-0.005c0.02-0.682,0.253-1.291,0.625-1.627c0.207-0.188,0.442-0.271,0.689-0.262c0.697,0.048,1.219,0.947,1.187,2.047
						c-0.02,0.682-0.253,1.29-0.624,1.627C177.328,138.234,177.109,138.325,176.885,138.325z M176.899,134.714
						c-0.142,0-0.28,0.06-0.41,0.179c-0.302,0.273-0.5,0.807-0.517,1.392c-0.025,0.891,0.377,1.673,0.879,1.708
						c0.155,0.013,0.304-0.049,0.445-0.178c0.301-0.273,0.499-0.807,0.516-1.392c0.025-0.891-0.377-1.673-0.879-1.708
						C176.922,134.715,176.911,134.714,176.899,134.714z"/>
				</g>
			</g>
			<g>
				<path class="sa6" d="M139.166,147.805c-0.931,1.397-1.37,3.108-1.641,4.801c-0.273,1.705-0.331,3.448-0.307,5.182
					c0.077,3.473,0.56,6.943,1.389,10.306c0.876,3.325,2.066,6.678,4.029,9.305c2.198,2.831,4.125,5.845,5.926,8.918
					c1.783,3.089,3.416,6.267,4.821,9.599c0.689,1.673,1.298,3.392,1.769,5.208c0.232,0.912,0.414,1.85,0.506,2.852
					c0.074,1.004,0.119,2.068-0.277,3.314c-0.204,0.614-0.565,1.293-1.153,1.84c-0.141,0.125-0.376,0.311-0.468,0.367l-0.288,0.183
					l-0.575,0.366l-2.229,1.422c-1.495,0.949-3.009,1.89-4.554,2.793c-3.09,1.806-6.308,3.457-9.668,4.807
					c-6.709,2.72-14.03,4.114-21.294,3.846c-1.806-0.055-3.644-0.213-5.4-0.448c-1.76-0.227-3.528-0.478-5.3-0.798
					c-3.537-0.629-7.11-1.606-10.434-3.164c-1.662-0.772-3.259-1.674-4.781-2.668c-1.525-0.993-2.957-2.036-4.384-3.16
					c-2.817-2.252-5.489-4.842-7.373-8.108c-1.903-3.337-2.448-7.119-2.433-10.734c0.018-1.823,0.192-3.632,0.572-5.428
					c0.195-0.904,0.464-1.821,0.903-2.703c0.434-0.876,1.079-1.726,1.958-2.304h0.001l0.989-0.721l0.21,1.235
					c0.171,1.001,0.819,1.924,1.702,2.582c0.863,0.673,1.968,1.062,3.096,1.28c2.251,0.441,4.551-0.291,6.364-1.748
					c1.829-1.451,3.245-3.457,4.335-5.602c1.089-2.155,1.87-4.481,2.354-6.855c0.477-2.372,0.663-4.818,0.373-7.162
					c-0.155-1.184-0.424-2.265-0.918-3.347c-0.481-1.141-0.995-2.273-1.515-3.405c-2.098-4.503-4.395-9.107-5.64-14.114
					c-2.435-9.939-2.057-20.561,1.296-30.254c3.337-9.697,9.536-18.297,17.382-24.814c3.922-3.266,8.249-6.042,12.844-8.252
					c2.295-1.109,4.652-2.095,7.066-2.91c2.407-0.837,4.847-1.542,7.328-2.114c9.89-2.36,20.398-2.458,30.276,0.125
					c4.93,1.293,9.705,3.198,14.125,5.734c2.207,1.268,4.33,2.698,6.336,4.25c2.006,1.545,3.957,3.189,5.736,5.032
					c1.761,1.849,3.411,3.888,4.476,6.306c1.129,2.411,1.278,5.204,0.784,7.734c-0.47,2.566-1.594,4.922-2.844,7.11
					c-1.26,2.2-2.794,4.288-4.73,5.965l-0.551,0.477v-0.73l0,0c-0.093-1.392-0.693-2.693-1.676-3.629
					c-0.943-0.991-2.196-1.556-3.555-1.915c-2.713-0.727-5.656-0.639-8.665-0.981c-1.502-0.186-3.043-0.495-4.496-1.135
					c-0.368-0.144-0.709-0.356-1.056-0.549c-0.345-0.177-0.706-0.452-1.004-0.71c-0.615-0.53-1.094-1.109-1.584-1.598
					c-0.489-0.492-1.009-0.876-1.617-1.11c-0.603-0.241-1.282-0.305-1.984-0.292c-1.395-0.023-2.963,0.421-4.474-0.082l0.085-0.324
					h0.001c1.434,0.179,2.913,1.234,3.303,2.886c0.188,0.81,0.036,1.729-0.429,2.465c-0.46,0.747-1.199,1.254-1.946,1.568
					c-1.386,0.587-2.815,0.852-4.145,1.197c-0.667,0.168-1.318,0.331-1.932,0.548c-0.64,0.225-1.288,0.471-1.909,0.733
					c-1.25,0.509-2.461,1.103-3.467,1.875c-1.007,0.765-1.764,1.736-1.875,2.806c-0.056,0.552,0.017,1.055,0.222,1.715
					c0.174,0.626,0.409,1.233,0.691,1.82c0.561,1.177,1.334,2.267,2.196,3.334c0.859,1.071,1.801,2.128,2.672,3.283
					c0.874,1.148,1.653,2.42,2.249,3.773c1.217,2.711,1.512,5.803,1.062,8.665c-0.409,2.886-1.407,5.57-2.373,8.199
					c-0.968,2.632-1.922,5.248-2.458,7.968v0.002l-0.549,3.066l-0.109-3.117c-0.15-4.301-0.316-8.609-0.628-12.889
					c-0.18-2.124-0.365-4.301-0.834-6.29c-0.582-1.878-1.718-3.84-3.385-4.769c-0.835-0.454-1.798-0.594-2.752-0.419
					c-0.943,0.18-1.913,0.593-2.744,1.134c-0.801,0.512-1.378,1.342-1.76,2.261c-0.362,0.933-0.548,1.956-0.571,2.988
					c-0.049,2.062,0.391,4.192,1.423,6.015c0.531,0.89,1.182,1.744,2.062,2.317c0.864,0.595,1.946,0.846,3.022,0.748
					c-1.054,0.232-2.217,0.082-3.188-0.473c-0.983-0.529-1.778-1.365-2.388-2.289c-1.199-1.875-1.835-4.085-1.866-6.328
					c-0.006-1.122,0.161-2.259,0.549-3.347c0.409-1.073,1.079-2.121,2.086-2.812c0.955-0.657,1.995-1.147,3.17-1.368
					c1.165-0.223,2.456-0.047,3.517,0.536c1.063,0.581,1.889,1.459,2.521,2.407c0.631,0.97,1.125,1.942,1.455,3.089
					c0.543,2.207,0.643,4.358,0.793,6.525c0.25,4.326,0.281,8.643,0.18,12.964l-0.657-0.051v-0.002
					c0.713-5.673,3.393-10.853,4.056-16.252c0.34-2.684-0.007-5.395-1.155-7.79c-1.124-2.415-2.972-4.413-4.794-6.617
					c-0.905-1.108-1.78-2.314-2.437-3.669c-0.329-0.674-0.607-1.38-0.813-2.103c-0.221-0.675-0.396-1.581-0.295-2.43
					c0.095-0.863,0.436-1.687,0.906-2.365c0.473-0.679,1.049-1.237,1.656-1.708c1.221-0.943,2.556-1.594,3.895-2.15
					c0.678-0.268,1.347-0.506,2.035-0.732c0.716-0.23,1.428-0.408,2.129-0.545c1.405-0.269,2.753-0.491,4.004-0.878
					c1.117-0.331,1.959-1.252,1.846-2.435c-0.034-0.575-0.288-1.163-0.707-1.637c-0.421-0.472-0.987-0.842-1.619-1.096h-0.001
					l0.085-0.324c1.415,0.21,2.795-0.314,4.328-0.509c0.767-0.079,1.595-0.072,2.393,0.173c0.799,0.233,1.529,0.698,2.119,1.21
					c0.602,0.507,1.105,1.041,1.626,1.456c0.271,0.209,0.507,0.381,0.827,0.528c0.306,0.151,0.601,0.321,0.929,0.431
					c1.269,0.522,2.661,0.779,4.088,0.933c2.846,0.335,5.907,0.232,8.892,1.202c1.46,0.47,2.966,1.248,3.999,2.492
					c1.032,1.223,1.635,2.848,1.484,4.422l0,0l-0.551-0.252c1.808-1.673,3.22-3.731,4.375-5.912
					c1.158-2.192,2.141-4.468,2.497-6.868c0.384-2.391,0.132-4.829-0.904-6.965c-1.003-2.164-2.59-4.066-4.311-5.798
					c-7.117-6.83-16.032-11.787-25.591-14.165c-9.572-2.415-19.69-2.187-29.286,0.073c-2.403,0.556-4.785,1.247-7.11,2.058
					c-2.333,0.79-4.609,1.745-6.824,2.818c-4.435,2.138-8.607,4.821-12.384,7.972c-7.558,6.287-13.491,14.559-16.687,23.845
					c-3.257,9.255-3.666,19.473-1.378,29.009c1.157,4.759,3.34,9.208,5.449,13.783c0.52,1.148,1.037,2.301,1.524,3.471
					c0.542,1.203,0.873,2.585,1.021,3.887c0.294,2.641,0.053,5.256-0.483,7.785c-0.546,2.529-1.4,4.988-2.598,7.294
					c-1.203,2.293-2.754,4.477-4.882,6.132c-1.064,0.816-2.285,1.481-3.618,1.845c-1.329,0.367-2.755,0.419-4.096,0.151
					c-0.673-0.131-1.319-0.329-1.951-0.58c-0.646-0.266-1.259-0.609-1.812-1.043c-1.106-0.844-2.023-2.103-2.26-3.596l1.199,0.514
					l0,0c-1.17,0.852-1.711,2.446-1.981,4.075c-0.262,1.664-0.389,3.379-0.341,5.074c0.097,3.38,0.754,6.799,2.47,9.555
					c1.75,2.791,4.273,5.14,6.973,7.223c2.749,2.066,5.64,3.961,8.719,5.307c3.086,1.368,6.38,2.204,9.777,2.737
					c1.698,0.271,3.421,0.48,5.155,0.667c1.737,0.191,3.409,0.343,5.122,0.378c6.819,0.204,13.617-1.132,19.935-3.737
					c3.165-1.296,6.217-2.883,9.192-4.647c1.488-0.883,2.958-1.809,4.428-2.755l2.212-1.431l0.536-0.346l0.268-0.173
					c0.093-0.062,0.022-0.026,0.052-0.038c0.057-0.056,0.143-0.164,0.219-0.382c0.159-0.435,0.195-1.173,0.133-1.913
					c-0.057-0.752-0.212-1.547-0.384-2.346c-0.363-1.604-0.897-3.223-1.482-4.828c-1.16-3.224-2.604-6.392-4.158-9.499
					c-1.565-3.105-3.223-6.169-5.191-9.016c-2.091-3.166-3.059-6.674-3.808-10.163c-0.726-3.5-1.087-7.062-1.035-10.628
					c0.042-1.782,0.167-3.569,0.516-5.33c0.351-1.749,0.861-3.528,1.948-5.039L139.166,147.805z"/>
			</g>
			<g>
				<path class="sa6" d="M190.444,119.046c-0.927,1.312-1.761,2.652-2.013,4.235c-0.282,1.563-0.096,3.228,0.26,4.876
					c0.352,1.655,0.873,3.309,1.249,5.031c0.364,1.709,0.578,3.564,0.076,5.33l-0.255-0.406l0,0
					c0.615,0.127,1.226,0.385,1.719,0.815c0.496,0.422,0.851,1.005,1.017,1.629s0.169,1.293-0.041,1.92
					c-0.196,0.613-0.684,1.252-1.429,1.403h-0.001l0.093-0.034c-1.148,0.752-2.259,1.707-2.927,2.833
					c-0.169,0.28-0.284,0.576-0.373,0.869l-0.083,0.451l-0.07,0.546c-0.094,0.728-0.205,1.45-0.348,2.163
					c-0.557,2.858-1.267,5.666-2.028,8.461c-0.188,0.699-0.4,1.391-0.607,2.086l-0.332,1.072l-0.417,1.043
					c-0.568,1.357-1.199,2.679-1.891,3.975c-1.403,2.574-2.992,5.095-5.105,7.234c-0.512,0.553-1.074,1.033-1.667,1.543
					c-0.639,0.5-1.307,0.882-1.985,1.224c-1.357,0.676-2.756,1.176-4.169,1.598c-2.826,0.848-5.717,1.352-8.618,1.648
					c-5.801,0.606-11.648,0.44-17.381-0.377l0.07-0.658c5.729,0.398,11.483,0.329,17.135-0.422c2.819-0.401,5.618-0.95,8.313-1.772
					c1.343-0.415,2.663-0.908,3.88-1.531c0.605-0.312,1.188-0.66,1.68-1.055c0.491-0.436,1.026-0.897,1.486-1.41
					c1.907-2.006,3.479-4.376,4.859-6.837c0.681-1.239,1.309-2.512,1.871-3.807l0.399-0.959l0.319-0.989l0.641-2.054
					c0.862-2.736,1.675-5.493,2.33-8.271c0.159-0.695,0.326-1.388,0.458-2.084l0.101-0.522c0.043-0.19,0.093-0.408,0.153-0.604
					c0.143-0.389,0.321-0.756,0.545-1.081c0.9-1.308,2.125-2.188,3.445-2.894l0.039-0.021l0.054-0.013h0.001
					c0.433-0.084,0.776-0.483,0.934-0.966c0.164-0.483,0.165-1.034,0.03-1.536c-0.135-0.505-0.416-0.965-0.812-1.302
					c-0.392-0.343-0.889-0.557-1.417-0.667l0,0l-0.328-0.068l0.073-0.338c0.348-1.62,0.04-3.302-0.407-4.929
					c-0.446-1.638-1.05-3.262-1.509-4.97c-0.456-1.7-0.78-3.528-0.546-5.4c0.23-1.857,1.029-3.713,2.342-5.027L190.444,119.046z"/>
			</g>
			<g>
				<path class="sa6" d="M178.282,164.237c-0.611,0.909-1.483,1.593-2.522,2.038c-1.049,0.441-2.282,0.442-3.373,0.182
					c-1.101-0.267-2.068-0.786-2.937-1.381c-0.861-0.615-1.648-1.297-2.348-2.083c1.951,0.748,3.759,1.747,5.58,2.07
					c0.906,0.169,1.782,0.108,2.688-0.067C176.286,164.829,177.213,164.487,178.282,164.237z"/>
			</g>
			<g>
				<path class="sa6" d="M146.535,140.051c-0.89-0.55-1.831-0.598-2.759-0.534c-0.921,0.066-1.824,0.4-2.439,1.047
					c-0.626,0.642-0.867,1.604-0.843,2.569c-0.039,0.489,0.097,0.974,0.14,1.475c0.099,0.492,0.255,0.973,0.361,1.479
					c-0.471-0.9-0.923-1.856-1.037-2.92c-0.157-1.032,0.012-2.247,0.783-3.129c0.75-0.884,1.893-1.319,2.987-1.368
					c0.553-0.036,1.11,0.082,1.622,0.282C145.85,139.184,146.338,139.545,146.535,140.051z"/>
			</g>
			<g>
				<path class="sa6" d="M143.016,139.582c-0.581,0.58-0.942,1.459-1.093,2.359c-0.073,0.453-0.092,0.921-0.039,1.382
					c0.057,0.454,0.18,0.937,0.553,1.248c-0.424-0.246-0.648-0.738-0.783-1.2c-0.136-0.473-0.198-0.968-0.2-1.465
					c0.009-0.988,0.207-2.025,0.843-2.931L143.016,139.582z"/>
			</g>
			<g>
				<path class="sa6" d="M158.056,180.206c-0.043,0.764-0.081,1.403-0.013,2.062c0.064,0.647,0.221,1.267,0.515,1.797
					c0.291,0.532,0.728,0.963,1.273,1.272c0.537,0.332,1.207,0.456,1.868,0.578l-0.084,0.996c-0.766-0.076-1.563-0.157-2.311-0.527
					c-0.747-0.342-1.429-0.907-1.892-1.615c-0.469-0.705-0.73-1.505-0.872-2.288c-0.146-0.776-0.16-1.594-0.175-2.277
					L158.056,180.206z"/>
			</g>
			<g>
				<path class="sa6" d="M224.375,160.634c3.469-4.661,6.716-9.608,10.786-13.983c1.028-1.086,2.104-2.141,3.315-3.095
					c1.217-0.93,2.526-1.873,4.306-2.22c0.439-0.08,0.919-0.11,1.402-0.037c0.493,0.058,0.86,0.177,1.304,0.347
					c0.844,0.311,1.773,1.108,2.079,2.127c0.306,0.994,0.192,1.892,0.042,2.686c-0.162,0.799-0.401,1.529-0.642,2.24
					c-0.478,1.405-1.039,2.77-1.217,4.015c-0.036,0.303-0.048,0.593-0.017,0.838c0.076,0.287,0.109,0.56,0.241,0.885
					c0.203,0.622,0.512,1.281,0.808,1.934c0.611,1.312,1.264,2.653,1.803,4.068c0.536,1.413,1.012,2.902,1.103,4.525
					c0.118,1.601-0.381,3.424-1.572,4.647c-0.3,0.278-0.609,0.603-0.91,0.831l-0.901,0.668c-0.613,0.428-1.233,0.843-1.865,1.239
					c-2.539,1.574-5.179,2.931-8.024,3.912l-0.332-0.943c2.636-1.11,5.2-2.535,7.569-4.166c0.594-0.409,1.171-0.839,1.746-1.272
					l0.848-0.666c0.275-0.223,0.457-0.452,0.694-0.671c0.838-0.928,1.16-2.165,1.045-3.476c-0.106-1.311-0.556-2.648-1.096-3.952
					c-0.549-1.309-1.199-2.598-1.832-3.941c-0.314-0.678-0.64-1.347-0.903-2.116c-0.148-0.356-0.239-0.809-0.335-1.234
					c-0.066-0.483-0.044-0.93,0.003-1.355c0.236-1.669,0.826-3.036,1.267-4.409c0.224-0.678,0.432-1.349,0.555-1.989
					c0.124-0.637,0.145-1.249,0.003-1.665c-0.143-0.397-0.416-0.662-0.934-0.873c-0.24-0.088-0.578-0.198-0.814-0.218
					c-0.239-0.043-0.506-0.035-0.784,0.014c-1.13,0.183-2.343,0.939-3.434,1.774c-1.106,0.846-2.146,1.834-3.146,2.863
					c-4.048,4.119-7.46,8.887-11.399,13.313L224.375,160.634z"/>
			</g>
			<g>
				<path class="sa6" d="M113.654,292.73c1.189,5.855,1.543,11.822,1.551,17.754c0.017,5.938-0.29,11.867-0.789,17.773
					c-1.009,11.812-2.608,23.559-4.628,35.226c-2.036,11.674-4.296,23.266-7.088,34.831l-0.153,0.567
					c0.027-0.038,0.012-0.169-0.012-0.203c-0.038-0.052,0.111,0.141,0.339,0.273c0.462,0.293,1.117,0.545,1.769,0.75
					c1.325,0.413,2.746,0.696,4.17,0.939c2.856,0.493,5.775,0.749,8.691,0.955c2.918,0.187,5.851,0.253,8.764,0.126
					c1.456-0.05,2.911-0.147,4.334-0.358c0.711-0.106,1.415-0.241,2.085-0.436c0.659-0.187,1.341-0.441,1.741-0.823l0.742,0.671
					c-0.633,0.696-1.387,0.99-2.111,1.28c-0.734,0.268-1.476,0.455-2.218,0.615c-1.485,0.316-2.976,0.51-4.468,0.655
					c-2.986,0.249-5.973,0.294-8.958,0.218c-2.986-0.071-5.965-0.329-8.947-0.765c-1.491-0.237-2.977-0.523-4.479-0.978
					c-0.753-0.24-1.503-0.494-2.299-0.98c-0.385-0.264-0.849-0.545-1.199-1.277c-0.17-0.378-0.194-0.891-0.077-1.288l0.137-0.502
					c2.803-11.405,5.121-23.021,7.193-34.625c2.014-11.624,3.838-23.289,4.965-35.024c0.553-5.866,0.968-11.746,1.082-17.629
					c0.112-5.879-0.129-11.776-1.118-17.548L113.654,292.73z"/>
			</g>
			<g>
				<path class="sa6" d="M135.883,304.964c1.005,5.681,1.468,11.445,1.833,17.202c0.352,5.761,0.506,11.532,0.566,17.301
					c0.127,11.54-0.072,23.082-0.577,34.613c-0.253,5.766-0.552,11.529-0.98,17.294c-0.224,2.886-0.444,5.757-0.83,8.669
					c-0.058,0.37-0.094,0.724-0.171,1.108l-0.108,0.569c-0.028,0.127-0.012,0.116-0.019,0.139c-0.013,0.022,0.007,0.032,0.001,0.047
					c-0.043,0.08,0.336,0.513,0.867,0.792c1.082,0.591,2.455,0.974,3.803,1.289c2.734,0.613,5.576,0.959,8.417,1.221
					c2.846,0.241,5.704,0.45,8.569,0.566c2.864,0.128,5.733,0.146,8.599,0.147c2.853-0.027,5.761-0.065,8.513-0.489l-0.384,0.551
					l0,0c-0.304-1.674-0.359-3.406-0.155-5.111c0.195-1.708,0.67-3.375,1.306-4.965c0.671-1.577,1.515-3.075,2.523-4.449
					c1.024-1.369,2.147-2.628,3.515-3.708l0.001-0.001l-0.154,0.54c-2.567-7.957-4.708-16.017-6.624-24.14
					c-1.897-8.125-3.533-16.315-4.821-24.565c-1.3-8.247-2.262-16.555-2.782-24.9c-0.529-8.344-0.577-16.73-0.009-25.095
					l1.994,0.152c-0.642,8.251-0.68,16.558-0.238,24.843c0.433,8.286,1.306,16.555,2.518,24.775
					c1.2,8.222,2.747,16.396,4.556,24.511c1.826,8.107,3.886,16.183,6.355,24.106l0.101,0.325l-0.255,0.216h-0.001
					c-1.106,1.122-2.138,2.407-3.03,3.735c-0.896,1.335-1.677,2.744-2.28,4.223c-0.63,1.469-1.059,3.014-1.32,4.587
					c-0.263,1.574-0.306,3.182-0.208,4.793l0,0v0.455l-0.384,0.097c-1.459,0.368-2.9,0.548-4.35,0.694
					c-1.448,0.145-2.895,0.248-4.343,0.33c-2.896,0.165-5.794,0.173-8.692,0.148c-2.898-0.039-5.799-0.128-8.695-0.391
					c-2.897-0.255-5.793-0.588-8.69-1.222c-1.449-0.341-2.896-0.701-4.359-1.48c-0.365-0.208-0.736-0.45-1.094-0.795
					c-0.349-0.335-0.724-0.856-0.803-1.535c-0.011-0.164-0.031-0.336-0.003-0.492c0.018-0.155,0.053-0.345,0.064-0.395l0.099-0.491
					c0.071-0.322,0.113-0.686,0.171-1.026c0.406-2.798,0.665-5.675,0.921-8.532c0.495-5.728,0.864-11.475,1.187-17.223
					c0.597-11.5,1.078-23.012,1.213-34.529c0.055-5.759,0.044-11.518-0.087-17.276C136.958,316.437,136.693,310.674,135.883,304.964
					z"/>
			</g>
			<g>
				<path class="sa6" d="M174.432,405.421l13.7-1.221l-0.412,0.294l0.001-0.002c0.511-1.635,0.879-3.358,1.067-5.042
					c0.16-1.69,0.124-3.385-0.309-4.923c-0.436-1.537-1.322-2.841-2.569-3.803c-1.257-0.955-2.826-1.596-4.493-2.096l0.148-0.989
					c1.834,0.039,3.757,0.478,5.422,1.573c1.682,1.08,2.869,2.912,3.353,4.808c0.49,1.91,0.412,3.846,0.071,5.666
					c-0.336,1.832-0.924,3.564-1.776,5.213l-0.001,0.003l-0.117,0.268l-0.295,0.026l-13.7,1.221L174.432,405.421z"/>
			</g>
		</g>
		<g class="sa13">
			<path class="sa14" d="M114.059,299.009c7.071,3.604,41.49,3.75,53.347-1.205c0.189-5.429,0.353-8.151,0.353-8.151
				s-6.974,3.033-20.341,3.497s-14.885-0.78-22.08-0.61s-11.755-0.962-11.755-0.962L114.059,299.009z"/>
		</g>
		<g class="sa13">
			<path class="sa14" d="M136.97,314.475c-2.172,13.674-7.728,80.219-13.587,88.171c6.432-0.815,10.732-1.51,10.732-1.51
				l1.685-10.214c0,0,1.456-24.031,1.76-36.341C138.105,332.505,136.97,314.475,136.97,314.475z"/>
		</g>
		<g class="sa13">
			<path class="sa14" d="M181.395,388.39c0.141-0.059,0.285-0.114,0.431-0.162c-2.068,2.04-2.73,6.069-3.469,8.803
				c-0.148,0.548-1.822,8.705-1.331,8.661c-2.549,0.227-2.559-0.348-2.559-0.348s-0.955-3.535,0.621-7.081
				c1.029-2.315,1.442-4.755,2.897-6.908C178.839,390.089,179.994,388.98,181.395,388.39z"/>
		</g>
		<g class="sa13">
			<path class="sa14" d="M158.434,202.461c-4.222-12.111-7.889-14.88-8.556-16.444c-0.667-1.565,3.784-0.229,4.437-0.076
				s5.341,0.529,5.341,0.529s-2.73-4.852-2.199-6.264c0.303-0.806-7.194-0.409-7.731-0.416c-3.164-0.038-6.322-3.587-8.008-5.997
				c-1.733-2.478-2.952-5.273-4.096-8.072c0.84,2.054,0.631,4.317,1.665,6.279c1.188,2.254,1.814,4.76,3.123,6.981
				c0.824,1.399,1.825,2.685,2.727,4.035c3.48,5.205,5.173,11.194,7.669,16.862c1.847,4.195,2.606,9.321-2.595,11.25
				c-9.889,3.667-23.126,9.974-26.174,9.654c-3.048-0.321-13.287,0.818-14.092,0.551c-0.74-0.245-1.52-0.449-2.105-0.597v0.451
				c-0.242-0.282-0.541-0.505-0.878-0.682c0.119,0.042,0.443,0.12,0.878,0.23v-0.183c-0.672-0.076-0.933-0.096-0.925-0.071
				c-2.229-1.123-6.049-0.223-6.049-0.223c-0.769,0.217-7.845,14.625-8.238,16.707s-1.513,5.818-0.212,6.353
				s7.093,2.959,8.889,3.072c1.796,0.112,12.35,2.933,12.35,2.933s-0.304-4.658-0.985-7.613c-0.454-1.971-1.663-9.009-2.85-14.299
				c10.614,2.322,28.184-2.942,36.715-7.395C158.029,214.016,161.096,210.097,158.434,202.461z"/>
		</g>
		<g class="sa13">
			<path class="sa14" d="M146.535,140.051c-1.103,0.013-6.018,1.957-5.863,5.203c-0.481-2.272-0.109-3.481-0.004-4.05
				s1.068-1.511,1.221-1.594c0.152-0.083,1.426-0.482,1.474-0.487s1.244-0.012,1.395,0.017c0.151,0.029,1.184,0.4,1.184,0.4
				L146.535,140.051z"/>
		</g>
		<g class="sa13">
			<path class="sa14" d="M232.521,164.777c1.094,0.228,5.882,4.499,6.748,6.46c3.443-0.41,5.472-1.185,7.113-2.037
				c-2.168,1.875-5.159,4.271-5.773,4.593c-0.615,0.321-3.19,1.533-3.19,1.533l-1.188-2.158l-1.749-3.876L232.521,164.777z"/>
		</g>
		<g>
			<path class="sa6" d="M169.307,124.443c-0.426-0.744-1.148-1.41-1.957-1.957c-0.816-0.544-1.714-1.006-2.661-1.362
				c1.005,0.13,2.004,0.374,2.982,0.739c0.971,0.377,1.941,0.883,2.754,1.736L169.307,124.443z"/>
		</g>
		<g>
			<path class="sa6" d="M168.277,125.645c-0.258-0.478-0.928-0.924-1.623-1.221c-0.705-0.312-1.474-0.537-2.258-0.695
				c0.799-0.074,1.613-0.084,2.441,0.018c0.414,0.053,0.834,0.128,1.258,0.277c0.421,0.148,0.858,0.35,1.256,0.721L168.277,125.645z
				"/>
		</g>
		<g>
			<path class="sa6" d="M166.782,127.169c-0.289-0.314-0.776-0.565-1.302-0.727c-0.53-0.161-1.104-0.26-1.688-0.29
				c0.553-0.2,1.135-0.341,1.751-0.407c0.614-0.057,1.277-0.048,1.979,0.234L166.782,127.169z"/>
		</g>
		<g>
			<path class="sa15" d="M357.324,209.179c0.062,1.139,0.083,2.28,0.086,3.419c0.011,4.199-0.249,8.414,0.237,12.597
				c0.023,0.196,0.049,0.398,0.148,0.569c0.106,0.185,0.286,0.314,0.458,0.441c1.164,0.854,2.24,1.827,3.208,2.897
				c0.113,0.125,0.232,0.268,0.233,0.437c0.002,0.187-0.139,0.342-0.278,0.466c-0.675,0.607-0.968,0.709-1.242,1.575
				c-0.359,1.133-0.631,2.305-0.908,3.461c-0.54,2.255-0.979,4.535-1.281,6.835c-0.47,3.578-0.604,7.19-0.634,10.796
				c-0.011,1.367,0.399,3.442-0.161,4.705c-0.125,0.282-2.057,3.52-1.805,3.5c1.93-0.154,3.502-1.427,4.753-2.808
				c1.19-1.313,2.664-2.845,3.436-4.427c2.001-4.1,2.634-8.717,2.927-13.222c0.17-2.611-0.323-5.076-0.175-7.642
				c0.185-3.193,0.746-6.37,0.932-9.571c0.525-9.025,1.167-18.044,1.75-27.065c0.141-2.176,0.28-4.375-0.077-6.526
				c-0.641-3.861-3.1-7.535-6.732-8.99c-3.633-1.456-8.336-0.223-10.287,3.169c-1.848,3.214-0.978,7.238-0.056,10.829
				c0.448,1.745,0.896,3.49,1.344,5.235c0.14,0.546,0.296,1.12,0.698,1.515c0.458,0.45,1.15,0.581,1.644,0.992
				c1.026,0.853,1.372,2.732,1.529,3.967C357.193,207.279,357.273,208.228,357.324,209.179z"/>
			<path class="sa16" d="M406.103,277.728c0.282-1.242-0.056-2.761-0.429-3.958c-0.372-1.193-0.268-2.577-0.282-3.828
				c-0.007-0.602,0.043-1.221,0.003-1.821c-0.03-0.447-0.17-0.894-0.235-1.346c-0.134-0.939-0.245-1.883-0.274-2.832
				c-0.028-0.929,0.11-1.76-0.154-2.654c-0.233-0.788-0.011-1.506-0.193-2.309c-0.175-0.775-0.533-1.434-0.645-2.23
				c-0.569-4.036-0.885-8.113-1.718-12.102c-0.177-0.846-0.378-1.693-0.417-2.557c-0.102-2.212,1.519-3.941,2.66-5.703
				c0.993-1.533,1.689-3.23,2.138-4.998c0.218-0.858,0.382-1.73,0.513-2.606c0.128-0.849,0.109-1.693,0.346-2.519
				c0.36-1.251,0.719-2.503,1.079-3.754c0.116-0.404,0.233-0.811,0.276-1.23c0.049-0.482,0-0.968-0.005-1.452
				c-0.011-0.968,0.156-1.929,0.234-2.894c0.135-1.659,0.17-3.601-0.229-5.227c-0.171-0.698-0.063-1.36-0.068-2.08
				c-0.005-0.839-0.067-1.679-0.027-2.518c0.07-1.46,0.192-2.921,0.121-4.383c-0.105-2.131-0.62-4.221-1.226-6.267
				c-0.531-1.792-1.134-3.564-1.807-5.308c-0.336-0.872-0.69-1.737-1.061-2.595c-0.308-0.713-0.58-1.466-0.946-2.153
				c-0.337-0.63-0.784-1.196-1.272-1.717c-0.407-0.435-0.845-0.843-1.308-1.218c-0.326-0.264-0.671-0.519-0.898-0.871
				c-0.158-0.245-0.317-0.676-0.184-0.965c0.109-0.239,0.358-0.31,0.573-0.463c0.428-0.303,0.867-0.694,0.886-1.258
				c0.013-0.402-0.201-0.773-0.409-1.118c-1.316-2.185-3.246-4.679-5.766-4.29c-0.638,0.099-1.231,0.385-1.854,0.552
				c-4.413,1.185-6.556-3.135-6.901-6.669c-0.278-2.847-0.728-5.91-2.731-7.952c-0.196-0.199-0.402-0.384-0.617-0.556
				c-1.723-1.375-4.037-1.904-6.256-2.175c-6.67-0.814-13.774,0.143-20.002,2.655c-5.39,2.174-10.558,8.046-16.857,6.836
				c-2.71-0.52-5.112-2.06-7.295-3.748c-3.902-3.017-7.354-6.615-10.206-10.639c-0.606-0.855-1.277-1.796-2.295-2.045
				c-1.021-0.25-2.065,0.283-2.921,0.894c-4.602,3.285-6.759,8.938-8.672,14.259c-0.962,2.675-2.709,5.766-2.571,8.637
				c0.14,2.912,1.218,5.778,3.05,8.048c2.034,2.52,4.868,4.237,7.59,5.992c5.166,3.33,10.123,6.97,15.069,10.619
				c0.818,0.604,1.641,1.211,2.545,1.676c3.749,1.932,7.734,3.393,11.451,5.463c3.494,1.946,7.012,4.136,10.98,4.632
				c0.158,0.02,0.335,0.031,0.457-0.069c0.128-0.105,0.148-0.29,0.154-0.455c0.088-2.213-0.868-4.411-0.653-6.584
				c0.084-0.851,0.202-2.007-0.682-2.493c-0.587-0.323-1.397,0.003-1.863-0.633c-0.149-0.203-0.196-0.462-0.239-0.711
				c-0.209-1.216-0.482-2.158-0.87-3.325c-0.483-1.452-0.129-3.049-0.192-4.544c1.068-0.225,3.399-0.73,4.18,0.333
				c0.626,0.852,0.646,3.046,0.872,4.094c0.096,0.444,0.192,0.89,0.343,1.319c0.405,1.149,0.52,2.327,0.731,3.532
				c0.026,0.146,0.062,0.309,0.187,0.389c0.33,0.212,0.91-0.337,1.088,0.013c0.387,1.957,0.379,3.968,0.369,5.963
				c-0.007,1.323-0.013,2.646-0.02,3.969c-0.003,0.655-0.007,1.31-0.01,1.965c-0.01,1.927-0.008,3.855-0.038,5.782
				c-0.028,1.781-0.482,3.607-0.751,5.378c-0.016,0.107-0.035,0.22-0.105,0.303c-0.073,0.086-0.189,0.123-0.298,0.155
				c-1.18,0.348-2.276,0.482-3.514,0.415c-1.975-0.107-3.947,0.185-5.903,0.475c-1.696,0.252-3.417,0.511-4.98,1.215
				c-2.436,1.097-4.13,3.253-3.771,5.954c0.875,6.575,4.166,12.528,7.427,18.275c0.496,0.874,1.253,1.626,2.023,2.273
				c2.14,1.795,4.177,0.995,6.609,0.32c2.88-0.799,3.595,2.041,3.323,4.445c-0.38,3.369-0.767,6.768-1.841,9.984
				c-0.861,2.579-2.178,5.16-1.86,7.861c0.429,3.653,3.78,6.333,7.26,7.524s7.234,1.307,10.801,2.202
				c2.413,0.605,4.611,1.156,7.131,1.044c1.437-0.064,2.865-0.237,4.298-0.35c1.204-0.095,2.501,0.069,3.613-0.405
				c1.449-0.618,2.934-1.055,4.447-1.501c3.307-0.976,7.071-1.983,9.663-4.391C405.14,279.896,405.836,278.898,406.103,277.728z"/>
			<path class="sa17" d="M383.465,105.358c-0.509-0.26-0.974-0.633-1.501-0.884c-1.324-0.629-2.786-0.89-4.21-1.188
				c-2.097-0.438-3.887-1.139-6.089-1.075c-2.28,0.066-4.527,0.537-6.752,1.037c-3.224,0.725-6.448,1.533-9.52,2.767
				c-2.603,1.046-6.239,2.621-8.01,4.897c-0.852,1.095-0.877,2.62-1.579,3.806c-2.568,4.337-3.326,9.708-3.687,14.65
				c-0.266,3.641-0.253,7.296-0.106,10.942c0.058,1.447,0.377,2.986-0.131,4.358c-0.423,1.143-0.266,2.484-1.829,2.34
				c-0.097-0.009-0.198-0.019-0.282-0.068c-0.135-0.078-0.198-0.236-0.261-0.38c-0.261-0.598-0.675-1.128-1.192-1.525
				c-0.109-0.084-0.227-0.164-0.362-0.189c-0.125-0.023-0.254,0.003-0.377,0.034c-3.003,0.753-3.752,3.855-4.504,6.444
				c-0.207,0.712-0.416,1.443-0.36,2.182c0.114,1.513,1.485,2.826,3.001,2.875c0.631,0.02,1.264-0.151,1.888-0.061
				c0.826,0.119,1.545,0.705,1.922,1.449c0.591,1.169,0.541,3.185,0.613,4.493c0.105,1.897-0.047,3.801-0.317,5.679
				c-0.475,3.291-1.31,6.522-1.777,9.814c-0.348,2.456-0.448,5.127,0.854,7.239c0.542,0.88,1.298,1.607,2.083,2.279
				c1.509,1.292,3.159,2.418,4.911,3.353c1.595,0.852,3.287,1.101,5.073,1.382c2.849,0.448,5.92-0.032,8.762-0.467
				c5.99-0.917,12.004-1.909,17.734-3.88c2.627-0.904,5.179-2.009,7.699-3.175c2.351-1.089,4.414-2.398,6.651-3.684
				c1.002-0.576,2.208-1.048,3.143-1.712c0.968-0.688,1.655-1.881,2.551-2.687c1.989-1.79,4.309-3.156,6.413-4.798
				c1.408-1.098,2.716-2.323,3.906-3.655c0.493-0.552,0.969-1.128,1.301-1.789c0.602-1.198,0.688-2.58,0.762-3.918
				c0.161-2.89-0.045-5.992,0.583-8.807c0.467-2.091-0.146-4.384-0.519-6.44c-0.206-1.132-0.458-2.32-0.431-3.477
				c0.023-0.965,0.447-1.791,0.798-2.695c1.864-4.796,2.973-9.885,3.275-15.022c0.046-0.787,0.071-1.594-0.172-2.343
				c-0.195-0.6-0.552-1.132-0.93-1.637c-2.466-3.292-7.215-3.218-10.478-0.993c-0.739,0.504-1.415,1.136-1.811,1.938
				c-0.371,0.754-0.472,1.607-0.689,2.419c-0.433,1.625-1.456,3.026-2.12,4.563c-0.571,1.323-1.377,2.593-1.873,3.917
				c-0.766,2.043-0.023,3.843-1.885,5.311c-0.831,0.655-1.802,1.135-2.825,1.402c-0.244,0.064-2.988,0.446-2.979,0.158
				c0.178-5.936,0.445-11.87,0.533-17.809c0.045-3.007,0.045-6.015-0.032-9.022c-0.062-2.413,0.117-5.359-1.813-7.187
				c-0.749-0.709-1.774-0.653-2.727-1.016C383.678,105.461,383.57,105.412,383.465,105.358z"/>
			<path class="sa17" d="M310.632,137.507c-0.291-0.205-0.606-0.382-0.904-0.575c-0.589-0.381-0.984-0.99-1.618-1.335
				c-0.5-0.271-1.045-0.447-1.587-0.621c-1.071-0.344-2.17-0.501-3.232-0.814c-0.391-0.115-0.796-0.173-1.199-0.231
				c-0.649-0.093-1.341-0.27-1.997-0.268c-0.439,0.001-0.85,0.09-1.297,0.069c-1.217-0.056-2.467,0.058-3.575,0.602
				c-2.441,1.197-2.544,4.114-1.914,6.445c1.613,5.967,3.226,11.934,4.84,17.901c0.24,0.889,0.483,1.8,0.409,2.718
				c-0.093,1.15-0.708,2.247-1.642,2.924c-0.564,0.41-1.227,0.667-1.798,1.067c-1.026,0.719-1.667,1.835-2.176,2.953
				c-0.289,0.635-0.477,1.128-0.527,1.843c-0.053,0.757,0.002,1.522,0.166,2.263c0.248,1.12,0.926,1.673,1.881,2.223
				c0.633,0.365,1.283,0.715,1.975,0.956c1.204,0.418,2.386-0.033,3.403-0.686c0.393-0.252,0.798-0.418,1.151-0.728
				c0.439-0.387,0.863-0.775,1.411-1.005c1.322-0.553,3.031-0.087,4.116-1.024c0.576-0.497,0.813-1.271,1.023-2.002
				c1.065-3.701,2.161-7.501,4.478-10.578c0.53-0.704,1.118-1.361,1.694-2.029c0.942-1.092,1.859-2.21,2.727-3.362
				c0.254-0.338,0.829-0.846,0.915-1.264c0.119-0.573-0.486-1.245-0.817-1.643c-0.893-1.075-1.76-2.182-2.438-3.404
				c-0.346-0.623-0.641-1.275-0.859-1.954c-0.201-0.624-0.254-1.281-0.457-1.899c-0.416-1.262-0.011-2.642-0.408-3.93
				c-0.216-0.701-0.597-1.35-1.026-1.937C311.152,137.91,310.902,137.697,310.632,137.507z"/>
			<path class="sa17" d="M324.077,245.875c0.416,0.685,0.9,1.325,1.544,1.894c1.58,1.394,3.637,2.171,5.673,2.606
				c0.264,0.056,0.528,0.107,0.794,0.151c2.344,0.395,4.807,0.108,7.14-0.27c1.184-0.192,2.804,0.406,4.003,0.459
				c1.591,0.071,3.482,0.214,4.983-0.294c0.131-0.044-1.889-3.622-2.034-3.9c-0.415-0.797-0.639-1.648-1.001-2.456
				c-0.743-1.659-1.641-3.201-2.132-4.973c-0.366-1.322-0.631-2.742-0.826-4.094c-0.206-1.42-0.179-2.899,0.102-4.284
				c0.056-0.274,0.2-0.8-0.1-0.973c-0.272-0.157-1.03,0.054-1.324,0.108c-0.848,0.154-1.667,0.431-2.511,0.603
				c-2.362,0.48-4.787,0.465-7.16,0.869c-0.823,0.14-1.725,0.297-2.49,0.643c-0.573,0.258-1.154,0.653-1.702,0.975
				c-1.268,0.745-2.381,1.714-3.437,2.729c-0.242,0.233-0.529,0.374-0.705,0.667c-0.201,0.334-0.277,0.767-0.331,1.147
				c-0.121,0.844-0.067,1.703-0.045,2.552c0.018,0.667,0.067,1.333,0.128,1.997c0.045,0.489,0.006,1.118,0.229,1.56
				C323.275,244.382,323.639,245.154,324.077,245.875z"/>
			<path class="sa5" d="M366.849,164.427c-0.477,0.095-0.952,0.205-1.431,0.273c-2.18,0.308-4.398,0.516-6.551,0.968
				c-2.64,0.554-5.048,0.501-7.733,0.498c0.392,1.028,0.784,2.056,1.177,3.084c0.124,0.324,0.271,0.675,0.579,0.834
				c0.249,0.128,0.546,0.1,0.824,0.064c2.564-0.332,5.083-1.014,7.468-2.013c2.395-1.004,4.68-2.385,6.811-3.876
				C367.609,164.285,367.229,164.352,366.849,164.427z"/>
			<path class="sa18" d="M368.673,167.829c0.995-0.745,1.892-1.615,2.856-2.376c0.496-0.392,1.043-0.685,1.516-1.119
				c0.852-0.781,1.805-1.432,2.657-2.225c-0.412,0.065-0.885,0.213-1.266,0.382c-0.297,0.132-0.61,0.208-0.916,0.321
				c-0.464,0.172-0.933,0.33-1.406,0.474c-0.915,0.278-1.795,0.404-2.738,0.537c-0.278,0.039-0.56,0.079-0.82,0.185
				c-0.184,0.075-0.354,0.181-0.523,0.286c-0.936,0.584-1.873,1.167-2.797,1.769c-0.427,0.279-0.887,0.502-1.346,0.725
				c-1.125,0.546-2.22,1.142-3.385,1.6c-1.103,0.434-2.24,0.679-3.364,1.06c-1.242,0.422-2.49,0.828-3.742,1.219
				c-0.508,0.159-0.668,0.249-0.625,0.774c0.045,0.55,0.184,1.088,0.343,1.615c0.321,1.064,0.76,2.121,0.77,3.249
				c0.001,0.139,0.02,0.314,0.152,0.357c0.054,0.018,0.113,0.006,0.168-0.007c1.015-0.249,1.664-1.094,2.577-1.517
				c1.201-0.556,2.316-1.376,3.484-2.008c0.633-0.343,1.165-0.851,1.782-1.184c0.723-0.39,1.46-0.741,2.167-1.156
				C365.756,169.889,367.244,168.899,368.673,167.829z"/>
			<path class="sa19" d="M396.341,402.447c0.282-0.382,0.528-0.8,0.737-1.254c0.478-1.039,0.893-2.284,0.686-3.405
				c-0.046-0.252-0.654-2.032-0.319-2.178c0.597-0.261,0.925-0.919,1.046-1.56s0.085-1.302,0.204-1.943
				c0.37-1.996,2.109-3.387,3.526-4.841c1.721-1.766,3.085-3.841,4.437-5.902c0.791-1.206,1.598-2.449,1.895-3.86
				c0.561-2.666-1.107-4.127-2.985-5.561c-0.775-0.592-1.646-1.044-2.512-1.493c-1.547-0.802-3.093-1.604-4.64-2.406
				c-0.29-0.151-0.598-0.305-0.924-0.293c-0.905,0.035-1.502,1.04-2.4,1.216c-0.735,0.144-1.395,0.067-2.118,0.38
				c-1.61,0.697-2.667,2.167-3.338,3.738c-0.563,1.317-0.729,2.767-1.171,4.129c-0.635,1.958-1.843,3.663-3.315,5.083
				c-0.535,0.516-1.04,1.217-1.684,1.592c-0.952,0.556-2.205,0.823-3.241,1.199c-0.785,0.285-1.595,0.738-2.431,0.827
				c-1.098,0.117-2.143-0.423-3.181-0.801c-1.476-0.537-2.869-0.44-4.37-0.688c-1.469-0.243-2.746-0.452-4.139-0.947
				c-2.073-0.736-4.154-1.474-6.306-1.931c-1.034-0.22-2.075-0.359-3.132-0.4c-0.929-0.036-1.785-0.383-2.709-0.415
				c-1.051-0.037-2.215,0.271-3.226,0.53c-2.041,0.522-4.03,1.381-5.689,2.695c-0.723,0.573-1.383,1.248-1.869,2.037
				c-0.628,1.02-0.57,2.374-0.643,3.544c-0.182,2.912-0.027,5.845,0.458,8.722c0.214,1.266,0.491,2.521,0.832,3.759
				c0.133,0.481,0.279,0.969,0.563,1.379c1.02,1.475,3.917,1.957,5.571,1.931c3.528-0.055,7.056-0.111,10.584-0.166
				c1.611-0.025,2.641,0.76,4.239,0.557c3.121-0.396,6.096,0.009,9.097,0.023c2.561,0.012,5.126,0.074,7.684-0.098
				c1.251-0.084,2.513-0.36,3.756-0.323c1.233,0.037,2.432,0.073,3.667-0.015c0.484-0.035,0.967-0.074,1.451-0.114
				c0.766-0.063,1.536-0.126,2.279-0.32C394.221,404.48,395.456,403.646,396.341,402.447z"/>
			<path class="sa20" d="M423.144,138.429c0.43-1.698,0.86-3.396,1.26-5.101c0.379-1.619,0.616-3.287,1.125-4.862
				c0.164-0.507,0.328-1.015,0.442-1.535c0.312-1.426,0.237-2.894,0.221-4.343c-0.016-1.429-0.062-2.86-0.056-4.295
				c0.009-2.102,0.245-4.27-0.051-6.345c-0.772-5.405-2.087-10.822-4.761-15.625c-1.459-2.62-3.392-3.664-6.225-4.399
				c-0.333-0.086-0.677-0.159-0.967-0.343c-1.729-1.095-0.009-3.492,0.804-4.583c0.057-0.076,0.116-0.16,0.114-0.255
				c-0.003-0.127-0.113-0.222-0.216-0.296c-1.429-1.027-3.277-1.367-5.025-1.168c-1.412,0.161-2.95,0.718-4.079,1.595
				c-0.293,0.228-0.568,0.48-0.884,0.675c-0.087,0.054-0.213,0.097-0.28,0.02c-0.026-0.03-0.034-0.07-0.041-0.109
				c-0.118-0.629-0.19-0.973-0.557-1.485c-0.46-0.641-1.035-1.23-1.547-1.84c-0.572-0.681-1.188-1.331-1.897-1.871
				c-1.16-0.884-2.503-1.278-3.797-1.928c-0.346-0.174-0.711-0.352-1.098-0.335c-0.762,0.034-1.219,0.686-1.653,1.213
				c-0.5,0.608-1.322,0.969-1.892,1.528c-0.669,0.655-1.233,1.48-2.105,1.821c-0.117,0.046-0.252,0.081-0.366,0.027
				c-0.072-0.034-0.124-0.098-0.173-0.16c-1.472-1.862-3.203-3.131-5.462-3.91c-1.86-0.641-3.818-0.937-5.763-1.23
				c-2.544-0.383-5.152-0.775-7.722-0.408c-1.145,0.163-1.718,0.352-2.783,0.018c-0.892-0.28-1.807-0.242-2.076,0.875
				c-0.141,0.588-0.052,1.214-0.203,1.8c-0.115,0.446-0.363,0.844-0.532,1.272c-0.516,1.307-0.276,2.831-0.856,4.111
				c0.238-0.525-1.821-1.583-2.147-1.748c-0.858-0.434-1.618-0.466-2.592-0.486c-0.397-0.008-0.794-0.009-1.191-0.003
				c-2.095,0.033-4.186,0.262-6.238,0.687c-1.423,0.295-2.693,0.946-4.082,1.349c-1.505,0.436-2.987,0.951-4.439,1.54
				c-1.587,0.644-3.424,0.885-4.673,2.136c-0.115,0.115-0.234,0.248-0.245,0.411c-0.01,0.153,0.079,0.294,0.168,0.42
				c1.13,1.591,2.746,2.716,4.333,3.808c0.805,0.554,1.581,1.16,2.39,1.703c0.645,0.433,1.863,0.388,2.298,0.976
				c-0.077-0.104-2.277,0.689-2.505,0.78c-0.664,0.264-1.094,0.628-1.642,1.087c-3.462,2.901-3.895,9.104-4.447,13.29
				c-0.261,1.978-0.488,4.052,0.225,5.915c1.804-1.679,3.484-3.49,5.022-5.415c3.967-4.967,10.279-8.355,16.396-9.904
				c0.977-0.247,1.964-0.449,2.951-0.651c1.472-0.301,3.175-0.914,4.667-0.867c1.815,0.057,3.701,0.079,5.526,0.183
				c4.041,0.232,7.716,2.303,11.224,4.323c0.534,0.308,1.078,0.623,1.492,1.081c0.662,0.733,0.912,1.741,1.095,2.712
				c0.828,4.387,0.755,8.888,0.679,13.351c-0.052,3.07-0.104,6.141-0.27,9.208c-0.085,1.568-0.2,3.134-0.358,4.696
				c-0.12,1.184-0.683,2.293,0.732,2.777c0.928,0.318,3.783-0.317,4.761-0.552c0.284-0.068,0.642-0.583,0.858-0.779
				c0.185-0.167-0.047-0.473,0.053-0.701c1.403-3.23,2.647-6.433,3.856-9.725c0.906-2.464,1.685-6.159,3.753-7.968
				c2.714-2.374,8.243-3.092,10.715,0.132c0.795,1.037,0.941,2.419,1.008,3.724c0.163,3.201-0.616,6.127-0.854,9.255
				c-0.238,3.133-1.245,6.208-2.922,8.867c-0.175,0.278-0.36,0.557-0.439,0.876c-0.087,0.351-0.038,0.719,0.017,1.076
				c0.569,3.732,1.684,7.466,1.223,11.213c-0.296,2.407-0.345,4.837-0.663,7.238c1.227-0.055,2.575-0.024,3.772-0.307
				c0.911-0.216,1.824-0.434,2.75-0.582c0.484-0.078,0.971-0.137,1.461-0.167c0.219-0.014,0.488-0.062,0.705-0.025
				c0.146,0.025,0.247,0.134,0.401,0.121c0.245-0.021,0.503-0.024,0.74-0.077c-0.044-0.315-0.181-0.612-0.163-0.938
				c0.011-0.204,0.094-0.392,0.094-0.599c-0.001-0.617-0.463-1.295-0.032-1.873c0.092-0.124,0.218-0.217,0.342-0.308
				c0.805-0.593,1.568-1.07,2.604-0.899c0.307,0.051,0.612,0.138,0.923,0.133c0.327-0.005,0.653-0.112,0.978-0.066
				c-0.36-0.757-0.951-1.421-1.433-2.101c-0.537-0.758-1.019-1.558-1.422-2.395c-0.786-1.631-1.275-3.418-1.273-5.237
				c0.001-0.863,0.11-1.722,0.218-2.578c0.08-0.633,0.163-1.277,0.424-1.859c0.36-0.804,1.114-1.263,1.534-1.992
				C422.839,140.462,422.927,139.283,423.144,138.429z"/>
			<path class="sa20" d="M361.299,282.912c-0.074,6.688,0.074,13.253-1.236,19.858c-0.868,4.375-1.699,7.543-3.926,11.415
				c-2.678,4.656-5.357,9.313-8.035,13.969c-0.883,1.536-1.778,3.1-2.175,4.827c-0.824,3.583,0.599,7.274,2.177,10.594
				c3.782,7.958,8.595,15.363,12.65,23.176c1.361,2.622,2.693,5.033,2.947,7.99c0.214,2.49,0.365,5.798,1.721,7.978
				c2.024,3.256,3.872-0.02,10.214,3.137c4.072,2.027,6.826,5.161,10.298,7.911c1.165,0.923,2.548,1.519,3.914,2.105
				c1.611,0.691,3.416,1.392,5.066,0.802c3.971-1.42,4.298-6.049,4.263-9.612c-0.022-2.194-0.076-4.387-0.163-6.579
				c-0.085-2.157-0.488-4.473-0.283-6.621c0.369-3.865-1.282-7.725-1.301-11.659c-0.043-9.04,0.728-18.111-0.201-27.104
				c-0.284-2.747-0.822-5.67-0.278-8.418c0.429-2.169,1.147-3.959,1.131-6.275c-0.018-2.589-0.715-4.942-0.239-7.549
				c0.697-3.825,3.084-6.851,4.526-10.378c1.924-4.706,3.418-9.832,2.495-14.832c-0.311-1.684-0.971-3.301-1.689-4.853
				c-0.139-0.301-0.292-0.611-0.554-0.815c-0.055-0.042-0.117-0.081-0.185-0.086c-0.073-0.006-0.144,0.027-0.21,0.058
				c-1.181,0.564-2.33,1.193-3.442,1.884c-0.17,0.106-0.339,0.213-0.518,0.303c-1.062,0.538-2.306,0.875-3.454,1.189
				c-1.337,0.366-2.691,0.669-4.056,0.911c-2.731,0.483-5.505,0.717-8.278,0.704c-4.935-0.025-9.869-0.836-14.54-2.433
				C365.824,283.788,363.571,282.758,361.299,282.912z"/>
			<g>
				<g>
					<path class="sa6" d="M355.788,122.527c0.581-0.58,1.213-1.078,1.772-1.68c0.481-0.518,1.083-0.983,1.713-1.219
						c0.551-0.206,1.003-0.692,1.616-0.674c0.214,0.006,0.422,0.068,0.625,0.137c0.621,0.209,1.19,0.566,1.763,0.897
						c0.206,0.119,0.396,0.277,0.61,0.365c0.297,0.123,0.614,0.167,0.909,0.309c0.745,0.36,1.067,1.024,1.629,1.628
						c3.412,3.663,5.369,8.759,5.76,14.123c0.686,9.394-3.497,17.575-9.341,18.272c-5.845,0.698-11.139-6.352-11.825-15.746
						c-0.268-3.665,0.174-7.484,1.534-10.88C353.363,126.039,354.306,124.006,355.788,122.527z"/>
					<path class="sa5" d="M368.263,124.773c-0.042-0.067-0.084-0.135-0.124-0.202c-0.333-0.554-0.625-1.144-1.017-1.645
						c-0.705-0.903-1.672-1.445-2.616-1.958c-0.481-0.262-0.966-0.518-1.429-0.819c-0.409-0.266-1.005-0.564-1.099-1.128
						c-0.01-0.062-0.02-0.131,0.01-0.185c0.024-0.043,0.067-0.066,0.108-0.086c0.637-0.299,1.332-0.229,1.998-0.206
						c0.322,0.011,0.642,0.002,0.964-0.008c0.272-0.008,0.535-0.112,0.806-0.104c0.214,0.006,0.422,0.068,0.625,0.137
						c0.621,0.209,1.19,0.566,1.763,0.897c0.206,0.119,0.396,0.277,0.61,0.365c0.297,0.123,0.614,0.167,0.909,0.309
						c0.745,0.36,1.067,1.024,1.629,1.628c2.643,2.837,4.372,6.495,5.073,10.579c0.295,1.719,0.631,3.555,0.583,5.316
						c-0.048,1.799-0.278,3.596-0.685,5.343c-0.131,0.561-0.279,1.117-0.472,1.655c-0.211,0.589-0.474,1.153-0.737,1.716
						c-0.412,0.883-0.824,1.767-1.236,2.65c-0.442,0.947-1.279,1.618-1.998,2.275c-0.763,0.696-1.526,1.393-2.339,2.011
						c-1.042,0.792-2.342,1.094-3.524,1.513c-0.389,0.138-0.904,0.364-1.272,0.072c-0.192-0.152-0.294-0.466-0.181-0.705
						c0.054-0.115,0.147-0.199,0.237-0.281c0.359-0.328,0.7-0.679,1.041-1.031c1.133-1.169,2.378-2.276,3.354-3.62
						c0.786-1.084,1.315-2.347,1.786-3.632c0.165-0.449,0.25-0.928,0.328-1.404c0.562-3.473,0.718-7.021,0.461-10.521
						c-0.038-0.524-0.086-1.048-0.186-1.559c-0.29-1.485-1.055-2.728-1.514-4.126C369.716,126.794,368.92,125.822,368.263,124.773z"
						/>
					<g>
						<path class="sa6" d="M377.372,135.179c0.341,4.193-0.216,8.524-2.009,12.435c-0.9,1.945-2.121,3.781-3.736,5.285
							c-1.602,1.501-3.65,2.641-5.903,3.027c-2.247,0.426-4.633-0.02-6.635-1.061c-2.012-1.046-3.673-2.605-4.983-4.362
							c-2.638-3.539-3.887-7.852-4.211-12.121c-0.266-4.283,0.432-8.667,2.371-12.552c0.968-1.932,2.25-3.743,3.913-5.19
							c1.65-1.445,3.711-2.505,5.924-2.816c2.21-0.351,4.496,0.159,6.404,1.206c1.924,1.043,3.507,2.579,4.748,4.306
							C375.73,126.832,376.941,131.001,377.372,135.179z M376.265,135.26c-0.238-4.021-1.489-8.06-3.918-11.251
							c-1.204-1.586-2.705-2.949-4.44-3.828c-1.724-0.891-3.699-1.245-5.571-0.877c-1.875,0.335-3.601,1.293-5.006,2.61
							c-1.41,1.319-2.525,2.966-3.349,4.747c-1.641,3.583-2.191,7.626-1.929,11.565c0.346,3.93,1.559,7.826,3.823,10.972
							c1.136,1.557,2.558,2.897,4.205,3.773c1.63,0.898,3.505,1.316,5.341,1.023c1.834-0.26,3.575-1.139,5.027-2.399
							c1.458-1.262,2.634-2.884,3.527-4.652C375.761,143.385,376.453,139.288,376.265,135.26z"/>
					</g>
					<g>
						<path class="sa6" d="M360.315,118.581c1.929,0.183,3.777,0.979,5.34,2.105c1.562,1.141,2.861,2.597,3.912,4.193
							c2.038,3.24,3.168,6.982,3.432,10.754c0.237,3.767-0.226,7.624-1.702,11.134c-1.432,3.477-3.905,6.753-7.448,8.358
							l-0.434-0.901c3.085-1.691,5.206-4.752,6.448-8.027c1.22-3.312,1.684-6.902,1.403-10.433
							c-0.329-3.514-1.243-7.02-3.095-10.008c-1.773-2.986-4.555-5.499-7.992-6.186L360.315,118.581z"/>
					</g>

						<ellipse transform="matrix(0.9996 -0.027 0.027 0.9996 -3.3873 9.708)" class="sa5" cx="357.784" cy="130.284" rx="3.086" ry="5.126"/>

						<ellipse transform="matrix(0.9996 -0.027 0.027 0.9996 -3.5633 9.8051)" class="sa5" cx="361.292" cy="136.849" rx="1.402" ry="2.328"/>
				</g>
				<g>
					<path class="sa6" d="M348.878,110.418c-2.696,2.87-4.312,6.588-5.265,10.406c-0.947,3.842-1.267,7.833-1.306,11.816
						c-0.08,4.004,0.239,7.956,0.364,12.068c0.003,0.526,0.008,1.043-0.058,1.637c-0.058,0.314-0.029,0.579-0.344,1.145
						c-0.072,0.125-0.245,0.336-0.495,0.473c-0.119,0.068-0.354,0.137-0.401,0.139l-0.164,0.021c-0.217,0.027-0.464,0.013-0.7-0.038
						c-0.487-0.105-0.864-0.384-1.124-0.63c-0.264-0.254-0.446-0.499-0.608-0.72c-0.311-0.437-0.575-0.813-0.766-0.949
						c-0.183-0.108-0.144-0.102-0.441-0.029c-0.256,0.087-0.658,0.34-0.926,0.582c-0.596,0.529-1.124,1.309-1.557,2.111
						c-0.846,1.613-1.439,3.525-1.347,5.161c0.062,0.825,0.343,1.387,0.781,1.585c0.226,0.12,0.549,0.187,0.93,0.177
						c0.416,0.003,1.014-0.033,1.529-0.02c0.542,0.01,1.08,0.022,1.718,0.144c0.315,0.066,0.674,0.141,1.131,0.427
						c0.221,0.141,0.492,0.395,0.649,0.716c0.177,0.33,0.2,0.644,0.211,0.867c0.001,0.448-0.04,0.651-0.027,0.719l0.026,0.809
						c0.003,0.529,0.002,1.05-0.015,1.564c-0.062,2.056-0.204,4.078-0.366,6.102c-0.334,4.045-0.748,8.061-1.319,12.103
						l-0.241,1.527l-0.144,0.779c-0.008,0.092-0.021,0.172,0.002,0.315c0.074,0.569,0.548,1.377,1.096,2.063
						c1.139,1.408,2.646,2.641,4.249,3.674c3.23,2.046,6.96,3.426,10.749,3.525c3.847,0.117,7.82-0.517,11.692-1.337
						c3.883-0.842,7.715-1.965,11.456-3.323c3.746-1.344,7.409-2.931,10.901-4.818c1.748-0.94,3.449-1.963,5.079-3.08
						c1.617-1.1,3.246-2.346,4.872-3.527c3.208-2.401,6.595-4.679,8.746-7.813c2.143-3.155,2.494-7.232,2.417-11.18
						c-0.091-3.981-0.551-7.985-1.048-11.976l0.989-0.145c0.641,3.989,1.243,7.995,1.427,12.078c0.085,2.039,0.082,4.105-0.24,6.176
						c-0.294,2.065-0.988,4.147-2.137,5.959c-1.15,1.814-2.663,3.313-4.225,4.645c-1.567,1.336-3.188,2.558-4.794,3.777
						c-1.617,1.214-3.171,2.445-4.87,3.642c-1.677,1.188-3.42,2.274-5.207,3.271c-7.155,3.991-14.889,6.811-22.866,8.601
						c-4,0.861-8.051,1.552-12.279,1.451c-4.298-0.102-8.42-1.614-11.988-3.848c-1.783-1.143-3.459-2.472-4.873-4.193
						c-0.677-0.891-1.374-1.82-1.633-3.26c-0.06-0.356-0.054-0.783,0.02-1.189l0.135-0.707l0.239-1.458
						c0.583-3.939,1.023-7.947,1.378-11.936c0.172-1.995,0.325-3.996,0.397-5.969c0.02-0.493,0.023-0.981,0.024-1.46l-0.018-0.703
						c-0.017-0.436,0.04-0.735,0.029-0.791c-0.001-0.025,0,0.026,0.047,0.137c0.049,0.094,0.131,0.166,0.142,0.172
						c0.032,0.017-0.104-0.051-0.282-0.079c-0.351-0.075-0.827-0.1-1.291-0.11c-0.493-0.014-0.903,0.012-1.495,0.009
						c-0.623,0.005-1.327-0.098-1.997-0.45c-0.673-0.34-1.231-0.952-1.529-1.589c-0.308-0.638-0.433-1.283-0.473-1.886
						c-0.099-2.413,0.672-4.47,1.705-6.391c0.549-0.95,1.166-1.871,2.094-2.672c0.499-0.408,0.958-0.714,1.654-0.962
						c0.344-0.112,0.764-0.19,1.22-0.125c0.457,0.06,0.889,0.282,1.188,0.528c0.598,0.504,0.863,1.009,1.139,1.385
						c0.258,0.395,0.51,0.595,0.515,0.571c0.01,0,0.018,0.008,0.05,0.003h0.023c0.016-0.004-0.163,0.029-0.223,0.078
						c-0.145,0.072-0.223,0.193-0.235,0.207c-0.054,0.13,0.042-0.122,0.051-0.303c0.055-0.407,0.065-0.901,0.069-1.382
						c-0.049-3.949-0.305-8.053-0.15-12.116c0.159-4.069,0.601-8.166,1.701-12.134c1.09-3.945,2.928-7.825,5.912-10.746
						L348.878,110.418z"/>
				</g>
				<g>
					<path class="sa6" d="M402.322,143.987c0.993,0.859,2.152,1.687,3.402,1.724c1.254,0.028,2.232-0.905,2.89-1.959
						c1.343-2.158,1.982-4.761,2.546-7.307c0.527-2.573,0.907-5.187,1.197-7.814c0.121-1.277,0.194-2.552,0.078-3.777
						c-0.115-1.214-0.4-2.406-1.004-3.277c-1.096-1.839-3.652-1.959-5.884-1.084c-1.123,0.414-2.208,1.021-3.132,1.785
						c-0.461,0.38-0.89,0.796-1.239,1.245c-0.354,0.49-0.713,0.986-1.025,1.542c-0.641,1.092-1.205,2.265-1.724,3.465
						c-0.535,1.192-1.015,2.42-1.477,3.656c-0.959,2.46-1.77,4.994-2.582,7.515l-0.099,0.307l-0.251,0.056h-0.002
						c-0.965,0.275-1.921,0.497-2.912,0.661c-1.001,0.132-1.978,0.318-3.157,0.021c-0.289-0.088-0.649-0.247-0.914-0.622
						c-0.266-0.387-0.256-0.867-0.172-1.173c0.106-0.433,0.147-0.895,0.199-1.371c0.092-0.951,0.154-1.918,0.206-2.884
						c0.19-3.87,0.283-7.758,0.31-11.638c0.005-3.874-0.021-7.777-0.385-11.578c-0.102-0.927-0.229-1.916-0.467-2.666
						c-0.16-0.583-0.848-1.156-1.584-1.644c-1.508-0.975-3.302-1.675-5.098-2.254c-3.616-1.135-7.438-1.805-11.196-1.816
						c-0.938,0.007-1.87,0.063-2.777,0.195c-0.888,0.127-1.819,0.37-2.737,0.607c-1.831,0.498-3.639,1.098-5.392,1.842
						c-6.986,3.003-13.303,7.735-18.332,13.503l-0.86,0.986l-0.042-1.247v-0.002c-0.121-2.087-0.097-4.147,0.038-6.219
						c0.142-2.067,0.403-4.134,0.893-6.167c0.5-2.021,1.198-4.051,2.46-5.81c0.63-0.871,1.417-1.667,2.374-2.23
						c0.952-0.57,2.053-0.881,3.146-0.943l-0.233,0.926l0,0c-1.712-0.988-3.532-1.863-5.245-3.004
						c-1.715-1.127-3.286-2.441-4.789-3.799l-0.904-0.817l1.15-0.536l0,0c2.139-0.904,4.311-1.855,6.515-2.698
						c2.205-0.848,4.452-1.612,6.753-2.215c2.301-0.591,4.671-1.032,7.099-1.027c1.211,0.009,2.441,0.142,3.63,0.509
						c1.185,0.363,2.327,0.988,3.218,1.892l-0.85,0.291v-0.001c0.12-1.377,0.299-2.752,0.536-4.12
						c0.121-0.684,0.256-1.366,0.41-2.047c0.157-0.686,0.319-1.347,0.538-2.055l0.14-0.452l0.535-0.087h0.001
						c2.128-0.216,4.208-0.28,6.316-0.247c2.101,0.037,4.204,0.198,6.291,0.534c2.083,0.341,4.158,0.865,6.12,1.74
						c1.944,0.878,3.804,2.182,5.006,4.048l-0.558-0.207h0.001c0.543-0.238,1.142-0.578,1.678-0.938
						c0.542-0.37,1.065-0.769,1.57-1.191c0.997-0.862,1.898-1.83,2.734-2.854l0.476-0.584l0.62,0.446
						c0.795,0.571,1.709,1.059,2.588,1.617c0.888,0.549,1.79,1.101,2.671,1.723c0.876,0.627,1.724,1.337,2.447,2.242
						c0.358,0.453,0.665,0.983,0.837,1.587c0.172,0.602,0.168,1.278-0.034,1.861l0,0l-0.767-0.539
						c1.659-1.157,3.533-2.177,5.656-2.464c1.052-0.146,2.135-0.097,3.171,0.115c1.038,0.21,2.026,0.572,2.961,0.998l1.037,0.472
						l-0.877,0.654c-0.865,0.645-1.704,1.426-2.091,2.297c-0.2,0.439-0.157,0.813,0.085,1.096c0.247,0.292,0.749,0.516,1.188,0.603
						l0.062,0.012l0.028,0.012c2.945,1.224,5.288,3.332,7.187,5.788c1.898,2.467,3.196,5.352,3.966,8.379
						c1.387,6.06,1.15,12.186,0.638,18.212c-0.61,6.021-1.568,12.056-3.944,17.776c-0.301,0.713-0.654,1.412-1.033,2.103
						c-0.334,0.604-0.618,1.233-0.828,1.886c-0.391,1.312-0.505,2.708-0.296,4.093c0.419,2.769,1.939,5.428,3.841,7.558l0,0
						l1.007,1.073l-1.44-0.22c-0.674-0.103-1.407-0.141-2.095-0.09c-0.688,0.05-1.374,0.2-1.881,0.527
						c-0.512,0.322-0.757,0.836-0.749,1.466c0.008,0.627,0.215,1.301,0.499,1.942l0.367,0.829l-0.911-0.134
						c-0.841-0.124-1.689-0.224-2.54-0.202c-0.85-0.006-1.698,0.099-2.532,0.258c-0.836,0.157-1.652,0.409-2.441,0.724
						c-0.78,0.311-1.568,0.712-2.217,1.167l-0.602-0.798c0.794-0.556,1.593-0.951,2.446-1.296c0.847-0.338,1.723-0.607,2.619-0.777
						c0.895-0.17,1.805-0.282,2.718-0.277c0.913-0.023,1.822,0.082,2.722,0.217l-0.544,0.694c-0.311-0.712-0.569-1.482-0.584-2.344
						c0-0.428,0.075-0.886,0.286-1.303c0.208-0.418,0.546-0.764,0.916-1.002c0.752-0.477,1.572-0.624,2.353-0.687
						c0.792-0.055,1.55-0.018,2.342,0.102l-0.432,0.853l0,0c-1.14-1.096-2.086-2.301-2.88-3.648c-0.788-1.34-1.405-2.81-1.716-4.381
						c-0.319-1.567-0.269-3.237,0.166-4.806c0.225-0.782,0.538-1.533,0.91-2.25c0.323-0.633,0.629-1.281,0.891-1.957
						c1.066-2.699,1.737-5.589,2.301-8.484c0.556-2.902,0.948-5.844,1.197-8.796c0.248-2.951,0.363-5.916,0.296-8.867
						c-0.05-2.946-0.233-5.899-0.759-8.742c-0.563-2.801-1.597-5.574-3.205-7.973c-1.569-2.404-3.836-4.471-6.385-5.672l0.09,0.024
						c-0.66-0.145-1.264-0.38-1.779-0.941c-0.244-0.284-0.414-0.67-0.444-1.054c-0.024-0.382,0.046-0.741,0.159-1.055
						c0.23-0.631,0.59-1.139,0.965-1.611c0.365-0.483,0.779-0.907,1.179-1.343l0.16,1.126c-1.712-0.855-3.552-1.381-5.404-1.172
						c-1.854,0.188-3.618,1.058-5.233,2.115l-0.864,0.566l0.097-1.105l0,0c0.141-0.857-0.255-1.627-0.893-2.313
						c-0.626-0.692-1.453-1.261-2.286-1.821c-0.838-0.562-1.728-1.079-2.627-1.605c-0.906-0.518-1.795-1.088-2.687-1.744
						l1.096-0.138c-0.466,0.539-0.934,1.077-1.458,1.564c-0.519,0.491-1.069,0.949-1.639,1.38c-0.575,0.426-1.175,0.822-1.813,1.154
						c-0.646,0.335-1.273,0.632-2.034,0.829h-0.001l-0.343,0.109l-0.215-0.315c-1.104-1.614-2.8-2.755-4.636-3.526
						c-1.85-0.766-3.839-1.217-5.85-1.49c-2.014-0.269-4.058-0.371-6.101-0.353c-2.036,0.021-4.104,0.144-6.094,0.4h-0.001
						l0.675-0.539c-0.234,0.582-0.454,1.235-0.654,1.869c-0.2,0.64-0.385,1.288-0.556,1.94c-0.337,1.305-0.62,2.629-0.847,3.964
						v0.001l-0.124,0.994l-0.726-0.703c-1.571-1.523-3.898-1.992-6.137-1.945c-2.266,0.046-4.538,0.517-6.756,1.143
						c-2.22,0.636-4.402,1.434-6.551,2.318c-2.156,0.882-4.257,1.861-6.415,2.832l0,0l0.246-1.353
						c1.392,1.402,2.832,2.744,4.406,3.904c1.561,1.169,3.31,2.132,5.008,3.237l0,0l1.428,0.861l-1.661,0.065
						c-1.925,0.076-3.655,1.158-4.766,2.762c-1.142,1.586-1.819,3.513-2.298,5.458c-0.472,1.957-0.729,3.975-0.867,5.999
						c-0.132,2.021-0.154,4.072-0.038,6.08v0.001l-0.901-0.261c2.336-3.23,5.142-6.022,8.234-8.5
						c3.079-2.489,6.508-4.56,10.156-6.154c1.826-0.791,3.705-1.476,5.637-1.979c0.967-0.244,1.925-0.492,2.966-0.638
						c1.021-0.143,2.037-0.197,3.046-0.199c4.033,0.036,7.968,0.755,11.77,1.967c1.897,0.628,3.771,1.351,5.536,2.499
						c0.441,0.286,0.871,0.621,1.28,1.021c0.205,0.197,0.399,0.432,0.582,0.685c0.184,0.279,0.331,0.576,0.426,0.874
						c0.342,1.112,0.41,2.076,0.516,3.081c0.314,3.96,0.273,7.859,0.207,11.769c-0.081,3.907-0.242,7.807-0.563,11.708
						c-0.08,0.976-0.17,1.951-0.293,2.935c-0.068,0.489-0.128,0.999-0.266,1.51c-0.046,0.157-0.024,0.212-0.013,0.236
						c0.014,0.031,0.11,0.117,0.282,0.169c0.714,0.218,1.728,0.131,2.642,0.017c0.935-0.127,1.884-0.319,2.799-0.552h0.001
						l-0.35,0.363c0.484-2.653,1.18-5.239,1.923-7.832c0.806-2.574,1.684-5.134,3.012-7.598c0.322-0.618,0.715-1.224,1.131-1.823
						c0.462-0.612,0.99-1.136,1.549-1.612c1.12-0.95,2.383-1.684,3.752-2.213c1.374-0.499,2.885-0.809,4.475-0.577
						c0.788,0.115,1.587,0.38,2.299,0.824c0.711,0.446,1.3,1.067,1.729,1.745c0.875,1.372,1.145,2.884,1.253,4.307
						c0.092,1.435-0.009,2.835-0.213,4.202c-0.421,2.658-0.898,5.315-1.634,7.925c-0.741,2.594-1.6,5.232-3.297,7.49
						c-0.442,0.546-0.953,1.062-1.582,1.437c-0.623,0.377-1.387,0.569-2.108,0.474C404.215,146.004,403.183,144.976,402.322,143.987
						z"/>
				</g>
				<g>
					<path class="sa6" d="M400.671,130.307c0.217-1.79,0.947-3.509,2.093-4.997c0.607-0.704,1.323-1.454,2.448-1.723
						c0.551-0.14,1.199-0.065,1.721,0.186c0.521,0.249,0.932,0.657,1.215,1.027c1.273,1.487,1.785,3.529,1.543,5.384
						c-0.227,1.865-1.111,3.598-2.421,4.812c0.908-1.531,1.426-3.215,1.431-4.877c0.011-1.659-0.525-3.26-1.569-4.457
						c-0.512-0.625-1.038-0.898-1.646-0.783c-0.619,0.129-1.305,0.606-1.871,1.194C402.446,127.252,401.492,128.729,400.671,130.307
						z"/>
				</g>
				<g>
					<path class="sa6" d="M404.858,124.793c0.321,0.928,0.434,1.917,0.33,2.858c-0.1,0.944-0.398,1.832-0.787,2.656
						c0.234-0.881,0.356-1.788,0.287-2.665c-0.065-0.877-0.328-1.709-0.744-2.444L404.858,124.793z"/>
				</g>
				<g>
					<path class="sa6" d="M345.852,165.218c5.405,0.396,10.894,0.161,16.323-0.436c2.716-0.308,5.423-0.721,8.098-1.296
						c2.67-0.584,5.326-1.303,7.83-2.435c-2.447,1.251-5.083,2.103-7.737,2.818c-2.661,0.707-5.364,1.253-8.083,1.694
						c-5.442,0.862-10.953,1.368-16.514,1.229c-0.435-0.011-0.779-0.373-0.768-0.808s0.373-0.779,0.808-0.768
						c0.012,0,0.023,0.001,0.035,0.002L345.852,165.218z"/>
				</g>
				<g>
					<path class="sa6" d="M350.659,176.909c2.21-0.745,4.455-1.775,6.614-2.848c2.169-1.088,4.289-2.284,6.375-3.542
						c2.079-1.27,4.12-2.609,6.115-4.017c2.001-1.402,3.944-2.885,5.868-4.398c-1.828,1.625-3.683,3.227-5.602,4.752
						c-1.914,1.532-3.882,3-5.898,4.406c-2.024,1.394-4.092,2.732-6.227,3.969c-2.152,1.232-4.297,2.39-6.672,3.355
						c-0.454,0.184-0.971-0.034-1.156-0.488c-0.184-0.454,0.034-0.971,0.488-1.156c0.016-0.006,0.032-0.012,0.048-0.018
						L350.659,176.909z"/>
				</g>
				<g>
					<path class="sa6" d="M351.619,165.605c0.369,0.601,0.467,0.991,0.657,1.471c0.161,0.458,0.306,0.915,0.445,1.373
						c0.271,0.916,0.503,1.84,0.703,2.774c0.201,0.933,0.357,1.879,0.439,2.849c0.043,0.484,0.063,0.975,0.026,1.485
						c-0.019,0.498-0.118,1.043-0.411,1.593l-0.855-0.518c0.259-0.595,0.203-1.571,0.08-2.432c-0.129-0.888-0.329-1.781-0.575-2.663
						c-0.244-0.882-0.521-1.759-0.832-2.619c-0.158-0.429-0.321-0.854-0.496-1.269c-0.165-0.382-0.389-0.879-0.529-1.065
						L351.619,165.605z"/>
				</g>
				<g>
					<path class="sa6" d="M352.493,169.974c2.779-0.224,5.553-0.922,8.2-1.919c2.651-1.004,5.185-2.333,7.561-3.913l0.004,0.006
						c-2.281,1.715-4.748,3.201-7.374,4.373c-2.628,1.166-5.396,2.044-8.291,2.449L352.493,169.974z"/>
				</g>
			</g>
			<g>
				<path class="sa6" d="M338.864,167.23c-3.873-1.931-7.259-4.659-10.379-7.574c-1.563-1.46-3.059-2.984-4.541-4.5
					c-0.742-0.756-1.479-1.515-2.228-2.236c-0.738-0.703-1.536-1.454-2.261-1.849l0.964-0.078l0,0c-3,2.298-5.489,5.289-7.546,8.521
					c-2.049,3.244-3.7,6.767-4.793,10.438c-0.537,1.834-0.939,3.714-1.05,5.587c-0.09,1.839,0.05,3.811,1.127,5.07
					c1.195,1.363,2.734,2.641,4.215,3.872c1.503,1.233,3.041,2.431,4.603,3.6c6.251,4.669,12.761,9.016,19.49,12.972
					c3.364,1.98,6.801,3.833,10.31,5.525c3.517,1.667,7.121,3.178,10.854,4.194l-0.252,0.968c-3.84-1.012-7.5-2.516-11.07-4.171
					c-3.56-1.68-7.038-3.52-10.44-5.485c-6.807-3.928-13.381-8.24-19.718-12.893c-1.583-1.165-3.146-2.361-4.681-3.6
					c-1.532-1.261-3.047-2.47-4.451-4.04c-0.754-0.847-1.146-1.964-1.338-2.989c-0.194-1.045-0.223-2.083-0.176-3.104
					c0.104-2.042,0.515-4.02,1.06-5.946c1.111-3.847,2.785-7.498,4.887-10.892c2.113-3.38,4.678-6.537,7.885-9.04l0,0l0.483-0.368
					l0.482,0.291c1.116,0.674,1.824,1.455,2.603,2.223c0.755,0.773,1.472,1.558,2.192,2.338c1.436,1.561,2.865,3.109,4.357,4.591
					c2.976,2.957,6.193,5.708,9.87,7.684L338.864,167.23z"/>
			</g>
			<g>
				<path class="sa6" d="M317.531,152.846c-1.315-1.401-2.721-2.793-3.712-4.576c-1.002-1.788-1.32-3.822-1.48-5.755
					c-0.039-0.495-0.055-0.981-0.13-1.387c-0.077-0.427-0.212-0.845-0.408-1.241c-0.381-0.797-0.961-1.508-1.634-2.123
					c-1.358-1.231-3.059-2.096-4.827-2.7c-1.778-0.595-3.647-0.929-5.525-1.012c-0.941-0.036-1.884-0.027-2.782,0.111
					c-0.897,0.136-1.765,0.42-2.426,0.938c-1.373,1.036-1.497,3.046-1.23,4.852c0.263,1.847,0.833,3.678,1.434,5.492
					c1.211,3.634,2.691,7.22,3.55,11.049c0.418,1.9,0.657,3.938,0.303,5.923c-0.092,0.497-0.178,1.026-0.536,1.567
					c-0.18,0.269-0.458,0.488-0.707,0.62c-0.251,0.138-0.476,0.229-0.685,0.327c-0.825,0.368-1.519,0.923-2.158,1.595
					c-0.638,0.685-1.229,1.378-1.519,2.197c-0.322,0.81-0.384,1.709-0.237,2.573c0.304,1.715,1.516,3.36,3.14,3.878
					c0.8,0.255,1.67,0.179,2.41-0.235l2.496-1.428c0.849-0.471,1.678-0.979,2.674-1.322c0.494-0.167,1.056-0.278,1.627-0.219
					c0.571,0.055,1.095,0.268,1.553,0.519l-0.486,0.874c-0.774-0.445-1.54-0.531-2.375-0.225c-0.831,0.282-1.665,0.778-2.495,1.242
					l-2.52,1.442c-0.944,0.534-2.149,0.646-3.182,0.308c-2.09-0.692-3.45-2.619-3.83-4.659c-0.178-1.03-0.103-2.124,0.287-3.109
					c0.366-1.009,1.063-1.817,1.73-2.531c0.682-0.725,1.52-1.396,2.461-1.814c0.472-0.218,0.842-0.359,0.992-0.612
					c0.184-0.264,0.294-0.71,0.367-1.154c0.324-1.828,0.109-3.694-0.295-5.544c-0.829-3.702-2.297-7.274-3.523-10.943
					c-0.608-1.838-1.195-3.703-1.478-5.675c-0.134-0.984-0.191-2.007,0.006-3.041c0.182-1.026,0.724-2.078,1.6-2.744
					c0.865-0.674,1.899-0.989,2.895-1.143c1.008-0.154,2-0.159,2.983-0.122c1.97,0.088,3.929,0.439,5.806,1.067
					c1.867,0.641,3.678,1.551,5.184,2.914c0.745,0.683,1.41,1.488,1.861,2.433c0.23,0.468,0.396,0.975,0.49,1.495
					c0.096,0.542,0.104,1.023,0.143,1.487c0.155,1.885,0.459,3.757,1.357,5.354c0.884,1.604,2.241,2.971,3.555,4.367
					L317.531,152.846z"/>
			</g>
			<path class="sa21" d="M316.142,188.708c0.901-16.152,11.453-28.436,12.869-29.852"/>
			<circle class="sa5" cx="311.332" cy="178.71" r="1.872"/>
			<circle class="sa5" cx="354.414" cy="250.78" r="1.872"/>
			<g>
				<path class="sa6" d="M357.494,191.794l2.344,10.242l-0.631-0.373l0,0c3.825-1.181,7.623-2.514,11.375-3.936
					c3.75-1.432,7.464-2.96,11.096-4.658c3.631-1.693,7.197-3.537,10.564-5.676c3.329-2.148,6.619-4.556,8.866-7.728l-0.059,0.587
					l-1.967-4.898l0.92-0.392l2.171,4.811l0.14,0.31l-0.199,0.277c-2.458,3.42-5.844,5.834-9.248,8.019
					c-3.44,2.163-7.051,4.008-10.721,5.698c-3.67,1.695-7.413,3.215-11.19,4.637c-3.783,1.413-7.59,2.73-11.463,3.907l0,0
					l-0.524,0.151l-0.108-0.524l-2.115-10.292L357.494,191.794z"/>
			</g>
			<g>
				<path class="sa6" d="M353.01,191.671c0.105,1.107,0.321,2.247,0.524,3.385c0.207,1.127,0.386,2.316,0.556,3.413
					c0.182,1.06,0.725,2.061,1.656,2.217c0.937,0.165,2.018-0.301,2.953-0.849l0.489,0.872c-0.54,0.272-1.088,0.529-1.691,0.705
					c-0.593,0.177-1.25,0.299-1.933,0.153c-0.686-0.136-1.296-0.607-1.655-1.161c-0.375-0.552-0.569-1.163-0.692-1.763
					c-0.196-1.184-0.37-2.278-0.592-3.421c-0.204-1.136-0.464-2.26-0.61-3.45L353.01,191.671z"/>
			</g>
			<g>
				<path class="sa6" d="M357.049,201.108c0.337,4.123,0.6,8.246,0.781,12.379c0.083,2.067,0.143,4.136,0.152,6.21
					c-0.018,2.079-0.02,4.145-0.372,6.271l-0.98-0.197c0.337-1.95,0.366-4.032,0.393-6.076c0.004-2.055-0.042-4.114-0.111-6.172
					c-0.153-4.117-0.388-8.238-0.697-12.346L357.049,201.108z"/>
			</g>
			<g>
				<path class="sa6" d="M360.734,201.754c-0.215,1.094,0.063,2.038,0.113,3.046c0.077,0.995,0.124,1.99,0.148,2.986
					c0.047,1.99,0.022,3.98-0.018,5.968c-0.08,3.978-0.268,7.945-0.472,11.925l-0.996-0.089c0.467-3.933,0.764-7.894,0.951-11.853
					c0.088-1.98,0.111-3.963,0.09-5.942c-0.015-0.99-0.051-1.978-0.118-2.963c-0.101-0.973-0.067-2-0.673-2.853L360.734,201.754z"/>
			</g>
			<g>
				<path class="sa6" d="M399.54,181.706c1.3,0.364,2.345,1.222,3.175,2.156c0.831,0.948,1.496,2.001,2.074,3.082
					c1.147,2.171,1.997,4.457,2.677,6.779c1.345,4.651,2.149,9.42,2.599,14.224c0.195,2.406,0.295,4.822,0.248,7.249
					c-0.042,2.404-0.262,4.919-0.763,7.273c-0.88,4.738-2.172,9.495-4.501,13.85c-2.272,4.356-5.75,8.223-10.06,10.66
					c-4.278,2.492-9.019,3.837-13.724,4.779c-4.721,0.957-9.479,1.49-14.221,2.047l-14.227,1.542l0.041-0.007
					c-0.755,0.095-1.202-0.255-1.601-0.516c-0.396-0.288-0.73-0.611-1.048-0.942c-0.629-0.667-1.176-1.381-1.691-2.112
					c-1.028-1.464-1.921-3.002-2.74-4.578c-1.61-3.16-2.975-6.457-3.825-9.936c-0.408-1.741-0.689-3.538-0.589-5.388
					c0.06-0.921,0.224-1.865,0.612-2.761c0.381-0.893,1.035-1.73,1.894-2.265c0.855-0.545,1.836-0.79,2.779-0.861l2.647-0.148
					c1.75-0.077,3.494-0.234,5.239-0.348c3.489-0.261,6.965-0.651,10.398-1.242c3.42-0.615,6.838-1.374,9.983-2.753
					c1.564-0.692,3.045-1.574,4.25-2.739c0.63-0.558,1.123-1.237,1.574-1.94c0.415-0.726,0.736-1.507,0.956-2.327
					c0.822-3.33,0.181-6.913,0.217-10.415c0.164,1.752,0.43,3.483,0.612,5.241c0.194,1.751,0.247,3.555-0.112,5.342
					c-0.191,0.889-0.497,1.76-0.916,2.582c-0.453,0.797-0.969,1.579-1.626,2.224c-1.283,1.326-2.858,2.293-4.479,3.063
					c-3.267,1.515-6.743,2.421-10.23,3.024c-3.491,0.611-7.005,1.014-10.522,1.287c-1.759,0.132-3.52,0.242-5.28,0.306l-2.616,0.114
					c-0.804,0.049-1.577,0.245-2.215,0.642c-1.309,0.776-1.881,2.413-1.995,4.055c-0.115,1.664,0.12,3.382,0.491,5.06
					c0.766,3.364,2.062,6.63,3.651,9.719c0.799,1.543,1.673,3.051,2.663,4.464c0.495,0.705,1.02,1.389,1.596,2.001
					c0.288,0.303,0.591,0.591,0.906,0.82c0.302,0.233,0.676,0.385,0.816,0.348l0.009-0.002l0.032-0.004
					c9.453-1.235,18.998-2.067,28.236-4.128c4.594-1.048,9.135-2.468,13.064-4.895c1.956-1.213,3.744-2.665,5.289-4.348
					c1.545-1.684,2.833-3.601,3.896-5.646c1.065-2.045,1.917-4.214,2.597-6.446c0.702-2.225,1.268-4.504,1.704-6.817
					c0.989-4.544,0.916-9.275,0.604-13.973c-0.32-4.698-0.99-9.397-2.182-13.944c-0.608-2.266-1.308-4.515-2.315-6.604
					c-0.502-1.041-1.082-2.043-1.788-2.919c-0.7-0.873-1.547-1.631-2.547-1.97L399.54,181.706z"/>
			</g>
			<path class="sa21" d="M355.799,226.064c-0.991,4.981,3.658,22.66,9.554,27.223"/>
			<g>
				<path class="sa6" d="M342.769,230.155c-2.36,0.334-4.713,0.673-7.035,1.112c-2.321,0.425-4.627,0.944-6.797,1.744
					c-2.13,0.795-4.285,1.897-5.332,3.694c-0.265,0.439-0.428,0.922-0.517,1.42c-0.105,0.487-0.074,1.018-0.06,1.614
					c0.048,1.148,0.168,2.285,0.443,3.361c0.281,1.071,0.706,2.09,1.376,2.92c0.663,0.833,1.519,1.511,2.511,2
					c1.994,0.977,4.324,1.379,6.642,1.656c2.333,0.261,4.703,0.357,7.076,0.432c2.374,0.083,4.756,0.127,7.139,0.172v1
					c-4.768,0.075-9.539,0.241-14.362-0.181c-2.401-0.228-4.864-0.602-7.178-1.715c-1.149-0.555-2.221-1.374-3.046-2.403
					c-0.837-1.027-1.355-2.258-1.684-3.481c-0.327-1.231-0.459-2.479-0.494-3.71c-0.009-0.591-0.044-1.264,0.1-1.948
					c0.124-0.671,0.36-1.333,0.714-1.913c0.689-1.181,1.718-2.064,2.789-2.731c1.081-0.669,2.221-1.183,3.384-1.575
					c4.664-1.56,9.472-1.988,14.21-2.46L342.769,230.155z"/>
			</g>
			<g>
				<path class="sa6" d="M360.74,253.948c0.34,2.422,0.646,4.843,0.842,7.324c0.081,1.244,0.143,2.506,0.042,3.837
					c-0.08,1.327-0.455,2.748-1.007,3.954c-0.135,0.3-0.28,0.592-0.424,0.877c-0.134,0.263-0.324,0.609-0.382,0.764
					c-0.173,0.394-0.311,0.885-0.398,1.417c-0.179,1.066-0.229,2.235-0.25,3.428c-0.027,1.201,0.001,2.409-0.097,3.745l-0.02,0.253
					l-0.003,0.032l0.008-0.077c0.004-0.058-0.002-0.126-0.009-0.176c0-0.055-0.032-0.149-0.035-0.165
					c-0.043-0.12-0.035-0.065,0.011-0.013c0.081,0.114,0.251,0.291,0.428,0.452c0.364,0.331,0.809,0.656,1.272,0.956
					c1.877,1.207,4.068,2.098,6.297,2.784c2.241,0.683,4.562,1.154,6.91,1.459c4.703,0.61,9.5,0.537,14.265,0.105
					c2.384-0.224,4.761-0.564,7.125-0.992c2.145-0.36,4.1-1.445,5.777-2.973c0.84-0.758,1.614-1.614,2.335-2.527
					c0.361-0.456,0.707-0.929,1.043-1.412l0.251-0.365l0.057-0.084c-0.029,0.033-0.057,0.104-0.062,0.12
					c-0.007,0.018-0.001,0.013,0.007-0.031c0.036-0.148,0.062-0.44,0.074-0.707c0.065-2.278-0.149-4.752-0.337-7.151
					c-0.881-9.669-2.023-19.363-3.236-29.028l0.988-0.157c0.887,4.803,1.728,9.612,2.456,14.441
					c0.75,4.826,1.434,9.661,1.969,14.533c0.251,2.454,0.538,4.844,0.536,7.444c-0.011,0.341-0.015,0.661-0.098,1.111
					c-0.019,0.106-0.054,0.247-0.112,0.409c-0.031,0.087-0.1,0.224-0.161,0.326l-0.069,0.106l-0.259,0.394
					c-0.349,0.524-0.713,1.043-1.097,1.552c-0.769,1.016-1.614,1.995-2.565,2.891c-1.873,1.794-4.312,3.246-6.991,3.749
					c-2.426,0.483-4.874,0.877-7.341,1.151c-4.931,0.569-9.95,0.603-14.926-0.024c-2.487-0.321-4.962-0.818-7.387-1.555
					c-2.423-0.748-4.802-1.693-7.036-3.121c-0.559-0.363-1.106-0.755-1.646-1.242c-0.272-0.251-0.537-0.505-0.818-0.882
					c-0.136-0.191-0.29-0.399-0.435-0.807c-0.033-0.086-0.071-0.258-0.089-0.387c-0.01-0.087-0.014-0.193-0.012-0.29l0.01-0.159
					l0.02-0.203c0.104-1.095,0.105-2.328,0.153-3.563c0.046-1.242,0.113-2.517,0.36-3.853c0.125-0.667,0.311-1.362,0.643-2.077
					l0.838-1.625c0.498-0.996,0.798-1.953,0.92-3.06c0.133-1.097,0.131-2.28,0.103-3.47c-0.049-2.389-0.221-4.823-0.341-7.254
					L360.74,253.948z"/>
			</g>
			<g>
				<path class="sa6" d="M361.412,283.01c-0.051,16.899,0.138,33.813,0.688,50.701c0.287,8.443,0.663,16.884,1.299,25.294
					c0.324,4.203,0.707,8.401,1.27,12.558c0.286,2.075,0.611,4.145,1.061,6.16c0.226,1.004,0.481,2.001,0.808,2.932
					c0.164,0.463,0.347,0.912,0.555,1.3c0.191,0.381,0.487,0.712,0.562,0.735l-0.506-0.124c2.459,0.017,4.972,0.284,7.37,1.101
					c2.4,0.79,4.63,2.138,6.488,3.793c1.877,1.637,3.411,3.536,5.04,5.094c0.818,0.766,1.667,1.443,2.587,1.882
					c0.92,0.436,1.908,0.652,2.947,0.645h0.036l0.05,0.003c2.428,0.139,5.291,0.333,5.762-1.245
					c0.368-0.864,0.464-2.107,0.492-3.318c0.026-1.226-0.018-2.487-0.071-3.75c-0.248-5.066-0.585-10.194-0.747-15.31
					c-0.134-5.122-0.423-10.116-1.016-15.198c-0.566-5.149-0.519-10.349-0.453-15.439c0.035-5.088,0.08-10.24,0.313-15.353
					c0.04-1.278,0.142-2.575,0.133-3.773l-0.011-3.843c0.031-1.319,0.018-2.573,0.308-4.084c0.37-1.48,0.937-2.655,1.532-3.856
					c1.201-2.364,2.577-4.465,3.462-6.705c0.928-2.265,1.605-4.648,1.988-7.054c0.776-4.795,0.191-9.829-2.397-13.805l2.307-1.476
					c1.485,2.319,2.427,4.968,2.838,7.655c0.422,2.692,0.321,5.414-0.093,8.046c-0.429,2.635-1.167,5.194-2.182,7.649
					c-1.013,2.513-2.467,4.703-3.579,6.887c-0.55,1.075-1.074,2.231-1.323,3.232c-0.202,0.997-0.236,2.314-0.257,3.542l-0.002,3.816
					c0.001,1.356-0.105,2.606-0.149,3.879c-0.248,5.089-0.309,10.15-0.362,15.273c-0.085,5.114-0.157,10.152,0.371,15.165
					c0.57,5.066,0.845,10.277,0.956,15.363c0.144,5.092,0.461,10.157,0.695,15.29c0.049,1.287,0.091,2.579,0.059,3.906
					c-0.057,1.326-0.084,2.692-0.705,4.2c-0.312,0.747-0.949,1.52-1.728,1.939c-0.772,0.43-1.55,0.582-2.265,0.671
					c-1.425,0.137-2.736,0.057-4.033-0.027l0.085,0.003c-1.338,0.01-2.727-0.291-3.95-0.883c-1.226-0.593-2.246-1.434-3.155-2.289
					c-1.793-1.738-3.252-3.562-4.961-5.055c-1.686-1.508-3.603-2.667-5.717-3.375c-2.107-0.728-4.382-0.985-6.663-1.009l-0.3-0.003
					l-0.206-0.121c-0.857-0.503-1.159-1.109-1.472-1.642c-0.289-0.545-0.5-1.081-0.687-1.614c-0.37-1.066-0.633-2.124-0.868-3.182
					c-0.463-2.116-0.785-4.229-1.069-6.343c-0.556-4.228-0.926-8.457-1.236-12.688c-0.607-8.461-0.952-16.924-1.208-25.386
					c-0.487-16.927-0.612-33.848-0.498-50.779L361.412,283.01z"/>
			</g>
			<g>
				<path class="sa6" d="M361.132,293.826c0.319,3.808,0.026,7.69-0.741,11.48c-0.788,3.787-2.04,7.483-3.615,10.995
					c-1.535,3.533-3.412,6.876-5.179,10.158c-0.87,1.646-1.738,3.265-2.467,4.872c-0.72,1.603-1.283,3.219-1.414,4.683
					c-0.068,0.732-0.007,1.408,0.139,2.044c0.054,0.278,0.252,0.754,0.373,1.129c0.126,0.396,0.285,0.799,0.469,1.209
					c0.66,1.627,1.515,3.273,2.352,4.911c1.675,3.302,3.518,6.586,5.236,9.95c0.861,1.683,1.713,3.375,2.542,5.082
					c0.802,1.724,1.582,3.459,2.326,5.215c1.425,3.533,2.726,7.167,3.36,10.956l-0.965,0.261
					c-2.756-6.932-6.698-13.25-10.537-19.682c-1.949-3.204-3.884-6.427-5.757-9.759c-0.899-1.698-1.81-3.379-2.595-5.226
					c-0.207-0.447-0.4-0.914-0.571-1.412l-0.267-0.731c-0.089-0.226-0.177-0.505-0.257-0.813c-0.319-1.188-0.351-2.418-0.238-3.556
					c0.252-2.29,1.031-4.25,1.862-6.06c0.841-1.813,1.788-3.492,2.759-5.125c1.933-3.265,3.852-6.425,5.58-9.674
					c3.457-6.478,5.871-13.463,6.604-20.916L361.132,293.826z"/>
			</g>
			<g>
				<path class="sa6" d="M366.719,384.562c-4.021-1.605-8.277-2.578-12.466-2.37c-2.085,0.1-4.149,0.51-6.032,1.288
					c-0.944,0.384-1.827,0.883-2.629,1.462c-0.395,0.295-0.768,0.612-1.104,0.954l-0.245,0.261l-0.175,0.229
					c-0.107,0.169-0.222,0.337-0.306,0.543c-0.729,1.642-0.757,3.86-0.627,5.939c0.146,2.114,0.492,4.244,0.962,6.34
					c0.236,1.047,0.502,2.091,0.814,3.103c0.155,0.499,0.326,1.013,0.506,1.433l0.061,0.129l0.007,0.016
					c-0.011-0.024-0.03-0.057-0.048-0.084c-0.04-0.059-0.089-0.107-0.1-0.119c-0.056-0.052-0.078-0.066-0.09-0.074
					c-0.045-0.023,0.053,0.026,0.137,0.051c0.184,0.063,0.431,0.121,0.675,0.171c2.028,0.386,4.243,0.552,6.403,0.716
					c8.709,0.567,17.491,0.77,26.234,0.544c4.363-0.154,8.758-0.293,13.021-0.979c1.052-0.185,2.121-0.4,3.046-0.773
					c0.227-0.094,0.443-0.2,0.616-0.316c0.081-0.058,0.161-0.118,0.207-0.171c0.033-0.026,0.105-0.146,0.175-0.259
					c0.288-0.434,0.531-0.892,0.754-1.359c0.863-1.854,1.083-4.102,0.463-5.993l0.922-0.386c0.819,2.277,0.598,4.707-0.302,6.855
					c-0.234,0.531-0.499,1.048-0.807,1.537c-0.074,0.12-0.132,0.243-0.285,0.421c-0.133,0.156-0.273,0.264-0.412,0.37
					c-0.278,0.197-0.556,0.339-0.832,0.463c-1.104,0.477-2.2,0.717-3.3,0.946c-4.397,0.819-8.8,1.122-13.206,1.332
					c-4.405,0.197-8.81,0.266-13.215,0.251c-4.406-0.022-8.81-0.109-13.223-0.401c-2.217-0.16-4.394-0.297-6.686-0.717
					c-0.294-0.061-0.584-0.123-0.921-0.232c-0.175-0.062-0.338-0.108-0.616-0.277c-0.07-0.045-0.148-0.097-0.253-0.199
					c-0.039-0.034-0.107-0.11-0.166-0.197l-0.078-0.125l-0.015-0.03l-0.117-0.242c-0.256-0.588-0.429-1.119-0.604-1.666
					c-0.34-1.085-0.622-2.169-0.875-3.262c-0.502-2.185-0.877-4.4-1.048-6.667c-0.08-1.134-0.112-2.281-0.025-3.452
					c0.104-1.169,0.264-2.37,0.817-3.579c0.126-0.301,0.309-0.599,0.5-0.889l0.326-0.425l0.317-0.342
					c0.431-0.444,0.895-0.841,1.378-1.205c0.974-0.714,2.032-1.274,3.124-1.711c2.183-0.895,4.516-1.258,6.813-1.296
					c4.619-0.044,9.076,1.368,12.958,3.538L366.719,384.562z"/>
			</g>
			<path class="sa21" d="M357.59,254.291c-0.088,1.567,0.507,2.794-2.418,6.853c3.035-0.624,4.835-3.744,4.835-3.744"/>
			<g>
				<path class="sa6" d="M398.488,366.803l6.793,4.192c1.128,0.75,2.297,1.428,3.432,2.519c0.544,0.558,1.197,1.193,1.51,2.366
					c0.046,0.283,0.113,0.644,0.089,0.871l-0.08,0.681c-0.041,0.481-0.191,0.827-0.306,1.22c-0.525,1.489-1.241,2.729-2.044,3.881
					c-0.792,1.156-1.643,2.244-2.554,3.267c-1.808,2.06-3.753,3.952-5.905,5.641l-0.714-0.7c1.554-2.181,3.161-4.313,4.651-6.477
					c0.75-1.08,1.46-2.174,2.128-3.264c0.646-1.097,1.243-2.221,1.585-3.265c0.285-1.257,0.417-1.152-0.454-2.119
					c-0.784-0.786-1.847-1.618-2.891-2.43c-2.094-1.659-4.217-3.47-5.913-5.642L398.488,366.803z"/>
			</g>
			<path class="sa21" d="M353.079,193.935c-0.202-0.831-0.055-1.741,0.398-2.466"/>
			<path class="sa21" d="M398.568,374.025c-0.075-0.207-0.15-0.414-0.225-0.62"/>
		</g>
		<path class="sa22" d="M355.571,357.116c1.238,2.304,2.493,4.609,3.45,7.048c0.266,0.677,0.647,1.3,1.046,1.906
			c0.364,0.552,0.532,1.051,0.797,1.648c0.618,1.39,1.333,2.736,2.14,4.026c0.042,0.067,0.123,0.142,0.186,0.095
			c0.032-0.024,0.039-0.069,0.042-0.108c0.162-1.711-0.028-3.352-0.081-5.056c-0.038-1.228-0.162-2.451-0.285-3.674
			c-0.284-2.813-0.568-5.626-0.852-8.439c-0.108-1.074-0.204-2.065-0.185-3.146c0.02-1.157,0.023-2.315,0.016-3.473
			c-0.017-3.022-0.098-6.044-0.109-9.066c-0.01-2.801-0.376-5.58-0.546-8.384c-0.249-4.089,0.133-8.189-0.035-12.264
			c-0.108-2.615-0.215-5.23-0.323-7.845c-0.027-0.662-0.097-1.337-0.081-1.999c0.01-0.398,0.135-0.761,0.096-1.161
			c-0.12-1.245-0.458-2.513-0.735-3.731c-1.587,5.509-4.017,11.001-6.951,15.903c-3,5.011-6.191,9.32-7.948,15.017
			c-0.294,0.953-0.554,1.949-0.424,2.938c0.117,0.887,0.538,1.7,0.952,2.492C348.844,345.772,352.441,351.292,355.571,357.116z"/>
		<path class="sa22" d="M405.649,383.585c0.799-1.792,1.338-3.888,2.081-5.682c0.304-0.735,0.614-1.5,0.576-2.295
			c-0.056-1.148-0.836-2.143-1.735-2.86c-1.489-1.187-6.522-5.819-8.085-3.436c-1.034,1.576,0.585,4.645,0.79,6.302
			c0.566,4.583-0.365,9.849,0.403,14.452c-0.068-0.41,5.131-4.827,5.586-5.688C405.4,384.123,405.527,383.857,405.649,383.585z"/>
		<path class="sa22" d="M366.934,384.111c3.451,0.983,10.945,5.535,13.316,10.078s11.145,7.775,17.325,5.813
			c0.769-3.105-0.134-4.947-0.134-4.947s-4.09,2.509-6.492,1.266s-6.065-4.073-9.497-6.909c-3.431-2.836-6.932-4.581-6.932-4.581
			l-7.091-0.953L366.934,384.111z"/>
		<path class="sa22" d="M360.489,287.366c6.131,4.013,20.564,6.623,27.661,5.791c12.338-1.446,16.657-4.853,16.657-4.853
			l-2.05-6.423c0,0-3.378,2.893-9.106,3.746s-20.915,0.471-20.915,0.471l-8.705-2.89l-3.522-1.118L360.489,287.366z"/>
		<path class="sa22" d="M360.401,258.492l-0.613-4.452l9.372-0.753c0,0,19.816-3.598,26.398-7.239
			c3.44-1.903,5.954-6.152,5.954-6.152l1.584,9.012c0,0-4.074,3.681-11.559,5.959c-10.457,3.183-26.605,4.602-31.027,4.236
			L360.401,258.492z"/>
		<path class="sa22" d="M382.09,206.637c0.161,1.856-1.149,7.113-4.862,11.109c-3.174,3.416-8.41,6.388-9.236,6.567
			s3.662-0.733,5.92-1.766c1.108-0.507,2.211-1.025,3.28-1.613c0.629-0.346,1.245-0.714,1.84-1.117
			c0.528-0.357,0.919-0.929,1.304-1.445c0.54-0.724,0.948-1.534,1.313-2.357c0.339-0.764,0.55-1.391,0.546-2.249
			c-0.005-1.148,0.257-2.29,0.17-3.456C382.365,210.308,382.09,206.637,382.09,206.637z"/>
		<path class="sa22" d="M360.785,204.23c-0.007-0.436-0.836-1.989-0.374-2.36c-0.27,0.217-0.601,0.358-0.945,0.403
			c-0.059-0.281-0.806-4.386-1.074-4.356c6.742-0.739,21.616-5.478,25.219-7.471c5.907-3.268,17.517-11.104,17.194-12.025
			c-0.249-0.71-0.736-0.91-1.109-1.565c-0.209-0.367-0.458-0.766-0.866-0.874c-0.578-0.153-1.099,0.346-1.541,0.75
			c-1.852,1.691-4.476,2.886-6.604,4.233c-2.018,1.277-4.044,2.558-6.22,3.54c-3.118,1.406-6.325,2.636-9.439,4.032
			c-2.919,1.309-6.376,2.139-9.543,2.616c-4.403,0.662-8.92,0.452-13.279,1.359c0.704,2.357,2.488,4.221,4.311,5.872
			c0.559,0.506,1.351,1.006,1.696,1.698c0.575,1.154-1.276,0.574-1.583,1.085c-0.055,0.091-0.058,0.202-0.06,0.308
			c0,0.506-0.027,1.037,0.054,1.536c0.283,0.065,0.585-0.081,0.893-0.022c0.275,0.053,0.534,0.159,0.765,0.317
			c0.465,0.317,0.77,0.813,1.011,1.309c0.525,1.081,0.756,2.348,1.523,3.299c-0.33-0.41-0.07-1.881-0.048-2.368
			C360.787,205.098,360.791,204.662,360.785,204.23z"/>
		<path class="sa22" d="M407.382,128.639c1.237,1.657,1.262,2.848,1.361,3.715c1.431-3.437-0.1-5.805-1.593-7.377
			c-0.154-0.162-0.321-0.318-0.524-0.409c-0.228-0.103-1.188-0.396-1.438-0.386c-1.803,0.075-3.222,3.589-4.126,5.024
			c2.23-1.367,3.092-1.448,3.881-1.556C406.457,127.444,407.105,128.269,407.382,128.639z"/>
		<path class="sa22" d="M412.841,134.997c-0.395,8.538,3.256,24.642,6.912,27.108c-0.177-0.12-0.864,0.007-1.086,0.011
			c-0.362,0.007-0.724,0.018-1.085,0.033c-0.754,0.03-1.506,0.075-2.258,0.134c-1.245,0.097-2.413,0.24-3.604,0.636
			c-0.54,0.18-0.998,0.555-1.568,0.657c-0.045,0.008-0.1,0.011-0.127-0.026c-0.019-0.026-0.016-0.062-0.011-0.094
			c0.11-0.771,0.056-1.508,0.165-2.284c0.454-3.246,0.428-6.558-0.077-9.796c-0.227-1.458-0.362-2.909-0.53-4.377
			c-0.069-0.603-0.149-1.204-0.241-1.804c-0.02-0.131-0.166-0.545-0.11-0.671c0.001-0.002,2.733-6.124,2.733-6.124L412.841,134.997z
			"/>
		<path class="sa22" d="M353.117,173.058c0,0,10.172-4.833,14.165-4.227c3.594-2.841,8.42-6.721,8.42-6.721l-7.67,2.185
			c0,0-2.696,2.35-13.091,5.883c-2.287,0.777-2.398,0.294-2.398,0.294l0.69,2.953"/>
		<path class="sa22" d="M342.824,239.676c-0.352,5.095-5.557,11.06-7.939,10.801c7.935-0.306,10.536,0.306,10.591,0.304
			s2.739,0,2.739,0l-2.271-3.81l-1.573-3.36L342.824,239.676z"/>
		<path class="sa22" d="M312.17,157.894c-2.684,1.677-6.362,7.375-8.035,11.583c-2.11,0.578-4.384,3.564-5.755,5.682h0.629
			c0,0,2.309-1.328,4.362-2.377s3.118,0.643,3.118,0.643l1.107-4.597C308.506,166.289,312.17,157.894,312.17,157.894z"/>
		<path class="sa22" d="M401.61,183.556l-1.789-1.371l-5.504,4.547c1.721-1.235,9.397-0.506,9.947,0.664"/>
	</g>
</g>
</svg>
