<?xml version="1.0" encoding="utf-8"?>
<!-- Generator: Adobe Illustrator 23.0.4, SVG Export Plug-In . SVG Version: 6.00 Build 0)  -->
<svg version="1.1" id="Layer_1" xmlns="http://www.w3.org/2000/svg" xmlns:xlink="http://www.w3.org/1999/xlink" x="0px" y="0px"
	 viewBox="0 0 36 36" style="enable-background:new 0 0 36 36;" xml:space="preserve">
<style type="text/css">
	.st0{fill:#FFFFFF;}
	.st1{fill:#DC3645;}
</style>
<rect class="st0" width="36" height="36"/>
<path class="st1" d="M29.565,14.44l-16.852,0.112l2.519-2.519c1.342-1.342,1.342-3.527,0-4.869s-3.527-1.342-4.869,0L2.27,15.257
	c-0.679,0.679-1.071,1.567-1.122,2.525L1.14,17.8l-0.001,0.262c-0.001,0.324,0.072,0.579,0.114,0.728
	c0.173,0.801,0.512,1.454,1.014,1.957l8.092,8.093c1.347,1.34,3.532,1.337,4.873-0.004c1.342-1.342,1.342-3.527,0-4.869
	l-2.528-2.528l16.905-0.112c0.913-0.006,1.769-0.365,2.414-1.01c0.657-0.657,1.015-1.53,1.009-2.459
	C33.018,15.962,31.465,14.428,29.565,14.44z"/>
</svg>
