<?xml version="1.0" encoding="utf-8"?>
<!-- Generator: Adobe Illustrator 23.0.4, SVG Export Plug-In . SVG Version: 6.00 Build 0)  -->
<svg version="1.1" id="Layer_1" xmlns="http://www.w3.org/2000/svg" xmlns:xlink="http://www.w3.org/1999/xlink" x="0px" y="0px"
	 viewBox="0 0 50 24.001" style="enable-background:new 0 0 50 24.001;" xml:space="preserve">
<style type="text/css">
	.st0{fill:#81230F;}
	.st1{opacity:0.6;}
	.st2{fill:#ED1C24;}
	.st3{fill:#4E4E4E;}
</style>
<g>
	<g>
		<path class="st0" d="M24.409,24.001c6.609,0,12-5.391,12-12S31.019,0,24.409,0s-12,5.391-12,12S17.8,24.001,24.409,24.001z"/>
	</g>
	<g class="st1">
		<path class="st2" d="M24.409,22.334c5.692,0,10.334-4.642,10.334-10.334S30.101,1.666,24.409,1.666S14.075,6.308,14.075,12
			C14.075,17.692,18.717,22.334,24.409,22.334z"/>
	</g>
	<g>
		<path class="st3" d="M28.034,18.798c-0.097,0-0.194-0.039-0.265-0.116c-0.753-0.808-1.846-1.275-3.076-1.315
			c-1.362-0.043-2.728,0.454-3.659,1.331c-0.146,0.137-0.376,0.131-0.513-0.015c-0.137-0.146-0.13-0.376,0.015-0.513
			c1.084-1.022,2.61-1.581,4.18-1.528c1.425,0.046,2.698,0.594,3.584,1.545c0.137,0.146,0.128,0.376-0.018,0.513
			C28.212,18.765,28.122,18.798,28.034,18.798z"/>
	</g>
	<g>
		<circle class="st3" cx="21.061" cy="9.358" r="1.613"/>
		<circle class="st3" cx="27.757" cy="9.358" r="1.613"/>
	</g>
</g>
</svg>
