<?xml version="1.0" encoding="utf-8"?>
<!-- Generator: Adobe Illustrator 23.0.4, SVG Export Plug-In . SVG Version: 6.00 Build 0)  -->
<svg version="1.1" id="Capa_1" xmlns="http://www.w3.org/2000/svg" xmlns:xlink="http://www.w3.org/1999/xlink" x="0px" y="0px"
	 viewBox="0 0 50 50" style="enable-background:new 0 0 50 50;" xml:space="preserve">
<style type="text/css">
	.st0{fill:#231F20;}
</style>
<path class="st0" d="M40.605,33.832l-9.884-5.632c-1.177-0.671-2.602-0.534-3.628,0.229c0.095-0.564-0.159-1.155-0.683-1.454
	l-0.321-0.183c-0.171-0.097-0.354-0.154-0.539-0.174c0.447-1.267,0.703-2.623,0.703-4.043c0-6.714-5.442-12.156-12.156-12.156
	c-6.714,0-12.156,5.442-12.156,12.156c0,6.714,5.442,12.156,12.156,12.156c3.346,0,6.376-1.353,8.574-3.541
	c0.119,0.247,0.31,0.462,0.565,0.607l0.321,0.183c0.524,0.299,1.161,0.215,1.599-0.153c-0.134,1.271,0.475,2.567,1.652,3.238
	l9.884,5.632c1.584,0.903,3.62,0.345,4.523-1.239l0.629-1.104C42.747,36.77,42.19,34.735,40.605,33.832z M14.098,31.953
	c-5.179,0-9.378-4.199-9.378-9.378s4.199-9.378,9.378-9.378s9.378,4.199,9.378,9.378S19.277,31.953,14.098,31.953z"/>
</svg>
