<?xml version="1.0" encoding="utf-8"?>
<!-- Generator: Adobe Illustrator 23.0.4, SVG Export Plug-In . SVG Version: 6.00 Build 0)  -->
<svg version="1.1" id="Layer_1" xmlns="http://www.w3.org/2000/svg" xmlns:xlink="http://www.w3.org/1999/xlink" x="0px" y="0px"
	 viewBox="0 0 50 50" style="enable-background:new 0 0 50 50;" xml:space="preserve">
<g>
	<path d="M46.231,11.467c-0.057-0.673-0.123-1.345-0.184-2.017c-0.063-0.705-0.449-1.139-1.105-1.376
		c-3.17-1.147-6.338-2.301-9.507-3.452c-3.272-1.188-6.544-2.375-9.816-3.565c-0.085-0.031-0.163-0.082-0.245-0.123
		c-0.251,0-0.503,0-0.754,0c-1.422,0.53-2.841,1.069-4.268,1.587c-5.07,1.842-10.142,3.681-15.216,5.512
		c-0.725,0.262-1.132,0.724-1.21,1.509c-0.411,4.118-0.573,8.239-0.254,12.373c0.308,3.979,1.017,7.872,2.46,11.607
		c1.988,5.148,5.097,9.425,9.792,12.438c2.539,1.63,5.296,2.718,8.293,3.16c0.073,0.011,0.142,0.053,0.213,0.081
		c0.377,0,0.754,0,1.131,0c0.656-0.14,1.318-0.255,1.967-0.424c6.36-1.657,11.057-5.479,14.348-11.099
		c2.106-3.595,3.29-7.514,3.952-11.603C46.616,21.225,46.645,16.352,46.231,11.467z M41.594,30.889
		c-1.273,3.932-3.228,7.458-6.285,10.296c-2.844,2.64-6.169,4.359-10.025,4.93c-0.666,0.099-1.403-0.097-2.079-0.27
		c-5.267-1.353-9.235-4.468-12.1-9.039c-2.003-3.197-3.157-6.715-3.828-10.404c-0.896-4.92-0.895-9.87-0.526-14.839
		c0.058-0.774,0.351-1.045,1.017-1.283c5.612-2.006,11.209-4.051,16.818-6.067c0.249-0.089,0.587-0.084,0.837,0.006
		c5.74,2.066,11.472,4.155,17.213,6.219c0.413,0.149,0.544,0.349,0.563,0.768c0.095,2.008,0.223,4.014,0.282,5.043
		C43.47,21.868,43.031,26.448,41.594,30.889z"/>
	<path d="M31.879,21.301c-0.215-0.009-0.43-0.001-0.692-0.001c0-0.225,0-0.394,0-0.563c0-1.304,0.013-2.608-0.003-3.912
		c-0.029-2.374-1.577-4.264-3.903-4.512c-1.505-0.161-3.044-0.078-4.563,0.001c-0.569,0.03-1.17,0.274-1.673,0.566
		c-1.547,0.899-2.24,2.312-2.242,4.082c-0.002,1.427,0,2.853,0,4.337c-0.26,0-0.447-0.005-0.634,0.001
		c-1.235,0.038-2.212,0.996-2.218,2.235c-0.014,3.048-0.014,6.095,0.002,9.143c0.006,1.203,0.997,2.188,2.205,2.191
		c4.556,0.012,9.111,0.012,13.667,0c1.195-0.003,2.197-0.951,2.208-2.138c0.028-3.094,0.027-6.189,0.002-9.284
		C34.027,22.282,33.041,21.348,31.879,21.301z M26.244,27.59c-0.252,0.212-0.314,0.418-0.309,0.717
		c0.014,0.957,0.008,1.914,0.004,2.87c-0.002,0.53-0.143,0.669-0.663,0.678c-1.225,0.021-1.225,0.021-1.22-1.201
		c0.001-0.329,0-0.659,0-0.988c-0.001-0.267-0.005-0.533,0-0.8c0.01-0.555,0.006-1.03-0.489-1.499
		c-0.744-0.705-0.575-1.931,0.203-2.596c0.795-0.679,1.986-0.589,2.658,0.203C27.094,25.758,27.032,26.928,26.244,27.59z
		 M28.144,21.275c-2.126,0-4.195,0-6.319,0c0-0.536,0-1.05,0-1.564c0-0.927-0.006-1.854,0-2.78c0.007-1.085,0.585-1.664,1.657-1.666
		c1.068-0.002,2.137-0.01,3.205,0.003c0.772,0.009,1.418,0.522,1.443,1.275C28.179,18.108,28.144,19.676,28.144,21.275z"/>
</g>
</svg>
