<svg xmlns="http://www.w3.org/2000/svg" xmlns:xlink="http://www.w3.org/1999/xlink" viewBox="0 0 690 90">
<g>
	<path d="M34.35,7.02l-0.025-0.023c-1.796-1.585-3.823-2.81-6.022-3.645c-4.4-1.665-8.97-1.665-13.369,0
		c-2.203,0.834-4.197,2.064-5.93,3.655c-1.808,1.67-3.274,3.782-4.353,6.277c-1.08,2.491-1.627,5.392-1.627,8.62v41.082
		c0,3.375,0.551,6.316,1.632,8.738c1.083,2.425,2.552,4.464,4.338,6.038c1.733,1.672,3.734,2.941,5.942,3.777
		c2.195,0.829,4.446,1.253,6.684,1.253s4.488-0.422,6.686-1.253c2.203-0.834,4.234-2.102,6.035-3.764
		c1.74-1.598,3.168-3.634,4.249-6.051c1.081-2.422,1.632-5.363,1.632-8.738V21.904c0-3.226-0.548-6.128-1.627-8.62
		C37.51,10.799,36.085,8.69,34.35,7.02z M28.003,62.989c0,2.448-0.63,4.25-1.871,5.362c-1.283,1.15-2.76,1.71-4.516,1.71
		s-3.233-0.56-4.516-1.711c-1.241-1.108-1.869-2.911-1.869-5.36V21.906c0-2.447,0.63-4.25,1.869-5.36
		c1.284-1.15,2.76-1.71,4.516-1.71s3.231,0.56,4.516,1.708c1.243,1.115,1.871,2.918,1.871,5.362
		C28.003,21.906,28.003,62.989,28.003,62.989z"/>
	<polygon points="39.838,14.838 52.122,14.838 52.122,82.142 64.333,82.142 64.333,14.838 76.617,14.838 76.617,2.755 39.838,2.755
			"/>
	<rect x="78.428" y="2.755" width="12.209" height="79.386"/>
	<path d="M122.778,3.704C120.495,2.64,117.95,2.1,115.207,2.1c-3.23,0-6.066,0.598-8.424,1.778c-2.356,1.18-4.322,2.784-5.831,4.747
		c-1.59,1.968-2.794,4.34-3.582,7.05c-0.781,2.68-1.177,5.55-1.177,8.527c0,4.978,0.814,9.195,2.421,12.528
		c1.638,3.405,4.875,6.163,9.614,8.197l7.591,3.275c1.278,0.565,2.309,1.099,3.069,1.584c0.693,0.442,1.255,1.018,1.647,1.662
		c0.367,0.709,0.621,1.682,0.751,2.886c0.134,1.283,0.204,2.946,0.204,4.943c0,1.706-0.051,3.284-0.154,4.694
		c-0.096,1.299-0.397,2.423-0.896,3.338c-0.482,0.889-1.143,1.554-2.019,2.029c-0.891,0.48-2.18,0.723-3.838,0.723
		c-2.453,0-4.129-0.695-5.124-2.119c-1.06-1.517-1.574-3.172-1.574-5.061v-4.295H95.676v4.949c0,2.72,0.493,5.269,1.467,7.575
		c0.97,2.301,2.301,4.35,3.954,6.085c1.668,1.751,3.684,3.137,5.992,4.118c2.308,0.983,4.83,1.483,7.495,1.483
		c3.504,0,6.532-0.616,8.994-1.829c2.467-1.219,4.493-2.921,6.022-5.065c1.442-2.038,2.499-4.544,3.147-7.442
		c0.635-2.855,0.957-5.983,0.957-9.296c0-2.838-0.142-5.425-0.424-7.694c-0.289-2.291-0.831-4.367-1.639-6.207
		c-0.876-1.761-2.095-3.333-3.624-4.671c-1.517-1.328-3.519-2.494-5.942-3.468l-8.119-3.386c-1.323-0.555-2.372-1.111-3.117-1.658
		c-0.695-0.505-1.228-1.112-1.584-1.798c-0.369-0.713-0.603-1.534-0.697-2.447c-0.099-0.993-0.153-2.253-0.153-3.743
		c0-1.261,0.099-2.486,0.303-3.635c0.19-1.103,0.541-2.099,1.028-2.931c0.497-0.783,1.134-1.417,1.949-1.944
		c0.765-0.495,1.811-0.746,3.104-0.746c2.435,0,4.102,0.788,5.1,2.408c1.062,1.72,1.602,3.804,1.602,6.191v3.309h12.211v-6.261
		c0-4.697-1.682-8.922-5.01-12.568C127.034,6.18,125.044,4.762,122.778,3.704z"/>
	<path d="M150.572,29.215c-1.06,1.117-1.589,2.711-1.589,4.79v2.463h-3.362v1.841h3.362v18.486h2.255V38.308h4.848v-1.841h-4.848
		v-2.526c0-1.419,0.346-2.516,1.033-3.286c0.688-0.773,1.652-1.158,2.893-1.158c0.738,0,1.42,0.075,2.047,0.226l0.169-1.863
		c-0.741-0.209-1.537-0.316-2.386-0.316C153.104,27.544,151.63,28.101,150.572,29.215z"/>
	<path d="M166.962,36.093c-1.755,0-3.323,0.435-4.706,1.304c-1.386,0.871-2.454,2.087-3.213,3.655
		c-0.76,1.566-1.136,3.325-1.136,5.28v0.45c0,3.132,0.844,5.646,2.529,7.543c1.683,1.899,3.873,2.847,6.566,2.847
		c1.766,0,3.336-0.425,4.716-1.278c1.379-0.852,2.446-2.061,3.203-3.635c0.757-1.571,1.134-3.341,1.134-5.307v-0.47
		c0-3.13-0.839-5.646-2.517-7.544C171.86,37.043,169.667,36.093,166.962,36.093z M173.821,46.765h-0.002
		c0,2.554-0.63,4.613-1.887,6.173c-1.26,1.561-2.902,2.34-4.933,2.34c-2.044,0-3.692-0.781-4.949-2.34
		c-1.258-1.559-1.887-3.554-1.887-5.983v-0.412c0-2.542,0.634-4.6,1.897-6.173c1.265-1.574,2.9-2.357,4.904-2.357
		c1.339,0,2.529,0.354,3.571,1.062c1.041,0.708,1.849,1.706,2.425,2.996c0.577,1.289,0.864,2.711,0.864,4.265L173.821,46.765
		L173.821,46.765z"/>
	<path d="M181.97,39.7l-0.038-3.23h-2.2v20.326h2.236v-13.96c0.412-1.49,1.104-2.627,2.075-3.41c0.97-0.783,2.157-1.175,3.561-1.175
		c0.538,0,1.045,0.045,1.521,0.131l0.056-2.047c-0.362-0.161-0.857-0.243-1.483-0.243C185.067,36.093,183.16,37.294,181.97,39.7z"/>
	<path d="M207.568,36.093c-1.577,0-3.044,0.447-4.395,1.344c-1.352,0.896-2.408,2.127-3.167,3.692
		c-0.76,1.566-1.136,3.327-1.136,5.28v0.808c0,1.891,0.387,3.597,1.165,5.119c0.778,1.523,1.864,2.708,3.26,3.561
		c1.397,0.852,2.959,1.278,4.689,1.278c3.143,0,5.542-1.197,7.195-3.589l-1.407-1.072c-0.751,0.964-1.589,1.665-2.511,2.105
		c-0.922,0.437-1.982,0.658-3.182,0.658c-2.005,0-3.667-0.768-4.99-2.301c-1.323-1.534-1.982-3.454-1.982-5.757v-0.432h14.503v-1.26
		c0-2.918-0.723-5.221-2.17-6.906C211.995,36.934,210.038,36.093,207.568,36.093z M213.377,44.866h-0.003h-12.193
		c0.251-2.092,0.954-3.759,2.115-4.998c1.158-1.24,2.584-1.861,4.274-1.861c1.705,0,3.082,0.613,4.135,1.841
		c1.051,1.228,1.61,2.818,1.672,4.774V44.866L213.377,44.866z"/>
	<path d="M232.254,39.342c-1.44-2.167-3.531-3.25-6.274-3.25c-2.417,0-4.332,0.937-5.741,2.808
		c-1.409,1.874-2.115,4.388-2.115,7.543v0.264c0,3.208,0.718,5.752,2.152,7.638c1.432,1.886,3.323,2.828,5.664,2.828
		c2.791,0,4.91-1.027,6.351-3.082l0.095,2.705h2.105V27.939h-2.236L232.254,39.342L232.254,39.342z M232.254,51.555
		c-1.164,2.442-3.13,3.663-5.9,3.663c-1.889,0-3.357-0.75-4.395-2.246c-1.038-1.495-1.561-3.541-1.561-6.134
		c0-2.893,0.525-5.082,1.577-6.568c1.051-1.483,2.526-2.226,4.415-2.226c2.745,0,4.697,1.323,5.862,3.964v9.544h0.002
		L232.254,51.555L232.254,51.555z"/>
	<path d="M252.482,51.178h0.003v0.002c-0.864,2.693-2.925,4.041-6.179,4.041c-3.132,0-4.697-1.936-4.697-5.805V36.472h-2.236V49.7
		c0.025,2.467,0.602,4.332,1.726,5.588c1.129,1.261,2.773,1.889,4.94,1.889c2.969,0,5.129-0.983,6.48-2.951l0.038,2.574h2.18V36.467
		h-2.255L252.482,51.178L252.482,51.178z"/>
	<path d="M271.077,53.955c-1.058,0.882-2.37,1.326-3.936,1.326c-2.042,0-3.623-0.726-4.744-2.18
		c-1.12-1.454-1.682-3.476-1.682-6.068v-0.658c-0.005-2.648,0.556-4.702,1.677-6.168c1.122-1.465,2.695-2.198,4.726-2.198
		c1.59,0,2.91,0.488,3.956,1.465s1.62,2.261,1.72,3.852h2.162c-0.099-2.167-0.874-3.915-2.32-5.241
		c-1.447-1.328-3.286-1.991-5.514-1.991c-1.753,0-3.284,0.42-4.595,1.26c-1.309,0.841-2.313,2.031-3.014,3.571
		c-0.701,1.54-1.051,3.313-1.051,5.317v0.676c0,3.132,0.779,5.624,2.339,7.477c1.561,1.854,3.672,2.781,6.341,2.781
		c1.352,0,2.62-0.289,3.804-0.866c1.187-0.577,2.132-1.372,2.847-2.394c0.715-1.02,1.103-2.152,1.164-3.391h-2.162
		C272.711,51.929,272.136,53.072,271.077,53.955z"/>
	<path d="M293.096,42.541L293.096,42.541v-0.003c-0.038-2.031-0.711-3.61-2.021-4.744c-1.309-1.133-3.095-1.7-5.366-1.7
		c-2.192,0-4.039,0.591-5.542,1.776c-1.502,1.183-2.253,2.584-2.253,4.199l2.253,0.02c0-1.127,0.515-2.092,1.542-2.893
		c1.025-0.803,2.323-1.203,3.89-1.203c1.716,0,3.021,0.417,3.916,1.25c0.894,0.833,1.341,1.975,1.341,3.43v2.311h-4.077
		c-2.941,0-5.239,0.577-6.886,1.73c-1.647,1.153-2.469,2.718-2.469,4.697c0,1.665,0.603,3.044,1.813,4.135
		c1.208,1.086,2.789,1.635,4.744,1.635c1.364,0,2.66-0.281,3.88-0.837c1.223-0.556,2.226-1.351,3.014-2.376
		c0.061,1.253,0.206,2.198,0.434,2.838h2.405V56.58c-0.412-0.977-0.618-2.447-0.618-4.415V42.541L293.096,42.541z M290.86,51.18
		L290.86,51.18c-0.538,1.215-1.399,2.187-2.584,2.913c-1.183,0.726-2.528,1.089-4.031,1.089c-1.352,0-2.451-0.376-3.299-1.127
		c-0.844-0.751-1.266-1.697-1.266-2.838c0-1.393,0.634-2.483,1.897-3.279c1.264-0.796,3.017-1.205,5.26-1.23h4.021L290.86,51.18
		L290.86,51.18z"/>
	<path d="M304.273,55.218c-0.952,0-1.634-0.278-2.038-0.829c-0.409-0.551-0.611-1.392-0.611-2.521v-13.56h4.21v-1.841h-4.21v-5.204
		h-2.253v5.204h-3.739v1.841h3.739v13.565c0,1.741,0.351,3.059,1.051,3.956c0.699,0.896,1.821,1.344,3.362,1.344
		c1.014,0,1.816-0.108,2.406-0.316l-0.095-1.826C305.255,55.156,304.649,55.218,304.273,55.218z"/>
	<path d="M316.971,36.093c-1.755,0-3.323,0.435-4.706,1.304c-1.386,0.871-2.454,2.087-3.213,3.655
		c-0.76,1.566-1.137,3.325-1.137,5.28v0.45c0,3.132,0.844,5.646,2.529,7.543c1.683,1.899,3.873,2.847,6.566,2.847
		c1.766,0,3.337-0.425,4.716-1.278c1.379-0.852,2.446-2.061,3.203-3.635c0.757-1.571,1.134-3.341,1.134-5.307v-0.47
		c0-3.13-0.839-5.646-2.517-7.544C321.87,37.043,319.674,36.093,316.971,36.093z M323.83,46.765h-0.002
		c0,2.554-0.63,4.613-1.887,6.173c-1.26,1.561-2.902,2.34-4.933,2.34c-2.044,0-3.692-0.781-4.949-2.34
		c-1.258-1.559-1.887-3.554-1.887-5.983v-0.412c0-2.542,0.634-4.6,1.897-6.173c1.265-1.574,2.9-2.357,4.903-2.357
		c1.339,0,2.529,0.354,3.571,1.062c1.041,0.708,1.85,1.706,2.425,2.996c0.577,1.289,0.864,2.711,0.864,4.265L323.83,46.765
		L323.83,46.765z"/>
	<path d="M331.976,39.7l-0.038-3.23h-2.2v20.326h2.236v-13.96c0.412-1.49,1.104-2.627,2.075-3.41
		c0.97-0.783,2.157-1.175,3.561-1.175c0.538,0,1.045,0.045,1.52,0.131l0.056-2.047c-0.362-0.161-0.857-0.243-1.483-0.243
		C335.077,36.093,333.166,37.294,331.976,39.7z"/>
	<path d="M353.251,46.933c-0.983-0.525-2.459-1.02-4.433-1.483c-1.973-0.462-3.333-0.973-4.077-1.531
		c-0.745-0.556-1.119-1.344-1.119-2.357c0-1.051,0.447-1.909,1.344-2.566c0.894-0.658,2.082-0.987,3.561-0.987
		c1.515,0,2.771,0.396,3.767,1.183c0.997,0.791,1.492,1.779,1.492,2.969h2.255c0-1.804-0.685-3.265-2.057-4.388
		c-1.371-1.12-3.191-1.682-5.456-1.682c-2.092,0-3.81,0.522-5.149,1.568s-2.01,2.369-2.01,3.973c0,1.014,0.24,1.879,0.725,2.592
		c0.482,0.715,1.22,1.319,2.215,1.813c0.997,0.495,2.396,0.934,4.201,1.316c1.804,0.384,3.153,0.912,4.051,1.587
		c0.894,0.676,1.341,1.571,1.341,2.687c0,1.051-0.482,1.924-1.445,2.61c-0.965,0.688-2.23,1.035-3.795,1.035
		c-1.678,0-3.029-0.366-4.051-1.1c-1.02-0.733-1.575-1.756-1.662-3.071h-2.255c0,1.755,0.736,3.203,2.21,4.348
		c1.472,1.147,3.391,1.721,5.757,1.721c2.228,0,4.036-0.515,5.42-1.541c1.384-1.027,2.077-2.398,2.077-4.114
		c0-1.051-0.237-1.947-0.713-2.687C354.964,48.09,354.234,47.458,353.251,46.933z"/>
	<path d="M361.73,53.94c-0.477,0-0.851,0.148-1.127,0.444c-0.278,0.298-0.414,0.66-0.414,1.085c0,0.419,0.137,0.766,0.414,1.05
		c0.276,0.284,0.649,0.425,1.127,0.425c0.477,0,0.856-0.142,1.138-0.425c0.281-0.284,0.424-0.634,0.424-1.05
		c-0.002-0.425-0.143-0.788-0.424-1.085C362.587,54.087,362.207,53.94,361.73,53.94z"/>
	<polygon points="362.651,49.168 362.783,29.44 360.454,29.44 360.567,49.168 	"/>
	<polygon points="366.959,28.073 369.709,28.073 369.709,35.434 370.812,35.434 370.812,28.073 373.572,28.073 373.572,27.09
		366.959,27.09 	"/>
	<path d="M380.858,27.089l-1.999,5.807c-0.202,0.588-0.349,1.033-0.444,1.337c-0.085-0.274-0.218-0.685-0.399-1.236l-1.975-5.909
		h-1.662v8.344h1.064v-7.103l2.414,7.103h0.997l2.425-6.983v6.983h1.064v-8.343C382.343,27.089,380.858,27.089,380.858,27.089z"/>
</g>

<g>
	<path fill="#02B2E1" d="M651.894,4.625c0,0,1.88,1.936,4.581-0.176c1.057-0.764,2.934-1.291,3.875,0.411
		c0.94,1.702,1.058,3.347,5.577,2.7c1.234-0.176,2.817-0.647,3.582,1.585c0.762,2.23,1.351,3.521,4.109,3.7
		c2.76,0.176,3.111,0.293,3.581,2.406s0.294,4.111,3.347,4.755c3.053,0.647,2.877,1.996,2.7,3.288
		c-0.176,1.291-1.115,3.228,0.88,4.403c1.996,1.174,4.051,2.113,2.583,4.932c-0.763,1.409-1.174,3.405,0.47,5.049
		c1.643,1.645,2.818,2.642,0.587,5.047c-1.702,1.526-1.291,3.407-0.353,4.815c0.94,1.409,1.702,3.345-0.645,4.755
		c-2.349,1.409-1.939,3.111-1.585,4.462c0.35,1.351,1.585,3.7-1.409,4.638c-2.994,0.94-3.228,1.938-3.347,4.698
		c-0.117,2.759-0.117,3.111-2.347,3.228c-2.232,0.117-3.875,1.174-4.226,3.698c-0.353,2.524-0.528,2.934-2.701,2.817
		c-2.173-0.117-4.638-0.647-5.93,2.996c-0.47,1.351-2.173,1.762-3.875,1.115c-1.702-0.647-3.932-0.528-5.226,1.291
		c-1.292,1.82-2.406,1.938-4.404,0.587c-1.996-1.351-3.464-1.351-5.109,0c-1.643,1.351-3.464,1.292-4.579-0.176
		c-1.115-1.468-2.173-2.877-5.637-1.526c-1.351,0.645-3.288,0.117-3.757-1.234c-0.47-1.351-1.232-3.464-3.934-3.17
		c-2.701,0.293-4.051,0.059-4.344-2.055c-0.293-2.113-1.409-3.932-3.7-4.228c-2.29-0.294-3.405-0.822-3.17-2.996
		c0.236-2.172-0.647-4.111-2.936-4.932c-2.289-0.822-2.524-1.879-1.879-3.817c0.647-1.939-0.059-4.229-1.702-5.402
		c-1.643-1.174-1.938-2.113-0.822-4.051c1.115-1.938,1.409-3.11-0.647-5.87c-2.055-2.759,0.119-3.405,0.704-4.051
		c0.587-0.647,2.406-2.524,1.409-5.166c-0.998-2.642-1.115-2.934,0.94-4.402c2.055-1.468,2.289-2.996,2.349-5.637
		c0.059-2.642,1.057-2.466,2.29-2.934c1.232-0.47,3.405-0.647,3.814-4.403c0.236-1.819,0.587-2.524,2.466-2.642
		c1.879-0.117,3.934-0.353,4.638-2.817c0.704-2.464,1.174-3.053,3.581-2.817c2.407,0.236,3.875,0.353,5.166-1.702
		c1.291-2.055,2.877-2.173,4.521-1.408c1.645,0.764,3.228,1.643,5.049-0.293C646.434,4.096,648.723,0.752,651.894,4.625z"/>
	<path fill="#02B2E1" d="M651.894,4.625c0,0,1.88,1.936,4.581-0.176c1.057-0.764,2.934-1.291,3.875,0.411
		c0.94,1.702,1.058,3.347,5.577,2.7c1.234-0.176,2.817-0.647,3.582,1.585c0.762,2.23,1.351,3.521,4.109,3.7
		c2.76,0.176,3.111,0.293,3.581,2.406s0.294,4.111,3.347,4.755c3.053,0.647,2.877,1.996,2.7,3.288
		c-0.176,1.291-1.115,3.228,0.88,4.403c1.996,1.174,4.051,2.113,2.583,4.932c-0.763,1.409-1.174,3.405,0.47,5.049
		c1.643,1.645,2.818,2.642,0.587,5.047c-1.702,1.526-1.291,3.407-0.353,4.815c0.94,1.409,1.702,3.345-0.645,4.755
		c-2.349,1.409-1.939,3.111-1.585,4.462c0.35,1.351,1.585,3.7-1.409,4.638c-2.994,0.94-3.228,1.938-3.347,4.698
		c-0.117,2.759-0.117,3.111-2.347,3.228c-2.232,0.117-3.875,1.174-4.226,3.698c-0.353,2.524-0.528,2.934-2.701,2.817
		c-2.173-0.117-4.638-0.647-5.93,2.996c-0.47,1.351-2.173,1.762-3.875,1.115c-1.702-0.647-3.932-0.528-5.226,1.291
		c-1.292,1.82-2.406,1.938-4.404,0.587c-1.996-1.351-3.464-1.351-5.109,0c-1.643,1.351-3.464,1.292-4.579-0.176
		c-1.115-1.468-2.173-2.877-5.637-1.526c-1.351,0.645-3.288,0.117-3.757-1.234c-0.47-1.351-1.232-3.464-3.934-3.17
		c-2.701,0.293-4.051,0.059-4.344-2.055c-0.293-2.113-1.409-3.932-3.7-4.228c-2.29-0.294-3.405-0.822-3.17-2.996
		c0.236-2.172-0.647-4.111-2.936-4.932c-2.289-0.822-2.524-1.879-1.879-3.817c0.647-1.939-0.059-4.229-1.702-5.402
		c-1.643-1.174-1.938-2.113-0.822-4.051c1.115-1.938,1.409-3.11-0.647-5.87c-2.055-2.759,0.119-3.405,0.704-4.051
		c0.587-0.647,2.406-2.524,1.409-5.166c-0.998-2.642-1.115-2.934,0.94-4.402c2.055-1.468,2.289-2.996,2.349-5.637
		c0.059-2.642,1.057-2.466,2.29-2.934c1.232-0.47,3.405-0.647,3.814-4.403c0.236-1.819,0.587-2.524,2.466-2.642
		c1.879-0.117,3.934-0.353,4.638-2.817c0.704-2.464,1.174-3.053,3.581-2.817c2.407,0.236,3.875,0.353,5.166-1.702
		c1.291-2.055,2.877-2.173,4.521-1.408c1.645,0.764,3.228,1.643,5.049-0.293C646.434,4.096,648.723,0.752,651.894,4.625z"/>
	<polygon fill="#FFFFFF" points="661.47,16.988 657.736,11.984 645.987,28.472 640.42,23.918 636.407,28.253 646.819,35.697 	"/>
	<path fill="#FFFFFF" d="M631.753,55.651c1.812,0,3.182-0.489,4.114-1.469c0.93-0.979,1.39-2.428,1.372-4.357l-0.029-0.068h-3.299
		c0.039,1.156-0.098,1.968-0.431,2.448c-0.323,0.48-0.892,0.714-1.723,0.714c-0.842,0-1.479-0.304-1.919-0.9
		c-0.431-0.602-0.657-1.522-0.657-2.761v-5.258c0-1.225,0.205-2.134,0.616-2.738c0.411-0.602,0.998-0.9,1.772-0.9
		c0.892,0,1.528,0.255,1.88,0.758c0.362,0.509,0.519,1.337,0.47,2.488h3.299l0.039-0.068c-0.039-1.949-0.53-3.422-1.479-4.416
		c-0.949-0.994-2.35-1.494-4.211-1.494c-1.763,0-3.163,0.559-4.211,1.678c-1.047,1.117-1.567,2.693-1.567,4.72v5.234
		c0,2.037,0.538,3.609,1.625,4.725C628.491,55.092,629.942,55.651,631.753,55.651z"/>
	<polygon fill="#FFFFFF" points="644.71,55.397 644.71,40.616 648.65,40.616 648.65,37.882 637.373,37.882 637.373,40.616
		641.292,40.616 641.292,55.397 	"/>
	<polygon fill="#FFFFFF" points="649.679,37.882 649.679,55.397 659.511,55.397 659.511,52.664 653.107,52.664 653.107,37.882 	"/>
	<polygon fill="#FFFFFF" points="670.919,40.616 670.919,37.882 660.598,37.882 660.598,55.397 670.948,55.397 670.948,52.664
		664.024,52.664 664.024,47.71 669.909,47.71 669.909,44.977 664.024,44.977 664.024,40.616 	"/>
	<path fill="#FFFFFF" d="M628.702,56.911l-2.268,8.206h1.588l0.431-1.752h2.117l0.436,1.752h1.585l-2.257-8.206H628.702z
		 M628.773,62.081l0.719-2.899h0.033l0.723,2.899H628.773z"/>
	<path fill="#FFFFFF" d="M635.44,56.911h-2.789v8.206h1.572v-2.948h1.217c0.8,0,1.433-0.245,1.897-0.725c0.464-0.48,0.7-1.117,0.7-1.91
		c0-0.783-0.236-1.42-0.696-1.899C636.878,57.147,636.246,56.911,635.44,56.911z M636.211,60.506
		c-0.177,0.254-0.436,0.382-0.772,0.382h-1.217v-2.703h1.217c0.34,0,0.599,0.127,0.772,0.392c0.177,0.254,0.263,0.578,0.263,0.969
		C636.476,59.937,636.384,60.261,636.211,60.506z"/>
	<path fill="#FFFFFF" d="M641.268,56.911h-2.789v8.206h1.572v-2.948h1.217c0.8,0,1.433-0.245,1.897-0.725
		c0.464-0.48,0.7-1.117,0.7-1.91c0-0.783-0.236-1.42-0.696-1.899C642.705,57.147,642.072,56.911,641.268,56.911z M642.04,60.506
		c-0.177,0.254-0.436,0.382-0.772,0.382h-1.217v-2.703h1.217c0.34,0,0.599,0.127,0.772,0.392c0.177,0.254,0.263,0.578,0.263,0.969
		C642.304,59.937,642.213,60.261,642.04,60.506z"/>
	<path fill="#FFFFFF" d="M649.522,63.716v-0.587c0-0.489-0.086-0.91-0.269-1.234c-0.181-0.333-0.479-0.567-0.892-0.714
		c0.364-0.187,0.643-0.431,0.824-0.744c0.181-0.304,0.277-0.676,0.277-1.107c0-0.754-0.22-1.352-0.672-1.772
		c-0.452-0.431-1.073-0.647-1.865-0.647h-2.622v8.206h1.568v-3.262h1.136c0.307,0,0.537,0.107,0.709,0.333
		c0.153,0.224,0.24,0.549,0.24,0.949v0.558c0,0.284,0.019,0.559,0.049,0.832c0.039,0.273,0.116,0.47,0.248,0.587h1.621V65
		c-0.124-0.118-0.22-0.304-0.277-0.559C649.559,64.176,649.522,63.942,649.522,63.716z M647.651,60.27
		c-0.163,0.205-0.408,0.304-0.729,0.304h-1.05v-2.379h1.055c0.316,0,0.56,0.107,0.723,0.333c0.163,0.216,0.248,0.519,0.248,0.892
		C647.902,59.79,647.815,60.074,647.651,60.27z"/>
	<path fill="#FFFFFF" d="M652.751,56.784c-0.853,0-1.524,0.273-2.032,0.822c-0.509,0.549-0.768,1.302-0.768,2.261v2.301
		c0,0.96,0.259,1.715,0.768,2.253c0.507,0.538,1.179,0.814,2.032,0.814s1.533-0.273,2.041-0.814
		c0.517-0.538,0.767-1.292,0.767-2.253v-2.301c0-0.96-0.259-1.715-0.767-2.261C654.276,57.057,653.596,56.784,652.751,56.784z
		 M653.997,62.17c0,0.598-0.105,1.038-0.316,1.341c-0.211,0.294-0.528,0.44-0.93,0.44c-0.401,0-0.719-0.146-0.93-0.44
		c-0.201-0.304-0.307-0.744-0.307-1.341v-2.321c0-0.587,0.096-1.038,0.307-1.331c0.201-0.304,0.517-0.452,0.93-0.452
		c0.403,0,0.719,0.156,0.93,0.452c0.212,0.304,0.316,0.744,0.316,1.331V62.17z"/>
	<polygon fill="#FFFFFF" points="658.473,63.04 658.418,63.336 658.379,63.336 658.322,63.022 656.989,56.911 655.34,56.911
		657.593,65.117 659.222,65.117 661.465,56.911 659.817,56.911 	"/>
	<polygon fill="#FFFFFF" points="663.133,61.512 665.836,61.512 665.836,60.23 663.133,60.23 663.133,58.184 666.296,58.184
		666.296,56.911 661.561,56.911 661.561,65.117 666.316,65.117 666.316,63.835 663.133,63.835 	"/>
	<path fill="#FFFFFF" d="M671.041,57.862c-0.537-0.636-1.217-0.949-2.041-0.949h-2.434v8.206h2.434c0.824,0,1.504-0.314,2.041-0.949
		s0.806-1.459,0.806-2.458V60.33C671.846,59.32,671.578,58.497,671.041,57.862z M670.273,61.699c0,0.647-0.116,1.165-0.355,1.557
		c-0.24,0.382-0.576,0.578-1.016,0.578h-0.767v-5.65h0.767c0.44,0,0.776,0.195,1.016,0.587c0.24,0.382,0.355,0.9,0.355,1.536V61.699
		z"/>
</g>
</svg>
