<svg xmlns="http://www.w3.org/2000/svg" xmlns:xlink="http://www.w3.org/1999/xlink" viewBox="0 0 360 270" style="margin-top:-18px;">
<style type="text/css">
	.st0{opacity:0.4;}
	.st1{fill:#310E3F;}
	.st2{fill:#E0BDAE;}
	.st3{fill:#91ABB1;}
	.st4{fill:#8A3E6E;}
	.st5{fill:#FCF065;}
	.st6{fill:#EB519B;}
	.st7{fill:#FFFFFF;}
	.st8{fill:#A9DFF6;}
	.st9{fill:#2F141A;}
	.st10{fill:#D28ABB;}
	.st11{fill:#50B748;}
	.st12{fill:#CBAC94;}
	.st13{fill:#443E39;}
	.st14{fill:#E4A2AC;}
	.st15{fill:#E5B829;}
	.st16{opacity:0.25;}
	.st17{fill:#0B8266;}
	.st18{fill:#A9C682;}
</style>
<a href="https://otis.teq.com/">
<g>
	<g class="st0">
		<path class="st1" d="M250.126,159.561c0-3.501-40.314-6.339-90.043-6.339s-90.042,2.838-90.042,6.339
			c0,2.086,14.303,3.935,36.379,5.09c-0.366,0.193-0.563,0.392-0.563,0.597c0,1.585,11.546,2.868,25.789,2.868
			c12.24,0,22.48-0.948,25.121-2.22c1.102,0.004,2.206,0.005,3.317,0.005c3.307,0,6.571-0.013,9.785-0.037
			c2.531,1.287,12.844,2.253,25.188,2.253c14.243,0,25.789-1.284,25.789-2.868c0-0.323-0.487-0.632-1.372-0.922
			C238.264,163.162,250.126,161.459,250.126,159.561z"/>
	</g>
	<g>
		<path class="st2" d="M232.241,43.785c1.519,0.661,2.912,1.786,4.567,1.848c0.183,0.007,0.359,0.007,0.526,0.004
			c4.057-0.1,3.838-3.312,6.023-5.834c0.731-0.844,1.698-1.455,2.702-1.943c7.241-3.506,18.946,0.443,18.252,9.656
			c-0.23,3.05-1.572,5.908-3.144,8.531c-4.161,6.938-11.175,9.82-16.339,15.721c-1.22,1.396-2.601,2.635-3.986,3.864
			c-1.45,1.287-2.328,2.45-3.377,4.077c-2.559,3.976-5.576,7.729-8.185,11.714c-2.404,3.67-4.718,7.399-6.939,11.182
			c-0.89,1.517-2.999,6.632-5.47,5.912c-2.762-0.805-1.731-8.839-2.89-10.956c-2.116-3.866-3.937-5.975-3.481-10.721
			c0.252-2.621,1.466-4.744,3.044-6.749c0.996-1.266,1.805-2.74,2.692-4.084c0.505-0.768,2.423-2.796,2.423-3.677
			c1.256-1.905,2.399-4.006,3.919-5.706c1.835-2.051,3.393-4.379,4.935-6.678c0.757-1.13,1.494-2.326,1.706-3.668
			c0.3-1.916-0.616-3.351-1.067-5.115C227.373,48.108,227.145,41.569,232.241,43.785z"/>
	</g>
	<g>
		<path d="M217.866,109.958c1.049-1.715,2.07-3.448,3.079-5.186c1.017-1.733,2.015-3.476,3.008-5.225
			c1.99-3.492,3.946-7.01,6.042-10.458c2.105-3.44,4.334-6.825,6.821-10.036c2.488-3.207,5.226-6.24,8.222-9.006
			c1.494-1.387,3.05-2.706,4.663-3.955c1.57-1.229,3.098-2.483,4.548-3.819c1.448-1.331,2.816-2.741,4.032-4.244
			c0.622-0.742,1.169-1.528,1.694-2.323c0.496-0.807,0.961-1.63,1.321-2.485c0.722-1.71,1.109-3.515,1.011-5.332
			c-0.083-1.819-0.609-3.628-1.325-5.412c-0.359-0.892-0.768-1.781-1.198-2.669c-0.433-0.887-0.883-1.798-1.331-2.674
			c-0.45-0.881-0.909-1.745-1.406-2.544c-0.494-0.795-1.035-1.528-1.63-2.026c-0.597-0.502-1.21-0.747-1.973-0.774
			c-0.759-0.024-1.63,0.161-2.501,0.443c-0.219,0.076-0.438,0.145-0.657,0.233l-0.327,0.126c-0.097,0.042-0.198,0.08-0.291,0.126
			c-0.381,0.175-0.737,0.38-1.06,0.622c-0.644,0.482-1.168,1.124-1.602,1.89c-0.862,1.546-1.392,3.455-1.895,5.36
			c-0.133,0.503-0.228,0.896-0.302,1.358c-0.072,0.452-0.124,0.918-0.163,1.401c-0.09,0.968-0.085,1.968-0.313,3.142
			c-0.126,0.579-0.315,1.27-0.864,1.916c-0.272,0.316-0.631,0.581-1,0.751c-0.369,0.168-0.739,0.258-1.077,0.298
			c-0.682,0.08-1.279,0.016-1.84-0.074c-0.281-0.048-0.555-0.102-0.82-0.168l-0.401-0.102c-0.17-0.048-0.332-0.1-0.482-0.163
			c-0.606-0.244-1.092-0.555-1.546-0.869c-0.452-0.316-0.865-0.646-1.265-0.973c-0.796-0.655-1.544-1.316-2.296-1.892
			c-0.74-0.57-1.537-1.085-2.185-1.228c-0.323-0.07-0.55-0.051-0.765,0.048c-0.217,0.095-0.463,0.315-0.687,0.626
			c-0.226,0.309-0.42,0.701-0.567,1.06c-0.136,0.369-0.21,0.745-0.228,1.132c-0.044,0.776,0.198,1.622,0.531,2.508
			c0.337,0.89,0.776,1.819,1.113,2.856c0.166,0.519,0.313,1.061,0.396,1.632c0.081,0.57,0.1,1.161,0.051,1.748
			c-0.122,1.178-0.544,2.296-1.13,3.239c-0.146,0.237-0.291,0.475-0.457,0.692c-0.163,0.226-0.323,0.445-0.468,0.634
			c-0.298,0.398-0.6,0.786-0.896,1.192c-2.372,3.22-4.714,6.495-7.052,9.762l-7.039,9.801c-1.178,1.63-2.365,3.257-3.577,4.866
			c-1.217,1.609-2.416,3.22-3.73,4.779l-0.747-0.616c1.224-1.558,2.374-3.212,3.527-4.852l3.429-4.953l6.793-9.961
			c2.268-3.322,4.506-6.657,6.846-9.953c0.29-0.411,0.597-0.823,0.896-1.235c0.159-0.212,0.29-0.401,0.417-0.587
			c0.138-0.185,0.249-0.38,0.364-0.572c0.461-0.772,0.737-1.59,0.813-2.416c0.06-0.828-0.092-1.674-0.399-2.545
			c-0.296-0.87-0.731-1.759-1.125-2.741c-0.383-0.979-0.763-2.098-0.728-3.345c0.016-0.615,0.129-1.238,0.334-1.816
			c0.222-0.576,0.474-1.093,0.833-1.602c0.359-0.502,0.844-1.022,1.544-1.355c0.344-0.165,0.731-0.267,1.109-0.296
			c0.378-0.03,0.742,0.005,1.074,0.076c0.668,0.145,1.217,0.411,1.715,0.692c0.496,0.286,0.945,0.599,1.369,0.917
			c0.848,0.637,1.614,1.305,2.377,1.918c0.751,0.604,1.535,1.194,2.209,1.457c0.083,0.033,0.159,0.057,0.231,0.076l0.33,0.078
			c0.224,0.051,0.443,0.09,0.659,0.124c0.429,0.065,0.844,0.085,1.162,0.041c0.159-0.021,0.281-0.062,0.369-0.104
			c0.087-0.044,0.138-0.087,0.193-0.154c0.109-0.124,0.235-0.428,0.306-0.827c0.145-0.804,0.161-1.826,0.24-2.858
			c0.039-0.521,0.09-1.054,0.173-1.595c0.078-0.531,0.215-1.118,0.337-1.588c0.251-0.989,0.516-1.983,0.841-2.983
			c0.328-1,0.712-2.01,1.261-3.001c0.548-0.985,1.3-1.95,2.266-2.681c0.479-0.366,0.998-0.668,1.528-0.915
			c0.133-0.063,0.267-0.117,0.399-0.175l0.376-0.146c0.247-0.1,0.507-0.187,0.761-0.278c1.031-0.341,2.153-0.626,3.409-0.583
			c0.624,0.021,1.279,0.143,1.892,0.387c0.615,0.24,1.169,0.595,1.639,0.994c0.945,0.805,1.585,1.733,2.153,2.637
			c0.563,0.911,1.044,1.824,1.509,2.734c0.465,0.915,0.904,1.805,1.351,2.725c0.443,0.92,0.876,1.86,1.265,2.833
			c0.783,1.938,1.379,4.052,1.457,6.261c0.097,2.209-0.411,4.428-1.279,6.402c-0.433,0.992-0.97,1.92-1.538,2.816
			c-0.592,0.876-1.206,1.735-1.886,2.526c-1.342,1.602-2.824,3.045-4.361,4.401c-1.538,1.355-3.151,2.616-4.773,3.829
			c-1.59,1.183-3.123,2.441-4.617,3.744c-5.991,5.214-10.922,11.555-15.334,18.235c-2.216,3.34-4.355,6.743-6.505,10.144
			c-1.076,1.699-2.157,3.396-3.257,5.082C220.151,106.647,219.019,108.31,217.866,109.958z"/>
	</g>
	<g>
		<path class="st2" d="M105.124,151.961c-0.789,1.252-1.45,2.588-2.227,3.833c-0.588,0.941-0.685,1.952-1.651,2.642
			c-1.862,1.331-2.929,0.89-5.032,0.435c-1.994-0.433-3.953-1.016-5.878-1.689c-1.99-0.696-4.177-0.019-6.221,0.281
			c-1.905,0.279-3.739,1.348-5.604,1.84c-2.835,0.749-5.725,0.42-8.471-0.523c-1.814-0.622-7.183-5.134-3.449-6.882
			c1.679-0.786,3.555-1.429,5.293-2.125c1.577-0.631,3.241-1.431,4.816-2.206c1.5-0.74,3.167-1.019,4.445-2.153
			c1.237-1.097,2.609-1.766,4.053-2.6c1.902-1.097,3.746-2.292,5.521-3.584c0.94-0.683,1.981-1.242,2.895-1.957
			c0.733-0.574,1.181-1.3,1.794-2.01c1.761-2.044,3.61-4.053,5.352-6.076c1.886-2.192,3.11-5.588,4.161-8.25
			c1.265-3.202,2.566-6.498,3.001-9.933c0.36-2.858,0.396-5.828,1.357-8.573c0.717-2.049,3.673-4.121,5.904-3.617
			c1.809,0.408,3.494,2.027,5.371,2.607c4.617,1.425,6.345,5.177,6.853,9.668c0.576,5.08-2.026,8.819-4.318,13.121
			c-2.974,5.581-4.501,11.855-7.839,17.251c-1.32,2.132-2.971,4.092-4.991,5.592C108.218,148.566,106.519,149.748,105.124,151.961z"
			/>
	</g>
	<g>
		<path d="M108.524,95.577c0.307,1.978,0.518,3.977,0.578,5.988c0.053,2.008-0.011,4.025-0.198,6.032
			c-0.369,4.014-1.228,8.006-2.633,11.818c-0.696,1.907-1.514,3.773-2.446,5.58c-0.936,1.807-2.003,3.547-3.165,5.221
			c-2.329,3.344-5.046,6.417-8.102,9.13c-3.068,2.716-6.51,5.006-10.149,6.862c-3.633,1.87-7.498,3.246-11.235,4.587
			c-0.927,0.343-1.848,0.687-2.695,1.076c-0.422,0.194-0.825,0.401-1.174,0.622c-0.339,0.219-0.634,0.465-0.754,0.655
			c-0.131,0.196-0.129,0.265-0.109,0.487c0.046,0.226,0.185,0.556,0.409,0.892c0.215,0.343,0.512,0.68,0.791,1.003
			c0.296,0.307,0.606,0.6,0.945,0.852c0.673,0.505,1.434,0.881,2.262,1.129c0.832,0.242,1.724,0.361,2.64,0.394
			c1.839,0.063,3.762-0.214,5.696-0.553c1.939-0.343,3.901-0.768,5.929-1.085c0.507-0.08,1.017-0.152,1.533-0.212
			c0.261-0.026,0.491-0.067,0.855-0.08c0.325-0.011,0.624,0.007,0.911,0.033c1.143,0.117,2.144,0.366,3.138,0.62
			c1.971,0.512,3.87,1.104,5.726,1.446c0.913,0.166,1.849,0.268,2.559,0.159c0.353-0.053,0.588-0.168,0.687-0.267
			c0.055-0.055,0.092-0.095,0.138-0.203c0.104-0.242,0.21-0.484,0.322-0.72c0.885-1.895,1.934-3.686,3.17-5.373
			c1.242-1.676,2.672-3.26,4.437-4.545c0.883-0.636,1.865-1.181,2.935-1.566c1.079-0.367,2.242-0.567,3.421-0.479
			c0.609,0.043,1.212,0.183,1.763,0.383c0.548,0.194,1.058,0.459,1.45,0.637c0.182,0.089,0.369,0.138,0.316,0.124
			c-0.013,0.002-0.124,0.007-0.189,0.048c-0.076,0.048-0.09,0.062-0.081,0.058c0.026-0.021,0.115-0.182,0.18-0.353
			c0.072-0.173,0.136-0.387,0.198-0.6c0.12-0.426,0.224-0.924,0.311-1.357c0.037-0.176,0.044-0.332,0.039-0.404
			c-0.016-0.08,0.009-0.002,0.055,0.023c0.039,0.019-0.032-0.035-0.189-0.062c-0.154-0.032-0.366-0.048-0.602-0.06
			c-0.239-0.013-0.5-0.018-0.798-0.046c-0.298-0.032-0.639-0.065-1.067-0.256c-0.21-0.097-0.445-0.249-0.637-0.47
			c-0.193-0.219-0.322-0.487-0.385-0.726c-0.124-0.485-0.072-0.855-0.019-1.178c0.06-0.32,0.154-0.613,0.231-0.842l0.242-0.735
			c0.155-0.496,0.341-0.959,0.512-1.438c0.173-0.477,0.35-0.95,0.535-1.416c1.468-3.749,3.036-7.434,4.626-11.115
			c1.593-3.677,3.22-7.337,4.878-10.984c0.825-1.824,1.672-3.642,2.535-5.451c0.87-1.809,1.727-3.614,2.685-5.399l0.859,0.448
			c-1.736,3.568-3.273,7.275-4.86,10.936c-1.57,3.675-3.109,7.367-4.612,11.069c-1.5,3.702-2.979,7.418-4.343,11.154
			c-0.175,0.466-0.343,0.933-0.502,1.399c-0.159,0.466-0.337,0.935-0.474,1.397l-0.217,0.694c-0.081,0.246-0.127,0.433-0.154,0.606
			c-0.026,0.166-0.011,0.311,0,0.309c0.004,0.002-0.009-0.039-0.035-0.069c-0.026-0.033-0.048-0.044-0.03-0.039
			c0.032,0.014,0.196,0.048,0.394,0.055c0.2,0.011,0.438,0.009,0.701,0.011c0.265,0.004,0.553,0.009,0.894,0.058
			c0.332,0.055,0.757,0.148,1.19,0.484c0.212,0.166,0.398,0.396,0.518,0.632c0.122,0.237,0.187,0.474,0.222,0.685
			c0.062,0.424,0.03,0.774-0.016,1.088c-0.097,0.551-0.196,1.033-0.337,1.574c-0.072,0.268-0.148,0.535-0.261,0.827
			c-0.118,0.291-0.235,0.595-0.524,0.963c-0.157,0.182-0.346,0.383-0.654,0.533c-0.29,0.148-0.654,0.21-0.915,0.189
			c-0.556-0.039-0.839-0.194-1.115-0.3c-0.521-0.231-0.904-0.422-1.302-0.556c-0.392-0.136-0.774-0.215-1.164-0.239
			c-0.82-0.051-1.667,0.1-2.476,0.385c-0.809,0.304-1.591,0.742-2.324,1.284c-1.466,1.09-2.743,2.518-3.859,4.066
			c-1.118,1.549-2.095,3.232-2.892,4.967c-0.099,0.217-0.193,0.435-0.286,0.652c-0.143,0.355-0.392,0.74-0.698,1.03
			c-0.627,0.602-1.381,0.837-2.008,0.943c-1.277,0.191-2.358,0.03-3.409-0.139c-2.084-0.371-4.016-0.964-5.922-1.439
			c-0.945-0.233-1.894-0.461-2.745-0.546c-0.21-0.019-0.411-0.03-0.587-0.025c-0.136,0-0.401,0.037-0.637,0.063
			c-0.477,0.055-0.957,0.124-1.439,0.198c-1.927,0.298-3.877,0.717-5.88,1.07c-2.001,0.346-4.064,0.655-6.231,0.583
			c-1.081-0.039-2.188-0.182-3.278-0.5c-1.088-0.323-2.15-0.844-3.075-1.542c-0.466-0.346-0.885-0.744-1.281-1.157
			c-0.189-0.214-0.371-0.431-0.553-0.65c-0.173-0.224-0.341-0.459-0.503-0.708c-0.318-0.503-0.626-1.088-0.765-1.848
			c-0.06-0.385-0.062-0.816,0.033-1.237c0.092-0.424,0.29-0.809,0.512-1.12c0.454-0.634,0.982-1,1.477-1.323
			c0.5-0.309,0.992-0.553,1.48-0.772c0.977-0.437,1.936-0.783,2.888-1.125c1.904-0.675,3.778-1.309,5.62-2.019
			c1.842-0.707,3.644-1.483,5.404-2.344c3.52-1.717,6.832-3.834,9.806-6.373c2.968-2.556,5.695-5.421,8.036-8.573
			c2.342-3.155,4.303-6.599,5.809-10.244c1.496-3.649,2.57-7.489,3.151-11.419C108.75,103.577,108.854,99.567,108.524,95.577z"/>
	</g>
	<g>
		<g>
			<path class="st3" d="M116.336,125.672c0.659,3.363,15.822,28.839,32.947,32.041c-1.016-2.771-1.231-3.967-1.231-3.967
				s12.825,7.315,41.321,0.789c-1.983-0.703-3.851-1.948-3.851-1.948s19.383-5.362,26.006-18.616
				c7.669-15.35-19.455-8.833-19.455-8.833l-62.436-4.577L116.336,125.672z"/>
		</g>
		<g>
			<path d="M116.605,125.821c0.055,0,0.076-0.055,0.072-0.05l0.051,0.165c0.039,0.109,0.076,0.221,0.122,0.332
				c0.087,0.222,0.185,0.443,0.286,0.664c0.203,0.442,0.424,0.876,0.654,1.309c0.459,0.865,0.95,1.715,1.459,2.556
				c1.019,1.679,2.111,3.317,3.253,4.917c2.285,3.199,4.778,6.252,7.485,9.094c2.711,2.833,5.645,5.463,8.872,7.652
				c3.22,2.174,6.772,3.921,10.546,4.606l0,0l-0.742,0.876c-0.185-0.678-0.361-1.358-0.518-2.046
				c-0.08-0.343-0.154-0.687-0.221-1.033c-0.067-0.35-0.129-0.687-0.175-1.06v-0.002l-0.113-0.604l0.565,0.285
				c1.509,0.757,3.194,1.287,4.86,1.726c1.679,0.431,3.388,0.759,5.108,0.996c3.442,0.479,6.927,0.611,10.403,0.531
				c3.477-0.085,6.947-0.413,10.392-0.901c3.446-0.491,6.863-1.164,10.251-1.971l0,0l-0.076,1.326
				c-0.694-0.318-1.348-0.682-1.975-1.076c-0.629-0.396-1.228-0.811-1.814-1.268l0,0l-0.528-0.352l0.616-0.198
				c2.411-0.772,4.788-1.729,7.089-2.807c2.303-1.081,4.55-2.28,6.685-3.649c2.132-1.37,4.163-2.895,6.012-4.608
				c1.844-1.717,3.497-3.636,4.806-5.769c0.643-1.068,1.235-2.181,1.657-3.333c0.429-1.143,0.707-2.351,0.579-3.481
				c-0.065-0.561-0.242-1.093-0.53-1.561c-0.29-0.466-0.701-0.86-1.174-1.187c-0.954-0.654-2.146-1.016-3.353-1.242
				c-2.437-0.433-4.99-0.369-7.506-0.157c-2.517,0.23-5.046,0.629-7.505,1.181l-0.09,0.019l-0.083-0.007l-31.209-2.366
				l-31.204-2.462l0,0l0.133-0.019C125.376,122.53,121.008,124.176,116.605,125.821z M116.069,125.524
				c4.464-1.761,8.964-3.522,13.458-5.247l0.063-0.024l0.069,0.005l0,0l31.23,2.114l31.223,2.208l-0.171,0.014
				c2.54-0.578,5.082-0.982,7.665-1.224c2.579-0.222,5.198-0.302,7.817,0.154c1.3,0.244,2.625,0.624,3.799,1.416
				c0.581,0.398,1.118,0.904,1.507,1.526s0.622,1.335,0.705,2.044c0.157,1.429-0.176,2.789-0.639,4.032
				c-0.468,1.252-1.093,2.409-1.777,3.529c-1.388,2.229-3.123,4.214-5.038,5.975c-1.913,1.768-4.025,3.296-6.228,4.651
				c-2.206,1.353-4.502,2.547-6.869,3.575c-2.372,1.019-4.779,1.931-7.28,2.612l0.089-0.55l0,0c0.622,0.327,1.277,0.627,1.931,0.89
				c0.655,0.265,1.32,0.491,1.981,0.661l2.414,0.62l-2.492,0.707l0,0c-3.437,0.752-6.906,1.37-10.401,1.801
				c-3.494,0.429-7.012,0.698-10.534,0.719c-3.522,0.016-7.051-0.182-10.537-0.733c-1.743-0.272-3.471-0.637-5.173-1.107
				c-1.703-0.484-3.372-1.033-4.981-1.879l0.452-0.32l0,0c0.092,0.307,0.212,0.637,0.332,0.955c0.122,0.32,0.249,0.637,0.381,0.955
				c0.265,0.634,0.546,1.261,0.837,1.885l0.485,1.04l-1.228-0.165l0,0c-4.014-0.793-7.676-2.679-10.953-4.962
				c-3.282-2.3-6.223-5.021-8.926-7.932c-2.699-2.92-5.168-6.041-7.427-9.303c-1.127-1.632-2.204-3.299-3.209-5.012
				c-0.502-0.857-0.987-1.724-1.439-2.61c-0.226-0.443-0.445-0.892-0.648-1.351c-0.1-0.23-0.202-0.461-0.29-0.701
				c-0.046-0.118-0.087-0.242-0.129-0.366l-0.057-0.191C116.05,125.821,116.043,125.644,116.069,125.524z"/>
		</g>
	</g>
	<g>
		<path class="st4" d="M129.715,116.813c-5.108,8.45,4.064,24.812,14.64,28.721c-0.763-2.545,0.627-5.774,0.627-5.774
			s1.312,13.476,27.907,11.454c-1.629-1.035-3.084-3.851-2.385-3.621c10.375,3.384,21.886-3.288,20.686-4.077
			c-3.081-2.026,3.781-1.083,10.712-9.289c-9.135-3.621-6.892-17.632-6.892-17.632l-13.34-1.376l-40.775-0.237L129.715,116.813z"/>
	</g>
	<g>
		<g>
			<path class="st3" d="M116.516,123.837c-12.441-20.257-10.587-37.223-7.964-49.986c0,0,2.236,2.485,4.906,3.001
				c-1.496-4.619-2.992-9.986-0.496-16.53l3.315,2.785c0,0-0.788-16.3,20.981-26.276l-1.461,7.409c0,0,11.325-19.883,53.932-10.191
				c-4.477,2.745-6.417,6.699-6.417,6.699s22.876-7.265,37.511,23.369c-3.995-2.344-7.408-1.681-7.408-1.681
				s15.439,15.79,10.802,35.22l-2.849-3.155c0,0,2.819,18.286-7.238,32.265c0,0-9.732-9.633-24.628-9.527
				c-14.896,0.106-52.505-2.329-54.799-1.904C132.411,115.761,116.516,123.837,116.516,123.837z"/>
		</g>
		<g>
			<path d="M116.431,124.139c-0.666-0.935-1.362-2.038-1.853-2.942c-0.551-0.94-1.051-1.907-1.563-2.868
				c-0.991-1.941-1.895-3.927-2.704-5.954c-1.623-4.052-2.81-8.285-3.522-12.604c-0.71-4.318-0.936-8.718-0.713-13.091
				c0.21-4.375,0.857-8.715,1.698-12.989l0.295-1.5l1.076,1.127l0,0c0.252,0.328,0.581,0.689,0.904,1.011
				c0.328,0.325,0.678,0.632,1.042,0.918c0.731,0.567,1.542,1.035,2.427,1.3l-0.357,0.403l0,0c-0.94-2.658-1.786-5.415-2.017-8.305
				c-0.12-1.439-0.089-2.9,0.106-4.343c0.193-1.443,0.548-2.865,1.024-4.241l0.332-0.959l0.825,0.659l0,0l3.044,3.107l-0.514,0.254
				l0,0c-0.028-0.781,0.026-1.519,0.113-2.268c0.085-0.747,0.217-1.487,0.378-2.218c0.323-1.466,0.779-2.902,1.358-4.288
				c0.576-1.387,1.266-2.727,2.054-4.009c0.793-1.277,1.685-2.492,2.649-3.647c0.955-1.164,2.026-2.224,3.121-3.255
				c0.565-0.494,1.116-1.009,1.711-1.47l0.88-0.707l0.908-0.668c2.431-1.77,5.039-3.283,7.747-4.577l1.57-0.749l-0.313,1.742l0,0
				l-2.035,7.296l-0.574-0.217l0,0c0.663-1.083,1.459-1.999,2.31-2.888c0.855-0.878,1.779-1.683,2.743-2.436
				c1.941-1.487,4.052-2.75,6.274-3.766c2.218-1.022,4.53-1.833,6.89-2.457c2.361-0.613,4.767-1.04,7.185-1.346
				c4.843-0.548,9.737-0.574,14.584-0.17c4.849,0.401,9.658,1.178,14.406,2.203l1.938,0.419l-1.683,1.124h-0.002
				c-0.65,0.364-1.296,0.745-1.902,1.19c-0.616,0.433-1.198,0.918-1.755,1.433c-0.56,0.512-1.085,1.068-1.577,1.651
				c-0.489,0.581-0.957,1.206-1.341,1.842l-0.374-0.436h0.002c1.985-0.576,4.001-0.795,6.034-0.839
				c2.029-0.035,4.064,0.157,6.06,0.556c3.994,0.798,7.8,2.48,11.155,4.792c3.361,2.312,6.289,5.216,8.782,8.423
				c2.505,3.206,4.597,6.71,6.39,10.343l1.226,2.485l-2.499-1.316l0,0c-0.5-0.335-1.016-0.664-1.561-0.931
				c-0.541-0.286-1.111-0.503-1.694-0.703c-0.585-0.191-1.187-0.332-1.8-0.426c-0.606-0.092-1.249-0.136-1.837-0.094l0.165-0.524
				l0,0c2.234,2.346,4.14,4.94,5.836,7.68c1.685,2.745,3.114,5.657,4.195,8.709c1.079,3.05,1.801,6.245,2.056,9.497
				c0.261,3.25,0.023,6.549-0.689,9.748l0,0l-0.574,1.614l-0.87-1.245l-2.455-3.51l0,0l0.541-0.258
				c0.408,2.827,0.507,5.661,0.435,8.501c-0.089,2.836-0.372,5.673-0.909,8.472c-0.535,2.798-1.305,5.56-2.372,8.218
				c-1.046,2.667-2.425,5.21-4.055,7.584l0,0l-0.521,0.751l-0.68-0.652c-0.708-0.68-1.535-1.355-2.356-1.975
				c-0.83-0.626-1.687-1.217-2.568-1.77c-1.764-1.105-3.614-2.083-5.536-2.886c-1.916-0.816-3.908-1.45-5.934-1.927
				c-2.029-0.459-4.099-0.742-6.18-0.833c-0.521-0.019-1.039-0.023-1.563-0.032l-1.6-0.007l-3.194-0.051
				c-2.128-0.048-4.253-0.118-6.378-0.194c-4.247-0.155-8.494-0.352-12.736-0.558c-8.487-0.408-16.97-0.901-25.45-1.272
				c-1.06-0.044-2.12-0.081-3.175-0.108c-0.526-0.011-1.058-0.021-1.572-0.011c-0.27,0.011-0.482,0.004-0.703,0.067
				c-0.226,0.058-0.474,0.145-0.715,0.231c-1.952,0.744-3.882,1.651-5.804,2.54c-1.92,0.899-3.833,1.819-5.74,2.748l-2.865,1.409
				l-1.427,0.707l-0.712,0.355l-0.357,0.178l-0.178,0.089l-0.089,0.044l-0.05,0.024C116.62,124.138,116.513,124.151,116.431,124.139
				z M116.601,123.537c-0.052-0.028-0.129-0.028-0.176-0.004l0.039-0.019l0.089-0.046l0.176-0.09l0.355-0.182l0.71-0.362l1.422-0.72
				l2.847-1.431c1.902-0.948,3.808-1.888,5.726-2.808c1.925-0.911,3.833-1.833,5.843-2.621c0.256-0.095,0.509-0.189,0.796-0.265
				c0.291-0.087,0.618-0.087,0.876-0.099c0.548-0.018,1.077-0.011,1.613-0.005c1.067,0.016,2.13,0.044,3.194,0.078
				c8.497,0.291,16.981,0.705,25.467,1.031c4.242,0.166,8.485,0.322,12.727,0.438c2.122,0.057,4.241,0.108,6.36,0.134l3.177,0.021
				l1.586-0.009c0.537,0.005,1.081,0.004,1.622,0.018c2.164,0.076,4.322,0.35,6.438,0.807c2.112,0.475,4.19,1.116,6.189,1.946
				c2.005,0.816,3.933,1.812,5.779,2.944c0.922,0.567,1.819,1.174,2.692,1.819c0.878,0.652,1.708,1.312,2.54,2.095l-1.2,0.1l0,0
				c1.62-2.224,3.017-4.626,4.099-7.174c1.104-2.54,1.932-5.207,2.533-7.925c0.604-2.72,0.963-5.497,1.129-8.287
				c0.152-2.785,0.131-5.608-0.187-8.368l-0.117-1.005l0.657,0.749l0,0l3.243,2.799l-1.445,0.369l0,0
				c0.757-3.013,1.074-6.145,0.909-9.266c-0.157-3.121-0.767-6.224-1.733-9.218c-0.968-2.996-2.285-5.884-3.864-8.624
				c-1.586-2.731-3.412-5.36-5.517-7.699l0,0l-0.445-0.385l0.609-0.139c0.687-0.157,1.341-0.205,2.019-0.212
				c0.673,0,1.35,0.05,2.017,0.161c0.666,0.118,1.335,0.263,1.981,0.485c0.654,0.205,1.282,0.479,1.906,0.774l0,0l-1.272,1.169
				c-1.661-3.586-3.614-7.042-5.963-10.207c-2.338-3.168-5.095-6.037-8.28-8.346c-3.179-2.307-6.802-4.018-10.647-4.887
				c-1.92-0.433-3.889-0.67-5.862-0.683c-1.964-0.009-3.971,0.166-5.848,0.663h-0.002l-0.698,0.27l0.322-0.705
				c0.343-0.749,0.744-1.429,1.189-2.1c0.445-0.666,0.927-1.311,1.457-1.92c0.528-0.609,1.088-1.196,1.696-1.736
				c0.597-0.553,1.249-1.046,1.914-1.524h0.002l0.254,1.542c-4.668-1.097-9.394-1.948-14.16-2.431
				c-4.764-0.487-9.57-0.546-14.33-0.097c-2.375,0.256-4.739,0.631-7.06,1.189c-2.317,0.569-4.59,1.32-6.775,2.277
				c-2.187,0.952-4.266,2.146-6.182,3.559c-0.952,0.713-1.865,1.48-2.709,2.317c-0.833,0.833-1.642,1.743-2.257,2.711l0,0
				l-0.798,1.651l0.219-1.867l0.885-7.522l0,0l1.256,0.991c-2.662,1.166-5.23,2.544-7.63,4.173l-0.897,0.615l-0.869,0.652
				c-0.588,0.426-1.132,0.903-1.696,1.36c-1.087,0.957-2.151,1.944-3.109,3.034c-0.964,1.081-1.862,2.222-2.667,3.429
				c-0.8,1.21-1.509,2.48-2.109,3.801c-0.604,1.32-1.09,2.694-1.45,4.101c-0.357,1.399-0.607,2.865-0.616,4.28l0,0l0.099,0.675
				l-0.611-0.42l-3.586-2.462l0,0l1.157-0.3c-0.509,1.265-0.906,2.573-1.155,3.914c-0.249,1.34-0.348,2.711-0.304,4.085
				c0.081,2.755,0.761,5.482,1.566,8.172l0,0l0.194,0.472l-0.551-0.069c-1.026-0.127-2.007-0.496-2.909-0.98
				c-0.45-0.246-0.887-0.516-1.305-0.813c-0.424-0.302-0.813-0.6-1.224-0.984l0,0l1.37-0.372c-0.911,4.214-1.622,8.462-1.907,12.747
				c-0.298,4.281-0.155,8.593,0.461,12.842c0.618,4.249,1.706,8.433,3.234,12.46c0.761,2.014,1.618,3.993,2.563,5.931
				c0.489,0.961,0.966,1.929,1.494,2.87c0.256,0.47,0.528,0.966,0.754,1.363C116.165,122.647,116.377,123.079,116.601,123.537z"/>
		</g>
	</g>
	<g>

			<ellipse transform="matrix(0.0207 -0.9998 0.9998 0.0207 68.3907 256.8111)" class="st5" cx="165.287" cy="93.495" rx="25.933" ry="13.357"/>
	</g>
	<g>
		<path class="st6" d="M148.37,64.46c-25.091-5.857-29.712,14.193-29.712,14.193s-3.928-3.305-3.561-13.384
			c2.741,7.376,5.103,8.161,6.786,8.63c0.652,0.18,0,0-0.268-0.62c-4.673-10.788,3.372-25.658,11.304-30.711
			c-2.342,7.846-1.259,12.563,0.832,18.088c0.415-1.646-1.268-25.8,47.23-24.793c0,0-6.356,6.411-6.749,11.949
			c8.079-4.545,27.14-1.63,40.917,10.85c0,0-6.655-1.86-8.951,1.568c11.49,7.033,17.366,20.838,15.744,30.452
			c-4.097-5.085-17.777-26.261-23.503-20.842c-7.991-9.029-25.769,0.795-32.555,13.021C165.884,82.86,153.413,65.636,148.37,64.46z"
			/>
	</g>
	<g>
		<g>
			<path class="st7" d="M157.825,90.307c0.378,13.178-1.309,24.36-11.848,25.808c-8.192,1.127-16.246-8.951-18.374-20.645
				c-2.375-13.062-3.209-24.341,11.653-28.229C154.119,63.351,157.322,72.729,157.825,90.307z"/>
		</g>
		<g>
			<path d="M158.321,90.293c0.097,2.775,0.113,5.558-0.063,8.347c-0.185,2.784-0.55,5.585-1.388,8.303
				c-0.426,1.355-0.97,2.688-1.713,3.93c-0.739,1.242-1.674,2.393-2.816,3.324c-1.136,0.938-2.464,1.635-3.852,2.088
				c-0.696,0.224-1.406,0.394-2.122,0.509c-0.719,0.122-1.48,0.171-2.222,0.131c-1.492-0.069-2.942-0.494-4.26-1.125
				c-1.323-0.627-2.52-1.464-3.594-2.414c-2.146-1.907-3.864-4.21-5.216-6.682c-1.355-2.471-2.379-5.104-3.091-7.809
				c-0.353-1.351-0.626-2.733-0.844-4.099c-0.224-1.367-0.433-2.738-0.609-4.116c-0.357-2.75-0.611-5.528-0.493-8.321
				c0.118-2.777,0.676-5.619,2.103-8.082c0.715-1.222,1.635-2.326,2.697-3.259c1.06-0.941,2.268-1.694,3.527-2.314
				c1.259-0.624,2.584-1.095,3.927-1.473c1.344-0.374,2.706-0.673,4.09-0.864c1.383-0.178,2.787-0.268,4.186-0.138
				c1.394,0.134,2.789,0.485,4.045,1.146c1.257,0.657,2.34,1.629,3.184,2.759c0.85,1.132,1.491,2.399,1.996,3.705
				c1.002,2.625,1.512,5.391,1.874,8.146C158.026,84.747,158.203,87.522,158.321,90.293z M157.328,90.321
				c-0.048-2.757-0.154-5.512-0.433-8.246c-0.288-2.729-0.722-5.46-1.635-8.035c-0.463-1.281-1.042-2.526-1.846-3.617
				c-0.795-1.093-1.809-2.027-2.997-2.67c-1.183-0.654-2.524-1.002-3.879-1.12c-1.357-0.124-2.733-0.039-4.085,0.175
				c-2.702,0.447-5.369,1.237-7.807,2.446c-1.215,0.613-2.356,1.362-3.377,2.247c-1.019,0.887-1.897,1.931-2.586,3.093
				c-1.394,2.326-1.994,5.066-2.135,7.793c-0.081,1.369-0.039,2.745,0.063,4.116c0.106,1.37,0.254,2.741,0.47,4.103
				c0.212,1.362,0.456,2.72,0.717,4.077c0.249,1.358,0.555,2.686,0.963,3.995c0.804,2.614,1.909,5.131,3.314,7.456
				c1.413,2.312,3.094,4.474,5.14,6.187c1.024,0.848,2.127,1.593,3.307,2.148c1.18,0.553,2.439,0.901,3.711,0.982
				c0.639,0.041,1.266,0.009,1.913-0.095c0.65-0.099,1.293-0.237,1.916-0.428c1.245-0.383,2.418-0.973,3.432-1.782
				c2.052-1.609,3.382-4.025,4.209-6.572c0.832-2.564,1.229-5.283,1.45-8.01C157.362,95.83,157.387,93.075,157.328,90.321z"/>
		</g>
	</g>
	<g>
		<path d="M161.671,89.721c0.666,13.252-1.459,23.274-12.019,24.57c-7.796,0.957-16.076-7.713-18.203-19.407
			c-2.375-13.062-3.209-24.341,11.653-28.23C157.964,62.765,160.709,70.568,161.671,89.721z"/>
		<path d="M148.444,114.625c-7.644,0-15.213-8.496-17.251-19.694c-2.416-13.28-3.194-24.593,11.844-28.53
			c5.828-1.524,9.848-1.279,12.655,0.777c4.417,3.236,5.662,11.02,6.242,22.528l0,0c0.38,7.554-0.198,12.916-1.819,16.88
			c-1.936,4.734-5.347,7.339-10.428,7.962C149.271,114.599,148.857,114.625,148.444,114.625z M149.575,65.942
			c-1.831,0-3.951,0.323-6.406,0.964c-14.603,3.822-13.832,14.91-11.463,27.931c2.1,11.538,10.138,20.144,17.915,19.194
			c8.942-1.097,12.579-8.591,11.79-24.298l0,0c-0.57-11.357-1.779-19.02-6.028-22.132C153.87,66.493,151.968,65.942,149.575,65.942z
			"/>
	</g>
	<g>
		<g>
			<path class="st7" d="M173.438,92.937c1.561,13.176,7.621,25.003,18.217,24c8.236-0.779,13.434-12.127,13.169-24.304
				c-0.276-12.695-2.446-24.429-17.813-24.814C171.647,67.436,171.047,72.774,173.438,92.937z"/>
		</g>
		<g>
			<path d="M173.889,92.882c0.355,2.745,0.903,5.463,1.696,8.104c0.795,2.635,1.83,5.205,3.223,7.547
				c1.39,2.333,3.162,4.462,5.391,5.903c2.218,1.448,4.896,2.057,7.517,1.757c1.281-0.138,2.517-0.578,3.633-1.244
				c1.118-0.664,2.109-1.556,2.987-2.554c1.748-2.015,3.003-4.474,3.91-7.037c0.906-2.572,1.464-5.272,1.745-8.001
				c0.145-1.363,0.219-2.738,0.222-4.11c-0.005-1.376-0.041-2.771-0.106-4.151c-0.141-2.762-0.42-5.519-1.056-8.19
				c-0.637-2.658-1.667-5.251-3.363-7.374c-0.842-1.06-1.853-1.983-2.983-2.733c-1.129-0.754-2.385-1.316-3.686-1.727
				c-1.303-0.413-2.662-0.663-4.031-0.809c-1.367-0.141-2.757-0.165-4.145-0.159c-1.385,0.013-2.77,0.085-4.131,0.286
				c-1.357,0.203-2.706,0.548-3.896,1.192c-1.194,0.634-2.185,1.607-2.81,2.805c-0.636,1.194-0.945,2.549-1.116,3.907
				c-0.328,2.734-0.159,5.523,0.065,8.289C173.193,87.352,173.535,90.118,173.889,92.882z M172.986,92.99
				c-0.298-2.777-0.583-5.556-0.767-8.351c-0.168-2.792-0.281-5.61,0.094-8.421c0.196-1.399,0.55-2.803,1.228-4.08
				c0.666-1.282,1.754-2.347,3.027-3.017c1.272-0.683,2.67-1.033,4.06-1.266c1.396-0.224,2.803-0.313,4.207-0.343
				c1.401-0.023,2.807-0.016,4.216,0.111c1.406,0.134,2.808,0.372,4.17,0.788c1.362,0.408,2.679,0.992,3.891,1.761
				c1.21,0.768,2.303,1.729,3.22,2.835c1.846,2.218,2.974,4.923,3.686,7.657c0.713,2.748,1.049,5.562,1.245,8.365
				c0.094,1.406,0.157,2.798,0.189,4.212c0.023,1.416-0.028,2.833-0.152,4.246c-0.261,2.822-0.814,5.629-1.738,8.331
				c-0.929,2.694-2.218,5.313-4.114,7.542c-0.946,1.109-2.061,2.105-3.345,2.863c-1.279,0.759-2.733,1.274-4.23,1.429
				c-1.466,0.155-2.962,0.081-4.403-0.272c-1.441-0.348-2.807-0.977-4.029-1.787c-2.45-1.641-4.294-3.962-5.7-6.434
				c-1.413-2.485-2.423-5.154-3.186-7.87C173.796,98.564,173.293,95.784,172.986,92.99z"/>
		</g>
	</g>
	<g>
		<g>
			<path d="M177.373,91.317c1.826,13.143,8.282,27.345,18.118,23.277c5.811-2.404,12.913-11.179,13.288-23.058
				c0.528-16.761-2.446-24.429-17.813-24.814C175.6,66.338,174.664,71.806,177.373,91.317z"/>
		</g>
		<g>
			<path d="M177.866,91.249c0.399,2.713,0.975,5.399,1.75,8.022c0.779,2.621,1.75,5.188,3.02,7.584
				c0.636,1.196,1.351,2.347,2.167,3.405c0.816,1.058,1.745,2.022,2.799,2.784c1.051,0.759,2.24,1.302,3.483,1.478
				c1.242,0.187,2.52-0.002,3.721-0.447c1.206-0.447,2.34-1.144,3.396-1.939c1.063-0.793,2.037-1.718,2.937-2.709
				c0.904-0.991,1.733-2.057,2.478-3.181c0.742-1.127,1.399-2.312,1.987-3.531c1.171-2.442,1.999-5.06,2.453-7.75
				c0.235-1.346,0.355-2.702,0.403-4.08c0.053-1.378,0.087-2.755,0.08-4.133c0-1.378-0.067-2.753-0.187-4.123
				c-0.126-1.367-0.296-2.734-0.607-4.068c-0.304-1.333-0.713-2.644-1.294-3.87c-0.585-1.224-1.339-2.365-2.284-3.322
				c-0.941-0.961-2.052-1.75-3.268-2.338c-1.215-0.592-2.515-1.011-3.842-1.318c-2.664-0.599-5.424-0.767-8.174-0.77
				c-1.374,0.007-2.751,0.063-4.106,0.267c-1.35,0.203-2.696,0.524-3.903,1.136c-1.208,0.602-2.243,1.522-2.923,2.677
				c-0.689,1.153-1.042,2.485-1.235,3.827c-0.191,1.346-0.224,2.718-0.194,4.089c0.032,1.37,0.134,2.741,0.267,4.112
				C177.062,85.787,177.453,88.52,177.866,91.249z M176.882,91.384c-0.343-2.746-0.664-5.5-0.864-8.271
				c-0.097-1.385-0.165-2.775-0.161-4.17c0.005-1.394,0.072-2.794,0.306-4.181c0.235-1.381,0.637-2.766,1.383-3.988
				c0.742-1.224,1.87-2.194,3.146-2.805c1.279-0.611,2.651-0.959,4.029-1.166c1.381-0.202,2.771-0.293,4.16-0.33
				c2.77-0.055,5.574,0.03,8.317,0.627c1.369,0.293,2.72,0.726,3.988,1.358c1.266,0.626,2.446,1.457,3.425,2.487
				c0.982,1.028,1.754,2.238,2.34,3.516c0.587,1.281,0.992,2.63,1.288,3.994c0.592,2.733,0.777,5.516,0.864,8.287
				c0.044,1.387,0.048,2.775,0.03,4.16c-0.019,1.387-0.085,2.792-0.259,4.181c-0.344,2.782-1.076,5.523-2.179,8.121
				c-1.098,2.6-2.609,5.032-4.465,7.191c-1.886,2.116-4.133,4.023-6.922,5.055c-1.39,0.498-2.939,0.703-4.433,0.452
				c-1.498-0.237-2.884-0.911-4.053-1.786c-1.173-0.881-2.164-1.946-3.02-3.086c-0.857-1.141-1.59-2.358-2.234-3.612
				c-1.288-2.51-2.247-5.154-3.006-7.841C177.801,96.888,177.251,94.148,176.882,91.384z"/>
		</g>
	</g>
	<g>
		<g>
			<path class="st8" d="M113.504,92.682c5.11-9.159,22.269-33.122,45.969-18.727c1.378-18.851-26.146-23.289-40.042-5.719
				c5.311,0.503,5.867,1.143,5.867,1.143S115.524,71.534,113.504,92.682z"/>
		</g>
		<g>
			<g>
				<path d="M113.595,92.397c-0.004-0.078-0.03-0.154-0.063-0.2c-0.033-0.048-0.06-0.065-0.057-0.089
					c-0.007-0.005,0.052-0.102,0.081-0.159l0.106-0.194l0.429-0.776c0.288-0.516,0.594-1.021,0.899-1.526
					c0.618-1.007,1.261-1.998,1.934-2.969c1.339-1.95,2.814-3.806,4.396-5.573c3.158-3.527,6.819-6.691,11.062-8.951
					c2.12-1.122,4.379-2.01,6.73-2.559c2.351-0.541,4.788-0.751,7.194-0.561c2.409,0.166,4.773,0.731,7.012,1.568
					c2.242,0.841,4.349,1.978,6.316,3.29l0,0l-0.456,0.235c0.062-2.192-0.212-4.391-1.017-6.389
					c-0.398-0.998-0.896-1.95-1.507-2.824c-0.611-0.874-1.331-1.667-2.125-2.379c-1.59-1.422-3.495-2.475-5.516-3.19
					c-2.026-0.707-4.166-1.104-6.325-1.189c-4.32-0.18-8.679,0.759-12.625,2.584c-3.955,1.821-7.5,4.539-10.392,7.878l-0.207-0.485
					c1.007,0.037,2.015,0.089,3.031,0.185c0.507,0.05,1.016,0.108,1.531,0.196c0.258,0.042,0.518,0.097,0.783,0.163
					c0.134,0.037,0.268,0.072,0.411,0.124c0.07,0.023,0.146,0.057,0.224,0.09c0.044,0.021,0.081,0.037,0.131,0.067
					c0.062,0.044,0.067,0.019,0.228,0.175l0.004,0.004l0.751,0.828l-1.111,0.261c-0.176,0.042-0.456,0.139-0.685,0.239
					c-0.24,0.1-0.479,0.221-0.713,0.344c-0.47,0.254-0.92,0.556-1.351,0.885c-0.869,0.654-1.646,1.443-2.353,2.289
					c-1.407,1.706-2.518,3.677-3.39,5.749c-0.876,2.072-1.54,4.242-2.038,6.452c-0.251,1.105-0.465,2.22-0.648,3.34l-0.252,1.648
					c-0.033,0.23-0.089,0.433-0.171,0.659C113.761,91.863,113.667,92.121,113.595,92.397z M113.417,92.971
					c-0.011-0.293-0.042-0.602-0.062-0.945c-0.021-0.341-0.014-0.705,0.014-1.044l0.023-0.252l0.026-0.215l0.053-0.428l0.108-0.855
					c0.155-1.139,0.343-2.273,0.567-3.403c0.447-2.259,1.065-4.493,1.909-6.654c0.841-2.16,1.938-4.246,3.39-6.108
					c0.731-0.924,1.544-1.798,2.481-2.545c0.466-0.376,0.959-0.726,1.485-1.03c0.265-0.15,0.533-0.295,0.818-0.422
					c0.293-0.131,0.55-0.24,0.926-0.341l-0.359,1.09l0.002,0.004c0.115,0.111,0.065,0.055,0.076,0.065
					c-0.004-0.005-0.023-0.016-0.033-0.024c-0.035-0.019-0.07-0.042-0.117-0.065c-0.089-0.046-0.193-0.089-0.295-0.131
					c-0.214-0.081-0.438-0.157-0.67-0.226c-0.461-0.139-0.94-0.256-1.422-0.362c-0.966-0.214-1.948-0.385-2.935-0.544l-0.502-0.08
					l0.293-0.406c2.638-3.647,6.176-6.715,10.274-8.736c4.084-2.031,8.688-3.093,13.286-2.875c2.292,0.109,4.589,0.528,6.754,1.342
					c2.164,0.804,4.214,1.992,5.899,3.605c1.699,1.59,2.994,3.616,3.72,5.809c0.726,2.197,0.911,4.532,0.648,6.78l-0.055,0.468
					l-0.401-0.233l0,0c-4.084-2.227-8.531-3.799-13.102-4.029c-4.56-0.259-9.137,0.862-13.192,3.008
					c-2.035,1.06-3.962,2.344-5.767,3.783c-1.809,1.438-3.513,3.017-5.106,4.707c-1.598,1.687-3.072,3.492-4.482,5.345
					c-0.703,0.929-1.376,1.881-2.027,2.849c-0.325,0.484-0.643,0.973-0.957,1.464l-0.466,0.74l-0.252,0.409
					c-0.069,0.104-0.166,0.215-0.274,0.295C113.589,92.868,113.491,92.921,113.417,92.971z"/>
			</g>
		</g>
	</g>
	<g>
		<g>
			<path class="st8" d="M218.277,94.052c-4.725-9.365-20.877-34.016-45.154-20.617c-0.594-18.892,27.088-22.184,40.245-4.053
				c-5.327,0.283-5.91,0.899-5.91,0.899S217.138,72.837,218.277,94.052z"/>
		</g>
		<g>
			<g>
				<path d="M218.353,94.343c-0.072-0.053-0.17-0.109-0.272-0.194c-0.102-0.085-0.196-0.2-0.261-0.307l-0.237-0.42l-0.435-0.759
					c-0.293-0.503-0.592-1.005-0.896-1.503c-0.609-0.994-1.244-1.973-1.907-2.93c-1.333-1.911-2.731-3.775-4.257-5.527
					c-1.521-1.754-3.158-3.403-4.906-4.914c-1.743-1.515-3.616-2.875-5.604-4.02c-3.962-2.312-8.487-3.621-13.054-3.552
					c-4.577,0.039-9.085,1.425-13.257,3.481l0,0l-0.409,0.217l-0.035-0.47c-0.17-2.257,0.113-4.583,0.929-6.749
					c0.816-2.162,2.192-4.133,3.956-5.65c1.748-1.542,3.849-2.644,6.042-3.358c2.197-0.724,4.508-1.046,6.804-1.06
					c4.601-0.026,9.158,1.226,13.155,3.425c4.011,2.188,7.417,5.399,9.903,9.154l0.278,0.417l-0.504,0.058
					c-0.992,0.117-1.981,0.249-2.957,0.42c-0.485,0.087-0.97,0.183-1.436,0.304c-0.233,0.058-0.461,0.126-0.678,0.198
					c-0.104,0.039-0.21,0.076-0.3,0.118c-0.048,0.019-0.085,0.042-0.12,0.06c-0.011,0.009-0.032,0.019-0.035,0.023
					c0.011-0.011-0.042,0.046,0.078-0.062l0.004-0.004l-0.315-1.104c0.371,0.117,0.624,0.237,0.909,0.38
					c0.278,0.139,0.541,0.295,0.8,0.456c0.514,0.327,0.992,0.696,1.441,1.092c0.906,0.786,1.683,1.692,2.374,2.646
					c1.374,1.918,2.383,4.05,3.133,6.242c0.756,2.194,1.279,4.453,1.632,6.728c0.178,1.137,0.318,2.28,0.426,3.423l0.072,0.859
					l0.035,0.429l0.018,0.217l0.013,0.252c0.014,0.339,0.007,0.703-0.028,1.044C218.421,93.743,218.377,94.052,218.353,94.343z
					 M218.199,93.762c-0.062-0.278-0.143-0.541-0.217-0.768c-0.074-0.23-0.12-0.435-0.145-0.666l-0.18-1.653
					c-0.138-1.127-0.306-2.25-0.511-3.364c-0.406-2.229-0.98-4.425-1.77-6.532c-0.784-2.105-1.811-4.121-3.147-5.885
					c-0.671-0.876-1.415-1.696-2.255-2.386c-0.417-0.348-0.855-0.668-1.314-0.941c-0.23-0.134-0.463-0.265-0.698-0.374
					c-0.224-0.109-0.498-0.217-0.675-0.267l-1.098-0.307l0.784-0.796l0.004-0.004c0.168-0.148,0.17-0.124,0.235-0.166
					c0.051-0.026,0.089-0.041,0.133-0.062c0.08-0.03,0.157-0.06,0.228-0.08c0.145-0.046,0.281-0.076,0.417-0.106
					c0.268-0.055,0.53-0.097,0.789-0.129c0.519-0.067,1.028-0.104,1.538-0.133c1.017-0.055,2.027-0.065,3.036-0.06l-0.228,0.477
					c-2.751-3.455-6.182-6.318-10.057-8.302c-3.868-1.985-8.183-3.105-12.507-3.105c-2.16-0.004-4.315,0.304-6.369,0.926
					c-2.049,0.631-3.995,1.604-5.643,2.959c-0.821,0.678-1.574,1.441-2.22,2.289c-0.648,0.848-1.185,1.779-1.623,2.759
					c-0.887,1.964-1.252,4.149-1.281,6.341l-0.445-0.254l0,0c2.02-1.229,4.173-2.28,6.447-3.025c2.272-0.742,4.658-1.208,7.07-1.275
					c2.411-0.089,4.838,0.222,7.164,0.86c2.326,0.646,4.546,1.629,6.618,2.836c4.145,2.436,7.672,5.745,10.681,9.402
					c1.507,1.831,2.903,3.748,4.161,5.751c0.632,0.998,1.233,2.017,1.809,3.047c0.286,0.518,0.57,1.033,0.835,1.561l0.398,0.791
					l0.097,0.2c0.026,0.057,0.081,0.157,0.074,0.161c0.002,0.023-0.024,0.039-0.06,0.085
					C218.235,93.61,218.205,93.684,218.199,93.762z"/>
			</g>
		</g>
	</g>
	<g>

			<ellipse transform="matrix(0.0207 -0.9998 0.9998 0.0207 67.7504 230.437)" class="st7" cx="151.504" cy="80.635" rx="6.512" ry="4.566"/>
		<path d="M151.434,87.513c-0.024,0-0.05,0-0.074,0c-2.714-0.057-4.859-3.184-4.779-6.971c0.078-3.787,2.338-6.823,5.066-6.767
			c2.714,0.057,4.859,3.184,4.779,6.971C156.348,84.498,154.115,87.513,151.434,87.513z M151.57,74.49
			c-2.292,0-4.204,2.702-4.273,6.065c-0.071,3.393,1.759,6.193,4.078,6.24c0.019,0,0.041,0,0.06,0c2.292,0,4.204-2.702,4.273-6.065
			c0.07-3.393-1.759-6.193-4.078-6.24C151.611,74.49,151.59,74.49,151.57,74.49z"/>
	</g>
	<g>

			<ellipse transform="matrix(0.0207 -0.9998 0.9998 0.0207 51.2997 236.5195)" class="st7" cx="146.383" cy="92.073" rx="3.257" ry="2.282"/>
		<path d="M146.348,95.516c-0.013,0-0.024,0-0.037,0c-1.357-0.028-2.429-1.591-2.39-3.486c0.019-0.906,0.286-1.755,0.751-2.39
			c0.479-0.654,1.129-1.002,1.782-0.992c1.358,0.028,2.431,1.591,2.39,3.485C148.805,94.009,147.689,95.516,146.348,95.516z
			 M146.415,89.003c-0.539,0-1.054,0.3-1.455,0.848c-0.422,0.576-0.664,1.353-0.682,2.187c-0.035,1.696,0.879,3.096,2.04,3.121
			c0.011,0,0.021,0,0.03,0c1.146,0,2.102-1.351,2.137-3.033l0,0c0.035-1.696-0.88-3.096-2.04-3.119
			C146.436,89.003,146.426,89.003,146.415,89.003z"/>
	</g>
	<g>

			<ellipse transform="matrix(0.0207 -0.9998 0.9998 0.0207 111.6895 275.2893)" class="st7" cx="196.369" cy="80.632" rx="6.512" ry="4.566"/>
		<path d="M196.3,87.513c-0.024,0-0.05,0-0.074,0c-2.714-0.057-4.859-3.184-4.779-6.971c0.037-1.812,0.57-3.51,1.501-4.779
			c0.959-1.309,2.243-2.014,3.564-1.987c2.714,0.057,4.859,3.184,4.779,6.971l0,0C201.214,84.498,198.981,87.513,196.3,87.513z
			 M196.436,74.49c-1.077,0-2.109,0.599-2.911,1.694c-0.844,1.153-1.328,2.706-1.363,4.371c-0.071,3.393,1.759,6.193,4.078,6.24
			c0.019,0,0.041,0,0.06,0c2.292,0,4.204-2.702,4.273-6.065c0.071-3.393-1.759-6.193-4.078-6.24
			C196.477,74.49,196.456,74.49,196.436,74.49z"/>
	</g>
	<g>

			<ellipse transform="matrix(0.0207 -0.9998 0.9998 0.0207 95.2373 281.3694)" class="st7" cx="191.246" cy="92.07" rx="3.257" ry="2.282"/>
		<path d="M191.213,95.516c-0.013,0-0.024,0-0.037,0c-1.357-0.028-2.431-1.591-2.39-3.486c0.019-0.906,0.286-1.755,0.751-2.39
			c0.479-0.655,1.13-1.003,1.782-0.992c1.357,0.028,2.431,1.591,2.39,3.485c-0.019,0.906-0.285,1.755-0.751,2.39
			C192.488,95.164,191.869,95.516,191.213,95.516z M191.281,89.003c-0.539,0-1.054,0.3-1.455,0.848
			c-0.422,0.576-0.664,1.353-0.682,2.187c-0.035,1.696,0.879,3.096,2.04,3.121c0.551,0.004,1.077-0.29,1.485-0.846
			c0.422-0.576,0.664-1.353,0.682-2.187l0,0c0.035-1.696-0.88-3.096-2.04-3.119C191.302,89.003,191.291,89.003,191.281,89.003z"/>
	</g>
	<g>
		<path class="st9" d="M165.958,134.682c-0.83,0.023-1.657,0.069-2.462,0.095c-2.081,0.069-2.751,0.722-5.357,1.779
			c-1.279,0.519-2.658,1.067-3.335,2.27c-2.146-0.825-3.303-2.962-4.968-4.465c-2.55-2.301-2.572-5.134-3.146-6.515
			c-0.796-1.911,0.514-0.376,0.796-2.233c0.033-0.224,0.087-0.477,0.281-0.592c0.133-0.08,0.296-0.071,0.45-0.053
			c2.305,0.276,3.932,2.3,5.869,3.579c0.632,0.419,1.59-0.389,2.29-0.108c0.749,0.298,1.455-0.424,2.096-0.026
			c1.404,0.87,3.497,0.883,5.094,0.936c1.983,0.067,3.969,0.028,5.947-0.115c1.646-0.12,2.28,0.323,3.692-0.487l7.775-3.513
			c0.85-0.487,1.976-0.535,2.713,0.111c0.005,0.004,0.009,0.009,0.014,0.013c0.155,0.148,0.183,0.383,0.194,0.599
			c0.118,2.397-0.731,4.827-2.316,6.628c-1.022,1.162-1.71,2.457-2.397,3.827c-0.422,0.846-1.953,2.203-2.892,1.441
			c-1.662-1.348-3.58-2.151-5.661-2.745C169.141,134.682,167.542,134.639,165.958,134.682z"/>
	</g>
	<g>
		<path class="st10" d="M166.046,141.888c-1.577-0.074-3.149-0.276-4.695-0.602c-1.482-0.313-2.856-0.837-4.299-1.263
			c-0.924-0.272-3.022-0.678-1.585-1.909c1.085-0.929,2.399-1.593,3.72-2.114c1.383-0.546,2.621-0.622,4.041-0.938
			c1.868-0.415,3.396-0.583,5.283-0.261c1.794,0.306,3.307,0.966,5.032,1.549c1.005,0.339,2.083,0.705,2.704,1.627
			c0.475,0.705-5.175,3.577-5.698,3.707c-0.487,0.124-0.991,0.165-1.492,0.193C168.057,141.932,167.05,141.936,166.046,141.888z"/>
	</g>
	<g>
		<path d="M146.78,126.022c0.569,2.057,1.445,3.999,2.651,5.706c1.19,1.717,2.692,3.194,4.377,4.407
			c1.694,1.201,3.568,2.157,5.544,2.805c1.973,0.657,4.038,1.051,6.115,1.122c2.075,0.09,4.163-0.124,6.157-0.682
			c2.001-0.53,3.891-1.439,5.569-2.649c1.671-1.222,3.11-2.778,4.214-4.575c1.125-1.789,1.899-3.806,2.462-5.904l0.35,0.06
			c-0.221,2.194-0.809,4.379-1.805,6.404c-1.005,2.019-2.437,3.859-4.21,5.315c-1.759,1.477-3.849,2.535-6.032,3.229
			c-2.196,0.671-4.497,0.957-6.78,0.892c-4.562-0.159-9.1-1.679-12.717-4.502c-1.809-1.401-3.363-3.135-4.532-5.092
			c-1.161-1.961-1.932-4.14-2.229-6.362L146.78,126.022z"/>
	</g>
	<g>
		<path d="M154.76,138.82c1.238-1.602,2.992-2.801,4.886-3.579c0.479-0.18,0.963-0.355,1.45-0.514l1.492-0.376l1.521-0.226
			c0.511-0.035,1.022-0.076,1.535-0.097c2.047-0.032,4.105,0.258,6.039,0.926c1.929,0.659,3.762,1.687,5.168,3.138l-0.178,0.215
			c-1.661-1.058-3.46-1.782-5.318-2.247c-1.86-0.454-3.773-0.666-5.68-0.616c-0.475,0.037-0.952,0.051-1.427,0.078l-1.416,0.182
			l-1.402,0.27c-0.459,0.122-0.913,0.261-1.378,0.378c-1.818,0.576-3.552,1.436-5.112,2.646L154.76,138.82z"/>
	</g>
	<g>
		<g>
			<path class="st11" d="M193.001,105.772c-15.08,0.146-23.199,5.136-28.079,5.184c-4.88,0.048-13.097-4.783-28.175-4.636
				c-15.078,0.146-16.933,11.029-35.724,14.558c22.532,14.412,35.213-0.624,45.325,5.23c10.112,5.853,27.444,5.684,37.439-0.366
				c9.995-6.049,28.876,15.617,46.708-4.128C210.714,119.565,208.079,105.625,193.001,105.772z"/>
		</g>
		<g>
			<path d="M193.006,106.376c-3.983,0.087-7.95,0.561-11.82,1.439c-1.936,0.435-3.852,0.95-5.754,1.529
				c-1.904,0.585-3.79,1.224-5.747,1.807c-0.978,0.291-1.985,0.553-3.049,0.739c-0.535,0.087-1.085,0.155-1.662,0.166
				c-0.576,0.004-1.132-0.05-1.671-0.124c-2.133-0.339-4.05-0.961-5.984-1.501c-3.842-1.125-7.683-2.063-11.609-2.584
				c-1.961-0.265-3.933-0.433-5.912-0.516c-0.989-0.042-1.98-0.057-2.971-0.057l-1.459,0.037c-0.482,0.041-0.97,0.058-1.448,0.118
				c-1.922,0.217-3.82,0.615-5.624,1.318c-1.814,0.676-3.534,1.62-5.219,2.662c-1.685,1.046-3.344,2.185-5.053,3.269
				c-1.708,1.09-3.485,2.098-5.323,2.974c-3.686,1.75-7.625,2.911-11.616,3.55l0,0l0.117-0.599c2.418,1.452,4.935,2.731,7.55,3.736
				c2.616,1.002,5.336,1.706,8.096,2.035c2.759,0.352,5.553,0.327,8.319-0.002c2.771-0.318,5.507-0.938,8.283-1.558
				c2.771-0.595,5.645-1.263,8.702-0.989c1.515,0.138,3.049,0.569,4.412,1.309l0.931,0.502c0.295,0.168,0.609,0.305,0.915,0.457
				c0.304,0.154,0.622,0.285,0.936,0.42c0.313,0.141,0.632,0.265,0.952,0.387c2.559,0.992,5.265,1.651,8.008,2.033
				c2.745,0.392,5.532,0.502,8.305,0.399c2.775-0.111,5.539-0.475,8.231-1.111c2.683-0.655,5.313-1.556,7.709-2.866l0.917-0.516
				c0.348-0.2,0.713-0.371,1.087-0.514c0.747-0.29,1.528-0.463,2.301-0.546c1.554-0.165,3.064,0.009,4.504,0.302
				c2.884,0.599,5.565,1.595,8.252,2.488c2.679,0.906,5.355,1.757,8.087,2.294c2.727,0.544,5.512,0.742,8.25,0.417
				c2.734-0.328,5.399-1.229,7.8-2.63c2.404-1.396,4.566-3.218,6.502-5.256l0,0l0.21,0.546c-1.729-0.193-3.451-0.465-5.149-0.86
				c-1.694-0.411-3.361-0.94-4.977-1.595c-3.248-1.287-6.245-3.135-9.055-5.159c-2.819-2.012-5.525-4.172-8.546-5.712
				c-1.507-0.77-3.087-1.374-4.723-1.748C196.373,106.495,194.69,106.346,193.006,106.376z M192.994,105.17
				c1.77,0.004,3.548,0.194,5.272,0.624c1.724,0.431,3.379,1.104,4.93,1.936c3.119,1.662,5.782,3.919,8.563,5.936
				c2.762,2.04,5.669,3.884,8.837,5.182c1.581,0.648,3.212,1.169,4.873,1.581c1.666,0.396,3.358,0.668,5.06,0.864l0.652,0.076
				l-0.442,0.472l0,0c-1.876,2.16-4.013,4.136-6.482,5.662c-2.453,1.542-5.244,2.591-8.133,3.033
				c-2.893,0.456-5.846,0.278-8.69-0.228c-2.853-0.502-5.613-1.325-8.326-2.183c-2.711-0.846-5.392-1.773-8.084-2.273
				c-1.341-0.242-2.686-0.376-3.96-0.224c-0.636,0.074-1.249,0.221-1.824,0.448c-0.288,0.113-0.565,0.247-0.832,0.404l-0.931,0.539
				c-2.573,1.439-5.341,2.451-8.165,3.142c-2.829,0.68-5.715,1.072-8.612,1.201c-2.897,0.131-5.804-0.009-8.678-0.429
				c-2.872-0.415-5.719-1.111-8.446-2.192c-0.341-0.134-0.68-0.272-1.014-0.428c-0.335-0.15-0.671-0.295-1-0.466
				c-0.328-0.168-0.663-0.322-0.982-0.507l-0.936-0.519c-1.127-0.627-2.375-0.996-3.683-1.134c-1.307-0.141-2.665-0.06-4.031,0.111
				c-1.367,0.17-2.745,0.429-4.131,0.703c-2.773,0.553-5.597,1.129-8.476,1.394c-2.875,0.274-5.799,0.244-8.663-0.198
				c-2.863-0.447-5.65-1.282-8.296-2.409c-2.651-1.118-5.154-2.536-7.521-4.133l-0.676-0.456l0.793-0.143l0,0
				c3.901-0.852,7.702-2.116,11.21-3.964c1.754-0.924,3.434-1.975,5.09-3.082c1.655-1.113,3.278-2.294,4.979-3.414
				c1.699-1.116,3.492-2.167,5.426-2.948c1.924-0.804,3.976-1.316,6.041-1.572c0.516-0.071,1.035-0.097,1.553-0.146l1.553-0.06
				c1.019-0.009,2.037-0.005,3.055,0.026c2.037,0.065,4.073,0.217,6.099,0.47c4.05,0.491,8.048,1.427,11.929,2.52
				c1.936,0.524,3.868,1.113,5.712,1.381c0.926,0.127,1.74,0.115,2.667-0.042c0.917-0.152,1.858-0.401,2.81-0.663
				c3.806-1.104,7.761-2.243,11.772-2.907C184.876,105.475,188.942,105.17,192.994,105.17z"/>
		</g>
	</g>
	<g class="st0">
		<path class="st1" d="M172.804,73.916c3.351-0.913,27.74-7.945,43.698,23.736c0.055-7.155-0.511-8.03-3.744-11.999
			c-3.234-3.971-6.931-10.099-13.69-12.968c-6.759-2.868-12.028-3.673-16.889-2.664C175.468,71.414,172.804,73.916,172.804,73.916z"
			/>
	</g>
	<g class="st0">
		<path class="st1" d="M159.476,73.955c-4.783-2.842-27.318-7.247-44.716,25.503c-0.191-6.519,0.078-9.58,2.713-12.945
			c2.637-3.364,7.65-9.835,15.52-14.107c5.168-2.807,8.819-3.712,14.739-2.757C153.653,70.605,159.476,73.955,159.476,73.955z"/>
	</g>
	<g class="st0">
		<path class="st1" d="M117.942,129.32c0.239,2.413,7.015,0.698,8.78,0.622c2.914-0.124,5.853-0.359,8.713-0.952
			c6.47-1.341,8.489-0.896,12.058,0.747c-0.804-1.892-0.007-4.124-0.007-4.124s-3.785-1.505-8.07-0.883
			c-4.285,0.622-8.704,2.863-13.262,2.588c-1.586-0.095-7.044-0.039-8.941-0.185C117.205,127.239,117.933,129.224,117.942,129.32z"
			/>
	</g>
	<g class="st0">
		<path class="st1" d="M183.551,128.992c3.932-1.068,5.834-2.395,8.815-0.717c5.708,3.214,17.689,5.634,19.16,5.696
			c1.472,0.063,1.245-3.429,1.245-3.429s-5.095-0.524-11.219-2.498c-6.123-1.973-12.049-3.843-14.285-3.37
			c-2.234,0.472-3.483,1.067-3.483,1.067S184.127,127.79,183.551,128.992z"/>
	</g>
	<g class="st0">
		<path class="st1" d="M157.936,139.009c1.277-1.394,14.16-1.742,16.829-0.231c1.742-0.581,1.742-0.581,1.742-0.581
			s-1.625-2.321-6.848-2.785c-5.223-0.465-9.578-0.281-14.19,2.702C156.311,138.894,157.936,139.009,157.936,139.009z"/>
	</g>
	<g>
		<g>
			<path class="st2" d="M156.032,152.36c3.663,4.703-12.971,16.249-20.594,13.09c-6.424-2.664-23.334-13.054-29.845-21.877
				c-8.01-10.848,24.68-41.547,30.434-28.187C143.297,132.26,147.19,141.006,156.032,152.36z"/>
		</g>
		<g>
			<path d="M156.984,151.618c0.378,0.47,0.648,1.072,0.745,1.676c0.102,0.606,0.053,1.192-0.067,1.711
				c-0.247,1.048-0.726,1.892-1.24,2.66c-1.053,1.519-2.314,2.751-3.653,3.868c-1.34,1.115-2.778,2.083-4.288,2.934
				c-1.51,0.851-3.094,1.586-4.774,2.132c-1.678,0.544-3.449,0.927-5.341,0.911c-0.943-0.014-1.92-0.134-2.886-0.45
				c-0.235-0.07-0.496-0.18-0.703-0.265l-0.597-0.263c-0.391-0.182-0.781-0.362-1.161-0.553c-3.044-1.509-5.904-3.223-8.715-5.032
				c-2.808-1.807-5.536-3.734-8.176-5.784c-2.637-2.052-5.196-4.219-7.567-6.618c-1.181-1.203-2.319-2.462-3.351-3.829l-0.385-0.514
				c-0.133-0.183-0.27-0.392-0.391-0.595c-0.242-0.413-0.442-0.852-0.595-1.3c-0.309-0.899-0.433-1.835-0.433-2.743
				c0.005-1.824,0.47-3.54,1.083-5.141c0.624-1.605,1.424-3.11,2.312-4.546c1.775-2.875,3.907-5.484,6.238-7.885
				c2.331-2.4,4.868-4.605,7.648-6.489c1.394-0.938,2.842-1.801,4.38-2.522c1.537-0.71,3.169-1.296,4.923-1.492
				c0.874-0.094,1.787-0.083,2.686,0.138c0.896,0.215,1.77,0.659,2.457,1.303c0.692,0.637,1.192,1.446,1.548,2.255l1.005,2.262
				c1.342,3.015,2.69,6.028,4.078,9.015c1.401,2.981,2.851,5.933,4.405,8.82c1.556,2.886,3.214,5.705,5.021,8.427
				C152.999,146.431,154.944,149.06,156.984,151.618z M155.08,153.102c-2.014-2.655-3.933-5.391-5.708-8.218
				c-1.781-2.826-3.403-5.745-4.892-8.722c-1.492-2.974-2.868-5.995-4.193-9.029c-1.333-3.031-2.62-6.076-3.9-9.122l-0.957-2.285
				c-0.288-0.708-0.682-1.33-1.2-1.821c-1.03-0.998-2.572-1.303-4.099-1.137c-1.537,0.166-3.062,0.705-4.514,1.378
				c-1.455,0.68-2.853,1.51-4.188,2.434c-2.67,1.849-5.131,4.018-7.372,6.382c-2.225,2.375-4.249,4.953-5.895,7.731
				c-0.811,1.394-1.524,2.84-2.056,4.331c-0.524,1.485-0.879,3.033-0.839,4.521c0.019,0.742,0.143,1.463,0.391,2.12
				c0.124,0.328,0.278,0.641,0.461,0.936c0.094,0.148,0.187,0.283,0.3,0.431l0.371,0.466c0.998,1.24,2.112,2.407,3.283,3.52
				c2.349,2.225,4.908,4.255,7.547,6.173c2.644,1.913,5.376,3.714,8.16,5.423c1.394,0.852,2.803,1.674,4.229,2.462
				c1.422,0.789,2.858,1.558,4.306,2.24c0.362,0.173,0.724,0.334,1.085,0.496l0.541,0.228c0.178,0.069,0.296,0.118,0.459,0.165
				c0.607,0.189,1.289,0.27,1.996,0.267c1.418,0.002,2.918-0.32,4.379-0.777c2.929-0.945,5.779-2.444,8.273-4.323
				c1.237-0.943,2.405-1.999,3.269-3.175c0.426-0.581,0.776-1.203,0.926-1.764c0.078-0.281,0.097-0.533,0.069-0.744
				C155.276,153.462,155.211,153.283,155.08,153.102z"/>
		</g>
	</g>
	<g>
		<g>
			<path class="st2" d="M175.109,152.36c-3.663,4.703,12.971,16.249,20.594,13.09c6.424-2.664,23.334-13.054,29.845-21.877
				c8.01-10.848-24.68-41.547-30.434-28.187C187.845,132.26,183.951,141.006,175.109,152.36z"/>
		</g>
		<g>
			<path d="M176.061,153.102c-0.129,0.183-0.196,0.361-0.224,0.574c-0.028,0.212-0.009,0.465,0.069,0.744
				c0.148,0.561,0.5,1.183,0.926,1.764c0.864,1.176,2.031,2.234,3.269,3.175c2.494,1.879,5.345,3.379,8.273,4.323
				c1.463,0.459,2.96,0.781,4.379,0.777c0.707,0.004,1.388-0.078,1.996-0.267c0.163-0.046,0.281-0.095,0.459-0.165l0.541-0.228
				c0.362-0.161,0.722-0.322,1.085-0.496c1.448-0.682,2.884-1.45,4.306-2.24c1.425-0.788,2.835-1.611,4.229-2.462
				c2.784-1.708,5.516-3.508,8.16-5.423c2.639-1.918,5.198-3.947,7.547-6.173c1.171-1.113,2.285-2.28,3.283-3.52l0.371-0.466
				c0.113-0.146,0.207-0.281,0.3-0.431c0.183-0.293,0.337-0.606,0.461-0.936c0.247-0.657,0.369-1.378,0.39-2.12
				c0.041-1.487-0.313-3.034-0.839-4.521c-0.531-1.491-1.245-2.937-2.056-4.331c-1.646-2.778-3.67-5.355-5.895-7.731
				c-2.242-2.363-4.702-4.532-7.372-6.382c-1.333-0.924-2.731-1.754-4.188-2.434c-1.452-0.673-2.978-1.212-4.514-1.378
				c-1.528-0.166-3.068,0.139-4.099,1.137c-0.519,0.491-0.911,1.115-1.2,1.821l-0.957,2.285c-1.281,3.047-2.568,6.091-3.9,9.122
				c-1.326,3.034-2.701,6.056-4.193,9.029c-1.489,2.974-3.112,5.895-4.892,8.722C179.995,147.711,178.075,150.447,176.061,153.102z
				 M174.157,151.618c2.042-2.559,3.984-5.188,5.79-7.911c1.807-2.722,3.467-5.541,5.021-8.427c1.554-2.886,3.005-5.839,4.405-8.82
				c1.388-2.987,2.736-6,4.078-9.015l1.005-2.262c0.355-0.809,0.855-1.62,1.548-2.255c0.687-0.644,1.561-1.087,2.457-1.303
				c0.899-0.221,1.812-0.231,2.686-0.138c1.755,0.196,3.386,0.781,4.923,1.492c1.537,0.719,2.987,1.585,4.38,2.522
				c2.78,1.885,5.316,4.089,7.648,6.489s4.464,5.009,6.238,7.885c0.889,1.436,1.689,2.941,2.312,4.546
				c0.613,1.604,1.077,3.319,1.083,5.141c0,0.908-0.124,1.844-0.433,2.743c-0.154,0.448-0.353,0.887-0.595,1.3
				c-0.12,0.205-0.258,0.411-0.39,0.595l-0.385,0.514c-1.031,1.367-2.169,2.626-3.351,3.829c-2.37,2.399-4.931,4.566-7.567,6.618
				c-2.639,2.051-5.367,3.977-8.176,5.784c-2.81,1.809-5.671,3.523-8.715,5.032c-0.38,0.189-0.77,0.371-1.161,0.553l-0.597,0.263
				c-0.205,0.085-0.468,0.194-0.703,0.265c-0.966,0.316-1.944,0.437-2.886,0.45c-1.892,0.016-3.663-0.367-5.341-0.911
				c-1.679-0.546-3.264-1.281-4.774-2.132c-1.51-0.852-2.948-1.821-4.288-2.934c-1.339-1.116-2.6-2.347-3.653-3.868
				c-0.514-0.768-0.992-1.611-1.24-2.66c-0.12-0.521-0.171-1.107-0.067-1.711C173.511,152.69,173.779,152.088,174.157,151.618z"/>
		</g>
	</g>
	<g class="st0">
		<path class="st1" d="M232.457,44.221c0.359,0.359,10.513,13.69,9.877,17.955c-0.897,6.016-16.88,25.048-16.88,25.048
			l-1.237,10.433l-2.714-2.892l0.09,9.248c0,0,9.158-15.981,10.774-18.226c1.616-2.245,21.458-21.638,21.458-21.638L232.457,44.221z
			"/>
	</g>
	<g class="st0">
		<path class="st1" d="M105.272,141.423c-2.37,3.56-4.746,12.801-7.393,13.413c-4.244,0.979-7.24-4.097-12.962-1.664
			c-5.723,2.434-14.534,4.617-16.168,4.501c2.45,1.122,4.165,1.141,4.808,1.259c0.643,0.12,9.935-1.748,14.771-2.114
			c2.498-0.189,12.332,2.625,12.332,2.625s1.8-3.866,3.094-5.431c1.294-1.565,5.62-6.392,5.62-6.392L105.272,141.423z"/>
	</g>
	<g class="st0">
		<path class="st1" d="M118.254,153.846c2.603,1.526,13.738,5.892,18.494,6.194c5.656,0.359,15.084-3.322,18.136-8.619
			c0,0,2.065,2.155,1.436,3.681c-0.629,1.526-3.861,6.106-6.913,7.632c-3.052,1.526-11.223,4.758-14.186,3.322
			C132.261,164.619,118.254,153.846,118.254,153.846z"/>
	</g>
	<g class="st0">
		<path class="st1" d="M213.334,153.485c-2.603,1.526-13.738,5.892-18.494,6.194c-5.656,0.359-15.084-3.322-18.136-8.619
			c0,0-2.065,2.155-1.436,3.681c0.629,1.526,3.861,6.106,6.913,7.632c3.052,1.526,11.223,4.758,14.186,3.322
			C199.327,164.259,213.334,153.485,213.334,153.485z"/>
	</g>
	<g>
		<g>
			<path class="st12" d="M215.174,28.478c0,0-0.454-12.284-0.749-18.171c-0.24-4.81-0.325-4.719,4.566-4.96
				c4.891-0.24,18.171-0.749,18.171-0.749l15.149,14.276l-21.661,23.694L215.174,28.478z"/>
		</g>
		<g>
			<path d="M214.974,28.57c-0.315-3.693-0.524-7.471-0.705-11.249c-0.1-1.888-0.157-3.785-0.237-5.675l-0.118-2.829
				c-0.014-0.475-0.026-0.952,0.013-1.455c0.014-0.127,0.021-0.252,0.041-0.381l0.087-0.398c0.046-0.136,0.106-0.274,0.165-0.409
				c0.087-0.129,0.173-0.267,0.279-0.378c0.23-0.224,0.498-0.371,0.757-0.465c0.129-0.039,0.258-0.083,0.385-0.115l0.374-0.07
				c0.493-0.078,0.97-0.111,1.443-0.139c0.945-0.057,1.877-0.089,2.817-0.117l5.625-0.187c3.749-0.136,7.501-0.214,11.253-0.322l0,0
				l0.092-0.004l0.067,0.063l15.147,14.276l0.157,0.148l-0.145,0.159l-21.661,23.694l-0.148,0.161l-0.161-0.146L214.974,28.57z
				 M215.372,28.385l15.424,14.022l-0.309,0.014l21.661-23.696l0.011,0.307L237.01,4.756l0.159,0.06l0,0
				c-3.746,0.202-7.491,0.433-11.237,0.606L220.313,5.7l-2.803,0.148c-0.461,0.032-0.92,0.069-1.355,0.139
				c-0.437,0.065-0.83,0.194-1.039,0.406c-0.212,0.2-0.296,0.602-0.323,1.037c-0.032,0.431-0.019,0.894-0.004,1.355l0.131,2.792
				c0.076,1.858,0.173,3.709,0.226,5.569C215.278,20.864,215.379,24.584,215.372,28.385z"/>
		</g>
	</g>
	<g>
		<g>
			<g>
				<path class="st13" d="M216.919,12.822c0.666-0.722-0.129-3.192,0.802-4.219c1-1.102,3.494-0.343,4.165-1.07
					c0.3-0.325,0.104-1.357-0.113-2.314c-1.072,0.048-2.026,0.09-2.78,0.127c-4.891,0.24-4.808,0.15-4.566,4.96
					c0.041,0.811,0.085,1.747,0.129,2.751C215.536,13.125,216.609,13.162,216.919,12.822z"/>
			</g>
			<g>
				<path d="M216.757,12.674c0.209-0.252,0.231-0.749,0.242-1.19c0.007-0.456-0.009-0.926,0.023-1.406
					c0.041-0.474,0.097-0.985,0.398-1.438c0.307-0.454,0.82-0.698,1.296-0.795c0.482-0.106,0.959-0.127,1.424-0.146
					c0.461-0.021,0.931-0.03,1.314-0.155c0.087-0.037,0.176-0.074,0.23-0.129c0.039-0.026,0.051-0.044,0.067-0.07
					c0.016-0.028,0.028-0.067,0.039-0.109c0.039-0.18,0.033-0.403,0.013-0.622c-0.044-0.443-0.143-0.894-0.244-1.344V5.266
					l0.222,0.171c-1.178,0.09-2.356,0.168-3.536,0.24c-0.587,0.044-1.176,0.069-1.745,0.141c-0.561,0.069-1.141,0.18-1.455,0.487
					c-0.307,0.304-0.369,0.887-0.392,1.448c-0.023,0.57,0.014,1.161,0.026,1.748c0.046,1.18,0.072,2.363,0.094,3.545l-0.203-0.209
					l0,0c0.401,0.026,0.8,0.05,1.19,0.042c0.194-0.004,0.389-0.016,0.57-0.046C216.511,12.809,216.692,12.746,216.757,12.674z
					 M217.08,12.971c-0.226,0.217-0.463,0.252-0.675,0.295c-0.217,0.035-0.428,0.048-0.636,0.053
					c-0.417,0.009-0.825-0.016-1.229-0.042l0,0l-0.189-0.007l-0.016-0.202c-0.094-1.178-0.171-2.356-0.244-3.536
					c-0.037-0.594-0.067-1.183-0.055-1.794c-0.002-0.15,0.009-0.306,0.024-0.463c0.009-0.155,0.03-0.313,0.069-0.475
					c0.051-0.318,0.21-0.668,0.465-0.938c0.139-0.124,0.283-0.244,0.442-0.309c0.155-0.09,0.313-0.133,0.47-0.178
					c0.313-0.087,0.62-0.134,0.92-0.166c0.606-0.069,1.196-0.095,1.789-0.117c1.181-0.046,2.363-0.07,3.547-0.09l0.187-0.004
					l0.035,0.173v0.002c0.102,0.456,0.203,0.917,0.252,1.399c0.021,0.242,0.035,0.489-0.023,0.767
					c-0.019,0.07-0.041,0.143-0.081,0.217c-0.041,0.076-0.104,0.148-0.161,0.189c-0.115,0.108-0.246,0.161-0.371,0.214
					c-0.507,0.163-0.98,0.155-1.445,0.182c-0.463,0.019-0.918,0.042-1.346,0.136c-0.429,0.087-0.809,0.288-1.03,0.611
					c-0.224,0.327-0.29,0.781-0.323,1.222c-0.032,0.448-0.014,0.909-0.023,1.383c-0.007,0.239-0.011,0.475-0.051,0.726
					C217.342,12.463,217.288,12.733,217.08,12.971z"/>
			</g>
		</g>
	</g>
	<g>
		<g>
			<path class="st14" d="M266.372,75.391l-11.076-10.198c-1.787-1.646-1.904-4.456-0.258-6.245l15.969-17.342
				c1.646-1.787,4.456-1.904,6.245-0.258l11.076,10.198c1.787,1.646,1.904,4.456,0.258,6.245l-15.969,17.342
				C270.971,76.923,268.161,77.037,266.372,75.391z"/>
		</g>
		<g>
			<path d="M266.126,75.658l-9.6-8.953l-1.2-1.12c-0.403-0.366-0.822-0.813-1.097-1.316c-0.576-1.009-0.749-2.231-0.489-3.358
				c0.127-0.563,0.362-1.102,0.687-1.581c0.334-0.487,0.731-0.864,1.095-1.268l2.231-2.407l8.914-9.635
				c1.496-1.605,2.946-3.214,4.481-4.817c0.841-0.772,1.978-1.201,3.114-1.198c1.137-0.005,2.273,0.431,3.114,1.203l9.666,8.879
				l1.208,1.109c0.406,0.362,0.823,0.791,1.104,1.289c0.588,0.991,0.768,2.204,0.541,3.338c-0.113,0.569-0.335,1.118-0.652,1.609
				c-0.076,0.126-0.159,0.246-0.254,0.357c-0.092,0.115-0.183,0.233-0.272,0.33l-0.542,0.616l-2.169,2.464
				c-1.459,1.63-2.925,3.253-4.41,4.859c-1.477,1.614-2.962,3.22-4.453,4.82l-2.236,2.402l-1.12,1.2l-0.56,0.6l-0.279,0.3
				l-0.318,0.311c-0.887,0.805-2.079,1.252-3.266,1.24C268.173,76.933,266.994,76.467,266.126,75.658z M266.619,75.125
				c0.746,0.675,1.743,1.051,2.743,1.039c1-0.004,1.989-0.392,2.713-1.07l0.265-0.267l0.276-0.304l0.551-0.607l1.102-1.215
				l2.209-2.427c1.471-1.618,2.949-3.231,4.437-4.836c1.478-1.613,2.976-3.207,4.479-4.797l2.277-2.365
				c0.376-0.401,0.783-0.777,1.068-1.18c0.295-0.413,0.514-0.887,0.637-1.385c0.254-0.998,0.102-2.098-0.403-3.006
				c-0.254-0.463-0.592-0.842-1-1.21l-1.206-1.113l-9.644-8.902c-0.772-0.712-1.814-1.116-2.865-1.113
				c-1.051-0.005-2.095,0.401-2.865,1.111c-1.483,1.565-2.959,3.211-4.437,4.813l-8.866,9.677l-2.215,2.422
				c-0.366,0.409-0.761,0.796-1.042,1.217c-0.288,0.428-0.493,0.909-0.604,1.413c-0.224,1.007-0.063,2.096,0.454,2.987
				c0.259,0.456,0.595,0.818,1.005,1.181l1.213,1.104L266.619,75.125z"/>
		</g>
	</g>
	<g>
		<path class="st15" d="M237.378,4.994c-2.501-2.303,4.373,10.325,2.748,12.092c-1.625,1.766-10.05-2.261-12.473,0.409
			c-2.259,2.49,2.046,10.664,0.431,12.417c-1.614,1.754-14.181-2.932-12.432-1.323c1.938,1.784,31.37,28.885,31.37,28.885
			l4.925-5.348l0.263-0.285l11.65-12.653l0.239-0.258l4.652-5.051C268.747,33.88,240.142,7.54,237.378,4.994z"/>
	</g>
	<g class="st16">
		<polygon class="st7" points="268.458,34.084 263.678,39.18 240.466,17.319 236.998,4.58 		"/>
	</g>
	<g>
		<rect x="251.853" y="11.941" transform="matrix(0.6774 -0.7356 0.7356 0.6774 60.5543 194.5314)" width="0.438" height="32.566"/>
	</g>
	<g>
		<rect x="239.919" y="24.82" transform="matrix(0.6775 -0.7355 0.7355 0.6775 47.1931 189.8867)" width="0.438" height="32.611"/>
	</g>
	<g>
		<g>

				<rect x="248.685" y="43.392" transform="matrix(0.6774 -0.7356 0.7356 0.6774 47.1387 211.6715)" class="st17" width="32.444" height="17.397"/>
		</g>
		<g>
			<path d="M260.328,70.121l-13.086-11.699l-0.307-0.274l0.283-0.307l22.011-23.837l0.251-0.272l0.267,0.251l12.697,11.894
				l0.159,0.15l-0.146,0.158L260.328,70.121z M260.31,69.685l21.825-23.798l0.013,0.309l-12.899-11.675l0.518-0.021l-21.943,23.899
				l-0.024-0.581L260.31,69.685z"/>
		</g>
	</g>
	<g>
		<g>
			<g>
				<polygon class="st17" points="247.904,41.397 251.364,44.583 255.33,43.751 255.833,39.731 252.371,36.545 248.405,37.377
					"/>
			</g>
			<g>
				<path d="M248.079,41.331l3.412,3.114l-0.166-0.046l3.921-1.04l-0.315,0.343l0.713-3.993l0.058,0.161l-3.462-3.186l0.166,0.046
					l-3.916,1.06l0.33-0.359L248.079,41.331z M247.728,41.46l0.261-4.136l0.019-0.313l0.311-0.048l4.013-0.604l0.1-0.016l0.065,0.06
					l3.462,3.186l0.067,0.062l-0.007,0.1l-0.291,4.047l-0.021,0.296l-0.293,0.046l-4.008,0.626l-0.1,0.016l-0.065-0.062
					L247.728,41.46z"/>
			</g>
		</g>
		<g>
			<g>
				<path class="st7" d="M249.074,40.084l2.008-2.181l0.583,0.537l0.38,2.206c0.12,0.569,0.283,0.946,0.487,1.136
					c0.166,0.154,0.32,0.24,0.461,0.261c0.141,0.021,0.263-0.024,0.366-0.136c0.1-0.109,0.126-0.252,0.074-0.428
					c-0.053-0.175-0.166-0.343-0.339-0.502l0.668-0.726c0.237,0.219,0.411,0.468,0.524,0.749c0.113,0.281,0.146,0.558,0.102,0.832
					c-0.044,0.274-0.163,0.518-0.357,0.728c-0.311,0.337-0.646,0.509-1.007,0.514c-0.36,0.005-0.72-0.159-1.083-0.491
					c-0.152-0.139-0.279-0.298-0.381-0.477c-0.102-0.178-0.187-0.389-0.256-0.631s-0.138-0.594-0.205-1.051l-0.203-0.935
					l-1.132,1.229L249.074,40.084z"/>
			</g>
		</g>
	</g>
	<g class="st16">

			<rect x="269.57" y="34.597" transform="matrix(0.6834 -0.7301 0.7301 0.6834 54.0725 212.3096)" class="st7" width="4.469" height="18.438"/>
	</g>
	<g>

			<rect x="244.391" y="47.517" transform="matrix(0.6774 -0.7356 0.7356 0.6774 48.5843 207.3709)" class="st15" width="32.67" height="1.551"/>
		<path d="M250.255,60.981l-1.303-1.2l0.074-0.081l22.205-24.115l1.303,1.2l-0.074,0.081L250.255,60.981z M249.262,59.769
			l0.98,0.903l21.982-23.874l-0.98-0.903L249.262,59.769z"/>
	</g>
	<g>

			<rect x="252.729" y="55.195" transform="matrix(0.6774 -0.7356 0.7356 0.6774 45.6257 215.981)" class="st15" width="32.67" height="1.551"/>
		<path d="M258.594,68.658l-1.303-1.2l0.074-0.081l22.205-24.116l1.303,1.2l-0.074,0.081L258.594,68.658z M257.599,67.447
			l0.98,0.903l21.982-23.874l-0.98-0.903L257.599,67.447z"/>
	</g>
	<g>
		<path d="M271.798,39.411c0.546,0.309,1.044,0.668,1.526,1.046c0.486,0.374,0.945,0.777,1.396,1.189
			c0.445,0.419,0.883,0.842,1.296,1.296c0.415,0.45,0.816,0.917,1.171,1.433c-0.542-0.313-1.04-0.673-1.524-1.049
			c-0.486-0.374-0.945-0.776-1.399-1.185c-0.447-0.415-0.885-0.841-1.298-1.293C272.55,40.397,272.151,39.929,271.798,39.411z"/>
	</g>
	<g>
		<path d="M252.742,60.108c0.546,0.309,1.044,0.668,1.526,1.046c0.485,0.374,0.945,0.777,1.396,1.189
			c0.445,0.419,0.883,0.842,1.296,1.296c0.415,0.45,0.816,0.917,1.171,1.433c-0.542-0.313-1.04-0.673-1.524-1.049
			c-0.486-0.374-0.945-0.776-1.399-1.185c-0.447-0.415-0.885-0.841-1.298-1.293C253.494,61.094,253.095,60.626,252.742,60.108z"/>
	</g>
	<g>
		<path d="M269.415,41.999c0.546,0.309,1.044,0.668,1.526,1.046c0.485,0.374,0.945,0.777,1.396,1.189
			c0.445,0.419,0.883,0.842,1.296,1.296c0.415,0.45,0.816,0.917,1.171,1.433c-0.542-0.313-1.04-0.673-1.524-1.049
			c-0.486-0.374-0.945-0.776-1.399-1.185c-0.447-0.415-0.885-0.841-1.298-1.293C270.167,42.984,269.768,42.517,269.415,41.999z"/>
	</g>
	<g>
		<path d="M267.034,44.587c0.546,0.309,1.044,0.668,1.526,1.046c0.485,0.374,0.945,0.777,1.396,1.189
			c0.445,0.419,0.883,0.842,1.296,1.296c0.415,0.45,0.816,0.917,1.171,1.433c-0.542-0.313-1.04-0.673-1.524-1.049
			c-0.486-0.374-0.945-0.776-1.399-1.185c-0.447-0.415-0.885-0.841-1.298-1.293C267.785,45.572,267.388,45.104,267.034,44.587z"/>
	</g>
	<g>
		<path d="M264.652,47.172c0.546,0.309,1.044,0.668,1.526,1.046c0.486,0.374,0.945,0.777,1.396,1.189
			c0.445,0.419,0.883,0.842,1.296,1.296c0.415,0.45,0.816,0.917,1.171,1.433c-0.542-0.313-1.04-0.673-1.524-1.049
			c-0.485-0.374-0.945-0.776-1.399-1.185c-0.447-0.415-0.885-0.841-1.298-1.293C265.404,48.158,265.005,47.69,264.652,47.172z"/>
	</g>
	<g>
		<path d="M262.269,49.76c0.546,0.309,1.044,0.668,1.526,1.046c0.486,0.374,0.945,0.777,1.396,1.189
			c0.445,0.419,0.883,0.842,1.296,1.296c0.415,0.45,0.816,0.917,1.171,1.433c-0.542-0.313-1.04-0.673-1.524-1.049
			c-0.485-0.374-0.945-0.776-1.399-1.185c-0.447-0.415-0.885-0.841-1.298-1.293C263.021,50.745,262.622,50.277,262.269,49.76z"/>
	</g>
	<g>
		<path d="M259.888,52.347c0.546,0.309,1.044,0.668,1.526,1.046c0.485,0.374,0.945,0.777,1.396,1.189
			c0.445,0.419,0.883,0.842,1.296,1.296c0.415,0.45,0.816,0.917,1.171,1.433c-0.542-0.313-1.04-0.673-1.524-1.049
			c-0.485-0.374-0.945-0.776-1.399-1.185c-0.447-0.415-0.885-0.841-1.298-1.293C260.639,53.333,260.241,52.865,259.888,52.347z"/>
	</g>
	<g>
		<path d="M257.505,54.933c0.546,0.309,1.044,0.668,1.526,1.046c0.486,0.374,0.945,0.777,1.396,1.189
			c0.445,0.418,0.883,0.842,1.296,1.296c0.415,0.45,0.816,0.917,1.171,1.433c-0.542-0.313-1.04-0.673-1.524-1.049
			c-0.485-0.374-0.945-0.776-1.399-1.185c-0.447-0.415-0.885-0.841-1.298-1.293C258.258,55.918,257.859,55.452,257.505,54.933z"/>
	</g>
	<g>
		<path d="M255.122,57.521c0.546,0.309,1.044,0.668,1.526,1.046c0.485,0.374,0.945,0.777,1.396,1.189
			c0.445,0.418,0.883,0.842,1.296,1.296c0.415,0.45,0.816,0.917,1.171,1.433c-0.542-0.313-1.04-0.673-1.524-1.049
			c-0.486-0.374-0.945-0.776-1.399-1.185c-0.447-0.415-0.885-0.841-1.298-1.293C255.875,58.506,255.476,58.038,255.122,57.521z"/>
	</g>
	<g>
		<path d="M260.328,70.121l-13.086-11.699l-0.307-0.274l0.283-0.307l22.011-23.837l0.251-0.272l0.267,0.251l12.697,11.894
			l0.154,0.145l-0.141,0.163c-1.779,2.056-3.598,4.094-5.429,6.123c-1.826,2.04-3.69,4.036-5.539,6.054
			c-1.857,2.007-3.725,3.984-5.586,5.96l-2.794,2.927L260.328,70.121z M260.31,69.685l2.713-3.093l2.701-3.04
			c1.801-2.003,3.596-4.003,5.403-5.975c1.814-1.959,3.614-3.942,5.451-5.88c1.831-1.948,3.675-3.888,5.56-5.811l0.013,0.309
			l-12.899-11.675l0.518-0.021l-21.945,23.899l-0.025-0.581L260.31,69.685z"/>
	</g>
	<g>
		<path d="M237.176,5.214c-0.083-0.074-0.175-0.148-0.242-0.185c-0.021-0.024-0.078-0.002,0.053-0.016
			c0.074-0.016,0.134-0.094,0.136-0.111c0.009-0.021,0.005-0.016,0.005-0.007c-0.002,0.134,0.067,0.399,0.134,0.616
			c0.138,0.457,0.328,0.913,0.514,1.369c0.369,0.913,0.8,1.811,1.198,2.722c0.403,0.909,0.802,1.826,1.169,2.766
			c0.369,0.941,0.701,1.897,0.896,2.962c0.042,0.27,0.076,0.548,0.078,0.852c-0.004,0.304-0.011,0.636-0.196,1.049
			c-0.226,0.472-0.62,0.703-0.945,0.837c-0.337,0.136-0.646,0.18-0.94,0.207c-0.585,0.05-1.113-0.007-1.629-0.072
			c-0.516-0.065-1.014-0.161-1.505-0.268c-0.982-0.209-1.941-0.436-2.9-0.624c-0.955-0.178-1.918-0.35-2.858-0.318
			c-0.926,0.013-1.876,0.263-2.337,0.938c-0.228,0.334-0.341,0.77-0.389,1.22c-0.041,0.454-0.016,0.927,0.037,1.401
			c0.254,1.904,0.906,3.771,1.388,5.733c0.118,0.494,0.217,0.998,0.286,1.528c0.06,0.533,0.104,1.085-0.055,1.745
			c-0.094,0.33-0.235,0.698-0.624,1.019c-0.38,0.281-0.717,0.346-1.021,0.403c-0.606,0.094-1.137,0.06-1.662,0.007
			c-1.042-0.104-2.024-0.353-2.999-0.592c-0.973-0.247-1.932-0.524-2.886-0.805c-0.955-0.272-1.911-0.539-2.866-0.757
			c-0.239-0.057-0.477-0.106-0.712-0.145c-0.222-0.039-0.496-0.074-0.624-0.06c-0.009,0-0.016,0.005,0.019-0.009
			c0.016-0.007,0.048-0.024,0.083-0.065c0.043-0.042,0.069-0.122,0.072-0.175c0-0.115-0.026-0.126-0.025-0.133
			c-0.002-0.004,0.005,0.009,0.018,0.021c0.043,0.046,0.161,0.15,0.244,0.23l0.548,0.503l4.375,4.031l8.754,8.056l8.792,8.015
			c2.944,2.657,5.88,5.323,8.84,7.962l0.002,0.002l-0.793,0.033l21.691-23.627l0.002-0.002l0.035,0.862
			c-2.556-2.471-5.149-4.901-7.722-7.353l-7.782-7.287c-2.586-2.437-5.214-4.831-7.821-7.245L237.176,5.214z M237.579,4.776
			l7.849,7.213c2.621,2.4,5.223,4.822,7.865,7.197l7.904,7.155c2.655,2.361,5.292,4.746,7.964,7.089l0.448,0.394l-0.413,0.468
			l-0.002,0.002l-21.762,23.563l-0.381,0.413l-0.411-0.38l-0.002-0.002c-2.874-2.734-5.774-5.438-8.663-8.155l-8.711-8.102
			l-8.75-8.061l-4.379-4.027l-0.548-0.503c-0.095-0.092-0.168-0.146-0.295-0.281c-0.03-0.033-0.062-0.07-0.095-0.127
			c-0.03-0.06-0.085-0.129-0.083-0.306c0.002-0.085,0.046-0.193,0.106-0.259c0.057-0.063,0.115-0.099,0.159-0.12
			c0.09-0.042,0.145-0.048,0.198-0.057c0.367-0.032,0.588,0.026,0.853,0.062c0.254,0.044,0.5,0.095,0.747,0.145l2.918,0.631
			c1.936,0.374,3.901,0.747,5.784,0.855c0.463,0.019,0.931,0.021,1.305-0.044c0.182-0.03,0.337-0.099,0.355-0.122
			c-0.007,0.005,0.023-0.026,0.048-0.065c0.026-0.039,0.05-0.104,0.07-0.176c0.09-0.304,0.078-0.763,0.044-1.212
			c-0.035-0.456-0.109-0.929-0.189-1.406c-0.306-1.92-0.809-3.875-0.927-5.928c-0.032-0.514-0.033-1.037,0.037-1.568
			c0.067-0.528,0.205-1.085,0.546-1.57c0.341-0.487,0.839-0.832,1.358-1.022c0.519-0.193,1.051-0.283,1.572-0.327
			c2.086-0.141,4.08,0.237,6.028,0.474c0.963,0.109,1.952,0.251,2.777,0.178c0.2-0.019,0.385-0.057,0.507-0.109
			c0.127-0.05,0.175-0.12,0.163-0.102c0.026-0.039,0.065-0.215,0.065-0.403c0.004-0.193-0.014-0.409-0.044-0.631
			c-0.117-0.896-0.38-1.84-0.636-2.778c-0.267-0.94-0.57-1.879-0.881-2.817c-0.318-0.938-0.626-1.881-0.955-2.822
			c-0.163-0.474-0.316-0.948-0.461-1.439c-0.063-0.259-0.145-0.477-0.139-0.839c0.005-0.053,0.013-0.109,0.044-0.187
			c0.026-0.076,0.131-0.205,0.267-0.235c0.129-0.03,0.209-0.004,0.265,0.014c0.06,0.019,0.099,0.042,0.139,0.065
			C237.381,4.594,237.478,4.684,237.579,4.776z"/>
	</g>
	<g class="st0">
		<path class="st1" d="M283.185,46.824l-0.887-0.791l-16.8,18.346c-10.986-10.168-25.661-23.42-37.258-34.344
			c-0.152-0.141-3.135,0.265-3.135,0.265l-5.966-1.357l-3.983-0.67l52.049,47.909l3.501,0.359l4.04-3.591
			c0,0-3.356-3.116-8.346-7.736L283.185,46.824z"/>
	</g>
	<g class="st16">
		<path class="st7" d="M220.397,7.89l-6.106-1.496c0,0-0.12-0.539,0.897-0.599c1.017-0.06,6.885,0.659,6.885,0.659l-0.12,1.198
			L220.397,7.89z"/>
	</g>
	<g>
		<g>
			<path d="M216.757,12.674c0.209-0.252,0.231-0.749,0.242-1.19c0.007-0.456-0.009-0.926,0.023-1.406
				c0.041-0.474,0.097-0.985,0.398-1.438c0.307-0.454,0.82-0.698,1.296-0.795c0.482-0.106,0.959-0.127,1.424-0.146
				c0.461-0.021,0.931-0.03,1.314-0.155c0.087-0.037,0.176-0.074,0.23-0.129c0.039-0.026,0.051-0.044,0.067-0.07
				c0.016-0.028,0.028-0.067,0.039-0.109c0.039-0.18,0.033-0.403,0.013-0.622c-0.044-0.443-0.143-0.894-0.244-1.344V5.266
				l0.222,0.171c-1.178,0.09-2.356,0.168-3.536,0.24c-0.587,0.044-1.176,0.069-1.745,0.141c-0.561,0.069-1.141,0.18-1.455,0.487
				c-0.307,0.304-0.369,0.887-0.392,1.448c-0.023,0.57,0.014,1.161,0.026,1.748c0.046,1.18,0.072,2.363,0.094,3.545l-0.203-0.209
				l0,0c0.401,0.026,0.8,0.05,1.19,0.042c0.194-0.004,0.389-0.016,0.57-0.046C216.511,12.809,216.692,12.746,216.757,12.674z
				 M217.08,12.971c-0.226,0.217-0.463,0.252-0.675,0.295c-0.217,0.035-0.428,0.048-0.636,0.053
				c-0.417,0.009-0.825-0.016-1.229-0.042l0,0l-0.189-0.007l-0.016-0.202c-0.094-1.178-0.171-2.356-0.244-3.536
				c-0.037-0.594-0.067-1.183-0.055-1.794c-0.002-0.15,0.009-0.306,0.024-0.463c0.009-0.155,0.03-0.313,0.069-0.475
				c0.051-0.318,0.21-0.668,0.465-0.938c0.139-0.124,0.283-0.244,0.442-0.309c0.155-0.09,0.313-0.133,0.47-0.178
				c0.313-0.087,0.62-0.134,0.92-0.166c0.606-0.069,1.196-0.095,1.789-0.117c1.181-0.046,2.363-0.07,3.547-0.09l0.187-0.004
				l0.035,0.173v0.002c0.102,0.456,0.203,0.917,0.252,1.399c0.021,0.242,0.035,0.489-0.023,0.767
				c-0.019,0.07-0.041,0.143-0.081,0.217c-0.041,0.076-0.104,0.148-0.161,0.189c-0.115,0.108-0.246,0.161-0.371,0.214
				c-0.507,0.163-0.98,0.155-1.445,0.182c-0.463,0.019-0.918,0.042-1.346,0.136c-0.429,0.087-0.809,0.288-1.03,0.611
				c-0.224,0.327-0.29,0.781-0.323,1.222c-0.032,0.448-0.014,0.909-0.023,1.383c-0.007,0.239-0.011,0.475-0.051,0.726
				C217.342,12.463,217.288,12.733,217.08,12.971z"/>
		</g>
	</g>
	<g>
		<path class="st17" d="M242.397,32.625c0.109-0.062,0.283-0.007,0.428-0.011c0.1-0.002,0.202-0.013,0.302-0.019
			c-0.023-0.099-0.021-0.215-0.076-0.291c-0.113-0.154-0.247-0.295-0.389-0.422c-0.313-0.281-0.636-0.55-1.016-0.876
			c-0.023,0.168-0.063,0.258-0.035,0.295c0.159,0.203,0.024,0.325-0.117,0.426c-0.401,0.29-1.13,0.307-1.533-0.023
			c-0.293-0.242-0.295-0.512,0.004-0.754c0.222-0.18,0.466-0.339,0.715-0.482c0.615-0.35,1.249-0.569,1.981-0.371
			c0.795,0.215,1.122,1.002,0.581,1.743c0.196,0.087,0.376,0.244,0.523,0.217c0.352-0.065,0.689-0.214,1.03-0.332
			c0.178-0.062,0.15-0.175,0.032-0.254c-0.069-0.048-0.185-0.062-0.27-0.044c-0.286,0.058-0.398-0.072-0.417-0.335
			c-0.005-0.074-0.007-0.15-0.032-0.219c-0.357-1.04-1.805-1.924-2.911-1.803c-0.728,0.08-1.35,0.339-1.865,0.876
			c-0.436,0.454-0.579,1.309-0.231,1.814c0.38,0.55,0.938,0.885,1.556,1.058C241.237,32.979,241.839,32.938,242.397,32.625z"/>
		<path class="st17" d="M229.85,20.605c0.691-0.24,1.053-0.825,0.979-1.54c-0.019-0.182-0.08-0.404-0.202-0.524
			c-0.507-0.493-1.033-0.955-1.531-1.404c-0.531,0.138-1.007,0.378-1.289,0.791c-0.205,0.298-0.306,0.682-0.362,1.081
			c0.48-0.222,0.961-0.447,1.441-0.671c0.212-0.099,0.419-0.222,0.643-0.268c0.131-0.026,0.296,0.058,0.429,0.129
			c0.099,0.053,0.163,0.166,0.247,0.249c0.157,0.155,0.157,0.29,0.009,0.47c-0.528,0.646-1.228,0.966-2.026,1.113
			c-0.242-0.048-0.503,0.009-0.747-0.032c0.009,0.185-0.007,0.366,0.014,0.553c0.007,0.057,0.023,0.115,0.032,0.171
			c0.235,0.171,0.585,0.293,0.864,0.265C228.857,20.933,229.362,20.774,229.85,20.605z"/>
		<path class="st17" d="M240.203,27.06c-0.498-0.678-1.171-1.042-2.027-1.031c-0.652,0.005-1.537,0.226-1.996,0.585
			c-0.781,0.607-0.972,1.57-0.296,2.307c1.07,1.173,3.264,0.85,4.129-0.035C240.528,28.357,240.64,27.654,240.203,27.06z
			 M239.765,27.602c-0.346,0.528-0.876,0.804-1.441,1.007c-0.367,0.133-0.757,0.202-1.076,0.283
			c-0.261-0.052-0.454-0.07-0.636-0.129c-0.372-0.12-0.468-0.48-0.203-0.795c0.381-0.452,0.889-0.735,1.431-0.943
			c0.276-0.106,0.579-0.131,0.865-0.215c0.359-0.106,0.652,0.035,0.938,0.212C239.919,27.193,239.94,27.334,239.765,27.602z"/>
		<path class="st17" d="M237.126,25.589c0.29-0.146,0.389-0.747,0.159-0.966c-0.588-0.56-1.183-1.111-1.781-1.659
			c-0.1-0.092-0.226-0.155-0.341-0.231c-0.014,0.018-0.03,0.035-0.044,0.053c0.033,0.092,0.067,0.183,0.118,0.327
			c-0.265,0.118-0.514,0.23-0.763,0.343c-0.602,0.272-1.196,0.565-1.809,0.805c-0.316,0.124-0.652,0.383-1.042,0.067
			c0.35,0.567,0.85,0.952,1.282,1.402c0.035-0.011,0.072-0.023,0.108-0.033c-0.009-0.159-0.018-0.32-0.028-0.479
			c-0.019-0.033-0.037-0.065-0.057-0.099c0.431-0.166,0.86-0.334,1.293-0.496c0.242-0.09,0.307,0.028,0.235,0.235
			c-0.087,0.251-0.205,0.493-0.306,0.739c-0.185,0.448-0.367,0.897-0.553,1.353c0.419,0.157,0.781,0.311,1.155,0.426
			c0.122,0.037,0.276-0.026,0.415-0.044c-0.046-0.109-0.063-0.246-0.141-0.327c-0.187-0.196-0.183-0.385-0.074-0.615
			c0.097-0.202,0.159-0.419,0.242-0.627c0.046-0.113,0.102-0.219,0.155-0.328c0.228,0.09,0.419,0.157,0.606,0.239
			C236.365,25.852,236.754,25.776,237.126,25.589z M235,24.545c-0.191-0.104-0.134-0.259,0.028-0.343
			c0.254-0.129,0.518-0.239,0.784-0.343c0.374-0.146,0.544,0.138,0.715,0.374c0.065,0.09,0.127,0.298,0.087,0.332
			c-0.194,0.165-0.422,0.29-0.639,0.429C235.608,24.829,235.293,24.706,235,24.545z"/>
		<path class="st17" d="M232.065,23.459c-0.378-0.078-0.783,0.23-1.144-0.055c-0.32-0.249-0.637-0.498-1-0.779
			c0.154-0.146,0.252-0.276,0.381-0.357c0.226-0.139,0.484-0.228,0.703-0.376c0.226-0.155,0.406-0.109,0.574,0.057
			c0.155,0.155,0.29,0.332,0.448,0.519c-0.092,0.081-0.17,0.138-0.228,0.21c-0.048,0.057-0.072,0.134-0.106,0.202
			c0.074,0.026,0.17,0.097,0.221,0.074c0.387-0.183,0.765-0.387,1.144-0.583c-0.009-0.041-0.016-0.081-0.025-0.122
			c-0.097-0.007-0.205-0.042-0.291-0.016c-0.315,0.102-0.805-0.166-0.867-0.502c-0.011-0.055,0.037-0.155,0.087-0.18
			c0.313-0.161,0.626-0.322,0.952-0.448c0.087-0.033,0.235,0.032,0.328,0.094c0.115,0.074,0.205,0.187,0.302,0.286
			c0.5,0.505,0.498,0.505,0.018,1.024c-0.021,0.023-0.033,0.053-0.081,0.133c0.108,0.053,0.246,0.173,0.306,0.141
			c0.371-0.189,0.724-0.411,1.127-0.65c-0.221-0.08-0.392-0.095-0.5-0.187c-0.509-0.44-1.003-0.899-1.496-1.357
			c-0.302-0.279-0.595-0.569-0.892-0.853c-0.033,0.011-0.069,0.021-0.102,0.032c0.185,0.323,0.041,0.47-0.228,0.6
			c-0.668,0.327-1.335,0.659-1.976,1.033c-0.367,0.214-0.673,0.261-1.012-0.023c-0.057-0.048-0.189-0.007-0.383-0.007
			c0.171,0.21,0.258,0.346,0.371,0.452c0.381,0.359,0.774,0.707,1.162,1.058c0.357,0.323,0.708,0.652,1.072,0.966
			c0.072,0.063,0.207,0.131,0.277,0.104c0.304-0.115,0.595-0.265,0.892-0.401C232.086,23.521,232.075,23.49,232.065,23.459z"/>
		<path class="st17" d="M245.988,32.68c-0.1,0.078-0.203,0.215-0.33,0.246c-0.433,0.104-0.872,0.178-1.313,0.254
			c-0.597,0.102-1.192,0.222-1.792,0.285c-0.313,0.032-0.639,0.233-0.957-0.009c-0.051-0.039-0.138-0.035-0.207-0.051
			c0.013,0.078-0.005,0.185,0.039,0.23c0.348,0.346,0.705,0.683,1.07,1.012c0.058,0.052,0.166,0.048,0.252,0.069
			c-0.007-0.087-0.014-0.171-0.021-0.258c-0.011-0.134-0.074-0.357-0.023-0.389c0.191-0.115,0.452-0.274,0.629-0.221
			c0.285,0.087,0.531,0.316,0.781,0.505c0.268,0.203,0.283,0.32,0.03,0.535c-0.138,0.117-0.335,0.166-0.512,0.224
			c-0.095,0.03-0.205,0.014-0.355,0.021c0.032,0.1,0.032,0.152,0.058,0.176c0.378,0.376,0.754,0.756,1.148,1.118
			c0.063,0.058,0.209,0.028,0.316,0.039c-0.013-0.095,0.009-0.222-0.044-0.283c-0.224-0.249-0.122-0.447,0.071-0.636
			c0.357-0.352,0.731-0.685,1.074-1.049c0.378-0.401,0.731-0.828,1.065-1.212C246.702,33.123,246.336,32.896,245.988,32.68z
			 M245.206,33.908c-0.171,0.159-0.364,0.296-0.558,0.424c-0.039,0.024-0.139-0.011-0.193-0.048
			c-0.097-0.065-0.189-0.145-0.263-0.235c-0.063-0.076-0.155-0.196-0.133-0.258c0.033-0.09,0.15-0.183,0.247-0.209
			c0.226-0.055,0.465-0.069,0.763-0.109c0.05,0.033,0.176,0.076,0.222,0.165C245.322,33.699,245.267,33.849,245.206,33.908z"/>
	</g>
</g>
<path class="st18" d="M282.859,227.588H48.523c-16.485,0-29.973-13.488-29.973-29.973v0c0-16.485,13.488-29.973,29.973-29.973
	h234.336c16.485,0,29.973,13.488,29.973,29.973v0C312.832,214.1,299.344,227.588,282.859,227.588z"/>
<g>
	<path class="st7" d="M78.029,203.046c0-0.75-0.265-1.327-0.795-1.729c-0.53-0.402-1.484-0.826-2.862-1.272
		c-1.378-0.445-2.469-0.886-3.273-1.319c-2.191-1.183-3.287-2.778-3.287-4.783c0-1.043,0.294-1.973,0.882-2.79
		c0.587-0.817,1.431-1.455,2.531-1.915c1.1-0.459,2.335-0.689,3.704-0.689c1.379,0,2.606,0.25,3.684,0.749
		c1.078,0.5,1.915,1.204,2.511,2.114c0.597,0.91,0.895,1.944,0.895,3.1h-3.976c0-0.883-0.278-1.57-0.835-2.06
		c-0.557-0.491-1.339-0.735-2.346-0.735c-0.972,0-1.727,0.205-2.266,0.616c-0.539,0.411-0.809,0.951-0.809,1.623
		c0,0.628,0.316,1.153,0.948,1.577c0.631,0.424,1.561,0.822,2.79,1.193c2.261,0.68,3.909,1.524,4.943,2.53
		c1.034,1.007,1.551,2.262,1.551,3.764c0,1.671-0.632,2.98-1.895,3.93c-1.263,0.95-2.964,1.424-5.102,1.424
		c-1.484,0-2.836-0.271-4.055-0.815c-1.219-0.543-2.149-1.287-2.79-2.233c-0.641-0.945-0.961-2.04-0.961-3.286h3.989
		c0,2.129,1.272,3.194,3.816,3.194c0.945,0,1.683-0.193,2.213-0.577C77.764,204.272,78.029,203.735,78.029,203.046z"/>
	<path class="st7" d="M84.429,190.059c0-0.573,0.192-1.046,0.577-1.417c0.385-0.372,0.908-0.557,1.57-0.557
		c0.654,0,1.175,0.185,1.564,0.557c0.389,0.371,0.583,0.844,0.583,1.417c0,0.583-0.197,1.061-0.59,1.431
		c-0.393,0.371-0.912,0.557-1.557,0.557c-0.645,0-1.164-0.186-1.557-0.557C84.626,191.12,84.429,190.642,84.429,190.059z
		 M88.498,208.109h-3.843V193.77h3.843V208.109z"/>
	<path class="st7" d="M91.095,200.833c0-2.2,0.523-3.971,1.57-5.314c1.047-1.343,2.458-2.014,4.234-2.014
		c1.572,0,2.796,0.539,3.671,1.616l0.159-1.351h3.472v13.861c0,1.255-0.285,2.346-0.855,3.274s-1.371,1.634-2.405,2.121
		c-1.034,0.485-2.244,0.729-3.631,0.729c-1.051,0-2.077-0.211-3.075-0.629c-0.998-0.421-1.754-0.961-2.266-1.624l1.696-2.333
		c0.954,1.07,2.112,1.604,3.472,1.604c1.016,0,1.807-0.272,2.372-0.815c0.565-0.543,0.848-1.314,0.848-2.313v-0.768
		c-0.883,0.998-2.045,1.497-3.485,1.497c-1.723,0-3.116-0.673-4.181-2.021c-1.065-1.347-1.597-3.134-1.597-5.36V200.833z
		 M94.925,201.119c0,1.301,0.261,2.321,0.782,3.059c0.521,0.739,1.237,1.108,2.147,1.108c1.166,0,2.001-0.437,2.505-1.314v-6.039
		c-0.513-0.876-1.339-1.314-2.478-1.314c-0.919,0-1.641,0.377-2.167,1.128C95.187,198.499,94.925,199.623,94.925,201.119z"/>
	<path class="st7" d="M110.668,193.77l0.12,1.656c1.025-1.281,2.398-1.921,4.121-1.921c1.519,0,2.65,0.446,3.392,1.338
		c0.742,0.893,1.122,2.226,1.14,4.002v9.264h-3.83v-9.17c0-0.813-0.176-1.403-0.53-1.769c-0.353-0.366-0.941-0.55-1.763-0.55
		c-1.078,0-1.886,0.46-2.425,1.379v10.111h-3.83V193.77H110.668z"/>
	<path class="st7" d="M137.689,206.651c-0.946,1.149-2.253,1.723-3.923,1.723c-1.537,0-2.71-0.442-3.519-1.325
		c-0.808-0.884-1.221-2.178-1.239-3.884v-9.395h3.83v9.274c0,1.495,0.68,2.241,2.041,2.241c1.299,0,2.191-0.451,2.677-1.353V193.77
		h3.843v14.339h-3.605L137.689,206.651z"/>
	<path class="st7" d="M157.197,201.072c0,2.209-0.501,3.979-1.504,5.308c-1.002,1.33-2.357,1.994-4.061,1.994
		c-1.449,0-2.62-0.503-3.512-1.511v6.758h-3.83V193.77h3.552l0.132,1.405c0.928-1.113,2.138-1.67,3.631-1.67
		c1.767,0,3.141,0.654,4.121,1.961c0.981,1.307,1.471,3.109,1.471,5.407V201.072z M153.367,200.793c0-1.334-0.236-2.363-0.709-3.087
		c-0.473-0.725-1.159-1.087-2.061-1.087c-1.201,0-2.027,0.46-2.478,1.379v5.87c0.468,0.946,1.303,1.418,2.505,1.418
		C152.452,205.286,153.367,203.789,153.367,200.793z"/>
	<path class="st7" d="M167.374,208.109V196.58h-2.134v-2.81h2.134v-1.219c0-1.608,0.461-2.856,1.385-3.744
		c0.923-0.888,2.215-1.332,3.876-1.332c0.53,0,1.18,0.088,1.948,0.265l-0.039,2.969c-0.318-0.08-0.708-0.119-1.167-0.119
		c-1.44,0-2.161,0.676-2.161,2.027v1.153h2.85v2.81h-2.85v11.529H167.374z"/>
	<path class="st7" d="M175.458,200.807c0-1.422,0.274-2.69,0.822-3.803s1.336-1.975,2.365-2.585c1.03-0.609,2.225-0.914,3.585-0.914
		c1.935,0,3.514,0.592,4.738,1.776c1.223,1.184,1.905,2.792,2.048,4.823l0.026,0.981c0,2.201-0.613,3.965-1.841,5.295
		c-1.229,1.33-2.876,1.994-4.943,1.994c-2.067,0-3.717-0.662-4.95-1.988c-1.232-1.325-1.848-3.127-1.848-5.407V200.807z
		 M179.287,201.079c0,1.363,0.256,2.405,0.769,3.126c0.512,0.721,1.246,1.081,2.2,1.081c0.927,0,1.652-0.356,2.173-1.068
		c0.522-0.713,0.782-1.852,0.782-3.418c0-1.336-0.26-2.371-0.782-3.106c-0.521-0.734-1.255-1.102-2.2-1.102
		c-0.936,0-1.661,0.365-2.173,1.094C179.543,198.418,179.287,199.549,179.287,201.079z"/>
	<path class="st7" d="M199.458,197.361c-0.522-0.07-0.981-0.106-1.378-0.106c-1.449,0-2.399,0.49-2.85,1.471v9.383h-3.83V193.77
		h3.619l0.106,1.71c0.768-1.317,1.833-1.975,3.194-1.975c0.424,0,0.822,0.057,1.192,0.172L199.458,197.361z"/>
	<path class="st7" d="M224.16,198.899c0,1.9-0.336,3.564-1.007,4.996s-1.632,2.536-2.882,3.313c-1.25,0.778-2.683,1.167-4.3,1.167
		c-1.6,0-3.027-0.384-4.281-1.153c-1.255-0.768-2.226-1.866-2.915-3.293c-0.689-1.426-1.038-3.067-1.046-4.923v-0.954
		c0-1.899,0.342-3.572,1.027-5.015c0.685-1.445,1.652-2.553,2.902-3.327c1.25-0.773,2.679-1.159,4.287-1.159
		c1.607,0,3.036,0.387,4.287,1.159c1.25,0.774,2.217,1.882,2.902,3.327c0.685,1.444,1.027,3.112,1.027,5.002V198.899z
		 M220.131,198.024c0-2.023-0.363-3.56-1.086-4.612c-0.725-1.051-1.759-1.576-3.101-1.576c-1.335,0-2.363,0.519-3.088,1.557
		c-0.725,1.038-1.091,2.56-1.1,4.566v0.941c0,1.97,0.362,3.499,1.086,4.585c0.725,1.086,1.767,1.63,3.128,1.63
		c1.334,0,2.359-0.523,3.075-1.57c0.716-1.046,1.078-2.573,1.086-4.578V198.024z"/>
	<path class="st7" d="M240.446,192.034h-5.911v16.075h-3.976v-16.075h-5.831v-3.22h15.718V192.034z"/>
	<path class="st7" d="M246.939,208.109h-3.975v-19.295h3.975V208.109z"/>
	<path class="st7" d="M260.629,203.046c0-0.75-0.265-1.327-0.795-1.729c-0.531-0.402-1.485-0.826-2.863-1.272
		c-1.378-0.445-2.469-0.886-3.273-1.319c-2.192-1.183-3.287-2.778-3.287-4.783c0-1.043,0.293-1.973,0.881-2.79
		c0.588-0.817,1.431-1.455,2.531-1.915c1.1-0.459,2.335-0.689,3.704-0.689c1.378,0,2.606,0.25,3.684,0.749
		c1.078,0.5,1.914,1.204,2.511,2.114c0.597,0.91,0.894,1.944,0.894,3.1h-3.975c0-0.883-0.278-1.57-0.835-2.06
		c-0.557-0.491-1.339-0.735-2.345-0.735c-0.973,0-1.728,0.205-2.266,0.616c-0.539,0.411-0.808,0.951-0.808,1.623
		c0,0.628,0.316,1.153,0.947,1.577c0.632,0.424,1.562,0.822,2.79,1.193c2.261,0.68,3.909,1.524,4.943,2.53
		c1.034,1.007,1.551,2.262,1.551,3.764c0,1.671-0.631,2.98-1.895,3.93c-1.263,0.95-2.964,1.424-5.103,1.424
		c-1.484,0-2.835-0.271-4.054-0.815c-1.22-0.543-2.15-1.287-2.79-2.233c-0.641-0.945-0.961-2.04-0.961-3.286h3.989
		c0,2.129,1.272,3.194,3.816,3.194c0.946,0,1.683-0.193,2.214-0.577C260.364,204.272,260.629,203.735,260.629,203.046z"/>
</g>
</a>
</svg>
