<?xml version="1.0" encoding="utf-8"?>
<!-- Generator: Adobe Illustrator 23.0.4, SVG Export Plug-In . SVG Version: 6.00 Build 0)  -->
<svg version="1.1" id="Layer_1" xmlns="http://www.w3.org/2000/svg" xmlns:xlink="http://www.w3.org/1999/xlink" x="0px" y="0px"
	 viewBox="0 0 50.001 11" style="enable-background:new 0 0 50.001 11;" xml:space="preserve">
<g>
	<path d="M28.199,8.203c-0.438,0-0.783,0.332-0.783,0.755c0,0.425,0.346,0.76,0.778,0.76c0.433,0,0.774-0.336,0.774-0.76
		C28.968,8.535,28.628,8.203,28.199,8.203z M28.199,9.562c-0.336,0-0.59-0.267-0.59-0.604c0-0.332,0.254-0.603,0.581-0.603
		c0.336,0,0.585,0.272,0.585,0.608C28.775,9.295,28.526,9.566,28.199,9.562z"/>
	<path d="M28.369,8.982V8.973c0.088-0.028,0.156-0.088,0.156-0.179c0-0.074-0.031-0.129-0.078-0.161
		c-0.05-0.036-0.115-0.059-0.258-0.059c-0.124,0-0.221,0.013-0.29,0.023v0.755h0.175V9.051h0.083c0.097,0,0.143,0.037,0.156,0.116
		c0.023,0.092,0.036,0.156,0.059,0.185h0.185c-0.014-0.027-0.033-0.069-0.055-0.185C28.479,9.064,28.443,9.005,28.369,8.982z
		 M28.163,8.926h-0.084V8.709c0.019-0.005,0.05-0.009,0.097-0.009c0.111,0,0.161,0.046,0.161,0.115
		C28.337,8.894,28.258,8.926,28.163,8.926z"/>
	<path d="M34.196,7.458c-0.234-0.135-0.578-0.265-1.032-0.39c-0.455-0.125-0.784-0.27-0.991-0.435
		c-0.206-0.164-0.31-0.376-0.31-0.636c0-0.281,0.115-0.509,0.344-0.684c0.23-0.174,0.537-0.261,0.926-0.261
		c0.398,0,0.717,0.106,0.953,0.319c0.236,0.213,0.354,0.493,0.354,0.843h0.432c0-0.287-0.074-0.549-0.22-0.782
		c-0.145-0.234-0.351-0.416-0.616-0.548c-0.266-0.131-0.566-0.197-0.902-0.197c-0.496,0-0.903,0.123-1.222,0.367
		c-0.319,0.245-0.478,0.563-0.478,0.954c0,0.402,0.171,0.728,0.515,0.976c0.24,0.175,0.623,0.338,1.146,0.486
		c0.524,0.148,0.884,0.305,1.081,0.47c0.198,0.165,0.295,0.389,0.295,0.673c0,0.29-0.119,0.523-0.358,0.699
		c-0.238,0.176-0.555,0.264-0.948,0.264c-0.443,0-0.798-0.105-1.064-0.314c-0.266-0.208-0.4-0.493-0.4-0.853h-0.428
		c0,0.299,0.078,0.566,0.231,0.798c0.154,0.231,0.38,0.411,0.678,0.54c0.298,0.129,0.625,0.194,0.983,0.194
		c0.521,0,0.941-0.121,1.259-0.364s0.478-0.567,0.478-0.969c0-0.256-0.058-0.477-0.177-0.664C34.607,7.753,34.43,7.593,34.196,7.458
		z"/>
	<polygon points="38.322,6.07 37.797,6.07 36.357,7.498 35.965,7.927 35.965,4.475 35.548,4.475 35.548,9.869 35.965,9.869 
		35.965,8.418 36.441,7.954 37.965,9.869 38.461,9.869 36.726,7.67 	"/>
	<path d="M39.118,4.689c-0.088,0-0.157,0.027-0.209,0.082c-0.051,0.054-0.077,0.122-0.077,0.201c0,0.08,0.025,0.145,0.077,0.199
		c0.051,0.053,0.121,0.081,0.209,0.081c0.088,0,0.157-0.026,0.21-0.081c0.052-0.053,0.079-0.12,0.079-0.199
		c0-0.079-0.026-0.145-0.079-0.201C39.275,4.717,39.206,4.689,39.118,4.689z"/>
	<rect x="38.906" y="6.07" width="0.416" height="3.799"/>
	<rect x="40.323" y="4.475" width="0.416" height="5.393"/>
	<rect x="41.741" y="4.475" width="0.416" height="5.393"/>
	<path d="M45.648,8.38c-0.088-0.138-0.223-0.256-0.405-0.354c-0.181-0.098-0.456-0.192-0.82-0.278
		c-0.365-0.087-0.616-0.181-0.754-0.286c-0.139-0.104-0.208-0.251-0.208-0.441c0-0.197,0.084-0.357,0.249-0.479
		c0.166-0.123,0.385-0.185,0.659-0.185c0.281,0,0.513,0.074,0.698,0.222c0.184,0.147,0.275,0.332,0.275,0.555h0.417
		c0-0.337-0.127-0.61-0.381-0.82c-0.254-0.21-0.59-0.315-1.01-0.315c-0.386,0-0.704,0.098-0.953,0.293
		c-0.247,0.196-0.372,0.443-0.372,0.742c0,0.19,0.045,0.351,0.134,0.485c0.09,0.133,0.227,0.245,0.41,0.339
		c0.184,0.093,0.443,0.174,0.777,0.245c0.333,0.072,0.584,0.17,0.749,0.296c0.166,0.127,0.249,0.294,0.249,0.502
		c0,0.198-0.089,0.36-0.267,0.489c-0.178,0.129-0.412,0.194-0.702,0.194c-0.312,0-0.561-0.069-0.75-0.206s-0.291-0.328-0.308-0.575
		h-0.417c0,0.328,0.137,0.599,0.408,0.814c0.272,0.214,0.627,0.321,1.066,0.321c0.412,0,0.747-0.096,1.002-0.287
		c0.256-0.193,0.384-0.449,0.384-0.769C45.78,8.685,45.737,8.518,45.648,8.38z"/>
	<path d="M18.979,2.715l0.71,4.65l-3.056-4.981l-3.037,6.029c-0.82-2.877-1.256-5.971-1.256-5.971L9.735,6.784L6.847,2.192
		L6.361,6.876C6.343,6.827,6.33,6.8,6.33,6.8L6.329,6.785C6.3,6.726,6.259,6.647,6.236,6.611C5.818,5.855,4.412,5.408,3.418,5.068
		c-2.52-0.863-1.75-1.749-0.385-1.961c0.954-0.148,2.035,0.022,2.713,0.447l0.349-1.017C4.19,1.534-0.042,1.814,0.644,4.447
		C1.04,5.97,4.249,6.187,5.008,7.077c0.064,0.075,0.15,0.18,0.192,0.277c0.056,0.131,0.076,0.282,0.015,0.471
		c-0.009,0.028-0.022,0.12-0.041,0.157C5.146,8.037,5.116,8.09,5.093,8.118C4.607,8.733,3.632,8.757,2.738,8.648
		C1.713,8.523,0.798,8.018,0.744,7.9L0.314,8.982c1.619,0.874,4.692,1.391,5.838-0.22C6.157,8.756,6.16,8.751,6.164,8.745
		L6.057,9.78l1.217-0.021L7.65,5.516l2.139,3.379l1.996-3.379c0,0,0.212,0.875,0.598,2.482c0.326,1.357,0.53,1.872,0.53,1.872
		l1.048-0.082l1.036-2.085h3.7l1.383,2.084l1.144-0.002l-0.615-3.637c0.761,1.058,2.863,2.454,4.515,3.035l-0.111,0.63l1.196,0.027
		l1.052-6.209l2.531,0.028l0.394-1.016l-6.845,0.013C21.911,2.161,20.28,2.314,18.979,2.715z M15.504,6.69l1.218-2.451l1.303,2.451
		C18.025,6.69,15.504,6.69,15.504,6.69z M20.397,4.796L20.182,3.42c0.726-0.436,3.07-0.172,2.808,0.554
		C22.727,4.699,20.445,5.01,20.397,4.796z M23.937,3.662l2.081,0.014l-0.706,4.528c-1.445-0.512-3.664-2.178-3.747-2.524
		C22.381,5.619,24.123,5.156,23.937,3.662z"/>
</g>
</svg>
