<svg xmlns="http://www.w3.org/2000/svg" xmlns:xlink="http://www.w3.org/1999/xlink" viewBox="0 0 360 270">
<g>
	<polygon fill="#FFFFFF" points="81.684,51.923 4.19,48.414 7.199,64.082 31.36,61.484 29.145,188.024 38.856,190.239 52.213,60.474 78.496,59.277
			"/>
	<path fill="#FFFFFF" d="M119.51,165.655c-1.111,0.159-2.256,0.114-3.363,0.277c-13.755,0.741-30.384-3.29-34.945-34.79l56.675-3.828
		c-0.468-5.326-0.704-7.989-1.441-12.24c-3.657-21.051-13.327-38.743-37.399-37.131c-0.884,0.126-2.027,0.082-2.919,0.212
		c-23.751,3.433-32.547,28.767-27.521,57.71c4.011,23.075,18.266,48.821,52.673,43.849c8.212-1.185,16.437-3.62,20.713-6.519
		l-6.865-13.323C131.661,162.239,126.612,164.625,119.51,165.655z M96.546,88.469c11.544-1.669,20.208,8.905,23.405,27.326
		l-38.132,4.471C80.279,106.17,83.447,90.359,96.546,88.469z"/>
	<path fill="#FFFFFF" d="M219.638,96.595l-0.44-0.065c-4.239-10.986-12.484-15.913-20.921-17.13c-17.534-2.533-38.177,11.503-43.694,43.279
		c-4.325,24.891-1.242,55.633,26.943,59.705c11.992,1.726,22.614-4.414,27.208-11.218l0.668,0.094l-6.502,50.515l12.142-1.767
		l19.076-103.269l5.167-29.753l-19.398-8.82L219.638,96.595z M215.094,121.457l-2.85,24.28
		c-2.093,18.576-15.05,23.763-22.599,22.672c-19.536-2.822-20.876-29.162-17.993-45.755c3.302-19.027,12.79-33.01,27.216-30.925
		C210.635,93.427,216.995,106.587,215.094,121.457z"/>
	<path fill="#FFFFFF" d="M256.545,82.911c0-0.461-0.085-0.855-0.254-1.185c-0.169-0.331-0.472-0.574-0.907-0.732
		c0.852-0.387,1.279-0.981,1.279-1.785c0-0.754-0.239-1.318-0.717-1.688c-0.478-0.372-1.161-0.558-2.049-0.558h-2.34v7.608h0.888
		v-3.138h1.705c0.544,0,0.929,0.112,1.156,0.337c0.226,0.224,0.34,0.606,0.34,1.146c0,0.886,0.042,1.437,0.127,1.655h0.925v-0.145
		c-0.054-0.139-0.093-0.311-0.118-0.517C256.557,83.703,256.545,83.371,256.545,82.911z M255.298,80.238
		c-0.317,0.254-0.721,0.381-1.21,0.381h-1.642V77.78h1.578c0.641,0.012,1.093,0.128,1.356,0.349
		c0.263,0.221,0.394,0.588,0.394,1.102C255.775,79.648,255.616,79.984,255.298,80.238z"/>
	<path fill="#FFFFFF" d="M259.506,77.472c-0.566-1.046-1.349-1.87-2.349-2.471c-1-0.602-2.081-0.902-3.242-0.902c-1.161,0-2.241,0.301-3.242,0.902
		c-1.001,0.601-1.784,1.425-2.349,2.471c-0.565,1.046-0.848,2.179-0.848,3.401c0,1.203,0.275,2.325,0.825,3.365
		c0.55,1.04,1.326,1.873,2.326,2.498c1.001,0.626,2.096,0.939,3.287,0.939c1.191,0,2.287-0.313,3.287-0.939
		c1.001-0.626,1.776-1.458,2.326-2.498c0.55-1.04,0.825-2.162,0.825-3.365C260.354,79.651,260.072,78.518,259.506,77.472z
		 M258.826,83.886c-0.499,0.934-1.189,1.669-2.072,2.205c-0.883,0.535-1.829,0.802-2.838,0.802s-1.954-0.267-2.834-0.802
		c-0.88-0.537-1.572-1.27-2.077-2.202c-0.505-0.931-0.757-1.938-0.757-3.021c0-1.078,0.251-2.077,0.753-3
		c0.502-0.922,1.193-1.65,2.072-2.187c0.88-0.535,1.828-0.803,2.843-0.803c1.034,0,1.991,0.272,2.87,0.816
		c0.88,0.545,1.565,1.277,2.054,2.197c0.49,0.919,0.735,1.91,0.735,2.976C259.574,81.945,259.325,82.951,258.826,83.886z"/>
	<path fill="#FFFFFF" d="M10.896,21.594h6.984c3.02,0,5.326-0.701,6.918-2.105c1.592-1.403,2.388-3.394,2.388-5.974
		c0-2.554-0.828-4.561-2.482-6.021c-1.655-1.46-3.911-2.19-6.767-2.19H8.575v27.483h2.321V21.594z M10.896,7.267h7.192
		c2.164,0.025,3.835,0.602,5.012,1.73c1.176,1.128,1.765,2.643,1.765,4.546c0,1.916-0.591,3.41-1.774,4.481
		c-1.183,1.071-2.901,1.607-5.153,1.607h-7.041V7.267z"/>
	<path fill="#FFFFFF" d="M38.527,33.165c1.774,0,3.354-0.428,4.738-1.284c1.384-0.855,2.457-2.073,3.218-3.652c0.761-1.58,1.142-3.357,1.142-5.333
		v-0.472c0-3.146-0.843-5.672-2.529-7.579c-1.686-1.906-3.888-2.86-6.606-2.86c-1.762,0-3.338,0.437-4.729,1.312
		c-1.39,0.875-2.467,2.098-3.228,3.671c-0.761,1.573-1.142,3.341-1.142,5.304v0.453c0,3.146,0.846,5.672,2.539,7.579
		C33.622,32.212,35.821,33.165,38.527,33.165z M31.656,22.481c0-2.554,0.635-4.621,1.906-6.201s2.913-2.369,4.927-2.369
		c1.346,0,2.542,0.356,3.586,1.066c1.044,0.711,1.856,1.715,2.435,3.011c0.579,1.296,0.868,2.725,0.868,4.285v0.434
		c0,2.567-0.632,4.634-1.897,6.201c-1.265,1.567-2.916,2.35-4.955,2.35c-2.051,0-3.709-0.783-4.974-2.35
		c-1.265-1.567-1.897-3.57-1.897-6.012V22.481z"/>
	<polygon fill="#FFFFFF" points="57.418,32.788 62.571,16.611 62.816,15.478 63.061,16.592 68.309,32.788 70.234,32.788 76.18,12.364 73.84,12.364
		69.649,28.031 69.215,30.013 68.687,27.861 63.835,12.364 61.91,12.364 57.002,27.993 56.549,29.843 56.21,28.087 51.887,12.364
		49.566,12.364 55.492,32.788 	"/>
	<path fill="#FFFFFF" d="M82.698,31.881c1.403,0.856,2.973,1.284,4.71,1.284c3.159,0,5.568-1.202,7.23-3.605l-1.416-1.076
		c-0.755,0.969-1.595,1.674-2.52,2.114c-0.925,0.441-1.992,0.661-3.2,0.661c-2.013,0-3.684-0.771-5.011-2.313
		c-1.328-1.541-1.992-3.47-1.992-5.785v-0.434h14.572v-1.264c0-2.932-0.727-5.244-2.18-6.937c-1.454-1.692-3.42-2.539-5.899-2.539
		c-1.586,0-3.058,0.45-4.417,1.35c-1.359,0.899-2.419,2.136-3.18,3.709c-0.761,1.573-1.142,3.341-1.142,5.304v0.812
		c0,1.9,0.39,3.615,1.171,5.144C80.203,29.834,81.295,31.026,82.698,31.881z M82.698,15.781c1.164-1.246,2.596-1.869,4.294-1.869
		c1.711,0,3.095,0.617,4.152,1.85c1.057,1.234,1.617,2.831,1.68,4.795v0.245h-12.25C80.826,18.7,81.534,17.026,82.698,15.781z"/>
	<path fill="#FFFFFF" d="M100.749,18.763c0.415-1.498,1.11-2.639,2.086-3.426c0.975-0.786,2.167-1.18,3.577-1.18c0.541,0,1.05,0.045,1.529,0.132
		l0.057-2.058c-0.365-0.163-0.862-0.245-1.491-0.245c-2.643,0-4.562,1.208-5.757,3.624l-0.038-3.247h-2.208v20.424h2.246V18.763z"/>
	<path fill="#FFFFFF" d="M113.741,31.881c1.403,0.856,2.973,1.284,4.71,1.284c3.159,0,5.568-1.202,7.23-3.605l-1.416-1.076
		c-0.755,0.969-1.595,1.674-2.52,2.114c-0.925,0.441-1.992,0.661-3.2,0.661c-2.013,0-3.684-0.771-5.011-2.313
		c-1.328-1.541-1.992-3.47-1.992-5.785v-0.434h14.572v-1.264c0-2.932-0.727-5.244-2.18-6.937c-1.454-1.692-3.42-2.539-5.899-2.539
		c-1.586,0-3.058,0.45-4.417,1.35c-1.359,0.899-2.419,2.136-3.18,3.709c-0.761,1.573-1.142,3.341-1.142,5.304v0.812
		c0,1.9,0.39,3.615,1.171,5.144C111.246,29.834,112.338,31.026,113.741,31.881z M113.741,15.781
		c1.164-1.246,2.596-1.869,4.294-1.869c1.711,0,3.095,0.617,4.152,1.85c1.057,1.234,1.617,2.831,1.68,4.795v0.245h-12.25
		C111.869,18.7,112.577,17.026,113.741,15.781z"/>
	<path fill="#FFFFFF" d="M142.835,15.252c-1.447-2.177-3.55-3.265-6.306-3.265c-2.428,0-4.35,0.941-5.766,2.822
		c-1.416,1.881-2.124,4.407-2.124,7.578v0.264c0,3.221,0.721,5.779,2.162,7.673c1.441,1.894,3.337,2.841,5.691,2.841
		c2.806,0,4.933-1.032,6.38-3.095l0.094,2.718h2.115V3.794h-2.247V15.252z M142.835,27.521c-1.171,2.454-3.146,3.681-5.928,3.681
		c-1.9,0-3.372-0.752-4.416-2.256c-1.045-1.503-1.567-3.558-1.567-6.163c0-2.907,0.529-5.106,1.586-6.597
		c1.057-1.491,2.535-2.237,4.436-2.237c2.756,0,4.718,1.328,5.889,3.983V27.521z"/>
	<path fill="#FFFFFF" d="M160.683,29.994c1.46,2.114,3.611,3.171,6.455,3.171c2.378,0,4.273-0.934,5.682-2.803c1.41-1.869,2.115-4.395,2.115-7.578
		v-0.34c0-3.284-0.702-5.848-2.105-7.692c-1.403-1.843-3.313-2.765-5.729-2.765c-2.819,0-4.945,1.114-6.38,3.341V3.794h-2.246
		v28.993h2.114L160.683,29.994z M160.721,18.14c0.516-1.371,1.277-2.413,2.284-3.124c1.007-0.711,2.234-1.066,3.682-1.066
		c1.9,0,3.372,0.733,4.417,2.199c1.044,1.466,1.567,3.546,1.567,6.238c0,2.932-0.526,5.134-1.576,6.606s-2.507,2.208-4.37,2.208
		c-2.869,0-4.87-1.284-6.003-3.851V18.14z"/>
	<path fill="#FFFFFF" d="M183.312,35.373c-0.479,1.334-1.06,2.275-1.746,2.822c-0.686,0.547-1.583,0.821-2.69,0.821l-1.17-0.113l0.019,1.869
		c0.616,0.176,1.195,0.264,1.737,0.264c2.34,0,4.071-1.239,5.19-3.718l0.453-1.057l8.72-23.897h-2.434l-5.965,17.177l-6.342-17.177
		h-2.473l7.701,20.254L183.312,35.373z"/>
</g>
</svg>
