<svg xmlns="http://www.w3.org/2000/svg" xmlns:xlink="http://www.w3.org/1999/xlink" viewBox="0 0 360 270" style="height: 109%; width: 109%; position: absolute; top: -12%; left: -12%;">
<style type="text/css">
	.stcolor0{opacity:0.4;}
	.stcolor1{fill:#310E3F;}
	.stcolor2{fill:#E0BDAE;}
	.stcolor3{fill:#91ABB1;}
	.stcolor4{fill:#8A3E6E;}
	.stcolor5{fill:#FCF065;}
	.stcolor6{fill:#EB519B;}
	.stcolor7{fill:#FFFFFF;}
	.stcolor8{fill:#A9DFF6;}
	.stcolor9{fill:#2F141A;}
	.stcolor10{fill:#D28ABB;}
	.stcolor11{fill:#50B748;}
	.stcolor12{fill:#CBAC94;}
	.stcolor13{fill:#443E39;}
	.stcolor14{fill:#E4A2AC;}
	.stcolor15{fill:#E5B829;}
	.stcolor16{opacity:0.25;}
	.stcolor17{fill:#0B8266;}
</style>
<g>
	<g class="stcolor0">
		<path class="stcolor1" d="M296.525,250.21c0-5.574-64.19-10.093-143.369-10.093S9.788,244.636,9.788,250.21
			c0,3.321,22.774,6.266,57.924,8.105c-0.582,0.307-0.897,0.624-0.897,0.951c0,2.523,18.384,4.567,41.062,4.567
			c19.489,0,35.794-1.51,39.999-3.535c1.755,0.006,3.512,0.008,5.281,0.008c5.265,0,10.462-0.02,15.58-0.059
			c4.03,2.05,20.451,3.588,40.106,3.588c22.678,0,41.062-2.044,41.062-4.567c0-0.515-0.776-1.007-2.185-1.468
			C277.638,255.944,296.525,253.233,296.525,250.21z"/>
	</g>
	<g>
		<path class="stcolor2" d="M268.048,65.867c2.419,1.052,4.637,2.843,7.272,2.942c0.292,0.011,0.571,0.011,0.838,0.006
			c6.46-0.16,6.111-5.273,9.59-9.289c1.164-1.344,2.703-2.317,4.303-3.093c11.53-5.582,30.167,0.706,29.062,15.375
			c-0.366,4.857-2.503,9.407-5.006,13.583c-6.626,11.047-17.793,15.636-26.016,25.032c-1.943,2.222-4.142,4.196-6.347,6.153
			c-2.309,2.05-3.707,3.901-5.377,6.491c-4.075,6.33-8.878,12.306-13.032,18.651c-3.827,5.844-7.512,11.781-11.049,17.804
			c-1.417,2.416-4.775,10.56-8.71,9.413c-4.398-1.282-2.756-14.073-4.601-17.444c-3.369-6.156-6.269-9.514-5.543-17.07
			c0.402-4.173,2.334-7.554,4.846-10.746c1.586-2.016,2.874-4.362,4.286-6.502c0.804-1.223,3.858-4.452,3.858-5.855
			c2-3.034,3.819-6.378,6.24-9.086c2.922-3.265,5.402-6.972,7.857-10.633c1.206-1.8,2.379-3.704,2.717-5.841
			c0.478-3.051-0.981-5.335-1.699-8.144C260.297,72.751,259.934,62.34,268.048,65.867z"/>
	</g>
	<g>
		<path d="M245.159,171.231c1.67-2.731,3.296-5.49,4.902-8.257c1.62-2.759,3.209-5.535,4.789-8.319
			c3.169-5.56,6.283-11.162,9.621-16.651c3.352-5.478,6.901-10.867,10.861-15.979c3.962-5.107,8.321-9.936,13.091-14.34
			c2.379-2.208,4.857-4.308,7.424-6.297c2.5-1.957,4.933-3.954,7.242-6.08c2.306-2.12,4.483-4.365,6.42-6.758
			c0.99-1.181,1.862-2.433,2.697-3.698c0.79-1.285,1.53-2.596,2.104-3.957c1.15-2.722,1.766-5.596,1.609-8.49
			c-0.132-2.897-0.97-5.776-2.109-8.617c-0.571-1.42-1.223-2.835-1.907-4.249c-0.689-1.412-1.406-2.863-2.12-4.258
			c-0.717-1.403-1.448-2.779-2.239-4.05c-0.787-1.266-1.648-2.433-2.596-3.226c-0.951-0.799-1.926-1.19-3.141-1.232
			c-1.209-0.039-2.596,0.256-3.982,0.706c-0.349,0.121-0.697,0.231-1.046,0.371l-0.52,0.2c-0.155,0.067-0.315,0.127-0.464,0.2
			c-0.607,0.278-1.173,0.605-1.687,0.99c-1.026,0.768-1.859,1.789-2.551,3.009c-1.372,2.461-2.216,5.501-3.018,8.535
			c-0.211,0.801-0.363,1.426-0.481,2.163c-0.115,0.72-0.197,1.462-0.259,2.23c-0.143,1.541-0.135,3.133-0.498,5.003
			c-0.2,0.922-0.501,2.022-1.375,3.051c-0.433,0.503-1.004,0.925-1.592,1.195c-0.588,0.267-1.176,0.411-1.715,0.475
			c-1.086,0.127-2.036,0.025-2.93-0.118c-0.447-0.076-0.883-0.163-1.305-0.267l-0.638-0.163c-0.27-0.076-0.529-0.16-0.768-0.259
			c-0.965-0.388-1.738-0.883-2.461-1.384c-0.72-0.503-1.378-1.029-2.014-1.55c-1.268-1.043-2.458-2.095-3.656-3.012
			c-1.178-0.908-2.447-1.727-3.479-1.955c-0.515-0.112-0.875-0.082-1.218,0.076c-0.346,0.152-0.737,0.501-1.094,0.996
			c-0.36,0.492-0.669,1.116-0.903,1.687c-0.217,0.588-0.335,1.187-0.363,1.803c-0.07,1.235,0.315,2.582,0.846,3.993
			c0.537,1.417,1.235,2.897,1.772,4.547c0.264,0.827,0.498,1.69,0.63,2.599c0.129,0.908,0.16,1.848,0.082,2.784
			c-0.194,1.876-0.866,3.656-1.8,5.158c-0.233,0.377-0.464,0.757-0.728,1.102c-0.259,0.36-0.515,0.709-0.745,1.01
			c-0.475,0.633-0.956,1.251-1.426,1.898c-3.777,5.127-7.506,10.341-11.229,15.543l-11.207,15.605
			c-1.876,2.596-3.766,5.186-5.695,7.748c-1.938,2.562-3.847,5.127-5.939,7.61l-1.19-0.981c1.949-2.48,3.78-5.115,5.616-7.725
			l5.459-7.886l10.816-15.861c3.611-5.29,7.174-10.599,10.9-15.847c0.461-0.655,0.951-1.311,1.426-1.966
			c0.253-0.337,0.461-0.638,0.664-0.934c0.219-0.295,0.397-0.605,0.579-0.911c0.734-1.229,1.173-2.531,1.294-3.847
			c0.096-1.319-0.146-2.666-0.636-4.052c-0.472-1.386-1.164-2.801-1.791-4.365c-0.61-1.558-1.215-3.341-1.159-5.326
			c0.025-0.979,0.205-1.971,0.532-2.891c0.354-0.917,0.754-1.741,1.327-2.551c0.571-0.799,1.344-1.628,2.458-2.157
			c0.548-0.262,1.164-0.425,1.766-0.472s1.181,0.008,1.71,0.121c1.063,0.231,1.938,0.655,2.731,1.102
			c0.79,0.456,1.505,0.953,2.18,1.46c1.35,1.015,2.57,2.078,3.785,3.054c1.195,0.962,2.444,1.901,3.518,2.32
			c0.132,0.053,0.253,0.09,0.368,0.121l0.526,0.124c0.357,0.082,0.706,0.143,1.049,0.197c0.683,0.104,1.344,0.135,1.85,0.065
			c0.253-0.034,0.447-0.098,0.588-0.166c0.138-0.07,0.219-0.138,0.307-0.245c0.174-0.197,0.374-0.681,0.487-1.316
			c0.231-1.28,0.256-2.908,0.382-4.55c0.062-0.83,0.143-1.679,0.276-2.539c0.124-0.846,0.343-1.78,0.537-2.528
			c0.399-1.575,0.821-3.158,1.339-4.75c0.523-1.592,1.133-3.2,2.008-4.778c0.872-1.569,2.07-3.105,3.608-4.269
			c0.762-0.582,1.589-1.063,2.433-1.457c0.211-0.101,0.425-0.186,0.636-0.278l0.599-0.233c0.394-0.16,0.807-0.298,1.212-0.442
			c1.642-0.543,3.428-0.996,5.428-0.928c0.993,0.034,2.036,0.228,3.012,0.616c0.979,0.382,1.862,0.948,2.61,1.583
			c1.505,1.282,2.523,2.759,3.428,4.199c0.897,1.451,1.662,2.905,2.402,4.353c0.74,1.457,1.44,2.874,2.151,4.339
			c0.706,1.465,1.395,2.961,2.014,4.511c1.246,3.085,2.196,6.451,2.32,9.969c0.155,3.518-0.655,7.05-2.036,10.194
			c-0.689,1.58-1.544,3.057-2.449,4.483c-0.942,1.395-1.921,2.762-3.003,4.022c-2.137,2.551-4.497,4.848-6.943,7.008
			c-2.449,2.157-5.017,4.165-7.599,6.097c-2.531,1.884-4.972,3.887-7.351,5.962c-9.539,8.302-17.391,18.398-24.416,29.034
			c-3.529,5.318-6.935,10.737-10.358,16.151c-1.713,2.705-3.434,5.408-5.186,8.091C248.798,165.958,246.995,168.607,245.159,171.231
			z"/>
	</g>
	<g>
		<path class="stcolor2" d="M65.647,238.109c-1.257,1.994-2.309,4.12-3.546,6.103c-0.936,1.499-1.091,3.108-2.629,4.207
			c-2.964,2.12-4.663,1.417-8.012,0.692c-3.175-0.689-6.294-1.617-9.359-2.689c-3.169-1.108-6.651-0.031-9.905,0.447
			c-3.034,0.444-5.954,2.146-8.923,2.93c-4.514,1.192-9.115,0.669-13.488-0.832c-2.888-0.99-11.437-8.175-5.492-10.957
			c2.674-1.251,5.661-2.275,8.428-3.383c2.511-1.004,5.16-2.278,7.669-3.512c2.388-1.178,5.042-1.623,7.078-3.428
			c1.969-1.746,4.154-2.812,6.454-4.14c3.029-1.746,5.965-3.65,8.791-5.706c1.496-1.088,3.155-1.977,4.609-3.116
			c1.167-0.914,1.881-2.07,2.857-3.2c2.804-3.254,5.748-6.454,8.521-9.674c3.003-3.49,4.952-8.898,6.626-13.136
			c2.014-5.099,4.086-10.346,4.778-15.816c0.574-4.55,0.63-9.28,2.16-13.651c1.142-3.262,5.849-6.561,9.401-5.759
			c2.88,0.65,5.563,3.228,8.552,4.151c7.351,2.269,10.102,8.243,10.912,15.394c0.917,8.088-3.226,14.042-6.876,20.892
			c-4.736,8.887-7.166,18.876-12.481,27.467c-2.101,3.394-4.73,6.516-7.947,8.904C70.574,232.704,67.869,234.585,65.647,238.109z"/>
	</g>
	<g>
		<path d="M71.061,148.333c0.489,3.15,0.824,6.333,0.92,9.534c0.084,3.198-0.017,6.409-0.315,9.604
			c-0.588,6.392-1.955,12.748-4.193,18.817c-1.108,3.037-2.41,6.007-3.895,8.884c-1.49,2.877-3.189,5.647-5.04,8.313
			c-3.709,5.324-8.035,10.217-12.9,14.537c-4.885,4.325-10.366,7.97-16.159,10.926c-5.785,2.978-11.938,5.169-17.889,7.303
			c-1.476,0.546-2.942,1.094-4.291,1.713c-0.672,0.309-1.313,0.638-1.87,0.99c-0.54,0.349-1.01,0.74-1.201,1.043
			c-0.208,0.312-0.205,0.422-0.174,0.776c0.073,0.36,0.295,0.886,0.652,1.42c0.343,0.546,0.816,1.083,1.26,1.597
			c0.472,0.489,0.965,0.956,1.505,1.356c1.071,0.804,2.284,1.403,3.602,1.797c1.325,0.385,2.745,0.574,4.204,0.627
			c2.928,0.101,5.99-0.34,9.07-0.88c3.088-0.546,6.212-1.223,9.441-1.727c0.807-0.127,1.62-0.242,2.441-0.337
			c0.416-0.042,0.782-0.107,1.361-0.127c0.517-0.017,0.993,0.011,1.451,0.053c1.82,0.186,3.414,0.582,4.997,0.987
			c3.138,0.816,6.162,1.758,9.117,2.303c1.454,0.264,2.944,0.427,4.075,0.253c0.562-0.084,0.936-0.267,1.094-0.425
			c0.087-0.087,0.146-0.152,0.219-0.323c0.166-0.385,0.335-0.771,0.512-1.147c1.409-3.018,3.079-5.869,5.048-8.555
			c1.977-2.669,4.255-5.191,7.064-7.236c1.406-1.012,2.97-1.881,4.674-2.494c1.718-0.585,3.569-0.903,5.447-0.762
			c0.97,0.068,1.929,0.292,2.807,0.61c0.872,0.309,1.685,0.731,2.309,1.015c0.29,0.141,0.588,0.219,0.503,0.197
			c-0.02,0.003-0.197,0.011-0.301,0.076c-0.121,0.076-0.143,0.098-0.129,0.093c0.042-0.034,0.183-0.29,0.287-0.562
			c0.115-0.276,0.217-0.616,0.315-0.956c0.191-0.678,0.357-1.471,0.495-2.16c0.059-0.281,0.07-0.529,0.062-0.644
			c-0.025-0.127,0.014-0.003,0.087,0.037c0.062,0.031-0.051-0.056-0.301-0.098c-0.245-0.051-0.582-0.076-0.959-0.096
			c-0.38-0.02-0.796-0.028-1.271-0.073c-0.475-0.051-1.018-0.104-1.699-0.408c-0.335-0.155-0.709-0.397-1.015-0.748
			c-0.307-0.349-0.512-0.776-0.613-1.156c-0.197-0.773-0.115-1.361-0.031-1.876c0.096-0.509,0.245-0.976,0.368-1.341l0.385-1.17
			c0.247-0.79,0.543-1.527,0.816-2.289c0.276-0.759,0.557-1.513,0.852-2.255c2.337-5.97,4.834-11.837,7.365-17.697
			c2.537-5.855,5.127-11.682,7.767-17.489c1.313-2.905,2.663-5.799,4.036-8.679c1.386-2.88,2.75-5.754,4.275-8.597l1.367,0.714
			c-2.764,5.681-5.211,11.584-7.739,17.413c-2.5,5.852-4.95,11.73-7.343,17.624c-2.388,5.894-4.744,11.811-6.915,17.759
			c-0.278,0.742-0.546,1.485-0.799,2.227s-0.537,1.488-0.754,2.224l-0.346,1.105c-0.129,0.391-0.202,0.689-0.245,0.965
			c-0.042,0.264-0.017,0.495,0,0.492c0.006,0.003-0.014-0.062-0.056-0.11c-0.042-0.053-0.076-0.07-0.048-0.062
			c0.051,0.023,0.312,0.076,0.627,0.087c0.318,0.017,0.697,0.014,1.116,0.017c0.422,0.006,0.88,0.014,1.423,0.093
			c0.529,0.087,1.206,0.236,1.895,0.771c0.337,0.264,0.633,0.63,0.824,1.007c0.194,0.377,0.298,0.754,0.354,1.091
			c0.098,0.675,0.048,1.232-0.025,1.732c-0.155,0.877-0.312,1.645-0.537,2.506c-0.115,0.427-0.236,0.852-0.416,1.316
			c-0.188,0.464-0.374,0.948-0.835,1.533c-0.25,0.29-0.551,0.61-1.041,0.849c-0.461,0.236-1.041,0.335-1.457,0.301
			c-0.886-0.062-1.336-0.309-1.775-0.478c-0.83-0.368-1.44-0.672-2.073-0.886c-0.624-0.217-1.232-0.343-1.853-0.38
			c-1.305-0.082-2.655,0.16-3.943,0.613c-1.288,0.484-2.534,1.181-3.701,2.044c-2.334,1.735-4.367,4.01-6.145,6.474
			c-1.78,2.466-3.335,5.146-4.604,7.908c-0.157,0.346-0.307,0.692-0.456,1.038c-0.228,0.565-0.624,1.178-1.111,1.64
			c-0.998,0.959-2.199,1.333-3.198,1.502c-2.033,0.304-3.754,0.048-5.428-0.222c-3.318-0.591-6.395-1.535-9.429-2.292
			c-1.505-0.371-3.015-0.734-4.37-0.869c-0.335-0.031-0.655-0.048-0.934-0.039c-0.217,0-0.638,0.059-1.015,0.101
			c-0.759,0.087-1.524,0.197-2.292,0.315c-3.068,0.475-6.173,1.142-9.362,1.704c-3.186,0.551-6.471,1.043-9.922,0.928
			c-1.721-0.062-3.484-0.29-5.22-0.796c-1.732-0.515-3.423-1.344-4.896-2.455c-0.742-0.551-1.409-1.184-2.039-1.842
			c-0.301-0.34-0.591-0.686-0.88-1.035c-0.276-0.357-0.543-0.731-0.801-1.128c-0.506-0.801-0.996-1.732-1.218-2.942
			c-0.096-0.613-0.098-1.299,0.053-1.969c0.146-0.675,0.461-1.288,0.816-1.783c0.723-1.01,1.564-1.592,2.351-2.106
			c0.796-0.492,1.58-0.88,2.357-1.229c1.555-0.695,3.082-1.246,4.598-1.791c3.032-1.074,6.015-2.084,8.949-3.214
			c2.933-1.125,5.802-2.362,8.605-3.732c5.605-2.734,10.878-6.105,15.614-10.147c4.725-4.069,9.067-8.631,12.796-13.651
			c3.729-5.023,6.851-10.507,9.249-16.311c2.382-5.81,4.092-11.924,5.017-18.181C71.421,161.07,71.587,154.686,71.061,148.333z"/>
	</g>
	<g>
		<g>
			<path class="stcolor3" d="M83.499,196.251c1.049,5.355,25.192,45.918,52.46,51.017c-1.617-4.412-1.96-6.316-1.96-6.316
				s20.42,11.648,65.793,1.257c-3.158-1.119-6.131-3.102-6.131-3.102s30.862-8.538,41.408-29.641
				c12.211-24.441-30.977-14.064-30.977-14.064l-99.413-7.287L83.499,196.251z"/>
		</g>
		<g>
			<path d="M83.927,196.488c0.087,0,0.121-0.087,0.115-0.079l0.082,0.262c0.062,0.174,0.121,0.352,0.194,0.529
				c0.138,0.354,0.295,0.706,0.456,1.057c0.323,0.703,0.675,1.395,1.041,2.084c0.731,1.378,1.513,2.731,2.323,4.069
				c1.623,2.674,3.361,5.281,5.18,7.829c3.639,5.093,7.607,9.955,11.918,14.48c4.317,4.511,8.988,8.698,14.126,12.183
				c5.127,3.462,10.782,6.243,16.792,7.334l0,0l-1.181,1.395c-0.295-1.08-0.574-2.163-0.824-3.257
				c-0.127-0.546-0.245-1.094-0.352-1.645c-0.107-0.557-0.205-1.094-0.278-1.687v-0.003l-0.18-0.962l0.9,0.453
				c2.402,1.206,5.085,2.05,7.739,2.748c2.674,0.686,5.394,1.209,8.133,1.586c5.481,0.762,11.03,0.973,16.564,0.846
				c5.537-0.135,11.061-0.658,16.547-1.434c5.487-0.782,10.928-1.853,16.322-3.138l0,0l-0.121,2.112
				c-1.105-0.506-2.146-1.086-3.144-1.713c-1.001-0.63-1.955-1.291-2.888-2.019l0,0l-0.841-0.56l0.981-0.315
				c3.839-1.229,7.624-2.753,11.288-4.469c3.667-1.721,7.244-3.631,10.644-5.81c3.394-2.182,6.628-4.609,9.573-7.337
				c2.936-2.734,5.568-5.79,7.652-9.185c1.024-1.701,1.966-3.473,2.638-5.307c0.683-1.82,1.125-3.743,0.922-5.543
				c-0.104-0.894-0.385-1.741-0.844-2.486c-0.461-0.742-1.116-1.37-1.87-1.89c-1.519-1.041-3.417-1.617-5.338-1.977
				c-3.881-0.689-7.945-0.588-11.952-0.25c-4.007,0.366-8.035,1.001-11.949,1.881l-0.143,0.031l-0.132-0.011l-49.692-3.768
				l-49.684-3.92l0,0l0.211-0.031C97.893,191.248,90.938,193.869,83.927,196.488z M83.075,196.015
				c7.107-2.804,14.272-5.608,21.429-8.355l0.101-0.039l0.11,0.008l0,0l49.726,3.366l49.715,3.515l-0.273,0.023
				c4.044-0.92,8.091-1.564,12.205-1.949c4.106-0.354,8.276-0.481,12.447,0.245c2.07,0.388,4.179,0.993,6.049,2.255
				c0.925,0.633,1.78,1.44,2.399,2.43c0.619,0.99,0.99,2.126,1.122,3.254c0.25,2.275-0.281,4.441-1.018,6.42
				c-0.745,1.994-1.741,3.836-2.829,5.619c-2.21,3.549-4.972,6.71-8.021,9.514c-3.046,2.815-6.409,5.248-9.916,7.405
				c-3.513,2.154-7.168,4.055-10.937,5.692c-3.777,1.623-7.61,3.074-11.592,4.159l0.141-0.875l0,0
				c0.99,0.52,2.033,0.998,3.074,1.417c1.043,0.422,2.101,0.782,3.155,1.052l3.844,0.987l-3.968,1.125l0,0
				c-5.473,1.198-10.996,2.182-16.561,2.868c-5.563,0.683-11.165,1.111-16.772,1.145c-5.608,0.025-11.227-0.29-16.778-1.167
				c-2.776-0.433-5.526-1.015-8.237-1.763c-2.711-0.771-5.369-1.645-7.931-2.992l0.72-0.509l0,0
				c0.146,0.489,0.337,1.015,0.529,1.521c0.194,0.509,0.397,1.015,0.607,1.521c0.422,1.01,0.869,2.008,1.333,3.001l0.773,1.656
				l-1.955-0.262l0,0c-6.392-1.263-12.222-4.266-17.439-7.9c-5.225-3.662-9.908-7.995-14.213-12.63
				c-4.297-4.649-8.229-9.618-11.826-14.812c-1.794-2.599-3.51-5.253-5.11-7.981c-0.799-1.364-1.572-2.745-2.292-4.156
				c-0.36-0.706-0.709-1.42-1.032-2.151c-0.16-0.366-0.321-0.734-0.461-1.116c-0.073-0.188-0.138-0.385-0.205-0.582l-0.09-0.304
				C83.044,196.488,83.033,196.206,83.075,196.015z"/>
		</g>
	</g>
	<g>
		<path class="stcolor4" d="M104.802,182.145c-8.133,13.454,6.471,39.506,23.311,45.73c-1.215-4.052,0.998-9.193,0.998-9.193
			s2.089,21.457,44.434,18.237c-2.593-1.648-4.91-6.131-3.797-5.765c16.519,5.388,34.847-5.236,32.937-6.491
			c-4.905-3.226,6.021-1.724,17.056-14.79c-14.545-5.765-10.973-28.075-10.973-28.075l-21.241-2.191l-64.924-0.377L104.802,182.145z
			"/>
	</g>
	<g>
		<g>
			<path class="stcolor3" d="M83.786,193.33c-19.809-32.254-16.857-59.268-12.68-79.59c0,0,3.56,3.957,7.812,4.778
				c-2.382-7.354-4.764-15.9-0.79-26.32l5.279,4.435c0,0-1.254-25.954,33.407-41.838l-2.326,11.797c0,0,18.032-31.658,85.872-16.227
				c-7.129,4.37-10.217,10.667-10.217,10.667s36.424-11.567,59.727,37.209c-6.361-3.732-11.795-2.677-11.795-2.677
				s24.582,25.142,17.2,56.079l-4.536-5.023c0,0,4.488,29.115-11.525,51.374c0,0-15.496-15.338-39.214-15.169
				s-83.6-3.709-87.253-3.032S83.786,193.33,83.786,193.33z"/>
		</g>
		<g>
			<path d="M83.651,193.81c-1.06-1.488-2.168-3.245-2.95-4.685c-0.877-1.496-1.673-3.037-2.489-4.567
				c-1.578-3.091-3.018-6.252-4.306-9.48c-2.584-6.451-4.474-13.192-5.608-20.068c-1.131-6.876-1.491-13.881-1.136-20.844
				c0.335-6.966,1.364-13.876,2.703-20.681l0.47-2.388l1.713,1.794l0,0c0.402,0.523,0.925,1.097,1.44,1.609
				c0.523,0.517,1.08,1.007,1.659,1.462c1.164,0.903,2.455,1.648,3.864,2.07l-0.568,0.641l0,0
				c-1.496-4.232-2.843-8.622-3.212-13.223c-0.191-2.292-0.141-4.618,0.169-6.915c0.307-2.298,0.872-4.561,1.631-6.752l0.529-1.527
				l1.313,1.049l0,0l4.846,4.947L82.9,96.656l0,0c-0.045-1.243,0.042-2.419,0.18-3.611c0.135-1.19,0.346-2.368,0.602-3.532
				c0.515-2.334,1.24-4.621,2.163-6.828c0.917-2.208,2.016-4.342,3.271-6.384c1.263-2.033,2.683-3.968,4.218-5.807
				c1.521-1.853,3.226-3.541,4.969-5.183c0.9-0.787,1.777-1.606,2.725-2.34l1.401-1.125l1.445-1.063
				c3.87-2.818,8.023-5.228,12.335-7.287l2.5-1.192l-0.498,2.773l0,0l-3.24,11.617l-0.914-0.346l0,0
				c1.055-1.724,2.323-3.183,3.678-4.598c1.361-1.398,2.832-2.68,4.367-3.878c3.091-2.368,6.451-4.379,9.989-5.996
				c3.532-1.628,7.213-2.919,10.971-3.912c3.76-0.976,7.59-1.656,11.44-2.143c7.711-0.872,15.504-0.914,23.221-0.27
				c7.72,0.638,15.377,1.876,22.937,3.507l3.085,0.667l-2.68,1.789h-0.003c-1.035,0.579-2.064,1.187-3.029,1.895
				c-0.981,0.689-1.907,1.462-2.795,2.281c-0.891,0.816-1.727,1.701-2.511,2.629c-0.779,0.925-1.524,1.921-2.135,2.933l-0.596-0.695
				h0.003c3.161-0.917,6.37-1.266,9.607-1.336c3.231-0.056,6.471,0.25,9.649,0.886c6.359,1.271,12.419,3.948,17.762,7.63
				c5.352,3.681,10.014,8.305,13.983,13.412c3.988,5.104,7.32,10.684,10.175,16.469l1.952,3.957l-3.979-2.095l0,0
				c-0.796-0.534-1.617-1.057-2.486-1.482c-0.861-0.456-1.769-0.801-2.697-1.119c-0.931-0.304-1.89-0.529-2.866-0.678
				c-0.965-0.146-1.988-0.217-2.925-0.149l0.262-0.835l0,0c3.557,3.735,6.592,7.866,9.292,12.228
				c2.683,4.37,4.958,9.008,6.679,13.867c1.718,4.857,2.868,9.944,3.273,15.121c0.416,5.175,0.037,10.428-1.097,15.521l0,0
				l-0.914,2.57l-1.386-1.983l-3.909-5.588l0,0l0.861-0.411c0.65,4.502,0.807,9.013,0.692,13.535
				c-0.141,4.516-0.593,9.033-1.448,13.49c-0.852,4.455-2.078,8.853-3.777,13.085c-1.665,4.247-3.861,8.296-6.457,12.076l0,0
				l-0.83,1.195l-1.083-1.038c-1.128-1.083-2.444-2.157-3.752-3.144c-1.322-0.996-2.686-1.938-4.089-2.818
				c-2.809-1.76-5.754-3.316-8.814-4.595c-3.051-1.299-6.223-2.309-9.449-3.068c-3.231-0.731-6.527-1.181-9.84-1.327
				c-0.83-0.031-1.654-0.037-2.489-0.051l-2.548-0.011l-5.085-0.082c-3.389-0.076-6.772-0.188-10.155-0.309
				c-6.763-0.247-13.524-0.56-20.279-0.889c-13.513-0.65-27.02-1.434-40.522-2.025c-1.687-0.07-3.375-0.129-5.056-0.172
				c-0.838-0.017-1.685-0.034-2.503-0.017c-0.43,0.017-0.768,0.006-1.119,0.107c-0.36,0.093-0.754,0.231-1.139,0.368
				c-3.108,1.184-6.181,2.629-9.241,4.044c-3.057,1.431-6.103,2.897-9.14,4.376l-4.561,2.244l-2.272,1.125l-1.133,0.565
				l-0.568,0.284l-0.284,0.141l-0.141,0.07l-0.079,0.039C83.952,193.808,83.781,193.83,83.651,193.81z M83.921,192.851
				c-0.082-0.045-0.205-0.045-0.281-0.006l0.062-0.031l0.141-0.073l0.281-0.143l0.565-0.29l1.131-0.577l2.264-1.147l4.533-2.278
				c3.029-1.51,6.063-3.006,9.117-4.471c3.065-1.451,6.103-2.919,9.303-4.173c0.408-0.152,0.81-0.301,1.268-0.422
				c0.464-0.138,0.984-0.138,1.395-0.157c0.872-0.028,1.715-0.017,2.568-0.008c1.699,0.025,3.392,0.07,5.085,0.124
				c13.53,0.464,27.037,1.122,40.55,1.642c6.755,0.264,13.51,0.512,20.265,0.697c3.378,0.09,6.752,0.172,10.127,0.214l5.059,0.034
				l2.525-0.014c0.855,0.008,1.721,0.006,2.582,0.028c3.445,0.121,6.882,0.557,10.251,1.285c3.363,0.756,6.671,1.777,9.854,3.099
				c3.192,1.299,6.263,2.885,9.202,4.688c1.468,0.903,2.897,1.87,4.286,2.897c1.398,1.038,2.719,2.089,4.044,3.335l-1.91,0.16l0,0
				c2.579-3.541,4.803-7.365,6.527-11.423c1.758-4.044,3.077-8.29,4.033-12.619c0.962-4.331,1.533-8.752,1.797-13.195
				c0.242-4.435,0.208-8.929-0.298-13.324l-0.186-1.6l1.046,1.192l0,0l5.163,4.457l-2.3,0.588l0,0
				c1.206-4.798,1.71-9.784,1.448-14.753c-0.25-4.969-1.221-9.91-2.759-14.677c-1.541-4.77-3.639-9.368-6.153-13.732
				c-2.525-4.348-5.433-8.535-8.785-12.259l0,0l-0.709-0.613l0.97-0.222c1.094-0.25,2.135-0.326,3.214-0.337
				c1.071,0,2.149,0.079,3.212,0.256c1.06,0.188,2.126,0.419,3.155,0.773c1.041,0.326,2.042,0.762,3.034,1.232l0,0l-2.025,1.862
				c-2.644-5.709-5.754-11.212-9.494-16.252c-3.723-5.045-8.113-9.612-13.184-13.288c-5.062-3.673-10.83-6.398-16.952-7.781
				c-3.057-0.689-6.193-1.066-9.334-1.088c-3.127-0.014-6.322,0.264-9.311,1.055h-0.003l-1.111,0.43l0.512-1.122
				c0.546-1.192,1.184-2.275,1.893-3.344c0.709-1.06,1.476-2.087,2.32-3.057c0.841-0.97,1.732-1.904,2.7-2.764
				c0.951-0.88,1.988-1.665,3.048-2.427h0.003l0.405,2.455c-7.433-1.746-14.958-3.102-22.546-3.87
				c-7.585-0.776-15.237-0.869-22.816-0.155c-3.782,0.408-7.545,1.004-11.241,1.893c-3.69,0.906-7.309,2.101-10.788,3.625
				c-3.482,1.516-6.792,3.417-9.843,5.667c-1.516,1.136-2.97,2.357-4.314,3.69c-1.327,1.327-2.615,2.776-3.594,4.317l0,0
				l-1.271,2.629l0.349-2.973l1.409-11.977l0,0l2,1.578c-4.238,1.856-8.327,4.05-12.149,6.645l-1.429,0.979l-1.384,1.038
				c-0.936,0.678-1.803,1.437-2.7,2.165c-1.73,1.524-3.425,3.096-4.95,4.831c-1.535,1.721-2.964,3.538-4.246,5.459
				c-1.274,1.926-2.402,3.948-3.358,6.052c-0.962,2.101-1.735,4.289-2.309,6.53c-0.568,2.227-0.967,4.561-0.981,6.814l0,0
				l0.157,1.074l-0.973-0.669l-5.709-3.92l0,0l1.842-0.478c-0.81,2.014-1.443,4.097-1.839,6.232
				c-0.397,2.134-0.554,4.317-0.484,6.505c0.129,4.387,1.212,8.729,2.494,13.012l0,0l0.309,0.751l-0.877-0.11
				c-1.634-0.202-3.195-0.79-4.632-1.561c-0.717-0.391-1.412-0.821-2.078-1.294c-0.675-0.481-1.294-0.956-1.949-1.566l0,0
				l2.182-0.593c-1.451,6.71-2.582,13.473-3.037,20.296c-0.475,6.817-0.247,13.682,0.734,20.448
				c0.984,6.766,2.717,13.428,5.149,19.84c1.212,3.206,2.576,6.358,4.081,9.444c0.779,1.53,1.538,3.071,2.379,4.57
				c0.408,0.748,0.841,1.538,1.201,2.171C83.227,191.434,83.564,192.123,83.921,192.851z"/>
		</g>
	</g>
	<g>

			<ellipse transform="matrix(0.0207 -0.9998 0.9998 0.0207 13.104 303.4218)" class="stcolor5" cx="161.436" cy="145.022" rx="41.29" ry="21.267"/>
	</g>
	<g>
		<path class="stcolor6" d="M134.505,98.787c-39.951-9.325-47.308,22.599-47.308,22.599s-6.254-5.262-5.67-21.311
			c4.365,11.744,8.125,12.995,10.805,13.741c1.038,0.287,0,0-0.427-0.987c-7.441-17.177,5.369-40.854,17.998-48.899
			c-3.729,12.492-2.005,20.004,1.325,28.8c0.661-2.621-2.019-41.079,75.202-39.476c0,0-10.121,10.208-10.746,19.025
			c12.863-7.236,43.213-2.596,65.149,17.276c0,0-10.597-2.961-14.252,2.497c18.294,11.198,27.65,33.179,25.068,48.486
			c-6.524-8.096-28.305-41.813-37.423-33.185c-12.723-14.376-41.031,1.266-51.835,20.732
			C162.392,128.085,142.534,100.66,134.505,98.787z"/>
	</g>
	<g>
		<g>
			<path class="stcolor7" d="M149.559,139.942c0.602,20.982-2.084,38.787-18.865,41.093c-13.043,1.794-25.867-14.252-29.256-32.872
				c-3.782-20.797-5.11-38.756,18.555-44.948C143.659,97.021,148.758,111.954,149.559,139.942z"/>
		</g>
		<g>
			<path d="M150.349,139.919c0.155,4.418,0.18,8.85-0.101,13.291c-0.295,4.432-0.875,8.892-2.21,13.22
				c-0.678,2.157-1.544,4.28-2.728,6.257c-1.176,1.977-2.666,3.811-4.483,5.293c-1.808,1.493-3.923,2.604-6.134,3.324
				c-1.108,0.357-2.239,0.627-3.378,0.81c-1.145,0.194-2.357,0.273-3.538,0.208c-2.376-0.11-4.685-0.787-6.783-1.791
				c-2.106-0.998-4.013-2.331-5.723-3.844c-3.417-3.037-6.153-6.704-8.305-10.639c-2.157-3.934-3.788-8.127-4.921-12.433
				c-0.562-2.151-0.996-4.351-1.344-6.527c-0.357-2.177-0.689-4.359-0.97-6.553c-0.568-4.379-0.973-8.802-0.785-13.249
				c0.188-4.421,1.077-8.946,3.349-12.869c1.139-1.946,2.604-3.704,4.294-5.189c1.687-1.499,3.611-2.697,5.616-3.684
				c2.005-0.993,4.114-1.744,6.252-2.345c2.14-0.596,4.308-1.071,6.513-1.375c2.202-0.284,4.438-0.427,6.665-0.219
				c2.219,0.214,4.441,0.773,6.44,1.825c2.002,1.046,3.726,2.593,5.07,4.393c1.353,1.803,2.374,3.819,3.178,5.9
				c1.595,4.179,2.407,8.583,2.984,12.97C149.88,131.089,150.161,135.507,150.349,139.919z M148.769,139.964
				c-0.076-4.39-0.245-8.777-0.689-13.13c-0.458-4.345-1.15-8.693-2.604-12.793c-0.737-2.039-1.659-4.022-2.939-5.759
				c-1.266-1.741-2.88-3.228-4.772-4.252c-1.884-1.041-4.019-1.595-6.176-1.783c-2.16-0.197-4.351-0.062-6.505,0.278
				c-4.303,0.711-8.549,1.969-12.43,3.895c-1.935,0.976-3.752,2.168-5.377,3.577c-1.623,1.412-3.02,3.074-4.117,4.924
				c-2.219,3.704-3.175,8.066-3.4,12.408c-0.129,2.179-0.062,4.37,0.101,6.553c0.169,2.182,0.405,4.365,0.748,6.533
				c0.337,2.168,0.726,4.331,1.142,6.491c0.397,2.163,0.883,4.277,1.533,6.361c1.28,4.162,3.04,8.17,5.276,11.871
				c2.25,3.681,4.927,7.123,8.184,9.851c1.631,1.35,3.386,2.537,5.265,3.42c1.879,0.88,3.884,1.434,5.909,1.564
				c1.018,0.065,2.016,0.014,3.046-0.152c1.035-0.157,2.059-0.377,3.051-0.681c1.983-0.61,3.85-1.55,5.464-2.838
				c3.268-2.562,5.385-6.409,6.702-10.464c1.325-4.083,1.957-8.411,2.309-12.754C148.822,148.736,148.862,144.349,148.769,139.964z"
				/>
		</g>
	</g>
	<g>
		<path d="M155.684,139.008c1.06,21.1-2.323,37.057-19.137,39.121c-12.413,1.524-25.597-12.281-28.983-30.901
			c-3.782-20.797-5.11-38.756,18.555-44.948C149.781,96.088,154.152,108.512,155.684,139.008z"/>
		<path d="M134.623,178.661c-12.171,0-24.222-13.527-27.467-31.357c-3.847-21.145-5.085-39.158,18.859-45.426
			c9.28-2.427,15.681-2.036,20.15,1.237c7.033,5.152,9.016,17.546,9.939,35.87l0,0c0.605,12.028-0.315,20.566-2.897,26.877
			c-3.082,7.537-8.513,11.685-16.604,12.678C135.939,178.621,135.281,178.661,134.623,178.661z M136.423,101.147
			c-2.916,0-6.291,0.515-10.2,1.535c-23.252,6.086-22.023,23.741-18.252,44.473c3.344,18.372,16.142,32.074,28.525,30.561
			c14.238-1.746,20.029-13.679,18.772-38.688l0,0c-0.908-18.083-2.832-30.285-9.598-35.24
			C143.263,102.024,140.234,101.147,136.423,101.147z"/>
	</g>
	<g>
		<g>
			<path class="stcolor7" d="M174.42,144.129c2.486,20.979,12.135,39.81,29.006,38.213c13.114-1.24,21.39-19.309,20.968-38.697
				c-0.439-20.214-3.895-38.896-28.362-39.509C171.568,103.526,170.612,112.025,174.42,144.129z"/>
		</g>
		<g>
			<path d="M175.137,144.042c0.565,4.37,1.437,8.698,2.7,12.903c1.266,4.196,2.913,8.288,5.132,12.017
				c2.213,3.715,5.034,7.104,8.583,9.399c3.532,2.306,7.796,3.276,11.969,2.798c2.039-0.219,4.007-0.92,5.785-1.98
				c1.78-1.057,3.358-2.478,4.756-4.066c2.784-3.209,4.781-7.123,6.226-11.204c1.443-4.095,2.331-8.395,2.779-12.74
				c0.231-2.171,0.349-4.359,0.354-6.544c-0.008-2.191-0.065-4.412-0.169-6.609c-0.225-4.398-0.669-8.788-1.682-13.04
				c-1.015-4.232-2.655-8.361-5.355-11.741c-1.341-1.687-2.95-3.158-4.75-4.351c-1.797-1.201-3.797-2.095-5.869-2.75
				c-2.075-0.658-4.238-1.055-6.418-1.288c-2.177-0.225-4.39-0.262-6.6-0.253c-2.205,0.02-4.41,0.135-6.578,0.456
				c-2.16,0.323-4.308,0.872-6.204,1.898c-1.901,1.01-3.479,2.559-4.474,4.466c-1.012,1.901-1.505,4.058-1.777,6.221
				c-0.523,4.353-0.253,8.794,0.104,13.198C174.029,135.237,174.574,139.641,175.137,144.042z M173.7,144.214
				c-0.475-4.421-0.928-8.847-1.221-13.296c-0.267-4.446-0.447-8.932,0.149-13.409c0.312-2.227,0.875-4.463,1.955-6.496
				c1.06-2.042,2.793-3.737,4.82-4.803c2.025-1.088,4.252-1.645,6.465-2.016c2.222-0.357,4.463-0.498,6.699-0.546
				c2.23-0.037,4.469-0.025,6.713,0.177c2.239,0.214,4.471,0.593,6.64,1.254c2.168,0.65,4.266,1.58,6.195,2.804
				c1.926,1.223,3.667,2.753,5.127,4.514c2.939,3.532,4.736,7.838,5.869,12.191c1.136,4.376,1.67,8.856,1.983,13.319
				c0.149,2.239,0.25,4.455,0.301,6.707c0.037,2.255-0.045,4.511-0.242,6.761c-0.416,4.494-1.296,8.963-2.767,13.265
				c-1.479,4.289-3.532,8.459-6.55,12.008c-1.507,1.766-3.282,3.352-5.326,4.559c-2.036,1.209-4.351,2.028-6.735,2.275
				c-2.334,0.247-4.716,0.129-7.011-0.433c-2.295-0.554-4.469-1.555-6.415-2.846c-3.901-2.613-6.837-6.308-9.075-10.245
				c-2.25-3.957-3.858-8.206-5.073-12.531C174.99,153.089,174.189,148.663,173.7,144.214z"/>
		</g>
	</g>
	<g>
		<g>
			<path d="M180.685,141.55c2.908,20.926,13.187,43.539,28.848,37.063c9.252-3.827,20.56-17.799,21.157-36.714
				c0.841-26.688-3.895-38.896-28.362-39.509S176.371,110.483,180.685,141.55z"/>
		</g>
		<g>
			<path d="M181.47,141.441c0.636,4.32,1.552,8.597,2.787,12.773c1.24,4.173,2.787,8.26,4.809,12.076
				c1.012,1.904,2.151,3.737,3.451,5.422c1.299,1.685,2.779,3.22,4.457,4.432c1.673,1.209,3.566,2.073,5.546,2.354
				c1.977,0.298,4.013-0.003,5.925-0.711c1.921-0.712,3.726-1.822,5.408-3.088c1.693-1.263,3.243-2.736,4.677-4.314
				c1.44-1.578,2.759-3.276,3.946-5.065c1.181-1.794,2.227-3.681,3.164-5.622c1.865-3.889,3.183-8.057,3.906-12.34
				c0.374-2.143,0.565-4.303,0.641-6.496c0.084-2.194,0.138-4.387,0.127-6.581c0-2.194-0.107-4.384-0.298-6.564
				c-0.2-2.177-0.472-4.353-0.967-6.477c-0.484-2.123-1.136-4.21-2.061-6.162c-0.931-1.949-2.132-3.766-3.636-5.29
				c-1.499-1.53-3.268-2.787-5.203-3.723c-1.935-0.942-4.005-1.609-6.117-2.098c-4.241-0.953-8.636-1.221-13.015-1.226
				c-2.188,0.011-4.381,0.101-6.538,0.425c-2.149,0.323-4.292,0.835-6.215,1.808c-1.924,0.959-3.572,2.424-4.654,4.263
				c-1.097,1.836-1.659,3.957-1.966,6.094c-0.304,2.143-0.357,4.328-0.309,6.51c0.051,2.182,0.214,4.365,0.425,6.547
				C180.19,132.745,180.812,137.096,181.47,141.441z M179.903,141.657c-0.546-4.373-1.057-8.757-1.375-13.17
				c-0.155-2.205-0.262-4.418-0.256-6.64c0.008-2.219,0.115-4.449,0.487-6.657c0.374-2.199,1.015-4.404,2.202-6.35
				c1.181-1.949,2.978-3.493,5.009-4.466c2.036-0.973,4.221-1.527,6.415-1.856c2.199-0.321,4.412-0.467,6.623-0.526
				c4.41-0.087,8.875,0.048,13.243,0.998c2.179,0.467,4.331,1.156,6.35,2.163c2.016,0.996,3.895,2.32,5.453,3.96
				c1.564,1.637,2.793,3.563,3.726,5.599c0.934,2.039,1.58,4.187,2.05,6.359c0.942,4.351,1.237,8.783,1.375,13.195
				c0.07,2.208,0.076,4.418,0.048,6.623c-0.031,2.208-0.135,4.446-0.413,6.657c-0.548,4.429-1.713,8.794-3.47,12.931
				c-1.749,4.14-4.154,8.012-7.109,11.449c-3.003,3.369-6.581,6.406-11.021,8.049c-2.213,0.793-4.68,1.119-7.059,0.72
				c-2.385-0.377-4.592-1.451-6.454-2.843c-1.867-1.403-3.445-3.099-4.809-4.913c-1.364-1.817-2.531-3.754-3.557-5.751
				c-2.05-3.996-3.577-8.206-4.786-12.484C181.366,150.42,180.491,146.058,179.903,141.657z"/>
		</g>
	</g>
	<g>
		<g>
			<path class="stcolor8" d="M78.991,143.724c8.136-14.584,35.457-52.738,73.194-29.818c2.194-30.015-41.63-37.082-63.757-9.106
				c8.456,0.801,9.342,1.82,9.342,1.82S82.206,110.05,78.991,143.724z"/>
		</g>
		<g>
			<g>
				<path d="M79.135,143.269c-0.006-0.124-0.048-0.245-0.101-0.318c-0.053-0.076-0.096-0.104-0.09-0.141
					c-0.011-0.008,0.082-0.163,0.129-0.253l0.169-0.309l0.683-1.235c0.458-0.821,0.945-1.625,1.431-2.43
					c0.984-1.603,2.008-3.181,3.079-4.727c2.132-3.105,4.48-6.06,7-8.873c5.028-5.616,10.858-10.653,17.613-14.252
					c3.375-1.786,6.972-3.2,10.715-4.075c3.743-0.861,7.624-1.195,11.454-0.894c3.836,0.264,7.599,1.164,11.165,2.497
					c3.569,1.339,6.924,3.15,10.057,5.239l0,0l-0.726,0.374c0.098-3.49-0.337-6.991-1.62-10.172
					c-0.633-1.589-1.426-3.105-2.399-4.497c-0.973-1.392-2.12-2.655-3.383-3.788c-2.531-2.264-5.565-3.94-8.783-5.079
					c-3.226-1.125-6.634-1.758-10.071-1.893c-6.879-0.287-13.819,1.209-20.102,4.114c-6.297,2.899-11.941,7.227-16.547,12.543
					l-0.329-0.773c1.603,0.059,3.209,0.141,4.826,0.295c0.807,0.079,1.617,0.172,2.438,0.312c0.411,0.067,0.824,0.155,1.246,0.259
					c0.214,0.059,0.427,0.115,0.655,0.197c0.112,0.037,0.233,0.09,0.357,0.143c0.07,0.034,0.129,0.059,0.208,0.107
					c0.098,0.07,0.107,0.031,0.363,0.278l0.006,0.006l1.195,1.319l-1.769,0.416c-0.281,0.067-0.726,0.222-1.091,0.38
					c-0.382,0.16-0.762,0.352-1.136,0.548c-0.748,0.405-1.465,0.886-2.151,1.409c-1.384,1.041-2.621,2.298-3.746,3.645
					c-2.241,2.717-4.01,5.855-5.397,9.154c-1.395,3.299-2.452,6.755-3.245,10.273c-0.399,1.76-0.74,3.535-1.032,5.318l-0.402,2.624
					c-0.053,0.366-0.141,0.689-0.273,1.049S79.25,142.83,79.135,143.269z M78.851,144.183c-0.017-0.467-0.067-0.959-0.098-1.505
					c-0.034-0.543-0.022-1.122,0.022-1.662l0.037-0.402l0.042-0.343l0.084-0.681l0.172-1.361c0.247-1.814,0.546-3.619,0.903-5.419
					c0.711-3.597,1.696-7.154,3.04-10.594c1.339-3.439,3.085-6.761,5.397-9.725c1.164-1.471,2.458-2.863,3.951-4.052
					c0.742-0.599,1.527-1.156,2.365-1.64c0.422-0.239,0.849-0.47,1.302-0.672c0.467-0.208,0.875-0.382,1.474-0.543l-0.571,1.735
					l0.003,0.006c0.183,0.177,0.104,0.087,0.121,0.104c-0.006-0.008-0.037-0.025-0.053-0.039c-0.056-0.031-0.112-0.067-0.186-0.104
					c-0.141-0.073-0.307-0.141-0.47-0.208c-0.34-0.129-0.697-0.25-1.066-0.36c-0.734-0.222-1.496-0.408-2.264-0.577
					c-1.538-0.34-3.102-0.613-4.674-0.866l-0.799-0.127l0.467-0.647c4.201-5.807,9.834-10.692,16.359-13.909
					c6.502-3.234,13.833-4.924,21.154-4.578c3.65,0.174,7.306,0.841,10.754,2.137c3.445,1.28,6.71,3.172,9.393,5.74
					c2.705,2.531,4.767,5.757,5.923,9.249c1.156,3.498,1.451,7.216,1.032,10.796l-0.087,0.745l-0.638-0.371l0,0
					c-6.502-3.546-13.583-6.049-20.861-6.415c-7.261-0.413-14.548,1.372-21.005,4.789c-3.24,1.687-6.308,3.732-9.182,6.024
					c-2.88,2.289-5.594,4.803-8.13,7.495c-2.545,2.686-4.891,5.56-7.137,8.51c-1.119,1.479-2.191,2.995-3.228,4.536
					c-0.517,0.771-1.024,1.55-1.524,2.331l-0.742,1.178l-0.402,0.652c-0.11,0.166-0.264,0.343-0.436,0.47
					C79.126,144.02,78.969,144.104,78.851,144.183z"/>
			</g>
		</g>
	</g>
	<g>
		<g>
			<path class="stcolor8" d="M245.814,145.904c-7.523-14.911-33.241-54.161-71.895-32.827c-0.945-30.08,43.131-35.322,64.08-6.454
				c-8.482,0.45-9.41,1.431-9.41,1.431S244,112.126,245.814,145.904z"/>
		</g>
		<g>
			<g>
				<path d="M245.935,146.368c-0.115-0.084-0.27-0.174-0.433-0.309c-0.163-0.135-0.312-0.318-0.416-0.489l-0.377-0.669l-0.692-1.209
					c-0.467-0.801-0.942-1.6-1.426-2.393c-0.97-1.583-1.98-3.141-3.037-4.666c-2.123-3.043-4.348-6.01-6.778-8.8
					c-2.421-2.793-5.028-5.419-7.812-7.824c-2.776-2.413-5.757-4.578-8.923-6.401c-6.308-3.681-13.513-5.765-20.785-5.655
					c-7.287,0.062-14.466,2.269-21.109,5.543l0,0l-0.652,0.346l-0.056-0.748c-0.27-3.594,0.18-7.298,1.479-10.746
					c1.299-3.442,3.49-6.581,6.299-8.996c2.784-2.455,6.128-4.21,9.621-5.346c3.498-1.153,7.177-1.665,10.833-1.687
					c7.326-0.042,14.582,1.952,20.946,5.453c6.387,3.484,11.809,8.597,15.768,14.576l0.442,0.664l-0.802,0.093
					c-1.58,0.186-3.155,0.397-4.708,0.669c-0.773,0.138-1.544,0.292-2.286,0.484c-0.371,0.093-0.734,0.2-1.08,0.315
					c-0.166,0.062-0.335,0.121-0.478,0.188c-0.076,0.031-0.135,0.067-0.191,0.096c-0.017,0.014-0.051,0.031-0.056,0.037
					c0.017-0.017-0.067,0.073,0.124-0.098l0.006-0.006l-0.501-1.758c0.591,0.186,0.993,0.377,1.448,0.605
					c0.442,0.222,0.861,0.47,1.274,0.726c0.818,0.52,1.58,1.108,2.295,1.738c1.443,1.251,2.68,2.694,3.78,4.213
					c2.188,3.054,3.794,6.448,4.989,9.938c1.204,3.493,2.036,7.09,2.599,10.712c0.284,1.811,0.506,3.631,0.678,5.45l0.115,1.367
					l0.056,0.683l0.028,0.346l0.02,0.402c0.023,0.54,0.011,1.119-0.045,1.662C246.042,145.412,245.972,145.904,245.935,146.368z
					 M245.69,145.443c-0.098-0.442-0.228-0.861-0.346-1.223c-0.118-0.366-0.191-0.692-0.231-1.06l-0.287-2.632
					c-0.219-1.794-0.487-3.583-0.813-5.357c-0.647-3.549-1.561-7.045-2.818-10.4c-1.249-3.352-2.883-6.561-5.011-9.37
					c-1.069-1.395-2.253-2.7-3.591-3.799c-0.664-0.554-1.361-1.063-2.092-1.499c-0.366-0.214-0.737-0.422-1.111-0.596
					c-0.357-0.174-0.793-0.346-1.074-0.425l-1.749-0.489l1.249-1.268l0.006-0.006c0.267-0.236,0.27-0.197,0.374-0.264
					c0.082-0.042,0.141-0.065,0.211-0.098c0.127-0.048,0.25-0.096,0.363-0.127c0.231-0.073,0.447-0.121,0.664-0.169
					c0.427-0.087,0.844-0.155,1.257-0.205c0.827-0.107,1.637-0.166,2.449-0.211c1.62-0.087,3.228-0.104,4.834-0.096l-0.363,0.759
					c-4.381-5.501-9.843-10.059-16.013-13.218c-6.159-3.161-13.029-4.944-19.914-4.944c-3.439-0.006-6.87,0.484-10.141,1.474
					c-3.262,1.004-6.361,2.554-8.985,4.711c-1.308,1.08-2.506,2.295-3.535,3.645c-1.032,1.35-1.887,2.832-2.584,4.393
					c-1.412,3.127-1.994,6.606-2.039,10.096l-0.709-0.405l0,0c3.217-1.957,6.645-3.631,10.265-4.817
					c3.617-1.181,7.416-1.924,11.257-2.03c3.839-0.141,7.703,0.354,11.406,1.37c3.704,1.029,7.239,2.593,10.538,4.516
					c6.6,3.878,12.216,9.148,17.006,14.97c2.399,2.916,4.623,5.968,6.626,9.157c1.007,1.589,1.963,3.212,2.88,4.851
					c0.456,0.824,0.908,1.645,1.33,2.486l0.633,1.26l0.155,0.318c0.042,0.09,0.129,0.25,0.118,0.256
					c0.003,0.037-0.039,0.062-0.096,0.135C245.747,145.201,245.699,145.319,245.69,145.443z"/>
			</g>
		</g>
	</g>
	<g>

			<ellipse transform="matrix(0.0207 -0.9998 0.9998 0.0207 12.086 261.4294)" class="stcolor7" cx="139.492" cy="124.545" rx="10.369" ry="7.27"/>
		<path d="M139.384,135.493c-0.039,0-0.079,0-0.118,0c-4.322-0.09-7.736-5.07-7.61-11.1c0.124-6.029,3.723-10.864,8.066-10.774
			c4.322,0.09,7.736,5.07,7.61,11.1C147.208,130.692,143.653,135.493,139.384,135.493z M139.601,114.758
			c-3.65,0-6.693,4.303-6.803,9.657c-0.113,5.402,2.801,9.86,6.493,9.936c0.031,0,0.065,0,0.096,0c3.65,0,6.693-4.303,6.803-9.657
			c0.112-5.402-2.801-9.86-6.493-9.936C139.666,114.758,139.632,114.758,139.601,114.758z"/>
	</g>
	<g>

			<ellipse transform="matrix(0.0207 -0.9998 0.9998 0.0207 -14.1081 271.1126)" class="stcolor7" cx="131.338" cy="142.758" rx="5.186" ry="3.633"/>
		<path d="M131.285,148.235c-0.02,0-0.039,0-0.059,0c-2.16-0.045-3.867-2.534-3.805-5.551c0.031-1.443,0.456-2.795,1.195-3.805
			c0.762-1.041,1.797-1.595,2.838-1.58c2.163,0.045,3.87,2.534,3.805,5.549C135.197,145.836,133.42,148.235,131.285,148.235z
			 M131.392,137.866c-0.858,0-1.679,0.478-2.317,1.35c-0.672,0.917-1.057,2.154-1.086,3.482c-0.056,2.7,1.4,4.93,3.248,4.969
			c0.017,0,0.034,0,0.048,0c1.825,0,3.347-2.151,3.403-4.829l0,0c0.056-2.7-1.401-4.93-3.248-4.966
			C131.426,137.866,131.409,137.866,131.392,137.866z"/>
	</g>
	<g>

			<ellipse transform="matrix(0.0207 -0.9998 0.9998 0.0207 82.0456 332.8462)" class="stcolor7" cx="210.927" cy="124.542" rx="10.369" ry="7.27"/>
		<path d="M210.821,135.493c-0.039,0-0.079,0-0.118,0c-4.322-0.09-7.737-5.07-7.61-11.1c0.059-2.885,0.908-5.588,2.39-7.61
			c1.527-2.084,3.572-3.206,5.675-3.164c4.322,0.09,7.736,5.07,7.61,11.1l0,0C218.645,130.692,215.09,135.493,210.821,135.493z
			 M211.038,114.758c-1.715,0-3.358,0.953-4.635,2.697c-1.344,1.836-2.115,4.308-2.171,6.96c-0.113,5.402,2.801,9.86,6.493,9.936
			c0.031,0,0.065,0,0.096,0c3.65,0,6.693-4.303,6.803-9.657c0.113-5.402-2.801-9.86-6.493-9.936
			C211.103,114.758,211.069,114.758,211.038,114.758z"/>
	</g>
	<g>

			<ellipse transform="matrix(0.0207 -0.9998 0.9998 0.0207 55.849 342.5262)" class="stcolor7" cx="202.77" cy="142.754" rx="5.186" ry="3.633"/>
		<path d="M202.722,148.235c-0.02,0-0.039,0-0.059,0c-2.16-0.045-3.87-2.534-3.805-5.551c0.031-1.443,0.456-2.795,1.195-3.805
			c0.762-1.043,1.8-1.597,2.838-1.58c2.16,0.045,3.87,2.534,3.805,5.549c-0.031,1.443-0.453,2.795-1.195,3.805
			C204.752,147.675,203.765,148.235,202.722,148.235z M202.829,137.866c-0.858,0-1.679,0.478-2.317,1.35
			c-0.672,0.917-1.057,2.154-1.086,3.482c-0.056,2.7,1.4,4.93,3.248,4.969c0.877,0.006,1.715-0.461,2.365-1.347
			c0.672-0.917,1.057-2.154,1.086-3.482l0,0c0.056-2.7-1.401-4.93-3.248-4.966C202.863,137.866,202.846,137.866,202.829,137.866z"/>
	</g>
	<g>
		<path class="stcolor9" d="M162.51,210.597c-1.322,0.037-2.638,0.11-3.92,0.152c-3.313,0.11-4.381,1.15-8.53,2.832
			c-2.036,0.827-4.232,1.699-5.31,3.614c-3.417-1.313-5.259-4.716-7.911-7.109c-4.061-3.664-4.095-8.175-5.009-10.374
			c-1.268-3.043,0.818-0.599,1.268-3.555c0.053-0.357,0.138-0.759,0.447-0.942c0.211-0.127,0.472-0.113,0.717-0.084
			c3.67,0.439,6.26,3.662,9.345,5.698c1.007,0.667,2.531-0.619,3.647-0.172c1.192,0.475,2.317-0.675,3.338-0.042
			c2.236,1.386,5.568,1.406,8.111,1.49c3.158,0.107,6.319,0.045,9.469-0.183c2.621-0.191,3.631,0.515,5.878-0.776l12.38-5.594
			c1.353-0.776,3.147-0.852,4.32,0.177c0.008,0.006,0.014,0.014,0.023,0.02c0.247,0.236,0.292,0.61,0.309,0.953
			c0.188,3.816-1.164,7.686-3.687,10.554c-1.628,1.85-2.722,3.912-3.816,6.094c-0.672,1.347-3.11,3.507-4.604,2.295
			c-2.646-2.146-5.7-3.425-9.013-4.37C167.577,210.597,165.032,210.529,162.51,210.597z"/>
	</g>
	<g>
		<path class="stcolor10" d="M162.65,222.071c-2.511-0.118-5.014-0.439-7.475-0.959c-2.359-0.498-4.547-1.333-6.845-2.011
			c-1.471-0.433-4.812-1.08-2.523-3.04c1.727-1.479,3.819-2.537,5.923-3.366c2.202-0.869,4.173-0.99,6.434-1.493
			c2.975-0.661,5.408-0.928,8.411-0.416c2.857,0.487,5.265,1.538,8.012,2.466c1.6,0.54,3.316,1.122,4.306,2.59
			c0.756,1.122-8.24,5.695-9.072,5.903c-0.776,0.197-1.578,0.262-2.376,0.307C165.851,222.141,164.248,222.147,162.65,222.071z"/>
	</g>
	<g>
		<path d="M131.974,196.808c0.906,3.276,2.3,6.367,4.221,9.086c1.895,2.734,4.286,5.085,6.969,7.017
			c2.697,1.912,5.681,3.434,8.828,4.466c3.141,1.046,6.429,1.673,9.736,1.786c3.304,0.143,6.628-0.197,9.804-1.086
			c3.186-0.844,6.195-2.292,8.867-4.218c2.66-1.946,4.952-4.424,6.71-7.284c1.791-2.849,3.023-6.06,3.92-9.401l0.557,0.096
			c-0.352,3.493-1.288,6.972-2.874,10.197c-1.6,3.214-3.881,6.145-6.704,8.462c-2.801,2.351-6.128,4.036-9.604,5.141
			c-3.496,1.069-7.16,1.524-10.796,1.42c-7.264-0.253-14.489-2.674-20.248-7.168c-2.88-2.23-5.355-4.992-7.216-8.108
			c-1.848-3.122-3.077-6.592-3.549-10.13L131.974,196.808z"/>
	</g>
	<g>
		<path d="M144.68,217.186c1.971-2.551,4.764-4.46,7.779-5.698c0.762-0.287,1.533-0.565,2.309-0.818l2.376-0.599l2.421-0.36
			c0.813-0.056,1.628-0.121,2.444-0.155c3.259-0.051,6.536,0.411,9.615,1.474c3.071,1.049,5.99,2.686,8.229,4.997l-0.284,0.343
			c-2.644-1.685-5.509-2.838-8.468-3.577c-2.961-0.723-6.007-1.06-9.044-0.981c-0.757,0.059-1.516,0.082-2.272,0.124l-2.255,0.29
			l-2.233,0.43c-0.731,0.194-1.454,0.416-2.194,0.602c-2.894,0.917-5.655,2.286-8.139,4.213L144.68,217.186z"/>
	</g>
	<g>
		<g>
			<path class="stcolor11" d="M205.568,164.566c-24.011,0.233-36.939,8.178-44.709,8.254c-7.77,0.076-20.853-7.616-44.861-7.382
				c-24.008,0.233-26.961,17.56-56.881,23.179c35.876,22.948,56.068-0.993,72.168,8.327s43.697,9.05,59.611-0.582
				c15.915-9.632,45.977,24.866,74.37-6.572C233.772,186.527,229.576,164.332,205.568,164.566z"/>
		</g>
		<g>
			<path d="M205.576,165.528c-6.342,0.138-12.658,0.894-18.82,2.292c-3.082,0.692-6.134,1.513-9.162,2.435
				c-3.032,0.931-6.035,1.949-9.151,2.877c-1.558,0.464-3.161,0.88-4.854,1.176c-0.852,0.138-1.727,0.247-2.646,0.264
				c-0.917,0.006-1.803-0.079-2.66-0.197c-3.397-0.54-6.449-1.53-9.528-2.39c-6.117-1.791-12.233-3.285-18.485-4.114
				c-3.122-0.422-6.263-0.689-9.413-0.821c-1.575-0.067-3.153-0.09-4.73-0.09l-2.323,0.059c-0.768,0.065-1.544,0.093-2.306,0.188
				c-3.06,0.346-6.083,0.979-8.954,2.098c-2.888,1.077-5.627,2.579-8.31,4.238c-2.683,1.665-5.324,3.479-8.046,5.205
				c-2.719,1.735-5.549,3.341-8.476,4.736c-5.869,2.787-12.14,4.635-18.496,5.653l0,0l0.186-0.953
				c3.85,2.312,7.857,4.348,12.022,5.948c4.165,1.595,8.496,2.717,12.891,3.24c4.393,0.56,8.842,0.52,13.246-0.003
				c4.412-0.506,8.769-1.493,13.189-2.48c4.412-0.948,8.988-2.011,13.856-1.575c2.413,0.219,4.854,0.906,7.025,2.084l1.482,0.799
				c0.47,0.267,0.97,0.486,1.457,0.728c0.484,0.245,0.99,0.453,1.49,0.669c0.498,0.225,1.007,0.422,1.516,0.616
				c4.075,1.58,8.383,2.629,12.751,3.237c4.37,0.624,8.808,0.799,13.223,0.636c4.418-0.177,8.819-0.757,13.105-1.769
				c4.272-1.043,8.459-2.478,12.275-4.564l1.46-0.821c0.554-0.318,1.136-0.591,1.73-0.818c1.19-0.461,2.433-0.737,3.664-0.869
				c2.475-0.262,4.879,0.014,7.171,0.481c4.592,0.953,8.861,2.539,13.139,3.962c4.266,1.443,8.527,2.798,12.877,3.653
				c4.342,0.866,8.777,1.181,13.136,0.664c4.353-0.523,8.597-1.957,12.419-4.187c3.827-2.222,7.27-5.124,10.352-8.369l0,0
				l0.335,0.869c-2.753-0.307-5.495-0.74-8.198-1.37c-2.697-0.655-5.352-1.496-7.925-2.539c-5.172-2.05-9.944-4.992-14.418-8.215
				c-4.488-3.203-8.797-6.643-13.608-9.095c-2.399-1.226-4.916-2.188-7.52-2.784C210.937,165.716,208.257,165.48,205.576,165.528z
				 M205.557,163.607c2.818,0.006,5.65,0.309,8.395,0.993c2.745,0.686,5.38,1.758,7.849,3.082c4.966,2.646,9.207,6.24,13.634,9.452
				c4.398,3.248,9.027,6.184,14.07,8.251c2.517,1.032,5.115,1.862,7.759,2.517c2.652,0.63,5.346,1.063,8.057,1.375l1.038,0.121
				l-0.703,0.751l0,0c-2.987,3.439-6.389,6.586-10.321,9.016c-3.906,2.455-8.35,4.126-12.95,4.829
				c-4.606,0.726-9.309,0.442-13.836-0.363c-4.542-0.799-8.937-2.109-13.257-3.476c-4.317-1.347-8.586-2.823-12.872-3.619
				c-2.135-0.385-4.277-0.599-6.305-0.357c-1.012,0.118-1.988,0.352-2.905,0.714c-0.458,0.18-0.9,0.394-1.325,0.644l-1.482,0.858
				c-4.097,2.292-8.504,3.903-13.001,5.003c-4.505,1.083-9.1,1.707-13.713,1.912c-4.612,0.208-9.241-0.014-13.817-0.683
				c-4.573-0.661-9.106-1.769-13.448-3.49c-0.543-0.214-1.083-0.433-1.614-0.681c-0.534-0.239-1.069-0.47-1.592-0.742
				c-0.523-0.267-1.055-0.512-1.564-0.807l-1.49-0.827c-1.794-0.998-3.782-1.586-5.864-1.805c-2.081-0.225-4.244-0.096-6.418,0.177
				c-2.177,0.27-4.37,0.683-6.578,1.119c-4.415,0.88-8.912,1.797-13.496,2.219c-4.578,0.436-9.233,0.388-13.794-0.315
				c-4.559-0.712-8.996-2.042-13.209-3.836c-4.221-1.78-8.206-4.038-11.975-6.581l-1.077-0.726l1.263-0.228l0,0
				c6.212-1.356,12.264-3.369,17.849-6.311c2.793-1.471,5.467-3.144,8.105-4.907c2.635-1.772,5.22-3.653,7.928-5.436
				c2.705-1.777,5.56-3.451,8.639-4.694c3.063-1.28,6.33-2.095,9.618-2.503c0.821-0.113,1.648-0.155,2.472-0.233l2.472-0.096
				c1.623-0.014,3.243-0.008,4.865,0.042c3.243,0.104,6.485,0.346,9.711,0.748c6.448,0.782,12.815,2.272,18.994,4.013
				c3.082,0.835,6.159,1.772,9.095,2.199c1.474,0.202,2.77,0.183,4.246-0.067c1.46-0.242,2.958-0.638,4.474-1.055
				c6.06-1.758,12.357-3.572,18.744-4.629C192.632,164.093,199.105,163.607,205.557,163.607z"/>
		</g>
	</g>
	<g class="stcolor0">
		<path class="stcolor1" d="M173.41,113.844c5.335-1.454,44.169-12.65,69.578,37.794c0.087-11.392-0.813-12.785-5.962-19.106
			c-5.149-6.322-11.035-16.08-21.798-20.648c-10.762-4.567-19.151-5.849-26.891-4.241
			C177.651,109.859,173.41,113.844,173.41,113.844z"/>
	</g>
	<g class="stcolor0">
		<path class="stcolor1" d="M152.189,113.906c-7.616-4.525-43.497-11.539-71.198,40.606c-0.304-10.38,0.124-15.254,4.32-20.611
			c4.199-5.357,12.18-15.659,24.711-22.461c8.229-4.469,14.042-5.911,23.468-4.39C142.917,108.571,152.189,113.906,152.189,113.906z
			"/>
	</g>
	<g class="stcolor0">
		<path class="stcolor1" d="M86.056,202.059c0.38,3.842,11.17,1.111,13.98,0.99c4.64-0.197,9.32-0.571,13.873-1.516
			c10.301-2.135,13.516-1.426,19.199,1.19c-1.28-3.012-0.011-6.567-0.011-6.567s-6.027-2.396-12.849-1.406
			c-6.823,0.99-13.859,4.559-21.117,4.12c-2.525-0.152-11.215-0.062-14.236-0.295C84.883,198.746,86.042,201.907,86.056,202.059z"/>
	</g>
	<g class="stcolor0">
		<path class="stcolor1" d="M190.522,201.538c6.26-1.701,9.289-3.813,14.036-1.142c9.089,5.118,28.165,8.971,30.507,9.07
			c2.343,0.101,1.983-5.459,1.983-5.459s-8.113-0.835-17.863-3.977s-19.185-6.119-22.745-5.366
			c-3.557,0.751-5.546,1.699-5.546,1.699S191.439,199.623,190.522,201.538z"/>
	</g>
	<g class="stcolor0">
		<path class="stcolor1" d="M149.736,217.487c2.033-2.219,22.546-2.773,26.795-0.368c2.773-0.925,2.773-0.925,2.773-0.925
			s-2.587-3.695-10.903-4.435s-15.251-0.447-22.594,4.303C147.149,217.304,149.736,217.487,149.736,217.487z"/>
	</g>
	<g>
		<g>
			<path class="stcolor2" d="M146.705,238.745c5.833,7.489-20.653,25.873-32.791,20.842c-10.228-4.241-37.153-20.785-47.521-34.833
				c-12.754-17.273,39.296-66.153,48.458-44.881C126.428,206.741,132.627,220.667,146.705,238.745z"/>
		</g>
		<g>
			<path d="M148.221,237.563c0.602,0.748,1.032,1.707,1.187,2.669c0.163,0.965,0.084,1.898-0.107,2.725
				c-0.394,1.668-1.156,3.012-1.974,4.235c-1.676,2.419-3.684,4.381-5.816,6.159c-2.134,1.775-4.424,3.316-6.828,4.671
				s-4.927,2.525-7.602,3.394c-2.672,0.866-5.492,1.476-8.504,1.451c-1.502-0.023-3.057-0.214-4.595-0.717
				c-0.374-0.112-0.79-0.287-1.119-0.422l-0.951-0.419c-0.622-0.29-1.243-0.577-1.848-0.88c-4.846-2.402-9.401-5.132-13.876-8.012
				c-4.471-2.877-8.814-5.945-13.018-9.21c-4.199-3.268-8.274-6.718-12.048-10.538c-1.881-1.915-3.692-3.92-5.335-6.097
				l-0.613-0.818c-0.211-0.292-0.43-0.624-0.622-0.948c-0.385-0.658-0.703-1.356-0.948-2.07c-0.492-1.431-0.689-2.922-0.689-4.367
				c0.008-2.905,0.748-5.636,1.724-8.186c0.993-2.556,2.267-4.952,3.681-7.239c2.826-4.578,6.221-8.732,9.933-12.554
				c3.712-3.822,7.751-7.332,12.177-10.332c2.219-1.493,4.525-2.868,6.974-4.016c2.447-1.131,5.045-2.064,7.838-2.376
				c1.392-0.149,2.846-0.132,4.277,0.219c1.426,0.343,2.818,1.049,3.912,2.075c1.102,1.015,1.898,2.303,2.464,3.591l1.6,3.602
				c2.137,4.801,4.283,9.598,6.493,14.354c2.23,4.747,4.539,9.446,7.014,14.044c2.478,4.595,5.118,9.084,7.995,13.417
				C141.876,229.304,144.972,233.491,148.221,237.563z M145.189,239.926c-3.206-4.227-6.263-8.583-9.089-13.085
				c-2.835-4.5-5.419-9.148-7.79-13.887c-2.376-4.736-4.567-9.545-6.676-14.376c-2.123-4.826-4.171-9.674-6.209-14.525l-1.524-3.639
				c-0.458-1.128-1.086-2.118-1.91-2.899c-1.64-1.589-4.095-2.075-6.527-1.811c-2.447,0.264-4.876,1.122-7.188,2.194
				c-2.317,1.083-4.542,2.404-6.668,3.875c-4.252,2.944-8.17,6.398-11.738,10.161c-3.543,3.782-6.766,7.886-9.387,12.309
				c-1.291,2.219-2.427,4.522-3.273,6.896c-0.835,2.365-1.4,4.829-1.336,7.199c0.031,1.181,0.228,2.329,0.622,3.375
				c0.197,0.523,0.442,1.021,0.734,1.49c0.149,0.236,0.298,0.45,0.478,0.686l0.591,0.742c1.589,1.974,3.363,3.833,5.228,5.605
				c3.74,3.543,7.815,6.775,12.017,9.829c4.21,3.046,8.56,5.914,12.993,8.634c2.219,1.356,4.463,2.666,6.733,3.92
				c2.264,1.257,4.55,2.48,6.856,3.566c0.577,0.276,1.153,0.532,1.727,0.79l0.861,0.363c0.284,0.11,0.472,0.188,0.731,0.262
				c0.967,0.301,2.053,0.43,3.178,0.425c2.258,0.003,4.646-0.509,6.972-1.237c4.663-1.505,9.202-3.892,13.173-6.884
				c1.969-1.502,3.83-3.183,5.205-5.056c0.678-0.925,1.235-1.915,1.474-2.809c0.124-0.447,0.155-0.849,0.11-1.184
				C145.501,240.499,145.397,240.215,145.189,239.926z"/>
		</g>
	</g>
	<g>
		<g>
			<path class="stcolor2" d="M177.08,238.745c-5.833,7.489,20.653,25.873,32.791,20.842c10.228-4.241,37.153-20.785,47.521-34.833
				c12.754-17.273-39.296-66.153-48.458-44.881C197.359,206.741,191.158,220.667,177.08,238.745z"/>
		</g>
		<g>
			<path d="M178.596,239.926c-0.205,0.292-0.312,0.574-0.357,0.914c-0.045,0.337-0.014,0.74,0.11,1.184
				c0.236,0.894,0.796,1.884,1.474,2.809c1.375,1.873,3.234,3.557,5.205,5.056c3.971,2.992,8.51,5.38,13.173,6.884
				c2.329,0.731,4.713,1.243,6.972,1.237c1.125,0.006,2.21-0.124,3.178-0.425c0.259-0.073,0.447-0.152,0.731-0.262l0.861-0.363
				c0.577-0.256,1.15-0.512,1.727-0.79c2.306-1.086,4.592-2.309,6.856-3.566c2.269-1.254,4.514-2.565,6.733-3.92
				c4.432-2.719,8.783-5.585,12.993-8.634c4.202-3.054,8.276-6.285,12.017-9.829c1.865-1.772,3.639-3.631,5.228-5.605l0.591-0.742
				c0.18-0.233,0.329-0.447,0.478-0.686c0.292-0.467,0.537-0.965,0.734-1.49c0.394-1.046,0.588-2.194,0.621-3.375
				c0.065-2.368-0.498-4.831-1.336-7.199c-0.846-2.374-1.983-4.677-3.273-6.896c-2.621-4.424-5.844-8.527-9.387-12.309
				c-3.569-3.763-7.486-7.216-11.738-10.161c-2.123-1.471-4.348-2.793-6.668-3.875c-2.312-1.071-4.741-1.929-7.188-2.194
				c-2.433-0.264-4.885,0.222-6.527,1.811c-0.827,0.782-1.451,1.775-1.91,2.899l-1.524,3.639c-2.039,4.851-4.089,9.699-6.209,14.525
				c-2.112,4.831-4.3,9.643-6.676,14.376c-2.371,4.736-4.955,9.387-7.79,13.887C184.859,231.343,181.802,235.699,178.596,239.926z
				 M175.564,237.563c3.251-4.075,6.344-8.26,9.219-12.596c2.877-4.334,5.52-8.822,7.995-13.417
				c2.475-4.595,4.784-9.297,7.014-14.044c2.21-4.756,4.356-9.553,6.493-14.354l1.6-3.602c0.565-1.288,1.361-2.579,2.464-3.591
				c1.094-1.026,2.486-1.73,3.912-2.075c1.431-0.352,2.885-0.368,4.277-0.219c2.795,0.312,5.391,1.243,7.838,2.376
				c2.447,1.145,4.756,2.523,6.974,4.016c4.426,3.001,8.465,6.51,12.177,10.332c3.712,3.822,7.107,7.976,9.933,12.554
				c1.415,2.286,2.689,4.682,3.681,7.239c0.976,2.554,1.715,5.284,1.724,8.186c0,1.445-0.197,2.936-0.689,4.367
				c-0.245,0.714-0.562,1.412-0.948,2.07c-0.191,0.326-0.411,0.655-0.621,0.948l-0.613,0.818c-1.642,2.177-3.453,4.182-5.335,6.097
				c-3.774,3.819-7.852,7.27-12.048,10.538c-4.202,3.265-8.546,6.333-13.018,9.21c-4.474,2.88-9.03,5.61-13.876,8.012
				c-0.605,0.301-1.226,0.591-1.848,0.88l-0.951,0.419c-0.326,0.135-0.745,0.309-1.119,0.422c-1.538,0.503-3.096,0.695-4.595,0.717
				c-3.012,0.025-5.833-0.585-8.504-1.451c-2.674-0.869-5.197-2.039-7.602-3.394c-2.404-1.356-4.694-2.899-6.828-4.671
				c-2.132-1.777-4.14-3.737-5.816-6.159c-0.818-1.223-1.58-2.565-1.974-4.235c-0.191-0.83-0.273-1.763-0.107-2.725
				C174.535,239.27,174.962,238.311,175.564,237.563z"/>
		</g>
	</g>
	<g class="stcolor0">
		<path class="stcolor1" d="M268.391,66.562c0.571,0.571,16.739,21.798,15.726,28.589c-1.429,9.579-26.877,39.883-26.877,39.883
			l-1.969,16.612l-4.322-4.604l0.143,14.725c0,0,14.582-25.445,17.155-29.02s34.166-34.453,34.166-34.453L268.391,66.562z"/>
	</g>
	<g class="stcolor0">
		<path class="stcolor1" d="M65.883,221.331c-3.774,5.669-7.557,20.383-11.772,21.356c-6.758,1.558-11.527-6.524-20.639-2.649
			s-23.142,7.351-25.743,7.166c3.901,1.786,6.631,1.817,7.655,2.005c1.024,0.191,15.819-2.784,23.519-3.366
			c3.977-0.301,19.635,4.179,19.635,4.179s2.866-6.156,4.927-8.648s8.949-10.178,8.949-10.178L65.883,221.331z"/>
	</g>
	<g class="stcolor0">
		<path class="stcolor1" d="M86.554,241.11c4.145,2.43,21.874,9.382,29.447,9.863c9.005,0.571,24.017-5.29,28.876-13.724
			c0,0,3.288,3.431,2.286,5.861c-1.001,2.43-6.148,9.722-11.007,12.152c-4.86,2.43-17.869,7.576-22.588,5.29
			C108.855,258.264,86.554,241.11,86.554,241.11z"/>
	</g>
	<g class="stcolor0">
		<path class="stcolor1" d="M237.943,240.536c-4.145,2.43-21.874,9.382-29.447,9.863c-9.005,0.571-24.017-5.29-28.876-13.724
			c0,0-3.288,3.431-2.286,5.861s6.148,9.722,11.007,12.152c4.86,2.43,17.869,7.576,22.588,5.29
			C215.641,257.691,237.943,240.536,237.943,240.536z"/>
	</g>
	<g>
		<g>
			<path class="stcolor12" d="M240.873,41.496c0,0-0.723-19.559-1.192-28.932c-0.382-7.658-0.517-7.514,7.27-7.897
				c7.787-0.382,28.932-1.192,28.932-1.192l24.121,22.731l-34.489,37.726L240.873,41.496z"/>
		</g>
		<g>
			<path d="M240.555,41.642c-0.501-5.88-0.835-11.896-1.122-17.911c-0.16-3.006-0.25-6.027-0.377-9.036l-0.188-4.505
				c-0.023-0.756-0.042-1.516,0.02-2.317c0.023-0.202,0.034-0.402,0.065-0.607l0.138-0.633c0.073-0.217,0.169-0.436,0.262-0.652
				c0.138-0.205,0.276-0.425,0.444-0.602c0.366-0.357,0.793-0.591,1.206-0.74c0.205-0.062,0.411-0.132,0.613-0.183l0.596-0.112
				c0.785-0.124,1.544-0.177,2.298-0.222c1.505-0.09,2.989-0.141,4.486-0.186l8.957-0.298c5.97-0.217,11.944-0.34,17.917-0.512l0,0
				l0.146-0.006l0.107,0.101l24.118,22.731l0.25,0.236l-0.231,0.253L265.77,64.168l-0.236,0.256l-0.256-0.233L240.555,41.642z
				 M241.188,41.347l24.559,22.326l-0.492,0.022l34.489-37.729l0.017,0.489L275.641,3.725l0.253,0.096l0,0
				c-5.965,0.321-11.927,0.689-17.892,0.965l-8.946,0.442l-4.463,0.236c-0.734,0.051-1.465,0.11-2.157,0.222
				c-0.695,0.104-1.322,0.309-1.654,0.647c-0.337,0.318-0.472,0.959-0.515,1.651c-0.051,0.686-0.031,1.423-0.006,2.157l0.208,4.446
				c0.121,2.958,0.276,5.906,0.36,8.867C241.039,29.372,241.199,35.295,241.188,41.347z"/>
		</g>
	</g>
	<g>
		<g>
			<g>
				<path class="stcolor13" d="M243.652,16.568c1.06-1.15-0.205-5.082,1.277-6.718c1.592-1.755,5.563-0.546,6.631-1.704
					c0.478-0.517,0.166-2.16-0.18-3.684c-1.707,0.076-3.226,0.143-4.426,0.202c-7.787,0.382-7.655,0.239-7.27,7.897
					c0.065,1.291,0.135,2.781,0.205,4.381C241.449,17.049,243.157,17.108,243.652,16.568z"/>
			</g>
			<g>
				<path d="M243.393,16.332c0.332-0.402,0.368-1.192,0.385-1.895c0.011-0.726-0.014-1.474,0.037-2.239
					c0.065-0.754,0.155-1.569,0.633-2.289c0.489-0.723,1.305-1.111,2.064-1.266c0.768-0.169,1.527-0.202,2.267-0.233
					c0.734-0.034,1.482-0.048,2.092-0.247c0.138-0.059,0.281-0.118,0.366-0.205c0.062-0.042,0.082-0.07,0.107-0.112
					c0.025-0.045,0.045-0.107,0.062-0.174c0.062-0.287,0.053-0.641,0.02-0.99c-0.07-0.706-0.228-1.423-0.388-2.14V4.537l0.354,0.273
					c-1.876,0.143-3.752,0.267-5.63,0.382c-0.934,0.07-1.873,0.11-2.779,0.225c-0.894,0.11-1.817,0.287-2.317,0.776
					c-0.489,0.484-0.588,1.412-0.624,2.306c-0.037,0.908,0.023,1.848,0.042,2.784c0.073,1.879,0.115,3.763,0.149,5.644l-0.323-0.332
					l0,0c0.638,0.042,1.274,0.079,1.895,0.067c0.309-0.006,0.619-0.025,0.908-0.073C243.002,16.546,243.289,16.447,243.393,16.332z
					 M243.907,16.805c-0.36,0.346-0.737,0.402-1.074,0.47c-0.346,0.056-0.681,0.076-1.012,0.084
					c-0.664,0.014-1.313-0.025-1.957-0.067l0,0l-0.301-0.011l-0.025-0.321c-0.149-1.876-0.273-3.752-0.388-5.63
					c-0.059-0.945-0.107-1.884-0.087-2.857c-0.003-0.239,0.014-0.487,0.039-0.737c0.014-0.247,0.048-0.498,0.11-0.756
					c0.082-0.506,0.335-1.063,0.74-1.493c0.222-0.197,0.45-0.388,0.703-0.492c0.247-0.143,0.498-0.211,0.748-0.284
					c0.498-0.138,0.987-0.214,1.465-0.264c0.965-0.11,1.904-0.152,2.849-0.186c1.881-0.073,3.763-0.112,5.647-0.143l0.298-0.006
					l0.056,0.276v0.003c0.163,0.726,0.323,1.46,0.402,2.227c0.034,0.385,0.056,0.779-0.037,1.221
					c-0.031,0.112-0.065,0.228-0.129,0.346c-0.065,0.121-0.166,0.236-0.256,0.301c-0.183,0.172-0.391,0.256-0.591,0.34
					c-0.807,0.259-1.561,0.247-2.3,0.29c-0.737,0.031-1.462,0.067-2.143,0.217c-0.683,0.138-1.288,0.458-1.64,0.973
					c-0.357,0.52-0.461,1.243-0.515,1.946c-0.051,0.714-0.023,1.448-0.037,2.202c-0.011,0.38-0.017,0.756-0.082,1.156
					C244.324,15.995,244.239,16.425,243.907,16.805z"/>
			</g>
		</g>
	</g>
	<g>
		<g>
			<path class="stcolor14" d="M322.392,116.192l-17.636-16.238c-2.846-2.621-3.032-7.095-0.411-9.944l25.426-27.613
				c2.621-2.846,7.095-3.032,9.944-0.411l17.636,16.238c2.846,2.621,3.032,7.095,0.411,9.944l-25.426,27.613
				C329.715,118.631,325.241,118.813,322.392,116.192z"/>
		</g>
		<g>
			<path d="M322.001,116.617l-15.285-14.255l-1.91-1.783c-0.641-0.582-1.308-1.294-1.746-2.095
				c-0.917-1.606-1.192-3.552-0.779-5.346c0.202-0.897,0.577-1.755,1.094-2.517c0.532-0.776,1.164-1.375,1.744-2.019l3.552-3.833
				l14.193-15.341c2.382-2.556,4.691-5.118,7.135-7.669c1.339-1.229,3.15-1.912,4.958-1.907c1.811-0.008,3.619,0.686,4.958,1.915
				l15.391,14.137l1.924,1.766c0.647,0.577,1.311,1.26,1.758,2.053c0.936,1.578,1.223,3.51,0.861,5.315
				c-0.18,0.906-0.534,1.78-1.038,2.562c-0.121,0.2-0.253,0.391-0.405,0.568c-0.146,0.183-0.292,0.371-0.433,0.526l-0.863,0.981
				l-3.453,3.923c-2.323,2.596-4.657,5.18-7.022,7.737c-2.351,2.57-4.716,5.127-7.09,7.675l-3.56,3.825l-1.783,1.91l-0.891,0.956
				l-0.444,0.478l-0.506,0.495c-1.412,1.282-3.31,1.994-5.2,1.974C325.26,118.647,323.382,117.905,322.001,116.617z
				 M322.785,115.768c1.187,1.074,2.776,1.673,4.367,1.654c1.592-0.006,3.167-0.624,4.32-1.704l0.422-0.425l0.439-0.484l0.877-0.967
				l1.755-1.935l3.518-3.864c2.343-2.576,4.696-5.144,7.064-7.7c2.354-2.568,4.739-5.107,7.132-7.638l3.625-3.766
				c0.599-0.638,1.246-1.237,1.701-1.879c0.47-0.658,0.818-1.412,1.015-2.205c0.405-1.589,0.163-3.341-0.641-4.786
				c-0.405-0.737-0.942-1.341-1.592-1.926l-1.921-1.772L339.51,62.197c-1.229-1.133-2.888-1.777-4.561-1.772
				c-1.673-0.008-3.335,0.638-4.561,1.769c-2.362,2.492-4.711,5.113-7.064,7.663l-14.117,15.408l-3.527,3.856
				c-0.582,0.652-1.212,1.268-1.659,1.938c-0.458,0.681-0.785,1.448-0.962,2.25c-0.357,1.603-0.101,3.338,0.723,4.756
				c0.413,0.726,0.948,1.302,1.6,1.881l1.932,1.758L322.785,115.768z"/>
		</g>
	</g>
	<g>
		<path class="stcolor15" d="M276.226,4.104c-3.982-3.667,6.963,16.44,4.376,19.253c-2.587,2.812-16.002-3.6-19.86,0.652
			c-3.597,3.965,3.257,16.98,0.686,19.77c-2.57,2.793-22.58-4.668-19.795-2.106c3.085,2.84,49.948,45.992,49.948,45.992l7.841-8.515
			l0.419-0.453l18.55-20.147l0.38-0.411l7.407-8.043C326.174,50.096,280.627,8.157,276.226,4.104z"/>
	</g>
	<g class="stcolor16">
		<polygon class="stcolor7" points="325.713,50.422 318.103,58.536 281.144,23.728 275.621,3.444 		"/>
	</g>
	<g>
		<rect x="299.28" y="15.161" transform="matrix(0.6774 -0.7356 0.7356 0.6774 66.4331 233.664)" width="0.697" height="51.855"/>
	</g>
	<g>
		<rect x="280.28" y="35.664" transform="matrix(0.6775 -0.7355 0.7355 0.6775 45.1716 226.2805)" width="0.697" height="51.927"/>
	</g>
	<g>
		<g>

				<rect x="294.235" y="65.237" transform="matrix(0.6774 -0.7356 0.7356 0.6774 45.0733 260.9559)" class="stcolor17" width="51.66" height="27.7"/>
		</g>
		<g>
			<path d="M312.768,107.801l-20.836-18.628l-0.489-0.436l0.45-0.489l35.046-37.954l0.399-0.433l0.425,0.399l20.217,18.938
				l0.253,0.239L348,69.689L312.768,107.801z M312.74,107.106l34.751-37.892l0.02,0.492l-20.538-18.589l0.824-0.034l-34.939,38.053
				l-0.039-0.925L312.74,107.106z"/>
		</g>
	</g>
	<g>
		<g>
			<g>
				<polygon class="stcolor17" points="292.987,62.065 298.496,67.138 304.81,65.814 305.611,59.413 300.099,54.34 293.785,55.664
					"/>
			</g>
			<g>
				<path d="M293.265,61.961l5.433,4.958l-0.264-0.073l6.243-1.656l-0.501,0.546l1.136-6.358l0.093,0.256l-5.512-5.073l0.264,0.073
					l-6.235,1.687l0.526-0.571L293.265,61.961z M292.706,62.166l0.416-6.586l0.031-0.498l0.495-0.076l6.389-0.962l0.16-0.025
					l0.104,0.096l5.512,5.073l0.107,0.098l-0.011,0.16l-0.464,6.443l-0.034,0.472l-0.467,0.073l-6.381,0.996l-0.16,0.025
					l-0.104-0.098L292.706,62.166z"/>
			</g>
		</g>
		<g>
			<g>
				<path class="stcolor7" d="M294.849,59.975l3.198-3.473l0.928,0.855l0.605,3.513c0.191,0.906,0.45,1.507,0.776,1.808
					c0.264,0.245,0.509,0.382,0.734,0.416c0.225,0.034,0.419-0.039,0.582-0.217c0.16-0.174,0.2-0.402,0.118-0.681
					c-0.084-0.278-0.264-0.546-0.54-0.799l1.063-1.156c0.377,0.349,0.655,0.745,0.835,1.192c0.18,0.447,0.233,0.889,0.163,1.325
					c-0.07,0.436-0.259,0.824-0.568,1.159c-0.495,0.537-1.029,0.81-1.603,0.818s-1.147-0.253-1.724-0.782
					c-0.242-0.222-0.444-0.475-0.607-0.759c-0.163-0.284-0.298-0.619-0.408-1.004c-0.11-0.385-0.219-0.945-0.326-1.673l-0.323-1.488
					l-1.803,1.957L294.849,59.975z"/>
			</g>
		</g>
	</g>
	<g class="stcolor16">

			<rect x="327.462" y="51.254" transform="matrix(0.6834 -0.7301 0.7301 0.6834 56.6756 262.5436)" class="stcolor7" width="7.115" height="29.355"/>
	</g>
	<g>

			<rect x="287.399" y="71.805" transform="matrix(0.6774 -0.7356 0.7356 0.6774 47.3749 254.1086)" class="stcolor15" width="52.02" height="2.469"/>
		<path d="M296.73,93.247l-2.075-1.91l0.118-0.129l35.356-38.396l2.075,1.91l-0.118,0.129L296.73,93.247z M295.149,91.318
			l1.561,1.437l35.001-38.013l-1.561-1.437L295.149,91.318z"/>
	</g>
	<g>

			<rect x="300.674" y="84.031" transform="matrix(0.6774 -0.7356 0.7356 0.6774 42.6637 267.8172)" class="stcolor15" width="52.02" height="2.469"/>
		<path d="M310.007,105.472l-2.075-1.91l0.118-0.129l35.356-38.398l2.075,1.91l-0.118,0.129L310.007,105.472z M308.423,103.543
			l1.561,1.437l35.001-38.013l-1.561-1.437L308.423,103.543z"/>
	</g>
	<g>
		<path d="M331.031,58.904c0.869,0.492,1.662,1.063,2.43,1.665c0.773,0.596,1.505,1.237,2.222,1.893
			c0.709,0.667,1.406,1.341,2.064,2.064c0.661,0.717,1.299,1.46,1.865,2.281c-0.863-0.498-1.656-1.071-2.427-1.67
			c-0.773-0.596-1.505-1.235-2.227-1.887c-0.711-0.661-1.409-1.339-2.067-2.059C332.229,60.473,331.593,59.728,331.031,58.904z"/>
	</g>
	<g>
		<path d="M300.69,91.858c0.869,0.492,1.662,1.063,2.43,1.665c0.773,0.596,1.505,1.237,2.222,1.893
			c0.709,0.667,1.406,1.341,2.064,2.064c0.661,0.717,1.299,1.46,1.865,2.281c-0.863-0.498-1.656-1.071-2.427-1.67
			c-0.773-0.596-1.505-1.235-2.227-1.887c-0.711-0.661-1.409-1.339-2.067-2.059C301.888,93.427,301.252,92.682,300.69,91.858z"/>
	</g>
	<g>
		<path d="M327.237,63.024c0.869,0.492,1.662,1.063,2.43,1.665c0.773,0.596,1.505,1.237,2.222,1.893
			c0.709,0.667,1.406,1.341,2.064,2.064c0.661,0.717,1.299,1.46,1.865,2.281c-0.863-0.498-1.656-1.071-2.427-1.67
			c-0.773-0.596-1.505-1.235-2.227-1.887c-0.711-0.661-1.409-1.339-2.067-2.059C328.435,64.593,327.8,63.848,327.237,63.024z"/>
	</g>
	<g>
		<path d="M323.446,67.144c0.869,0.492,1.662,1.063,2.43,1.665c0.773,0.596,1.505,1.237,2.222,1.893
			c0.709,0.667,1.406,1.341,2.064,2.064c0.661,0.717,1.299,1.46,1.865,2.281c-0.863-0.498-1.656-1.071-2.427-1.67
			c-0.773-0.596-1.505-1.235-2.227-1.887c-0.711-0.661-1.409-1.339-2.067-2.059C324.642,68.713,324.009,67.968,323.446,67.144z"/>
	</g>
	<g>
		<path d="M319.653,71.261c0.869,0.492,1.662,1.063,2.43,1.665c0.773,0.596,1.505,1.237,2.222,1.893
			c0.709,0.667,1.406,1.341,2.064,2.064c0.661,0.717,1.299,1.46,1.865,2.281c-0.863-0.498-1.656-1.071-2.427-1.67
			c-0.773-0.596-1.505-1.235-2.227-1.887c-0.712-0.661-1.409-1.339-2.067-2.059C320.851,72.83,320.215,72.085,319.653,71.261z"/>
	</g>
	<g>
		<path d="M315.859,75.381c0.869,0.492,1.662,1.063,2.43,1.665c0.773,0.596,1.505,1.237,2.222,1.893
			c0.709,0.667,1.406,1.341,2.064,2.064c0.661,0.717,1.299,1.46,1.865,2.281c-0.863-0.498-1.656-1.071-2.427-1.67
			c-0.773-0.596-1.505-1.235-2.227-1.887c-0.711-0.661-1.409-1.339-2.067-2.059C317.057,76.95,316.421,76.205,315.859,75.381z"/>
	</g>
	<g>
		<path d="M312.068,79.501c0.869,0.492,1.662,1.063,2.43,1.665c0.773,0.596,1.505,1.237,2.222,1.893
			c0.709,0.667,1.406,1.341,2.064,2.064c0.661,0.717,1.299,1.46,1.865,2.281c-0.863-0.498-1.656-1.071-2.427-1.67
			c-0.773-0.596-1.505-1.235-2.227-1.887c-0.711-0.661-1.409-1.339-2.067-2.059C313.263,81.07,312.63,80.325,312.068,79.501z"/>
	</g>
	<g>
		<path d="M308.274,83.618c0.869,0.492,1.662,1.063,2.43,1.665c0.773,0.596,1.505,1.237,2.222,1.893
			c0.709,0.666,1.406,1.341,2.064,2.064c0.661,0.717,1.299,1.46,1.865,2.281c-0.863-0.498-1.656-1.071-2.427-1.67
			c-0.773-0.596-1.505-1.235-2.227-1.887c-0.711-0.661-1.409-1.339-2.067-2.059C309.472,85.187,308.837,84.445,308.274,83.618z"/>
	</g>
	<g>
		<path d="M304.48,87.738c0.869,0.492,1.662,1.063,2.43,1.665c0.773,0.596,1.505,1.237,2.222,1.893
			c0.709,0.666,1.406,1.341,2.064,2.064c0.661,0.717,1.299,1.46,1.865,2.281c-0.863-0.498-1.656-1.071-2.427-1.67
			c-0.773-0.596-1.505-1.235-2.227-1.887c-0.712-0.661-1.409-1.339-2.067-2.059C305.678,89.307,305.043,88.562,304.48,87.738z"/>
	</g>
	<g>
		<path d="M312.768,107.801l-20.836-18.628l-0.489-0.436l0.45-0.489l35.046-37.954l0.399-0.433l0.425,0.399l20.217,18.938
			l0.245,0.231L348,69.689c-2.832,3.273-5.729,6.519-8.645,9.75c-2.908,3.248-5.875,6.426-8.819,9.64
			c-2.956,3.195-5.931,6.344-8.895,9.489l-4.449,4.66L312.768,107.801z M312.74,107.106l4.32-4.924l4.3-4.84
			c2.868-3.189,5.726-6.373,8.603-9.514c2.888-3.119,5.754-6.277,8.679-9.362c2.916-3.102,5.852-6.19,8.853-9.252l0.02,0.492
			l-20.538-18.589l0.824-0.034L292.86,89.136l-0.039-0.925L312.74,107.106z"/>
	</g>
	<g>
		<path d="M275.905,4.453c-0.132-0.118-0.278-0.236-0.385-0.295c-0.034-0.039-0.124-0.003,0.084-0.025
			c0.118-0.025,0.214-0.149,0.217-0.177c0.014-0.034,0.008-0.025,0.008-0.011c-0.003,0.214,0.107,0.636,0.214,0.981
			c0.219,0.728,0.523,1.454,0.818,2.179c0.588,1.454,1.274,2.883,1.907,4.334c0.641,1.448,1.277,2.908,1.862,4.404
			c0.588,1.499,1.116,3.02,1.426,4.716c0.067,0.43,0.121,0.872,0.124,1.356c-0.006,0.484-0.017,1.012-0.312,1.67
			c-0.36,0.751-0.987,1.119-1.505,1.333c-0.537,0.217-1.029,0.287-1.496,0.329c-0.931,0.079-1.772-0.011-2.593-0.115
			c-0.821-0.104-1.614-0.256-2.396-0.427c-1.564-0.332-3.091-0.695-4.618-0.993c-1.521-0.284-3.054-0.557-4.55-0.506
			c-1.474,0.02-2.987,0.419-3.721,1.493c-0.363,0.532-0.543,1.226-0.619,1.943c-0.065,0.723-0.025,1.476,0.059,2.23
			c0.405,3.032,1.443,6.004,2.21,9.129c0.188,0.787,0.346,1.589,0.456,2.433c0.096,0.849,0.166,1.727-0.087,2.779
			c-0.149,0.526-0.374,1.111-0.993,1.623c-0.605,0.447-1.142,0.551-1.625,0.641c-0.965,0.149-1.811,0.096-2.646,0.011
			c-1.659-0.166-3.223-0.562-4.775-0.942c-1.55-0.394-3.077-0.835-4.595-1.282c-1.521-0.433-3.043-0.858-4.564-1.206
			c-0.38-0.09-0.759-0.169-1.133-0.231c-0.354-0.062-0.79-0.118-0.993-0.096c-0.014,0-0.025,0.008,0.031-0.014
			c0.025-0.011,0.076-0.039,0.132-0.104c0.068-0.067,0.11-0.194,0.115-0.278c0-0.183-0.042-0.2-0.039-0.211
			c-0.003-0.006,0.008,0.014,0.028,0.034c0.068,0.073,0.256,0.239,0.388,0.366l0.872,0.801l6.966,6.418l13.938,12.827l13.999,12.762
			c4.688,4.23,9.362,8.476,14.075,12.678l0.003,0.003l-1.263,0.053l34.537-37.619l0.003-0.003l0.056,1.372
			c-4.069-3.934-8.198-7.804-12.295-11.707l-12.391-11.603c-4.117-3.881-8.302-7.692-12.453-11.536L275.905,4.453z M276.546,3.756
			l12.498,11.485c4.173,3.822,8.316,7.677,12.523,11.46l12.585,11.392c4.227,3.76,8.426,7.557,12.68,11.288l0.714,0.627
			l-0.658,0.745l-0.003,0.003l-34.65,37.518l-0.607,0.658l-0.655-0.605l-0.003-0.003c-4.576-4.353-9.193-8.659-13.794-12.984
			l-13.87-12.9l-13.932-12.835l-6.972-6.412l-0.872-0.801c-0.152-0.146-0.267-0.233-0.47-0.447
			c-0.048-0.053-0.098-0.112-0.152-0.202c-0.048-0.096-0.135-0.205-0.132-0.487c0.003-0.135,0.073-0.307,0.169-0.413
			c0.09-0.101,0.183-0.157,0.253-0.191c0.143-0.067,0.231-0.076,0.315-0.09c0.585-0.051,0.936,0.042,1.358,0.098
			c0.405,0.07,0.796,0.152,1.19,0.231l4.646,1.004c3.082,0.596,6.212,1.19,9.21,1.361c0.737,0.031,1.482,0.034,2.078-0.07
			c0.29-0.048,0.537-0.157,0.565-0.194c-0.011,0.008,0.037-0.042,0.076-0.104c0.042-0.062,0.079-0.166,0.112-0.281
			c0.143-0.484,0.124-1.215,0.07-1.929c-0.056-0.726-0.174-1.479-0.301-2.239c-0.487-3.057-1.288-6.17-1.476-9.438
			c-0.051-0.818-0.053-1.651,0.059-2.497c0.107-0.841,0.326-1.727,0.869-2.5c0.543-0.776,1.336-1.325,2.163-1.628
			c0.827-0.307,1.673-0.45,2.503-0.52c3.321-0.225,6.496,0.377,9.598,0.754c1.533,0.174,3.108,0.399,4.421,0.284
			c0.318-0.031,0.613-0.09,0.807-0.174c0.202-0.079,0.278-0.191,0.259-0.163c0.042-0.062,0.104-0.343,0.104-0.641
			c0.006-0.307-0.022-0.652-0.07-1.004c-0.186-1.426-0.605-2.93-1.012-4.424c-0.425-1.496-0.908-2.992-1.403-4.486
			c-0.506-1.493-0.996-2.995-1.521-4.494c-0.259-0.754-0.503-1.51-0.734-2.292c-0.101-0.413-0.231-0.759-0.222-1.336
			c0.008-0.084,0.02-0.174,0.07-0.298c0.042-0.121,0.208-0.326,0.425-0.374c0.205-0.048,0.332-0.006,0.422,0.022
			c0.096,0.031,0.157,0.067,0.222,0.104C276.231,3.466,276.386,3.609,276.546,3.756z"/>
	</g>
	<g class="stcolor0">
		<path class="stcolor1" d="M349.162,70.707l-1.412-1.26L321,98.658c-17.492-16.19-40.859-37.29-59.324-54.684
			c-0.242-0.225-4.992,0.422-4.992,0.422l-9.5-2.16l-6.342-1.066l82.874,76.282l5.574,0.571l6.432-5.717
			c0,0-5.343-4.961-13.288-12.318L349.162,70.707z"/>
	</g>
	<g class="stcolor16">
		<path class="stcolor7" d="M249.189,8.714l-9.722-2.382c0,0-0.191-0.858,1.429-0.953c1.62-0.096,10.962,1.049,10.962,1.049l-0.191,1.907
			L249.189,8.714z"/>
	</g>
	<g>
		<g>
			<path d="M243.393,16.332c0.332-0.402,0.368-1.192,0.385-1.895c0.011-0.726-0.014-1.474,0.037-2.239
				c0.065-0.754,0.155-1.569,0.633-2.289c0.489-0.723,1.305-1.111,2.064-1.266c0.768-0.169,1.527-0.202,2.267-0.233
				c0.734-0.034,1.482-0.048,2.092-0.247c0.138-0.059,0.281-0.118,0.366-0.205c0.062-0.042,0.082-0.07,0.107-0.112
				c0.025-0.045,0.045-0.107,0.062-0.174c0.062-0.287,0.053-0.641,0.02-0.99c-0.07-0.706-0.228-1.423-0.388-2.14V4.537l0.354,0.273
				c-1.876,0.143-3.752,0.267-5.63,0.382c-0.934,0.07-1.873,0.11-2.779,0.225c-0.894,0.11-1.817,0.287-2.317,0.776
				c-0.489,0.484-0.588,1.412-0.624,2.306c-0.037,0.908,0.023,1.848,0.042,2.784c0.073,1.879,0.115,3.763,0.149,5.644l-0.323-0.332
				l0,0c0.638,0.042,1.274,0.079,1.895,0.067c0.309-0.006,0.619-0.025,0.908-0.073C243.002,16.546,243.289,16.447,243.393,16.332z
				 M243.907,16.805c-0.36,0.346-0.737,0.402-1.074,0.47c-0.346,0.056-0.681,0.076-1.012,0.084
				c-0.664,0.014-1.313-0.025-1.957-0.067l0,0l-0.301-0.011l-0.025-0.321c-0.149-1.876-0.273-3.752-0.388-5.63
				c-0.059-0.945-0.107-1.884-0.087-2.857c-0.003-0.239,0.014-0.487,0.039-0.737c0.014-0.247,0.048-0.498,0.11-0.756
				c0.082-0.506,0.335-1.063,0.74-1.493c0.222-0.197,0.45-0.388,0.703-0.492c0.247-0.143,0.498-0.211,0.748-0.284
				c0.498-0.138,0.987-0.214,1.465-0.264c0.965-0.11,1.904-0.152,2.849-0.186c1.881-0.073,3.763-0.112,5.647-0.143l0.298-0.006
				l0.056,0.276v0.003c0.163,0.726,0.323,1.46,0.402,2.227c0.034,0.385,0.056,0.779-0.037,1.221
				c-0.031,0.112-0.065,0.228-0.129,0.346c-0.065,0.121-0.166,0.236-0.256,0.301c-0.183,0.172-0.391,0.256-0.591,0.34
				c-0.807,0.259-1.561,0.247-2.3,0.29c-0.737,0.031-1.462,0.067-2.143,0.217c-0.683,0.138-1.288,0.458-1.64,0.973
				c-0.357,0.52-0.461,1.243-0.515,1.946c-0.051,0.714-0.023,1.448-0.037,2.202c-0.011,0.38-0.017,0.756-0.082,1.156
				C244.324,15.995,244.239,16.425,243.907,16.805z"/>
		</g>
	</g>
	<g>
		<path class="stcolor17" d="M284.218,48.099c0.174-0.098,0.45-0.011,0.681-0.017c0.16-0.003,0.321-0.02,0.481-0.031
			c-0.037-0.157-0.034-0.343-0.121-0.464c-0.18-0.245-0.394-0.47-0.619-0.672c-0.498-0.447-1.012-0.875-1.617-1.395
			c-0.037,0.267-0.101,0.411-0.056,0.47c0.253,0.323,0.039,0.517-0.186,0.678c-0.638,0.461-1.8,0.489-2.441-0.037
			c-0.467-0.385-0.47-0.816,0.006-1.201c0.354-0.287,0.742-0.54,1.139-0.768c0.979-0.557,1.988-0.906,3.155-0.591
			c1.266,0.343,1.786,1.595,0.925,2.776c0.312,0.138,0.599,0.388,0.832,0.346c0.56-0.104,1.097-0.34,1.64-0.529
			c0.284-0.098,0.239-0.278,0.051-0.405c-0.11-0.076-0.295-0.098-0.43-0.07c-0.456,0.093-0.633-0.115-0.664-0.534
			c-0.008-0.118-0.011-0.239-0.051-0.349c-0.568-1.656-2.874-3.063-4.635-2.871c-1.159,0.127-2.149,0.54-2.97,1.395
			c-0.695,0.723-0.922,2.084-0.368,2.888c0.605,0.875,1.493,1.409,2.478,1.685C282.371,48.662,283.33,48.597,284.218,48.099z"/>
		<path class="stcolor17" d="M264.24,28.959c1.1-0.382,1.676-1.313,1.558-2.452c-0.031-0.29-0.127-0.644-0.321-0.835
			c-0.807-0.785-1.645-1.521-2.438-2.236c-0.846,0.219-1.603,0.602-2.053,1.26c-0.326,0.475-0.487,1.086-0.577,1.721
			c0.765-0.354,1.53-0.712,2.295-1.069c0.337-0.157,0.667-0.354,1.024-0.427c0.208-0.042,0.472,0.093,0.683,0.205
			c0.157,0.084,0.259,0.264,0.394,0.397c0.25,0.247,0.25,0.461,0.014,0.748c-0.841,1.029-1.955,1.538-3.226,1.772
			c-0.385-0.076-0.801,0.014-1.19-0.051c0.014,0.295-0.011,0.582,0.023,0.88c0.011,0.09,0.037,0.183,0.051,0.273
			c0.374,0.273,0.931,0.467,1.375,0.422C262.659,29.482,263.464,29.229,264.24,28.959z"/>
		<path class="stcolor17" d="M280.725,39.238c-0.793-1.08-1.865-1.659-3.228-1.642c-1.038,0.008-2.447,0.36-3.178,0.931
			c-1.243,0.967-1.547,2.5-0.472,3.673c1.704,1.867,5.197,1.353,6.575-0.056C281.243,41.302,281.42,40.183,280.725,39.238z
			 M280.028,40.101c-0.551,0.841-1.395,1.28-2.295,1.603c-0.585,0.211-1.206,0.321-1.713,0.45c-0.416-0.082-0.723-0.112-1.012-0.205
			c-0.593-0.191-0.745-0.765-0.323-1.266c0.607-0.72,1.415-1.17,2.278-1.502c0.439-0.169,0.922-0.208,1.378-0.343
			c0.571-0.169,1.038,0.056,1.493,0.337C280.273,39.449,280.306,39.674,280.028,40.101z"/>
		<path class="stcolor17" d="M275.826,36.895c0.461-0.233,0.619-1.19,0.253-1.538c-0.936-0.891-1.884-1.769-2.835-2.641
			c-0.16-0.146-0.36-0.247-0.543-0.368c-0.023,0.028-0.048,0.056-0.07,0.084c0.053,0.146,0.107,0.292,0.188,0.52
			c-0.422,0.188-0.818,0.366-1.215,0.546c-0.959,0.433-1.904,0.9-2.88,1.282c-0.503,0.197-1.038,0.61-1.659,0.107
			c0.557,0.903,1.353,1.516,2.042,2.233c0.056-0.017,0.115-0.037,0.172-0.053c-0.014-0.253-0.028-0.509-0.045-0.762
			c-0.031-0.053-0.059-0.104-0.09-0.157c0.686-0.264,1.37-0.532,2.059-0.79c0.385-0.143,0.489,0.045,0.374,0.374
			c-0.138,0.399-0.326,0.785-0.487,1.176c-0.295,0.714-0.585,1.429-0.88,2.154c0.667,0.25,1.243,0.495,1.839,0.678
			c0.194,0.059,0.439-0.042,0.661-0.07c-0.073-0.174-0.101-0.391-0.225-0.52c-0.298-0.312-0.292-0.613-0.118-0.979
			c0.155-0.321,0.253-0.667,0.385-0.998c0.073-0.18,0.163-0.349,0.247-0.523c0.363,0.143,0.667,0.25,0.965,0.38
			C274.614,37.314,275.233,37.193,275.826,36.895z M272.441,35.233c-0.304-0.166-0.214-0.413,0.045-0.546
			c0.405-0.205,0.824-0.38,1.249-0.546c0.596-0.233,0.866,0.219,1.139,0.596c0.104,0.143,0.202,0.475,0.138,0.529
			c-0.309,0.262-0.672,0.461-1.018,0.683C273.408,35.686,272.907,35.489,272.441,35.233z"/>
		<path class="stcolor17" d="M267.767,33.504c-0.602-0.124-1.246,0.366-1.822-0.087c-0.509-0.397-1.015-0.793-1.592-1.24
			c0.245-0.233,0.402-0.439,0.607-0.568c0.36-0.222,0.771-0.363,1.119-0.599c0.36-0.247,0.647-0.174,0.914,0.09
			c0.247,0.247,0.461,0.529,0.714,0.827c-0.146,0.129-0.27,0.219-0.363,0.335c-0.076,0.09-0.115,0.214-0.169,0.321
			c0.118,0.042,0.27,0.155,0.352,0.118c0.616-0.292,1.218-0.616,1.822-0.928c-0.014-0.065-0.025-0.129-0.039-0.194
			c-0.155-0.011-0.326-0.067-0.464-0.025c-0.501,0.163-1.282-0.264-1.381-0.799c-0.017-0.087,0.059-0.247,0.138-0.287
			c0.498-0.256,0.996-0.512,1.516-0.714c0.138-0.053,0.374,0.051,0.523,0.149c0.183,0.118,0.326,0.298,0.481,0.456
			c0.796,0.804,0.793,0.804,0.028,1.631c-0.034,0.037-0.053,0.084-0.129,0.211c0.172,0.084,0.391,0.276,0.487,0.225
			c0.591-0.301,1.153-0.655,1.794-1.035c-0.352-0.127-0.624-0.152-0.796-0.298c-0.81-0.7-1.597-1.431-2.382-2.16
			c-0.481-0.444-0.948-0.906-1.42-1.358c-0.053,0.017-0.11,0.034-0.163,0.051c0.295,0.515,0.065,0.748-0.363,0.956
			c-1.063,0.52-2.126,1.049-3.147,1.645c-0.585,0.34-1.071,0.416-1.611-0.037c-0.09-0.076-0.301-0.011-0.61-0.011
			c0.273,0.335,0.411,0.551,0.591,0.72c0.607,0.571,1.232,1.125,1.85,1.685c0.568,0.515,1.128,1.038,1.707,1.538
			c0.115,0.101,0.329,0.208,0.441,0.166c0.484-0.183,0.948-0.422,1.42-0.638C267.8,33.602,267.783,33.554,267.767,33.504z"/>
		<path class="stcolor17" d="M289.936,48.186c-0.16,0.124-0.323,0.343-0.526,0.391c-0.689,0.166-1.389,0.284-2.09,0.405
			c-0.951,0.163-1.898,0.354-2.854,0.453c-0.498,0.051-1.018,0.371-1.524-0.014c-0.082-0.062-0.219-0.056-0.329-0.082
			c0.02,0.124-0.008,0.295,0.062,0.366c0.554,0.551,1.122,1.088,1.704,1.611c0.093,0.082,0.264,0.076,0.402,0.11
			c-0.011-0.138-0.023-0.273-0.034-0.411c-0.017-0.214-0.118-0.568-0.037-0.619c0.304-0.183,0.72-0.436,1.001-0.352
			c0.453,0.138,0.846,0.503,1.243,0.804c0.427,0.323,0.45,0.509,0.048,0.852c-0.219,0.186-0.534,0.264-0.816,0.357
			c-0.152,0.048-0.326,0.022-0.565,0.034c0.051,0.16,0.051,0.242,0.093,0.281c0.602,0.599,1.201,1.204,1.828,1.78
			c0.101,0.093,0.332,0.045,0.503,0.062c-0.02-0.152,0.014-0.354-0.07-0.45c-0.357-0.397-0.194-0.712,0.113-1.012
			c0.568-0.56,1.164-1.091,1.71-1.67c0.602-0.638,1.164-1.319,1.696-1.929C291.072,48.892,290.49,48.53,289.936,48.186z
			 M288.69,50.141c-0.273,0.253-0.579,0.472-0.889,0.675c-0.062,0.039-0.222-0.017-0.307-0.076
			c-0.155-0.104-0.301-0.231-0.419-0.374c-0.101-0.121-0.247-0.312-0.211-0.411c0.053-0.143,0.239-0.292,0.394-0.332
			c0.36-0.087,0.74-0.11,1.215-0.174c0.079,0.053,0.281,0.121,0.354,0.262C288.875,49.809,288.788,50.048,288.69,50.141z"/>
	</g>
</g>
</svg>
