<?xml version="1.0" encoding="utf-8"?>
<!-- Generator: Adobe Illustrator 25.0.0, SVG Export Plug-In . SVG Version: 6.00 Build 0)  -->
<svg version="1.1" id="Layer_1" xmlns="http://www.w3.org/2000/svg" xmlns:xlink="http://www.w3.org/1999/xlink" x="0px" y="0px"
	 viewBox="0 0 360 270" style="enable-background:new 0 0 360 270;" xml:space="preserve">
<g>
	<g>
		<path fill="#FFFFFF" d="M46.724,149.359c-6.566,0-12.046,4.91-12.046,11.761c0,7.479,4.967,11.875,12.275,11.875
			c5.024,0,9.763-2.227,11.133-7.422h-6.851c-0.685,1.656-2.398,2.455-4.168,2.455c-3.083,0-4.853-1.998-5.024-5.081l16.385,0.057
			C58.77,155.411,54.774,149.359,46.724,149.359z M41.985,158.894c0.457-2.74,2.169-4.567,4.739-4.567
			c2.455,0,4.225,2.055,4.339,4.567H41.985z"/>
		<path fill="#FFFFFF" d="M73.785,197.431v11.989c0,3.996-2.398,5.024-3.996,5.024c-2.341,0-3.597-1.028-3.597-3.996v-13.017h-7.365
			v13.474c0,5.88,1.884,9.591,8.278,9.591c2.74,0,5.31-1.427,6.794-3.711h0.114v3.083h7.136l-0.057-22.437H73.785z"/>
		<path fill="#FFFFFF" d="M132.305,164.717c0,6.052,1.599,7.879,7.879,7.879c1.313,0,2.683-0.171,3.996-0.228v-5.367
			c-0.628,0-1.313,0.057-1.884,0.057c-1.599,0-2.626-0.4-2.626-2.17v-10.162h4.51v-4.682h-4.51v-6.794h-7.365v6.794h-3.711v4.739
			h3.711V164.717z"/>
		<path fill="#FFFFFF" d="M74.47,149.417c-2.455-0.057-4.796,1.142-6.166,3.254H68.19v-2.569h-6.965v29.802h7.308v-9.877h0.114
			c1.484,1.998,3.882,3.197,6.394,3.083c6.337,0,9.42-5.538,9.42-11.361C84.462,155.468,81.493,149.417,74.47,149.417z
			 M72.701,167.458c-3.254,0-4.453-2.569-4.453-6.451c0.057-4.624,2.569-5.995,4.51-5.995c3.254,0,4.339,3.14,4.339,5.995
			C77.097,164.089,75.955,167.458,72.701,167.458z"/>
		<path fill="#FFFFFF" d="M47.409,199.829h-0.114c-1.484-1.998-3.882-3.197-6.394-3.083c-6.337,0-9.42,5.538-9.42,11.361
			c0,6.28,2.969,12.332,9.991,12.332c2.455,0.057,4.796-1.142,6.166-3.254h0.114v2.569h6.965v-30.773h-7.308V199.829z
			 M43.298,214.901c-3.368,0-4.453-3.425-4.453-6.451c-0.057-2.912,1.085-6.052,4.453-6.052c3.197,0,4.339,2.969,4.339,6.223
			C47.637,211.476,46.838,214.901,43.298,214.901z"/>
		<path fill="#FFFFFF" d="M32.565,156.896c0-9.534-5.652-15.244-15.072-15.244H4.247v30.773h13.245
			C26.855,172.425,32.565,167.001,32.565,156.896z M12.24,165.517v-17.013h3.768c5.481,0,8.507,2.74,8.507,8.335
			c0,6.166-2.398,8.564-8.507,8.678H12.24z"/>
		<polygon fill="#FFFFFF" points="12.24,207.023 27.312,207.023 27.312,200.799 12.24,200.799 12.24,195.376 28.74,195.376
			28.74,188.924 4.19,188.924 4.19,219.811 4.247,219.811 29.196,219.811 29.196,212.903 12.24,212.903 		"/>
		<path fill="#FFFFFF" d="M99.248,158.551c-5.081,1.028-13.017,0.457-13.017,7.765c0,4.624,3.368,6.794,7.65,6.794
			c2.683,0,5.481-0.799,7.365-2.74c0.057,0.742,0.228,1.427,0.457,2.112h7.365c-0.856-1.77-0.856-3.825-0.856-5.709v-9.82
			c0-6.337-5.138-7.479-10.448-7.479c-2.569,0-5.138,0.457-7.137,1.542c-2.169,1.199-3.483,3.54-3.483,5.995l6.851-0.057
			c0.343-1.884,1.656-2.797,3.654-2.797c1.484,0,3.54,0.628,3.54,2.341C101.189,157.866,100.504,158.323,99.248,158.551z
			 M96.565,168.6c-1.599-0.057-3.026-0.799-3.026-2.569c0-1.77,1.37-2.455,3.026-2.855c1.656-0.4,3.483-0.571,4.51-1.199
			C101.247,166.601,100.105,168.6,96.565,168.6z"/>
		<path fill="#FFFFFF" d="M119.687,161.349c0-2.798,1.884-5.31,5.538-5.31c0.971,0,1.884,0.171,2.798,0.457v-6.68
			c-0.571-0.114-1.142-0.171-1.713-0.171c-3.14,0-5.652,1.484-6.737,4.339h-0.057v-3.939h-7.136v22.38h7.308V161.349z"/>
		<path fill="#FFFFFF" d="M225.708,149.359c-2.683,0-5.709,1.427-7.022,3.711h-0.057v-3.083h-7.079l-0.057,22.437h7.308v-12.218
			c0-2.455,1.199-4.796,3.996-4.796c3.996,0,3.654,3.083,3.654,6.166v10.848h7.308v-14.387
			C233.758,154.783,233.13,149.359,225.708,149.359z"/>
		<path fill="#FFFFFF" d="M202.014,196.746c-2.683,0-5.709,1.427-7.022,3.711h-0.057v-3.083h-7.137v22.437h7.308v-12.218
			c0-2.455,1.199-4.796,3.996-4.796c3.996,0,3.654,3.083,3.654,6.166v10.847h7.308v-14.387
			C210.064,202.17,209.436,196.746,202.014,196.746z"/>
		<path fill="#FFFFFF" d="M246.489,143.251h-7.308v6.794h-3.711v4.739h3.711v9.934c0,6.052,1.599,7.879,7.822,7.879
			c1.313,0,2.683-0.171,3.996-0.228v-5.367c-0.628,0-1.313,0.057-1.884,0.057c-1.599,0-2.626-0.4-2.626-2.17v-10.162h4.567v-4.682
			h-4.567V143.251z"/>
		<path fill="#FFFFFF" d="M302.896,146.847c0.685,0,1.313,0.057,1.998,0.114v-5.195c-1.142-0.057-2.398-0.114-3.54-0.114
			c-6.28,0-8.507,1.998-8.507,8.393h-3.54v4.739h3.54v17.642h7.308v-17.642h4.396v-4.739h-4.396v-0.971
			C300.156,147.019,301.183,146.847,302.896,146.847z"/>
		<path fill="#FFFFFF" d="M95.823,214.901c-3.083,0-4.339-2.969-4.339-5.881c0-3.083,0.628-6.566,4.739-6.566
			c1.884-0.114,3.483,1.37,3.597,3.254l7.079-0.057c-0.514-5.881-5.481-8.849-11.019-8.849c-7.194,0-11.704,5.081-11.704,12.218
			c0,6.851,5.024,11.476,11.704,11.476c5.938,0,10.619-3.426,11.247-9.42h-7.136C99.648,213.417,98.335,214.901,95.823,214.901z"/>
		<path fill="#FFFFFF" d="M197.219,172.996c5.024,0,9.763-2.227,11.133-7.422H201.5c-0.685,1.656-2.398,2.455-4.168,2.455
			c-3.083,0-4.853-1.998-5.024-5.081l16.385,0.057c0.343-7.593-3.654-13.645-11.704-13.645c-6.566,0-12.046,4.91-12.046,11.761
			C184.944,168.6,189.911,172.996,197.219,172.996z M196.99,154.326c2.455,0,4.225,2.055,4.339,4.567h-9.078
			C192.708,156.153,194.421,154.326,196.99,154.326z"/>
		<path fill="#FFFFFF" d="M276.862,149.359c-6.965,0-11.761,5.138-11.761,11.875c0,6.737,4.853,11.818,11.761,11.818
			c6.908,0,11.818-5.081,11.818-11.818C288.68,154.498,283.827,149.359,276.862,149.359z M276.919,167.458
			c-3.426,0-4.51-3.368-4.453-6.223c0-2.855,1.028-6.28,4.453-6.28c3.426,0,4.51,3.425,4.51,6.28
			C281.429,164.089,280.345,167.458,276.919,167.458z"/>
		<path fill="#FFFFFF" d="M147.834,202.113l0.057-4.682h-4.51v-6.794h-7.308v6.794h-3.768v4.739h3.711v9.934
			c0,6.052,1.599,7.879,7.822,7.879c1.313,0,2.683-0.171,3.996-0.228v-5.367c-0.628,0-1.313,0.057-1.884,0.057
			c-1.599,0-2.626-0.4-2.626-2.169v-10.162H147.834z"/>
		<rect x="150.86" y="197.431" fill="#FFFFFF" width="7.308" height="22.38"/>
		<path fill="#FFFFFF" d="M173.011,196.746c-6.965,0-11.761,5.138-11.761,11.875c0,6.737,4.853,11.818,11.761,11.818
			c6.908,0,11.818-5.081,11.818-11.818C184.83,201.884,179.977,196.746,173.011,196.746z M173.011,214.844
			c-3.425,0-4.453-3.368-4.453-6.223c0-2.855,1.028-6.28,4.453-6.28c3.426,0,4.51,3.426,4.51,6.28
			C177.522,211.476,176.437,214.844,173.011,214.844z"/>
		<path fill="#FFFFFF" d="M130.649,204.339c0-6.337-5.138-7.479-10.448-7.479c-2.512,0-5.138,0.457-7.136,1.542
			c-2.17,1.199-3.483,3.54-3.483,5.995l6.851-0.057c0.343-1.884,1.656-2.797,3.654-2.797c1.484,0,3.54,0.628,3.54,2.341
			c0,1.37-0.685,1.827-1.941,2.055c-5.081,1.028-13.017,0.457-13.017,7.765c0,4.624,3.368,6.794,7.65,6.794
			c2.683,0,5.481-0.799,7.365-2.74c0.057,0.742,0.228,1.427,0.457,2.112h7.365c-0.856-1.77-0.856-3.825-0.856-5.709V204.339z
			 M119.002,215.986c-1.599-0.057-3.026-0.799-3.026-2.569c0-1.77,1.37-2.455,3.026-2.855c1.656-0.4,3.483-0.571,4.51-1.199
			C123.684,213.988,122.542,215.986,119.002,215.986z"/>
		<rect x="150.86" y="189.039" fill="#FFFFFF" width="7.308" height="5.595"/>
		<path fill="#FFFFFF" d="M168.159,172.482V161.52c0-3.597,0.285-6.052,3.426-6.052c1.884,0,3.083,1.427,3.083,3.825v13.131h7.308
			v-13.36c0-4.282-0.799-9.649-7.879-9.649c-3.026,0-5.195,1.256-6.965,3.597c-1.199-2.683-3.711-3.597-6.508-3.597
			c-2.626,0-5.081,1.427-6.451,3.711h-0.057v-3.083h-7.079v22.38h7.308V161.52c0-4.567,1.142-6.052,3.768-6.052
			c1.998,0,2.74,1.656,2.74,4.282v12.732H168.159z"/>
	</g>
	<g>
		<polygon fill="#6496C9" points="332.206,4.87 259.307,4.87 237.443,26.734 237.443,99.633 259.307,121.497 332.206,121.497
			354.07,99.633 354.07,77.769 346.763,70.462 310.342,70.462 310.342,77.769 281.171,77.769 281.171,48.598 310.342,48.598
			310.342,55.793 346.763,55.793 354.07,48.598 354.07,26.734 		"/>
		<polygon fill="#80B249" points="113.51,4.87 84.395,4.87 77.089,12.176 77.089,41.291 40.611,4.87 11.497,4.87 4.19,12.176
			4.19,114.19 11.497,121.497 40.611,121.497 47.918,114.19 47.918,85.075 84.395,121.497 84.395,121.497 113.51,121.497
			120.817,114.19 120.817,12.176 		"/>
		<polygon fill="#F79637" points="164.545,121.497 193.715,121.497 201.022,114.19 201.022,92.326 237.443,55.905 237.443,12.176
			230.137,4.87 201.022,4.87 193.715,12.176 193.715,26.734 179.102,41.291 164.545,26.734 164.545,26.734 164.545,12.176
			157.238,4.87 128.123,4.87 120.817,12.176 120.817,55.905 157.238,92.326 157.238,114.19 		"/>
	</g>
</g>
</svg>
