<?xml version="1.0" encoding="utf-8"?>
<!-- Generator: Adobe Illustrator 23.0.4, SVG Export Plug-In . SVG Version: 6.00 Build 0)  -->
<svg version="1.1" id="Layer_1" xmlns="http://www.w3.org/2000/svg" xmlns:xlink="http://www.w3.org/1999/xlink" x="0px" y="0px"
	 viewBox="0 0 36 30" style="enable-background:new 0 0 36 30;" xml:space="preserve">
<style type="text/css">
	.st0{fill:#B3E2F2;}
	.st1{fill:#C6DE8B;}
	.st2{fill:#D7C5DF;}
	.st3{fill:#82BC41;}
	.st4{fill:#BEA7CE;}
	.st5{fill:#5B2E85;}
	.st6{fill:#16C0DE;}
	.st7{fill:#73CEE4;}
	.st8{fill:#0382A6;}
	.st9{fill-rule:evenodd;clip-rule:evenodd;fill:#82BC41;}
	.st10{fill:#5A2D81;}
	.st11{fill:#007DA5;}
	.st12{fill:#04C0DE;}
	.st13{fill:#FFFFFF;}
	.st14{fill:#F05423;}
	.st15{fill:#84C441;}
	.st16{fill:#2DABE2;}
	.st17{fill:#F9BC15;}
	.st18{fill:#03AC4B;}
	.st19{fill:#3866B0;}
	.st20{fill:#ED1C24;}
	.st21{fill:#F8BA16;}
	.st22{fill:#34ABCD;}
	.st23{fill:#EE3226;}
	.st24{clip-path:url(#SVGID_2_);}
	.st25{fill:#6F7173;}
	.st26{fill:#0C185C;}
	.st27{fill:#A54E0E;}
	.st28{fill:#A5A7AA;}
	.st29{fill:#30469D;}
	.st30{fill:#F47D2B;}
	.st31{clip-path:url(#SVGID_4_);}
	.st32{opacity:0.71;fill:url(#SVGID_5_);enable-background:new    ;}
	.st33{opacity:0.61;fill:url(#SVGID_6_);enable-background:new    ;}
	.st34{fill:#A9ABAE;}
</style>
<g>
	<g>
		<path class="st0" d="M5.717,17.894c-0.433,0-0.785-0.352-0.785-0.785c0-0.433,0.352-0.785,0.785-0.785s0.785,0.352,0.785,0.785
			C6.501,17.542,6.149,17.894,5.717,17.894z M5.717,16.597c-0.282,0-0.512,0.23-0.512,0.512c0,0.282,0.23,0.512,0.512,0.512
			c0.282,0,0.512-0.23,0.512-0.512C6.228,16.827,5.999,16.597,5.717,16.597z"/>
	</g>
	<g>
		<path class="st1" d="M17.839,3.364c-0.86,0-1.56-0.7-1.56-1.56s0.7-1.56,1.56-1.56s1.56,0.7,1.56,1.56S18.699,3.364,17.839,3.364z
			 M17.839,0.722c-0.597,0-1.082,0.485-1.082,1.082s0.485,1.082,1.082,1.082s1.082-0.485,1.082-1.082S18.436,0.722,17.839,0.722z"/>
	</g>
	<g>
		<path class="st2" d="M18.952,28.856c-0.533,0-0.967-0.434-0.967-0.967s0.434-0.967,0.967-0.967c0.533,0,0.967,0.434,0.967,0.967
			S19.486,28.856,18.952,28.856z M18.952,27.263c-0.345,0-0.626,0.281-0.626,0.626s0.281,0.626,0.626,0.626
			c0.345,0,0.626-0.281,0.626-0.626S19.298,27.263,18.952,27.263z"/>
	</g>
	<g>
		<path class="st3" d="M22.551,5.878c0.007,0,0.013,0,0.02,0c1.303,0.285,2.457,0.929,3.46,1.933
			c0.027,0.027,0.053,0.054,0.079,0.081c1.394-0.625,2.365-2.023,2.365-3.649c0-2.208-1.79-3.998-3.998-3.998
			c-2.208,0-3.998,1.79-3.998,3.998c0,0.514,0.098,1.005,0.275,1.457c0.067-0.002,0.133-0.005,0.2-0.005
			C21.503,5.695,22.037,5.759,22.551,5.878z"/>
	</g>
	<g>
		<path class="st4" d="M28.204,6.219c-1.023,0-1.921,0.542-2.423,1.354c0.084,0.077,0.167,0.156,0.249,0.238
			c0.122,0.121,0.238,0.245,0.349,0.371c0.329-0.677,1.023-1.144,1.825-1.144c1.118,0,2.028,0.91,2.028,2.028
			s-0.91,2.028-2.028,2.028c-0.096,0-0.191-0.007-0.284-0.02c0.068,0.272,0.12,0.55,0.155,0.836
			c0.043,0.002,0.086,0.003,0.129,0.003c1.57,0,2.846-1.277,2.846-2.846S29.773,6.219,28.204,6.219z"/>
	</g>
	<g>
		<path class="st5" d="M26.109,7.891c0.773-0.346,1.416-0.931,1.835-1.66c-0.914,0.083-1.704,0.6-2.163,1.342
			c0.084,0.077,0.167,0.156,0.249,0.238C26.057,7.837,26.083,7.864,26.109,7.891z"/>
	</g>
	<g>
		<path class="st0" d="M13.39,12.063c-0.817,0-1.477-0.688-1.43-1.515c0.041-0.727,0.641-1.317,1.368-1.348
			c0.464-0.02,0.882,0.183,1.157,0.51c0.126-0.256,0.266-0.504,0.421-0.741c-0.444-0.406-1.051-0.636-1.71-0.581
			c-1.095,0.092-1.973,0.984-2.051,2.08c-0.093,1.315,0.95,2.414,2.245,2.414c0.122,0,0.242-0.01,0.359-0.029
			c0.001-0.288,0.019-0.572,0.053-0.851C13.672,12.041,13.533,12.063,13.39,12.063z"/>
	</g>
	<g>
		<path class="st6" d="M13.814,11.984c-0.602-0.542-1.398-0.872-2.272-0.872c-1.876,0-3.397,1.521-3.397,3.397
			s1.521,3.397,3.397,3.397c1.29,0,2.411-0.719,2.987-1.777c-0.493-0.975-0.772-2.077-0.772-3.244
			C13.758,12.58,13.777,12.279,13.814,11.984z"/>
	</g>
	<g>
		<path class="st7" d="M13.399,12.066c-0.607,0-1.125-0.38-1.334-0.914c-0.17-0.026-0.345-0.04-0.522-0.04
			c-0.115,0-0.228,0.006-0.339,0.017c0.226,1.004,1.124,1.756,2.195,1.756c0.122,0,0.242-0.011,0.36-0.029
			c0.001-0.288,0.019-0.572,0.053-0.851C13.681,12.044,13.542,12.066,13.399,12.066z"/>
	</g>
	<g>
		<path class="st8" d="M14.466,16.002c-0.169-0.015-0.34-0.024-0.512-0.024c-3.062,0-5.544,2.482-5.544,5.544
			s2.482,5.544,5.544,5.544s5.544-2.482,5.544-5.544c0-0.574-0.087-1.127-0.249-1.647C17.137,19.362,15.389,17.918,14.466,16.002z"
			/>
	</g>
	<path class="st5" d="M23.778,19.499c-0.868,0.372-1.824,0.578-2.828,0.578c-0.819,0-1.607-0.137-2.34-0.39
		c-0.456,0.649-0.724,1.44-0.724,2.293c0,2.208,1.79,3.998,3.998,3.998c2.208,0,3.998-1.79,3.998-3.998
		c0-1.149-0.486-2.185-1.262-2.914c-0.271,0.161-0.553,0.306-0.845,0.431C23.776,19.498,23.777,19.499,23.778,19.499z"/>
	<g>
		<path class="st9" d="M17.109,13.89l-0.069-0.201c-0.299-1.152-0.213-2.306,0.259-3.462c0.585-1.416,1.584-2.421,2.997-3.012
			C21,6.921,21.703,6.772,22.405,6.768c1.139,0.249,2.146,0.812,3.023,1.689c1.226,1.223,1.839,2.701,1.839,4.434
			c0,1.363-0.385,2.577-1.155,3.641c-0.441,0.38-0.951,0.692-1.53,0.935c-1.413,0.588-2.829,0.594-4.249,0.016
			c-0.166-0.071-0.324-0.143-0.476-0.217c-0.3-0.155-0.576-0.333-0.83-0.534c-0.116-0.084-0.229-0.174-0.338-0.269
			c-0.123-0.109-0.241-0.224-0.354-0.344c-0.261-0.292-0.493-0.615-0.698-0.967l-0.079-0.169c0.004,0.006,0.007,0.012,0.011,0.018
			c0.001,0.003,0.002,0.006,0.003,0.008c0.163,0.289,0.352,0.551,0.568,0.788c0.007,0.007,0.018,0.016,0.032,0.026
			c0.078,0.088,0.164,0.176,0.259,0.264c0.025,0.021,0.048,0.039,0.069,0.053c0.088,0.081,0.178,0.155,0.269,0.222
			c0.3,0.211,0.627,0.391,0.983,0.539c0.162,0.067,0.322,0.123,0.481,0.169c0.983,0.285,1.964,0.224,2.944-0.185
			c0.476-0.197,0.891-0.451,1.247-0.761c0.388-0.338,0.706-0.743,0.957-1.216c0.081-0.144,0.152-0.298,0.211-0.46
			c0.046-0.102,0.086-0.206,0.122-0.312c0.092-0.261,0.157-0.52,0.196-0.777c-0.004-0.018-0.004-0.033,0-0.047
			c0.017-0.13,0.03-0.261,0.037-0.391c0.025-0.634-0.095-1.269-0.359-1.903c-0.476-1.142-1.288-1.947-2.437-2.415
			c-1.145-0.465-2.286-0.46-3.424,0.016c-1.145,0.476-1.952,1.286-2.421,2.431C16.914,12.003,16.849,12.949,17.109,13.89z"/>
		<path class="st10" d="M21.434,7.718c-2.751,0-4.982,2.231-4.982,4.982s2.231,4.982,4.982,4.982s4.982-2.231,4.982-4.982
			S24.186,7.718,21.434,7.718z M21.447,14.036c-0.808,0-1.463-0.655-1.463-1.463c0-0.808,0.655-1.463,1.463-1.463
			c0.808,0,1.463,0.655,1.463,1.463C22.91,13.381,22.255,14.036,21.447,14.036z"/>
		<path class="st11" d="M22.919,17.277c-2.835,0-5.133-2.298-5.133-5.133s2.298-5.133,5.133-5.133c0.106,0,0.209,0.01,0.313,0.016
			c-0.697-0.266-1.449-0.418-2.24-0.418c-3.47,0-6.282,2.813-6.282,6.282s2.813,6.282,6.282,6.282c2.449,0,4.565-1.404,5.602-3.449
			C25.662,16.681,24.361,17.277,22.919,17.277z"/>
		<path class="st12" d="M17.776,10.909c0-1.412,0.36-2.74,0.993-3.898c-2.374,0.897-4.064,3.19-4.064,5.879
			c0,3.471,2.813,6.284,6.284,6.284c0.877,0,1.712-0.18,2.471-0.505C20.165,17.629,17.776,14.548,17.776,10.909z"/>
		<path class="st13" d="M21.152,10.502c-1.23,0-2.231,1.001-2.231,2.231s1.001,2.231,2.231,2.231s2.231-1.001,2.231-2.231
			S22.382,10.502,21.152,10.502L21.152,10.502z"/>
		<path class="st3" d="M21.456,11.117c0.804,0,1.456,0.652,1.456,1.456c0,0.804-0.652,1.456-1.456,1.456
			c-0.804,0-1.456-0.652-1.456-1.456C19.999,11.769,20.651,11.117,21.456,11.117 M21.152,10.502c-1.23,0-2.231,1.001-2.231,2.231
			s1.001,2.231,2.231,2.231s2.231-1.001,2.231-2.231S22.382,10.502,21.152,10.502L21.152,10.502z"/>
	</g>
	<g>
		<path class="st13" d="M25.624,3.832c0-0.211-0.07-0.417-0.203-0.598c-0.028-0.038-0.081-0.046-0.119-0.018
			c-0.038,0.028-0.046,0.081-0.018,0.119c0.111,0.151,0.17,0.322,0.17,0.497c0,0.554-0.544,0.971-1.265,0.971
			c-0.293,0-0.569-0.074-0.8-0.213c-0.052-0.031-0.106-0.008-0.204,0.034c-0.076,0.033-0.176,0.075-0.277,0.096
			c0.166-0.165,0.27-0.277,0.179-0.389c-0.13-0.16-0.199-0.345-0.199-0.534c0-0.555,0.583-1.006,1.3-1.006
			c0.141,0,0.279,0.017,0.411,0.052c0.046,0.012,0.092-0.016,0.104-0.061s-0.016-0.092-0.061-0.104
			c-0.146-0.038-0.299-0.057-0.454-0.057c-0.811,0-1.471,0.528-1.471,1.177c0,0.224,0.078,0.441,0.227,0.629
			c-0.021,0.039-0.106,0.123-0.182,0.198c-0.038,0.037-0.079,0.078-0.124,0.124c-0.022,0.022-0.03,0.054-0.021,0.084
			s0.033,0.052,0.063,0.059c0.208,0.046,0.435-0.052,0.571-0.11c0.025-0.011,0.054-0.023,0.073-0.03
			c0.252,0.146,0.55,0.223,0.863,0.223C25.007,4.973,25.624,4.482,25.624,3.832z"/>
		<path class="st13" d="M26.366,5.364c-0.045-0.045-0.086-0.086-0.124-0.122c-0.124-0.122-0.223-0.218-0.196-0.251
			c0.148-0.18,0.226-0.389,0.226-0.605c0-0.307-0.155-0.593-0.438-0.806c-0.012-0.009-0.028-0.009-0.04-0.001
			c-0.012,0.008-0.018,0.023-0.013,0.038c0.026,0.092,0.04,0.186,0.04,0.279c0,0.709-0.743,1.287-1.657,1.287
			c-0.065,0-0.132-0.004-0.212-0.012c-0.016-0.001-0.03,0.008-0.035,0.022c-0.005,0.015,0,0.031,0.013,0.04
			c0.257,0.173,0.585,0.269,0.923,0.269c0.312,0,0.608-0.078,0.856-0.226c0.016,0.002,0.061,0.021,0.101,0.038
			c0.13,0.056,0.348,0.148,0.539,0.106c0.012-0.003,0.022-0.012,0.025-0.024C26.378,5.385,26.375,5.372,26.366,5.364z"/>
		<path class="st13" d="M24.096,3.859c0,0,0.391-0.015,0.445-0.068l0.973-0.962l-0.35-0.375l-0.985,0.974
			C24.125,3.481,24.096,3.859,24.096,3.859z"/>
		<path class="st13" d="M25.723,2.622c0.053-0.053,0.053-0.14,0-0.193l-0.169-0.169c-0.053-0.053-0.14-0.053-0.193,0l-0.093,0.092
			l0.35,0.375L25.723,2.622z"/>
	</g>
	<g>
		<g>
			<path class="st13" d="M14.406,22.401c0.469-0.707,1.064-1.759,1.744-2.75h0.144v0.067v3.95v0.745h-4.758v-0.56h0.865v-0.433
				h-0.865v-0.645h0.865v-0.432h-0.865v-0.645h0.865v-0.433h-0.865v-0.644h0.865v-0.433h-0.865v-0.537h1.305h2.289
				c-0.549,0.9-1.19,1.64-1.559,2.198c-0.062,0.094-0.186,0.989-0.186,0.989c-0.034,0.052-0.02,0.121,0.031,0.154
				c0.051,0.034,0.12,0.02,0.154-0.031c0,0,0.333-0.206,0.491-0.312C14.22,22.542,14.406,22.401,14.406,22.401"/>
		</g>
	</g>
	<g>
		<g>
			<path class="st6" d="M21.251,21.979h0.516v0.496h-0.516V21.979z M22.798,22.474h-0.516v-0.496h0.516V22.474z M23.314,22.474
				v-0.496v-0.496v-0.496h-0.516v0.496h-1.548v-0.496h-0.516v0.496v0.496v0.496h-0.516v0.496h0.516v0.496h0.516v0.496h0.516v-0.496
				h0.516v0.496h0.516v-0.496h0.516V22.97h0.516v-0.496H23.314z"/>
		</g>
	</g>
	<g>
		<g>
			<path class="st13" d="M11.967,15.426c-0.053,0.06-0.129,0.096-0.209,0.098l-0.007,0c-0.077,0-0.152-0.032-0.206-0.087
				l-0.829-0.853c-0.11-0.114-0.108-0.296,0.006-0.406c0.114-0.11,0.296-0.108,0.406,0.006l0.612,0.63l1.209-1.382v-0.316h-2.26
				c-0.346,0-0.626,0.28-0.626,0.626v2.26h2.886v-1.698L11.967,15.426z"/>
		</g>
	</g>
</g>
<g>
	<path class="st14" d="M3.357,25.627L0.252,25.63l-0.003-3.105l3.105-0.003L3.357,25.627z"/>
	<path class="st15" d="M6.785,25.624L3.68,25.627l-0.003-3.105l3.105-0.003L6.785,25.624L6.785,25.624z"/>
	<path class="st16" d="M3.359,29.057l-3.105,0.003l-0.003-3.105l3.105-0.003L3.359,29.057z"/>
	<path class="st17" d="M6.788,29.054l-3.105,0.003L3.68,25.951l3.105-0.003L6.788,29.054L6.788,29.054z"/>
</g>
<g>
	<path class="st18" d="M35.836,18.964c0-0.28-0.024-0.554-0.07-0.82h-4.13v1.717l2.408,0.004c-0.157,0.557-0.478,1.019-0.922,1.329
		l1.349,1.04C35.322,21.433,35.836,20.265,35.836,18.964z"/>
	<path class="st19" d="M31.692,16.335c0.66,0,1.222,0.249,1.642,0.656l1.223-1.215c-0.739-0.737-1.752-1.189-2.912-1.189
		c-1.73,0-3.225,1.004-3.936,2.46l1.45,1.08C29.508,17.075,30.51,16.335,31.692,16.335z"/>
	<path class="st20" d="M27.737,20.938l1.42-1.152c-0.085-0.261-0.132-0.54-0.132-0.83c0-0.291,0.047-0.569,0.134-0.829l-1.45-1.08
		c-0.282,0.579-0.441,1.229-0.441,1.917C27.267,19.674,27.436,20.345,27.737,20.938z"/>
	<path class="st21" d="M29.157,19.786l-1.42,1.152c0.722,1.426,2.2,2.403,3.907,2.403c1.117,0,2.096-0.418,2.827-1.107l-1.349-1.04
		c-0.39,0.273-0.876,0.429-1.43,0.429C30.508,21.623,29.506,20.853,29.157,19.786z"/>
</g>
<g>
	<g>
		<path class="st22" d="M34.355,4.032c0,0-0.071,0.103-0.205,0.244c-0.507-0.244-0.772-0.516-0.798-0.544
			c0.18-0.122,0.36-0.265,0.522-0.432c0,0,1.401-1.379-0.126-1.709l-0.3,0.355c0,0,0.998-0.153,0.28,0.852
			c0,0-0.189,0.261-0.587,0.557c-0.067-0.264-0.039-0.665,0.361-1.195l-0.198,0.009c-0.407,0.561-0.774,0.835-1.175,0.912
			c-0.368,0.071-0.694-0.002-0.694-0.002l-0.063,0.088c0.658,0.107,0.818,0.29,0.818,0.29s0.134,0.073,0.144,0.366
			c-0.319,0.139-0.694,0.257-1.131,0.324c0,0-0.096,0.014-0.228,0.024c-0.053-0.163-0.08-0.354-0.069-0.578
			c0,0,0.091-1.488,1.857-2.206l-0.779-0.121c-0.447,0.225-0.858,0.663-0.858,0.663s-0.49,0.46-0.707,1.133c0,0,0,0,0,0
			c0,0-0.373,0.325-0.417,0.658c-0.043,0.329,0.142,0.55,0.457,0.667c0.019,0.045,0.039,0.09,0.062,0.136
			c0,0,0.406,0.859,1.551,0.872c0,0,1.291,0.108,2.483-1.325L34.355,4.032z M30.329,4.11c0,0-0.389-0.212,0.002-0.658
			c0.001,0,0.001,0,0.002,0c-0.027,0.214-0.019,0.442,0.041,0.677C30.358,4.123,30.343,4.117,30.329,4.11z M32.116,5.099
			c0,0-0.637-0.093-0.987-0.615c0.333-0.004,0.707-0.07,1.075-0.196c0,0,0.027-0.008,0.074-0.024
			c-0.046,0.18-0.122,0.399-0.243,0.664l0.185,0.002c0,0,0.358-0.693,0.664-0.901c0,0,0.418-0.066,1.172,0.344
			C33.691,4.729,33.012,5.219,32.116,5.099z"/>
		<path class="st22" d="M31.972,2.502c-0.008,0.186,0.142,0.339,0.328,0.336c0.168-0.003,0.307-0.139,0.314-0.307
			c0.008-0.186-0.142-0.339-0.328-0.336C32.118,2.198,31.98,2.334,31.972,2.502z"/>
	</g>
</g>
<g>
	<path class="st23" d="M8.635,7.779c-0.452-0.005-0.852,0.3-0.969,0.731C7.638,8.615,7.652,8.66,7.768,8.683
		c0.286,0.056,0.573,0.088,0.864,0.091c0.291-0.003,0.579-0.036,0.864-0.095c0.089-0.019,0.117-0.05,0.092-0.148
		C9.481,8.1,9.087,7.785,8.635,7.779z"/>
	<path class="st23" d="M8.623,2.917c0.452,0,0.849-0.309,0.962-0.741C9.612,2.075,9.591,2.034,9.49,2.014
		C9.205,1.959,8.917,1.921,8.626,1.919C8.341,1.921,8.06,1.958,7.78,2.01C7.665,2.032,7.632,2.07,7.666,2.191
		C7.786,2.612,8.179,2.917,8.623,2.917z"/>
	<path class="st23" d="M6.196,5.336C6.195,4.895,5.9,4.5,5.485,4.388c-0.078-0.021-0.157-0.06-0.186,0.081
		C5.176,5.047,5.173,5.623,5.297,6.201c0.027,0.124,0.081,0.12,0.178,0.094C5.902,6.177,6.197,5.788,6.196,5.336z"/>
	<path class="st23" d="M11.974,4.517c-0.023-0.136-0.073-0.169-0.205-0.129c-0.418,0.126-0.718,0.531-0.709,0.973
		c0.009,0.436,0.315,0.821,0.731,0.938c0.124,0.035,0.157-0.009,0.178-0.12c0.053-0.281,0.092-0.562,0.082-0.849
		C12.062,5.055,12.019,4.786,11.974,4.517z"/>
	<path class="st23" d="M5.697,3.775c0.162,0.091,0.333,0.14,0.52,0.139C6.59,3.899,6.882,3.74,7.066,3.413
		c0.183-0.325,0.178-0.656-0.002-0.986C7.019,2.344,6.982,2.311,6.887,2.373C6.386,2.696,5.975,3.105,5.653,3.608
		C5.598,3.695,5.619,3.731,5.697,3.775z"/>
	<path class="st23" d="M6.178,6.771C6.03,6.768,5.871,6.816,5.716,6.894C5.611,6.947,5.599,6.998,5.666,7.098
		C5.984,7.58,6.381,7.978,6.863,8.296c0.121,0.08,0.161,0.034,0.215-0.066C7.434,7.566,6.958,6.769,6.178,6.771z"/>
	<path class="st23" d="M11.054,3.91c0.173,0,0.333-0.05,0.485-0.13c0.09-0.047,0.12-0.086,0.053-0.19
		c-0.317-0.483-0.714-0.882-1.194-1.202c-0.12-0.08-0.166-0.051-0.228,0.065C9.816,3.115,10.299,3.913,11.054,3.91z"/>
	<path class="st23" d="M11.577,6.923c-0.165-0.098-0.341-0.153-0.535-0.15c-0.374,0.01-0.666,0.172-0.852,0.495
		c-0.186,0.324-0.177,0.659-0.002,0.987c0.032,0.06,0.056,0.135,0.161,0.069c0.515-0.325,0.933-0.746,1.26-1.259
		C11.653,6.997,11.644,6.963,11.577,6.923z"/>
	<path class="st23" d="M10.252,6.662c0.005-0.169-0.132-0.313-0.304-0.318C9.776,6.339,9.634,6.475,9.631,6.648
		c-0.003,0.174,0.13,0.314,0.302,0.318C10.105,6.969,10.247,6.835,10.252,6.662z"/>
	<path class="st23" d="M10.178,5.342c0,0.173,0.137,0.31,0.31,0.309c0.171-0.001,0.314-0.144,0.312-0.312
		c-0.002-0.171-0.143-0.309-0.314-0.309C10.313,5.031,10.178,5.167,10.178,5.342z"/>
	<path class="st23" d="M6.781,5.031c-0.174-0.003-0.313,0.13-0.316,0.302C6.462,5.505,6.597,5.648,6.768,5.652
		c0.169,0.004,0.317-0.137,0.319-0.304C7.09,5.177,6.952,5.034,6.781,5.031z"/>
	<path class="st23" d="M8.634,3.18c-0.17-0.006-0.314,0.131-0.318,0.302C8.311,3.657,8.443,3.797,8.616,3.801
		c0.172,0.004,0.315-0.13,0.32-0.301C8.941,3.329,8.806,3.186,8.634,3.18z"/>
	<path class="st23" d="M9.946,4.34c0.169-0.005,0.31-0.154,0.305-0.319c-0.006-0.172-0.147-0.305-0.32-0.301
		c-0.176,0.004-0.305,0.14-0.301,0.316C9.633,4.207,9.776,4.345,9.946,4.34z"/>
	<path class="st23" d="M7.317,6.342C7.14,6.341,7.006,6.471,7.004,6.647C7.003,6.822,7.136,6.96,7.309,6.963
		c0.168,0.002,0.315-0.14,0.317-0.307C7.628,6.484,7.489,6.344,7.317,6.342z"/>
	<path class="st23" d="M7.006,4.036c0.003,0.175,0.14,0.309,0.313,0.306C7.49,4.34,7.629,4.196,7.626,4.026
		C7.622,3.854,7.482,3.718,7.31,3.721C7.135,3.724,7.003,3.86,7.006,4.036z"/>
	<path class="st23" d="M8.316,7.211c0.003,0.175,0.142,0.308,0.316,0.304C8.804,7.511,8.94,7.369,8.935,7.198
		C8.93,7.024,8.791,6.891,8.618,6.894C8.444,6.898,8.313,7.035,8.316,7.211z"/>
</g>
<g>
	<g>
		<defs>
			<path id="SVGID_1_" d="M6.391,13.464c0.644-0.894,0.366-2.092-0.622-2.676c-0.988-0.584-2.31-0.331-2.955,0.563
				c-0.644,0.894-0.366,2.092,0.622,2.676S5.747,14.358,6.391,13.464z"/>
		</defs>
		<clipPath id="SVGID_2_">
			<use xlink:href="#SVGID_1_"  style="overflow:visible;"/>
		</clipPath>
		<g transform="matrix(1, 0, 0, 1, 0, 0)" class="st24">
			<path class="st25" d="M2.53,12.271c0.001-0.007,0.002-0.014,0.003-0.021c0.005-0.042,0.013-0.084,0.021-0.127
				c0.012-0.054,0.025-0.109,0.042-0.163c0.099-0.314,0.278-0.588,0.512-0.808c0.01-0.009,0.019-0.018,0.029-0.027
				c0.026-0.024,0.054-0.046,0.081-0.068c0.112-0.09,0.264-0.14,0.384-0.252c0.425-0.398,0.934-0.342,1.304-0.343
				c-0.945,0-1.618,0.885-1.65,1.48c-0.02,0.384,0.168,0.65,0.168,0.65l0.357-0.399l0.783,1.314c0,0-0.42,0.285-1.015,0.168
				c-0.456-0.09-0.987-0.487-1.027-1.083C2.515,12.484,2.518,12.377,2.53,12.271z"/>
			<path class="st26" d="M5.49,10.774c-0.59-0.268-1.236-0.052-1.55,0.26c-0.411,0.407-0.349,0.879-0.349,0.879l1.69,0.058
				l0.041-0.094l-0.285-0.397c0,0,0.35-0.013,0.706,0.195c0.515,0.3,0.949,0.982,0.634,1.83c0.185-0.29,0.273-0.662,0.278-0.988
				c0-0.144-0.016-0.287-0.048-0.427c-0.008-0.033-0.015-0.066-0.025-0.098c-0.003-0.012-0.007-0.024-0.011-0.036
				c-0.093-0.294-0.264-0.572-0.515-0.807c-0.044-0.041-0.089-0.078-0.135-0.115c-0.037-0.029-0.074-0.055-0.111-0.08
				c-0.006-0.004-0.012-0.009-0.018-0.013C5.696,10.877,5.595,10.821,5.49,10.774z"/>
			<path class="st27" d="M5.598,14.087c0.558-0.319,0.688-0.931,0.555-1.336c-0.124-0.38-0.524-0.765-0.524-0.765l-0.127,0.04
				l-0.896,1.253l0.558,0.092c0,0-0.168,0.278-0.549,0.447c-0.55,0.244-1.37,0.246-2.007-0.436c0.179,0.293,0.435,0.535,0.74,0.707
				c0.137,0.075,0.281,0.137,0.429,0.185c0.035,0.011,0.069,0.022,0.105,0.032c0.013,0.004,0.027,0.007,0.04,0.01
				c0.337,0.082,0.689,0.088,1.029,0.018c0.061-0.013,0.12-0.029,0.178-0.046c0.045-0.014,0.09-0.029,0.133-0.044
				c0.007-0.003,0.014-0.005,0.021-0.008C5.393,14.194,5.498,14.144,5.598,14.087z"/>
		</g>
	</g>
	<path class="st28" d="M2.484,12.19c0.001-0.007,0.002-0.014,0.003-0.021c0.005-0.042,0.012-0.084,0.021-0.127
		c0.012-0.055,0.025-0.109,0.042-0.163c0.098-0.314,0.278-0.588,0.512-0.808c0.01-0.009,0.019-0.018,0.029-0.027
		c0.026-0.024,0.054-0.046,0.081-0.068c0.12-0.096,0.248-0.181,0.384-0.252c0.323-0.163,0.679-0.248,1.041-0.248
		c-0.967,0.179-1.358,0.831-1.387,1.385c-0.02,0.384,0.169,0.65,0.169,0.65l0.357-0.399l0.783,1.314c0,0-0.42,0.285-1.015,0.168
		c-0.456-0.09-0.986-0.487-1.027-1.083C2.469,12.404,2.472,12.297,2.484,12.19z"/>
	<path class="st29" d="M5.573,10.69c-0.59-0.268-1.236-0.052-1.55,0.26c-0.411,0.407-0.35,0.879-0.35,0.879l1.648,0.047l-0.201-0.48
		c0,0,0.35-0.013,0.706,0.195c0.514,0.3,0.941,0.934,0.626,1.781c0.181-0.281,0.28-0.606,0.286-0.94
		c0-0.144-0.016-0.287-0.048-0.427c-0.007-0.033-0.015-0.065-0.024-0.098c-0.003-0.012-0.008-0.024-0.011-0.036
		c-0.093-0.294-0.264-0.572-0.515-0.807c-0.044-0.041-0.089-0.078-0.135-0.115c-0.037-0.029-0.074-0.055-0.111-0.08
		c-0.006-0.004-0.012-0.008-0.018-0.013C5.78,10.793,5.679,10.738,5.573,10.69z"/>
	<path class="st30" d="M5.725,14.047c0.558-0.319,0.688-0.931,0.556-1.336c-0.173-0.529-0.65-0.725-0.65-0.725l-0.896,1.253
		l0.558,0.092c0,0-0.168,0.278-0.549,0.446c-0.55,0.244-1.37,0.247-2.007-0.436c0.179,0.293,0.435,0.535,0.741,0.707
		c0.137,0.074,0.281,0.136,0.429,0.184c0.035,0.011,0.07,0.022,0.105,0.031c0.013,0.004,0.027,0.007,0.04,0.01
		c0.337,0.082,0.689,0.088,1.029,0.018c0.061-0.013,0.12-0.029,0.178-0.046c0.046-0.014,0.09-0.029,0.133-0.044
		c0.007-0.003,0.014-0.005,0.021-0.008C5.52,14.154,5.625,14.104,5.725,14.047z"/>
	<g>
		<defs>
			<path id="SVGID_3_" d="M2.484,12.19c0.001-0.007,0.002-0.014,0.003-0.021c0.005-0.042,0.012-0.084,0.021-0.127
				c0.012-0.055,0.025-0.109,0.042-0.163c0.098-0.314,0.278-0.588,0.512-0.808c0.01-0.009,0.019-0.018,0.029-0.027
				c0.026-0.024,0.054-0.046,0.081-0.068c0.12-0.096,0.248-0.181,0.384-0.252c0.323-0.163,0.679-0.248,1.041-0.248
				c-0.967,0.179-1.358,0.831-1.387,1.385c-0.02,0.384,0.169,0.65,0.169,0.65l0.357-0.399l0.783,1.314c0,0-0.42,0.285-1.015,0.168
				c-0.456-0.09-0.986-0.487-1.027-1.083C2.469,12.404,2.472,12.297,2.484,12.19z M5.573,10.69c-0.59-0.268-1.236-0.052-1.55,0.26
				c-0.411,0.407-0.35,0.879-0.35,0.879l1.648,0.047l-0.201-0.48c0,0,0.35-0.013,0.706,0.195c0.514,0.3,0.941,0.934,0.626,1.781
				c0.181-0.281,0.28-0.606,0.286-0.94c0-0.144-0.016-0.287-0.048-0.427c-0.007-0.033-0.015-0.065-0.024-0.098
				c-0.003-0.012-0.008-0.024-0.011-0.036c-0.093-0.294-0.264-0.572-0.515-0.807c-0.044-0.041-0.089-0.078-0.135-0.115
				c-0.037-0.029-0.074-0.055-0.111-0.08c-0.006-0.004-0.012-0.008-0.018-0.013C5.78,10.793,5.679,10.738,5.573,10.69z
				 M5.725,14.047c0.558-0.319,0.688-0.931,0.556-1.336c-0.173-0.529-0.65-0.725-0.65-0.725l-0.896,1.253l0.558,0.092
				c0,0-0.168,0.278-0.549,0.446c-0.55,0.244-1.37,0.247-2.007-0.436c0.179,0.293,0.435,0.535,0.741,0.707
				c0.137,0.074,0.281,0.136,0.429,0.184c0.035,0.011,0.07,0.022,0.105,0.031c0.013,0.004,0.027,0.007,0.04,0.01
				c0.337,0.082,0.689,0.088,1.029,0.018c0.061-0.013,0.12-0.029,0.178-0.046c0.046-0.014,0.09-0.029,0.133-0.044
				c0.007-0.003,0.014-0.005,0.021-0.008C5.52,14.154,5.625,14.104,5.725,14.047L5.725,14.047z"/>
		</defs>
		<clipPath id="SVGID_4_">
			<use xlink:href="#SVGID_3_"  style="overflow:visible;"/>
		</clipPath>
		<g transform="matrix(1, 0, 0, 1, 0, 0)" class="st31">
			<g>
				
					<radialGradient id="SVGID_5_" cx="4.7412" cy="26.1618" r="2.1943" gradientTransform="matrix(1 0 0 -1 0 38.4339)" gradientUnits="userSpaceOnUse">
					<stop  offset="0.39" style="stop-color:#FFFFFF"/>
					<stop  offset="0.95" style="stop-color:#FFFFFF"/>
					<stop  offset="1" style="stop-color:#FFFFFF"/>
				</radialGradient>
				<path class="st32" d="M4.09,14.345c-0.04-0.008-0.094-0.02-0.134-0.029c-0.045-0.012-0.105-0.028-0.149-0.041
					c-0.007-0.002-0.014-0.004-0.022-0.007c0.047,0.014,0.095,0.025,0.144,0.034C3.982,14.321,4.036,14.335,4.09,14.345
					 M4.312,14.378c-0.023-0.003-0.054-0.006-0.078-0.01c-0.03-0.004-0.07-0.01-0.099-0.015c-0.058-0.01-0.115-0.025-0.17-0.044
					c0.057,0.01,0.121,0.019,0.188,0.026C4.204,14.358,4.257,14.372,4.312,14.378 M4.485,14.391
					c-0.017-0.001-0.039-0.002-0.056-0.003c-0.025-0.002-0.059-0.004-0.084-0.007c-0.051-0.005-0.101-0.019-0.148-0.042
					c0.07,0.006,0.143,0.012,0.221,0.015C4.439,14.378,4.461,14.39,4.485,14.391 M4.648,14.394H4.601
					c-0.029,0-0.057-0.001-0.086-0.001H4.513c-0.016,0-0.032-0.013-0.046-0.036c0.051,0.002,0.104,0.003,0.157,0.003
					c0.028,0,0.055,0,0.083-0.001C4.687,14.381,4.668,14.393,4.648,14.394 M4.821,14.385l-0.042,0.003
					c-0.054,0.003-0.064,0.004-0.091,0.004H4.676c0.03-0.002,0.058-0.015,0.079-0.036c0.078-0.002,0.151-0.006,0.221-0.012
					C4.927,14.367,4.875,14.38,4.821,14.385 M5.04,14.359l-0.044,0.007c-0.076,0.01-0.076,0.01-0.116,0.014l-0.025,0.002
					c0.057-0.005,0.113-0.019,0.166-0.04c0.067-0.006,0.129-0.014,0.185-0.023C5.151,14.336,5.096,14.35,5.04,14.359 M5.332,14.295
					c-0.117,0.031-0.122,0.032-0.193,0.046l-0.052,0.01c0.051-0.009,0.102-0.022,0.152-0.037c0.046-0.008,0.091-0.018,0.136-0.03
					L5.332,14.295 M3.667,14.227c-0.007-0.002-0.014-0.005-0.021-0.008c-0.069-0.029-0.16-0.068-0.227-0.1
					c-0.076-0.041-0.175-0.098-0.248-0.143c0.042,0.025,0.086,0.044,0.132,0.059C3.416,14.114,3.538,14.178,3.667,14.227
					 M3.855,14.274c-0.054-0.01-0.108-0.023-0.161-0.038c-0.125-0.048-0.243-0.111-0.353-0.188c0.074,0.022,0.149,0.04,0.226,0.054
					C3.655,14.173,3.752,14.231,3.855,14.274 M4.105,14.31c-0.076-0.008-0.146-0.018-0.21-0.029c-0.098-0.043-0.19-0.1-0.272-0.169
					c0.09,0.016,0.189,0.029,0.295,0.04C3.971,14.216,4.034,14.269,4.105,14.31 M4.4,14.332c-0.086-0.004-0.169-0.01-0.246-0.017
					c-0.065-0.042-0.121-0.094-0.168-0.155c0.109,0.01,0.225,0.018,0.346,0.023C4.353,14.247,4.375,14.297,4.4,14.332 M4.722,14.336
					c-0.03,0-0.061,0.001-0.092,0.001c-0.06,0-0.118-0.001-0.176-0.003c-0.021-0.048-0.036-0.097-0.046-0.148
					c0.081,0.003,0.163,0.004,0.246,0.004c0.044,0,0.087,0,0.129-0.001C4.77,14.241,4.749,14.29,4.722,14.336 M5.024,14.322
					c-0.077,0.006-0.16,0.01-0.247,0.013c0.03-0.034,0.058-0.084,0.084-0.147c0.122-0.003,0.238-0.01,0.346-0.018
					C5.156,14.231,5.094,14.282,5.024,14.322 M5.278,14.293c-0.062,0.01-0.132,0.019-0.206,0.026
					c0.076-0.04,0.145-0.092,0.204-0.154c0.105-0.01,0.202-0.022,0.29-0.035C5.478,14.196,5.381,14.252,5.278,14.293 M5.474,14.25
					c-0.051,0.015-0.104,0.027-0.157,0.036c0.108-0.042,0.21-0.098,0.303-0.167c0.074-0.013,0.147-0.03,0.22-0.051
					C5.725,14.143,5.602,14.204,5.474,14.25 M5.615,14.198L5.506,14.24L5.5,14.242c0.132-0.047,0.259-0.109,0.377-0.185
					c0.04-0.013,0.079-0.03,0.115-0.051C5.834,14.097,5.769,14.135,5.615,14.198 M2.937,13.802l-0.037-0.033
					c-0.058-0.056-0.135-0.133-0.189-0.192c0.006,0.006,0.012,0.012,0.019,0.018C2.793,13.669,2.862,13.738,2.937,13.802
					 M3.224,13.98c-0.064-0.022-0.115-0.045-0.15-0.069c-0.118-0.086-0.225-0.186-0.32-0.296c0.043,0.029,0.105,0.057,0.181,0.084
					C3.02,13.803,3.117,13.898,3.224,13.98 M3.505,14.05c-0.081-0.015-0.161-0.034-0.239-0.057
					c-0.104-0.081-0.198-0.175-0.279-0.279c0.096,0.028,0.193,0.051,0.291,0.069C3.342,13.881,3.419,13.971,3.505,14.05
					 M3.878,14.104c-0.113-0.012-0.218-0.026-0.314-0.043c-0.082-0.079-0.155-0.168-0.215-0.264c0.116,0.02,0.244,0.038,0.381,0.052
					C3.769,13.939,3.819,14.025,3.878,14.104 M4.317,14.136c-0.128-0.005-0.251-0.014-0.367-0.025
					c-0.053-0.079-0.097-0.164-0.131-0.253c0.141,0.013,0.291,0.023,0.446,0.03C4.277,13.971,4.294,14.054,4.317,14.136
					 M4.798,14.142c-0.045,0.001-0.091,0.001-0.137,0.001c-0.089,0-0.176-0.001-0.262-0.004c-0.013-0.07-0.025-0.153-0.035-0.247
					c0.104,0.003,0.21,0.005,0.318,0.005c0.057,0,0.112,0,0.167-0.001C4.836,13.978,4.819,14.061,4.798,14.142 M5.248,14.121
					C5.132,14.13,5.009,14.137,4.88,14.14c0.029-0.081,0.052-0.163,0.069-0.247c0.157-0.004,0.307-0.012,0.447-0.023
					C5.356,13.959,5.306,14.043,5.248,14.121 M5.627,14.077c-0.093,0.015-0.196,0.028-0.307,0.038
					c0.064-0.078,0.119-0.163,0.164-0.253c0.135-0.012,0.26-0.028,0.373-0.046C5.792,13.912,5.714,14,5.627,14.077 M5.918,14.014
					c-0.077,0.022-0.155,0.04-0.233,0.054c0.091-0.077,0.173-0.165,0.243-0.263c0.096-0.016,0.19-0.038,0.284-0.065
					C6.124,13.842,6.026,13.934,5.918,14.014 M6.142,13.903l-0.048,0.035c-0.042,0.027-0.088,0.048-0.136,0.063
					c0.111-0.08,0.212-0.173,0.302-0.277c0.073-0.025,0.131-0.052,0.17-0.08C6.342,13.739,6.246,13.826,6.142,13.903 M6.38,13.7
					c0.025-0.024,0.049-0.049,0.072-0.075l0.007-0.007L6.38,13.7 M2.664,13.516c-0.009-0.008-0.017-0.016-0.025-0.025
					c-0.138-0.194-0.141-0.198-0.241-0.402c0.011,0.022,0.027,0.041,0.046,0.056C2.502,13.277,2.575,13.401,2.664,13.516
					 M2.878,13.621c-0.08-0.027-0.143-0.056-0.188-0.087c-0.087-0.113-0.16-0.237-0.217-0.369c0.05,0.034,0.121,0.066,0.21,0.097
					C2.733,13.39,2.798,13.51,2.878,13.621 M3.232,13.71c-0.102-0.019-0.203-0.043-0.302-0.072c-0.077-0.111-0.14-0.231-0.189-0.357
					c0.111,0.033,0.223,0.06,0.337,0.081C3.116,13.484,3.167,13.6,3.232,13.71 M3.7,13.778c-0.142-0.015-0.274-0.033-0.395-0.054
					c-0.06-0.11-0.109-0.226-0.145-0.347c0.134,0.023,0.283,0.044,0.441,0.06C3.625,13.554,3.658,13.668,3.7,13.778 M4.254,13.818
					c-0.161-0.007-0.316-0.017-0.462-0.032c-0.038-0.111-0.067-0.224-0.088-0.339c0.163,0.016,0.336,0.027,0.517,0.035
					C4.229,13.605,4.24,13.718,4.254,13.818 M4.859,13.826c-0.057,0.001-0.115,0.001-0.173,0.001c-0.112,0-0.222-0.002-0.329-0.005
					c-0.01-0.101-0.016-0.213-0.021-0.335c0.12,0.004,0.243,0.006,0.368,0.006c0.065,0,0.13,0,0.193-0.001
					C4.886,13.614,4.874,13.726,4.859,13.826 M5.427,13.8c-0.145,0.012-0.3,0.02-0.463,0.024c0.019-0.1,0.036-0.212,0.05-0.334
					c0.181-0.005,0.355-0.014,0.517-0.027C5.505,13.578,5.47,13.691,5.427,13.8 M5.904,13.744c-0.117,0.019-0.247,0.035-0.387,0.048
					c0.048-0.109,0.086-0.223,0.115-0.339c0.156-0.014,0.301-0.032,0.432-0.053C6.023,13.52,5.969,13.636,5.904,13.744 M6.27,13.664
					c-0.097,0.028-0.195,0.05-0.294,0.068c0.069-0.108,0.126-0.224,0.169-0.345c0.111-0.019,0.22-0.044,0.328-0.076
					C6.42,13.436,6.352,13.555,6.27,13.664 M6.497,13.565c-0.041,0.03-0.1,0.057-0.176,0.083c0.084-0.109,0.154-0.229,0.209-0.355
					c0.085-0.029,0.152-0.06,0.197-0.093C6.665,13.331,6.588,13.453,6.497,13.565 M6.71,13.281c-0.05,0.076-0.12,0.178-0.176,0.251
					c-0.004,0.005-0.009,0.01-0.014,0.014c0.092-0.112,0.17-0.236,0.232-0.367c0.015-0.013,0.027-0.028,0.036-0.046
					C6.765,13.178,6.736,13.238,6.71,13.281 M2.406,13.05c-0.022-0.017-0.039-0.039-0.05-0.064
					c-0.016-0.049-0.039-0.115-0.052-0.164c-0.019-0.086-0.04-0.201-0.051-0.288c0,0.005,0.001,0.01,0.003,0.015
					c0.007,0.027,0.026,0.053,0.056,0.078C2.324,12.772,2.356,12.914,2.406,13.05 M2.65,13.171
					c-0.091-0.031-0.163-0.064-0.214-0.099c-0.049-0.136-0.081-0.278-0.093-0.422c0.053,0.036,0.129,0.07,0.224,0.103
					C2.577,12.895,2.605,13.036,2.65,13.171 M3.053,13.272c-0.116-0.021-0.23-0.049-0.343-0.082c-0.043-0.135-0.07-0.275-0.08-0.417
					c0.118,0.035,0.238,0.063,0.359,0.085C2.996,12.998,3.017,13.137,3.053,13.272 M3.586,13.348
					c-0.162-0.017-0.312-0.038-0.449-0.061c-0.033-0.135-0.053-0.273-0.061-0.412c0.143,0.025,0.3,0.046,0.47,0.064
					C3.551,13.076,3.564,13.213,3.586,13.348 M4.216,13.394c-0.184-0.008-0.36-0.02-0.526-0.036
					c-0.02-0.136-0.032-0.272-0.035-0.409c0.174,0.017,0.358,0.029,0.55,0.037C4.205,13.131,4.209,13.267,4.216,13.394
					 M4.904,13.404c-0.065,0.001-0.13,0.001-0.197,0.001c-0.127,0-0.252-0.002-0.375-0.006c-0.004-0.126-0.006-0.263-0.006-0.407
					c0.128,0.004,0.259,0.006,0.392,0.006c0.07,0,0.138,0,0.206-0.001C4.921,13.141,4.914,13.277,4.904,13.404 M5.549,13.374
					c-0.165,0.013-0.342,0.022-0.527,0.027c0.012-0.126,0.021-0.262,0.026-0.407c0.194-0.005,0.378-0.015,0.551-0.029
					C5.591,13.102,5.575,13.239,5.549,13.374 M6.092,13.311c-0.134,0.021-0.281,0.04-0.44,0.054
					c0.028-0.135,0.047-0.271,0.055-0.409c0.167-0.015,0.321-0.034,0.46-0.057C6.156,13.039,6.131,13.176,6.092,13.311 M6.509,13.22
					c-0.11,0.032-0.221,0.057-0.334,0.076c0.04-0.134,0.067-0.272,0.079-0.412c0.118-0.02,0.235-0.047,0.349-0.081
					C6.588,12.945,6.557,13.085,6.509,13.22 M6.767,13.106c-0.047,0.033-0.115,0.065-0.201,0.095
					c0.049-0.134,0.082-0.274,0.097-0.416c0.091-0.031,0.161-0.064,0.21-0.099C6.856,12.83,6.82,12.971,6.767,13.106 M6.832,13.033
					c-0.009,0.02-0.022,0.038-0.039,0.052c0.054-0.135,0.09-0.277,0.108-0.422c0.028-0.025,0.044-0.052,0.047-0.079
					C6.914,12.788,6.903,12.849,6.832,13.033 M2.305,12.521c-0.03-0.026-0.049-0.052-0.057-0.079
					c-0.002-0.007-0.003-0.014-0.003-0.021l-0.001-0.072c0.004-0.065,0.008-0.152,0.017-0.217c0.008-0.057,0.019-0.113,0.032-0.168
					C2.293,11.976,2.293,11.988,2.297,12c0.007,0.026,0.026,0.052,0.056,0.077c-0.03,0.123-0.046,0.249-0.048,0.376
					C2.305,12.475,2.305,12.498,2.305,12.521 M2.561,12.648c-0.096-0.033-0.171-0.067-0.225-0.103c0-0.023-0.001-0.046,0-0.068
					c0.002-0.127,0.018-0.253,0.047-0.376c0.053,0.036,0.127,0.07,0.221,0.102c-0.026,0.124-0.041,0.251-0.043,0.378
					C2.561,12.602,2.561,12.625,2.561,12.648 M2.984,12.754c-0.121-0.022-0.242-0.051-0.36-0.086c0-0.023,0-0.045,0-0.068
					c0.002-0.127,0.016-0.254,0.042-0.378c0.116,0.034,0.235,0.062,0.354,0.084c-0.021,0.126-0.033,0.252-0.035,0.38
					C2.984,12.708,2.984,12.731,2.984,12.754 M3.545,12.834c-0.17-0.018-0.328-0.04-0.471-0.065c0-0.023,0-0.045,0-0.068
					c0.002-0.127,0.013-0.254,0.033-0.38c0.141,0.025,0.297,0.046,0.463,0.064c-0.015,0.127-0.023,0.254-0.025,0.382
					C3.545,12.789,3.545,12.812,3.545,12.834 M4.206,12.883c-0.193-0.008-0.378-0.021-0.552-0.037c0-0.023,0-0.045,0-0.068
					c0.002-0.128,0.01-0.256,0.023-0.382c0.171,0.016,0.353,0.029,0.542,0.037c-0.007,0.126-0.011,0.254-0.013,0.382
					C4.206,12.837,4.206,12.86,4.206,12.883 M4.928,12.892c-0.068,0.001-0.137,0.001-0.207,0.001c-0.134,0-0.265-0.002-0.393-0.007
					c0-0.022,0.001-0.045,0.001-0.068c0.002-0.128,0.006-0.256,0.011-0.382c0.126,0.004,0.255,0.006,0.386,0.006
					c0.068,0,0.136-0.001,0.203-0.001c0.002,0.126,0.002,0.254,0,0.382C4.929,12.847,4.929,12.87,4.928,12.892 M5.605,12.861
					c-0.174,0.014-0.359,0.023-0.553,0.029c0.001-0.023,0.001-0.045,0.001-0.068c0.002-0.128,0.001-0.256-0.003-0.382
					c0.191-0.005,0.372-0.015,0.543-0.028c0.01,0.126,0.015,0.254,0.013,0.382C5.606,12.816,5.605,12.838,5.605,12.861
					 M6.175,12.795c-0.14,0.023-0.294,0.042-0.462,0.057c0.001-0.023,0.001-0.045,0.002-0.068c0.002-0.128-0.003-0.255-0.015-0.382
					c0.164-0.015,0.316-0.034,0.453-0.056c0.017,0.126,0.025,0.253,0.023,0.381C6.177,12.75,6.176,12.772,6.175,12.795
					 M6.612,12.699c-0.115,0.034-0.232,0.061-0.35,0.081c0.001-0.023,0.002-0.045,0.002-0.068c0.002-0.127-0.007-0.255-0.025-0.381
					c0.116-0.02,0.231-0.046,0.344-0.079c0.022,0.125,0.033,0.252,0.031,0.379C6.614,12.654,6.613,12.677,6.612,12.699
					 M6.882,12.581c-0.049,0.035-0.12,0.068-0.21,0.099c0.001-0.023,0.002-0.045,0.002-0.068c0.002-0.127-0.009-0.254-0.032-0.379
					c0.089-0.03,0.159-0.063,0.207-0.098c0.026,0.124,0.038,0.25,0.036,0.377C6.885,12.535,6.884,12.558,6.882,12.581 M6.961,12.402
					l-0.003,0.072c-0.002,0.029-0.018,0.057-0.048,0.085c0.001-0.023,0.002-0.045,0.002-0.068c0.002-0.126-0.01-0.253-0.036-0.376
					c0.037-0.034,0.053-0.07,0.045-0.107C6.951,12.187,6.963,12.254,6.961,12.402 M2.382,11.697c0.032-0.069,0.076-0.16,0.115-0.228
					l0.025-0.041c-0.003,0.005-0.006,0.01-0.008,0.015C2.463,11.524,2.419,11.609,2.382,11.697 M2.38,11.975
					c-0.029-0.025-0.048-0.05-0.055-0.076c-0.003-0.011-0.004-0.023-0.002-0.035c0.045-0.14,0.107-0.274,0.185-0.399
					c-0.002,0.011-0.001,0.022,0.002,0.032c0.006,0.024,0.023,0.048,0.051,0.07C2.484,11.696,2.423,11.833,2.38,11.975
					 M2.628,12.098c-0.092-0.031-0.166-0.065-0.218-0.1c0.043-0.143,0.102-0.281,0.177-0.41c0.048,0.033,0.116,0.064,0.201,0.092
					C2.721,11.814,2.667,11.954,2.628,12.098 M3.039,12.202c-0.118-0.022-0.235-0.05-0.35-0.084c0.037-0.145,0.09-0.285,0.156-0.419
					c0.106,0.031,0.214,0.057,0.322,0.077C3.113,11.914,3.07,12.056,3.039,12.202 M3.583,12.28
					c-0.164-0.017-0.318-0.038-0.457-0.062c0.029-0.145,0.07-0.288,0.122-0.427c0.128,0.022,0.27,0.042,0.422,0.057
					C3.632,11.99,3.603,12.134,3.583,12.28 M4.224,12.326c-0.187-0.008-0.367-0.02-0.536-0.036c0.019-0.148,0.045-0.293,0.078-0.433
					c0.156,0.015,0.322,0.026,0.494,0.033C4.246,12.032,4.233,12.177,4.224,12.326 M4.926,12.335
					c-0.066,0.001-0.133,0.002-0.201,0.002c-0.13,0-0.257-0.002-0.382-0.006c0.007-0.149,0.016-0.295,0.027-0.436
					c0.115,0.004,0.233,0.006,0.352,0.006c0.063,0,0.124-0.001,0.185-0.002C4.916,12.041,4.923,12.187,4.926,12.335 M5.584,12.305
					c-0.168,0.013-0.348,0.023-0.537,0.028c-0.006-0.149-0.015-0.295-0.028-0.436c0.174-0.004,0.34-0.013,0.495-0.026
					C5.545,12.015,5.568,12.16,5.584,12.305 M6.137,12.241c-0.136,0.022-0.286,0.04-0.449,0.055
					c-0.017-0.146-0.043-0.29-0.078-0.433c0.15-0.014,0.288-0.031,0.414-0.051C6.073,11.952,6.111,12.095,6.137,12.241
					 M6.561,12.148c-0.112,0.033-0.226,0.059-0.34,0.078c-0.027-0.146-0.067-0.289-0.119-0.427c0.106-0.018,0.211-0.042,0.314-0.072
					C6.479,11.862,6.528,12.003,6.561,12.148 M6.825,12.034C6.777,12.068,6.708,12.1,6.62,12.13c-0.035-0.145-0.085-0.286-0.15-0.42
					c0.081-0.028,0.145-0.057,0.188-0.089C6.73,11.752,6.786,11.89,6.825,12.034 M6.895,11.903c0.01,0.038-0.006,0.074-0.044,0.109
					c-0.04-0.143-0.096-0.281-0.169-0.411c0.035-0.032,0.049-0.066,0.04-0.101C6.797,11.627,6.855,11.762,6.895,11.903
					 M6.773,11.588c-0.018-0.037-0.038-0.074-0.059-0.11c-0.001-0.003-0.003-0.005-0.005-0.008L6.773,11.588 M2.571,11.356
					c0.003-0.008,0.008-0.015,0.013-0.022c0.147-0.191,0.147-0.191,0.321-0.358c-0.016,0.012-0.028,0.028-0.037,0.046
					C2.757,11.122,2.657,11.234,2.571,11.356 M2.616,11.477c-0.026-0.022-0.043-0.045-0.049-0.068
					c-0.003-0.01-0.003-0.021-0.002-0.031c0.087-0.123,0.187-0.236,0.299-0.337c-0.001,0.009-0.001,0.018,0.002,0.026
					c0.008,0.023,0.022,0.044,0.042,0.059C2.798,11.232,2.701,11.35,2.616,11.477 M2.839,11.587
					c-0.083-0.028-0.149-0.058-0.196-0.09c0.083-0.128,0.18-0.246,0.287-0.354c0.04,0.027,0.097,0.053,0.168,0.077
					C3,11.334,2.913,11.457,2.839,11.587 M3.207,11.68c-0.106-0.02-0.211-0.045-0.314-0.075c0.072-0.131,0.156-0.255,0.252-0.37
					c0.088,0.026,0.178,0.048,0.269,0.064C3.335,11.42,3.266,11.547,3.207,11.68 M3.695,11.75c-0.148-0.016-0.286-0.035-0.411-0.056
					c0.055-0.132,0.12-0.26,0.196-0.382c0.107,0.019,0.225,0.035,0.352,0.048C3.779,11.487,3.733,11.617,3.695,11.75 M4.271,11.792
					c-0.168-0.007-0.329-0.018-0.481-0.032c0.034-0.133,0.075-0.263,0.123-0.392c0.13,0.012,0.269,0.022,0.412,0.028
					C4.305,11.521,4.287,11.654,4.271,11.792 M4.901,11.8c-0.059,0.001-0.119,0.002-0.18,0.001c-0.116,0-0.231-0.002-0.343-0.006
					c0.011-0.138,0.025-0.272,0.039-0.397c0.096,0.003,0.194,0.005,0.293,0.005c0.052,0,0.103,0,0.154-0.001
					C4.879,11.528,4.891,11.662,4.901,11.8 M5.49,11.773c-0.151,0.012-0.312,0.02-0.482,0.025c-0.014-0.139-0.031-0.272-0.051-0.397
					c0.145-0.004,0.283-0.011,0.413-0.021C5.418,11.508,5.458,11.64,5.49,11.773 M5.987,11.715c-0.122,0.019-0.257,0.036-0.402,0.05
					c-0.036-0.133-0.081-0.265-0.134-0.392c0.125-0.012,0.24-0.026,0.345-0.042C5.87,11.453,5.934,11.582,5.987,11.715
					 M6.368,11.632c-0.1,0.029-0.203,0.053-0.306,0.07c-0.056-0.133-0.124-0.262-0.202-0.383c0.088-0.015,0.176-0.035,0.262-0.06
					C6.216,11.375,6.298,11.5,6.368,11.632 M6.604,11.529c-0.042,0.031-0.104,0.059-0.183,0.086
					c-0.072-0.132-0.157-0.256-0.253-0.371c0.068-0.023,0.121-0.048,0.157-0.074C6.43,11.279,6.523,11.4,6.604,11.529 M6.668,11.411
					c0.009,0.034-0.005,0.067-0.039,0.098c-0.081-0.129-0.176-0.248-0.283-0.356c0.029-0.027,0.041-0.055,0.034-0.084
					C6.489,11.172,6.585,11.287,6.668,11.411 M6.651,11.376c0.003,0.004,0.006,0.009,0.009,0.014
					c-0.083-0.124-0.179-0.237-0.288-0.339c-0.007-0.013-0.017-0.024-0.028-0.034C6.513,11.187,6.516,11.191,6.651,11.376
					 M2.951,10.952c0.01-0.02,0.024-0.037,0.042-0.049c0.045-0.033,0.103-0.078,0.149-0.11c0.049-0.031,0.114-0.072,0.164-0.101
					c0.033-0.019,0.067-0.037,0.102-0.054c-0.034,0.018-0.056,0.038-0.065,0.058C3.205,10.768,3.073,10.853,2.951,10.952
					 M2.989,11.05c-0.019-0.014-0.033-0.033-0.041-0.056c-0.002-0.008-0.002-0.017-0.001-0.025c0.122-0.1,0.254-0.187,0.393-0.26
					c-0.001,0.006-0.001,0.013,0.001,0.019c0.006,0.017,0.016,0.032,0.031,0.043C3.236,10.851,3.107,10.944,2.989,11.05 M3.17,11.14
					c-0.067-0.023-0.122-0.047-0.16-0.073c0.117-0.106,0.244-0.201,0.379-0.283c0.038,0.024,0.08,0.043,0.123,0.057
					C3.389,10.929,3.275,11.03,3.17,11.14 M3.472,11.216C3.385,11.2,3.3,11.18,3.215,11.155c0.101-0.111,0.212-0.213,0.331-0.303
					c0.065,0.019,0.13,0.035,0.197,0.047C3.644,10.996,3.553,11.102,3.472,11.216 M3.87,11.273
					c-0.121-0.013-0.233-0.029-0.336-0.046c0.076-0.114,0.162-0.221,0.257-0.32c0.079,0.014,0.165,0.026,0.258,0.035
					C3.982,11.048,3.922,11.159,3.87,11.273 M4.341,11.307c-0.137-0.006-0.269-0.014-0.393-0.026c0.046-0.114,0.1-0.225,0.161-0.333
					c0.096,0.009,0.196,0.016,0.302,0.02C4.385,11.072,4.362,11.186,4.341,11.307 M4.855,11.314c-0.049,0-0.098,0.001-0.147,0.001
					c-0.096,0-0.189-0.001-0.28-0.005c0.015-0.122,0.032-0.236,0.049-0.339c0.07,0.002,0.142,0.003,0.215,0.004
					c0.038,0,0.076,0,0.113-0.001C4.824,11.078,4.841,11.192,4.855,11.314 M5.337,11.292c-0.123,0.01-0.255,0.017-0.394,0.02
					c-0.021-0.122-0.045-0.236-0.07-0.34c0.106-0.003,0.207-0.008,0.302-0.016C5.237,11.065,5.291,11.177,5.337,11.292
					 M5.743,11.245c-0.099,0.016-0.21,0.03-0.329,0.04c-0.052-0.115-0.112-0.227-0.18-0.333c0.091-0.008,0.176-0.019,0.253-0.031
					C5.582,11.022,5.667,11.13,5.743,11.245 M6.055,11.177c-0.082,0.024-0.165,0.043-0.25,0.057c-0.08-0.115-0.171-0.223-0.27-0.322
					c0.065-0.011,0.129-0.026,0.192-0.044C5.845,10.961,5.955,11.064,6.055,11.177 M6.247,11.093
					c-0.034,0.025-0.085,0.049-0.15,0.071c-0.103-0.112-0.216-0.214-0.338-0.305c0.041-0.013,0.079-0.031,0.115-0.054
					C6.007,10.888,6.132,10.984,6.247,11.093 M6.299,10.997c0.007,0.027-0.004,0.054-0.032,0.08
					c-0.116-0.107-0.243-0.203-0.378-0.285c0.021-0.02,0.03-0.04,0.025-0.062C6.051,10.806,6.18,10.895,6.299,10.997 M5.85,10.664
					c0.163,0.094,0.253,0.146,0.407,0.275c0.014,0.011,0.026,0.025,0.035,0.04c-0.118-0.1-0.247-0.188-0.383-0.262
					c-0.011-0.021-0.036-0.041-0.073-0.061C5.841,10.659,5.846,10.661,5.85,10.664 M3.99,10.427l0.076-0.016l0.064-0.012
					c-0.023,0.004-0.043,0.008-0.062,0.013C4.043,10.416,4.016,10.421,3.99,10.427 M3.527,10.581l0.013-0.006l0.052-0.022
					c0.143-0.055,0.162-0.062,0.282-0.096l0.054-0.014c0.04-0.01,0.079-0.019,0.12-0.026c-0.029,0.007-0.057,0.016-0.083,0.028
					C3.814,10.475,3.668,10.52,3.527,10.581 M3.447,10.646c0.008-0.019,0.029-0.037,0.06-0.054c0.143-0.062,0.291-0.11,0.444-0.141
					c-0.019,0.01-0.031,0.021-0.036,0.033C3.753,10.522,3.596,10.577,3.447,10.646 M3.472,10.715
					c-0.013-0.01-0.023-0.024-0.029-0.039c-0.001-0.006-0.002-0.012-0.001-0.018c0.151-0.07,0.308-0.126,0.47-0.167
					c-0.001,0.004-0.001,0.007,0,0.011c0.003,0.01,0.009,0.018,0.018,0.024C3.771,10.574,3.618,10.638,3.472,10.715 M3.601,10.779
					c-0.04-0.012-0.078-0.03-0.113-0.052c0.144-0.079,0.295-0.144,0.451-0.194c0.022,0.013,0.045,0.024,0.069,0.032
					C3.866,10.623,3.729,10.694,3.601,10.779 M3.814,10.832c-0.061-0.011-0.122-0.026-0.181-0.043
					c0.124-0.085,0.256-0.159,0.395-0.218c0.036,0.011,0.073,0.02,0.11,0.026C4.022,10.664,3.914,10.743,3.814,10.832 M4.096,10.873
					c-0.085-0.01-0.165-0.02-0.237-0.033c0.093-0.09,0.196-0.17,0.306-0.239c0.044,0.008,0.092,0.014,0.144,0.02
					C4.229,10.698,4.158,10.782,4.096,10.873 M4.428,10.897c-0.097-0.004-0.19-0.01-0.278-0.019c0.056-0.09,0.12-0.175,0.191-0.253
					c0.053,0.005,0.11,0.009,0.168,0.011C4.478,10.721,4.451,10.808,4.428,10.897 M4.792,10.902
					c-0.034,0.001-0.069,0.001-0.104,0.001c-0.067,0-0.134-0.001-0.198-0.003c0.018-0.099,0.037-0.187,0.057-0.262
					c0.039,0.001,0.079,0.002,0.12,0.002c0.021,0,0.042,0,0.063,0C4.753,10.714,4.773,10.803,4.792,10.902 M5.133,10.886
					c-0.087,0.007-0.181,0.012-0.278,0.014c-0.024-0.089-0.052-0.177-0.087-0.262c0.059-0.001,0.116-0.004,0.169-0.009
					C5.011,10.708,5.076,10.794,5.133,10.886 M5.42,10.853c-0.07,0.011-0.148,0.021-0.232,0.029
					c-0.064-0.092-0.137-0.177-0.218-0.255c0.051-0.005,0.098-0.011,0.141-0.017C5.222,10.68,5.325,10.761,5.42,10.853 M5.64,10.805
					c-0.058,0.017-0.117,0.03-0.176,0.04c-0.1-0.091-0.21-0.171-0.326-0.24c0.036-0.006,0.072-0.014,0.107-0.025
					C5.383,10.642,5.516,10.718,5.64,10.805 M5.776,10.746c-0.033,0.022-0.068,0.039-0.106,0.05
					c-0.128-0.087-0.265-0.161-0.408-0.221c0.023-0.007,0.044-0.017,0.064-0.03C5.483,10.597,5.633,10.665,5.776,10.746
					 M5.812,10.678c0.005,0.019-0.003,0.038-0.023,0.056c-0.145-0.08-0.297-0.146-0.455-0.197c0.012-0.011,0.017-0.022,0.014-0.034
					C5.509,10.547,5.664,10.605,5.812,10.678 M5.74,10.61c0.034,0.018,0.057,0.036,0.067,0.056c-0.148-0.071-0.302-0.128-0.461-0.17
					c-0.01-0.015-0.024-0.026-0.04-0.033C5.456,10.496,5.601,10.545,5.74,10.61 M5.298,10.448c0.05,0.015,0.117,0.034,0.166,0.05
					c0.161,0.059,0.167,0.061,0.254,0.101c-0.137-0.063-0.279-0.111-0.426-0.143c-0.028-0.012-0.057-0.022-0.087-0.029
					C5.236,10.432,5.267,10.439,5.298,10.448 M5.234,10.431c-0.017-0.004-0.034-0.008-0.052-0.011
					c-0.015-0.003-0.031-0.007-0.048-0.01C5.164,10.416,5.204,10.424,5.234,10.431 M4.462,10.361
					c0.017-0.001,0.039-0.002,0.056-0.002c0.024,0,0.057-0.001,0.082-0.001c0.01,0,0.018,0.012,0.028,0.037
					c-0.007,0-0.013,0-0.02,0.001C4.563,10.371,4.513,10.359,4.462,10.361 M4.288,10.376c0.014-0.002,0.029-0.003,0.044-0.005
					c0.029-0.002,0.067-0.006,0.096-0.008h0.004c0.059-0.003,0.118,0.008,0.172,0.032c-0.006,0-0.012,0.001-0.017,0.002
					C4.488,10.373,4.388,10.367,4.288,10.376 M4.161,10.397c0.03-0.007,0.064-0.013,0.102-0.018c0.107-0.011,0.215-0.004,0.32,0.018
					c-0.005,0.001-0.01,0.002-0.014,0.002C4.433,10.382,4.297,10.381,4.161,10.397 M4.073,10.425c0.023-0.01,0.046-0.018,0.07-0.023
					c0.141-0.017,0.283-0.018,0.424-0.002c-0.003,0.001-0.006,0.002-0.01,0.003C4.395,10.394,4.233,10.401,4.073,10.425
					 M4.031,10.458c0.007-0.012,0.018-0.022,0.031-0.027c0.163-0.025,0.329-0.034,0.494-0.027c-0.002,0.001-0.003,0.002-0.004,0.004
					C4.377,10.408,4.203,10.425,4.031,10.458 M4.044,10.493c-0.007-0.005-0.012-0.012-0.014-0.02c-0.001-0.003-0.001-0.006,0-0.01
					c0.172-0.035,0.346-0.053,0.521-0.055c0,0,0,0.001,0,0.001c0,0.001,0.001,0.002,0.002,0.003
					C4.382,10.423,4.211,10.45,4.044,10.493 M4.11,10.525c-0.02-0.006-0.039-0.015-0.057-0.026c0.164-0.045,0.332-0.074,0.501-0.086
					c0.002,0.002,0.005,0.003,0.008,0.004C4.408,10.437,4.257,10.474,4.11,10.525 M4.218,10.553
					c-0.031-0.006-0.062-0.013-0.092-0.022c0.142-0.053,0.288-0.091,0.438-0.113c0.003,0.001,0.008,0.002,0.012,0.003
					C4.452,10.45,4.332,10.494,4.218,10.553 M4.361,10.573c-0.043-0.005-0.084-0.01-0.12-0.017c0.107-0.059,0.22-0.105,0.339-0.136
					c0.005,0.001,0.01,0.001,0.016,0.002C4.511,10.461,4.431,10.512,4.361,10.573 M4.53,10.586c-0.049-0.002-0.096-0.005-0.141-0.01
					c0.062-0.061,0.133-0.113,0.211-0.152c0.006,0,0.012,0.001,0.019,0.001C4.588,10.464,4.559,10.518,4.53,10.586 M4.715,10.588
					c-0.017,0-0.035,0-0.053,0c-0.034,0-0.068,0-0.1-0.002c0.015-0.056,0.036-0.11,0.062-0.162c0.004,0,0.009,0,0.013,0h0.007
					c0.03,0.051,0.054,0.106,0.071,0.162 M4.887,10.579c-0.044,0.003-0.091,0.006-0.141,0.007c-0.031-0.067-0.064-0.123-0.098-0.161
					c0.006,0,0.013,0,0.019-0.001C4.748,10.465,4.822,10.517,4.887,10.579 M5.033,10.563c-0.036,0.006-0.075,0.011-0.118,0.015
					c-0.074-0.063-0.156-0.115-0.245-0.154c0.005,0,0.011-0.001,0.016-0.002C4.807,10.455,4.924,10.502,5.033,10.563 M5.144,10.539
					c-0.029,0.009-0.059,0.015-0.089,0.021c-0.116-0.06-0.239-0.107-0.366-0.138c0.004-0.001,0.008-0.002,0.012-0.003
					C4.853,10.443,5.001,10.483,5.144,10.539 M5.214,10.509c-0.017,0.011-0.035,0.019-0.054,0.025
					c-0.148-0.054-0.301-0.093-0.456-0.116c0.002-0.001,0.005-0.002,0.007-0.003C4.881,10.43,5.049,10.461,5.214,10.509
					 M5.233,10.474c0.002,0.011-0.002,0.022-0.011,0.029c-0.166-0.046-0.337-0.076-0.509-0.089c0.001-0.001,0.002-0.002,0.001-0.004
					C4.888,10.415,5.062,10.436,5.233,10.474 M5.196,10.439c0.014,0.006,0.025,0.016,0.034,0.029
					c-0.17-0.036-0.343-0.056-0.517-0.059c0-0.001-0.002-0.003-0.004-0.004C4.872,10.4,5.035,10.412,5.196,10.439 M5.111,10.41
					c0.025,0.006,0.049,0.014,0.073,0.025c-0.158-0.026-0.318-0.036-0.478-0.03c-0.003-0.001-0.006-0.002-0.01-0.003
					C4.835,10.387,4.974,10.39,5.111,10.41 M4.987,10.385c0.038,0.006,0.074,0.013,0.105,0.02c-0.132-0.018-0.266-0.019-0.398-0.004
					c-0.005-0.001-0.009-0.002-0.014-0.003C4.781,10.377,4.885,10.373,4.987,10.385 M4.817,10.366l0.052,0.004
					c0.019,0.002,0.043,0.004,0.062,0.007c0.011,0.002,0.021,0.003,0.031,0.004c-0.095-0.011-0.192-0.006-0.285,0.016
					c-0.005-0.001-0.011-0.001-0.018-0.002C4.709,10.373,4.763,10.362,4.817,10.366 M4.787,10.364
					c-0.049-0.003-0.101,0.011-0.155,0.045c-0.01-0.034-0.018-0.051-0.027-0.051c-0.052,0-0.064,0-0.087,0.001
					c-0.056,0.002-0.056,0.002-0.091,0.004c-0.063,0.005-0.063,0.005-0.1,0.008c-0.075,0.009-0.077,0.009-0.116,0.014
					C4.123,10.4,4.117,10.4,4.067,10.411c-0.113,0.024-0.122,0.027-0.193,0.046c-0.139,0.042-0.165,0.05-0.282,0.096
					c-0.159,0.07-0.263,0.117-0.449,0.239c-0.284,0.207-0.437,0.347-0.646,0.677c-0.139,0.26-0.231,0.462-0.251,0.88
					c0.006,0.193,0.008,0.245,0.058,0.472c0.059,0.187,0.181,0.575,0.596,0.948c0.201,0.168,0.263,0.213,0.519,0.35
					c0.148,0.069,0.175,0.082,0.324,0.134c0.125,0.039,0.132,0.042,0.214,0.062c0.101,0.023,0.101,0.023,0.155,0.033
					c0.081,0.014,0.081,0.014,0.123,0.019c0.068,0.009,0.068,0.009,0.103,0.012c0.061,0.006,0.061,0.006,0.092,0.007
					c0.047,0.002,0.047,0.002,0.086,0.004c0.057,0.001,0.057,0.001,0.086,0.001c0.052,0,0.065-0.001,0.087-0.001
					c0.055-0.002,0.055-0.002,0.091-0.004c0.064-0.005,0.064-0.005,0.1-0.008c0.074-0.008,0.076-0.009,0.116-0.014
					c0.088-0.014,0.094-0.015,0.144-0.025c0.113-0.025,0.122-0.026,0.193-0.046c0.14-0.043,0.165-0.05,0.282-0.097
					c0.159-0.07,0.263-0.117,0.449-0.239c0.284-0.207,0.437-0.347,0.646-0.677c0.139-0.26,0.231-0.462,0.251-0.88
					c-0.006-0.193-0.008-0.245-0.057-0.472c-0.059-0.187-0.181-0.577-0.596-0.948c-0.201-0.168-0.263-0.213-0.519-0.351
					c-0.148-0.069-0.175-0.081-0.324-0.134c-0.126-0.039-0.133-0.042-0.215-0.062c-0.101-0.023-0.101-0.023-0.155-0.033
					c-0.081-0.014-0.081-0.014-0.123-0.019c-0.069-0.009-0.069-0.009-0.103-0.012C4.844,10.369,4.812,10.366,4.787,10.364"/>
			</g>
		</g>
	</g>
	<g transform="matrix(1, 0, 0, 1, 0, 0)">
		
			<linearGradient id="SVGID_6_" gradientUnits="userSpaceOnUse" x1="4.3051" y1="26.0098" x2="2.6609" y2="28.0553" gradientTransform="matrix(1 0 0 -1 0 38.4339)">
			<stop  offset="0" style="stop-color:#FFFFFF"/>
			<stop  offset="1" style="stop-color:#FFFFFF"/>
		</linearGradient>
		<path class="st33" d="M3.735,12.112l0.213,0.358c-0.42,0.252-0.871,0.273-1.099,0.022c-0.281-0.309-0.117-0.914,0.366-1.352
			c0.193-0.175,0.408-0.296,0.615-0.359c-0.415,0.287-0.601,0.706-0.62,1.079c-0.02,0.384,0.169,0.65,0.169,0.65L3.735,12.112z
			 M4.596,10.907c-0.076-0.083-0.176-0.136-0.292-0.161c-0.103,0.054-0.197,0.123-0.28,0.204c-0.411,0.407-0.35,0.879-0.35,0.879
			l0.888,0.025C4.769,11.501,4.796,11.129,4.596,10.907z"/>
	</g>
	<path class="st34" d="M6.249,10.941c0.781,0.696,0.94,1.817,0.318,2.68c-0.71,0.985-2.167,1.263-3.254,0.62
		c-0.631-0.372-0.999-0.974-1.058-1.605c-0.029,0.76,0.368,1.515,1.123,1.962c1.147,0.678,2.683,0.385,3.431-0.654
		C7.521,12.956,7.263,11.65,6.249,10.941z"/>
	<g>
		<defs>
			<path id="SVGID_7_" d="M4.607,10.376c-0.749,0-1.483,0.332-1.923,0.942c-0.692,0.961-0.393,2.248,0.668,2.874
				c0.379,0.222,0.811,0.339,1.251,0.338c0.749,0,1.483-0.332,1.923-0.942c0.692-0.961,0.393-2.247-0.668-2.874
				C5.479,10.491,5.047,10.375,4.607,10.376"/>
		</defs>
		<clipPath id="SVGID_8_">
			<use xlink:href="#SVGID_7_"  style="overflow:visible;"/>
		</clipPath>
	</g>
</g>
</svg>
