<?xml version="1.0" encoding="utf-8"?>
<!-- Generator: Adobe Illustrator 23.0.4, SVG Export Plug-In . SVG Version: 6.00 Build 0)  -->
<svg version="1.1" id="Layer_1" xmlns="http://www.w3.org/2000/svg" xmlns:xlink="http://www.w3.org/1999/xlink" x="0px" y="0px"
	 viewBox="0 0 500 500" style="enable-background:new 0 0 500 500;" xml:space="preserve">
<g>
	<path d="M486.265,179.11c-0.68,0.304-1.269,0.566-2.044,0.911c-0.218-0.549-0.508-1.017-0.582-1.517
		c-0.16-1.092-0.174-2.204-0.315-3.299c-0.34-2.642-0.747-5.249-2.486-7.453c-0.538-0.683-3.588,0.458-4.594,0.986
		c-0.255-0.199-4.09,0.052-3.979,0.899c0.085,0.648-1.573,5.643-1.491,6.207c0.355,2.411,0.352,4.794-0.139,7.172
		c-0.415,2.011-0.946,3.954-3.515,4.173c-0.158,0.013-0.307,0.144-0.499,0.24c0.184,0.389,0.304,0.66,0.44,0.925
		c0.761,1.494,0.725,1.583-0.977,1.856c-4.259,0.682-8.538,1.249-12.774,2.05c-5.537,1.047-8.44,5.557-7.33,11.102
		c0.048,0.24,0.098,0.479,0.148,0.722c-0.692,0.392-1.462,0.636-1.955,1.146c-1.144,1.185-2.564,1.419-4.082,1.607
		c-2.612,0.322-5.212,0.75-8.158,1.185c0.402,1.743,0.725,3.137,1.149,4.97c-1.539,1.356-3.315,3.136-5.309,4.625
		c-2.286,1.706-4.736,3.202-7.169,4.698c-1.5,0.922-2.791,2.512-4.996,1.468c-0.724-0.343-1.784,0.073-2.685,0.038
		c-0.455-0.018-1.118-0.144-1.291-0.447c-0.172-0.301,0.088-0.915,0.28-1.337c0.247-0.543,0.768-0.994,0.902-1.55
		c0.664-2.742,1.95-5.119,3.992-7.21c-0.477-1-1.007-2.017-1.45-3.07c-0.463-1.099-0.764-2.274-1.306-3.327
		c-0.179-0.348-0.986-0.702-1.336-0.577c-1.578,0.563-3.569,0.727-3.712,3.076c-0.015,0.235-0.292,0.455-0.448,0.683
		c-0.162-0.047-0.325-0.095-0.487-0.142c0.109-0.7,0.017-1.524,0.358-2.081c1.647-2.684,1.464-5.539,0.947-8.427
		c-0.087-0.486-0.482-1.092-0.907-1.311c-2.008-1.033-4.075-1.949-6.135-2.913c0.713-0.911-4.249-7.036-5.609-6.68
		c-1.774,0.465-3.498,1.17-5.184,1.906c-1.36,0.593-8.589-1.584-9.04-1.691c0.196-0.584-0.905-3.005-1.898-2.222
		c-1.69,1.332-14.099,4.195-16.018,4.577c-0.079-0.172-2.793-12.459-2.476-12.928c-1.947,0-3.737,0-5.516,0
		c-0.021,0.452-0.04,0.822-0.059,1.225c-3.129-0.43-6.897-3.451-8.703-3.423c-3.12,0.049-6.246,0.358-9.356,0.235
		c-9.097-0.363-18.2-0.73-27.279-1.388c-9.12-0.662-18.229-1.542-27.317-2.57c-12.832-1.45-25.435-4.263-38.009-7.096
		c-7.964-1.794-25.638-6.608-26.498-6.304c-0.335,0.118-0.132,1.391-0.458,1.983c-0.5,0.905-10.588,8.582-10.534,9.112
		c0.051,0.496-0.178,4.168-0.307,5.503c-0.14,0.576-2.591,5.828-3.502,7.052c-0.85,1.142-0.822,2.402-0.843,3.798
		c-0.017,1.203-2.523,6.487-3.94,7.345c0.144,0.361-2.111,8.967-2.168,10.06c-0.023,0.426-0.328,4.299-0.95,5.3
		c-0.902,1.45-1.947,2.852-2.578,4.417c-0.44,1.087-0.821,2.753-0.301,3.568c1.591,2.49,0.941,5.027,0.855,7.591
		c-0.028,0.843-0.103,1.735,0.12,2.526c0.719,2.553,2.184,11.548,3.438,13.18c1.484,1.931,1.524,3.147,0.298,5.147
		c-0.179,0.291-0.101,0.852,0.045,1.211c1.107,2.743,2.133,5.533,3.44,8.18c1.104,2.235,6.669,8.935,7.533,11.028
		c0.202,0.49,0.768,1.069,1.251,1.16c1.495,0.283,7.602,7.178,7.813,7.761c0.301,0.829,12.292,7.844,15.226,6.563
		c-0.495,1.927,0.306,2.946,1.7,3.874c4.724,3.149,9.346,6.452,14.053,9.626c0.795,0.536,1.798,0.919,2.748,1.041
		c3.888,0.502,18.165,0.665,18.315-0.001c2.736,0.194,5.388,0.402,8.042,0.562c1.769,0.107,22.718,18.949,22.908,18.17
		c0.42-1.72,17.978,12.099,18.584,13.257c1.2,2.295,2.168,4.723,3.101,7.146c1.015,2.64,2.975,4.363,5.487,5.215
		c2.571,0.871,5.319,1.223,7.897,1.781c-0.155-1.695-0.476-8.97-0.697-9.546c-0.205-0.534,3.538-7.423,3.878-7.499
		c0.442-0.098,1.691-2.563,1.416-2.97c0.744,0,11.468-5.043,10.691-7.433c-0.033-0.1,1.883,1.402,4.03,0.351
		c1.329-0.651,2.803-1.016,4.227-1.458c0.237-0.074,0.595,0.049,0.827,0.193c2.364,1.458,4.909,1.555,7.56,1.13
		c1.224-0.196,2.47-0.245,3.559-0.347c0.324,0.595,0.445,1.197,0.795,1.395c1.555,0.885,3.176,1.655,4.772,2.467
		c0.78-2.122,3.001-1.562,4.464-1.904c1.597-0.373,3.526,0.477,4.581,2.678c0.722-1.121,1.225-1.903,1.659-2.578
		c-1.369-1.025-2.511-1.88-3.645-2.729c1.711-2.807,1.711-2.807,1.538-3.963c-0.884,0.556,7.407-4.3,7.587-5.004
		c0.154,0.015,0.307,0.03,0.461,0.045c0.083,0.649,1.51,1.985,2.075,1.985c0.593,1.247,6.928-0.56,8.163,0.221
		c2.116,1.337,4.309,2.186,6.84,2.473c2.215,0.252,3.952,0.042,5.027-2.112c0.038-0.076,0.163-0.109,0.612-0.388
		c2.913,1.623,5.946,3.469,9.121,5.03c2.223,1.092,2.387,8.376,2.387,10.1c0.104,0.011,2.874,5.771,5.36,5.726
		c0.482,1.132,1.177,2.161,1.311,3.256c0.124,1.014,0.633,1.383,1.299,1.957c1.689,1.455,3.294,3.02,4.811,4.656
		c0.798,0.861,1.631,1.816,2.764,1.336c1.107-0.469,2.27-1.306,2.885-2.303c0.68-1.102,0.935-2.552,1.074-3.882
		c0.324-3.127,0.731-6.285-1.598-9.007c-1.005-1.174-1.844-2.526-2.572-3.896c-2.774-5.22-5.606-10.417-8.141-15.753
		c-1.108-2.332-2.345-4.84-1.641-7.611c0.313-1.231,3.366-5.77,4.605-6.637c-0.361-0.738,0.755-3.134,0.77-3.426
		c0.068-1.366,2.774-2.176,2.905-2.529c0.4-1.082,2.508-2.812,2.546-3.109c0.274-2.147,6.261-8.702,6.732-9.72
		c0.829-1.79,1.872-3.315,4.199-3.607c1.277-0.16,2.459-1.072,3.744-1.675c-0.443-0.782-4.893-16.119-6.343-16.523
		c1.229-0.546,1.991-0.883,3.16-1.402c-0.961-0.819-1.256-2.195-1.042-2.227l0,0c-0.078-0.396-0.157-0.793-0.235-1.188
		c-0.078-0.394,0.091-3.701,0.363-3.407c0.768,0.829,1.692,6.093,1.578,7.716c0.775-0.526,1.429-1.13,1.703-1.872
		c0.889-2.415,1.59-4.9,2.465-7.321c0.4-1.108,1.037-2.13,1.553-3.165c-3.216-0.124-4.52-1.052-4.207-2.74
		c1.015-0.17,2.381-0.001,2.779-0.543c1.139-1.547,2.231-3.299,2.678-5.133c0.369-1.519,1.254-3.59-0.979-4.797
		c-0.155-0.084-0.157-0.625-0.091-0.922c1.021-4.543,4.67-7.296,9.34-7.381c2.311-0.042,9.993-5.467,9.554-6.27
		c-0.312-0.572-1.506-0.999-1.489-0.82c0.044,0.445-4.816-3.365-4.703-6.455c0.121-3.304,1.816-5.737,3.966-8.025
		c1.29-1.373,3.404-2.362,2.38-5.033c1.693,0.534,2.687-0.086,3.694-0.975c0.786-0.694,1.756-1.211,2.709-1.673
		c0.755-0.366,1.61-0.527,2.422-0.78c0.04-0.17,0.08-0.341,0.121-0.511C489.002,183.011,486.844,181.721,486.265,179.11z"/>
</g>
</svg>
