<?xml version="1.0" encoding="utf-8"?>
<!-- Generator: Adobe Illustrator 24.1.3, SVG Export Plug-In . SVG Version: 6.00 Build 0)  -->
<svg version="1.1" id="Layer_1" xmlns="http://www.w3.org/2000/svg" xmlns:xlink="http://www.w3.org/1999/xlink" x="0px" y="0px"
	 viewBox="0 0 261 81" style="enable-background:new 0 0 261 81;" xml:space="preserve">
<style type="text/css">
	.st0{opacity:0.3;fill:#775D15;enable-background:new    ;}
	.st1{fill:#FFFFFF;}
	.st2{fill:#A1D44F;}
	.st3{fill:#FFE659;}
	.st4{fill:#5C9BF3;}
	.st5{opacity:0.1;fill:#231F20;enable-background:new    ;}
	.st6{fill:#577FBF;}
	.st7{fill:#DA3335;}
	.st8{fill:#F2C117;}
	.st9{fill:#43B553;}
	.st10{fill:#231F20;}
	.st11{fill:#706D6E;}
	.st12{fill:#EF5323;}
	.st13{fill:#82C341;}
	.st14{fill:#2CA9E1;}
	.st15{fill:#F8BB15;}
	.st16{opacity:0.3;}
	.st17{fill:#775D15;}
	.st18{fill:#39BC98;}
	.st19{fill:#4ACFAB;}
	.st20{fill:#F6BC10;}
	.st21{opacity:0.3;fill:#775D15;}
	.st22{fill:#DB4651;}
	.st23{fill:#FFF8F9;}
	.st24{opacity:0.1;}
	.st25{fill:#5B2323;}
	.st26{fill:#A51E2E;}
	.st27{fill:#281A1C;}
</style>
<g>
	
		<ellipse transform="matrix(0.6143 -0.7891 0.7891 0.6143 29.6616 171.3486)" class="st0" cx="190.101" cy="55.334" rx="20.963" ry="18.54"/>
	<ellipse class="st1" cx="194.805" cy="42.563" rx="20.962" ry="20.962"/>
	<path class="st2" d="M189.797,35.541l-2.997-1.788c-9.994,6.963-10.702,17.981-10.716,18.225
		c2.388,4.742,6.562,8.588,11.988,10.427c3.098,1.05,6.266,1.31,9.308,0.929C185.53,52.166,189.797,35.541,189.797,35.541z"/>
	<path class="st3" d="M212.673,31.617c-8.405-4.623-17.763-1.549-17.763-1.549l-0.818,4.44
		c16.994,6.696,15.112,23.079,15.087,23.287c2.416-2.275,4.331-5.153,5.47-8.516C216.725,43.153,215.802,36.736,212.673,31.617z"/>
	<path class="st4" d="M187.023,30.055l5.794-2.669l3.08-5.749c-6.11-0.324-12.016,2.063-16.193,6.399
		C183.216,28.391,187.023,30.055,187.023,30.055z"/>
	<path class="st1" d="M195.498,30.582c0.614,2.238-0.937,4.614-3.464,5.308c-2.527,0.694-5.074-0.559-5.688-2.796
		c-0.614-2.238,0.937-4.615,3.464-5.308C192.337,27.092,194.884,28.344,195.498,30.582z"/>
	<path class="st5" d="M195.27,58.755c-10.964-3.715-16.841-15.615-13.125-26.579c1.364-4.026,3.839-7.358,6.959-9.789
		c-6.414,1.817-11.858,6.649-14.159,13.44c-3.715,10.964,2.161,22.863,13.125,26.579c6.937,2.351,14.244,0.853,19.62-3.336
		C203.749,60.186,199.443,60.168,195.27,58.755z"/>
</g>
<g>
	<path class="st6" d="M231.759,22.247c0-0.812-0.07-1.606-0.203-2.375h-11.965v4.974l6.976,0.01
		c-0.456,1.612-1.385,2.952-2.672,3.852l3.908,3.013C230.27,29.398,231.759,26.014,231.759,22.247z"/>
	<path class="st7" d="M219.751,14.63c1.911,0,3.539,0.722,4.757,1.9l3.542-3.519c-2.141-2.136-5.074-3.445-8.437-3.445
		c-5.011,0-9.343,2.907-11.402,7.127l4.2,3.13C213.425,16.772,216.327,14.63,219.751,14.63z"/>
	<path class="st8" d="M208.293,27.963l4.114-3.337c-0.248-0.757-0.383-1.564-0.383-2.404c0-0.843,0.137-1.649,0.387-2.4l-4.2-3.13
		c-0.818,1.677-1.278,3.561-1.278,5.553C206.933,24.303,207.424,26.247,208.293,27.963z"/>
	<path class="st9" d="M212.407,24.627l-4.114,3.337c2.09,4.13,6.374,6.962,11.32,6.962c3.235,0,6.072-1.212,8.19-3.206l-3.908-3.013
		c-1.131,0.791-2.538,1.243-4.144,1.243C216.323,29.949,213.418,27.717,212.407,24.627z"/>
</g>
<g id="XMLID_128_">
	<g id="XMLID_241_">
		<path id="XMLID_242_" class="st10" d="M164.06,34.736c0,0.702-0.564,1.258-1.281,1.258c-0.717,0-1.289-0.556-1.289-1.258
			c0-0.701,0.572-1.25,1.296-1.25C163.496,33.486,164.06,34.035,164.06,34.736z M161.811,34.736c0,0.557,0.42,0.999,0.976,0.999
			c0.541,0.007,0.953-0.442,0.953-0.992c0-0.556-0.412-1.006-0.968-1.006C162.231,33.738,161.811,34.188,161.811,34.736z
			 M162.581,35.384h-0.29v-1.25c0.115-0.016,0.275-0.038,0.481-0.038c0.236,0,0.343,0.038,0.426,0.099
			c0.077,0.054,0.129,0.145,0.129,0.267c0,0.152-0.114,0.251-0.259,0.297v0.015c0.122,0.039,0.183,0.137,0.221,0.305
			c0.038,0.19,0.069,0.259,0.092,0.305h-0.306c-0.038-0.046-0.061-0.152-0.099-0.305c-0.023-0.13-0.099-0.191-0.259-0.191h-0.137
			v0.496C162.58,35.383,162.581,35.383,162.581,35.384z M162.589,34.682h0.138c0.16,0,0.289-0.053,0.289-0.182
			c0-0.114-0.084-0.19-0.267-0.19c-0.076,0-0.129,0.007-0.16,0.015V34.682z"/>
	</g>
	<g id="XMLID_129_">
		<g id="XMLID_133_">
			<g>
				<path class="st10" d="M154.752,24.313c-2.368-0.823-5.068-0.572-7.219,0.092l1.175,7.694l-5.057-8.241l-5.024,9.974
					c-1.357-4.76-2.079-9.88-2.079-9.88l-4.309,7.186l-4.779-7.599l-0.805,7.751c-0.031-0.082-0.052-0.127-0.052-0.127l-0.002-0.023
					c-0.047-0.099-0.116-0.229-0.154-0.289c-0.691-1.251-3.019-1.991-4.663-2.552c-4.169-1.427-2.896-2.895-0.637-3.244
					c1.578-0.246,3.367,0.037,4.49,0.739l0.577-1.683c-3.152-1.658-10.154-1.195-9.02,3.162c0.656,2.519,5.966,2.878,7.221,4.351
					c0.104,0.124,0.249,0.299,0.318,0.458c0.094,0.217,0.125,0.466,0.026,0.78c-0.015,0.047-0.037,0.199-0.068,0.26
					c-0.045,0.09-0.095,0.179-0.132,0.226c-0.803,1.016-2.418,1.056-3.896,0.875c-1.695-0.207-3.21-1.042-3.297-1.238l-0.712,1.791
					c2.679,1.447,7.763,2.302,9.66-0.363c0.008-0.011,0.013-0.018,0.019-0.029l-0.178,1.713l2.013-0.034l0.622-7.02l3.539,5.591
					l3.304-5.591c0,0,0.351,1.449,0.99,4.108c0.539,2.246,0.878,3.098,0.878,3.098l1.733-0.135l1.714-3.45h6.12l2.288,3.448
					l1.893-0.003l-1.016-6.018c1.259,1.75,4.736,4.06,7.471,5.021l-0.183,1.042L159.5,36.2l1.74-10.274l4.187,0.046l0.652-1.682
					L154.752,24.313z M141.784,30.981l2.016-4.056l2.155,4.056H141.784z M149.878,27.849l-0.355-2.276
					c1.202-0.721,5.08-0.286,4.646,0.915C153.734,27.689,149.958,28.203,149.878,27.849z M158.012,33.488
					c-2.391-0.847-6.063-3.603-6.2-4.175c1.35-0.102,4.233-0.869,3.924-3.34l3.444,0.022L158.012,33.488z"/>
			</g>
		</g>
		<path id="XMLID_132_" class="st10" d="M131.129,28.613"/>
		<path id="XMLID_131_" class="st10" d="M131.129,28.613"/>
		<path id="XMLID_130_" class="st10" d="M132.646,31.14"/>
	</g>
</g>
<g>
	<path class="st11" d="M71.121,17.472l-0.001-1.044l-1.296,0.001l-0.001-1.623l-0.044,0.013l-1.217,0.374L68.538,15.2l0.001,1.23
		l-1.922,0.002l-0.001-0.685c0-0.319,0.071-0.563,0.211-0.726c0.139-0.161,0.339-0.243,0.594-0.243c0.183,0,0.373,0.043,0.563,0.128
		l0.048,0.021l-0.001-1.099l-0.023-0.008c-0.178-0.064-0.42-0.096-0.72-0.096c-0.378,0-0.722,0.083-1.021,0.246
		c-0.3,0.164-0.535,0.397-0.7,0.693c-0.164,0.296-0.248,0.638-0.247,1.017l0.001,0.753l-0.903,0.001l0.001,1.044l0.903-0.001
		l0.004,4.398l1.296-0.001l-0.004-4.398l1.922-0.002l0.002,2.795c0.001,1.151,0.544,1.734,1.615,1.733
		c0.176,0,0.361-0.021,0.55-0.061c0.192-0.042,0.324-0.083,0.401-0.127l0.017-0.01l-0.001-1.054l-0.053,0.035
		c-0.07,0.047-0.158,0.085-0.26,0.114c-0.103,0.029-0.189,0.044-0.256,0.044c-0.251,0-0.436-0.067-0.552-0.201
		c-0.117-0.135-0.176-0.37-0.176-0.699l-0.002-2.569L71.121,17.472L71.121,17.472z M61.528,20.95c-0.47,0-0.841-0.155-1.103-0.462
		c-0.263-0.309-0.397-0.749-0.397-1.308c0-0.577,0.132-1.029,0.395-1.343c0.261-0.312,0.628-0.471,1.091-0.471
		c0.449,0,0.807,0.151,1.064,0.449c0.258,0.3,0.389,0.748,0.389,1.332c0,0.591-0.122,1.045-0.364,1.349
		C62.363,20.796,62.001,20.949,61.528,20.95 M61.582,16.305c-0.897,0.001-1.61,0.264-2.118,0.783
		c-0.507,0.519-0.764,1.237-0.764,2.134c0.001,0.852,0.253,1.537,0.749,2.036c0.496,0.499,1.171,0.752,2.006,0.751
		c0.87-0.001,1.568-0.268,2.076-0.794c0.507-0.526,0.764-1.237,0.763-2.113c-0.001-0.865-0.243-1.556-0.72-2.051
		C63.098,16.555,62.427,16.304,61.582,16.305 M56.609,16.309c-0.61,0.001-1.115,0.157-1.501,0.465
		c-0.388,0.31-0.584,0.716-0.584,1.208c0,0.255,0.043,0.482,0.127,0.675c0.084,0.193,0.215,0.363,0.388,0.506
		c0.172,0.141,0.437,0.289,0.788,0.44c0.295,0.121,0.515,0.224,0.655,0.305c0.137,0.079,0.234,0.159,0.289,0.237
		c0.053,0.076,0.08,0.18,0.08,0.308c0,0.366-0.273,0.544-0.837,0.544c-0.209,0-0.447-0.043-0.709-0.129
		c-0.259-0.085-0.504-0.208-0.726-0.367l-0.053-0.04l0.001,1.248l0.02,0.009c0.183,0.084,0.415,0.156,0.687,0.212
		s0.519,0.084,0.734,0.084c0.662-0.001,1.196-0.158,1.585-0.468c0.391-0.312,0.59-0.728,0.589-1.237
		c0-0.367-0.107-0.681-0.318-0.935c-0.209-0.251-0.573-0.482-1.079-0.686c-0.404-0.162-0.662-0.296-0.769-0.399
		c-0.103-0.1-0.155-0.241-0.155-0.419c0-0.158,0.064-0.285,0.196-0.388c0.133-0.103,0.319-0.156,0.551-0.156
		c0.216,0,0.437,0.034,0.657,0.1c0.22,0.067,0.412,0.156,0.574,0.265l0.053,0.036l-0.001-1.183l-0.02-0.009
		c-0.149-0.064-0.344-0.118-0.582-0.162C57.01,16.331,56.795,16.309,56.609,16.309 M51.148,20.958c-0.47,0-0.841-0.155-1.103-0.462
		c-0.263-0.309-0.397-0.749-0.397-1.308c0-0.577,0.132-1.029,0.395-1.343c0.261-0.312,0.628-0.471,1.091-0.471
		c0.449,0,0.807,0.151,1.063,0.449c0.258,0.3,0.389,0.748,0.389,1.332c0,0.591-0.122,1.045-0.364,1.349
		C51.983,20.805,51.622,20.958,51.148,20.958 M51.202,16.314c-0.898,0.001-1.61,0.264-2.118,0.783
		c-0.507,0.519-0.764,1.237-0.764,2.134c0.001,0.852,0.253,1.537,0.749,2.036c0.496,0.499,1.171,0.752,2.006,0.751
		c0.87-0.001,1.568-0.268,2.076-0.794c0.507-0.526,0.764-1.237,0.763-2.113c-0.001-0.865-0.243-1.556-0.72-2.051
		C52.718,16.564,52.047,16.313,51.202,16.314 M46.352,17.391l-0.001-0.942l-1.28,0.001l0.004,5.442l1.28-0.001l-0.002-2.784
		c0-0.473,0.107-0.862,0.318-1.156c0.209-0.29,0.487-0.438,0.828-0.438c0.115,0,0.245,0.019,0.385,0.056
		c0.139,0.037,0.239,0.078,0.299,0.12l0.054,0.039l-0.001-1.291l-0.021-0.009c-0.119-0.051-0.288-0.076-0.501-0.076
		c-0.322,0-0.609,0.104-0.856,0.308c-0.216,0.179-0.372,0.424-0.492,0.73L46.352,17.391z M42.779,16.321
		c-0.587,0-1.111,0.127-1.556,0.375c-0.446,0.249-0.791,0.605-1.026,1.057c-0.234,0.451-0.352,0.977-0.351,1.564
		c0,0.514,0.116,0.986,0.344,1.402s0.551,0.742,0.959,0.968c0.408,0.225,0.878,0.339,1.4,0.339c0.608-0.001,1.128-0.123,1.544-0.363
		l0.017-0.01l-0.001-1.173l-0.054,0.039c-0.189,0.138-0.399,0.247-0.626,0.327c-0.226,0.079-0.432,0.119-0.613,0.119
		c-0.502,0-0.906-0.156-1.199-0.466c-0.294-0.31-0.443-0.746-0.443-1.294c0-0.552,0.154-0.999,0.46-1.329
		c0.304-0.329,0.708-0.496,1.2-0.496c0.421,0,0.831,0.142,1.219,0.423l0.054,0.039l-0.001-1.236l-0.017-0.01
		c-0.146-0.082-0.345-0.149-0.592-0.2C43.248,16.346,43.008,16.32,42.779,16.321 M38.962,16.455l-1.28,0.001l0.004,5.442l1.28-0.001
		L38.962,16.455L38.962,16.455z M38.333,14.137c-0.211,0-0.394,0.072-0.545,0.214c-0.151,0.143-0.228,0.322-0.228,0.534
		c0,0.208,0.076,0.385,0.227,0.523c0.149,0.138,0.334,0.208,0.548,0.208s0.399-0.07,0.55-0.209c0.152-0.139,0.229-0.315,0.229-0.524
		c0-0.204-0.075-0.382-0.223-0.528C38.742,14.211,38.554,14.137,38.333,14.137 M35.14,16.057l0.005,5.843l1.306-0.001l-0.006-7.593
		l-1.808,0.001l-2.294,5.642l-2.235-5.638l-1.882,0.002l0.006,7.593l1.228-0.001l-0.005-5.844h0.042l2.36,5.842l0.926-0.001
		l2.314-5.845L35.14,16.057L35.14,16.057z"/>
	<path class="st12" d="M17.782,17.805L11.76,17.81l-0.005-6.022l6.022-0.005L17.782,17.805z"/>
	<path class="st13" d="M24.431,17.8l-6.022,0.005l-0.005-6.022l6.022-0.005L24.431,17.8L24.431,17.8z"/>
	<path class="st14" d="M17.788,24.456l-6.022,0.005l-0.005-6.022l6.022-0.005L17.788,24.456z"/>
	<path class="st15" d="M24.437,24.451l-6.022,0.005l-0.005-6.022l6.022-0.005L24.437,24.451L24.437,24.451z"/>
</g>
<g>
	<g>
		<g class="st16">
			<path class="st17" d="M38.065,27.019c-2.45,1.293-6.619,5.988-2.199,12.147l8.741,13.867c2.565,4.511,7.933,1.558,7.933,1.558
				s5.467-2.763,3.217-7.44l-6.434-15.085C46.771,24.924,40.515,25.726,38.065,27.019z"/>
		</g>
		<g>
			<path class="st18" d="M36.566,28.604c-2.45,1.293-6.619,5.988-2.199,12.146l8.741,13.867c2.565,4.511,7.933,1.558,7.933,1.558
				s5.467-2.763,3.217-7.44l-6.434-15.084C45.272,26.507,39.016,27.31,36.566,28.604z"/>
		</g>
		<g>
			<path class="st19" d="M37.184,29.775c-2.242,1.183-6.055,5.479-2.011,11.113l7.997,12.687C45.518,57.702,50.429,55,50.429,55
				s5.002-2.528,2.943-6.807l-5.886-13.799C45.15,27.858,39.427,28.593,37.184,29.775z"/>
		</g>
		<path class="st1" d="M38.597,42.762c-0.289,0.153-0.653,0.072-0.848-0.202c-0.113-0.158-2.746-3.905-1.97-7.171
			c0.333-1.399,1.226-2.492,2.654-3.245c1.428-0.754,2.842-0.878,4.201-0.371c3.167,1.182,4.847,5.424,4.917,5.603
			c0.132,0.342-0.032,0.722-0.377,0.857c-0.341,0.133-0.725-0.037-0.858-0.376c-0.015-0.038-1.539-3.873-4.148-4.844
			c-1.003-0.374-2.022-0.274-3.116,0.303c-1.091,0.576-1.74,1.354-1.983,2.379c-0.639,2.688,1.736,6.063,1.76,6.097
			c0.212,0.298,0.143,0.712-0.155,0.924C38.649,42.734,38.623,42.748,38.597,42.762z"/>
		<path class="st20" d="M39.873,34.874L39.873,34.874c-0.48,0.254-1.079,0.068-1.333-0.412l-1.796-2.302
			c-0.254-0.48,0.388-1.319,0.868-1.573l0,0c0.48-0.254,1.535-0.308,1.788,0.172l0.886,2.782
			C40.538,34.02,40.353,34.62,39.873,34.874z"/>
	</g>
	<g>
		<g class="st16">
			<path class="st17" d="M16.597,45.125c1.483-2.341,6.493-6.124,12.282-1.231l13.132,9.81c4.294,2.914,0.926,8.032,0.926,8.032
				s-3.186,5.232-7.672,2.618l-14.527-7.606C13.819,53.638,15.115,47.465,16.597,45.125z"/>
		</g>
		<g>
			<path class="st18" d="M15.951,47.648c1.483-2.341,6.493-6.124,12.282-1.231l13.132,9.81c4.294,2.914,0.926,8.032,0.926,8.032
				s-3.186,5.232-7.672,2.618L20.092,59.27C13.173,56.162,14.469,49.988,15.951,47.648z"/>
		</g>
		<g>
			<path class="st19" d="M17.07,48.356c1.356-2.141,5.941-5.603,11.237-1.126l12.014,8.975c3.928,2.667,0.847,7.349,0.847,7.349
				s-2.916,4.786-7.019,2.396L20.86,58.99C14.528,56.145,15.714,50.497,17.07,48.356z"/>
		</g>
		<path class="st1" d="M29.906,50.793c0.175-0.276,0.123-0.645-0.135-0.862c-0.149-0.125-3.676-3.047-6.993-2.531
			c-1.422,0.221-2.581,1.025-3.444,2.389c-0.864,1.364-1.1,2.763-0.702,4.158c0.928,3.25,5.024,5.261,5.197,5.344
			c0.33,0.159,0.722,0.025,0.884-0.308c0.159-0.329,0.021-0.725-0.307-0.884c-0.038-0.018-3.738-1.84-4.501-4.518
			c-0.294-1.029-0.114-2.037,0.549-3.082c0.66-1.042,1.487-1.627,2.528-1.789c2.73-0.424,5.907,2.21,5.938,2.237
			c0.28,0.235,0.698,0.198,0.933-0.082C29.873,50.842,29.89,50.816,29.906,50.793z"/>
		<path class="st20" d="M21.94,51.44L21.94,51.44c0.29-0.459,0.153-1.071-0.306-1.361l-2.152-1.972
			c-0.459-0.29-1.346,0.282-1.636,0.74l0,0c-0.29,0.459-0.429,1.505,0.03,1.796l2.703,1.103
			C21.037,52.035,21.649,51.898,21.94,51.44z"/>
		<g>
			<path class="st18" d="M28.531,61.392l5.155-8.254c0.127-0.202,0.064-0.471-0.138-0.597l0,0c-0.202-0.127-0.471-0.064-0.596,0.138
				l-5.155,8.254c-0.127,0.202-0.064,0.471,0.138,0.597l0,0C28.136,61.658,28.405,61.596,28.531,61.392z"/>
			<path class="st18" d="M31.064,62.827l5.154-8.254c0.127-0.202,0.064-0.471-0.138-0.596l0,0c-0.202-0.127-0.471-0.064-0.597,0.138
				l-5.155,8.254c-0.127,0.202-0.064,0.471,0.138,0.596l0,0C30.67,63.092,30.938,63.031,31.064,62.827z"/>
			<path class="st18" d="M33.484,64.376l5.155-8.254c0.127-0.202,0.064-0.471-0.138-0.597l0,0c-0.202-0.127-0.471-0.064-0.597,0.138
				l-5.155,8.254c-0.127,0.202-0.064,0.471,0.138,0.597l0,0C33.09,64.641,33.358,64.577,33.484,64.376z"/>
			<path class="st18" d="M35.82,66.011l5.155-8.254c0.127-0.202,0.064-0.471-0.138-0.597l0,0c-0.202-0.127-0.471-0.064-0.597,0.138
				l-5.155,8.254c-0.127,0.202-0.064,0.471,0.138,0.596l0,0C35.425,66.275,35.693,66.213,35.82,66.011z"/>
		</g>
	</g>
	<g>
		<path class="st18" d="M49.042,42.01l-8.636,4.484c-0.211,0.11-0.474,0.027-0.584-0.184l0,0c-0.11-0.211-0.027-0.474,0.184-0.584
			l8.636-4.485c0.211-0.11,0.474-0.027,0.584,0.184l0,0C49.337,41.638,49.254,41.9,49.042,42.01z"/>
		<path class="st18" d="M50.271,44.649l-8.636,4.485c-0.211,0.11-0.474,0.027-0.585-0.185l0,0c-0.11-0.211-0.027-0.474,0.184-0.584
			l8.636-4.485c0.211-0.11,0.474-0.027,0.584,0.184l0,0C50.567,44.276,50.483,44.539,50.271,44.649z"/>
		<path class="st18" d="M51.624,47.184l-8.636,4.485c-0.211,0.11-0.474,0.027-0.584-0.184l0,0c-0.11-0.211-0.027-0.474,0.184-0.584
			l8.636-4.485c0.211-0.11,0.474-0.027,0.585,0.185l0,0C51.919,46.811,51.836,47.074,51.624,47.184z"/>
		<path class="st18" d="M53.069,49.641l-8.636,4.485c-0.211,0.11-0.474,0.027-0.584-0.184l0,0c-0.11-0.211-0.027-0.474,0.185-0.585
			l8.636-4.485c0.211-0.11,0.474-0.027,0.585,0.185l0,0C53.363,49.268,53.28,49.531,53.069,49.641z"/>
	</g>
</g>
<g>
	<path class="st21" d="M108.939,52.601c0.118-4.966-1.38-9.792-4.153-13.785c-1.702-2.448-3.883-4.583-6.466-6.245
		c-1.55-0.997-3.244-1.824-5.065-2.446h0c-1.823-0.623-3.67-1.005-5.506-1.164c-3.061-0.265-6.092,0.089-8.936,0.985
		c-4.636,1.463-8.771,4.365-11.718,8.364c-0.342,0.466-0.668,0.946-0.977,1.44c-0.618,0.989-1.166,2.034-1.638,3.132
		c-0.236,0.549-0.453,1.111-0.649,1.686c-0.831,2.433-1.237,4.906-1.251,7.34c-0.004,0.614,0.016,1.226,0.061,1.834
		c0.045,0.608,0.113,1.212,0.205,1.811c0.146,0.955,0.368,1.892,0.631,2.816c0.725,2.552,1.867,4.97,3.402,7.132
		c1.019,1.435,2.204,2.758,3.539,3.937c1.335,1.18,2.821,2.216,4.441,3.076c1.08,0.574,2.22,1.069,3.414,1.477h0
		c0.597,0.204,1.197,0.382,1.798,0.535c1.803,0.459,3.618,0.692,5.412,0.714c2.392,0.029,4.749-0.316,6.994-0.998
		c4.607-1.4,8.736-4.216,11.716-8.124c0.369-0.484,0.721-0.984,1.054-1.501c0.998-1.55,1.826-3.245,2.45-5.07
		C108.482,57.25,108.882,54.912,108.939,52.601z M96.628,60.449c-1.747,2.333-4.181,4.017-6.904,4.862
		c-2.668,0.823-5.604,0.843-8.444-0.127c-2.84-0.97-5.155-2.783-6.757-5.064c-1.638-2.334-2.537-5.156-2.491-8.07
		c0.019-1.398,0.258-2.817,0.733-4.208c0.476-1.395,1.155-2.664,1.996-3.782c1.747-2.333,4.186-4.019,6.908-4.86
		c2.664-0.825,5.604-0.843,8.444,0.127c2.84,0.97,5.151,2.781,6.757,5.064c1.639,2.33,2.533,5.155,2.488,8.069
		c-0.019,1.398-0.258,2.817-0.734,4.212C98.148,58.063,97.469,59.332,96.628,60.449z"/>
	<g>
		<g>
			<path class="st22" d="M110.37,48.41l-9.582-0.142c-0.019,1.398-0.258,2.818-0.734,4.212c-0.475,1.391-1.154,2.66-1.994,3.778
				l7.565,5.67c1.477-1.934,2.673-4.138,3.504-6.57C109.913,53.059,110.314,50.72,110.37,48.41z"/>
		</g>
		<g>
			<path class="st22" d="M98.301,40.199l7.916-5.574c-2.723-3.916-6.673-7.032-11.531-8.691l-3.142,9.201
				C94.383,36.104,96.694,37.916,98.301,40.199z"/>
		</g>
		<g>
			<path class="st23" d="M91.543,35.134L91.543,35.134l3.142-9.201c-4.862-1.66-9.893-1.612-14.442-0.18l2.856,9.253
				C85.763,34.183,88.703,34.164,91.543,35.134z"/>
		</g>
		<g>
			<path class="st22" d="M82.712,60.992L79.704,69.8c4.779,1.632,9.714,1.615,14.204,0.251l-2.752-8.932
				C88.488,61.943,85.552,61.962,82.712,60.992z"/>
		</g>
		<g>
			<path class="st23" d="M91.156,61.12l2.752,8.932c4.607-1.4,8.736-4.216,11.716-8.124l-7.565-5.67
				C96.313,58.591,93.879,60.275,91.156,61.12z"/>
		</g>
		<g>
			<path class="st23" d="M82.712,60.992c-2.84-0.97-5.155-2.783-6.757-5.064l-7.645,5.381c2.718,3.826,6.616,6.859,11.394,8.491
				L82.712,60.992L82.712,60.992z"/>
		</g>
		<g>
			<path class="st22" d="M83.099,35.007l-2.856-9.253c-4.637,1.463-8.771,4.365-11.718,8.364l7.667,5.749
				C77.938,37.535,80.377,35.848,83.099,35.007z"/>
		</g>
		<g>
			<path class="st22" d="M73.463,47.858l-9.453-0.142c-0.033,4.915,1.511,9.667,4.299,13.593l7.645-5.381
				C74.317,53.594,73.418,50.772,73.463,47.858z"/>
		</g>
		<g>
			<path class="st23" d="M74.196,43.649c0.476-1.395,1.155-2.664,1.996-3.782l-7.667-5.749c-1.369,1.863-2.479,3.958-3.264,6.258
				c-0.831,2.433-1.237,4.906-1.251,7.34l9.453,0.142C73.482,46.459,73.721,45.04,74.196,43.649z"/>
		</g>
		<g>
			<path class="st23" d="M100.789,48.268l9.582,0.142c0.118-4.966-1.38-9.792-4.153-13.785l-7.916,5.574
				C99.939,42.529,100.834,45.354,100.789,48.268z"/>
		</g>
		<g class="st24">
			<path class="st25" d="M92.703,31.74c-9.017-3.079-18.818,1.734-21.898,10.751c-3.078,9.013,1.732,18.813,10.749,21.893
				c9.013,3.078,18.817-1.731,21.895-10.744C106.529,44.623,101.716,34.818,92.703,31.74z M82.703,61.018
				c-7.154-2.443-10.976-10.224-8.533-17.377c2.444-7.158,10.227-10.974,17.381-8.531c7.154,2.443,10.972,10.222,8.527,17.38
				C97.636,59.643,89.857,63.461,82.703,61.018z"/>
		</g>
	</g>
</g>
<g>
	<path class="st0" d="M135.647,50.779c-0.773-0.469-2.228-0.666-2.858-0.731c0.759-2.018,0.422-4.263,0.348-4.551
		c-0.122-0.48,0.512-1.062,0.512-1.062c0.435-0.39,0.662-0.727,0.497-1.375c-0.165-0.647-0.636-0.904-1.094-0.97l-0.001-0.002
		c0,0-3.629-0.071-6.401,0.635c-1.879,0.478-3.408,1.519-4.764,2.283c-0.641,0.362-1.243,0.661-1.825,0.809
		c-1.808,0.46-4.493-0.272-7.265,0.434c-2.77,0.705-5.926,2.503-5.926,2.503l0.001,0.003c-0.371,0.277-0.662,0.727-0.497,1.375
		c0.165,0.647,0.526,0.835,1.094,0.97c0,0,0.835,0.208,0.958,0.688c0.074,0.291,0.863,2.473,2.533,3.881
		c-0.572,0.404-1.599,1.192-2.016,1.908c-1.128,1.939,2.884,3.311,2.798,2.158c-0.083-1.111,0.721-2.423,1.143-3.027
		c0.736,0.201,1.571,0.23,2.511-0.009c4.048-1.03,3.365-4.441,4.779-5.898c0.255-0.264,0.579-0.464,1.01-0.574
		c2.827-0.72,3.401,4.132,8.18,2.916c0.997-0.254,1.737-0.721,2.299-1.294c0.609,0.294,2.072,1.09,2.557,2.165
		C134.697,55.067,137.565,51.944,135.647,50.779z"/>
	<g>
		<g>
			<path class="st26" d="M133.181,48.965c0,0,2.16,0.15,3.164,0.759c1.918,1.164-0.95,4.287-1.426,3.233
				c-0.618-1.369-2.83-2.29-2.83-2.29L133.181,48.965z"/>
		</g>
		<g>
			<path class="st26" d="M112.057,54.341c0,0-1.825,1.164-2.416,2.18c-1.128,1.939,2.884,3.311,2.798,2.158
				c-0.112-1.498,1.391-3.364,1.391-3.364L112.057,54.341z"/>
		</g>
		<path class="st22" d="M133.751,41.036l-0.001-0.003c0,0-3.629-0.071-6.401,0.635c-1.879,0.478-3.408,1.519-4.764,2.283
			c-0.764,1.936-1.316,3.941-1.712,5.794c0.255-0.264,0.579-0.464,1.01-0.574c2.827-0.72,3.401,4.132,8.181,2.916
			c4.777-1.216,3.894-7.164,3.772-7.644c-0.122-0.48,0.512-1.062,0.512-1.062c0.435-0.39,0.662-0.727,0.497-1.375
			C134.68,41.358,134.209,41.102,133.751,41.036z"/>
		<path class="st22" d="M120.76,44.76c-1.808,0.46-4.493-0.272-7.265,0.434c-2.77,0.705-5.926,2.503-5.926,2.503l0.001,0.003
			c-0.371,0.277-0.662,0.727-0.497,1.375c0.165,0.647,0.526,0.835,1.094,0.97c0,0,0.835,0.208,0.958,0.688
			c0.122,0.48,2.192,6.126,6.97,4.91c4.048-1.03,3.365-4.441,4.779-5.898c0.396-1.853,0.948-3.858,1.712-5.794
			C121.944,44.313,121.342,44.613,120.76,44.76z"/>
		<path class="st27" d="M129.13,42.861c-0.549,0.03-1.108,0.112-1.635,0.246c-3.393,0.864-4.409,2.708-4.294,3.162
			c0.09,0.354,1.648,3.847,4.2,4.853c0.701,0.274,1.472,0.364,2.312,0.15c3.902-0.993,3.31-5.759,2.974-7.079
			C132.434,43.195,130.833,42.771,129.13,42.861z"/>
		<g class="st24">
			<path class="st1" d="M123.201,46.269c0.09,0.354,1.648,3.847,4.2,4.853c0.21-2.338,0.692-5.261,1.728-8.261
				c-0.549,0.03-1.108,0.112-1.635,0.246C124.102,43.97,123.086,45.814,123.201,46.269z"/>
		</g>
		<path class="st27" d="M115.886,46.229c-0.546,0.035-1.156,0.127-1.83,0.299c-2.167,0.552-4.377,2.118-4.042,3.437
			c0.276,1.085,1.515,4.298,4.115,4.854c0.563,0.12,1.188,0.118,1.882-0.058c3.9-0.993,3.441-7.056,3.325-7.508
			C119.244,46.888,118.087,46.089,115.886,46.229z"/>
		<g class="st24">
			<path class="st1" d="M110.014,49.965c0.276,1.085,1.515,4.298,4.115,4.854c0.197-2.39,0.669-5.449,1.756-8.59
				c-0.546,0.035-1.156,0.127-1.83,0.299C111.888,47.079,109.678,48.646,110.014,49.965z"/>
		</g>
		<path class="st1" d="M112.264,49.978c0.192,0.754-0.019,1.459-0.472,1.574c-0.452,0.115-0.975-0.403-1.167-1.157
			s0.019-1.459,0.472-1.574C111.55,48.705,112.072,49.224,112.264,49.978z"/>
		<path class="st1" d="M112.709,52.38c0.07,0.275-0.053,0.544-0.275,0.6s-0.458-0.121-0.528-0.396s0.053-0.544,0.275-0.6
			C112.402,51.929,112.639,52.106,112.709,52.38z"/>
		<path class="st1" d="M126.207,46.428c0.192,0.754-0.019,1.459-0.472,1.574c-0.452,0.115-0.975-0.403-1.167-1.157
			s0.019-1.459,0.472-1.574C125.493,45.157,126.015,45.675,126.207,46.428z"/>
		<path class="st1" d="M126.651,48.831c0.07,0.275-0.053,0.544-0.275,0.6c-0.222,0.057-0.458-0.121-0.528-0.396
			s0.053-0.544,0.275-0.6C126.345,48.38,126.582,48.557,126.651,48.831z"/>
	</g>
</g>
</svg>
