<?xml version="1.0" encoding="utf-8"?>
<!-- Generator: Adobe Illustrator 24.1.3, SVG Export Plug-In . SVG Version: 6.00 Build 0)  -->
<svg version="1.1" id="Layer_1" xmlns="http://www.w3.org/2000/svg" xmlns:xlink="http://www.w3.org/1999/xlink" x="0px" y="0px"
	 viewBox="0 0 261 81" style="enable-background:new 0 0 261 81;" xml:space="preserve">
<style type="text/css">
	.st0{opacity:0.3;fill:#775D15;enable-background:new    ;}
	.st1{fill:#A1D44F;}
	.st2{fill:#DCFF99;}
	.st3{fill:#FFFFFF;}
	.st4{fill:#FFE659;}
	.st5{fill:#5C9BF3;}
	.st6{opacity:0.1;fill:#231F20;enable-background:new    ;}
	.st7{fill:#577FBF;}
	.st8{fill:#DA3335;}
	.st9{fill:#F2C117;}
	.st10{fill:#43B553;}
	.st11{fill:#231F20;}
	.st12{fill:#706D6E;}
	.st13{fill:#EF5323;}
	.st14{fill:#82C341;}
	.st15{fill:#2CA9E1;}
	.st16{fill:#F8BB15;}
	.st17{opacity:0.3;}
	.st18{fill:#775D15;}
	.st19{fill:#39BC98;}
	.st20{fill:#4ACFAB;}
	.st21{fill:#F6BC10;}
	.st22{fill:#A51E2E;}
	.st23{fill:#DB4651;}
	.st24{fill:#281A1C;}
	.st25{opacity:0.1;}
	.st26{fill:#DEDEDE;}
	.st27{fill:#4080CC;}
	.st28{fill:#4988E3;}
</style>
<g>
	<polygon class="st0" points="11.105,62.111 102.786,201.619 182.284,160.799 90.603,21.292 	"/>
	<polygon class="st1" points="12.795,61.681 104.476,201.188 183.973,160.368 92.292,20.862 	"/>
	<polygon class="st2" points="28.899,86.186 26.743,82.904 106.24,42.086 108.396,45.366 	"/>
	<polygon class="st2" points="24.148,78.956 18.149,69.827 97.646,29.007 103.645,38.136 	"/>
</g>
<g>
	
		<ellipse transform="matrix(0.6143 -0.7891 0.7891 0.6143 8.1422 206.2206)" class="st0" cx="215.012" cy="94.782" rx="28.669" ry="25.356"/>
	<ellipse class="st3" cx="221.45" cy="77.313" rx="28.669" ry="28.669"/>
	<path class="st1" d="M214.6,67.71l-4.099-2.445c-13.668,9.523-14.636,24.592-14.656,24.926c3.266,6.486,8.974,11.746,16.395,14.261
		c4.237,1.436,8.57,1.791,12.73,1.271C208.765,90.447,214.6,67.71,214.6,67.71z"/>
	<path class="st4" d="M245.887,62.343c-11.495-6.323-24.293-2.118-24.293-2.118l-1.119,6.073
		c23.242,9.158,20.668,31.564,20.634,31.849c3.304-3.112,5.923-7.048,7.481-11.647C251.429,78.12,250.166,69.344,245.887,62.343z"/>
	<path class="st5" d="M210.807,60.207l7.924-3.65l4.212-7.862c-8.356-0.443-16.434,2.822-22.146,8.752
		C205.6,57.931,210.807,60.207,210.807,60.207z"/>
	<path class="st3" d="M222.398,60.928c0.84,3.061-1.281,6.311-4.738,7.259c-3.456,0.949-6.939-0.764-7.779-3.824
		c-0.84-3.061,1.281-6.311,4.738-7.259C218.075,56.154,221.558,57.867,222.398,60.928z"/>
	<path class="st6" d="M222.086,99.458c-14.995-5.081-23.032-21.356-17.951-36.35c1.866-5.506,5.25-10.063,9.517-13.388
		c-8.772,2.485-16.217,9.093-19.364,18.381c-5.081,14.995,2.956,31.269,17.951,36.35c9.488,3.215,19.481,1.166,26.833-4.563
		C233.682,101.415,227.793,101.391,222.086,99.458z"/>
</g>
<g>
	<path class="st7" d="M223.055,22.165c0-0.812-0.07-1.606-0.203-2.375h-11.965v4.974l6.976,0.01
		c-0.456,1.612-1.385,2.952-2.672,3.852l3.908,3.013C221.566,29.317,223.055,25.933,223.055,22.165z"/>
	<path class="st8" d="M211.047,14.549c1.911,0,3.539,0.722,4.757,1.9l3.542-3.519c-2.141-2.136-5.074-3.445-8.437-3.445
		c-5.011,0-9.343,2.907-11.402,7.127l4.2,3.13C204.721,16.691,207.623,14.549,211.047,14.549z"/>
	<path class="st9" d="M199.589,27.882l4.114-3.337c-0.248-0.757-0.383-1.564-0.383-2.404c0-0.843,0.137-1.649,0.387-2.4l-4.2-3.13
		c-0.818,1.677-1.278,3.561-1.278,5.553C198.229,24.222,198.72,26.165,199.589,27.882z"/>
	<path class="st10" d="M203.703,24.546l-4.114,3.337c2.09,4.13,6.374,6.962,11.32,6.962c3.235,0,6.072-1.212,8.19-3.206
		l-3.908-3.013c-1.131,0.791-2.538,1.243-4.144,1.243C207.619,29.868,204.714,27.636,203.703,24.546z"/>
</g>
<g id="XMLID_128_">
	<g id="XMLID_241_">
		<path id="XMLID_242_" class="st11" d="M158.388,37.13c0,0.702-0.564,1.258-1.281,1.258c-0.717,0-1.289-0.556-1.289-1.258
			c0-0.701,0.572-1.25,1.296-1.25C157.824,35.88,158.388,36.429,158.388,37.13z M156.139,37.13c0,0.557,0.42,0.999,0.976,0.999
			c0.541,0.007,0.953-0.442,0.953-0.992c0-0.556-0.412-1.006-0.968-1.006C156.559,36.132,156.139,36.582,156.139,37.13z
			 M156.909,37.778h-0.29v-1.25c0.115-0.016,0.275-0.038,0.481-0.038c0.236,0,0.343,0.038,0.426,0.099
			c0.077,0.054,0.129,0.145,0.129,0.267c0,0.152-0.114,0.251-0.259,0.297v0.015c0.122,0.039,0.183,0.137,0.221,0.305
			c0.038,0.19,0.069,0.259,0.092,0.305h-0.306c-0.038-0.046-0.061-0.152-0.099-0.305c-0.023-0.13-0.099-0.191-0.259-0.191h-0.137
			v0.496C156.908,37.777,156.909,37.777,156.909,37.778z M156.917,37.076h0.138c0.16,0,0.289-0.053,0.289-0.182
			c0-0.114-0.084-0.19-0.267-0.19c-0.076,0-0.129,0.007-0.16,0.015V37.076z"/>
	</g>
	<g id="XMLID_129_">
		<g id="XMLID_133_">
			<g>
				<path class="st11" d="M149.08,26.707c-2.368-0.823-5.068-0.572-7.219,0.092l1.175,7.694l-5.057-8.241l-5.024,9.974
					c-1.357-4.76-2.079-9.88-2.079-9.88l-4.309,7.186l-4.779-7.599l-0.805,7.751c-0.031-0.082-0.052-0.127-0.052-0.127l-0.002-0.023
					c-0.047-0.099-0.116-0.229-0.154-0.289c-0.691-1.251-3.019-1.991-4.663-2.552c-4.169-1.427-2.896-2.895-0.637-3.244
					c1.578-0.246,3.367,0.037,4.49,0.739l0.577-1.683c-3.152-1.658-10.154-1.195-9.02,3.162c0.656,2.519,5.966,2.878,7.221,4.351
					c0.104,0.124,0.249,0.299,0.318,0.458c0.094,0.217,0.125,0.466,0.026,0.78c-0.015,0.047-0.037,0.199-0.068,0.26
					c-0.045,0.09-0.095,0.179-0.132,0.226c-0.803,1.016-2.418,1.056-3.896,0.875c-1.695-0.207-3.21-1.042-3.297-1.238l-0.712,1.791
					c2.679,1.447,7.763,2.302,9.66-0.363c0.008-0.011,0.013-0.018,0.019-0.029l-0.178,1.713l2.013-0.034l0.622-7.02l3.539,5.591
					l3.304-5.591c0,0,0.351,1.449,0.99,4.108c0.539,2.246,0.878,3.098,0.878,3.098l1.733-0.135l1.714-3.45h6.12l2.288,3.448
					l1.893-0.003l-1.016-6.018c1.259,1.75,4.736,4.06,7.471,5.021l-0.183,1.042l1.979,0.046l1.74-10.274l4.187,0.046l0.652-1.682
					L149.08,26.707z M136.112,33.375l2.016-4.056l2.155,4.056H136.112z M144.206,30.243l-0.355-2.276
					c1.202-0.721,5.08-0.286,4.646,0.915C148.062,30.083,144.286,30.597,144.206,30.243z M152.34,35.882
					c-2.391-0.847-6.063-3.603-6.2-4.175c1.35-0.102,4.233-0.869,3.924-3.34l3.444,0.022L152.34,35.882z"/>
			</g>
		</g>
		<path id="XMLID_132_" class="st11" d="M125.457,31.007"/>
		<path id="XMLID_131_" class="st11" d="M125.457,31.007"/>
		<path id="XMLID_130_" class="st11" d="M126.974,33.534"/>
	</g>
</g>
<g>
	<path class="st12" d="M73.595,20.715l-0.001-1.044l-1.296,0.001l-0.001-1.623l-0.044,0.013l-1.217,0.374l-0.024,0.007l0.001,1.23
		l-1.922,0.002L69.09,18.99c0-0.319,0.071-0.563,0.211-0.726c0.139-0.161,0.339-0.243,0.594-0.243c0.183,0,0.373,0.043,0.563,0.128
		l0.048,0.021l-0.001-1.099l-0.023-0.008c-0.178-0.064-0.42-0.096-0.72-0.096c-0.378,0-0.722,0.083-1.021,0.246
		c-0.3,0.164-0.535,0.397-0.7,0.693c-0.164,0.296-0.248,0.638-0.247,1.017l0.001,0.753l-0.903,0.001l0.001,1.044l0.903-0.001
		l0.004,4.398l1.296-0.001l-0.004-4.398l1.922-0.002l0.002,2.795c0.001,1.151,0.544,1.734,1.615,1.733
		c0.176,0,0.361-0.021,0.55-0.061c0.192-0.042,0.324-0.083,0.401-0.127l0.017-0.01l-0.001-1.054l-0.053,0.035
		c-0.07,0.047-0.158,0.085-0.26,0.114c-0.103,0.029-0.189,0.044-0.256,0.044c-0.251,0-0.436-0.067-0.552-0.201
		c-0.117-0.135-0.176-0.37-0.176-0.699l-0.002-2.569L73.595,20.715L73.595,20.715z M64.002,24.193c-0.47,0-0.841-0.155-1.103-0.462
		c-0.263-0.309-0.397-0.749-0.397-1.308c0-0.577,0.132-1.029,0.395-1.343c0.261-0.312,0.628-0.471,1.091-0.471
		c0.449,0,0.807,0.151,1.064,0.449c0.258,0.3,0.389,0.748,0.389,1.332c0,0.591-0.122,1.045-0.364,1.349
		C64.837,24.039,64.475,24.192,64.002,24.193 M64.056,19.548c-0.897,0.001-1.61,0.264-2.118,0.783
		c-0.507,0.519-0.764,1.237-0.764,2.134c0.001,0.852,0.253,1.537,0.749,2.036c0.496,0.499,1.171,0.752,2.006,0.751
		c0.87-0.001,1.568-0.268,2.076-0.794c0.507-0.526,0.764-1.237,0.763-2.113c-0.001-0.865-0.243-1.556-0.72-2.051
		C65.572,19.798,64.901,19.547,64.056,19.548 M59.083,19.552c-0.61,0.001-1.115,0.157-1.501,0.465
		c-0.388,0.31-0.584,0.716-0.584,1.208c0,0.255,0.043,0.482,0.127,0.675c0.084,0.193,0.215,0.363,0.388,0.506
		c0.172,0.141,0.437,0.289,0.788,0.44c0.295,0.121,0.515,0.224,0.655,0.305c0.137,0.079,0.234,0.159,0.289,0.237
		c0.053,0.076,0.08,0.18,0.08,0.308c0,0.366-0.273,0.544-0.837,0.544c-0.209,0-0.447-0.043-0.709-0.129
		c-0.259-0.085-0.504-0.208-0.726-0.367L57,23.704l0.001,1.248l0.02,0.009c0.183,0.084,0.415,0.156,0.687,0.212
		s0.519,0.084,0.734,0.084c0.662-0.001,1.196-0.158,1.585-0.468c0.391-0.312,0.59-0.728,0.589-1.237
		c0-0.367-0.107-0.681-0.318-0.935c-0.209-0.251-0.573-0.482-1.079-0.686c-0.404-0.162-0.662-0.296-0.769-0.399
		c-0.103-0.1-0.155-0.241-0.155-0.419c0-0.158,0.064-0.285,0.196-0.388c0.133-0.103,0.319-0.156,0.551-0.156
		c0.216,0,0.437,0.034,0.657,0.1c0.22,0.067,0.412,0.156,0.574,0.265l0.053,0.036l-0.001-1.183l-0.02-0.009
		c-0.149-0.064-0.344-0.118-0.582-0.162C59.484,19.574,59.269,19.552,59.083,19.552 M53.622,24.201c-0.47,0-0.841-0.155-1.103-0.462
		c-0.263-0.309-0.397-0.749-0.397-1.308c0-0.577,0.132-1.029,0.395-1.343c0.261-0.312,0.628-0.471,1.091-0.471
		c0.449,0,0.807,0.151,1.063,0.449c0.258,0.3,0.389,0.748,0.389,1.332c0,0.591-0.122,1.045-0.364,1.349
		C54.457,24.048,54.096,24.201,53.622,24.201 M53.676,19.557c-0.898,0.001-1.61,0.264-2.118,0.783
		c-0.507,0.519-0.764,1.237-0.764,2.134c0.001,0.852,0.253,1.537,0.749,2.036c0.496,0.499,1.171,0.752,2.006,0.751
		c0.87-0.001,1.568-0.268,2.076-0.794c0.507-0.526,0.764-1.237,0.763-2.113c-0.001-0.865-0.243-1.556-0.72-2.051
		C55.192,19.807,54.521,19.556,53.676,19.557 M48.826,20.634l-0.001-0.942l-1.28,0.001l0.004,5.442l1.28-0.001l-0.002-2.784
		c0-0.473,0.107-0.862,0.318-1.156c0.209-0.29,0.487-0.438,0.828-0.438c0.115,0,0.245,0.019,0.385,0.056
		c0.139,0.037,0.239,0.078,0.299,0.12l0.054,0.039L50.71,19.68l-0.021-0.009c-0.119-0.051-0.288-0.076-0.501-0.076
		c-0.322,0-0.609,0.104-0.856,0.308c-0.216,0.179-0.372,0.424-0.492,0.73L48.826,20.634z M45.253,19.564
		c-0.587,0-1.111,0.127-1.556,0.375c-0.446,0.249-0.791,0.605-1.026,1.057c-0.234,0.451-0.352,0.977-0.351,1.564
		c0,0.514,0.116,0.986,0.344,1.402c0.228,0.416,0.551,0.742,0.959,0.968c0.408,0.225,0.878,0.339,1.4,0.339
		c0.608-0.001,1.128-0.123,1.544-0.363l0.017-0.01l-0.001-1.173l-0.054,0.039c-0.189,0.138-0.399,0.247-0.626,0.327
		c-0.226,0.079-0.432,0.119-0.613,0.119c-0.502,0-0.906-0.156-1.199-0.466c-0.294-0.31-0.443-0.746-0.443-1.294
		c0-0.552,0.154-0.999,0.46-1.329c0.304-0.329,0.708-0.496,1.2-0.496c0.421,0,0.831,0.142,1.219,0.423l0.054,0.039l-0.001-1.236
		l-0.017-0.01c-0.146-0.082-0.345-0.149-0.592-0.2C45.722,19.589,45.482,19.563,45.253,19.564 M41.436,19.698l-1.28,0.001
		l0.004,5.442l1.28-0.001L41.436,19.698L41.436,19.698z M40.807,17.38c-0.211,0-0.394,0.072-0.545,0.214
		c-0.151,0.143-0.228,0.322-0.228,0.534c0,0.208,0.076,0.385,0.227,0.523c0.149,0.138,0.334,0.208,0.548,0.208
		s0.399-0.07,0.55-0.209c0.152-0.139,0.229-0.315,0.229-0.524c0-0.204-0.075-0.382-0.223-0.528
		C41.216,17.454,41.028,17.38,40.807,17.38 M37.614,19.3l0.005,5.843l1.306-0.001l-0.006-7.593l-1.808,0.001l-2.294,5.642
		l-2.235-5.638L30.7,17.556l0.006,7.593l1.228-0.001l-0.005-5.844h0.042l2.36,5.842l0.926-0.001l2.314-5.845L37.614,19.3
		L37.614,19.3z"/>
	<path class="st13" d="M20.256,21.048l-6.022,0.005l-0.005-6.022l6.022-0.005L20.256,21.048z"/>
	<path class="st14" d="M26.905,21.043l-6.022,0.005l-0.005-6.022l6.022-0.005L26.905,21.043L26.905,21.043z"/>
	<path class="st15" d="M20.262,27.699l-6.022,0.005l-0.005-6.022l6.022-0.005L20.262,27.699z"/>
	<path class="st16" d="M26.911,27.694l-6.022,0.005l-0.005-6.022l6.022-0.005L26.911,27.694L26.911,27.694z"/>
</g>
<g>
	<g>
		<g class="st17">
			<path class="st18" d="M40.983,37.336c-2.695,0.642-7.902,4.151-5.155,11.216l5.012,15.607c1.361,5.008,7.295,3.485,7.295,3.485
				s5.983-1.314,4.969-6.404L50.63,45.028C49.937,37.475,43.678,36.694,40.983,37.336z"/>
		</g>
		<g>
			<path class="st19" d="M39.137,38.497c-2.695,0.642-7.902,4.151-5.155,11.216l5.012,15.607c1.361,5.008,7.295,3.485,7.295,3.485
				s5.983-1.314,4.969-6.404L48.784,46.19C48.091,38.635,41.832,37.854,39.137,38.497z"/>
		</g>
		<g>
			<path class="st20" d="M39.444,39.785c-2.466,0.587-7.229,3.798-4.716,10.262l4.585,14.279c1.246,4.582,6.675,3.188,6.675,3.188
				s5.474-1.202,4.546-5.859L48.27,46.825C47.636,39.913,41.91,39.199,39.444,39.785z"/>
		</g>
		<path class="st3" d="M37.577,52.715c-0.318,0.076-0.65-0.093-0.771-0.407c-0.07-0.181-1.687-4.466-0.122-7.436
			c0.671-1.272,1.808-2.108,3.379-2.482c1.571-0.374,2.971-0.143,4.161,0.687c2.773,1.934,3.343,6.46,3.366,6.651
			c0.043,0.364-0.211,0.691-0.579,0.736c-0.363,0.044-0.693-0.216-0.737-0.578c-0.005-0.041-0.526-4.134-2.811-5.725
			c-0.878-0.612-1.89-0.769-3.093-0.483c-1.2,0.286-2.022,0.878-2.513,1.81c-1.288,2.444,0.171,6.304,0.186,6.343
			c0.131,0.341-0.039,0.725-0.38,0.856C37.635,52.701,37.606,52.708,37.577,52.715z"/>
		<path class="st21" d="M40.778,45.393L40.778,45.393c-0.528,0.126-1.062-0.203-1.188-0.731l-1.166-2.677
			c-0.126-0.528,0.704-1.181,1.232-1.307l0,0c0.528-0.126,1.563,0.084,1.689,0.612l0.165,2.915
			C41.635,44.732,41.306,45.267,40.778,45.393z"/>
	</g>
	<g>
		<g class="st17">
			<path class="st18" d="M15.682,49.524c2.019-1.898,7.814-4.314,12.202,1.867l10.275,12.772c3.433,3.892-1.104,8.009-1.104,8.009
				s-4.389,4.273-8.082,0.625L16.798,61.812C10.871,57.077,13.664,51.421,15.682,49.524z"/>
		</g>
		<g>
			<path class="st19" d="M14.428,51.806c2.019-1.898,7.814-4.314,12.202,1.867l10.275,12.772c3.433,3.892-1.104,8.009-1.104,8.009
				s-4.389,4.273-8.082,0.625L15.544,64.094C9.617,59.36,12.41,53.704,14.428,51.806z"/>
		</g>
		<g>
			<path class="st20" d="M15.336,52.771c1.847-1.736,7.149-3.947,11.163,1.708l9.4,11.685c3.14,3.561-1.01,7.328-1.01,7.328
				s-4.016,3.909-7.394,0.572L16.357,64.014C10.934,59.681,13.489,54.507,15.336,52.771z"/>
		</g>
		<path class="st3" d="M27.16,58.328c0.238-0.224,0.28-0.594,0.084-0.868c-0.113-0.158-2.801-3.866-6.142-4.193
			c-1.432-0.14-2.755,0.35-3.931,1.456c-1.177,1.106-1.754,2.402-1.716,3.852c0.089,3.379,3.555,6.346,3.702,6.47
			c0.28,0.236,0.693,0.204,0.933-0.078c0.236-0.279,0.201-0.697-0.077-0.933c-0.032-0.027-3.162-2.713-3.234-5.497
			c-0.028-1.07,0.397-2.001,1.299-2.848c0.899-0.845,1.845-1.205,2.894-1.103c2.75,0.269,5.17,3.612,5.194,3.646
			c0.213,0.297,0.627,0.366,0.924,0.153C27.116,58.367,27.139,58.347,27.16,58.328z"/>
		<path class="st21" d="M19.284,56.971L19.284,56.971c0.395-0.372,0.415-0.999,0.043-1.394l-1.593-2.446
			c-0.372-0.395-1.374-0.062-1.769,0.309l0,0c-0.395,0.372-0.79,1.351-0.418,1.747l2.343,1.741
			C18.261,57.322,18.888,57.342,19.284,56.971z"/>
		<g>
			<path class="st19" d="M23.188,68.251l7.048-6.71c0.173-0.164,0.179-0.44,0.015-0.613l0,0c-0.164-0.173-0.44-0.179-0.612-0.015
				l-7.048,6.71c-0.173,0.164-0.179,0.44-0.015,0.613l0,0C22.74,68.41,23.015,68.417,23.188,68.251z"/>
			<path class="st19" d="M25.284,70.271l7.047-6.71c0.173-0.164,0.179-0.44,0.015-0.612l0,0c-0.164-0.173-0.44-0.179-0.613-0.015
				l-7.048,6.71c-0.173,0.164-0.179,0.44-0.015,0.612l0,0C24.836,70.43,25.111,70.437,25.284,70.271z"/>
			<path class="st19" d="M27.242,72.374l7.048-6.71c0.173-0.164,0.179-0.44,0.015-0.613l0,0c-0.164-0.173-0.44-0.179-0.613-0.015
				l-7.048,6.71c-0.173,0.164-0.179,0.44-0.015,0.613l0,0C26.794,72.533,27.07,72.538,27.242,72.374z"/>
			<path class="st19" d="M29.097,74.54l7.048-6.71c0.173-0.164,0.179-0.44,0.015-0.613l0,0c-0.164-0.173-0.44-0.179-0.613-0.015
				l-7.048,6.71c-0.173,0.164-0.179,0.44-0.015,0.612l0,0C28.649,74.697,28.924,74.704,29.097,74.54z"/>
		</g>
	</g>
	<g>
		<path class="st19" d="M47.881,54.588L38.4,56.78c-0.232,0.054-0.466-0.092-0.52-0.324l0,0c-0.054-0.232,0.092-0.466,0.324-0.52
			l9.481-2.193c0.232-0.054,0.466,0.092,0.52,0.324l0,0C48.259,54.301,48.113,54.535,47.881,54.588z"/>
		<path class="st19" d="M48.414,57.45l-9.481,2.193c-0.232,0.054-0.466-0.092-0.52-0.325l0,0c-0.054-0.232,0.092-0.466,0.324-0.52
			l9.481-2.193c0.232-0.054,0.466,0.092,0.52,0.324l0,0C48.793,57.163,48.646,57.396,48.414,57.45z"/>
		<path class="st19" d="M49.093,60.242l-9.481,2.193c-0.232,0.054-0.466-0.092-0.52-0.324l0,0c-0.054-0.232,0.092-0.466,0.324-0.52
			l9.481-2.193c0.232-0.054,0.466,0.092,0.52,0.325l0,0C49.471,59.955,49.325,60.189,49.093,60.242z"/>
		<path class="st19" d="M49.88,62.982l-9.481,2.193c-0.232,0.054-0.466-0.092-0.52-0.324l0,0c-0.054-0.232,0.092-0.466,0.325-0.52
			l9.481-2.193c0.232-0.054,0.466,0.092,0.52,0.325l0,0C50.258,62.694,50.112,62.928,49.88,62.982z"/>
	</g>
</g>
<g>
	<path class="st0" d="M96.406,64.271c-0.773-0.469-2.228-0.666-2.858-0.731c0.759-2.018,0.422-4.263,0.348-4.551
		c-0.122-0.48,0.512-1.062,0.512-1.062c0.435-0.39,0.662-0.727,0.497-1.375c-0.165-0.647-0.636-0.904-1.094-0.97L93.81,55.58
		c0,0-3.629-0.071-6.401,0.635c-1.879,0.478-3.408,1.519-4.764,2.283c-0.641,0.362-1.243,0.661-1.825,0.809
		c-1.808,0.46-4.493-0.272-7.265,0.434c-2.77,0.705-5.926,2.503-5.926,2.503l0.001,0.003c-0.371,0.277-0.662,0.727-0.497,1.375
		c0.165,0.647,0.526,0.835,1.094,0.97c0,0,0.835,0.208,0.958,0.688c0.074,0.291,0.863,2.473,2.533,3.881
		c-0.572,0.404-1.599,1.192-2.016,1.908c-1.128,1.939,2.884,3.311,2.798,2.158c-0.083-1.111,0.721-2.423,1.143-3.027
		c0.736,0.201,1.571,0.23,2.511-0.009c4.048-1.03,3.365-4.441,4.779-5.898c0.255-0.264,0.579-0.464,1.01-0.574
		c2.827-0.72,3.401,4.132,8.18,2.916c0.997-0.254,1.737-0.721,2.299-1.294c0.609,0.294,2.072,1.09,2.557,2.165
		C95.456,68.559,98.324,65.436,96.406,64.271z"/>
	<g>
		<g>
			<path class="st22" d="M93.94,62.457c0,0,2.16,0.15,3.164,0.759c1.918,1.164-0.95,4.287-1.426,3.233
				c-0.618-1.369-2.83-2.29-2.83-2.29L93.94,62.457z"/>
		</g>
		<g>
			<path class="st22" d="M72.816,67.833c0,0-1.825,1.164-2.416,2.18c-1.128,1.939,2.884,3.311,2.798,2.158
				c-0.112-1.498,1.391-3.364,1.391-3.364L72.816,67.833z"/>
		</g>
		<path class="st23" d="M94.51,54.528l-0.001-0.003c0,0-3.629-0.071-6.401,0.635c-1.879,0.478-3.408,1.519-4.764,2.283
			c-0.764,1.936-1.316,3.941-1.712,5.794c0.255-0.264,0.579-0.464,1.01-0.574c2.827-0.72,3.401,4.132,8.181,2.916
			c4.777-1.216,3.894-7.164,3.772-7.644c-0.122-0.48,0.512-1.062,0.512-1.062c0.435-0.39,0.662-0.727,0.497-1.375
			C95.439,54.85,94.968,54.594,94.51,54.528z"/>
		<path class="st23" d="M81.519,58.252c-1.808,0.46-4.493-0.272-7.265,0.434c-2.77,0.705-5.926,2.503-5.926,2.503l0.001,0.003
			c-0.371,0.277-0.662,0.727-0.497,1.375c0.165,0.647,0.526,0.835,1.094,0.97c0,0,0.835,0.208,0.958,0.688
			c0.122,0.48,2.192,6.126,6.97,4.91c4.048-1.03,3.365-4.441,4.779-5.898c0.396-1.853,0.948-3.858,1.712-5.794
			C82.703,57.805,82.101,58.105,81.519,58.252z"/>
		<path class="st24" d="M89.889,56.353c-0.549,0.03-1.108,0.112-1.635,0.246c-3.393,0.864-4.409,2.708-4.294,3.162
			c0.09,0.354,1.648,3.847,4.2,4.853c0.701,0.274,1.472,0.364,2.312,0.15c3.902-0.993,3.31-5.759,2.974-7.079
			C93.193,56.687,91.592,56.263,89.889,56.353z"/>
		<g class="st25">
			<path class="st3" d="M83.96,59.761c0.09,0.354,1.648,3.847,4.2,4.853c0.21-2.338,0.692-5.261,1.728-8.261
				c-0.549,0.03-1.108,0.112-1.635,0.246C84.861,57.462,83.845,59.306,83.96,59.761z"/>
		</g>
		<path class="st24" d="M76.645,59.721c-0.546,0.035-1.156,0.127-1.83,0.299c-2.167,0.552-4.377,2.118-4.042,3.437
			c0.276,1.085,1.515,4.298,4.115,4.854c0.563,0.12,1.188,0.118,1.882-0.058c3.9-0.993,3.441-7.056,3.325-7.508
			C80.003,60.38,78.846,59.581,76.645,59.721z"/>
		<g class="st25">
			<path class="st3" d="M70.773,63.457c0.276,1.085,1.515,4.298,4.115,4.854c0.197-2.39,0.669-5.449,1.756-8.59
				c-0.546,0.035-1.156,0.127-1.83,0.299C72.647,60.571,70.437,62.138,70.773,63.457z"/>
		</g>
		<path class="st3" d="M73.023,63.47c0.192,0.754-0.019,1.459-0.472,1.574c-0.452,0.115-0.975-0.403-1.167-1.157
			c-0.192-0.754,0.019-1.459,0.472-1.574C72.309,62.197,72.831,62.716,73.023,63.47z"/>
		<path class="st3" d="M73.468,65.872c0.07,0.275-0.053,0.544-0.275,0.6s-0.458-0.121-0.528-0.396
			c-0.07-0.275,0.053-0.544,0.275-0.6C73.161,65.421,73.398,65.598,73.468,65.872z"/>
		<path class="st3" d="M86.966,59.92c0.192,0.754-0.019,1.459-0.472,1.574c-0.452,0.115-0.975-0.403-1.167-1.157
			s0.019-1.459,0.472-1.574C86.252,58.649,86.774,59.167,86.966,59.92z"/>
		<path class="st3" d="M87.41,62.323c0.07,0.275-0.053,0.544-0.275,0.6c-0.222,0.057-0.458-0.121-0.528-0.396s0.053-0.544,0.275-0.6
			C87.104,61.872,87.341,62.049,87.41,62.323z"/>
	</g>
</g>
<g>
	<polygon class="st0" points="173.915,47.055 209.399,78.342 219.717,124.512 200.926,167.928 160.203,192.008 113.105,187.553 
		77.62,156.266 67.303,110.096 86.094,66.68 126.816,42.6 	"/>
	<polygon class="st3" points="167.382,54.088 202.867,85.374 213.184,131.544 194.393,174.962 153.671,199.042 106.572,194.587 
		71.088,163.298 60.77,117.128 79.561,73.712 120.283,49.632 	"/>
	<polygon class="st26" points="202.867,85.374 167.382,54.088 120.283,49.632 79.561,73.712 60.77,117.128 213.184,131.544 	"/>
	<polygon class="st5" points="153.671,199.042 136.977,124.337 106.572,194.587 	"/>
	<polygon class="st5" points="136.977,124.337 194.393,174.962 213.184,131.544 	"/>
	<polygon class="st5" points="71.088,163.298 136.977,124.337 60.77,117.128 	"/>
	<polygon class="st27" points="202.867,85.374 136.977,124.337 167.382,54.088 	"/>
	<polygon class="st27" points="120.283,49.632 136.977,124.337 79.561,73.712 	"/>
	<path class="st28" d="M131.575,123.826c0.282-2.983,2.93-5.173,5.913-4.891s5.173,2.93,4.891,5.913s-2.929,5.173-5.913,4.891
		C133.483,129.456,131.293,126.809,131.575,123.826z"/>
</g>
</svg>
