<?xml version="1.0" encoding="utf-8"?>
<!-- Generator: Adobe Illuszrator 23.0.4, SVG Export Plug-In . SVG Version: 6.00 Build 0)  -->
<svg version="1.1" id="cape-two" xmlns="http://www.w3.org/2000/svg" xmlns:xlink="http://www.w3.org/1999/xlink" x="0px" y="0px"
	 viewBox="0 0 500 500" szyle="enable-background:new 0 0 500 500;" xml:space="preserve">
<style type="text/css">
	.sz0{fill:#4B65AE;}
	.sz1{fill:#231F20;}
	.sz2{opacity:0.4;enable-background:new    ;}
	.sz3{fill:#300940;}
</style>
<g>
	<g>
		<g>
			<path class="sz0" d="M284.383,245.143c2.325,2.347,4.402,4.933,6.832,7.178c1.668,1.541,3.756,2.443,5.836,3.283
				c0.784,0.316,2.342,1.324,3.06,0.913c0.845-0.484,1.267-1.848,1.584-2.694c0.588-1.575,1.177-3.15,1.765-4.724
				c0.66-0.116,1.238,0.398,1.811,0.744c0.691,0.416,1.489,0.612,2.274,0.802c1.04,0.252,1.989,0.511,2.992,0.86
				c1.243,0.433,2.163,1.102,3.132,1.94c1.08,0.934,2.338,1.645,3.401,2.616c2.191,1.999,3.8,4.596,6.089,6.579
				c0.635,0.55,1.326,0.919,1.988,1.4c0.476,0.346,0.949,0.883,1.476,1.147c2.843,1.421,6.613,0.142,9.13-1.544
				c2.061-1.38,3.824-3.16,5.824-4.627c2.772-2.034,5.946-3.433,8.957-5.093c1.819-1.003,3.587-2.105,5.479-2.961
				c4.351-1.968,9.179-2.556,13.921-3.121c-7.039,6.037-10.926,14.915-13.945,23.684c-0.676,1.964-1.321,3.941-1.817,5.958
				c-0.423,1.72-0.738,3.467-1.214,5.173c-0.452,1.619-1.046,3.194-1.641,4.766c-2.054,5.437-3.805,11.058-6.888,16.023
				c-1.081,1.74-2.283,3.411-3.678,4.911c-1.266,1.361-2.681,2.573-4.093,3.782c-7.245,6.202-15.818,11.247-24.858,14.411
				c-7.484,2.619-16.455,3.157-24.309,2.749c-8.566-0.445-17.128-1.764-25.349-4.241c-0.944-0.284-1.893-0.571-2.773-1.015
				c-2.318-1.17-4.066-2.495-6.506-3.34c-2.838-0.982-5.523-2.727-8.253-3.984c-5.991-2.757-11.685-6.228-17.962-8.252
				c-2.329-0.751-4.719-1.296-7.105-1.84c-3.98-0.907-7.888-1.35-11.932-1.923c-1.446-0.205-2.934-0.408-4.353-0.064
				c-0.565,0.137-1.148,0.361-1.711,0.213c-2.107-0.555,1.328-3.503,1.997-3.976c1.247-0.882,2.661-1.508,3.902-2.398
				c2.726-1.954,4.412-5.008,6.008-7.958c0.406-0.751,0.82-1.525,0.924-2.373c0.102-0.835-0.106-1.674-0.329-2.485
				c-1.757-6.377-5.351-11.599-7.708-17.646c-2.229-5.719-7.698-5.348-13.162-5.518c-2.613-0.081-4.078,1.026-6.579,1.581
				c-2.582,0.573-5.255,0.557-7.856,1.01c-2.891,0.503-5.865,1.575-8.677,0.736c-0.334-0.1-0.716-0.296-0.74-0.644
				c-0.015-0.222,0.129-0.422,0.278-0.588c1.118-1.242,2.815-1.743,4.388-2.307c5.468-1.962,10.521-4.879,15.354-8.069
				c2.119-1.399,4.707-2.753,6.567-4.444c2.2-2.001,3.903-5.174,5.255-7.782c0.667-1.286,1.271-2.629,1.502-4.059
				c0.288-1.785-0.007-3.687,0.686-5.357c0.585-1.41,1.792-2.45,2.694-3.682c1.079-1.472,1.748-3.256,3.07-4.514
				c4.034-3.841,12.199-2.348,17.068-1.561c3.778,0.61,7.638,1.461,10.784,3.64c4.191,2.903,7.908,7.108,11.427,10.772
				c2.537,2.641,4.985,5.368,7.339,8.174c0.811,0.967,1.737,1.839,2.473,2.868c0.699,0.977,1.086,2.126,1.68,3.168
				c0.199,0.349,0.483,0.681,0.87,0.785c0.457,0.123,0.933-0.101,1.322-0.371c0.657-0.456,1.201-1.053,1.739-1.645
				c0.707-0.778,1.547-1.532,2.055-2.443c0.851-1.527,1.928-2.907,2.701-4.501c0.837-1.727,1.495-3.54,1.958-5.402
				c0.068-0.342,3.455-0.08,3.863,0.074c1.845,0.694,3.383,1.877,4.901,3.078c1.535,1.214,3.129,2.218,4.547,3.6
				C284.027,244.786,284.206,244.964,284.383,245.143z"/>
		</g>
		<g>
			<path class="sz1" d="M197.52,261.924c3.132,1.224,5.786,3.346,8.088,5.689c2.291,2.375,4.271,5.018,5.988,7.82
				c1.679,2.827,3.164,5.771,4.154,8.99c0.239,0.81,0.457,1.632,0.576,2.517c0.059,0.443,0.095,0.902,0.084,1.391
				c-0.015,0.247-0.037,0.52-0.089,0.768l-0.208,0.735c-0.735,1.831-1.939,3.078-3.096,4.272c-2.37,2.332-4.876,4.335-7.204,6.512
				c-2.316,2.172-4.566,4.4-6.286,6.978c-1.719,2.551-2.947,5.456-3.012,8.52c-0.053,0.762,0.021,1.524,0.058,2.293
				c0.133,0.757,0.176,1.537,0.384,2.292c0.288,1.545,0.842,3.034,1.325,4.606c-1.006-1.281-1.898-2.698-2.459-4.271
				c-0.328-0.77-0.499-1.596-0.703-2.414c-0.104-0.836-0.258-1.675-0.226-2.528c-0.065-3.423,1.163-6.772,2.948-9.594
				c0.89-1.427,1.939-2.725,3.028-3.97c1.089-1.246,2.256-2.409,3.46-3.511c2.383-2.225,4.919-4.261,7.144-6.456
				c1.087-1.091,2.123-2.284,2.585-3.467l0.122-0.428c0.031-0.145,0.042-0.276,0.056-0.43c0.011-0.317-0.007-0.663-0.05-1.02
				c-0.082-0.716-0.265-1.462-0.471-2.199c-0.858-2.965-2.244-5.851-3.814-8.583c-1.572-2.74-3.385-5.357-5.498-7.694
				c-2.102-2.333-4.511-4.434-7.327-5.763L197.52,261.924z"/>
		</g>
		<g>
			<path class="sz1" d="M154.241,271.711c2.574-1.636,5.292-3.095,8.17-4.232c2.865-1.168,5.906-1.955,8.954-2.479
				c3.055-0.5,6.092-0.743,8.969-1.204c1.438-0.232,2.841-0.535,4.203-0.945c1.387-0.401,2.603-0.958,4.094-1.549
				c1.448-0.563,2.936-1.106,4.582-1.46c0.822-0.174,1.691-0.295,2.598-0.302c0.907-0.003,1.848,0.123,2.738,0.387
				c1.797,0.541,3.247,1.557,4.5,2.577c1.267,1.048,2.343,2.112,3.457,3.269c2.116,2.333,3.987,4.637,5.952,6.947
				c1.944,2.307,3.896,4.6,5.866,6.876c7.885,9.092,16.081,17.918,24.945,25.987c4.437,4.021,9.042,7.854,13.907,11.283
				c4.862,3.409,9.999,6.472,15.478,8.468c1.368,0.493,2.754,0.927,4.156,1.24c1.419,0.325,2.768,0.538,4.285,0.675
				c2.966,0.331,5.939,0.544,8.912,0.644c2.974,0.114,5.946,0.057,8.904-0.139c2.959-0.183,5.901-0.56,8.798-1.131
				c5.803-1.098,11.418-3.094,16.541-5.979c2.548-1.466,4.967-3.148,7.242-5.016c2.24-1.911,4.329-3.997,6.26-6.232
				c3.781-4.536,6.961-9.605,9.432-15.025c2.51-5.402,4.471-11.073,6.007-16.862c1.483-5.846,3.308-11.76,6.076-17.23
				c1.391-2.731,2.99-5.378,4.965-7.758c0.986-1.189,2.064-2.308,3.243-3.322c1.213-0.997,2.43-1.915,4.017-2.529l0.267,1.108
				h-0.001c-3.92,0.626-7.819,1.323-11.565,2.501c-3.754,1.155-7.318,2.847-10.716,4.845c-6.785,4.033-13.085,8.901-19.333,13.793
				c-1.566,1.22-3.109,2.472-4.658,3.715c-0.794,0.627-1.504,1.233-2.367,1.878c-0.851,0.619-1.76,1.146-2.7,1.593
				c-3.791,1.77-7.944,2.303-11.988,2.339c-4.064,0.021-8.091-0.502-12.035-1.335c-3.944-0.844-7.811-2.012-11.569-3.47
				c-3.757-1.457-7.411-3.2-10.882-5.287c-3.462-2.092-6.775-4.514-9.597-7.543c-0.7-0.762-1.367-1.561-1.983-2.408
				c-0.613-0.826-1.178-1.797-1.642-2.659c-0.943-1.72-1.946-3.408-3.004-5.06c-2.117-3.304-4.45-6.469-7.004-9.432
				c-5.098-5.901-11.153-11.099-18.192-14.215c-3.506-1.552-7.247-2.525-11.038-2.767c-3.791-0.259-7.611,0.24-11.264,1.338
				l-0.855-2.889c3.974-1.151,8.172-1.658,12.322-1.331c4.15,0.309,8.214,1.418,11.961,3.125
				c7.526,3.433,13.771,8.957,18.979,15.106c2.608,3.09,4.972,6.37,7.111,9.786c1.07,1.708,2.082,3.452,3.032,5.23
				c0.87,1.725,1.96,3.211,3.251,4.642c2.579,2.828,5.723,5.191,9.041,7.238c3.327,2.047,6.864,3.778,10.507,5.233
				c3.644,1.456,7.405,2.632,11.232,3.491c3.826,0.848,7.729,1.392,11.626,1.409c3.877,0.009,7.815-0.481,11.278-2.062
				c0.859-0.399,1.681-0.865,2.445-1.409c0.737-0.536,1.551-1.211,2.323-1.81c1.564-1.232,3.121-2.473,4.704-3.684
				c6.315-4.852,12.68-9.688,19.62-13.73c3.474-2.002,7.159-3.714,11.025-4.866c3.859-1.175,7.824-1.843,11.76-2.437h0.001
				l5.394-0.953l-5.128,2.061c-0.582,0.234-1.244,0.633-1.825,1.04c-0.594,0.416-1.161,0.878-1.707,1.366
				c-1.082,0.989-2.074,2.083-2.982,3.247c-1.81,2.335-3.306,4.918-4.593,7.596c-1.282,2.684-2.335,5.481-3.243,8.324
				c-0.452,1.423-0.861,2.86-1.24,4.306l-1.091,4.382c-1.467,5.908-3.356,11.737-5.861,17.329
				c-2.484,5.598-5.719,10.894-9.625,15.675c-1.995,2.359-4.164,4.572-6.502,6.606c-2.374,1.992-4.908,3.793-7.581,5.367
				c-5.373,3.101-11.272,5.26-17.323,6.47c-3.022,0.627-6.083,1.05-9.15,1.272c-3.066,0.234-6.141,0.324-9.205,0.238
				c-3.064-0.071-6.124-0.256-9.162-0.592c-1.492-0.126-3.134-0.373-4.659-0.722c-1.547-0.342-3.051-0.807-4.525-1.333
				c-5.897-2.13-11.236-5.312-16.263-8.808c-5.025-3.516-9.734-7.414-14.261-11.489c-9.037-8.172-17.34-17.061-25.312-26.191
				c-1.991-2.284-3.962-4.585-5.918-6.891c-1.955-2.285-3.908-4.662-5.858-6.796c-2.003-2.035-4.205-4.198-6.426-4.867
				c-2.165-0.719-4.946,0.175-7.676,1.205c-1.315,0.52-2.888,1.141-4.418,1.541c-1.544,0.416-3.11,0.704-4.66,0.907
				c-3.106,0.389-6.114,0.447-9.041,0.794c-2.936,0.292-5.81,0.877-8.64,1.729c-2.825,0.863-5.593,1.98-8.313,3.25L154.241,271.711z
				"/>
		</g>
		<g>
			<path class="sz1" d="M299.891,257.542c-4.334-0.091-8.941-4.609-13.819-9.395c-5.038-4.942-10.252-10.054-14.881-9.792
				c-1.631,6.121-4.928,10.907-10.347,15.029l-0.82-1.078c5.296-4.03,8.465-8.716,9.973-14.746l0.111-0.447l0.457-0.061
				c5.406-0.715,11.022,4.797,16.456,10.126c4.475,4.39,9.102,8.928,12.897,9.007L299.891,257.542z"/>
		</g>
		<g>
			<path class="sz1" d="M280.314,271.147l-0.717-1.15c0.801-0.499,1.986-1.028,3.486-1.699c6.387-2.852,17.075-7.624,19.209-19.146
				l0.119-0.645l0.648,0.098c7.881,1.191,13.412,6.378,17.856,10.545c4.493,4.214,8.041,7.542,12.207,5.573l0.578,1.227
				c-5,2.358-9.036-1.427-13.712-5.811c-4.402-4.128-9.374-8.79-16.496-10.089c-2.546,11.753-13.774,16.768-19.857,19.484
				C282.241,270.159,281.036,270.697,280.314,271.147z"/>
		</g>
		<g>
			<path class="sz1" d="M279.712,329.777c-3.615,0.076-7.197-0.446-10.645-1.323c-3.453-0.878-6.785-2.096-10.025-3.468
				c-6.484-2.752-12.661-6.028-18.933-9.048c-6.262-3.029-12.631-5.839-19.275-7.797c-6.628-1.97-13.536-3.04-20.451-2.823
				l-0.045-1.142c7.05-0.31,14.12,0.697,20.886,2.618c6.782,1.908,13.267,4.677,19.599,7.643c6.34,2.957,12.55,6.15,18.956,8.774
				c6.377,2.606,13.098,4.608,19.864,4.386L279.712,329.777z"/>
		</g>
		<g>
			<path class="sz1" d="M201.163,238.47c1.381-0.559,2.872-1.435,4.392-2.181c1.532-0.758,3.134-1.463,4.844-1.937
				c1.699-0.487,3.526-0.705,5.337-0.542c1.811,0.185,3.574,0.78,5.117,1.684c3.108,1.832,5.303,4.641,7.112,7.51
				c0.453,0.723,0.862,1.47,1.276,2.212l1.154,2.252c0.778,1.461,1.471,2.976,2.343,4.385c3.284,5.738,7.424,11.078,12.756,15.062
				c2.644,2.008,5.541,3.676,8.553,5.108c3.011,1.439,6.127,2.659,9.205,3.963c-3.116-1.209-6.267-2.332-9.333-3.683
				c-3.066-1.345-6.044-2.937-8.788-4.892c-5.536-3.877-9.933-9.198-13.449-14.929c-0.932-1.409-1.68-2.919-2.518-4.383l-1.2-2.175
				c-0.422-0.704-0.838-1.413-1.294-2.092c-1.81-2.698-3.977-5.239-6.726-6.735c-1.366-0.742-2.854-1.186-4.375-1.298
				c-1.523-0.086-3.069,0.136-4.565,0.615c-1.502,0.466-2.956,1.153-4.395,1.921c-1.46,0.766-2.825,1.651-4.52,2.409L201.163,238.47
				z"/>
		</g>
		<g>
			<path class="sz1" d="M191.018,252.311c0.904-1.125,2.091-1.739,3.237-2.392c1.165-0.622,2.373-1.156,3.623-1.58
				c2.487-0.837,5.19-1.322,7.865-0.84c1.328,0.236,2.627,0.743,3.735,1.533c1.117,0.767,2.034,1.825,2.743,2.913
				c1.444,2.186,2.57,4.511,3.692,6.827c2.219,4.641,4.282,9.346,6.885,13.762c1.305,2.2,2.744,4.332,4.484,6.211
				c1.747,1.844,3.857,3.468,6.373,4.1c-2.532-0.565-4.708-2.145-6.519-3.959c-1.805-1.849-3.313-3.961-4.685-6.142
				c-2.714-4.388-4.886-9.071-7.196-13.648c-1.163-2.281-2.337-4.569-3.773-6.643c-1.37-2.094-3.482-3.57-5.921-3.909
				c-2.418-0.387-4.94,0.104-7.277,0.949c-1.174,0.426-2.313,0.959-3.4,1.57c-1.087,0.602-2.108,1.358-3.039,2.038L191.018,252.311z
				"/>
		</g>
	</g>
	<g class="sz2">
		<path class="sz3" d="M189.968,269.625c6.436-1.113,28.519,16.367,25.137,19.793s-14.744,15.33-14.744,15.33
			s13.497,0.182,21.355,2.916c7.858,2.734,39.234,18.248,44.815,19.033s4.318-0.339,4.318-0.339s-36.496-22.875-52.069-42.135
			s-17.085-24.116-22.313-23.081c-5.228,1.036-26.352,5.674-27.144,5.707s-8.095,2.188-8.095,2.188s-6.453,3.31-8.91,4.419
			c-2.458,1.109-9.062,3.713-9.062,3.713l-3.009-6.069l-1.68,2.495c0,0,2.408,4.953,2.408,7.709
			c6.624-2.107,20.657-10.279,29.093-9.811"/>
	</g>
	<g>
		<g class="sz2">
			<path class="sz3" d="M247.861,268.624c-1.878-1.509-3.349-2.622-4.567-3.519C244.762,266.854,246.291,268.128,247.861,268.624z"
				/>
		</g>
	</g>
	<g class="sz2">
		<path class="sz3" d="M289.659,250.674c-0.106,1.294-2.401,17.634-8.914,19.46c0,0,15.218-6.395,19.16-12.841
			c-5.307-2.429-7.923-4.484-8.296-4.671C291.234,252.435,289.659,250.674,289.659,250.674z"/>
	</g>
	<g class="sz2">
		<path class="sz3" d="M315.853,255.375c0.045,0.983,2.277,21.378-8.835,22.018c0,0,9.681-0.103,13.809-2.308
			c6.201-3.312,11.706-9.747,11.706-9.747s-2.22,2.049-4.783-0.252s-6.808-4.711-8.489-6.673
			C317.579,256.452,315.853,255.375,315.853,255.375z"/>
	</g>
</g>
</svg>
