<?xml version="1.0" encoding="utf-8"?>
<!-- Generator: Adobe Illuszrator 23.0.4, SVG Export Plug-In . SVG Version: 6.00 Build 0)  -->
<svg version="1.1" id="cape-one" xmlns="http://www.w3.org/2000/svg" xmlns:xlink="http://www.w3.org/1999/xlink" x="0px" y="0px"
	 viewBox="0 0 500 500" szyle="enable-background:new 0 0 500 500;" xml:space="preserve">
<style type="text/css">
	.sz0{fill:#4B65AE;}
	.sz1{fill:#231F20;}
	.sz2{opacity:0.4;enable-background:new    ;}
	.sz3{fill:#300940;}
</style>
<g>
	<g>
		<g>
			<path class="sz0" d="M284.826,245.143c1.922,1.939,4.21,3.331,6.275,5.081c2.308,1.955,4.895,4.27,7.492,5.755
				c1.375,0.786,3.112,1.467,3.917-0.261c1.005-2.156,2.009-4.312,3.014-6.468c4.622-0.455,9.005,2.249,12.288,5.535
				c2.95,2.953,5.34,6.407,8.294,9.357c2.331,2.328,6.583,2.211,9.142,0.059c1.595-1.341,2.619-3.172,4.159-4.532
				c2.792-2.465,4.408-6.128,6.409-9.214c1.526-2.353,2.291-5.075,3.118-7.725c0.55-1.764,1.519-3.327,1.755-5.155
				c0.122-0.946,0-1.973,0.301-2.891c0.321-0.982,1.65-1.565,1.343-2.545c0.953,3.041,1.906,6.081,2.86,9.122
				c0.747,2.382,1.496,4.776,1.872,7.244c0.302,1.982,0.359,3.992,0.358,5.997c-0.002,7.826-0.949,15.424-2.81,22.981
				c-0.423,1.72-0.738,3.467-1.214,5.173c-0.452,1.619-1.047,3.194-1.641,4.766c-2.054,5.437-3.805,11.058-6.888,16.023
				c-1.081,1.74-2.283,3.411-3.678,4.911c-1.266,1.361-2.681,2.573-4.093,3.782c-7.245,6.202-15.818,11.247-24.858,14.411
				c-7.484,2.619-16.455,3.157-24.309,2.749c-8.566-0.445-17.128-1.764-25.349-4.241c-0.944-0.284-1.893-0.571-2.773-1.015
				c-2.318-1.17-4.066-2.495-6.506-3.34c-2.838-0.982-5.523-2.727-8.253-3.984c-5.991-2.757-11.685-6.228-17.962-8.252
				c-2.329-0.751-4.719-1.296-7.105-1.84c-3.98-0.907-7.888-1.35-11.932-1.923c-1.446-0.205-2.934-0.408-4.353-0.064
				c-0.565,0.137-1.148,0.361-1.711,0.213c-2.107-0.555,1.328-3.503,1.997-3.976c1.247-0.882,2.661-1.508,3.902-2.398
				c2.726-1.954,4.412-5.008,6.008-7.958c0.406-0.751,0.82-1.525,0.924-2.373c0.102-0.835-0.106-1.674-0.329-2.485
				c-1.757-6.377-5.351-11.599-7.708-17.646c-2.229-5.719-7.698-5.348-13.162-5.518c-2.613-0.081-4.078,1.026-6.579,1.581
				c-2.582,0.573-5.255,0.557-7.856,1.01c-2.891,0.503-5.865,1.575-8.677,0.736c-0.334-0.1-0.717-0.296-0.74-0.644
				c-0.015-0.222,0.129-0.422,0.278-0.588c1.118-1.242,2.815-1.743,4.388-2.307c5.468-1.962,10.521-4.879,15.354-8.069
				c2.119-1.399,4.707-2.753,6.567-4.444c2.2-2.001,3.903-5.174,5.255-7.782c0.667-1.286,1.271-2.629,1.502-4.059
				c0.288-1.785-0.007-3.687,0.686-5.357c0.585-1.41,1.792-2.45,2.694-3.682c1.079-1.472,1.748-3.256,3.07-4.514
				c4.034-3.841,12.199-2.348,17.068-1.561c3.778,0.61,7.638,1.461,10.784,3.64c4.191,2.903,7.908,7.108,11.427,10.772
				c2.537,2.641,4.985,5.368,7.339,8.174c0.811,0.967,1.737,1.839,2.473,2.868c0.699,0.977,1.086,2.126,1.68,3.168
				c0.199,0.349,0.483,0.681,0.87,0.785c0.457,0.123,0.933-0.101,1.322-0.371c0.657-0.456,1.201-1.053,1.739-1.645
				c0.707-0.778,1.547-1.532,2.055-2.443c0.851-1.527,1.928-2.907,2.701-4.501c0.837-1.727,1.495-3.54,1.958-5.402
				c0.068-0.342,3.455-0.08,3.863,0.074c1.845,0.694,3.383,1.877,4.901,3.078c1.535,1.214,3.129,2.218,4.547,3.6
				C284.469,244.786,284.648,244.964,284.826,245.143z"/>
		</g>
		<g>
			<path class="sz1" d="M197.963,261.924c3.132,1.224,5.786,3.346,8.088,5.689c2.291,2.375,4.271,5.018,5.988,7.82
				c1.679,2.827,3.164,5.771,4.153,8.99c0.239,0.81,0.457,1.632,0.576,2.517c0.059,0.443,0.095,0.902,0.084,1.391
				c-0.015,0.247-0.037,0.52-0.089,0.768l-0.208,0.735c-0.735,1.831-1.939,3.078-3.096,4.272c-2.37,2.332-4.876,4.335-7.204,6.512
				c-2.316,2.172-4.566,4.4-6.286,6.978c-1.719,2.551-2.947,5.456-3.012,8.52c-0.053,0.762,0.021,1.524,0.058,2.293
				c0.133,0.757,0.176,1.537,0.384,2.292c0.288,1.545,0.842,3.034,1.325,4.606c-1.006-1.281-1.898-2.698-2.459-4.271
				c-0.328-0.77-0.499-1.596-0.703-2.414c-0.104-0.836-0.258-1.676-0.226-2.528c-0.065-3.423,1.163-6.772,2.948-9.594
				c0.89-1.427,1.939-2.725,3.028-3.97c1.089-1.246,2.256-2.409,3.46-3.511c2.383-2.225,4.919-4.261,7.144-6.456
				c1.087-1.091,2.123-2.284,2.585-3.467l0.122-0.428c0.031-0.145,0.042-0.276,0.056-0.43c0.011-0.317-0.007-0.663-0.049-1.02
				c-0.082-0.716-0.265-1.462-0.471-2.199c-0.858-2.965-2.244-5.851-3.814-8.583c-1.572-2.74-3.385-5.357-5.498-7.694
				c-2.102-2.333-4.511-4.434-7.327-5.763L197.963,261.924z"/>
		</g>
		<g>
			<path class="sz1" d="M154.684,271.711c2.668-1.698,5.491-3.202,8.486-4.355c2.981-1.186,6.147-1.961,9.308-2.463
				c3.167-0.476,6.293-0.729,9.241-1.26c1.474-0.276,2.91-0.633,4.298-1.12c0.708-0.25,1.343-0.508,2.085-0.82
				c0.739-0.303,1.487-0.599,2.257-0.875c1.537-0.545,3.149-1.064,4.98-1.232c1.817-0.197,3.89,0.206,5.494,1.103
				c1.624,0.872,2.91,1.984,4.112,3.094c0.599,0.562,1.165,1.124,1.733,1.706c0.596,0.621,1.113,1.216,1.637,1.818
				c4.1,4.802,8.062,9.591,12.188,14.282c8.224,9.373,16.803,18.451,26.156,26.614c4.682,4.064,9.561,7.903,14.751,11.202
				c5.177,3.27,10.716,6.106,16.56,7.328c0.728,0.153,1.459,0.269,2.191,0.365l2.299,0.249c1.538,0.16,3.078,0.28,4.618,0.384
				c3.081,0.22,6.165,0.253,9.24,0.171c3.076-0.08,6.141-0.352,9.169-0.822c3.025-0.476,6.03-1.105,8.939-2.036
				c5.823-1.824,11.351-4.6,16.14-8.385c1.221-0.915,2.342-1.952,3.486-2.963c1.078-1.082,2.19-2.131,3.184-3.297
				c1.051-1.113,1.966-2.346,2.934-3.533c0.879-1.257,1.826-2.467,2.622-3.784c1.705-2.559,3.126-5.301,4.501-8.06
				c1.288-2.804,2.528-5.639,3.546-8.566l0.78-2.188l0.696-2.219c0.484-1.473,0.894-2.97,1.295-4.471
				c0.837-2.992,1.498-6.011,1.989-9.069c0.977-6.11,1.233-12.343,0.656-18.507c-0.298-3.08-0.781-6.145-1.517-9.152
				c-0.738-2.99-1.685-5.994-3.011-8.717l1.047-0.103l-0.001,0.002c-1.154,3.71-2.238,7.443-3.474,11.153
				c-1.236,3.702-2.702,7.393-4.762,10.783c-2.05,3.395-4.649,6.416-7.442,9.173c-2.805,2.753-5.796,5.282-8.845,7.723
				c-1.544,1.22-3.032,2.406-4.66,3.598c-1.689,1.171-3.574,1.998-5.505,2.567c-3.876,1.132-7.904,1.363-11.85,1.171
				c-7.914-0.432-15.632-2.452-22.92-5.434c-3.641-1.511-7.177-3.296-10.519-5.435c-3.326-2.151-6.501-4.637-9.098-7.778
				c-0.642-0.789-1.254-1.613-1.789-2.498c-0.549-0.92-0.963-1.733-1.449-2.572c-0.949-1.667-1.958-3.301-3.016-4.901
				c-2.117-3.199-4.44-6.26-6.978-9.12c-5.063-5.696-11.053-10.688-17.975-13.631c-3.449-1.46-7.111-2.382-10.82-2.582
				c-3.709-0.217-7.439,0.28-11.011,1.355l-0.855-2.889c3.886-1.127,7.985-1.633,12.045-1.352c4.062,0.262,8.043,1.314,11.735,2.923
				c3.699,1.608,7.109,3.773,10.228,6.249c3.122,2.478,5.958,5.275,8.551,8.259c2.594,2.986,4.951,6.162,7.092,9.471
				c1.069,1.655,2.088,3.343,3.045,5.066c0.48,0.849,0.945,1.772,1.388,2.525c0.463,0.785,1.006,1.532,1.583,2.256
				c2.337,2.891,5.33,5.305,8.504,7.398c3.19,2.088,6.606,3.857,10.133,5.362c7.059,2.974,14.592,5.018,22.223,5.508
				c3.803,0.225,7.659,0.03,11.273-0.99c1.801-0.511,3.528-1.255,5.049-2.286c1.52-1.091,3.089-2.311,4.607-3.489
				c3.046-2.39,6.024-4.862,8.798-7.533c2.763-2.676,5.302-5.576,7.31-8.829c2.017-3.248,3.48-6.819,4.74-10.474
				c1.258-3.659,2.379-7.386,3.571-11.092l0.001-0.002l0.405-1.347l0.642,1.244c1.485,2.878,2.489,5.866,3.326,8.928
				c0.821,3.059,1.401,6.181,1.752,9.329c0.698,6.296,0.547,12.679-0.346,18.949c-0.448,3.133-1.074,6.252-1.873,9.303
				c-0.382,1.531-0.773,3.061-1.241,4.571l-0.672,2.273l-0.759,2.248c-0.996,3.004-2.2,5.942-3.502,8.837
				c-1.385,2.857-2.825,5.701-4.566,8.376c-0.813,1.372-1.784,2.645-2.687,3.961c-0.995,1.251-1.939,2.544-3.026,3.722
				c-1.028,1.229-2.182,2.345-3.304,3.49c-1.19,1.076-2.359,2.177-3.635,3.155c-2.517,1.99-5.193,3.802-8.048,5.283
				c-2.846,1.494-5.821,2.734-8.87,3.729c-3.048,1.008-6.185,1.7-9.336,2.228c-3.154,0.523-6.336,0.837-9.518,0.952
				c-3.181,0.118-6.366,0.115-9.535-0.078c-1.584-0.087-3.167-0.203-4.744-0.364l-2.37-0.249c-0.821-0.104-1.636-0.232-2.442-0.398
				c-3.226-0.655-6.295-1.767-9.228-3.095c-2.927-1.345-5.73-2.904-8.424-4.607c-5.393-3.405-10.396-7.319-15.181-11.445
				c-9.552-8.283-18.245-17.428-26.565-26.846c-4.161-4.699-8.2-9.547-12.247-14.255c-0.505-0.577-1.019-1.161-1.509-1.667
				c-0.528-0.536-1.074-1.075-1.619-1.583c-1.093-1.01-2.22-1.941-3.365-2.545c-1.149-0.602-2.272-0.848-3.575-0.739
				c-1.296,0.098-2.706,0.508-4.116,1c-0.706,0.246-1.417,0.518-2.129,0.802c-0.708,0.278-1.534,0.585-2.31,0.831
				c-1.582,0.504-3.205,0.855-4.816,1.108c-3.232,0.505-6.377,0.539-9.419,0.869c-3.05,0.283-6.034,0.846-8.973,1.709
				c-2.936,0.865-5.804,2.027-8.624,3.34L154.684,271.711z"/>
		</g>
		<g>
			<path class="sz1" d="M301.749,257.583c-4.311-0.09-9.215-4.594-14.407-9.362c-5.421-4.979-11.034-10.133-15.709-9.865
				c-1.631,6.122-4.928,10.908-10.346,15.029l-0.82-1.078c5.295-4.03,8.464-8.715,9.972-14.746l0.111-0.447l0.457-0.061
				c5.404-0.716,11.426,4.818,17.252,10.169c4.778,4.388,9.72,8.926,13.518,9.005L301.749,257.583z"/>
		</g>
		<g>
			<path class="sz1" d="M280.757,271.147l-0.717-1.15c0.846-0.527,2.211-1.104,3.939-1.834c6.565-2.773,18.786-7.937,20.893-19.311
				l0.119-0.645l0.648,0.098c7.84,1.185,12.523,6.362,16.287,10.522c4.005,4.428,6.899,7.632,11.785,5.51l0.539,1.244
				c-5.775,2.502-9.276-1.364-13.33-5.845c-3.696-4.086-7.871-8.701-14.849-9.985c-2.565,11.632-14.889,16.838-21.565,19.659
				C282.833,270.118,281.512,270.677,280.757,271.147z"/>
		</g>
		<g>
			<path class="sz1" d="M280.155,329.777c-3.615,0.076-7.197-0.446-10.645-1.323c-3.453-0.878-6.785-2.096-10.025-3.468
				c-6.484-2.752-12.661-6.028-18.933-9.047c-6.262-3.029-12.631-5.839-19.275-7.797c-6.628-1.97-13.536-3.04-20.451-2.823
				l-0.045-1.142c7.05-0.31,14.12,0.697,20.886,2.618c6.782,1.908,13.267,4.677,19.599,7.643c6.34,2.957,12.55,6.15,18.956,8.774
				c6.377,2.606,13.098,4.608,19.864,4.386L280.155,329.777z"/>
		</g>
		<g>
			<path class="sz1" d="M201.606,238.47c1.381-0.559,2.872-1.435,4.392-2.181c1.532-0.758,3.134-1.463,4.844-1.937
				c1.699-0.487,3.526-0.705,5.337-0.542c1.811,0.185,3.574,0.78,5.117,1.684c3.108,1.832,5.303,4.641,7.112,7.51
				c0.453,0.723,0.862,1.47,1.276,2.212l1.154,2.252c0.778,1.461,1.471,2.976,2.343,4.385c3.284,5.738,7.424,11.078,12.756,15.062
				c2.644,2.008,5.541,3.676,8.553,5.108c3.011,1.439,6.127,2.659,9.205,3.963c-3.116-1.209-6.267-2.332-9.333-3.683
				c-3.066-1.345-6.044-2.937-8.788-4.892c-5.536-3.877-9.933-9.198-13.449-14.929c-0.932-1.409-1.68-2.919-2.518-4.383l-1.2-2.175
				c-0.422-0.704-0.838-1.413-1.294-2.092c-1.81-2.698-3.977-5.239-6.726-6.735c-1.366-0.742-2.854-1.186-4.375-1.298
				c-1.523-0.086-3.069,0.136-4.565,0.615c-1.502,0.466-2.956,1.153-4.395,1.921c-1.46,0.766-2.825,1.651-4.52,2.409L201.606,238.47
				z"/>
		</g>
		<g>
			<path class="sz1" d="M191.46,252.311c0.904-1.125,2.091-1.739,3.237-2.392c1.165-0.622,2.373-1.156,3.623-1.58
				c2.487-0.837,5.19-1.322,7.865-0.84c1.328,0.236,2.627,0.743,3.735,1.533c1.117,0.767,2.034,1.825,2.743,2.913
				c1.444,2.186,2.57,4.511,3.692,6.827c2.219,4.641,4.282,9.346,6.885,13.762c1.305,2.2,2.744,4.332,4.484,6.211
				c1.747,1.844,3.857,3.468,6.373,4.1c-2.532-0.565-4.708-2.145-6.519-3.959c-1.805-1.849-3.313-3.961-4.685-6.142
				c-2.714-4.388-4.886-9.071-7.196-13.648c-1.163-2.281-2.337-4.569-3.773-6.643c-1.37-2.094-3.482-3.57-5.921-3.909
				c-2.418-0.387-4.94,0.104-7.277,0.949c-1.174,0.426-2.313,0.959-3.4,1.57c-1.087,0.602-2.108,1.358-3.039,2.038L191.46,252.311z"
				/>
		</g>
	</g>
	<g class="sz2">
		<path class="sz3" d="M139.01,273.595c0,0,2.408,4.953,2.408,7.709c6.624-2.107,20.657-10.279,29.093-9.811
			c7.022,0.389,11.067-0.341,19.9-1.868c6.436-1.113,28.519,16.367,25.137,19.793s-14.744,15.33-14.744,15.33
			s13.497,0.182,21.355,2.916s39.234,18.248,44.815,19.033s4.318-0.339,4.318-0.339s-36.496-22.875-52.069-42.135
			s-17.085-24.116-22.313-23.081c-5.228,1.036-26.352,5.674-27.144,5.707s-8.095,2.188-8.095,2.188s-6.453,3.31-8.91,4.419
			c-2.458,1.109-9.062,3.713-9.062,3.713l-3.009-6.069L139.01,273.595z"/>
	</g>
	<g>
		<g class="sz2">
			<path class="sz3" d="M248.303,268.624c-1.878-1.509-3.349-2.622-4.567-3.519C245.205,266.854,246.734,268.128,248.303,268.624z"
				/>
		</g>
	</g>
	<g class="sz2">
		<path class="sz3" d="M290.31,249.983c-0.106,1.294-2.61,18.325-9.123,20.15c0,0,16.634-6.531,20.576-12.977
			c-5.307-2.429-8.059-4.47-8.432-4.657S290.31,249.983,290.31,249.983z"/>
	</g>
	<g class="sz2">
		<path class="sz3" d="M317.243,254.64c0.045,0.983,1.329,22.113-9.783,22.753c0,0,9.681-0.103,13.809-2.308
			c6.201-3.312,11.706-9.747,11.706-9.747s-2.22,2.049-4.783-0.252s-6.499-5.589-8.181-7.551
			C318.33,255.573,317.243,254.64,317.243,254.64z"/>
	</g>
</g>
</svg>
