<?xml version="1.0" encoding="utf-8"?>
<!-- Generator: Adobe Illusxrator 23.0.4, SVG Export Plug-In . SVG Version: 6.00 Build 0)  -->
<svg version="1.1" id="Layer_1" xmlns="http://www.w3.org/2000/svg" xmlns:xlink="http://www.w3.org/1999/xlink" x="0px" y="0px"
	 viewBox="0 0 500 500" sxyle="enable-background:new 0 0 500 500;" xml:space="preserve">
<style type="text/css">
	.sx0{fill:#E1F4FD;}
	.sx1{fill:#4B65AF;}
	.sx2{fill:#E7CEB7;}
	.sx3{fill:#814A36;}
	.sx4{fill:#FFFFFF;}
	.sx5{fill:#3F0001;}
	.sx6{fill:#3C4852;}
	.sx7{opacity:0.4;}
	.sx8{fill:#310940;}
</style>
<g>
	<g>
		<path d="M231.353,425.269c1.114,1.777,1.754,3.875,1.647,5.874c-0.042,0.773-0.189,1.575-0.658,2.191
			c-0.706,0.927-1.952,1.222-3.102,1.413c-3.545,0.589-7.495,1.12-11.003,0.233c-3.533-0.893-7.065-1.451-10.681-1.933
			c-4.039-0.538-8.105-1.082-11.982-2.338c-1.329-0.43-2.631-0.943-3.976-1.322c-3.259-0.917-6.883-1.102-9.558-3.178
			c-0.217-0.168-0.438-0.369-0.488-0.639c-0.047-0.255,0.07-0.511,0.21-0.729c1.107-1.728,3.423-2.066,5.382-2.68
			c1.364-0.427,2.653-1.057,3.97-1.612c6.57-2.768,13.733-3.57,20.801-3.777c1.804-0.053,3.61-0.077,5.415-0.07
			c1.573,0.006,2.417,0.34,3.802,0.925c1.221,0.515,2.498,0.97,3.561,1.757c1.181,0.874,2.268,1.833,3.511,2.631
			C229.439,422.809,230.526,423.95,231.353,425.269z"/>
	</g>
	<g>
		<path class="sx0" d="M172.379,349.318c-1.347,0.318-2.724,0.557-3.995,0.663c-1.684,0.141-3.352-0.29-5.039-0.276
			c-5.777,0.047-11.491,0.731-17.256,0.932c-5.559,0.194-11.197-0.477-16.359-2.635c-2.61-1.091-5.056-2.539-7.44-4.063
			c-5.817-3.718-11.611-8.295-13.939-14.794c-1.292-3.608-1.415-7.497-2.531-11.151c-0.475-1.554-0.944-3.146-2.348-3.898
			c-1.617-0.866-3.354-1.951-4.904-2.85c0,0-1.732-3.751-2.872-5.648c-1.798-2.994-4.026-5.841-4.834-9.239
			c-0.982-4.127,0.286-8.461,2.043-12.322c1.307-2.872,2.693-5.776,4.644-8.276c0.896-1.147,1.85-1.822,2.977-2.664
			c1.135-0.849,1.916-2.128,2.868-3.176c0.65-0.714,2.02-2.68,2.946-2.943c0.956-0.272,2.839,1.125,3.693,1.534
			c1.268,0.608,2.548,1.194,3.903,1.581c2.672,0.763,5.735,0.308,8.482,0.472c2.139,0.128,4.231,0.586,6.404,0.651
			c4.251,0.128,8.526,0.198,12.756-0.312c1.936-0.233,3.859-0.108,5.759-0.426c2.804-0.468,5.264-1.794,8.162-1.8
			c3.412-0.007,4.351-1.566,7.748-2.01c1.895-0.248,1.263-0.645,3.158-0.892c1.826-0.239,3.552-0.864,5.377-1.103
			c4.875-0.637,5.903-3.677,10.641-4.988c2.286-0.633,5.801-3.79,8.101-4.368c0.867-0.218,1.751-0.198,2.625-0.008
			c5.347,1.162,11.24,9.688,12.655,11.115c1.746,1.761,3.301,3.709,4.638,5.797c2.673,4.175,4.476,8.915,5.172,13.827
			c0.188,1.327,0.294,2.711-0.129,3.983c-0.584,1.756-2.069,3.025-3.319,4.39c-1.674,1.829-3.665,3.025-5.551,4.665
			c-2.121,1.844-4.048,3.917-5.702,6.191c-1.04,1.43-1.437,3.051-2.319,4.557c-1.138,1.942-2.148,3.843-2.501,6.101
			c-0.341,2.18,0.704,4.173-1.284,5.726c-1.439,1.125-2.774,1.912-4.574,2.264c-1.089,0.213-2.319,0.608-3.431,0.609
			c-0.5,0.001-2.533-0.664-2.817-0.347c-0.046,0.051-0.022,0.132,0.005,0.195c0.862,2.047,1.8,4.059,2.336,6.187
			c0.27,1.073,0.629,2.129,0.977,3.18c0.294,0.888,1.117,2.26,1.117,3.178c0.566,1.522,1.173,3.033,1.573,4.606
			c0.066,0.26,0.126,0.539,0.041,0.794c-0.087,0.258-0.307,0.444-0.517,0.617c-1.584,1.301-3.207,2.625-5.127,3.344
			c-1.252,0.469-2.587,0.664-3.91,0.855c-1.743,0.252-3.246,0.692-4.885,1.251C174.596,348.737,173.497,349.054,172.379,349.318z"/>
	</g>
	<g>
		<path class="sx1" d="M134.805,275.016h-3.431c-0.911,0-2.458-1.044-2.458-1.955l0.35-0.965c0-0.911,1.197-0.392,2.108-0.392h3.431
			c0.911,0,4.847-0.7,4.847,0.211l-0.181,1.371C139.472,274.198,138.087,275.498,134.805,275.016z"/>
	</g>
	<g>
		<path class="sx2" d="M185.594,328.52c1.03,3.012,2.386,5.869,3.325,8.957c0.44,1.446-0.087,5.748,1.951,5.743
			c4.143-0.009,8.347-1.138,11.894-3.294c2.531-1.538,5.786-4.489,6.564-7.41c0.586-2.201,0.111-4.531-0.405-6.749
			c-0.15-0.645-0.306-1.298-0.622-1.88c-0.363-0.67-0.919-1.214-1.488-1.72c-1.265-1.125-8.094-9.131-10.458-6.913
			c-2.112,1.988,1.049,5.081-1.89,6.871c-2.89,1.76-6.482,3.143-9.957,2.408C184.771,325.911,185.153,327.229,185.594,328.52z"/>
	</g>
	<g>
		<path class="sx2" d="M203.703,196.008c0.292-1.639,1.227-1.756,3.299-2.225c4.818-1.09,10.015-4.888,13.709-7.99
			c5.048-4.239,10.306-8.77,12.554-14.966c2.659-7.328,1.346-17.299-3.597-23.402c-2.211-2.73-5.886-6.918-9.769-6.38
			c-3.2,0.444-6.228,2.75-8.407,5.009c-1.12,1.161-2.026,2.423-2.739,3.866c-0.585,1.183-1.445,2.45-3.029,2.09
			c-0.958-0.218-1.707-0.944-2.401-1.64c-2.16-2.164-4.409-4.482-5.144-7.449c-0.596-2.408-0.112-4.937,0.373-7.37
			c1.191-5.968,2.369-12.026,4.563-17.717c0.591-1.654,1.598-3.149,2.531-4.623c0.901-1.423,1.523-2.903,2.385-4.341
			c0.042-0.071,0.086-0.146,0.089-0.228c0.004-0.119-0.076-0.222-0.152-0.312c-1.61-1.908-3.819-3.538-5.779-5.044
			c-2.774-2.132-5.666-4.127-8.774-5.743c-4.166-2.166-8.504-4.031-13.005-5.383c-1.406-0.423-2.8-0.488-4.214-0.955
			c-1.678-0.553-3.405-0.948-5.158-1.175c-3.424-0.444-6.928-0.261-10.289,0.527c-4.742,1.112-9.907,3.214-12.431,7.613
			c-1.353,2.358-2.057,5.027-2.645,7.681c-1.512-2.008-2.16-3.863-2.092-6.332c0.058-2.105,0.325-4.791-0.943-6.622
			c-1.028-1.485-2.728-2.196-4.329-2.865c-2.33-0.974-4.967,0.049-7.28,1.062c-3.445,1.509-6.92,3.035-9.969,5.236
			c-3.481,2.513-6.622,6.269-7.238,10.657c-0.111,0.787-0.106,1.584-0.102,2.378c0.009,1.659,0.018,3.318,0.027,4.977
			c-1.043-0.045-2.017-0.579-2.787-1.285c-1.197-1.099-2.203-2.724-2.89-4.187c-0.784-1.669-1.035-3.822-1.598-5.593
			c-0.162-0.509-0.334-1.029-0.669-1.444c-0.485-0.601-1.26-0.909-2.028-0.99c-2.469-0.259-3.813,0.853-5.773,2.182
			c-1.095,0.743-2.19,1.486-3.286,2.229c-0.584,0.396-2.173,1.932-2.847,1.932c-2.46,1.669-4.972,3.163-7.241,5.091
			c-0.328,0.279-0.662,0.573-0.842,0.964c-0.194,0.42-0.189,0.9-0.179,1.363c0.033,1.64,0.138,3.196-0.219,4.769
			c-0.372,1.641-0.575,3.304-0.501,4.981c0.076,1.737,0.78,3.477,0.345,5.217c-0.544,2.175-1.379,3.903-1.557,6.178
			c-0.217,2.758-0.347,5.531-0.144,8.294c0.372,5.049,1.84,9.944,2.791,14.917c0.7,3.663,1.119,7.373,1.448,11.086
			c0.279,3.148,0.778,6.23,0.229,9.365c-1.07,6.113-4.156,11.736-7.101,17.12c-2.65,4.845-3.966,9.953-5.91,15.059
			c-2.282,5.994-3.873,12.298-4.018,18.735c-0.093,4.124,0.443,8.392,2.524,11.954c1.789,3.062,4.516,4.501,6.855,6.926
			c2.817,2.921,5.198,5.971,8.443,8.496c7.912,6.158,16.975,9.22,26.77,10.632c3.608,0.52,6.677,2.389,10.261,2.972
			c5.36,0.871,10.916,0.095,16.248-0.602c0.903-0.118,1.806-0.236,2.709-0.354c1.999-0.261,3.999-0.522,5.998-0.783
			c5.976-0.781,12.023-1.579,17.629-3.79c5.137-2.026,10.266-4.872,15.193-7.393c5.226-2.675,10.168-6.014,14.153-10.361
			c3.248-3.544,5.789-7.805,7.172-12.42c1.185-3.955,0.721-7.493,0.327-11.428c-0.5-4.991,0.19-10.364,0.188-15.391
			c-0.002-3.793,0.112-7.607,0.161-11.435C203.605,196.811,203.638,196.372,203.703,196.008z"/>
	</g>
	<g>
		<path class="sx3" d="M221.456,84.137c0.716-2.246,1.526-4.459,2.189-6.721c0.528-1.798,0.975-3.928,1.159-5.787
			c-3.208,2.502-6.771,5.127-10.838,5.04c2.602,0.056-2.404-9.543-2.841-10.181c-2.245-3.27-5.181-6.068-8.564-8.14
			c-3.038-1.86-6.537-3.173-9.79-4.623c-3.71-1.654-7.617-2.874-11.614-3.597c-15.646-2.829-31.787-5.653-47.315-2.238
			c-5.59,1.229-10.976,3.248-16.266,5.434c-10.448,4.318-20.491,9.696-29.499,16.558c-8.972,6.834-16.558,15.179-25.743,21.724
			c-2.14,1.525-4.621,2.815-6.851,4.136c-2.329,1.379-5.312,1.189-7.438-0.6c-1.395-1.174-1.188,4.662-1.212,5.58
			c-0.066,2.561-0.028,5.187,0.723,7.659c1.22,4.015,3.338,7.804,6.249,10.839c6.18,6.442,14.745,3.529,21.499-0.517
			c3.047-1.825,5.477-4.588,8.517-6.559c6.005-3.894,12.447-7.176,18.706-10.653c0.466-0.259,0.947-0.523,1.476-0.59
			c3.731-0.475,3.599,5.396,4.417,7.601c0.593,1.598,1.74,3.144,2.871,4.403c0.24,0.267,0.484,0.538,0.79,0.727
			c0.485,0.299,1.101,0.375,1.525,0.755c-0.183-0.165-0.007-1.759,0.01-2.044c0.04-0.687,0.137-1.378,0.201-2.063
			c0.142-1.518,0.285-3.035,0.427-4.553c0.434-4.63,3.845-8.189,7.387-10.853c2.654-1.997,5.65-3.13,8.907-3.679
			c3.356-0.565,7.895-2.105,10.819,0.457c1.923,1.684,1.957,4.308,2.049,6.665c0.131,3.373,0.6,4.715,2.559,7.526
			c0.905-4.261,2-8.848,5.333-11.652c1.135-0.954,2.474-1.643,3.865-2.159c5.697-2.116,12.156-3.053,18.202-2.259
			c6.516,0.856,12.885,4.705,18.881,7.296c4.089,1.767,6.79,4.513,10.165,7.258c1.912,1.556,3.963,2.941,6.122,4.132
			c-2.074-1.145-9.454,22.447-9.783,24.427c-0.1,0.6-0.186,1.234,0.031,1.802c0.234,0.612,0.779,1.041,1.304,1.432
			c3.64,2.711,7.508,5.114,11.551,7.176c0.371,0.189,0.758,0.379,1.174,0.393c0.413,0.014,0.81-0.149,1.192-0.308
			c4.876-2.034,9.267-3.285,13.482,0.931c2.441,2.495,3.717,5.881,4.785,9.204c1.895,5.897,3.295,12.533,0.591,18.106
			c-0.647,1.334-1.509,2.553-2.219,3.855c-0.934,1.713-1.617,3.589-2.865,5.089c-0.879,1.056-2.001,1.877-3.111,2.687
			c-1.851,1.351-3.702,2.702-5.554,4.053c-2.324,1.696-4.708,3.344-7.307,4.595c-2.59,1.246-5.306,1.53-7.944,2.672
			c0.285,12.466,0.321,24.999,0.316,37.527c1.928-3.066,4.802-5.398,7.18-8.131c2.264-2.603,4.071-5.562,6.042-8.394
			c4.967-7.138,10.983-13.476,16.376-20.298c10.054-12.718,16.237-27.745,14.474-44.183c-0.91-8.491-3.424-16.716-5.925-24.881
			c-0.97-3.168-1.941-6.337-2.911-9.505c-1.168-3.813-2.433-7.794-4.886-11.003c-1.127-1.474-2.973-2.346-4.032-3.733
			c-1.176-1.541-2.1-4.149-3.021-5.92c-2.197-4.229-2.623-9.343-1.156-13.877c-0.651,2.011-4.331,2.813-5.578,4.381
			C220.958,85.739,221.201,84.936,221.456,84.137z"/>
	</g>
	<g>
		<path class="sx4" d="M164.676,217.492c-3.755,1.874-7.812,3.309-11.806,4.496c-3.282,0.975-6.795,1.448-10.188,1.907
			c-3.152,0.426-6.198,0.059-8.76-1.968c-1.065-0.842-2.182-1.324-3.059-2.452c1.372-0.133,2.583,0.062,3.91-0.269
			c1.044-0.261,2.071-0.815,3.148-0.935c2.126-0.236,4.241-0.358,6.368-0.775c3.416-0.668,6.773-1.637,10.02-2.892
			c2.025-0.783,3.94-1.247,5.905-2.268c2.422-1.259,4.7-2.778,7.127-3.95c3.081-1.487,5.027-4.127,7.754-6.041
			c-0.489,0.343,0.66,4.954,0.222,6.05c-0.594,1.487-2.851,3.034-3.984,4.127c-1.629,1.573-3.302,3.187-5.311,4.271
			C165.577,217.034,165.129,217.266,164.676,217.492z"/>
	</g>
	<g>
		<path class="sx5" d="M167.736,226.035c-1.675,1.233-4.646,1.936-6.683,2.004c-1.914,0.064-4.085-0.431-5.982-0.761
			c-2.703-0.47-5.379-1.021-8.057-1.611c-1.392-0.307-2.785-0.616-4.184-0.891c-0.92-0.181-2.655-0.845-3.562-0.621
			c3.2-0.788,6.485-1.082,9.755-1.426c2.863-0.301,5.129-1.097,7.846-1.909c3.753-1.122,7.276-2.814,10.564-4.933
			c1.462-0.942,2.048-2.074,3.247-3.2c1.744-1.637,3.346-2.706,4.759-4.734c-0.352,0.506,0.165,1.713,0.169,2.287
			c0.008,1.188-0.398,1.885-0.867,2.909c-1.318,2.872-2.002,5.837-3.731,8.555C170.15,223.056,169.069,225.043,167.736,226.035z"/>
	</g>
	<g>
		<path class="sx2" d="M105.932,318.646c-0.146-0.432-0.302-0.861-0.383-1.31c-0.18-1.001-0.04-1.921-0.667-2.797
			c-0.103-0.144-0.222-0.282-0.374-0.374c-0.19-0.115-0.417-0.147-0.634-0.194c-1.348-0.288-2.569-1.166-3.756-1.827
			c-0.452-0.252-1.039-0.819-1.55-0.9c-0.28-0.044-0.541,0.14-0.797,0.215c-0.31,0.091-0.61,0.055-0.928,0.073
			c-0.635,0.037-1.206,0.382-1.747,0.717c-0.529,0.328-1.14,0.657-1.551,1.134c-0.306,0.355-0.718,0.639-0.957,1.052
			c-1.266,2.191-1.908,5.013-1.249,7.49c0.138,0.518,0.394,0.997,0.698,1.438c1.216,1.76,3.149,3.308,5.337,3.555
			c0.743,0.084,1.487-0.015,2.228-0.075c0.642-0.052,1.229,0.081,1.861,0.042c1.526-0.096,3.044-0.313,4.536-0.649
			c0.2-0.045,0.429-0.117,0.503-0.308c0.055-0.142,0.003-0.3-0.042-0.445c-0.344-1.126,0.061-2.091,0.014-3.198
			c-0.044-1.049-0.09-2.109-0.376-3.118C106.047,318.992,105.99,318.819,105.932,318.646z"/>
	</g>
	<g>
		<path class="sx1" d="M175.225,186.454c-1.293,0.827-2.622,1.598-3.984,2.307c-3.584,1.864-7.54,3.529-11.652,2.644
			c-3.712-0.799-7.09-3.495-9.901-5.926c-2.964-2.563-5.653-5.423-8.587-8.018c-1.456-1.288-2.969-2.511-4.587-3.591
			c-1.453-0.97-2.474-2.215-4.357-1.998c-5.879,0.678-7.556,8.781-11.919,11.764c-1.761,1.204-3.752,1.929-5.431,3.283
			c-1.553,1.251-2.785,2.875-4.499,3.93c-4.571,2.815-12.685-2.032-15.942-5.163c-3.46-3.327-7.387-10.501-9.347-14.649
			c-4.427-9.369-2.965-18.315-3.229-28.674c-0.3-11.795,1.65-20.484,12.901-29.433c2.976-2.367,10.81-7.982,13.978-3.837
			c0.648,0.848,1.297,1.696,1.945,2.544c0.749,0.98,1.591,2.023,2.789,2.32c-0.262-0.065-1.28-7.535,2.932-4.435
			c6.63,4.88,13.569,10.148,16.664,17.776c0.238,0.586,0.559,1.274,1.185,1.366c0.258,0.038,0.516-0.04,0.77-0.098
			c0.808-0.184,1.498-0.048,2.298,0.007c1.374,0.074,1.505,0.065,2.176-1.055c1.253-2.095,2.468-3.673,4.043-5.481
			c1.307-1.5,2.261-3.46,3.784-4.758c1.198-1.02,2.705-1.898,4.013-2.816c3.205-2.249,6.757-4.058,10.38-5.53
			c5.638-2.29,12.03-1.998,17.564,0.452c1.576,0.697,3.266,1.319,4.571,2.435c1.478,1.264,2.659,2.9,3.834,4.436
			c0.964,1.26,2.081,2.489,2.979,3.78c0.682,0.981,0.475,3.002,1.225,3.752c0.864,2.063,2.066,3.965,3.257,5.85
			c1.067,1.687,2.145,3.389,3.547,4.81c1.422,1.44,3.137,2.551,4.863,3.607c1.472,0.901,2.962,1.771,4.47,2.611
			c1.651,0.919,3.279,1.906,4.632,3.244c0.82,0.811-1.411,2.35-1.974,2.946c-0.959,1.017-1.56,2.201-2.133,3.478
			c-0.806,1.797-1.344,3.728-1.47,5.698c-0.056,0.881,0.318,4.233-0.552,4.622c-3.87,1.732-7.872,3.794-10.862,6.889
			c-1.802,1.865-3.321,3.939-5.166,5.764c-1.812,1.792-3.776,3.594-5.532,5.341C181.961,181.569,178.723,184.216,175.225,186.454z"
			/>
	</g>
	<g>
		<path class="sx6" d="M189.909,344.687c0.387,0.125,0.744,0.312,1.06,0.574c0.71,0.59,1.045,1.788,1.432,2.63
			c1.023,2.223,2.045,4.447,3.068,6.67c2.881,6.264,5.762,12.527,8.643,18.791c3.711,8.068,7.422,16.136,11.133,24.204
			c1.855,4.034,3.711,8.068,5.566,12.102c1.176,2.557,3.404,6.155,3.23,9.075c-2.483,0.124-5.116-0.855-7.524-1.401
			c-2.574-0.584-4.867-0.404-7.441-0.515c-3.376-0.145-6.63-0.078-10.001,0.221c-0.798,0.071-1.572,0.298-2.336,0.537
			c-3.807,1.195-7.37,2.996-10.937,4.759c-1.764,0.871-4.373,3.852-6.361,3.428c-1.014-0.217-1.862-0.925-2.494-1.747
			c-2.513-3.271-2.551-7.609-4.634-11.086c-2.339-3.906-3.342-8.235-5.004-12.433c-1.43-3.613-3.083-7.137-4.947-10.546
			c-2.739-5.01-6.124-9.319-8.602-14.45c0.3,0.621-1.068,3.043-1.266,3.832c-0.428,1.703-0.601,3.522-0.93,5.251
			c-0.66,3.472-1.356,6.951-1.55,10.488c-0.305,5.568-1.739,11.221-3.699,16.422c-0.469,1.246-1.037,2.549-2.143,3.29
			c-0.983,0.659-2.005,0.481-2.996-0.093c-1.826-1.057-3.549-3.458-4.739-4.447c-2.85-2.371-6.011-4.367-9.375-5.926
			c-2.659-1.232-5.431-2.179-8.289-2.818c-2.564-0.574-4.66-1.149-7.311-1.096c-2.515,0.05-5.051,0.278-7.435,1.13
			c-0.261-2.692,0.598-5.974,0.913-8.699c0.62-5.362,1.241-10.724,1.862-16.086c0.605-5.097,1.18-10.198,1.77-15.297
			c0.303-2.618,0.606-5.237,0.909-7.855c0.198-1.714-0.194-5.49,1.359-6.586c0.77-0.543,1.75-0.672,2.689-0.75
			c4.857-0.408,9.788,0.083,14.47,1.44c1.927,0.559,2.655,1.2,4.678,1.152c2.381-0.056,4.357,1.343,6.633,1.44
			c2.477,0.106,5.025-0.398,7.546-0.245c4.001,0.243,7.966,0.156,12.013,0.022c3.731-0.124,7.472-0.248,11.161-0.819
			c4.556-0.705,8.981-2.083,13.333-3.605C185.082,345.042,187.89,344.032,189.909,344.687z"/>
	</g>
	<g>
		<path class="sx4" d="M123.472,150.673c0,16.769-7.579,30.362-16.928,30.362s-16.928-13.594-16.928-30.362
			s8.803-32.188,18.153-32.188S123.472,133.904,123.472,150.673z"/>
	</g>
	<g>
		<path d="M114.949,149.218c-0.079,0.712-0.17,1.422-0.279,2.131c-0.597,3.9-2.2,7.17-4.02,10.683
			c-1.967,3.797-3.699,7.165-7.654,9.166c-2.884,1.458-7.342,3.164-9.273-0.695c-0.926-1.852-1.627-3.837-2.204-5.822
			c-1.319-4.539-1.905-9.286-1.905-14.007c0-16.768,8.802-32.186,18.151-32.188c1.296,0,3.598,0.384,4.3,1.576
			c0.647,1.099,0.714,2.588,1.028,3.809c1.178,4.587,3.383,10.121,2.776,14.925C115.433,142.256,115.334,145.752,114.949,149.218z"
			/>
	</g>
	<g>
		<path class="sx4" d="M182.493,150.673c0,16.769-7.579,30.362-16.928,30.362s-16.928-13.594-16.928-30.362
			s8.803-32.188,18.153-32.188C176.138,118.485,182.493,133.904,182.493,150.673z"/>
	</g>
	<g>
		<path d="M173.971,149.218c-0.079,0.712-0.17,1.422-0.279,2.131c-0.597,3.9-2.2,7.17-4.02,10.683
			c-1.967,3.797-3.699,7.165-7.654,9.166c-2.884,1.458-7.342,3.164-9.273-0.695c-0.926-1.852-1.627-3.837-2.204-5.822
			c-1.319-4.539-1.905-9.286-1.905-14.007c0-16.768,8.802-32.186,18.151-32.188c1.296,0,3.598,0.384,4.3,1.576
			c0.647,1.099,0.714,2.588,1.028,3.809c1.178,4.587,3.383,10.121,2.776,14.925C174.454,142.256,174.355,145.752,173.971,149.218z"
			/>
	</g>
	<g>
		<path d="M124.373,150.521c-0.2,6.554-1.39,13.149-4.065,19.282c-1.368,3.04-3.101,6.005-5.575,8.465
			c-1.236,1.22-2.652,2.324-4.301,3.103c-1.628,0.799-3.509,1.234-5.382,1.149c-1.87-0.107-3.699-0.694-5.244-1.638
			c-1.567-0.922-2.872-2.145-3.988-3.467c-2.231-2.663-3.733-5.736-4.842-8.877c-2.144-6.329-2.776-12.994-2.424-19.537
			c0.374-6.543,1.78-13.061,4.547-19.043c1.395-2.975,3.171-5.829,5.572-8.175c1.2-1.165,2.562-2.204,4.117-2.923
			c1.539-0.748,3.28-1.101,5.009-1.054c1.729,0.086,3.431,0.61,4.894,1.488c1.484,0.853,2.741,2.011,3.833,3.274
			c2.202,2.527,3.74,5.514,4.895,8.591C123.71,137.342,124.54,143.967,124.373,150.521z M122.159,150.427
			c0.352-6.305-0.264-12.73-2.281-18.715c-1.026-2.973-2.434-5.842-4.42-8.233c-1.969-2.367-4.702-4.185-7.719-4.314
			c-3.022-0.133-5.881,1.482-8.029,3.672c-2.187,2.199-3.844,4.931-5.135,7.799c-2.557,5.779-3.699,12.143-3.896,18.455
			c-0.168,6.315,0.647,12.701,2.811,18.542c1.073,2.907,2.516,5.691,4.473,7.947c1.926,2.26,4.495,3.888,7.213,3.97
			c2.713,0.103,5.384-1.298,7.472-3.397c2.115-2.086,3.814-4.708,5.132-7.509C120.43,163.016,121.787,156.729,122.159,150.427z"/>
	</g>
	<g>
		<path d="M112.003,119.014c2.751,4.894,4.189,10.433,4.748,15.984c0.59,5.564,0.326,11.212-0.78,16.729
			c-1.165,5.48-3.062,10.96-6.607,15.571c-1.757,2.279-3.988,4.359-6.786,5.541c-2.764,1.228-6.149,1.136-8.718-0.272l0.535-1.245
			c2.448,0.823,5.023,0.528,7.176-0.646c2.175-1.155,3.971-3.027,5.467-5.111c1.482-2.105,2.704-4.436,3.669-6.882
			c0.995-2.436,1.747-4.985,2.314-7.578c1.114-5.191,1.528-10.57,1.247-15.905c-0.327-5.325-1.327-10.661-3.474-15.571
			L112.003,119.014z"/>
	</g>
	<g>
		<path d="M183.863,150.537c-0.24,6.593-1.479,13.213-4.203,19.371c-1.413,3.046-3.214,5.988-5.711,8.454
			c-1.249,1.223-2.679,2.33-4.345,3.111c-1.645,0.804-3.545,1.222-5.435,1.153c-1.888-0.113-3.732-0.711-5.284-1.665
			c-1.575-0.933-2.882-2.166-3.999-3.496c-2.231-2.679-3.726-5.762-4.827-8.911c-2.145-6.337-2.751-13.01-2.386-19.552
			c0.381-6.542,1.784-13.062,4.564-19.036c1.391-2.975,3.161-5.831,5.559-8.18c1.198-1.166,2.558-2.208,4.113-2.928
			c1.538-0.745,3.28-1.116,5.01-1.049c1.729,0.083,3.432,0.603,4.898,1.478c1.487,0.848,2.768,1.984,3.873,3.243
			c2.229,2.516,3.826,5.487,5.023,8.567C183.133,137.273,184.019,143.943,183.863,150.537z M180.917,150.412
			c0.188-3.137,0.139-6.294-0.206-9.419c-0.323-3.126-0.915-6.232-1.881-9.219c-0.985-2.969-2.333-5.855-4.292-8.257
			c-1.927-2.391-4.655-4.225-7.674-4.355c-3.019-0.114-5.88,1.479-8.032,3.672c-2.191,2.196-3.852,4.927-5.148,7.794
			c-2.544,5.787-3.688,12.149-3.878,18.463c-0.155,6.317,0.686,12.695,2.85,18.527c1.081,2.9,2.531,5.674,4.488,7.913
			c1.927,2.245,4.482,3.845,7.162,3.914c2.679,0.112,5.311-1.299,7.376-3.386c2.092-2.08,3.723-4.725,4.996-7.521
			C179.277,162.936,180.586,156.675,180.917,150.412z"/>
	</g>
	<g>
		<path d="M171.128,119.014c1.402,2.43,2.402,5.066,3.195,7.747c0.741,2.699,1.242,5.458,1.528,8.238
			c0.563,5.565,0.244,11.204-0.894,16.697c-1.204,5.457-3.155,10.89-6.671,15.449c-1.756,2.246-3.923,4.316-6.661,5.523
			c-2.713,1.213-6.027,1.236-8.639-0.103l0.535-1.245c2.405,0.893,5.051,0.712,7.254-0.476c2.235-1.13,4.095-3.011,5.591-5.129
			c2.996-4.277,4.814-9.392,5.919-14.582c1.082-5.214,1.441-10.602,1.133-15.937c-0.147-2.67-0.499-5.33-1.083-7.937
			c-0.537-2.621-1.36-5.173-2.416-7.631L171.128,119.014z"/>
	</g>
	<g>
		<path d="M132.937,172.116c-0.121,3.875-1.273,7.594-2.578,11.129c-1.329,3.529-2.999,6.939-4.38,10.222
			c-0.323,0.791-0.652,1.667-0.734,2.241c-0.031,0.144-0.019,0.242-0.025,0.224c-0.003-0.043-0.01-0.014-0.057-0.171
			c-0.025-0.06-0.062-0.1-0.106-0.157c-0.045-0.077-0.109-0.147-0.184-0.199c-0.16-0.097-0.227-0.166-0.372-0.176l0.266,0.065
			c0.193,0.041,0.392,0.08,0.599,0.115c1.672,0.263,3.462,0.387,5.202,0.369c1.746-0.012,3.485-0.19,5.051-0.738
			c0.774-0.29,1.485-0.691,2.053-1.295c0.554-0.607,0.929-1.443,1.088-2.387c0.27,0.91,0.24,1.972-0.181,2.955
			c-0.45,0.956-1.208,1.791-2.08,2.36c-0.863,0.596-1.808,1.024-2.769,1.333c-0.96,0.318-1.934,0.547-2.914,0.688
			c-1.966,0.284-3.917,0.338-5.931,0.106c-0.253-0.03-0.513-0.068-0.777-0.112l-0.416-0.081c-0.347-0.118-0.671-0.212-0.989-0.485
			c-0.7-0.546-0.872-1.289-0.939-1.744c-0.056-0.477-0.023-0.851,0.024-1.163c0.2-1.269,0.576-2.135,0.929-3.071
			c1.492-3.58,3.252-6.783,4.818-10.108c1.594-3.298,3.071-6.615,4.059-10.113L132.937,172.116z"/>
	</g>
	<g>
		<path d="M87.488,175.067c-0.18,3.149-0.576,6.356-1.8,9.396c-1.21,2.945-2.603,5.724-3.917,8.553
			c-2.651,5.633-5.174,11.311-7.196,17.147c-2.01,5.821-3.631,11.817-3.982,17.865c-0.17,3.013,0,6.032,0.691,8.899
			c0.688,2.864,1.913,5.559,3.713,7.839c3.731,4.776,8.377,8.802,13.437,12.181c5.076,3.37,10.616,6.055,16.374,8.113
			c11.52,4.073,23.958,5.84,36.066,4.506c6.081-0.689,12.143-1.887,18.086-3.477c5.942-1.598,11.78-3.6,17.375-6.096
			c5.584-2.494,10.978-5.469,15.634-9.292c4.604-3.802,8.527-8.615,9.808-14.277c0.329-1.429,0.453-2.788,0.481-4.345l0.087-4.657
			c0.037-3.108,0.037-6.223,0.032-9.34c-0.009-6.236-0.066-12.482,0.068-18.748c0.075-3.134,0.186-6.271,0.486-9.425
			c0.154-1.577,0.352-3.157,0.713-4.754c0.187-0.8,0.418-1.6,0.816-2.416c0.205-0.405,0.444-0.825,0.859-1.219
			c0.215-0.191,0.46-0.384,0.784-0.499c0.196-0.076,0.207-0.074,0.291-0.103l0.211-0.082c1.156-0.506,2.198-1.643,2.986-2.857
			c0.805-1.225,1.426-2.611,1.709-4.041c0.29-1.396,0.194-3.006-0.971-3.809c-1.181-0.788-2.881-0.647-4.382-0.366
			c0.733-0.269,1.491-0.509,2.292-0.587c0.792-0.087,1.656-0.041,2.437,0.373c0.791,0.397,1.363,1.202,1.595,2.034
			c0.246,0.837,0.264,1.697,0.183,2.524c-0.189,1.658-0.762,3.22-1.564,4.663c-0.842,1.412-1.873,2.796-3.546,3.669
			c-0.109,0.048-0.216,0.099-0.329,0.141c-0.099,0.037-0.275,0.096-0.257,0.1c-0.047,0.013-0.111,0.074-0.183,0.142
			c-0.148,0.15-0.307,0.418-0.435,0.715c-0.263,0.599-0.441,1.316-0.596,2.035c-0.295,1.455-0.456,2.981-0.57,4.511
			c-0.223,3.065-0.265,6.17-0.269,9.274c0.007,6.213,0.203,12.445,0.352,18.687c0.076,3.121,0.145,6.246,0.178,9.377l0.018,4.702
			c0.011,1.561-0.099,3.328-0.444,4.949c-0.669,3.298-2.107,6.399-4,9.096c-1.899,2.703-4.195,5.056-6.664,7.139
			c-4.965,4.154-10.571,7.318-16.346,9.951c-5.8,2.596-11.801,4.66-17.905,6.31c-6.109,1.634-12.317,2.905-18.645,3.557
			c-6.352,0.677-12.787,0.491-19.087-0.364c-6.306-0.861-12.512-2.391-18.49-4.567c-5.974-2.18-11.729-5.012-17.029-8.581
			c-5.301-3.555-10.106-7.926-13.998-13.046c-2.033-2.657-3.393-5.799-4.105-9.007c-0.721-3.217-0.842-6.5-0.611-9.706
			c0.489-6.429,2.246-12.585,4.432-18.49c2.211-5.908,4.906-11.588,7.705-17.176c1.386-2.795,2.849-5.57,4.089-8.364
			c1.21-2.728,1.708-5.797,1.977-8.85L87.488,175.067z"/>
	</g>
	<g>
		<path d="M85.824,112.515c-0.978,2.604-1.486,5.468-1.805,8.333c-0.312,2.875-0.423,5.788-0.383,8.697l-1.354,0.056
			c-0.19-2.958-0.226-5.926-0.054-8.904c0.185-2.975,0.545-5.97,1.484-8.926L85.824,112.515z"/>
	</g>
	<g>
		<path d="M213.207,152.861c0.992-1.794,2.304-3.404,4.311-4.417c0.988-0.497,2.236-0.756,3.479-0.531
			c1.242,0.236,2.334,0.949,3.07,1.792c1.5,1.703,2.191,3.681,2.705,5.621c0.483,1.956,0.725,3.934,0.756,5.92
			c-0.711-1.855-1.362-3.697-2.13-5.451c-0.394-0.87-0.781-1.734-1.268-2.515c-0.458-0.794-0.971-1.542-1.578-2.107
			c-0.597-0.585-1.261-0.934-1.946-1.064c-0.693-0.11-1.447,0.028-2.243,0.315C216.753,150.978,215.131,152.077,213.207,152.861z"/>
	</g>
	<g>
		<path d="M117.758,220.251c5.703-1.005,11.452-1.511,17.079-2.395c2.812-0.453,5.6-0.972,8.356-1.587
			c2.745-0.661,5.463-1.395,8.128-2.283c5.303-1.84,10.462-4.094,15.307-6.995c4.89-2.835,9.46-6.208,14.133-9.664
			c-3.561,4.577-7.845,8.615-12.627,12.024l-3.709,2.381c-1.274,0.732-2.587,1.401-3.894,2.079c-1.315,0.661-2.69,1.196-4.034,1.8
			c-1.353,0.584-2.777,0.978-4.162,1.475c-1.387,0.495-2.828,0.804-4.239,1.214c-1.417,0.391-2.873,0.599-4.305,0.906
			c-1.439,0.272-2.891,0.451-4.335,0.664c-1.451,0.154-2.904,0.273-4.353,0.399C129.292,220.648,123.531,220.486,117.758,220.251z"
			/>
	</g>
	<g>
		<path d="M175.832,202.286c0.9,2.744,0.961,5.637,0.713,8.44c-0.263,2.814-0.907,5.585-1.899,8.261
			c-1.024,2.657-2.365,5.275-4.479,7.49c-1.054,1.094-2.315,2.12-3.884,2.728c-0.762,0.329-1.626,0.499-2.454,0.592
			c-0.717,0.057-1.429,0.093-2.138,0.112c-2.832,0.069-5.613-0.16-8.366-0.525c-2.754-0.362-5.473-0.909-8.157-1.607
			c-2.681-0.704-5.332-1.571-7.882-2.742c-1.272-0.593-2.522-1.256-3.706-2.07c-1.175-0.808-2.332-1.788-3.053-3.211l1.19-0.649
			c0.653,0.948,1.723,1.676,2.836,2.299c1.124,0.62,2.34,1.121,3.581,1.556c2.489,0.863,5.068,1.532,7.677,2.056
			c5.211,1.04,10.57,1.645,15.786,1.526c0.649-0.025,1.293-0.064,1.93-0.121c0.515-0.075,1.001-0.159,1.486-0.379
			c0.968-0.39,1.902-1.071,2.732-1.921c1.659-1.715,2.978-3.955,4.003-6.311c1.038-2.363,1.806-4.878,2.324-7.44
			c0.497-2.561,0.759-5.197,0.444-7.764L175.832,202.286z"/>
	</g>
	<g>
		<path d="M114.043,107.679c2.383,0.853,4.566,2.083,6.575,3.517c2.008,1.439,3.842,3.092,5.505,4.892
			c3.325,3.604,5.968,7.795,7.855,12.29l0.002,0.004l-0.591-0.41l5.287,0.252h0.003l-0.634,0.365
			c0.919-1.913,2.007-3.666,3.18-5.396c1.18-1.717,2.451-3.38,3.85-4.94c2.781-3.128,6.02-5.924,9.732-8.036
			c3.699-2.12,7.915-3.466,12.234-3.731c2.162-0.161,4.319,0.021,6.436,0.368c2.122,0.36,4.225,0.968,6.209,1.872
			c3.999,1.784,7.327,4.843,9.796,8.291c2.517,3.446,4.252,7.273,6.066,10.898c0.914,1.803,1.845,3.588,3.005,5.091
			c0.576,0.751,1.227,1.346,2.017,2.02c0.754,0.657,1.527,1.295,2.327,1.902c3.182,2.43,6.705,4.526,10.353,6.139l-0.471,1.271
			c-3.953-1.442-7.595-3.449-11.039-5.825c-0.859-0.595-1.698-1.222-2.515-1.877c-0.787-0.629-1.676-1.399-2.371-2.261
			c-1.391-1.71-2.402-3.56-3.391-5.377c-1.928-3.649-3.757-7.249-6.111-10.412c-2.332-3.167-5.312-5.753-8.815-7.321
			c-3.486-1.559-7.479-2.155-11.329-1.963c-3.867,0.222-7.656,1.383-11.113,3.239c-3.46,1.865-6.594,4.376-9.404,7.223
			c-2.795,2.852-5.347,6.048-7.44,9.449l-0.238,0.387l-0.396-0.022h-0.003l-5.287-0.252l-0.408-0.019l-0.183-0.391l-0.002-0.004
			c-1.935-4.301-4.588-8.274-7.856-11.641c-1.634-1.681-3.421-3.21-5.346-4.516c-1.923-1.303-3.99-2.389-6.146-3.1L114.043,107.679z
			"/>
	</g>
	<g>
		<path d="M198.311,135.038c0.105-2.429,0.449-4.832,0.986-7.185c0.572-2.342,1.281-4.645,2.129-6.893
			c0.86-2.242,1.825-4.441,2.889-6.589c1.072-2.151,2.208-4.243,3.505-6.303l0.002-0.002l0.185,1.089l-7.825-5.543l-3.892-2.771
			l-0.951-0.654c-0.235-0.162-0.647-0.38-0.967-0.568c-0.685-0.387-1.375-0.764-2.07-1.13c-2.784-1.461-5.651-2.753-8.57-3.902
			c-2.947-1.153-5.849-2.113-8.889-2.611c-6.057-1.05-12.348-0.566-18.134,1.506c-1.444,0.52-2.871,1.109-4.24,1.824
			c-0.326,0.171-0.736,0.346-0.995,0.512c-0.275,0.152-0.537,0.348-0.791,0.561c-0.507,0.433-0.968,0.972-1.372,1.574
			c-0.804,1.209-1.454,2.601-1.963,4.06c-0.266,0.757-0.487,1.423-0.599,2.164c-0.125,0.739-0.198,1.517-0.261,2.314v0.009
			l-0.063,1.766l-1.158-1.376c-1.72-2.042-2.688-4.685-2.868-7.387c-0.077-1.382,0.138-2.679,0.09-3.768
			c-0.017-0.55-0.106-1.052-0.259-1.537c-0.163-0.498-0.389-0.956-0.674-1.352c-0.573-0.791-1.37-1.348-2.336-1.623
			c-0.925-0.266-2.167-0.305-3.282-0.251c-2.29,0.107-4.567,0.804-6.766,1.753c-4.392,1.995-8.755,4.457-11.474,8.274
			c-2.793,3.781-3.566,8.767-3.186,13.645l0.003,0.021l0.134,1.057l-1.073-0.345c-2.108-0.679-4.196-2.088-5.439-4.168
			c-1.274-2.054-1.587-4.441-2.046-6.362c-0.226-0.962-0.54-1.778-0.952-2.081c-0.201-0.167-0.455-0.277-0.799-0.35
			c-0.166-0.04-0.362-0.057-0.561-0.074c-0.192-0.017-0.342-0.006-0.532,0.011c-1.527,0.18-3.365,1.413-5.23,2.395
			c-1.81,1.011-3.577,2.126-5.323,3.292c-0.87,0.583-1.747,1.18-2.602,1.783c-0.84,0.596-1.672,1.213-2.492,1.863
			c-3.291,2.574-6.473,5.48-10.166,7.888c-1.832,1.196-3.869,2.257-5.926,3.02c-2.07,0.764-4.244,1.364-6.502,1.587
			c-1.127,0.112-2.271,0.133-3.41,0.043c-1.152-0.092-2.322-0.331-3.431-0.732c-2.226-0.817-4.115-2.262-5.644-3.892
			c-0.763-0.822-1.48-1.677-2.113-2.579c-0.654-0.893-1.252-1.856-1.753-2.851c-1.001-1.996-1.709-4.125-2.095-6.304
			c-0.76-4.384-0.362-8.715,0.025-12.94l0.003-0.05l0.072-1.347l1.062,0.89c1.423,1.193,3.279,1.591,5.11,1.27
			c1.835-0.338,3.62-1.155,5.29-2.161c1.675-1.009,3.243-2.233,4.729-3.541c1.472-1.299,2.903-2.768,4.358-4.186
			c5.763-5.785,12.02-11.197,18.668-16.038c3.329-2.418,6.77-4.673,10.255-6.855c3.526-2.128,7.04-4.212,10.72-6.124
			c7.359-3.782,15.097-6.85,23.111-9.01c8.006-2.177,16.302-3.386,24.651-3.495c4.186-0.069,8.361,0.276,12.45,0.771
			c4.105,0.517,8.199,1.184,12.236,2.136c8.055,1.906,16.036,4.63,23.189,9.112c3.55,2.24,6.89,5.004,9.408,8.505
			c1.256,1.744,2.261,3.7,2.86,5.783c0.613,2.077,0.768,4.275,0.508,6.381l-0.003,0.055l-0.647-0.724
			c1.927,0.052,3.871-0.68,5.621-1.704c0.882-0.508,1.719-1.108,2.527-1.743c0.799-0.636,1.591-1.333,2.281-2.049l1.966-2.039
			l-0.822,2.699l-4.702,15.443l-1.062-0.735l6.641-5.109l0.041-0.033l2.117-1.687l-1.105,2.544c-1.344,3.094-1.827,6.674-1.294,9.95
			c0.277,1.652,0.909,3.198,1.683,4.65c0.902,1.383,1.901,2.714,3.195,3.783l0.941,0.823c0.348,0.311,0.769,0.667,1.117,1.012
			c0.324,0.359,0.662,0.715,0.973,1.081l0.873,1.118c1.096,1.514,2.052,3.092,2.929,4.694c1.766,3.204,3.236,6.524,4.574,9.892
			c2.654,6.744,4.692,13.72,6.066,20.857c1.356,7.135,2.015,14.456,1.593,21.826c-0.491,7.331-2.173,14.857-6.166,21.439
			c-1.007,1.7-2.049,3.058-3.076,4.55l-3.118,4.377c-2.081,2.915-4.208,5.795-6.378,8.641
			c-8.631,11.423-17.685,22.492-27.269,33.133l-0.032,0.036l-2.384,2.665l0.122-3.506l1.329-38.266l0.001-0.043l0.013-0.465
			l0.477-0.173c7.634-2.769,14.978-6.901,20.616-12.586c1.403-1.426,2.634-2.995,3.724-4.637c1.089-1.647,1.914-3.434,2.577-5.261
			c0.631-1.844,0.972-3.761,1.151-5.69c0.082-1.937,0.047-3.893-0.332-5.82c-0.09-0.482-0.153-0.967-0.264-1.445l-0.382-1.427
			c-0.216-0.96-0.595-1.883-0.92-2.817c-0.664-1.867-1.506-3.69-2.494-5.352c-0.983-1.664-2.153-3.205-3.56-4.281
			c-1.405-1.057-2.992-1.684-4.63-1.513c-1.646,0.094-3.283,0.947-4.761,2.047c-1.467,1.14-2.749,2.608-3.855,4.196
			c-1.095,1.603-1.993,3.363-2.625,5.209c-0.652,1.842-0.987,3.786-0.847,5.712l0.002,0.042l0.034,0.646l-0.57,0.152
			c-2.192,0.586-4.221,1.841-6.107,3.27c-1.892,1.434-3.664,3.059-5.404,4.723c-3.502,3.314-6.839,6.852-10.312,10.299
			c-3.484,3.435-7.089,6.816-11.205,9.709c-2.07,1.422-4.271,2.735-6.721,3.66c-2.447,0.91-5.137,1.48-7.955,1.018
			c-2.789-0.484-5.102-1.92-7.115-3.453c-2.01-1.573-3.774-3.33-5.473-5.109c-3.396-3.536-6.439-7.383-10.236-10.252
			c-0.948-0.701-1.931-1.357-2.987-1.798l-0.796-0.296c-0.255-0.061-0.572-0.171-0.775-0.195c-0.295-0.044-0.764,0.127-1.208,0.429
			c-0.9,0.606-1.719,1.5-2.52,2.374c-0.803,0.886-1.574,1.821-2.339,2.766c-3.074,3.765-6.239,7.633-10.398,10.648
			c-1.036,0.753-2.155,1.415-3.341,1.975c-1.174,0.582-2.442,1.018-3.754,1.293c-1.321,0.294-2.638,0.412-4.053,0.313l-1.097-0.142
			c-0.346-0.085-0.681-0.192-1.02-0.29c-0.701-0.171-1.279-0.505-1.913-0.767c-2.413-1.206-4.384-2.865-6.217-4.606
			c-1.819-1.759-3.462-3.657-4.971-5.651c-1.504-1.998-2.889-4.082-4.097-6.302c-0.282-0.574-0.605-1.104-0.851-1.715l-0.743-1.823
			c-0.357-1.221-0.783-2.44-1.017-3.665c-1.094-4.895-1.589-9.802-1.859-14.711c-0.249-4.91-0.257-9.816-0.008-14.733
			c0.134-2.466,0.297-4.901,0.787-7.442c0.036-0.302,0.178-0.677,0.267-1.01l0.156-0.513l0.187-0.432
			c0.246-0.576,0.497-1.15,0.773-1.708c0.262-0.566,0.542-1.123,0.838-1.671c0.283-0.555,0.581-1.101,0.899-1.637
			c2.468-4.314,5.617-8.286,9.523-11.457c1.987-1.543,4.174-2.84,6.526-3.776c2.382-0.882,4.911-1.272,7.43-1.297v1.356
			c-2.349,0.119-4.661,0.572-6.828,1.462c-2.148,0.931-4.142,2.191-5.96,3.687c-3.582,3.074-6.454,6.954-8.73,11.126
			c-0.294,0.517-0.57,1.043-0.83,1.578c-0.273,0.528-0.53,1.063-0.77,1.606c-0.254,0.537-0.481,1.083-0.703,1.63l-0.169,0.409
			l-0.094,0.365c-0.055,0.257-0.15,0.451-0.183,0.757c-0.394,2.248-0.529,4.688-0.612,7.08c-0.158,4.809-0.065,9.65,0.265,14.457
			c0.339,4.799,0.829,9.614,1.899,14.215c0.228,1.168,0.625,2.249,0.951,3.361l0.644,1.554c0.206,0.519,0.523,1.032,0.779,1.549
			c1.131,2.05,2.458,4.025,3.892,5.905c1.439,1.878,3.004,3.661,4.694,5.275c1.69,1.596,3.519,3.082,5.481,4.039
			c0.493,0.191,0.98,0.48,1.473,0.58l0.734,0.211l0.714,0.082c1.005,0.077,2.146,0.017,3.198-0.215
			c2.139-0.432,4.23-1.354,6.172-2.598c3.942-2.45,7.3-5.967,10.61-9.511c1.717-1.746,3.209-3.663,5.411-5.185
			c0.562-0.347,1.276-0.735,2.204-0.615c0.72,0.141,1.286,0.36,1.899,0.612c1.179,0.529,2.263,1.19,3.275,1.926
			c2.02,1.48,3.843,3.141,5.632,4.815c1.798,1.663,3.548,3.356,5.334,4.975c1.786,1.614,3.609,3.17,5.539,4.459
			c0.97,0.633,1.938,1.239,2.945,1.707c1.008,0.456,2.031,0.801,3.049,0.968c2.009,0.289,4.261-0.109,6.352-0.88
			c2.116-0.78,4.143-1.959,6.086-3.279c3.903-2.646,7.47-5.906,11.02-9.186c3.554-3.288,7.022-6.719,10.708-9.972
			c1.859-1.609,3.783-3.166,5.853-4.562c2.056-1.392,4.332-2.635,6.916-3.099l-0.536,0.798l-0.01-0.046
			c-0.581-2.164-0.463-4.443,0.021-6.574c0.494-2.137,1.292-4.205,2.424-6.095c1.117-1.897,2.504-3.67,4.26-5.138
			c1.747-1.448,3.925-2.654,6.446-2.866c2.524-0.314,5.064,0.739,6.907,2.181c1.88,1.468,3.227,3.32,4.339,5.21
			c1.116,1.904,2.005,3.866,2.721,5.902c0.343,1.025,0.732,2.032,0.961,3.099l0.395,1.58c0.114,0.531,0.181,1.076,0.272,1.614
			c0.384,2.149,0.404,4.365,0.27,6.557c-0.218,2.192-0.689,4.362-1.461,6.421c-0.804,2.041-1.793,4.007-3.043,5.785
			c-1.25,1.772-2.641,3.432-4.188,4.917c-1.548,1.481-3.194,2.843-4.921,4.077c-1.746,1.207-3.556,2.304-5.414,3.3
			c-3.727,1.983-7.594,3.6-11.675,4.738l0.489-0.638v0.043l-0.13,38.288l-2.262-0.84l0.028-0.037
			c8.524-11.417,17.064-22.828,25.475-34.297l6.255-8.637l3.087-4.343c0.999-1.443,2.105-2.939,2.932-4.303
			c3.511-5.62,5.181-12.404,5.713-19.249c0.505-6.874,0.062-13.887-1.112-20.788c-1.147-6.905-2.852-13.761-5.214-20.377
			c-1.183-3.303-2.5-6.568-4.076-9.67c-0.776-1.559-1.646-3.052-2.564-4.482l-0.722-1.03c-0.25-0.327-0.513-0.63-0.768-0.95
			c-0.272-0.294-0.524-0.527-0.822-0.83l-1.027-0.989c-1.395-1.289-2.498-2.891-3.444-4.549c-0.825-1.733-1.45-3.563-1.669-5.458
			c-0.421-3.798,0.373-7.538,2.088-10.878l1.013,0.857l-0.042,0.031l-6.641,5.109l-1.678,1.291l0.617-2.026l4.702-15.443l1.144,0.66
			c-0.777,0.805-1.577,1.505-2.429,2.186c-0.852,0.67-1.737,1.304-2.686,1.852c-1.879,1.093-4.028,1.947-6.363,1.888l-0.641-0.016
			l-0.006-0.708v-0.05c0.029-1.956-0.361-3.873-1.051-5.652c-0.7-1.78-1.737-3.41-2.965-4.885c-1.231-1.477-2.679-2.776-4.209-3.973
			c-1.529-1.201-3.186-2.257-4.907-3.206c-3.427-1.922-7.102-3.454-10.864-4.721c-3.768-1.26-7.617-2.32-11.531-3.118
			c-7.793-1.617-15.858-2.62-23.739-2.641c-7.93,0.063-15.873,1.195-23.588,3.23c-7.734,1.973-15.253,4.836-22.419,8.396
			c-3.585,1.761-7.123,3.752-10.61,5.753c-3.466,2.053-6.868,4.211-10.201,6.47c-6.663,4.538-12.887,9.643-18.886,15.111
			c-1.521,1.358-2.99,2.749-4.629,4.077c-1.626,1.311-3.333,2.532-5.191,3.547c-1.853,1.005-3.861,1.858-6.064,2.119
			c-2.186,0.281-4.633-0.389-6.249-1.957l1.133-0.457l-0.004,0.049c-0.167,4.23-0.379,8.484,0.469,12.483
			c0.428,1.993,1.148,3.914,2.118,5.683c0.97,1.75,2.229,3.397,3.628,4.837c1.402,1.431,3.024,2.583,4.816,3.196
			c1.776,0.608,3.78,0.658,5.754,0.424c1.972-0.238,3.92-0.816,5.816-1.565c1.921-0.741,3.667-1.666,5.388-2.802
			c3.425-2.264,6.532-5.129,9.909-7.818c0.84-0.676,1.711-1.333,2.599-1.972c0.878-0.629,1.753-1.234,2.644-1.84
			c1.779-1.207,3.601-2.377,5.494-3.453l1.398-0.781c0.461-0.262,0.945-0.529,1.454-0.782c1.021-0.499,2.129-1.003,3.509-1.158
			c0.338-0.033,0.721-0.044,1.059-0.01c0.331,0.03,0.663,0.067,1.012,0.163c0.685,0.17,1.43,0.508,2.017,1.059
			c0.592,0.546,0.968,1.221,1.208,1.837c0.235,0.621,0.373,1.206,0.475,1.769c0.375,2.22,0.517,4.172,1.353,5.863
			c0.757,1.718,2.264,3.009,4.048,3.976l-0.939,0.711l-0.002-0.022c-0.477-2.516-0.584-5.137-0.232-7.75
			c0.386-2.6,1.292-5.192,2.788-7.422c1.453-2.263,3.429-4.13,5.575-5.639c2.175-1.516,4.397-2.711,6.789-3.789
			c2.389-1.041,4.998-1.811,7.73-1.924c0.681-0.021,1.366-0.003,2.047,0.062c0.66,0.064,1.404,0.163,2.122,0.401
			c1.438,0.437,2.797,1.426,3.604,2.736c0.412,0.645,0.704,1.345,0.893,2.049c0.19,0.72,0.272,1.472,0.256,2.175
			c-0.03,1.42-0.301,2.609-0.287,3.738c-0.06,2.308,0.628,4.641,1.904,6.628l-1.221,0.39v-0.009c-0.027-0.8-0.06-1.623,0-2.473
			c0.051-0.853,0.255-1.735,0.456-2.506c0.419-1.595,0.946-3.207,1.833-4.716c0.44-0.754,0.973-1.485,1.641-2.138
			c0.336-0.323,0.697-0.634,1.107-0.896c0.407-0.277,0.734-0.424,1.105-0.642c1.43-0.83,2.929-1.549,4.469-2.168
			c6.177-2.463,13.085-3.088,19.613-1.897c1.635,0.29,3.255,0.666,4.845,1.162c1.603,0.518,3.086,1.093,4.607,1.708
			c3.02,1.219,5.941,2.672,8.763,4.286c0.705,0.404,1.404,0.818,2.097,1.242c0.36,0.23,0.656,0.389,1.075,0.686l1,0.74
			c1.286,0.977,2.551,1.953,3.797,2.961c2.495,2.009,4.998,3.999,7.452,6.057l0.588,0.493l-0.403,0.596l-0.001,0.002
			c-1.251,1.947-2.407,4.022-3.47,6.11c-1.062,2.097-2.027,4.242-2.888,6.425c-0.849,2.188-1.559,4.424-2.135,6.689
			c-0.541,2.273-0.891,4.581-1.014,6.898L198.311,135.038z"/>
	</g>
	<g>
		<path d="M113.85,269.699c-2.506,5.05-4.199,10.401-5.366,15.873c-1.165,5.473-1.813,11.07-1.955,16.688
			c-0.189,5.616,0.088,11.258,0.825,16.831c0.747,5.563,2.018,11.088,4.086,16.218l-0.133-0.247c0.903,1.326,2.073,2.519,3.35,3.597
			c1.276,1.084,2.678,2.052,4.155,2.909c2.939,1.743,6.142,3.089,9.431,4.168c6.591,2.154,13.548,3.225,20.514,3.497
			c6.975,0.284,13.981-0.292,20.859-1.533c6.881-1.254,13.623-3.229,20.146-5.767l-0.903,2.043l0,0
			c-2.334-5.712-4.358-11.575-5.922-17.585c-1.555-6.009-2.647-12.171-3.031-18.41c-0.354-6.23-0.041-12.557,1.404-18.659
			c1.439-6.089,4.03-11.919,7.757-16.834c-2.561,5.603-4.359,11.4-5.291,17.327c-0.954,5.919-1.103,11.945-0.551,17.921
			c0.522,5.98,1.676,11.911,3.184,17.757c1.506,5.85,3.373,11.622,5.412,17.35v1.695l-0.904,0.348
			c-6.714,2.585-13.659,4.591-20.752,5.857c-7.091,1.253-14.318,1.82-21.53,1.501c-7.205-0.31-14.41-1.439-21.313-3.722
			c-3.446-1.146-6.822-2.573-9.985-4.464c-1.587-0.93-3.115-1.989-4.539-3.207c-1.424-1.214-2.763-2.576-3.857-4.193l-0.08-0.118
			l-0.054-0.129c-2.259-5.457-3.541-11.162-4.432-16.894c-0.867-5.74-1.2-11.548-1.054-17.352
			c0.208-5.797,0.857-11.607,2.276-17.268c1.428-5.639,3.658-11.177,7.096-15.905L113.85,269.699z"/>
	</g>
	<g>
		<path d="M198.287,326.624c-0.961-1.672-1.796-3.44-2.327-5.339c-0.502-1.903-0.701-3.914-0.5-5.903
			c0.399-4.015,2.413-7.636,4.822-10.641c2.419-3.045,5.303-5.591,8.11-8.08c1.4-1.247,2.798-2.481,4.032-3.781
			c0.622-0.646,1.182-1.32,1.616-2c0.437-0.7,0.723-1.318,0.675-1.958c-0.046-1.553-0.531-3.401-1.06-5.112
			c-0.544-1.737-1.204-3.455-1.941-5.139c-1.482-3.365-3.252-6.616-5.322-9.649c-2.079-3.022-4.41-5.874-7.102-8.317
			c-2.68-2.45-5.755-4.441-9.114-5.707l0.831-1.972c1.527,0.826,2.962,1.676,4.417,2.546c1.455,0.869,2.873,1.74,4.302,2.693
			c1.442,0.984,2.765,2.161,3.848,3.529c1.051,1.38,1.94,2.937,2.229,4.63c-0.785-1.502-1.879-2.755-3.069-3.86
			c-1.193-1.105-2.525-2.037-3.925-2.838l-4.368-2.448c-1.458-0.804-2.946-1.613-4.401-2.336l0.831-1.972
			c3.736,1.24,7.15,3.321,10.051,5.897c1.461,1.279,2.829,2.655,4.101,4.109c1.262,1.462,2.418,3.006,3.506,4.591
			c2.167,3.177,4.007,6.556,5.555,10.068c0.769,1.759,1.461,3.555,2.041,5.404c0.559,1.873,1.108,3.691,1.149,5.906
			c0.015,0.263-0.04,0.616-0.076,0.923l-0.254,0.885c-0.225,0.537-0.479,1.051-0.78,1.488c-0.59,0.896-1.256,1.658-1.944,2.358
			c-1.374,1.409-2.816,2.643-4.238,3.878c-2.842,2.456-5.64,4.889-7.999,7.662c-2.344,2.757-4.193,5.957-4.664,9.465
			c-0.251,1.743-0.156,3.534,0.225,5.285c0.419,1.745,1.106,3.434,1.924,5.072L198.287,326.624z"/>
	</g>
	<g>
		<path d="M190.868,344.095c-0.185,0-0.366-0.002-0.546-0.007l0.036-1.355c5.772,0.154,11.906-2.047,15.286-5.473
			c2.024-2.052,2.997-4.416,2.892-7.028c-0.216-5.401-2.338-9.41-6.307-11.915c-2.969-1.874-5.886-2.161-5.915-2.164l0.124-1.35
			c0.129,0.012,12.891,1.35,13.452,15.374c0.119,2.96-1.016,5.738-3.282,8.035C202.568,342.308,195.901,344.095,190.868,344.095z"/>
	</g>
	<g>
		<path d="M106.762,268.061c-1.794,1.538-3.48,3.19-5.023,4.975c-1.556,1.769-3.026,3.616-4.358,5.557
			c-2.642,3.865-5.012,8.042-6.184,12.441l-0.203,0.823l-0.123,0.821c-0.044,0.275-0.097,0.561-0.066,0.768
			c0.027,0.233-0.034,0.441,0.045,0.699c0.144,0.985,0.608,2.059,1.072,3.099c1.011,2.089,2.27,4.151,3.443,6.262
			c1.191,2.104,2.335,4.267,3.231,6.545c0.863,2.277,1.549,4.688,1.481,7.119c-0.341-2.397-1.217-4.634-2.333-6.731
			c-1.102-2.108-2.42-4.096-3.741-6.097c-1.33-2-2.719-3.971-3.915-6.164c-0.273-0.576-0.601-1.098-0.827-1.724
			c-0.12-0.305-0.25-0.602-0.36-0.917l-0.252-1.006c-0.119-0.674-0.162-1.536-0.057-2.122l0.115-0.969l0.196-0.938
			c0.536-2.499,1.504-4.815,2.616-7.028c1.114-2.215,2.448-4.298,3.887-6.295c2.925-3.951,6.42-7.524,10.559-10.214L106.762,268.061
			z"/>
	</g>
	<g>
		<path d="M98.593,311.961c-2.528,0.14-4.485,1.843-5.465,4.022c-0.982,2.157-1.117,4.829-0.08,6.739
			c0.254,0.474,0.58,0.892,0.972,1.237c0.395,0.364,0.89,0.673,1.407,0.929c1.038,0.534,2.257,0.814,3.511,0.987
			c1.26,0.155,2.569,0.183,3.883,0.112c0.659-0.025,1.32-0.077,1.979-0.154c0.329-0.039,0.658-0.086,0.983-0.138l0.486-0.074
			l0.234-0.042l0.106-0.021l0.04-0.007l-0.001,0.004l-0.044,0.024l-0.027,0.018c-0.198,0.06-0.397,0.57-0.272,0.768l1.293-0.408
			c0.122,0.201-0.081,0.715-0.283,0.78l-0.041,0.025l-0.073,0.038l-0.06,0.028l-0.081,0.036l-0.139,0.058l-0.259,0.102l-0.508,0.184
			c-0.34,0.11-0.681,0.209-1.024,0.302c-0.686,0.185-1.379,0.344-2.081,0.474c-1.407,0.236-2.85,0.358-4.321,0.275
			c-1.469-0.071-2.973-0.371-4.417-1.01c-0.718-0.331-1.404-0.747-2.031-1.296c-0.643-0.552-1.179-1.226-1.581-1.955
			c-1.537-2.997-1.148-6.401,0.303-9.095c0.73-1.359,1.82-2.556,3.171-3.366c1.357-0.8,2.98-1.126,4.471-0.93L98.593,311.961z"/>
	</g>
	<g>
		<path d="M111.72,335.819c0.021,5.565-0.133,11.123-0.534,16.659c-0.416,5.534-1.008,11.047-1.757,16.533
			s-1.664,10.941-2.614,16.378l-1.396,8.144c-0.427,2.699-0.88,5.455-0.823,8.061l-0.846-0.601h0.001
			c3.521-1.006,7.222-1.412,10.901-1.236c3.682,0.184,7.324,1.005,10.773,2.304c3.455,1.296,6.713,3.104,9.655,5.34
			c1.489,1.096,2.86,2.35,4.176,3.66c0.63,0.685,1.273,1.361,1.855,2.096l0.862,1.115c0.078,0.103,0.144,0.185,0.177,0.222
			c0.042,0.045,0.087,0.124,0.12,0.138c0.071,0.07,0.123,0.098,0.09,0.076c-0.027,0.005-0.116-0.027-0.121,0.001
			c0.009-0.014,0.073-0.039,0.165-0.118c0.186-0.151,0.416-0.452,0.62-0.766c0.415-0.645,0.783-1.412,1.126-2.193
			c0.678-1.576,1.245-3.248,1.767-4.934c1.04-3.38,1.896-6.845,2.709-10.318c0.837-3.47,1.6-6.964,2.321-10.468
			c0.747-3.498,1.443-7.014,2.142-10.52l1.339,0.21c-0.895,7.141-2.106,14.222-3.566,21.28c-0.761,3.522-1.605,7.03-2.632,10.518
			c-0.521,1.743-1.085,3.48-1.806,5.207c-0.365,0.865-0.774,1.722-1.337,2.581c-0.292,0.429-0.597,0.862-1.101,1.288
			c-0.251,0.211-0.572,0.42-0.983,0.567c-0.435,0.131-0.994,0.164-1.439-0.016c-0.903-0.327-1.291-0.988-1.576-1.334l-0.775-1.019
			c-0.523-0.675-1.115-1.306-1.691-1.945c-1.214-1.227-2.484-2.414-3.876-3.455c-2.759-2.109-5.798-3.869-9.016-5.195
			c-6.443-2.651-13.67-3.324-20.539-1.775h-0.001l-0.804,0.181l-0.043-0.782c-0.08-1.459-0.003-2.868,0.124-4.259
			c0.132-1.389,0.294-2.769,0.482-4.14l1.173-8.202c0.797-5.454,1.557-10.905,2.149-16.369c0.591-5.464,1.025-10.938,1.285-16.414
			c0.244-5.478,0.243-10.955,0.071-16.419L111.72,335.819z"/>
	</g>
	<g>
		<path d="M147.958,366.988c6.008,7.479,11.325,15.551,15.889,24.042c4.598,8.465,8.333,17.437,11.834,26.302
			c0.451,1.097,0.906,2.189,1.388,3.239c0.481,1.04,0.994,2.087,1.554,2.885c0.262,0.382,0.599,0.699,0.659,0.712
			c0.034,0.012-0.083-0.028-0.164-0.01c-0.056,0.003-0.089,0.037,0.114-0.085c1.049-0.655,2.088-1.328,3.178-1.915
			c4.301-2.458,9.002-4.173,13.803-5.288c4.816-1.078,9.757-1.493,14.646-1.269c4.893,0.246,9.727,0.981,14.384,2.606h0.001
			l-0.815,0.941c-6.098-12.432-12.141-24.887-18.108-37.384c-2.979-6.251-5.947-12.507-8.853-18.797
			c-1.455-3.144-2.901-6.293-4.306-9.467c-1.413-3.174-2.8-6.343-4.046-9.666l2.448-0.847c1.138,3.176,2.476,6.373,3.832,9.541
			c1.35,3.175,2.746,6.338,4.151,9.497c2.806,6.319,5.679,12.614,8.562,18.903c5.776,12.575,11.633,25.117,17.542,37.631
			l0.664,1.406l-1.479-0.466h-0.001c-4.572-0.964-9.337-1.336-14.012-1.269c-4.686,0.089-9.351,0.653-13.85,1.819
			c-4.506,1.132-8.847,2.848-12.889,5.103c-1.021,0.547-1.993,1.176-2.977,1.787c-0.304,0.191-0.868,0.532-1.527,0.61
			c-0.679,0.101-1.406-0.083-1.895-0.357c-0.999-0.565-1.431-1.22-1.858-1.804c-0.788-1.186-1.292-2.321-1.798-3.459
			c-0.495-1.136-0.939-2.264-1.377-3.391c-1.738-4.5-3.351-8.972-5.121-13.397c-1.781-4.416-3.648-8.795-5.687-13.1
			C157.783,383.423,153.137,375.062,147.958,366.988z"/>
	</g>
	<g>
		<path d="M104.237,402.247c-2.68,1.669-5.346,3.342-7.893,5.128c-1.272,0.889-2.508,1.825-3.647,2.809
			c-1.113,0.963-2.227,2.108-2.652,3.115c-0.106,0.244-0.141,0.448-0.124,0.575c0.019,0.132,0.029,0.215,0.143,0.35
			c0.117,0.129,0.281,0.293,0.54,0.432c0.235,0.165,0.53,0.192,0.785,0.316c1.346,0.353,2.908,0.603,4.442,0.781
			c3.086,0.377,6.226,0.598,9.364,0.743c6.28,0.276,12.584,0.369,18.874,0.166c6.287-0.231,12.576-0.638,18.777-1.632l0.263,1.33
			c-3.118,0.675-6.267,1.225-9.43,1.598c-3.159,0.43-6.335,0.67-9.511,0.865c-6.353,0.389-12.72,0.48-19.085,0.212
			c-3.184-0.12-6.365-0.312-9.564-0.674c-1.607-0.178-3.186-0.395-4.902-0.833c-0.979-0.318-1.872-0.69-2.661-1.677
			c-0.393-0.478-0.654-1.18-0.681-1.832c-0.038-0.665,0.126-1.251,0.333-1.729c0.421-0.975,1.001-1.682,1.598-2.318
			c0.6-0.633,1.232-1.187,1.875-1.711c1.282-1.055,2.646-1.933,4.01-2.792c2.753-1.675,5.603-3.118,8.511-4.418L104.237,402.247z"/>
	</g>
	<g>
		<path d="M180.343,424.931c5.466,2.078,11.06,3.777,16.72,5.176c5.663,1.39,11.423,2.359,17.195,2.962
			c2.886,0.301,5.786,0.451,8.656,0.401c1.435-0.015,2.865-0.105,4.249-0.29c0.694-0.094,1.385-0.192,2.016-0.376
			c0.673-0.124,1.233-0.387,1.717-0.598c0.393-0.232,0.585-0.512,0.706-0.942c0.099-0.442,0.089-1.021-0.043-1.625
			c-0.279-1.216-0.868-2.486-1.565-3.686c-1.434-2.397-3.287-4.625-5.373-6.566l0.837-1.066c2.502,1.727,4.658,3.907,6.392,6.459
			c0.866,1.279,1.641,2.66,2.066,4.305c0.2,0.822,0.319,1.743,0.111,2.743c-0.21,1.004-0.926,2.016-1.815,2.521
			c-0.828,0.428-1.632,0.758-2.404,0.912c-0.786,0.216-1.551,0.318-2.315,0.415c-1.528,0.191-3.039,0.271-4.541,0.274
			c-3.006,0.027-5.985-0.155-8.941-0.488c-5.917-0.625-11.747-1.804-17.463-3.357c-5.72-1.542-11.315-3.531-16.723-5.92
			L180.343,424.931z"/>
	</g>
	<g>
		<path d="M167.514,266.054c-1.85,1.354-3.742,2.598-5.66,3.815c-1.919,1.213-3.865,2.382-5.842,3.505
			c-1.978,1.122-3.986,2.198-6.059,3.177c-2.08,0.97-4.19,1.889-6.54,2.473l-1.04,0.258l-0.259-1.005
			c-0.261-1.013-0.612-2.064-0.972-3.102c-0.363-1.039-0.749-2.081-1.145-3.108l0,0l1.156,0.118c-0.7,0.965-1.259,2.513-2.747,3.404
			c-0.368,0.21-0.788,0.368-1.216,0.418c-0.429,0.061-0.736,0.057-1.105,0.078c-0.706,0.025-1.406,0.028-2.104,0.023l-2.09-0.042
			c-0.657-0.042-1.475,0.031-2.33-0.416c-0.423-0.216-0.8-0.63-0.984-1.056c-0.196-0.427-0.253-0.826-0.305-1.199
			c-0.09-0.749-0.102-1.411-0.195-2.056l1.342-0.189c0.103,0.725,0.12,1.449,0.198,2.074c0.04,0.309,0.094,0.603,0.193,0.806
			c0.098,0.206,0.212,0.329,0.403,0.432c0.383,0.221,1.016,0.228,1.722,0.25l2.058,0.041c0.685,0.005,1.369,0.001,2.044-0.022
			c0.321-0.017,0.708-0.024,0.963-0.066c0.261-0.027,0.501-0.122,0.731-0.251c0.462-0.26,0.861-0.722,1.216-1.254
			c0.368-0.536,0.653-1.133,1.12-1.787l0.617-0.864l0.539,0.982l0,0c0.54,0.988,1.063,1.974,1.571,2.98
			c0.507,1.008,1.002,2.015,1.446,3.109l-1.298-0.746c2.054-0.437,4.142-1.248,6.176-2.121c2.04-0.882,4.049-1.875,6.032-2.917
			c3.956-2.094,7.876-4.348,11.571-6.843L167.514,266.054z"/>
	</g>
	<g>
		<g>
			<path class="sx1" d="M136.919,275.361c5.295,33.377-3.762,66.559-8.831,76.245c-9.036,3.13-25.271,3.989-25.271,3.989
				l-2.003-15.244c23.832-17.574,30.489-60.175,30.328-64.989h5.777c2.909,12.693,6.849,63.949,5.084,69.726l-4.814,1.605
				l-2.241-4.172c0,0,1.654-5.744,1.824-21.151"/>
		</g>
		<g>
			<path d="M137.589,275.255c1.006,6.433,1.528,12.936,1.603,19.44c0.082,6.505-0.268,13.01-0.983,19.471
				c-0.729,6.46-1.818,12.881-3.313,19.212c-0.753,3.164-1.592,6.31-2.591,9.413c-1.009,3.1-2.092,6.179-3.602,9.136l-0.126,0.247
				l-0.262,0.087c-4.144,1.378-8.393,2.129-12.644,2.747c-4.258,0.599-8.52,1.019-12.817,1.284l-0.646,0.04l-0.085-0.648
				l-2.007-15.244l-0.054-0.407l0.334-0.251c4.826-3.624,8.946-8.166,12.349-13.186c3.447-4.999,6.229-10.446,8.614-16.044
				c2.349-5.62,4.287-11.415,5.843-17.311c0.777-2.948,1.459-5.922,2.03-8.914c0.293-1.495,0.54-2.997,0.764-4.499
				c0.211-1.487,0.418-3.045,0.426-4.446l0.004-0.743h0.715l5.777-0.003h0.585l0.118,0.561c1.223,5.798,1.826,11.6,2.457,17.417
				c0.588,5.817,1.141,11.634,1.601,17.46c0.457,5.826,0.848,11.657,1.126,17.498c0.137,2.921,0.248,5.844,0.293,8.774
				c0.024,1.465,0.024,2.932-0.008,4.405c-0.065,1.49-0.059,2.915-0.441,4.531l-0.077,0.326l-0.357,0.119l-4.814,1.605l-0.542,0.18
				l-0.27-0.503l-2.24-4.172l-0.124-0.23l0.07-0.278c0.406-1.62,0.662-3.402,0.88-5.132c0.214-1.744,0.38-3.498,0.503-5.257
				c0.257-3.517,0.374-7.048,0.415-10.582l1.355,0.015c-0.041,3.555-0.159,7.111-0.419,10.665c-0.124,1.777-0.292,3.552-0.509,5.326
				c-0.229,1.784-0.467,3.521-0.923,5.34l-0.054-0.508l2.24,4.172l-0.811-0.322l4.814-1.605l-0.434,0.445
				c0.291-1.23,0.332-2.75,0.382-4.169c0.032-1.445,0.032-2.897,0.008-4.351c-0.044-2.907-0.154-5.819-0.291-8.729
				c-0.275-5.822-0.67-11.641-1.12-17.456c-0.46-5.813-0.958-11.626-1.622-17.418c-0.326-2.896-0.671-5.79-1.069-8.673
				c-0.398-2.879-0.815-5.768-1.428-8.57l0.703,0.56l-5.777-0.003l0.719-0.743c-0.012,1.666-0.228,3.154-0.442,4.699
				c-0.228,1.529-0.48,3.051-0.776,4.563c-0.58,3.028-1.27,6.031-2.056,9.009c-1.574,5.955-3.535,11.81-5.916,17.499
				c-2.419,5.668-5.242,11.195-8.759,16.292c-3.472,5.115-7.694,9.778-12.681,13.518l0.28-0.658l2,15.245l-0.731-0.608
				c4.235-0.26,8.487-0.676,12.695-1.267c4.201-0.607,8.408-1.357,12.385-2.679l-0.388,0.334c1.439-2.813,2.522-5.864,3.514-8.915
				c0.986-3.061,1.819-6.175,2.566-9.309c1.484-6.271,2.567-12.64,3.292-19.047c0.712-6.408,1.062-12.858,0.983-19.302
				c-0.072-6.444-0.587-12.882-1.578-19.244L137.589,275.255z"/>
		</g>
	</g>
	<g>
		<path d="M196.86,320.59c-0.741,1.088-1.701,1.686-2.668,2.22c-0.975,0.52-1.993,0.918-3.032,1.227
			c-2.078,0.596-4.265,0.86-6.389,0.555l0.022-0.202c2.102,0.109,4.186-0.343,6.115-1.09c0.962-0.383,1.89-0.85,2.739-1.407
			c0.838-0.545,1.642-1.242,2.03-1.963L196.86,320.59z"/>
	</g>
	<g>
		<path d="M98.706,311.131c1.12,0.557,2.19,1.214,3.275,1.757c0.541,0.266,1.092,0.506,1.626,0.628
			c0.536,0.122,1.021,0.089,1.382-0.109l0.546,1.241c-0.792,0.294-1.616,0.167-2.254-0.076c-0.65-0.248-1.202-0.593-1.731-0.947
			c-1.048-0.717-2.001-1.497-3.021-2.189L98.706,311.131z"/>
	</g>
	<g>
		<path d="M115.735,269.759c0.003-0.058,0.097,0.201,0.218,0.361c0.12,0.184,0.268,0.375,0.418,0.562
			c0.304,0.376,0.643,0.743,0.991,1.1c0.701,0.714,1.449,1.393,2.224,2.03c0.775,0.636,1.58,1.232,2.405,1.75
			c0.814,0.512,1.697,0.965,2.443,1.135h0.001l-1.555,0.793c0.499-1.073,1.012-2.141,1.559-3.199
			c0.276-0.528,0.557-1.055,0.857-1.577c0.32-0.54,0.574-0.999,1.044-1.604l1.067,0.836c-0.182,0.363-0.428,0.963-0.611,1.472
			c-0.194,0.533-0.374,1.077-0.549,1.624c-0.345,1.096-0.66,2.207-0.961,3.323l-0.325,1.206l-1.23-0.413h-0.001
			c-1.242-0.436-2.153-1.081-3.034-1.746c-0.871-0.672-1.668-1.396-2.426-2.152c-0.758-0.757-1.474-1.547-2.149-2.382
			c-0.336-0.42-0.662-0.849-0.967-1.311c-0.152-0.234-0.301-0.468-0.439-0.733c-0.127-0.289-0.294-0.498-0.334-1.077h1.354V269.759z
			"/>
	</g>
	<g>
		<path d="M221.208,149.964c-0.928,3.053-1.104,6.397-0.903,9.675c0.22,3.288,0.838,6.578,1.965,9.714
			c-1.369-3.041-2.255-6.305-2.74-9.634c-0.46-3.329-0.572-6.756,0.175-10.165L221.208,149.964z"/>
	</g>
	<g>
		<path d="M140.799,224.612c-1.147,0-2.229-0.067-3.232-0.205l0.184-1.343c11.862,1.623,33.497-6.841,37.202-16.603l1.268,0.481
			c-1.866,4.917-7.868,9.801-16.467,13.401C153.231,223.075,146.287,224.612,140.799,224.612z"/>
	</g>
	<g>
		<path d="M123.575,247.488c0.716,1.206,0.982,2.585,1.167,3.914c0.177,1.342,0.208,2.694,0.117,4.041
			c-0.098,1.346-0.281,2.693-0.648,4.008c-0.361,1.305-0.876,2.628-1.757,3.693c0.207-1.351,0.304-2.628,0.388-3.926l0.201-3.878
			c0.065-1.294,0.133-2.59,0.226-3.892C123.346,250.139,123.509,248.851,123.575,247.488z"/>
	</g>
	<g>
		<polygon class="sx4" points="106.502,348.278 106.96,351.062 110.82,350.801 114.133,345.277 122.78,348.232 120.1,345.403
			108.733,341.119 104.868,341.395 112.264,344.57 		"/>
	</g>
	<g>
		<path class="sx4" d="M105.676,352.823l-0.75-4.995l0.092-0.056l5.338-3.188l-8.154-3.531l7.218-0.628l0.035,0.014l11.334,4.383
			l4.3,5.024l-10.472-3.321l-2.352,5.281l-0.086,0.014L105.676,352.823z M105.274,347.992l0.67,4.466l6.099-0.94l2.397-5.385
			l0.136,0.044l9.539,3.025l-3.544-4.141l-11.198-4.31l-5.883,0.511l7.565,3.277L105.274,347.992z"/>
	</g>
	<g>
		<path d="M128.264,404.214c1.185,0.616,2.263,1.415,3.336,2.212c2.777,2.062,5.582,4.15,7.795,6.807
			c0.735,0.883,1.418,1.862,1.64,2.989c-7.267,0.353-14.534,0.705-21.8,1.058c-3.306,0.16-6.617,0.435-9.897,0.213
			c-3.507-0.238-7.043,0.321-10.561,0.115c-2.006-0.117-3.981-0.578-5.934-0.878c-1.634-0.251-3.13-1.451-3.218-3.21
			c-0.078-1.548,0.893-2.943,1.924-4.101c2.966-3.331,6.851-5.814,11.087-7.193c4.969-1.618,10.13-1.834,15.247-0.929
			c1.782,0.315,3.46,1.003,5.249,1.215C124.905,402.721,126.678,403.391,128.264,404.214z"/>
	</g>
</g>
<g class="sx7">
	<path class="sx8" d="M188.288,273.844c-1.284,2.557-0.993,6.593-1.103,9.35c-0.284,7.123-0.02,14.369,1.241,21.395
		c0.714,3.979,2.744,14.77,7.921,15.568c0.021-1.643-0.014-3.287,0.042-4.932c1.966,0.592,3.766,1.622,5.547,2.643
		c0.602,0.345,1.205,0.691,1.807,1.036c0.631,0.362,1.265,0.726,1.829,1.185c1.358,1.105,2.237,2.709,2.757,4.381
		c0.771,2.484,1.863,6.643,0.715,9.194c-2.257,5.015-14.156,13.382-19.451,8.486c-3.832-7.139-9.65-29.793-8.832-37.755
		s2.343-17.355,2.343-17.355l3.133-9.111C186.237,277.929,188.286,273.848,188.288,273.844z"/>
</g>
<g class="sx7">
	<path class="sx8" d="M112.895,269.255c0.033-1.392-6.06,3.924-8.917,14.378c-2.507,9.175-3.439,22.182-1.238,34.792
		c0.653,3.742-3.05,6.423-6.755,8.086l11.447-0.126c0,0-3.431-29.594-0.89-38.867c1.128-4.12,2.665-8.142,3.684-12.279
		c0.33-1.339,1.745-2.737,1.93-3.878C112.172,271.269,112.893,269.342,112.895,269.255z"/>
</g>
<g class="sx7">
	<path class="sx8" d="M82.393,132.061c10.178-16.044,23.179-24.283,25.429-23.779c0,0-0.221-5.519-2.02-6.451
		s-7.738,1.161-9.127,1.989c-1.389,0.828-13.374,9.538-13.374,9.538L82.393,132.061z"/>
</g>
<g class="sx7">
	<path class="sx8" d="M110.262,113.242c2.228,2.228,4.839,4.329,7.194,4.648c-0.764-2.674,0.963-11.209,4.775-15.343
		c5.275-5.722,13.437-8.22,21.138-5.105c1.528-1.528-0.083-4.712-1.084-5.667s-2.687-1.396-6.222-1.521s-3.535-0.125-3.535-0.125
		s-5.138,0.987-7.716,3.552s-8.757,5.875-9.584,7.658c-0.828,1.783-0.828,1.783-0.828,1.783s-0.7,6.112-0.764,6.367
		s0.508,5.061-0.064,5.03C112.801,114.473,110.262,113.242,110.262,113.242z"/>
</g>
<g class="sx7">
	<path class="sx8" d="M143.999,104.584c0.714,2.065,1.748,4.693,3.828,6.069c0.81-5.631,1.642-9.01,4.52-11.137
		s20.898-7.258,44.362,1.189c-7.133-5.819-16.228-9.651-22.979-10.192c-6.752-0.541-15.24,0.901-15.579,1.008
		c-0.339,0.108-9.514,3.99-9.514,3.99l-0.81,3.58c0,0-1.299,1.613-1.299,2.802s-0.751,3.629-0.939,3.692
		S143.999,104.584,143.999,104.584z"/>
</g>
<g class="sx7">
	<path class="sx8" d="M213.532,152.573c0.21-0.186,5.277-1.25,6.835-0.374s6.389,7.155,7.008,8.27c0,0-1.962-10.736-5.576-10.938
		S213.532,152.573,213.532,152.573z"/>
</g>
<g class="sx7">
	<path class="sx8" d="M147.678,217.999c7.672,0,24.183-5.848,25.029-6.675c2.097-2.534,2.711-4.939,2.711-4.939
		s0.194-3.254-0.43-3.769C170.805,206.448,147.678,217.999,147.678,217.999z"/>
</g>
<g class="sx7">
	<path class="sx8" d="M118.535,275.361c2.065,2.122,4.317,5.407,7.227,6.252c0.605-1.847,1.295-3.678,1.893-5.505
		c0.346-1.056,1.462-1.331,2.466-1.235c1.624,0.155,0.862,1.732,0.706,3.007c2.087-0.179,4.201-0.923,6.228-0.395
		c-0.109-0.709-0.217-1.419-0.326-2.128c1.562-0.316,3.243-1.061,3.36-2.933c0.023-0.369-0.043-0.762-0.281-1.044
		c-0.459-0.543-1.305-0.456-2.004-0.321c-0.86,0.166-1.72,0.332-2.581,0.499c-0.595,0.115-1.194,0.23-1.8,0.233
		c-0.6,0.002-1.195-0.107-1.792-0.162c-1.898-0.176-3.682,0.01-5.401,0.787l-0.657,3.978l-1.126,1.535l-3.483-1.186L118.535,275.361
		z"/>
</g>
<g class="sx7">
	<path class="sx8" d="M148.322,367.495c0.247,10.791-10.452,40.068-12.423,41.714c4.583,5.012,6.544,6.705,6.544,6.705
		s3.916-3.094,3.942-6.705c0.026-3.61,7.165-29.506,6.765-30.036s0.61-3.674,0.61-3.674S149.576,369,148.322,367.495z"/>
</g>
<g class="sx7">
	<path class="sx8" d="M138.517,294.832c-0.018,4.52-1.305,46.369-10.784,56.23c-4.952,1.991-18.423,4.01-18.423,4.01l-0.595,5.154
		l2.687,10.176c0,0,15.768-2.44,25.623-8.729c3.379-10.612,7.019-13.643,5-36.225c-2.057-23.014-3.14-33.886-3.14-33.886
		L138.517,294.832z"/>
</g>
<g>
	<ellipse class="sx4" cx="96.787" cy="142.846" rx="3.079" ry="8.332"/>
</g>
<g>
	<ellipse class="sx4" cx="102.598" cy="153.774" rx="2.315" ry="6.265"/>
</g>
<g>
	<ellipse class="sx4" cx="156.771" cy="142.846" rx="3.079" ry="8.332"/>
</g>
<g>
	<ellipse class="sx4" cx="162.582" cy="153.774" rx="2.315" ry="6.265"/>
</g>
<g>
	<g>
		<path class="sx1" d="M199.335,244.625c-7.794,11.949-10.443,11.841-18.103,15.668c-14.114,7.05-21.283,8.23-21.283,8.23
			c15.962-3.231,20.009-0.888,30.391-5.144c8.366-3.43,10.81-1.571,17.001,4.73c0,0-7.944-9.975-10.022-11.138
			c-2.078-1.164-4.169-1.664-4.169-1.664L199.335,244.625z"/>
	</g>
	<g>
		<g>
			<path d="M198.785,245.764c-0.089,0.511,0.002,1.01,0.192,1.286c0.111,0.191,0.186,0.294,0.212,0.408
				c0.004,0.069,0.038,0.081-0.01,0.199l-0.145,0.358c-0.404,0.944-0.851,1.864-1.374,2.754c-1.035,1.777-2.277,3.484-3.866,4.986
				c-1.584,1.497-3.482,2.797-5.369,3.776c-1.884,0.973-3.68,1.745-5.43,2.551c-1.761,0.815-3.613,1.679-5.439,2.469
				c-1.848,0.775-3.71,1.519-5.597,2.209c-1.88,0.705-3.797,1.325-5.735,1.895c-1.966,0.564-3.844,1.073-6.018,1.417l-0.566-3.088
				c4.197-0.681,8.442-1.166,12.673-1.398c4.23-0.293,8.401-0.253,12.373-1.252c2-0.475,3.911-1.165,5.873-1.929
				c1.996-0.75,4.072-1.5,6.376-1.559c1.143-0.034,2.327,0.171,3.407,0.589c1.087,0.409,2.059,1.01,2.945,1.664
				c1.767,1.322,3.266,2.833,4.785,4.294l-1.529,1.353c-2.084-2.469-4.203-4.937-6.406-7.276c-0.552-0.583-1.109-1.157-1.672-1.709
				c-0.553-0.537-1.158-1.107-1.658-1.457c-0.133-0.098-0.539-0.294-0.859-0.445c-0.339-0.154-0.683-0.3-1.035-0.433
				c-0.69-0.259-1.459-0.497-2.115-0.642l-1.887-0.419l0.925-1.82c0.41-0.806,0.807-1.565,1.227-2.25
				c0.421-0.688,0.876-1.294,1.417-1.884c1.085-1.158,2.468-2.444,3.732-3.958L198.785,245.764z M200.135,243.7
				c-0.662,1.808-1.293,3.762-2.129,5.821c-0.49,1.191-1.066,2.365-1.676,3.457c-0.61,1.095-1.244,2.116-1.865,3.091l-0.961-2.239
				c0.92,0.26,1.69,0.557,2.507,0.908c0.402,0.174,0.798,0.364,1.191,0.565c0.4,0.222,0.74,0.367,1.259,0.758
				c0.793,0.638,1.328,1.238,1.911,1.862c0.565,0.62,1.105,1.246,1.637,1.876c2.119,2.523,4.143,5.073,6.133,7.675l-1.529,1.353
				c-1.432-1.521-2.875-3.028-4.431-4.28c-0.781-0.618-1.598-1.154-2.469-1.514c-0.873-0.353-1.798-0.521-2.753-0.506
				c-1.915,0.034-3.896,0.647-5.796,1.414c-1.935,0.796-3.967,1.576-6.048,2.111c-4.19,1.107-8.485,1.329-12.604,1.802
				c-4.137,0.495-8.216,1.221-12.25,2.21l-0.566-3.088c1.698-0.42,3.598-1.082,5.372-1.762c1.801-0.689,3.58-1.455,5.349-2.247
				c1.771-0.788,3.52-1.633,5.258-2.502c1.759-0.856,3.444-1.739,5.226-2.659c1.788-0.94,3.608-1.751,5.218-2.612
				c1.597-0.868,2.966-1.84,4.239-3.068c1.28-1.21,2.547-2.568,3.889-3.934c0.681-0.673,1.358-1.374,2.088-2.044l0.281-0.247
				c0.093-0.083,0.261-0.279,0.403-0.415c0.299-0.296,0.648-0.604,1.033-0.823c0.793-0.464,1.429-0.554,1.711-0.73L200.135,243.7z"
				/>
		</g>
	</g>
</g>
</svg>
