<?xml version="1.0" encoding="utf-8"?>
<!-- Generator: Adobe Illustrator 23.0.4, SVG Export Plug-In . SVG Version: 6.00 Build 0)  -->
<svg version="1.1" id="Layer_1" xmlns="http://www.w3.org/2000/svg" xmlns:xlink="http://www.w3.org/1999/xlink" x="0px" y="0px"
	 viewBox="0 0 500 150" style="enable-background:new 0 0 500 150;" xml:space="preserve">
<style type="text/css">
	.st0{fill:#FFFFFF;}
	.st1{fill:#4FC5DD;}
</style>
<rect class="st0" width="500" height="150"/>
<g>
	<path class="st1" d="M430.875,11.902c-22.62,0-42.323,12.45-52.662,30.864c-10.339-18.414-30.041-30.864-52.662-30.864
		c-33.339,0-60.366,27.027-60.366,60.366s27.027,60.366,60.366,60.366c22.62,0,42.323-12.45,52.662-30.864
		c10.339,18.414,30.041,30.864,52.662,30.864c33.339,0,60.366-27.027,60.366-60.366S464.214,11.902,430.875,11.902z
		 M325.552,116.286c-24.272,0-44.018-19.746-44.018-44.018S301.28,28.25,325.552,28.25c24.272,0,44.018,19.746,44.018,44.018
		S349.824,116.286,325.552,116.286z M424.065,91.598l-16.73-16.73l9.585-9.585l8.422,8.422l20.766-20.766l8.309,8.309
		L424.065,91.598z"/>
	<polygon class="st1" points="336.573,52.939 325.552,63.96 314.532,52.939 306.223,61.247 317.244,72.269 306.223,83.29 
		314.532,91.598 325.552,80.578 336.573,91.598 344.881,83.29 333.861,72.269 344.881,61.247 	"/>
</g>
<g>
	<path class="st1" d="M36.75,58.011H26.72v37.585h-8.685V58.011H8.066v-6.942h28.686v6.942H36.75z"/>
	<path class="st1" d="M56.99,86.085H45.247l-2.385,9.51h-8.777l12.539-44.527h9.052l12.509,44.527h-8.777L56.99,86.085z
		 M47.019,79.142h8.196l-4.006-15.749h-0.183L47.019,79.142z"/>
	<path class="st1" d="M82.58,77.093h-3.792v18.503h-8.716V51.069h8.716v18.104h2.813l8.685-18.104h10.673l-12.14,20.337l13.15,24.19
		H91.388L82.58,77.093z"/>
	<path class="st1" d="M126.948,76.054h-14.955v12.6h17.585v6.942h-26.301V51.069h26.239v6.942h-17.523v11.101h14.955V76.054z"/>
	<path class="st1" d="M174.888,79.602c0,2.304-0.295,4.404-0.886,6.3c-0.592,1.896-1.428,3.538-2.508,4.924l6.606,7.248
		l-5.382,4.586l-6.85-7.614c-1,0.389-2.043,0.683-3.134,0.888c-1.091,0.205-2.228,0.306-3.411,0.306
		c-4.71,0-8.471-1.469-11.284-4.404c-2.813-2.936-4.22-7.013-4.22-12.232V67.125c0-5.2,1.407-9.281,4.22-12.249
		c2.813-2.966,6.564-4.449,11.254-4.449c4.69,0,8.461,1.482,11.315,4.449c2.854,2.966,4.281,7.049,4.281,12.249V79.602z
		 M166.234,67.029c0-3.19-0.591-5.597-1.774-7.223c-1.183-1.626-2.905-2.438-5.168-2.438c-2.283,0-3.996,0.808-5.139,2.423
		c-1.141,1.615-1.711,4.027-1.711,7.238v12.575c0,3.231,0.58,5.653,1.743,7.269c1.161,1.615,2.874,2.423,5.137,2.423
		c2.243,0,3.956-0.808,5.139-2.423c1.182-1.615,1.774-4.038,1.774-7.269V67.029z"/>
	<path class="st1" d="M210.816,51.069v30.307c0,4.75-1.39,8.415-4.174,10.994c-2.783,2.579-6.427,3.867-10.933,3.867
		c-4.506,0-8.15-1.294-10.933-3.884c-2.783-2.59-4.175-6.25-4.175-10.979V51.069h8.685v30.307c0,2.712,0.561,4.71,1.682,5.994
		c1.121,1.285,2.701,1.927,4.74,1.927c2.099,0,3.701-0.611,4.801-1.835c1.1-1.222,1.651-3.251,1.651-6.086V51.069H210.816z"/>
	<path class="st1" d="M224.602,95.596h-8.655V51.069h8.655V95.596z"/>
	<path class="st1" d="M238.694,88.654h17.096v6.942h-26.881v-4.373l16.698-33.212h-16.88v-6.942h26.789v4.22L238.694,88.654z"/>
</g>
</svg>
