<?xml version="1.0" encoding="utf-8"?>
<!-- Generator: Adobe Illustrator 23.0.4, SVG Export Plug-In . SVG Version: 6.00 Build 0)  -->
<svg version="1.1" id="Layer_1" xmlns="http://www.w3.org/2000/svg" xmlns:xlink="http://www.w3.org/1999/xlink" x="0px" y="0px"
	 viewBox="0 0 134.071 134.071" style="enable-background:new 0 0 134.071 134.071;" xml:space="preserve">
<style type="text/css">
	.st0{fill:#002B54;}
	.st1{fill:#FFFFFF;}
</style>
<g id="XMLID_1449_">
	<path id="XMLID_1451_" class="st0" d="M67.036,127.232L67.036,127.232c-33.654,0-60.936-27.282-60.936-60.936l0,0
		c0-33.654,27.282-60.936,60.936-60.936h0c33.654,0,60.936,27.282,60.936,60.936l0,0C127.972,99.95,100.69,127.232,67.036,127.232z"
		/>
	<path id="XMLID_1450_" class="st1" d="M34.568,86.695c5.896,3.78,12.898,5.986,20.421,5.986c24.734,0,38.708-20.891,37.866-39.629
		c2.602-1.877,4.861-4.222,6.647-6.896c-2.39,1.059-4.958,1.776-7.651,2.097c2.749-1.645,4.862-4.256,5.856-7.37
		c-2.574,1.527-5.426,2.637-8.458,3.234c-2.431-2.589-5.893-4.206-9.726-4.206c-8.598,0-14.917,8.024-12.976,16.357
		c-11.072-0.555-20.889-5.859-27.458-13.921c-3.49,5.99-1.81,13.824,4.123,17.788c-2.185-0.069-4.242-0.67-6.037-1.667
		C37.033,64.64,41.455,70.412,47.862,71.7c-1.876,0.51-3.929,0.626-6.014,0.227c1.692,5.294,6.612,9.144,12.443,9.252
		C48.691,85.57,41.636,87.53,34.568,86.695z"/>
</g>
</svg>
